G04 #@! TF.GenerationSoftware,KiCad,Pcbnew,9.0.1*
G04 #@! TF.CreationDate,2025-10-05T20:23:22+13:00*
G04 #@! TF.ProjectId,covers,636f7665-7273-42e6-9b69-6361645f7063,rev?*
G04 #@! TF.SameCoordinates,Original*
G04 #@! TF.FileFunction,Soldermask,Bot*
G04 #@! TF.FilePolarity,Negative*
%FSLAX46Y46*%
G04 Gerber Fmt 4.6, Leading zero omitted, Abs format (unit mm)*
G04 Created by KiCad (PCBNEW 9.0.1) date 2025-10-05 20:23:22*
%MOMM*%
%LPD*%
G01*
G04 APERTURE LIST*
G04 APERTURE END LIST*
G36*
X109202182Y-182932924D02*
G01*
X109464682Y-182992838D01*
X109718823Y-183081765D01*
X109961409Y-183198589D01*
X110189390Y-183341838D01*
X110399898Y-183509713D01*
X110590287Y-183700102D01*
X110758162Y-183910610D01*
X110901411Y-184138591D01*
X111018235Y-184381177D01*
X111107162Y-184635318D01*
X111167076Y-184897818D01*
X111197223Y-185165375D01*
X111197223Y-185434625D01*
X111167076Y-185702182D01*
X111107162Y-185964682D01*
X111018235Y-186218823D01*
X110901411Y-186461409D01*
X110758162Y-186689390D01*
X110590287Y-186899898D01*
X110399898Y-187090287D01*
X110189390Y-187258162D01*
X109961409Y-187401411D01*
X109718823Y-187518235D01*
X109464682Y-187607162D01*
X109202182Y-187667076D01*
X108934625Y-187697223D01*
X108665375Y-187697223D01*
X108397818Y-187667076D01*
X108135318Y-187607162D01*
X107881177Y-187518235D01*
X107638591Y-187401411D01*
X107410610Y-187258162D01*
X107200102Y-187090287D01*
X107009713Y-186899898D01*
X106841838Y-186689390D01*
X106698589Y-186461409D01*
X106581765Y-186218823D01*
X106492838Y-185964682D01*
X106432924Y-185702182D01*
X106402777Y-185434625D01*
X106402777Y-185165375D01*
X106432924Y-184897818D01*
X106492838Y-184635318D01*
X106581765Y-184381177D01*
X106698589Y-184138591D01*
X106841838Y-183910610D01*
X107009713Y-183700102D01*
X107200102Y-183509713D01*
X107410610Y-183341838D01*
X107638591Y-183198589D01*
X107881177Y-183081765D01*
X108135318Y-182992838D01*
X108397818Y-182932924D01*
X108665375Y-182902777D01*
X108934625Y-182902777D01*
X109202182Y-182932924D01*
G37*
G36*
X132602182Y-182932924D02*
G01*
X132864682Y-182992838D01*
X133118823Y-183081765D01*
X133361409Y-183198589D01*
X133589390Y-183341838D01*
X133799898Y-183509713D01*
X133990287Y-183700102D01*
X134158162Y-183910610D01*
X134301411Y-184138591D01*
X134418235Y-184381177D01*
X134507162Y-184635318D01*
X134567076Y-184897818D01*
X134597223Y-185165375D01*
X134597223Y-185434625D01*
X134567076Y-185702182D01*
X134507162Y-185964682D01*
X134418235Y-186218823D01*
X134301411Y-186461409D01*
X134158162Y-186689390D01*
X133990287Y-186899898D01*
X133799898Y-187090287D01*
X133589390Y-187258162D01*
X133361409Y-187401411D01*
X133118823Y-187518235D01*
X132864682Y-187607162D01*
X132602182Y-187667076D01*
X132334625Y-187697223D01*
X132065375Y-187697223D01*
X131797818Y-187667076D01*
X131535318Y-187607162D01*
X131281177Y-187518235D01*
X131038591Y-187401411D01*
X130810610Y-187258162D01*
X130600102Y-187090287D01*
X130409713Y-186899898D01*
X130241838Y-186689390D01*
X130098589Y-186461409D01*
X129981765Y-186218823D01*
X129892838Y-185964682D01*
X129832924Y-185702182D01*
X129802777Y-185434625D01*
X129802777Y-185165375D01*
X129832924Y-184897818D01*
X129892838Y-184635318D01*
X129981765Y-184381177D01*
X130098589Y-184138591D01*
X130241838Y-183910610D01*
X130409713Y-183700102D01*
X130600102Y-183509713D01*
X130810610Y-183341838D01*
X131038591Y-183198589D01*
X131281177Y-183081765D01*
X131535318Y-182992838D01*
X131797818Y-182932924D01*
X132065375Y-182902777D01*
X132334625Y-182902777D01*
X132602182Y-182932924D01*
G37*
G36*
X109202182Y-114932924D02*
G01*
X109464682Y-114992838D01*
X109718823Y-115081765D01*
X109961409Y-115198589D01*
X110189390Y-115341838D01*
X110399898Y-115509713D01*
X110590287Y-115700102D01*
X110758162Y-115910610D01*
X110901411Y-116138591D01*
X111018235Y-116381177D01*
X111107162Y-116635318D01*
X111167076Y-116897818D01*
X111197223Y-117165375D01*
X111197223Y-117434625D01*
X111167076Y-117702182D01*
X111107162Y-117964682D01*
X111018235Y-118218823D01*
X110901411Y-118461409D01*
X110758162Y-118689390D01*
X110590287Y-118899898D01*
X110399898Y-119090287D01*
X110189390Y-119258162D01*
X109961409Y-119401411D01*
X109718823Y-119518235D01*
X109464682Y-119607162D01*
X109202182Y-119667076D01*
X108934625Y-119697223D01*
X108665375Y-119697223D01*
X108397818Y-119667076D01*
X108135318Y-119607162D01*
X107881177Y-119518235D01*
X107638591Y-119401411D01*
X107410610Y-119258162D01*
X107200102Y-119090287D01*
X107009713Y-118899898D01*
X106841838Y-118689390D01*
X106698589Y-118461409D01*
X106581765Y-118218823D01*
X106492838Y-117964682D01*
X106432924Y-117702182D01*
X106402777Y-117434625D01*
X106402777Y-117165375D01*
X106432924Y-116897818D01*
X106492838Y-116635318D01*
X106581765Y-116381177D01*
X106698589Y-116138591D01*
X106841838Y-115910610D01*
X107009713Y-115700102D01*
X107200102Y-115509713D01*
X107410610Y-115341838D01*
X107638591Y-115198589D01*
X107881177Y-115081765D01*
X108135318Y-114992838D01*
X108397818Y-114932924D01*
X108665375Y-114902777D01*
X108934625Y-114902777D01*
X109202182Y-114932924D01*
G37*
G36*
X132552182Y-114932924D02*
G01*
X132814682Y-114992838D01*
X133068823Y-115081765D01*
X133311409Y-115198589D01*
X133539390Y-115341838D01*
X133749898Y-115509713D01*
X133940287Y-115700102D01*
X134108162Y-115910610D01*
X134251411Y-116138591D01*
X134368235Y-116381177D01*
X134457162Y-116635318D01*
X134517076Y-116897818D01*
X134547223Y-117165375D01*
X134547223Y-117434625D01*
X134517076Y-117702182D01*
X134457162Y-117964682D01*
X134368235Y-118218823D01*
X134251411Y-118461409D01*
X134108162Y-118689390D01*
X133940287Y-118899898D01*
X133749898Y-119090287D01*
X133539390Y-119258162D01*
X133311409Y-119401411D01*
X133068823Y-119518235D01*
X132814682Y-119607162D01*
X132552182Y-119667076D01*
X132284625Y-119697223D01*
X132015375Y-119697223D01*
X131747818Y-119667076D01*
X131485318Y-119607162D01*
X131231177Y-119518235D01*
X130988591Y-119401411D01*
X130760610Y-119258162D01*
X130550102Y-119090287D01*
X130359713Y-118899898D01*
X130191838Y-118689390D01*
X130048589Y-118461409D01*
X129931765Y-118218823D01*
X129842838Y-117964682D01*
X129782924Y-117702182D01*
X129752777Y-117434625D01*
X129752777Y-117165375D01*
X129782924Y-116897818D01*
X129842838Y-116635318D01*
X129931765Y-116381177D01*
X130048589Y-116138591D01*
X130191838Y-115910610D01*
X130359713Y-115700102D01*
X130550102Y-115509713D01*
X130760610Y-115341838D01*
X130988591Y-115198589D01*
X131231177Y-115081765D01*
X131485318Y-114992838D01*
X131747818Y-114932924D01*
X132015375Y-114902777D01*
X132284625Y-114902777D01*
X132552182Y-114932924D01*
G37*
M02*
