G04 #@! TF.GenerationSoftware,KiCad,Pcbnew,9.0.1*
G04 #@! TF.CreationDate,2025-10-05T20:23:01+13:00*
G04 #@! TF.ProjectId,covers,636f7665-7273-42e6-9b69-6361645f7063,rev?*
G04 #@! TF.SameCoordinates,Original*
G04 #@! TF.FileFunction,Legend,Bot*
G04 #@! TF.FilePolarity,Positive*
%FSLAX46Y46*%
G04 Gerber Fmt 4.6, Leading zero omitted, Abs format (unit mm)*
G04 Created by KiCad (PCBNEW 9.0.1) date 2025-10-05 20:23:01*
%MOMM*%
%LPD*%
G01*
G04 APERTURE LIST*
%ADD10C,0.300000*%
G04 APERTURE END LIST*
D10*
X127380838Y-143242857D02*
X127285600Y-143338095D01*
X127285600Y-143338095D02*
X127190361Y-143623809D01*
X127190361Y-143623809D02*
X127190361Y-143814285D01*
X127190361Y-143814285D02*
X127285600Y-144100000D01*
X127285600Y-144100000D02*
X127476076Y-144290476D01*
X127476076Y-144290476D02*
X127666552Y-144385714D01*
X127666552Y-144385714D02*
X128047504Y-144480952D01*
X128047504Y-144480952D02*
X128333219Y-144480952D01*
X128333219Y-144480952D02*
X128714171Y-144385714D01*
X128714171Y-144385714D02*
X128904647Y-144290476D01*
X128904647Y-144290476D02*
X129095123Y-144100000D01*
X129095123Y-144100000D02*
X129190361Y-143814285D01*
X129190361Y-143814285D02*
X129190361Y-143623809D01*
X129190361Y-143623809D02*
X129095123Y-143338095D01*
X129095123Y-143338095D02*
X128999885Y-143242857D01*
X127190361Y-142100000D02*
X127285600Y-142290476D01*
X127285600Y-142290476D02*
X127380838Y-142385714D01*
X127380838Y-142385714D02*
X127571314Y-142480952D01*
X127571314Y-142480952D02*
X128142742Y-142480952D01*
X128142742Y-142480952D02*
X128333219Y-142385714D01*
X128333219Y-142385714D02*
X128428457Y-142290476D01*
X128428457Y-142290476D02*
X128523695Y-142100000D01*
X128523695Y-142100000D02*
X128523695Y-141814285D01*
X128523695Y-141814285D02*
X128428457Y-141623809D01*
X128428457Y-141623809D02*
X128333219Y-141528571D01*
X128333219Y-141528571D02*
X128142742Y-141433333D01*
X128142742Y-141433333D02*
X127571314Y-141433333D01*
X127571314Y-141433333D02*
X127380838Y-141528571D01*
X127380838Y-141528571D02*
X127285600Y-141623809D01*
X127285600Y-141623809D02*
X127190361Y-141814285D01*
X127190361Y-141814285D02*
X127190361Y-142100000D01*
X127190361Y-140576190D02*
X128523695Y-140576190D01*
X128333219Y-140576190D02*
X128428457Y-140480952D01*
X128428457Y-140480952D02*
X128523695Y-140290476D01*
X128523695Y-140290476D02*
X128523695Y-140004761D01*
X128523695Y-140004761D02*
X128428457Y-139814285D01*
X128428457Y-139814285D02*
X128237980Y-139719047D01*
X128237980Y-139719047D02*
X127190361Y-139719047D01*
X128237980Y-139719047D02*
X128428457Y-139623809D01*
X128428457Y-139623809D02*
X128523695Y-139433333D01*
X128523695Y-139433333D02*
X128523695Y-139147619D01*
X128523695Y-139147619D02*
X128428457Y-138957142D01*
X128428457Y-138957142D02*
X128237980Y-138861904D01*
X128237980Y-138861904D02*
X127190361Y-138861904D01*
X128523695Y-137909523D02*
X126523695Y-137909523D01*
X128428457Y-137909523D02*
X128523695Y-137719047D01*
X128523695Y-137719047D02*
X128523695Y-137338094D01*
X128523695Y-137338094D02*
X128428457Y-137147618D01*
X128428457Y-137147618D02*
X128333219Y-137052380D01*
X128333219Y-137052380D02*
X128142742Y-136957142D01*
X128142742Y-136957142D02*
X127571314Y-136957142D01*
X127571314Y-136957142D02*
X127380838Y-137052380D01*
X127380838Y-137052380D02*
X127285600Y-137147618D01*
X127285600Y-137147618D02*
X127190361Y-137338094D01*
X127190361Y-137338094D02*
X127190361Y-137719047D01*
X127190361Y-137719047D02*
X127285600Y-137909523D01*
X127190361Y-135814285D02*
X127285600Y-136004761D01*
X127285600Y-136004761D02*
X127380838Y-136099999D01*
X127380838Y-136099999D02*
X127571314Y-136195237D01*
X127571314Y-136195237D02*
X128142742Y-136195237D01*
X128142742Y-136195237D02*
X128333219Y-136099999D01*
X128333219Y-136099999D02*
X128428457Y-136004761D01*
X128428457Y-136004761D02*
X128523695Y-135814285D01*
X128523695Y-135814285D02*
X128523695Y-135528570D01*
X128523695Y-135528570D02*
X128428457Y-135338094D01*
X128428457Y-135338094D02*
X128333219Y-135242856D01*
X128333219Y-135242856D02*
X128142742Y-135147618D01*
X128142742Y-135147618D02*
X127571314Y-135147618D01*
X127571314Y-135147618D02*
X127380838Y-135242856D01*
X127380838Y-135242856D02*
X127285600Y-135338094D01*
X127285600Y-135338094D02*
X127190361Y-135528570D01*
X127190361Y-135528570D02*
X127190361Y-135814285D01*
X127285600Y-134385713D02*
X127190361Y-134195237D01*
X127190361Y-134195237D02*
X127190361Y-133814285D01*
X127190361Y-133814285D02*
X127285600Y-133623808D01*
X127285600Y-133623808D02*
X127476076Y-133528570D01*
X127476076Y-133528570D02*
X127571314Y-133528570D01*
X127571314Y-133528570D02*
X127761790Y-133623808D01*
X127761790Y-133623808D02*
X127857028Y-133814285D01*
X127857028Y-133814285D02*
X127857028Y-134099999D01*
X127857028Y-134099999D02*
X127952266Y-134290475D01*
X127952266Y-134290475D02*
X128142742Y-134385713D01*
X128142742Y-134385713D02*
X128237980Y-134385713D01*
X128237980Y-134385713D02*
X128428457Y-134290475D01*
X128428457Y-134290475D02*
X128523695Y-134099999D01*
X128523695Y-134099999D02*
X128523695Y-133814285D01*
X128523695Y-133814285D02*
X128428457Y-133623808D01*
X127190361Y-132671427D02*
X128523695Y-132671427D01*
X129190361Y-132671427D02*
X129095123Y-132766665D01*
X129095123Y-132766665D02*
X128999885Y-132671427D01*
X128999885Y-132671427D02*
X129095123Y-132576189D01*
X129095123Y-132576189D02*
X129190361Y-132671427D01*
X129190361Y-132671427D02*
X128999885Y-132671427D01*
X128523695Y-132004760D02*
X128523695Y-131242856D01*
X129190361Y-131719046D02*
X127476076Y-131719046D01*
X127476076Y-131719046D02*
X127285600Y-131623808D01*
X127285600Y-131623808D02*
X127190361Y-131433332D01*
X127190361Y-131433332D02*
X127190361Y-131242856D01*
X127285600Y-129814284D02*
X127190361Y-130004760D01*
X127190361Y-130004760D02*
X127190361Y-130385713D01*
X127190361Y-130385713D02*
X127285600Y-130576189D01*
X127285600Y-130576189D02*
X127476076Y-130671427D01*
X127476076Y-130671427D02*
X128237980Y-130671427D01*
X128237980Y-130671427D02*
X128428457Y-130576189D01*
X128428457Y-130576189D02*
X128523695Y-130385713D01*
X128523695Y-130385713D02*
X128523695Y-130004760D01*
X128523695Y-130004760D02*
X128428457Y-129814284D01*
X128428457Y-129814284D02*
X128237980Y-129719046D01*
X128237980Y-129719046D02*
X128047504Y-129719046D01*
X128047504Y-129719046D02*
X127857028Y-130671427D01*
X127090361Y-179280952D02*
X127090361Y-180233333D01*
X127090361Y-180233333D02*
X129090361Y-180233333D01*
X127090361Y-166180952D02*
X128042742Y-166847619D01*
X127090361Y-167323809D02*
X129090361Y-167323809D01*
X129090361Y-167323809D02*
X129090361Y-166561904D01*
X129090361Y-166561904D02*
X128995123Y-166371428D01*
X128995123Y-166371428D02*
X128899885Y-166276190D01*
X128899885Y-166276190D02*
X128709409Y-166180952D01*
X128709409Y-166180952D02*
X128423695Y-166180952D01*
X128423695Y-166180952D02*
X128233219Y-166276190D01*
X128233219Y-166276190D02*
X128137980Y-166371428D01*
X128137980Y-166371428D02*
X128042742Y-166561904D01*
X128042742Y-166561904D02*
X128042742Y-167323809D01*
X129085600Y-83364285D02*
X128990361Y-83078571D01*
X128990361Y-83078571D02*
X128990361Y-82602380D01*
X128990361Y-82602380D02*
X129085600Y-82411904D01*
X129085600Y-82411904D02*
X129180838Y-82316666D01*
X129180838Y-82316666D02*
X129371314Y-82221428D01*
X129371314Y-82221428D02*
X129561790Y-82221428D01*
X129561790Y-82221428D02*
X129752266Y-82316666D01*
X129752266Y-82316666D02*
X129847504Y-82411904D01*
X129847504Y-82411904D02*
X129942742Y-82602380D01*
X129942742Y-82602380D02*
X130037980Y-82983333D01*
X130037980Y-82983333D02*
X130133219Y-83173809D01*
X130133219Y-83173809D02*
X130228457Y-83269047D01*
X130228457Y-83269047D02*
X130418933Y-83364285D01*
X130418933Y-83364285D02*
X130609409Y-83364285D01*
X130609409Y-83364285D02*
X130799885Y-83269047D01*
X130799885Y-83269047D02*
X130895123Y-83173809D01*
X130895123Y-83173809D02*
X130990361Y-82983333D01*
X130990361Y-82983333D02*
X130990361Y-82507142D01*
X130990361Y-82507142D02*
X130895123Y-82221428D01*
X129752266Y-81364285D02*
X129752266Y-79840476D01*
X130323695Y-79078571D02*
X128990361Y-78602381D01*
X128990361Y-78602381D02*
X130323695Y-78126190D01*
X128990361Y-77364285D02*
X130323695Y-77364285D01*
X130990361Y-77364285D02*
X130895123Y-77459523D01*
X130895123Y-77459523D02*
X130799885Y-77364285D01*
X130799885Y-77364285D02*
X130895123Y-77269047D01*
X130895123Y-77269047D02*
X130990361Y-77364285D01*
X130990361Y-77364285D02*
X130799885Y-77364285D01*
X128990361Y-75554761D02*
X130990361Y-75554761D01*
X129085600Y-75554761D02*
X128990361Y-75745237D01*
X128990361Y-75745237D02*
X128990361Y-76126190D01*
X128990361Y-76126190D02*
X129085600Y-76316666D01*
X129085600Y-76316666D02*
X129180838Y-76411904D01*
X129180838Y-76411904D02*
X129371314Y-76507142D01*
X129371314Y-76507142D02*
X129942742Y-76507142D01*
X129942742Y-76507142D02*
X130133219Y-76411904D01*
X130133219Y-76411904D02*
X130228457Y-76316666D01*
X130228457Y-76316666D02*
X130323695Y-76126190D01*
X130323695Y-76126190D02*
X130323695Y-75745237D01*
X130323695Y-75745237D02*
X130228457Y-75554761D01*
X129085600Y-73840475D02*
X128990361Y-74030951D01*
X128990361Y-74030951D02*
X128990361Y-74411904D01*
X128990361Y-74411904D02*
X129085600Y-74602380D01*
X129085600Y-74602380D02*
X129276076Y-74697618D01*
X129276076Y-74697618D02*
X130037980Y-74697618D01*
X130037980Y-74697618D02*
X130228457Y-74602380D01*
X130228457Y-74602380D02*
X130323695Y-74411904D01*
X130323695Y-74411904D02*
X130323695Y-74030951D01*
X130323695Y-74030951D02*
X130228457Y-73840475D01*
X130228457Y-73840475D02*
X130037980Y-73745237D01*
X130037980Y-73745237D02*
X129847504Y-73745237D01*
X129847504Y-73745237D02*
X129657028Y-74697618D01*
X128990361Y-72602380D02*
X129085600Y-72792856D01*
X129085600Y-72792856D02*
X129180838Y-72888094D01*
X129180838Y-72888094D02*
X129371314Y-72983332D01*
X129371314Y-72983332D02*
X129942742Y-72983332D01*
X129942742Y-72983332D02*
X130133219Y-72888094D01*
X130133219Y-72888094D02*
X130228457Y-72792856D01*
X130228457Y-72792856D02*
X130323695Y-72602380D01*
X130323695Y-72602380D02*
X130323695Y-72316665D01*
X130323695Y-72316665D02*
X130228457Y-72126189D01*
X130228457Y-72126189D02*
X130133219Y-72030951D01*
X130133219Y-72030951D02*
X129942742Y-71935713D01*
X129942742Y-71935713D02*
X129371314Y-71935713D01*
X129371314Y-71935713D02*
X129180838Y-72030951D01*
X129180838Y-72030951D02*
X129085600Y-72126189D01*
X129085600Y-72126189D02*
X128990361Y-72316665D01*
X128990361Y-72316665D02*
X128990361Y-72602380D01*
X129085600Y-158614285D02*
X128990361Y-158328571D01*
X128990361Y-158328571D02*
X128990361Y-157852380D01*
X128990361Y-157852380D02*
X129085600Y-157661904D01*
X129085600Y-157661904D02*
X129180838Y-157566666D01*
X129180838Y-157566666D02*
X129371314Y-157471428D01*
X129371314Y-157471428D02*
X129561790Y-157471428D01*
X129561790Y-157471428D02*
X129752266Y-157566666D01*
X129752266Y-157566666D02*
X129847504Y-157661904D01*
X129847504Y-157661904D02*
X129942742Y-157852380D01*
X129942742Y-157852380D02*
X130037980Y-158233333D01*
X130037980Y-158233333D02*
X130133219Y-158423809D01*
X130133219Y-158423809D02*
X130228457Y-158519047D01*
X130228457Y-158519047D02*
X130418933Y-158614285D01*
X130418933Y-158614285D02*
X130609409Y-158614285D01*
X130609409Y-158614285D02*
X130799885Y-158519047D01*
X130799885Y-158519047D02*
X130895123Y-158423809D01*
X130895123Y-158423809D02*
X130990361Y-158233333D01*
X130990361Y-158233333D02*
X130990361Y-157757142D01*
X130990361Y-157757142D02*
X130895123Y-157471428D01*
X129752266Y-156614285D02*
X129752266Y-155090476D01*
X130323695Y-154328571D02*
X128990361Y-153852381D01*
X128990361Y-153852381D02*
X130323695Y-153376190D01*
X128990361Y-152614285D02*
X130323695Y-152614285D01*
X130990361Y-152614285D02*
X130895123Y-152709523D01*
X130895123Y-152709523D02*
X130799885Y-152614285D01*
X130799885Y-152614285D02*
X130895123Y-152519047D01*
X130895123Y-152519047D02*
X130990361Y-152614285D01*
X130990361Y-152614285D02*
X130799885Y-152614285D01*
X128990361Y-150804761D02*
X130990361Y-150804761D01*
X129085600Y-150804761D02*
X128990361Y-150995237D01*
X128990361Y-150995237D02*
X128990361Y-151376190D01*
X128990361Y-151376190D02*
X129085600Y-151566666D01*
X129085600Y-151566666D02*
X129180838Y-151661904D01*
X129180838Y-151661904D02*
X129371314Y-151757142D01*
X129371314Y-151757142D02*
X129942742Y-151757142D01*
X129942742Y-151757142D02*
X130133219Y-151661904D01*
X130133219Y-151661904D02*
X130228457Y-151566666D01*
X130228457Y-151566666D02*
X130323695Y-151376190D01*
X130323695Y-151376190D02*
X130323695Y-150995237D01*
X130323695Y-150995237D02*
X130228457Y-150804761D01*
X129085600Y-149090475D02*
X128990361Y-149280951D01*
X128990361Y-149280951D02*
X128990361Y-149661904D01*
X128990361Y-149661904D02*
X129085600Y-149852380D01*
X129085600Y-149852380D02*
X129276076Y-149947618D01*
X129276076Y-149947618D02*
X130037980Y-149947618D01*
X130037980Y-149947618D02*
X130228457Y-149852380D01*
X130228457Y-149852380D02*
X130323695Y-149661904D01*
X130323695Y-149661904D02*
X130323695Y-149280951D01*
X130323695Y-149280951D02*
X130228457Y-149090475D01*
X130228457Y-149090475D02*
X130037980Y-148995237D01*
X130037980Y-148995237D02*
X129847504Y-148995237D01*
X129847504Y-148995237D02*
X129657028Y-149947618D01*
X128990361Y-147852380D02*
X129085600Y-148042856D01*
X129085600Y-148042856D02*
X129180838Y-148138094D01*
X129180838Y-148138094D02*
X129371314Y-148233332D01*
X129371314Y-148233332D02*
X129942742Y-148233332D01*
X129942742Y-148233332D02*
X130133219Y-148138094D01*
X130133219Y-148138094D02*
X130228457Y-148042856D01*
X130228457Y-148042856D02*
X130323695Y-147852380D01*
X130323695Y-147852380D02*
X130323695Y-147566665D01*
X130323695Y-147566665D02*
X130228457Y-147376189D01*
X130228457Y-147376189D02*
X130133219Y-147280951D01*
X130133219Y-147280951D02*
X129942742Y-147185713D01*
X129942742Y-147185713D02*
X129371314Y-147185713D01*
X129371314Y-147185713D02*
X129180838Y-147280951D01*
X129180838Y-147280951D02*
X129085600Y-147376189D01*
X129085600Y-147376189D02*
X128990361Y-147566665D01*
X128990361Y-147566665D02*
X128990361Y-147852380D01*
X127380838Y-67992857D02*
X127285600Y-68088095D01*
X127285600Y-68088095D02*
X127190361Y-68373809D01*
X127190361Y-68373809D02*
X127190361Y-68564285D01*
X127190361Y-68564285D02*
X127285600Y-68850000D01*
X127285600Y-68850000D02*
X127476076Y-69040476D01*
X127476076Y-69040476D02*
X127666552Y-69135714D01*
X127666552Y-69135714D02*
X128047504Y-69230952D01*
X128047504Y-69230952D02*
X128333219Y-69230952D01*
X128333219Y-69230952D02*
X128714171Y-69135714D01*
X128714171Y-69135714D02*
X128904647Y-69040476D01*
X128904647Y-69040476D02*
X129095123Y-68850000D01*
X129095123Y-68850000D02*
X129190361Y-68564285D01*
X129190361Y-68564285D02*
X129190361Y-68373809D01*
X129190361Y-68373809D02*
X129095123Y-68088095D01*
X129095123Y-68088095D02*
X128999885Y-67992857D01*
X127190361Y-66850000D02*
X127285600Y-67040476D01*
X127285600Y-67040476D02*
X127380838Y-67135714D01*
X127380838Y-67135714D02*
X127571314Y-67230952D01*
X127571314Y-67230952D02*
X128142742Y-67230952D01*
X128142742Y-67230952D02*
X128333219Y-67135714D01*
X128333219Y-67135714D02*
X128428457Y-67040476D01*
X128428457Y-67040476D02*
X128523695Y-66850000D01*
X128523695Y-66850000D02*
X128523695Y-66564285D01*
X128523695Y-66564285D02*
X128428457Y-66373809D01*
X128428457Y-66373809D02*
X128333219Y-66278571D01*
X128333219Y-66278571D02*
X128142742Y-66183333D01*
X128142742Y-66183333D02*
X127571314Y-66183333D01*
X127571314Y-66183333D02*
X127380838Y-66278571D01*
X127380838Y-66278571D02*
X127285600Y-66373809D01*
X127285600Y-66373809D02*
X127190361Y-66564285D01*
X127190361Y-66564285D02*
X127190361Y-66850000D01*
X127190361Y-65326190D02*
X128523695Y-65326190D01*
X128333219Y-65326190D02*
X128428457Y-65230952D01*
X128428457Y-65230952D02*
X128523695Y-65040476D01*
X128523695Y-65040476D02*
X128523695Y-64754761D01*
X128523695Y-64754761D02*
X128428457Y-64564285D01*
X128428457Y-64564285D02*
X128237980Y-64469047D01*
X128237980Y-64469047D02*
X127190361Y-64469047D01*
X128237980Y-64469047D02*
X128428457Y-64373809D01*
X128428457Y-64373809D02*
X128523695Y-64183333D01*
X128523695Y-64183333D02*
X128523695Y-63897619D01*
X128523695Y-63897619D02*
X128428457Y-63707142D01*
X128428457Y-63707142D02*
X128237980Y-63611904D01*
X128237980Y-63611904D02*
X127190361Y-63611904D01*
X128523695Y-62659523D02*
X126523695Y-62659523D01*
X128428457Y-62659523D02*
X128523695Y-62469047D01*
X128523695Y-62469047D02*
X128523695Y-62088094D01*
X128523695Y-62088094D02*
X128428457Y-61897618D01*
X128428457Y-61897618D02*
X128333219Y-61802380D01*
X128333219Y-61802380D02*
X128142742Y-61707142D01*
X128142742Y-61707142D02*
X127571314Y-61707142D01*
X127571314Y-61707142D02*
X127380838Y-61802380D01*
X127380838Y-61802380D02*
X127285600Y-61897618D01*
X127285600Y-61897618D02*
X127190361Y-62088094D01*
X127190361Y-62088094D02*
X127190361Y-62469047D01*
X127190361Y-62469047D02*
X127285600Y-62659523D01*
X127190361Y-60564285D02*
X127285600Y-60754761D01*
X127285600Y-60754761D02*
X127380838Y-60849999D01*
X127380838Y-60849999D02*
X127571314Y-60945237D01*
X127571314Y-60945237D02*
X128142742Y-60945237D01*
X128142742Y-60945237D02*
X128333219Y-60849999D01*
X128333219Y-60849999D02*
X128428457Y-60754761D01*
X128428457Y-60754761D02*
X128523695Y-60564285D01*
X128523695Y-60564285D02*
X128523695Y-60278570D01*
X128523695Y-60278570D02*
X128428457Y-60088094D01*
X128428457Y-60088094D02*
X128333219Y-59992856D01*
X128333219Y-59992856D02*
X128142742Y-59897618D01*
X128142742Y-59897618D02*
X127571314Y-59897618D01*
X127571314Y-59897618D02*
X127380838Y-59992856D01*
X127380838Y-59992856D02*
X127285600Y-60088094D01*
X127285600Y-60088094D02*
X127190361Y-60278570D01*
X127190361Y-60278570D02*
X127190361Y-60564285D01*
X127285600Y-59135713D02*
X127190361Y-58945237D01*
X127190361Y-58945237D02*
X127190361Y-58564285D01*
X127190361Y-58564285D02*
X127285600Y-58373808D01*
X127285600Y-58373808D02*
X127476076Y-58278570D01*
X127476076Y-58278570D02*
X127571314Y-58278570D01*
X127571314Y-58278570D02*
X127761790Y-58373808D01*
X127761790Y-58373808D02*
X127857028Y-58564285D01*
X127857028Y-58564285D02*
X127857028Y-58849999D01*
X127857028Y-58849999D02*
X127952266Y-59040475D01*
X127952266Y-59040475D02*
X128142742Y-59135713D01*
X128142742Y-59135713D02*
X128237980Y-59135713D01*
X128237980Y-59135713D02*
X128428457Y-59040475D01*
X128428457Y-59040475D02*
X128523695Y-58849999D01*
X128523695Y-58849999D02*
X128523695Y-58564285D01*
X128523695Y-58564285D02*
X128428457Y-58373808D01*
X127190361Y-57421427D02*
X128523695Y-57421427D01*
X129190361Y-57421427D02*
X129095123Y-57516665D01*
X129095123Y-57516665D02*
X128999885Y-57421427D01*
X128999885Y-57421427D02*
X129095123Y-57326189D01*
X129095123Y-57326189D02*
X129190361Y-57421427D01*
X129190361Y-57421427D02*
X128999885Y-57421427D01*
X128523695Y-56754760D02*
X128523695Y-55992856D01*
X129190361Y-56469046D02*
X127476076Y-56469046D01*
X127476076Y-56469046D02*
X127285600Y-56373808D01*
X127285600Y-56373808D02*
X127190361Y-56183332D01*
X127190361Y-56183332D02*
X127190361Y-55992856D01*
X127285600Y-54564284D02*
X127190361Y-54754760D01*
X127190361Y-54754760D02*
X127190361Y-55135713D01*
X127190361Y-55135713D02*
X127285600Y-55326189D01*
X127285600Y-55326189D02*
X127476076Y-55421427D01*
X127476076Y-55421427D02*
X128237980Y-55421427D01*
X128237980Y-55421427D02*
X128428457Y-55326189D01*
X128428457Y-55326189D02*
X128523695Y-55135713D01*
X128523695Y-55135713D02*
X128523695Y-54754760D01*
X128523695Y-54754760D02*
X128428457Y-54564284D01*
X128428457Y-54564284D02*
X128237980Y-54469046D01*
X128237980Y-54469046D02*
X128047504Y-54469046D01*
X128047504Y-54469046D02*
X127857028Y-55421427D01*
M02*
