G04 #@! TF.GenerationSoftware,KiCad,Pcbnew,9.0.1*
G04 #@! TF.CreationDate,2025-10-05T20:23:01+13:00*
G04 #@! TF.ProjectId,covers,636f7665-7273-42e6-9b69-6361645f7063,rev?*
G04 #@! TF.SameCoordinates,Original*
G04 #@! TF.FileFunction,Soldermask,Top*
G04 #@! TF.FilePolarity,Negative*
%FSLAX46Y46*%
G04 Gerber Fmt 4.6, Leading zero omitted, Abs format (unit mm)*
G04 Created by KiCad (PCBNEW 9.0.1) date 2025-10-05 20:23:01*
%MOMM*%
%LPD*%
G01*
G04 APERTURE LIST*
G04 APERTURE END LIST*
G36*
X109202182Y-107682924D02*
G01*
X109464682Y-107742838D01*
X109718823Y-107831765D01*
X109961409Y-107948589D01*
X110189390Y-108091838D01*
X110399898Y-108259713D01*
X110590287Y-108450102D01*
X110758162Y-108660610D01*
X110901411Y-108888591D01*
X111018235Y-109131177D01*
X111107162Y-109385318D01*
X111167076Y-109647818D01*
X111197223Y-109915375D01*
X111197223Y-110184625D01*
X111167076Y-110452182D01*
X111107162Y-110714682D01*
X111018235Y-110968823D01*
X110901411Y-111211409D01*
X110758162Y-111439390D01*
X110590287Y-111649898D01*
X110399898Y-111840287D01*
X110189390Y-112008162D01*
X109961409Y-112151411D01*
X109718823Y-112268235D01*
X109464682Y-112357162D01*
X109202182Y-112417076D01*
X108934625Y-112447223D01*
X108665375Y-112447223D01*
X108397818Y-112417076D01*
X108135318Y-112357162D01*
X107881177Y-112268235D01*
X107638591Y-112151411D01*
X107410610Y-112008162D01*
X107200102Y-111840287D01*
X107009713Y-111649898D01*
X106841838Y-111439390D01*
X106698589Y-111211409D01*
X106581765Y-110968823D01*
X106492838Y-110714682D01*
X106432924Y-110452182D01*
X106402777Y-110184625D01*
X106402777Y-109915375D01*
X106432924Y-109647818D01*
X106492838Y-109385318D01*
X106581765Y-109131177D01*
X106698589Y-108888591D01*
X106841838Y-108660610D01*
X107009713Y-108450102D01*
X107200102Y-108259713D01*
X107410610Y-108091838D01*
X107638591Y-107948589D01*
X107881177Y-107831765D01*
X108135318Y-107742838D01*
X108397818Y-107682924D01*
X108665375Y-107652777D01*
X108934625Y-107652777D01*
X109202182Y-107682924D01*
G37*
G36*
X132602182Y-107682924D02*
G01*
X132864682Y-107742838D01*
X133118823Y-107831765D01*
X133361409Y-107948589D01*
X133589390Y-108091838D01*
X133799898Y-108259713D01*
X133990287Y-108450102D01*
X134158162Y-108660610D01*
X134301411Y-108888591D01*
X134418235Y-109131177D01*
X134507162Y-109385318D01*
X134567076Y-109647818D01*
X134597223Y-109915375D01*
X134597223Y-110184625D01*
X134567076Y-110452182D01*
X134507162Y-110714682D01*
X134418235Y-110968823D01*
X134301411Y-111211409D01*
X134158162Y-111439390D01*
X133990287Y-111649898D01*
X133799898Y-111840287D01*
X133589390Y-112008162D01*
X133361409Y-112151411D01*
X133118823Y-112268235D01*
X132864682Y-112357162D01*
X132602182Y-112417076D01*
X132334625Y-112447223D01*
X132065375Y-112447223D01*
X131797818Y-112417076D01*
X131535318Y-112357162D01*
X131281177Y-112268235D01*
X131038591Y-112151411D01*
X130810610Y-112008162D01*
X130600102Y-111840287D01*
X130409713Y-111649898D01*
X130241838Y-111439390D01*
X130098589Y-111211409D01*
X129981765Y-110968823D01*
X129892838Y-110714682D01*
X129832924Y-110452182D01*
X129802777Y-110184625D01*
X129802777Y-109915375D01*
X129832924Y-109647818D01*
X129892838Y-109385318D01*
X129981765Y-109131177D01*
X130098589Y-108888591D01*
X130241838Y-108660610D01*
X130409713Y-108450102D01*
X130600102Y-108259713D01*
X130810610Y-108091838D01*
X131038591Y-107948589D01*
X131281177Y-107831765D01*
X131535318Y-107742838D01*
X131797818Y-107682924D01*
X132065375Y-107652777D01*
X132334625Y-107652777D01*
X132602182Y-107682924D01*
G37*
G36*
X109202182Y-39682924D02*
G01*
X109464682Y-39742838D01*
X109718823Y-39831765D01*
X109961409Y-39948589D01*
X110189390Y-40091838D01*
X110399898Y-40259713D01*
X110590287Y-40450102D01*
X110758162Y-40660610D01*
X110901411Y-40888591D01*
X111018235Y-41131177D01*
X111107162Y-41385318D01*
X111167076Y-41647818D01*
X111197223Y-41915375D01*
X111197223Y-42184625D01*
X111167076Y-42452182D01*
X111107162Y-42714682D01*
X111018235Y-42968823D01*
X110901411Y-43211409D01*
X110758162Y-43439390D01*
X110590287Y-43649898D01*
X110399898Y-43840287D01*
X110189390Y-44008162D01*
X109961409Y-44151411D01*
X109718823Y-44268235D01*
X109464682Y-44357162D01*
X109202182Y-44417076D01*
X108934625Y-44447223D01*
X108665375Y-44447223D01*
X108397818Y-44417076D01*
X108135318Y-44357162D01*
X107881177Y-44268235D01*
X107638591Y-44151411D01*
X107410610Y-44008162D01*
X107200102Y-43840287D01*
X107009713Y-43649898D01*
X106841838Y-43439390D01*
X106698589Y-43211409D01*
X106581765Y-42968823D01*
X106492838Y-42714682D01*
X106432924Y-42452182D01*
X106402777Y-42184625D01*
X106402777Y-41915375D01*
X106432924Y-41647818D01*
X106492838Y-41385318D01*
X106581765Y-41131177D01*
X106698589Y-40888591D01*
X106841838Y-40660610D01*
X107009713Y-40450102D01*
X107200102Y-40259713D01*
X107410610Y-40091838D01*
X107638591Y-39948589D01*
X107881177Y-39831765D01*
X108135318Y-39742838D01*
X108397818Y-39682924D01*
X108665375Y-39652777D01*
X108934625Y-39652777D01*
X109202182Y-39682924D01*
G37*
G36*
X132552182Y-39682924D02*
G01*
X132814682Y-39742838D01*
X133068823Y-39831765D01*
X133311409Y-39948589D01*
X133539390Y-40091838D01*
X133749898Y-40259713D01*
X133940287Y-40450102D01*
X134108162Y-40660610D01*
X134251411Y-40888591D01*
X134368235Y-41131177D01*
X134457162Y-41385318D01*
X134517076Y-41647818D01*
X134547223Y-41915375D01*
X134547223Y-42184625D01*
X134517076Y-42452182D01*
X134457162Y-42714682D01*
X134368235Y-42968823D01*
X134251411Y-43211409D01*
X134108162Y-43439390D01*
X133940287Y-43649898D01*
X133749898Y-43840287D01*
X133539390Y-44008162D01*
X133311409Y-44151411D01*
X133068823Y-44268235D01*
X132814682Y-44357162D01*
X132552182Y-44417076D01*
X132284625Y-44447223D01*
X132015375Y-44447223D01*
X131747818Y-44417076D01*
X131485318Y-44357162D01*
X131231177Y-44268235D01*
X130988591Y-44151411D01*
X130760610Y-44008162D01*
X130550102Y-43840287D01*
X130359713Y-43649898D01*
X130191838Y-43439390D01*
X130048589Y-43211409D01*
X129931765Y-42968823D01*
X129842838Y-42714682D01*
X129782924Y-42452182D01*
X129752777Y-42184625D01*
X129752777Y-41915375D01*
X129782924Y-41647818D01*
X129842838Y-41385318D01*
X129931765Y-41131177D01*
X130048589Y-40888591D01*
X130191838Y-40660610D01*
X130359713Y-40450102D01*
X130550102Y-40259713D01*
X130760610Y-40091838D01*
X130988591Y-39948589D01*
X131231177Y-39831765D01*
X131485318Y-39742838D01*
X131747818Y-39682924D01*
X132015375Y-39652777D01*
X132284625Y-39652777D01*
X132552182Y-39682924D01*
G37*
M02*
