G04 #@! TF.GenerationSoftware,KiCad,Pcbnew,(6.0.5)*
G04 #@! TF.CreationDate,2022-09-16T15:24:00+12:00*
G04 #@! TF.ProjectId,covers,636f7665-7273-42e6-9b69-6361645f7063,rev?*
G04 #@! TF.SameCoordinates,Original*
G04 #@! TF.FileFunction,Legend,Bot*
G04 #@! TF.FilePolarity,Positive*
%FSLAX46Y46*%
G04 Gerber Fmt 4.6, Leading zero omitted, Abs format (unit mm)*
G04 Created by KiCad (PCBNEW (6.0.5)) date 2022-09-16 15:24:00*
%MOMM*%
%LPD*%
G01*
G04 APERTURE LIST*
%ADD10C,0.300000*%
G04 APERTURE END LIST*
D10*
X129090476Y-83364285D02*
X128995238Y-83078571D01*
X128995238Y-82602380D01*
X129090476Y-82411904D01*
X129185714Y-82316666D01*
X129376190Y-82221428D01*
X129566666Y-82221428D01*
X129757142Y-82316666D01*
X129852380Y-82411904D01*
X129947619Y-82602380D01*
X130042857Y-82983333D01*
X130138095Y-83173809D01*
X130233333Y-83269047D01*
X130423809Y-83364285D01*
X130614285Y-83364285D01*
X130804761Y-83269047D01*
X130900000Y-83173809D01*
X130995238Y-82983333D01*
X130995238Y-82507142D01*
X130900000Y-82221428D01*
X129757142Y-81364285D02*
X129757142Y-79840476D01*
X130328571Y-79078571D02*
X128995238Y-78602380D01*
X130328571Y-78126190D01*
X128995238Y-77364285D02*
X130328571Y-77364285D01*
X130995238Y-77364285D02*
X130900000Y-77459523D01*
X130804761Y-77364285D01*
X130900000Y-77269047D01*
X130995238Y-77364285D01*
X130804761Y-77364285D01*
X128995238Y-75554761D02*
X130995238Y-75554761D01*
X129090476Y-75554761D02*
X128995238Y-75745238D01*
X128995238Y-76126190D01*
X129090476Y-76316666D01*
X129185714Y-76411904D01*
X129376190Y-76507142D01*
X129947619Y-76507142D01*
X130138095Y-76411904D01*
X130233333Y-76316666D01*
X130328571Y-76126190D01*
X130328571Y-75745238D01*
X130233333Y-75554761D01*
X129090476Y-73840476D02*
X128995238Y-74030952D01*
X128995238Y-74411904D01*
X129090476Y-74602380D01*
X129280952Y-74697619D01*
X130042857Y-74697619D01*
X130233333Y-74602380D01*
X130328571Y-74411904D01*
X130328571Y-74030952D01*
X130233333Y-73840476D01*
X130042857Y-73745238D01*
X129852380Y-73745238D01*
X129661904Y-74697619D01*
X128995238Y-72602380D02*
X129090476Y-72792857D01*
X129185714Y-72888095D01*
X129376190Y-72983333D01*
X129947619Y-72983333D01*
X130138095Y-72888095D01*
X130233333Y-72792857D01*
X130328571Y-72602380D01*
X130328571Y-72316666D01*
X130233333Y-72126190D01*
X130138095Y-72030952D01*
X129947619Y-71935714D01*
X129376190Y-71935714D01*
X129185714Y-72030952D01*
X129090476Y-72126190D01*
X128995238Y-72316666D01*
X128995238Y-72602380D01*
X127385714Y-67992857D02*
X127290476Y-68088095D01*
X127195238Y-68373809D01*
X127195238Y-68564285D01*
X127290476Y-68850000D01*
X127480952Y-69040476D01*
X127671428Y-69135714D01*
X128052380Y-69230952D01*
X128338095Y-69230952D01*
X128719047Y-69135714D01*
X128909523Y-69040476D01*
X129100000Y-68850000D01*
X129195238Y-68564285D01*
X129195238Y-68373809D01*
X129100000Y-68088095D01*
X129004761Y-67992857D01*
X127195238Y-66850000D02*
X127290476Y-67040476D01*
X127385714Y-67135714D01*
X127576190Y-67230952D01*
X128147619Y-67230952D01*
X128338095Y-67135714D01*
X128433333Y-67040476D01*
X128528571Y-66850000D01*
X128528571Y-66564285D01*
X128433333Y-66373809D01*
X128338095Y-66278571D01*
X128147619Y-66183333D01*
X127576190Y-66183333D01*
X127385714Y-66278571D01*
X127290476Y-66373809D01*
X127195238Y-66564285D01*
X127195238Y-66850000D01*
X127195238Y-65326190D02*
X128528571Y-65326190D01*
X128338095Y-65326190D02*
X128433333Y-65230952D01*
X128528571Y-65040476D01*
X128528571Y-64754761D01*
X128433333Y-64564285D01*
X128242857Y-64469047D01*
X127195238Y-64469047D01*
X128242857Y-64469047D02*
X128433333Y-64373809D01*
X128528571Y-64183333D01*
X128528571Y-63897619D01*
X128433333Y-63707142D01*
X128242857Y-63611904D01*
X127195238Y-63611904D01*
X128528571Y-62659523D02*
X126528571Y-62659523D01*
X128433333Y-62659523D02*
X128528571Y-62469047D01*
X128528571Y-62088095D01*
X128433333Y-61897619D01*
X128338095Y-61802380D01*
X128147619Y-61707142D01*
X127576190Y-61707142D01*
X127385714Y-61802380D01*
X127290476Y-61897619D01*
X127195238Y-62088095D01*
X127195238Y-62469047D01*
X127290476Y-62659523D01*
X127195238Y-60564285D02*
X127290476Y-60754761D01*
X127385714Y-60850000D01*
X127576190Y-60945238D01*
X128147619Y-60945238D01*
X128338095Y-60850000D01*
X128433333Y-60754761D01*
X128528571Y-60564285D01*
X128528571Y-60278571D01*
X128433333Y-60088095D01*
X128338095Y-59992857D01*
X128147619Y-59897619D01*
X127576190Y-59897619D01*
X127385714Y-59992857D01*
X127290476Y-60088095D01*
X127195238Y-60278571D01*
X127195238Y-60564285D01*
X127290476Y-59135714D02*
X127195238Y-58945238D01*
X127195238Y-58564285D01*
X127290476Y-58373809D01*
X127480952Y-58278571D01*
X127576190Y-58278571D01*
X127766666Y-58373809D01*
X127861904Y-58564285D01*
X127861904Y-58850000D01*
X127957142Y-59040476D01*
X128147619Y-59135714D01*
X128242857Y-59135714D01*
X128433333Y-59040476D01*
X128528571Y-58850000D01*
X128528571Y-58564285D01*
X128433333Y-58373809D01*
X127195238Y-57421428D02*
X128528571Y-57421428D01*
X129195238Y-57421428D02*
X129100000Y-57516666D01*
X129004761Y-57421428D01*
X129100000Y-57326190D01*
X129195238Y-57421428D01*
X129004761Y-57421428D01*
X128528571Y-56754761D02*
X128528571Y-55992857D01*
X129195238Y-56469047D02*
X127480952Y-56469047D01*
X127290476Y-56373809D01*
X127195238Y-56183333D01*
X127195238Y-55992857D01*
X127290476Y-54564285D02*
X127195238Y-54754761D01*
X127195238Y-55135714D01*
X127290476Y-55326190D01*
X127480952Y-55421428D01*
X128242857Y-55421428D01*
X128433333Y-55326190D01*
X128528571Y-55135714D01*
X128528571Y-54754761D01*
X128433333Y-54564285D01*
X128242857Y-54469047D01*
X128052380Y-54469047D01*
X127861904Y-55421428D01*
X127385714Y-143242857D02*
X127290476Y-143338095D01*
X127195238Y-143623809D01*
X127195238Y-143814285D01*
X127290476Y-144100000D01*
X127480952Y-144290476D01*
X127671428Y-144385714D01*
X128052380Y-144480952D01*
X128338095Y-144480952D01*
X128719047Y-144385714D01*
X128909523Y-144290476D01*
X129100000Y-144100000D01*
X129195238Y-143814285D01*
X129195238Y-143623809D01*
X129100000Y-143338095D01*
X129004761Y-143242857D01*
X127195238Y-142100000D02*
X127290476Y-142290476D01*
X127385714Y-142385714D01*
X127576190Y-142480952D01*
X128147619Y-142480952D01*
X128338095Y-142385714D01*
X128433333Y-142290476D01*
X128528571Y-142100000D01*
X128528571Y-141814285D01*
X128433333Y-141623809D01*
X128338095Y-141528571D01*
X128147619Y-141433333D01*
X127576190Y-141433333D01*
X127385714Y-141528571D01*
X127290476Y-141623809D01*
X127195238Y-141814285D01*
X127195238Y-142100000D01*
X127195238Y-140576190D02*
X128528571Y-140576190D01*
X128338095Y-140576190D02*
X128433333Y-140480952D01*
X128528571Y-140290476D01*
X128528571Y-140004761D01*
X128433333Y-139814285D01*
X128242857Y-139719047D01*
X127195238Y-139719047D01*
X128242857Y-139719047D02*
X128433333Y-139623809D01*
X128528571Y-139433333D01*
X128528571Y-139147619D01*
X128433333Y-138957142D01*
X128242857Y-138861904D01*
X127195238Y-138861904D01*
X128528571Y-137909523D02*
X126528571Y-137909523D01*
X128433333Y-137909523D02*
X128528571Y-137719047D01*
X128528571Y-137338095D01*
X128433333Y-137147619D01*
X128338095Y-137052380D01*
X128147619Y-136957142D01*
X127576190Y-136957142D01*
X127385714Y-137052380D01*
X127290476Y-137147619D01*
X127195238Y-137338095D01*
X127195238Y-137719047D01*
X127290476Y-137909523D01*
X127195238Y-135814285D02*
X127290476Y-136004761D01*
X127385714Y-136100000D01*
X127576190Y-136195238D01*
X128147619Y-136195238D01*
X128338095Y-136100000D01*
X128433333Y-136004761D01*
X128528571Y-135814285D01*
X128528571Y-135528571D01*
X128433333Y-135338095D01*
X128338095Y-135242857D01*
X128147619Y-135147619D01*
X127576190Y-135147619D01*
X127385714Y-135242857D01*
X127290476Y-135338095D01*
X127195238Y-135528571D01*
X127195238Y-135814285D01*
X127290476Y-134385714D02*
X127195238Y-134195238D01*
X127195238Y-133814285D01*
X127290476Y-133623809D01*
X127480952Y-133528571D01*
X127576190Y-133528571D01*
X127766666Y-133623809D01*
X127861904Y-133814285D01*
X127861904Y-134100000D01*
X127957142Y-134290476D01*
X128147619Y-134385714D01*
X128242857Y-134385714D01*
X128433333Y-134290476D01*
X128528571Y-134100000D01*
X128528571Y-133814285D01*
X128433333Y-133623809D01*
X127195238Y-132671428D02*
X128528571Y-132671428D01*
X129195238Y-132671428D02*
X129100000Y-132766666D01*
X129004761Y-132671428D01*
X129100000Y-132576190D01*
X129195238Y-132671428D01*
X129004761Y-132671428D01*
X128528571Y-132004761D02*
X128528571Y-131242857D01*
X129195238Y-131719047D02*
X127480952Y-131719047D01*
X127290476Y-131623809D01*
X127195238Y-131433333D01*
X127195238Y-131242857D01*
X127290476Y-129814285D02*
X127195238Y-130004761D01*
X127195238Y-130385714D01*
X127290476Y-130576190D01*
X127480952Y-130671428D01*
X128242857Y-130671428D01*
X128433333Y-130576190D01*
X128528571Y-130385714D01*
X128528571Y-130004761D01*
X128433333Y-129814285D01*
X128242857Y-129719047D01*
X128052380Y-129719047D01*
X127861904Y-130671428D01*
X129090476Y-158614285D02*
X128995238Y-158328571D01*
X128995238Y-157852380D01*
X129090476Y-157661904D01*
X129185714Y-157566666D01*
X129376190Y-157471428D01*
X129566666Y-157471428D01*
X129757142Y-157566666D01*
X129852380Y-157661904D01*
X129947619Y-157852380D01*
X130042857Y-158233333D01*
X130138095Y-158423809D01*
X130233333Y-158519047D01*
X130423809Y-158614285D01*
X130614285Y-158614285D01*
X130804761Y-158519047D01*
X130900000Y-158423809D01*
X130995238Y-158233333D01*
X130995238Y-157757142D01*
X130900000Y-157471428D01*
X129757142Y-156614285D02*
X129757142Y-155090476D01*
X130328571Y-154328571D02*
X128995238Y-153852380D01*
X130328571Y-153376190D01*
X128995238Y-152614285D02*
X130328571Y-152614285D01*
X130995238Y-152614285D02*
X130900000Y-152709523D01*
X130804761Y-152614285D01*
X130900000Y-152519047D01*
X130995238Y-152614285D01*
X130804761Y-152614285D01*
X128995238Y-150804761D02*
X130995238Y-150804761D01*
X129090476Y-150804761D02*
X128995238Y-150995238D01*
X128995238Y-151376190D01*
X129090476Y-151566666D01*
X129185714Y-151661904D01*
X129376190Y-151757142D01*
X129947619Y-151757142D01*
X130138095Y-151661904D01*
X130233333Y-151566666D01*
X130328571Y-151376190D01*
X130328571Y-150995238D01*
X130233333Y-150804761D01*
X129090476Y-149090476D02*
X128995238Y-149280952D01*
X128995238Y-149661904D01*
X129090476Y-149852380D01*
X129280952Y-149947619D01*
X130042857Y-149947619D01*
X130233333Y-149852380D01*
X130328571Y-149661904D01*
X130328571Y-149280952D01*
X130233333Y-149090476D01*
X130042857Y-148995238D01*
X129852380Y-148995238D01*
X129661904Y-149947619D01*
X128995238Y-147852380D02*
X129090476Y-148042857D01*
X129185714Y-148138095D01*
X129376190Y-148233333D01*
X129947619Y-148233333D01*
X130138095Y-148138095D01*
X130233333Y-148042857D01*
X130328571Y-147852380D01*
X130328571Y-147566666D01*
X130233333Y-147376190D01*
X130138095Y-147280952D01*
X129947619Y-147185714D01*
X129376190Y-147185714D01*
X129185714Y-147280952D01*
X129090476Y-147376190D01*
X128995238Y-147566666D01*
X128995238Y-147852380D01*
X127095238Y-166180952D02*
X128047619Y-166847619D01*
X127095238Y-167323809D02*
X129095238Y-167323809D01*
X129095238Y-166561904D01*
X129000000Y-166371428D01*
X128904761Y-166276190D01*
X128714285Y-166180952D01*
X128428571Y-166180952D01*
X128238095Y-166276190D01*
X128142857Y-166371428D01*
X128047619Y-166561904D01*
X128047619Y-167323809D01*
X127095238Y-179280952D02*
X127095238Y-180233333D01*
X129095238Y-180233333D01*
M02*
