G04 #@! TF.GenerationSoftware,KiCad,Pcbnew,(6.0.5)*
G04 #@! TF.CreationDate,2022-09-16T15:24:00+12:00*
G04 #@! TF.ProjectId,covers,636f7665-7273-42e6-9b69-6361645f7063,rev?*
G04 #@! TF.SameCoordinates,Original*
G04 #@! TF.FileFunction,Copper,L1,Top*
G04 #@! TF.FilePolarity,Positive*
%FSLAX46Y46*%
G04 Gerber Fmt 4.6, Leading zero omitted, Abs format (unit mm)*
G04 Created by KiCad (PCBNEW (6.0.5)) date 2022-09-16 15:24:00*
%MOMM*%
%LPD*%
G01*
G04 APERTURE LIST*
G04 #@! TA.AperFunction,ComponentPad*
%ADD10C,4.700000*%
G04 #@! TD*
G04 #@! TA.AperFunction,ViaPad*
%ADD11C,10.000000*%
G04 #@! TD*
G04 #@! TA.AperFunction,Conductor*
%ADD12C,0.254000*%
G04 #@! TD*
G04 APERTURE END LIST*
D10*
X132200000Y-110050000D03*
X108800000Y-110050000D03*
X132150000Y-42050000D03*
X108800000Y-42050000D03*
X108800000Y-117300000D03*
X132150000Y-117300000D03*
X108800000Y-185300000D03*
X132200000Y-185300000D03*
D11*
X121100000Y-61850000D03*
X121100000Y-137100000D03*
X121100000Y-179900000D03*
X121100000Y-166900000D03*
D12*
X130491298Y-114800927D02*
X130233137Y-115203532D01*
X132150000Y-117120395D01*
X132164143Y-117106253D01*
X132343748Y-117285858D01*
X132329605Y-117300000D01*
X134246468Y-119216863D01*
X134498001Y-119055573D01*
X134498000Y-151280253D01*
X134498000Y-151280254D01*
X134498001Y-183512365D01*
X134296468Y-183383137D01*
X132379605Y-185300000D01*
X132393748Y-185314143D01*
X132214143Y-185493748D01*
X132200000Y-185479605D01*
X130283137Y-187396468D01*
X130541298Y-187799073D01*
X131010482Y-188048000D01*
X109992994Y-188048000D01*
X110458702Y-187799073D01*
X110716863Y-187396468D01*
X108800000Y-185479605D01*
X108785858Y-185493748D01*
X108606253Y-185314143D01*
X108620395Y-185300000D01*
X108979605Y-185300000D01*
X110896468Y-187216863D01*
X111299073Y-186958702D01*
X111574651Y-186439285D01*
X111743601Y-185876087D01*
X111797665Y-185309250D01*
X129200570Y-185309250D01*
X129260008Y-185894233D01*
X129432429Y-186456379D01*
X129700927Y-186958702D01*
X130103532Y-187216863D01*
X132020395Y-185300000D01*
X130103532Y-183383137D01*
X129700927Y-183641298D01*
X129425349Y-184160715D01*
X129256399Y-184723913D01*
X129200570Y-185309250D01*
X111797665Y-185309250D01*
X111799430Y-185290750D01*
X111739992Y-184705767D01*
X111567571Y-184143621D01*
X111299073Y-183641298D01*
X110896468Y-183383137D01*
X108979605Y-185300000D01*
X108620395Y-185300000D01*
X106703532Y-183383137D01*
X106402000Y-183576487D01*
X106402000Y-183203532D01*
X106883137Y-183203532D01*
X108800000Y-185120395D01*
X110716863Y-183203532D01*
X130283137Y-183203532D01*
X132200000Y-185120395D01*
X134116863Y-183203532D01*
X133858702Y-182800927D01*
X133339285Y-182525349D01*
X132776087Y-182356399D01*
X132190750Y-182300570D01*
X131605767Y-182360008D01*
X131043621Y-182532429D01*
X130541298Y-182800927D01*
X130283137Y-183203532D01*
X110716863Y-183203532D01*
X110458702Y-182800927D01*
X109939285Y-182525349D01*
X109376087Y-182356399D01*
X108790750Y-182300570D01*
X108205767Y-182360008D01*
X107643621Y-182532429D01*
X107141298Y-182800927D01*
X106883137Y-183203532D01*
X106402000Y-183203532D01*
X106402000Y-146180254D01*
X113698000Y-146180254D01*
X113698001Y-159619747D01*
X113699721Y-159637213D01*
X113699678Y-159643416D01*
X113700226Y-159649003D01*
X113720627Y-159843099D01*
X113727955Y-159878798D01*
X113734780Y-159914579D01*
X113736403Y-159919952D01*
X113794115Y-160106390D01*
X113808238Y-160139987D01*
X113821883Y-160173760D01*
X113824518Y-160178716D01*
X113917343Y-160350393D01*
X113937704Y-160380580D01*
X113957668Y-160411088D01*
X113961216Y-160415438D01*
X114085620Y-160565816D01*
X114111486Y-160591503D01*
X114136965Y-160617521D01*
X114141290Y-160621099D01*
X114292532Y-160744449D01*
X114322888Y-160764617D01*
X114352943Y-160785197D01*
X114357876Y-160787863D01*
X114357880Y-160787866D01*
X114357884Y-160787868D01*
X114530203Y-160879491D01*
X114563894Y-160893378D01*
X114597377Y-160907729D01*
X114602739Y-160909389D01*
X114789576Y-160965798D01*
X114825320Y-160972875D01*
X114860955Y-160980450D01*
X114866537Y-160981036D01*
X115060487Y-161000053D01*
X115080253Y-161002000D01*
X126919747Y-161002000D01*
X126937223Y-161000279D01*
X126943416Y-161000322D01*
X126949003Y-160999774D01*
X127143099Y-160979373D01*
X127178798Y-160972045D01*
X127214579Y-160965220D01*
X127219950Y-160963598D01*
X127219956Y-160963596D01*
X127406390Y-160905885D01*
X127439987Y-160891762D01*
X127473760Y-160878117D01*
X127478716Y-160875482D01*
X127650393Y-160782657D01*
X127680580Y-160762296D01*
X127711088Y-160742332D01*
X127715438Y-160738784D01*
X127865816Y-160614380D01*
X127891503Y-160588514D01*
X127917521Y-160563035D01*
X127921099Y-160558710D01*
X128044449Y-160407468D01*
X128064617Y-160377112D01*
X128085197Y-160347057D01*
X128087863Y-160342124D01*
X128087866Y-160342120D01*
X128087868Y-160342116D01*
X128179491Y-160169797D01*
X128193378Y-160136106D01*
X128207729Y-160102623D01*
X128209389Y-160097261D01*
X128265798Y-159910424D01*
X128272875Y-159874680D01*
X128280450Y-159839045D01*
X128281036Y-159833463D01*
X128300081Y-159639229D01*
X128302000Y-159619747D01*
X128302000Y-146180253D01*
X128300279Y-146162777D01*
X128300322Y-146156583D01*
X128299774Y-146150997D01*
X128279373Y-145956900D01*
X128272042Y-145921188D01*
X128265220Y-145885421D01*
X128263597Y-145880048D01*
X128263597Y-145880046D01*
X128263595Y-145880040D01*
X128205885Y-145693610D01*
X128191762Y-145660013D01*
X128178117Y-145626240D01*
X128175482Y-145621284D01*
X128082657Y-145449607D01*
X128062279Y-145419395D01*
X128042331Y-145388911D01*
X128038784Y-145384562D01*
X127914380Y-145234184D01*
X127888530Y-145208514D01*
X127863035Y-145182479D01*
X127858710Y-145178901D01*
X127707468Y-145055551D01*
X127677086Y-145035365D01*
X127647057Y-145014804D01*
X127642120Y-145012134D01*
X127469797Y-144920509D01*
X127436123Y-144906630D01*
X127402623Y-144892271D01*
X127397261Y-144890612D01*
X127210425Y-144834202D01*
X127174666Y-144827122D01*
X127139045Y-144819550D01*
X127133462Y-144818964D01*
X126939513Y-144799947D01*
X126919747Y-144798000D01*
X115080253Y-144798000D01*
X115062777Y-144799721D01*
X115056583Y-144799678D01*
X115050997Y-144800226D01*
X114856900Y-144820627D01*
X114821188Y-144827958D01*
X114785421Y-144834780D01*
X114780052Y-144836402D01*
X114780046Y-144836403D01*
X114780040Y-144836405D01*
X114593610Y-144894115D01*
X114560013Y-144908238D01*
X114526240Y-144921883D01*
X114521284Y-144924518D01*
X114349607Y-145017343D01*
X114319395Y-145037721D01*
X114288911Y-145057669D01*
X114284562Y-145061216D01*
X114134184Y-145185620D01*
X114108514Y-145211470D01*
X114082479Y-145236965D01*
X114078901Y-145241290D01*
X113955551Y-145392532D01*
X113935365Y-145422914D01*
X113914804Y-145452943D01*
X113912134Y-145457880D01*
X113820509Y-145630203D01*
X113806630Y-145663877D01*
X113792271Y-145697377D01*
X113790612Y-145702739D01*
X113734202Y-145889575D01*
X113727122Y-145925334D01*
X113719550Y-145960955D01*
X113718964Y-145966538D01*
X113699925Y-146160709D01*
X113698000Y-146180254D01*
X106402000Y-146180254D01*
X106402000Y-119396468D01*
X106883137Y-119396468D01*
X107141298Y-119799073D01*
X107660715Y-120074651D01*
X108223913Y-120243601D01*
X108809250Y-120299430D01*
X109394233Y-120239992D01*
X109956379Y-120067571D01*
X110458702Y-119799073D01*
X110716863Y-119396468D01*
X130233137Y-119396468D01*
X130491298Y-119799073D01*
X131010715Y-120074651D01*
X131573913Y-120243601D01*
X132159250Y-120299430D01*
X132744233Y-120239992D01*
X133306379Y-120067571D01*
X133808702Y-119799073D01*
X134066863Y-119396468D01*
X132150000Y-117479605D01*
X130233137Y-119396468D01*
X110716863Y-119396468D01*
X108800000Y-117479605D01*
X106883137Y-119396468D01*
X106402000Y-119396468D01*
X106402000Y-119023513D01*
X106703532Y-119216863D01*
X108620395Y-117300000D01*
X108979605Y-117300000D01*
X110896468Y-119216863D01*
X111299073Y-118958702D01*
X111574651Y-118439285D01*
X111743601Y-117876087D01*
X111797665Y-117309250D01*
X129150570Y-117309250D01*
X129210008Y-117894233D01*
X129382429Y-118456379D01*
X129650927Y-118958702D01*
X130053532Y-119216863D01*
X131970395Y-117300000D01*
X130053532Y-115383137D01*
X129650927Y-115641298D01*
X129375349Y-116160715D01*
X129206399Y-116723913D01*
X129150570Y-117309250D01*
X111797665Y-117309250D01*
X111799430Y-117290750D01*
X111739992Y-116705767D01*
X111567571Y-116143621D01*
X111299073Y-115641298D01*
X110896468Y-115383137D01*
X108979605Y-117300000D01*
X108620395Y-117300000D01*
X108606253Y-117285858D01*
X108785858Y-117106253D01*
X108800000Y-117120395D01*
X110716863Y-115203532D01*
X110458702Y-114800927D01*
X109989518Y-114552000D01*
X130957006Y-114552000D01*
X130491298Y-114800927D01*
X130491298Y-114800927D02*
X130957006Y-114552000D01*
G04 #@! TA.AperFunction,Conductor*
G36*
X130491298Y-114800927D02*
G01*
X130233137Y-115203532D01*
X132150000Y-117120395D01*
X132164143Y-117106253D01*
X132343748Y-117285858D01*
X132329605Y-117300000D01*
X134246468Y-119216863D01*
X134498001Y-119055573D01*
X134498000Y-151280253D01*
X134498000Y-151280254D01*
X134498001Y-183512365D01*
X134296468Y-183383137D01*
X132379605Y-185300000D01*
X132393748Y-185314143D01*
X132214143Y-185493748D01*
X132200000Y-185479605D01*
X130283137Y-187396468D01*
X130541298Y-187799073D01*
X131010482Y-188048000D01*
X109992994Y-188048000D01*
X110458702Y-187799073D01*
X110716863Y-187396468D01*
X108800000Y-185479605D01*
X108785858Y-185493748D01*
X108606253Y-185314143D01*
X108620395Y-185300000D01*
X108979605Y-185300000D01*
X110896468Y-187216863D01*
X111299073Y-186958702D01*
X111574651Y-186439285D01*
X111743601Y-185876087D01*
X111797665Y-185309250D01*
X129200570Y-185309250D01*
X129260008Y-185894233D01*
X129432429Y-186456379D01*
X129700927Y-186958702D01*
X130103532Y-187216863D01*
X132020395Y-185300000D01*
X130103532Y-183383137D01*
X129700927Y-183641298D01*
X129425349Y-184160715D01*
X129256399Y-184723913D01*
X129200570Y-185309250D01*
X111797665Y-185309250D01*
X111799430Y-185290750D01*
X111739992Y-184705767D01*
X111567571Y-184143621D01*
X111299073Y-183641298D01*
X110896468Y-183383137D01*
X108979605Y-185300000D01*
X108620395Y-185300000D01*
X106703532Y-183383137D01*
X106402000Y-183576487D01*
X106402000Y-183203532D01*
X106883137Y-183203532D01*
X108800000Y-185120395D01*
X110716863Y-183203532D01*
X130283137Y-183203532D01*
X132200000Y-185120395D01*
X134116863Y-183203532D01*
X133858702Y-182800927D01*
X133339285Y-182525349D01*
X132776087Y-182356399D01*
X132190750Y-182300570D01*
X131605767Y-182360008D01*
X131043621Y-182532429D01*
X130541298Y-182800927D01*
X130283137Y-183203532D01*
X110716863Y-183203532D01*
X110458702Y-182800927D01*
X109939285Y-182525349D01*
X109376087Y-182356399D01*
X108790750Y-182300570D01*
X108205767Y-182360008D01*
X107643621Y-182532429D01*
X107141298Y-182800927D01*
X106883137Y-183203532D01*
X106402000Y-183203532D01*
X106402000Y-146180254D01*
X113698000Y-146180254D01*
X113698001Y-159619747D01*
X113699721Y-159637213D01*
X113699678Y-159643416D01*
X113700226Y-159649003D01*
X113720627Y-159843099D01*
X113727955Y-159878798D01*
X113734780Y-159914579D01*
X113736403Y-159919952D01*
X113794115Y-160106390D01*
X113808238Y-160139987D01*
X113821883Y-160173760D01*
X113824518Y-160178716D01*
X113917343Y-160350393D01*
X113937704Y-160380580D01*
X113957668Y-160411088D01*
X113961216Y-160415438D01*
X114085620Y-160565816D01*
X114111486Y-160591503D01*
X114136965Y-160617521D01*
X114141290Y-160621099D01*
X114292532Y-160744449D01*
X114322888Y-160764617D01*
X114352943Y-160785197D01*
X114357876Y-160787863D01*
X114357880Y-160787866D01*
X114357884Y-160787868D01*
X114530203Y-160879491D01*
X114563894Y-160893378D01*
X114597377Y-160907729D01*
X114602739Y-160909389D01*
X114789576Y-160965798D01*
X114825320Y-160972875D01*
X114860955Y-160980450D01*
X114866537Y-160981036D01*
X115060487Y-161000053D01*
X115080253Y-161002000D01*
X126919747Y-161002000D01*
X126937223Y-161000279D01*
X126943416Y-161000322D01*
X126949003Y-160999774D01*
X127143099Y-160979373D01*
X127178798Y-160972045D01*
X127214579Y-160965220D01*
X127219950Y-160963598D01*
X127219956Y-160963596D01*
X127406390Y-160905885D01*
X127439987Y-160891762D01*
X127473760Y-160878117D01*
X127478716Y-160875482D01*
X127650393Y-160782657D01*
X127680580Y-160762296D01*
X127711088Y-160742332D01*
X127715438Y-160738784D01*
X127865816Y-160614380D01*
X127891503Y-160588514D01*
X127917521Y-160563035D01*
X127921099Y-160558710D01*
X128044449Y-160407468D01*
X128064617Y-160377112D01*
X128085197Y-160347057D01*
X128087863Y-160342124D01*
X128087866Y-160342120D01*
X128087868Y-160342116D01*
X128179491Y-160169797D01*
X128193378Y-160136106D01*
X128207729Y-160102623D01*
X128209389Y-160097261D01*
X128265798Y-159910424D01*
X128272875Y-159874680D01*
X128280450Y-159839045D01*
X128281036Y-159833463D01*
X128300081Y-159639229D01*
X128302000Y-159619747D01*
X128302000Y-146180253D01*
X128300279Y-146162777D01*
X128300322Y-146156583D01*
X128299774Y-146150997D01*
X128279373Y-145956900D01*
X128272042Y-145921188D01*
X128265220Y-145885421D01*
X128263597Y-145880048D01*
X128263597Y-145880046D01*
X128263595Y-145880040D01*
X128205885Y-145693610D01*
X128191762Y-145660013D01*
X128178117Y-145626240D01*
X128175482Y-145621284D01*
X128082657Y-145449607D01*
X128062279Y-145419395D01*
X128042331Y-145388911D01*
X128038784Y-145384562D01*
X127914380Y-145234184D01*
X127888530Y-145208514D01*
X127863035Y-145182479D01*
X127858710Y-145178901D01*
X127707468Y-145055551D01*
X127677086Y-145035365D01*
X127647057Y-145014804D01*
X127642120Y-145012134D01*
X127469797Y-144920509D01*
X127436123Y-144906630D01*
X127402623Y-144892271D01*
X127397261Y-144890612D01*
X127210425Y-144834202D01*
X127174666Y-144827122D01*
X127139045Y-144819550D01*
X127133462Y-144818964D01*
X126939513Y-144799947D01*
X126919747Y-144798000D01*
X115080253Y-144798000D01*
X115062777Y-144799721D01*
X115056583Y-144799678D01*
X115050997Y-144800226D01*
X114856900Y-144820627D01*
X114821188Y-144827958D01*
X114785421Y-144834780D01*
X114780052Y-144836402D01*
X114780046Y-144836403D01*
X114780040Y-144836405D01*
X114593610Y-144894115D01*
X114560013Y-144908238D01*
X114526240Y-144921883D01*
X114521284Y-144924518D01*
X114349607Y-145017343D01*
X114319395Y-145037721D01*
X114288911Y-145057669D01*
X114284562Y-145061216D01*
X114134184Y-145185620D01*
X114108514Y-145211470D01*
X114082479Y-145236965D01*
X114078901Y-145241290D01*
X113955551Y-145392532D01*
X113935365Y-145422914D01*
X113914804Y-145452943D01*
X113912134Y-145457880D01*
X113820509Y-145630203D01*
X113806630Y-145663877D01*
X113792271Y-145697377D01*
X113790612Y-145702739D01*
X113734202Y-145889575D01*
X113727122Y-145925334D01*
X113719550Y-145960955D01*
X113718964Y-145966538D01*
X113699925Y-146160709D01*
X113698000Y-146180254D01*
X106402000Y-146180254D01*
X106402000Y-119396468D01*
X106883137Y-119396468D01*
X107141298Y-119799073D01*
X107660715Y-120074651D01*
X108223913Y-120243601D01*
X108809250Y-120299430D01*
X109394233Y-120239992D01*
X109956379Y-120067571D01*
X110458702Y-119799073D01*
X110716863Y-119396468D01*
X130233137Y-119396468D01*
X130491298Y-119799073D01*
X131010715Y-120074651D01*
X131573913Y-120243601D01*
X132159250Y-120299430D01*
X132744233Y-120239992D01*
X133306379Y-120067571D01*
X133808702Y-119799073D01*
X134066863Y-119396468D01*
X132150000Y-117479605D01*
X130233137Y-119396468D01*
X110716863Y-119396468D01*
X108800000Y-117479605D01*
X106883137Y-119396468D01*
X106402000Y-119396468D01*
X106402000Y-119023513D01*
X106703532Y-119216863D01*
X108620395Y-117300000D01*
X108979605Y-117300000D01*
X110896468Y-119216863D01*
X111299073Y-118958702D01*
X111574651Y-118439285D01*
X111743601Y-117876087D01*
X111797665Y-117309250D01*
X129150570Y-117309250D01*
X129210008Y-117894233D01*
X129382429Y-118456379D01*
X129650927Y-118958702D01*
X130053532Y-119216863D01*
X131970395Y-117300000D01*
X130053532Y-115383137D01*
X129650927Y-115641298D01*
X129375349Y-116160715D01*
X129206399Y-116723913D01*
X129150570Y-117309250D01*
X111797665Y-117309250D01*
X111799430Y-117290750D01*
X111739992Y-116705767D01*
X111567571Y-116143621D01*
X111299073Y-115641298D01*
X110896468Y-115383137D01*
X108979605Y-117300000D01*
X108620395Y-117300000D01*
X108606253Y-117285858D01*
X108785858Y-117106253D01*
X108800000Y-117120395D01*
X110716863Y-115203532D01*
X110458702Y-114800927D01*
X109989518Y-114552000D01*
X130957006Y-114552000D01*
X130491298Y-114800927D01*
G37*
G04 #@! TD.AperFunction*
X130491298Y-39550927D02*
X130233137Y-39953532D01*
X132150000Y-41870395D01*
X132164143Y-41856253D01*
X132343748Y-42035858D01*
X132329605Y-42050000D01*
X134246468Y-43966863D01*
X134498001Y-43805573D01*
X134498000Y-76030253D01*
X134498000Y-76030254D01*
X134498001Y-108262365D01*
X134296468Y-108133137D01*
X132379605Y-110050000D01*
X132393748Y-110064143D01*
X132214143Y-110243748D01*
X132200000Y-110229605D01*
X130283137Y-112146468D01*
X130541298Y-112549073D01*
X131010482Y-112798000D01*
X109992994Y-112798000D01*
X110458702Y-112549073D01*
X110716863Y-112146468D01*
X108800000Y-110229605D01*
X108785858Y-110243748D01*
X108606253Y-110064143D01*
X108620395Y-110050000D01*
X108979605Y-110050000D01*
X110896468Y-111966863D01*
X111299073Y-111708702D01*
X111574651Y-111189285D01*
X111743601Y-110626087D01*
X111797665Y-110059250D01*
X129200570Y-110059250D01*
X129260008Y-110644233D01*
X129432429Y-111206379D01*
X129700927Y-111708702D01*
X130103532Y-111966863D01*
X132020395Y-110050000D01*
X130103532Y-108133137D01*
X129700927Y-108391298D01*
X129425349Y-108910715D01*
X129256399Y-109473913D01*
X129200570Y-110059250D01*
X111797665Y-110059250D01*
X111799430Y-110040750D01*
X111739992Y-109455767D01*
X111567571Y-108893621D01*
X111299073Y-108391298D01*
X110896468Y-108133137D01*
X108979605Y-110050000D01*
X108620395Y-110050000D01*
X106703532Y-108133137D01*
X106402000Y-108326487D01*
X106402000Y-107953532D01*
X106883137Y-107953532D01*
X108800000Y-109870395D01*
X110716863Y-107953532D01*
X130283137Y-107953532D01*
X132200000Y-109870395D01*
X134116863Y-107953532D01*
X133858702Y-107550927D01*
X133339285Y-107275349D01*
X132776087Y-107106399D01*
X132190750Y-107050570D01*
X131605767Y-107110008D01*
X131043621Y-107282429D01*
X130541298Y-107550927D01*
X130283137Y-107953532D01*
X110716863Y-107953532D01*
X110458702Y-107550927D01*
X109939285Y-107275349D01*
X109376087Y-107106399D01*
X108790750Y-107050570D01*
X108205767Y-107110008D01*
X107643621Y-107282429D01*
X107141298Y-107550927D01*
X106883137Y-107953532D01*
X106402000Y-107953532D01*
X106402000Y-70930254D01*
X113698000Y-70930254D01*
X113698001Y-84369747D01*
X113699721Y-84387213D01*
X113699678Y-84393416D01*
X113700226Y-84399003D01*
X113720627Y-84593099D01*
X113727955Y-84628798D01*
X113734780Y-84664579D01*
X113736403Y-84669952D01*
X113794115Y-84856390D01*
X113808238Y-84889987D01*
X113821883Y-84923760D01*
X113824518Y-84928716D01*
X113917343Y-85100393D01*
X113937704Y-85130580D01*
X113957668Y-85161088D01*
X113961216Y-85165438D01*
X114085620Y-85315816D01*
X114111486Y-85341503D01*
X114136965Y-85367521D01*
X114141290Y-85371099D01*
X114292532Y-85494449D01*
X114322888Y-85514617D01*
X114352943Y-85535197D01*
X114357876Y-85537863D01*
X114357880Y-85537866D01*
X114357884Y-85537868D01*
X114530203Y-85629491D01*
X114563894Y-85643378D01*
X114597377Y-85657729D01*
X114602739Y-85659389D01*
X114789576Y-85715798D01*
X114825320Y-85722875D01*
X114860955Y-85730450D01*
X114866537Y-85731036D01*
X115060487Y-85750053D01*
X115080253Y-85752000D01*
X126919747Y-85752000D01*
X126937223Y-85750279D01*
X126943416Y-85750322D01*
X126949003Y-85749774D01*
X127143099Y-85729373D01*
X127178798Y-85722045D01*
X127214579Y-85715220D01*
X127219950Y-85713598D01*
X127219956Y-85713596D01*
X127406390Y-85655885D01*
X127439987Y-85641762D01*
X127473760Y-85628117D01*
X127478716Y-85625482D01*
X127650393Y-85532657D01*
X127680580Y-85512296D01*
X127711088Y-85492332D01*
X127715438Y-85488784D01*
X127865816Y-85364380D01*
X127891503Y-85338514D01*
X127917521Y-85313035D01*
X127921099Y-85308710D01*
X128044449Y-85157468D01*
X128064617Y-85127112D01*
X128085197Y-85097057D01*
X128087863Y-85092124D01*
X128087866Y-85092120D01*
X128087868Y-85092116D01*
X128179491Y-84919797D01*
X128193378Y-84886106D01*
X128207729Y-84852623D01*
X128209389Y-84847261D01*
X128265798Y-84660424D01*
X128272875Y-84624680D01*
X128280450Y-84589045D01*
X128281036Y-84583463D01*
X128300081Y-84389229D01*
X128302000Y-84369747D01*
X128302000Y-70930253D01*
X128300279Y-70912777D01*
X128300322Y-70906583D01*
X128299774Y-70900997D01*
X128279373Y-70706900D01*
X128272042Y-70671188D01*
X128265220Y-70635421D01*
X128263597Y-70630048D01*
X128263597Y-70630046D01*
X128263595Y-70630040D01*
X128205885Y-70443610D01*
X128191762Y-70410013D01*
X128178117Y-70376240D01*
X128175482Y-70371284D01*
X128082657Y-70199607D01*
X128062279Y-70169395D01*
X128042331Y-70138911D01*
X128038784Y-70134562D01*
X127914380Y-69984184D01*
X127888530Y-69958514D01*
X127863035Y-69932479D01*
X127858710Y-69928901D01*
X127707468Y-69805551D01*
X127677086Y-69785365D01*
X127647057Y-69764804D01*
X127642120Y-69762134D01*
X127469797Y-69670509D01*
X127436123Y-69656630D01*
X127402623Y-69642271D01*
X127397261Y-69640612D01*
X127210425Y-69584202D01*
X127174666Y-69577122D01*
X127139045Y-69569550D01*
X127133462Y-69568964D01*
X126939513Y-69549947D01*
X126919747Y-69548000D01*
X115080253Y-69548000D01*
X115062777Y-69549721D01*
X115056583Y-69549678D01*
X115050997Y-69550226D01*
X114856900Y-69570627D01*
X114821188Y-69577958D01*
X114785421Y-69584780D01*
X114780052Y-69586402D01*
X114780046Y-69586403D01*
X114780040Y-69586405D01*
X114593610Y-69644115D01*
X114560013Y-69658238D01*
X114526240Y-69671883D01*
X114521284Y-69674518D01*
X114349607Y-69767343D01*
X114319395Y-69787721D01*
X114288911Y-69807669D01*
X114284562Y-69811216D01*
X114134184Y-69935620D01*
X114108514Y-69961470D01*
X114082479Y-69986965D01*
X114078901Y-69991290D01*
X113955551Y-70142532D01*
X113935365Y-70172914D01*
X113914804Y-70202943D01*
X113912134Y-70207880D01*
X113820509Y-70380203D01*
X113806630Y-70413877D01*
X113792271Y-70447377D01*
X113790612Y-70452739D01*
X113734202Y-70639575D01*
X113727122Y-70675334D01*
X113719550Y-70710955D01*
X113718964Y-70716538D01*
X113699925Y-70910709D01*
X113698000Y-70930254D01*
X106402000Y-70930254D01*
X106402000Y-44146468D01*
X106883137Y-44146468D01*
X107141298Y-44549073D01*
X107660715Y-44824651D01*
X108223913Y-44993601D01*
X108809250Y-45049430D01*
X109394233Y-44989992D01*
X109956379Y-44817571D01*
X110458702Y-44549073D01*
X110716863Y-44146468D01*
X130233137Y-44146468D01*
X130491298Y-44549073D01*
X131010715Y-44824651D01*
X131573913Y-44993601D01*
X132159250Y-45049430D01*
X132744233Y-44989992D01*
X133306379Y-44817571D01*
X133808702Y-44549073D01*
X134066863Y-44146468D01*
X132150000Y-42229605D01*
X130233137Y-44146468D01*
X110716863Y-44146468D01*
X108800000Y-42229605D01*
X106883137Y-44146468D01*
X106402000Y-44146468D01*
X106402000Y-43773513D01*
X106703532Y-43966863D01*
X108620395Y-42050000D01*
X108979605Y-42050000D01*
X110896468Y-43966863D01*
X111299073Y-43708702D01*
X111574651Y-43189285D01*
X111743601Y-42626087D01*
X111797665Y-42059250D01*
X129150570Y-42059250D01*
X129210008Y-42644233D01*
X129382429Y-43206379D01*
X129650927Y-43708702D01*
X130053532Y-43966863D01*
X131970395Y-42050000D01*
X130053532Y-40133137D01*
X129650927Y-40391298D01*
X129375349Y-40910715D01*
X129206399Y-41473913D01*
X129150570Y-42059250D01*
X111797665Y-42059250D01*
X111799430Y-42040750D01*
X111739992Y-41455767D01*
X111567571Y-40893621D01*
X111299073Y-40391298D01*
X110896468Y-40133137D01*
X108979605Y-42050000D01*
X108620395Y-42050000D01*
X108606253Y-42035858D01*
X108785858Y-41856253D01*
X108800000Y-41870395D01*
X110716863Y-39953532D01*
X110458702Y-39550927D01*
X109989518Y-39302000D01*
X130957006Y-39302000D01*
X130491298Y-39550927D01*
X130491298Y-39550927D02*
X130957006Y-39302000D01*
G04 #@! TA.AperFunction,Conductor*
G36*
X130491298Y-39550927D02*
G01*
X130233137Y-39953532D01*
X132150000Y-41870395D01*
X132164143Y-41856253D01*
X132343748Y-42035858D01*
X132329605Y-42050000D01*
X134246468Y-43966863D01*
X134498001Y-43805573D01*
X134498000Y-76030253D01*
X134498000Y-76030254D01*
X134498001Y-108262365D01*
X134296468Y-108133137D01*
X132379605Y-110050000D01*
X132393748Y-110064143D01*
X132214143Y-110243748D01*
X132200000Y-110229605D01*
X130283137Y-112146468D01*
X130541298Y-112549073D01*
X131010482Y-112798000D01*
X109992994Y-112798000D01*
X110458702Y-112549073D01*
X110716863Y-112146468D01*
X108800000Y-110229605D01*
X108785858Y-110243748D01*
X108606253Y-110064143D01*
X108620395Y-110050000D01*
X108979605Y-110050000D01*
X110896468Y-111966863D01*
X111299073Y-111708702D01*
X111574651Y-111189285D01*
X111743601Y-110626087D01*
X111797665Y-110059250D01*
X129200570Y-110059250D01*
X129260008Y-110644233D01*
X129432429Y-111206379D01*
X129700927Y-111708702D01*
X130103532Y-111966863D01*
X132020395Y-110050000D01*
X130103532Y-108133137D01*
X129700927Y-108391298D01*
X129425349Y-108910715D01*
X129256399Y-109473913D01*
X129200570Y-110059250D01*
X111797665Y-110059250D01*
X111799430Y-110040750D01*
X111739992Y-109455767D01*
X111567571Y-108893621D01*
X111299073Y-108391298D01*
X110896468Y-108133137D01*
X108979605Y-110050000D01*
X108620395Y-110050000D01*
X106703532Y-108133137D01*
X106402000Y-108326487D01*
X106402000Y-107953532D01*
X106883137Y-107953532D01*
X108800000Y-109870395D01*
X110716863Y-107953532D01*
X130283137Y-107953532D01*
X132200000Y-109870395D01*
X134116863Y-107953532D01*
X133858702Y-107550927D01*
X133339285Y-107275349D01*
X132776087Y-107106399D01*
X132190750Y-107050570D01*
X131605767Y-107110008D01*
X131043621Y-107282429D01*
X130541298Y-107550927D01*
X130283137Y-107953532D01*
X110716863Y-107953532D01*
X110458702Y-107550927D01*
X109939285Y-107275349D01*
X109376087Y-107106399D01*
X108790750Y-107050570D01*
X108205767Y-107110008D01*
X107643621Y-107282429D01*
X107141298Y-107550927D01*
X106883137Y-107953532D01*
X106402000Y-107953532D01*
X106402000Y-70930254D01*
X113698000Y-70930254D01*
X113698001Y-84369747D01*
X113699721Y-84387213D01*
X113699678Y-84393416D01*
X113700226Y-84399003D01*
X113720627Y-84593099D01*
X113727955Y-84628798D01*
X113734780Y-84664579D01*
X113736403Y-84669952D01*
X113794115Y-84856390D01*
X113808238Y-84889987D01*
X113821883Y-84923760D01*
X113824518Y-84928716D01*
X113917343Y-85100393D01*
X113937704Y-85130580D01*
X113957668Y-85161088D01*
X113961216Y-85165438D01*
X114085620Y-85315816D01*
X114111486Y-85341503D01*
X114136965Y-85367521D01*
X114141290Y-85371099D01*
X114292532Y-85494449D01*
X114322888Y-85514617D01*
X114352943Y-85535197D01*
X114357876Y-85537863D01*
X114357880Y-85537866D01*
X114357884Y-85537868D01*
X114530203Y-85629491D01*
X114563894Y-85643378D01*
X114597377Y-85657729D01*
X114602739Y-85659389D01*
X114789576Y-85715798D01*
X114825320Y-85722875D01*
X114860955Y-85730450D01*
X114866537Y-85731036D01*
X115060487Y-85750053D01*
X115080253Y-85752000D01*
X126919747Y-85752000D01*
X126937223Y-85750279D01*
X126943416Y-85750322D01*
X126949003Y-85749774D01*
X127143099Y-85729373D01*
X127178798Y-85722045D01*
X127214579Y-85715220D01*
X127219950Y-85713598D01*
X127219956Y-85713596D01*
X127406390Y-85655885D01*
X127439987Y-85641762D01*
X127473760Y-85628117D01*
X127478716Y-85625482D01*
X127650393Y-85532657D01*
X127680580Y-85512296D01*
X127711088Y-85492332D01*
X127715438Y-85488784D01*
X127865816Y-85364380D01*
X127891503Y-85338514D01*
X127917521Y-85313035D01*
X127921099Y-85308710D01*
X128044449Y-85157468D01*
X128064617Y-85127112D01*
X128085197Y-85097057D01*
X128087863Y-85092124D01*
X128087866Y-85092120D01*
X128087868Y-85092116D01*
X128179491Y-84919797D01*
X128193378Y-84886106D01*
X128207729Y-84852623D01*
X128209389Y-84847261D01*
X128265798Y-84660424D01*
X128272875Y-84624680D01*
X128280450Y-84589045D01*
X128281036Y-84583463D01*
X128300081Y-84389229D01*
X128302000Y-84369747D01*
X128302000Y-70930253D01*
X128300279Y-70912777D01*
X128300322Y-70906583D01*
X128299774Y-70900997D01*
X128279373Y-70706900D01*
X128272042Y-70671188D01*
X128265220Y-70635421D01*
X128263597Y-70630048D01*
X128263597Y-70630046D01*
X128263595Y-70630040D01*
X128205885Y-70443610D01*
X128191762Y-70410013D01*
X128178117Y-70376240D01*
X128175482Y-70371284D01*
X128082657Y-70199607D01*
X128062279Y-70169395D01*
X128042331Y-70138911D01*
X128038784Y-70134562D01*
X127914380Y-69984184D01*
X127888530Y-69958514D01*
X127863035Y-69932479D01*
X127858710Y-69928901D01*
X127707468Y-69805551D01*
X127677086Y-69785365D01*
X127647057Y-69764804D01*
X127642120Y-69762134D01*
X127469797Y-69670509D01*
X127436123Y-69656630D01*
X127402623Y-69642271D01*
X127397261Y-69640612D01*
X127210425Y-69584202D01*
X127174666Y-69577122D01*
X127139045Y-69569550D01*
X127133462Y-69568964D01*
X126939513Y-69549947D01*
X126919747Y-69548000D01*
X115080253Y-69548000D01*
X115062777Y-69549721D01*
X115056583Y-69549678D01*
X115050997Y-69550226D01*
X114856900Y-69570627D01*
X114821188Y-69577958D01*
X114785421Y-69584780D01*
X114780052Y-69586402D01*
X114780046Y-69586403D01*
X114780040Y-69586405D01*
X114593610Y-69644115D01*
X114560013Y-69658238D01*
X114526240Y-69671883D01*
X114521284Y-69674518D01*
X114349607Y-69767343D01*
X114319395Y-69787721D01*
X114288911Y-69807669D01*
X114284562Y-69811216D01*
X114134184Y-69935620D01*
X114108514Y-69961470D01*
X114082479Y-69986965D01*
X114078901Y-69991290D01*
X113955551Y-70142532D01*
X113935365Y-70172914D01*
X113914804Y-70202943D01*
X113912134Y-70207880D01*
X113820509Y-70380203D01*
X113806630Y-70413877D01*
X113792271Y-70447377D01*
X113790612Y-70452739D01*
X113734202Y-70639575D01*
X113727122Y-70675334D01*
X113719550Y-70710955D01*
X113718964Y-70716538D01*
X113699925Y-70910709D01*
X113698000Y-70930254D01*
X106402000Y-70930254D01*
X106402000Y-44146468D01*
X106883137Y-44146468D01*
X107141298Y-44549073D01*
X107660715Y-44824651D01*
X108223913Y-44993601D01*
X108809250Y-45049430D01*
X109394233Y-44989992D01*
X109956379Y-44817571D01*
X110458702Y-44549073D01*
X110716863Y-44146468D01*
X130233137Y-44146468D01*
X130491298Y-44549073D01*
X131010715Y-44824651D01*
X131573913Y-44993601D01*
X132159250Y-45049430D01*
X132744233Y-44989992D01*
X133306379Y-44817571D01*
X133808702Y-44549073D01*
X134066863Y-44146468D01*
X132150000Y-42229605D01*
X130233137Y-44146468D01*
X110716863Y-44146468D01*
X108800000Y-42229605D01*
X106883137Y-44146468D01*
X106402000Y-44146468D01*
X106402000Y-43773513D01*
X106703532Y-43966863D01*
X108620395Y-42050000D01*
X108979605Y-42050000D01*
X110896468Y-43966863D01*
X111299073Y-43708702D01*
X111574651Y-43189285D01*
X111743601Y-42626087D01*
X111797665Y-42059250D01*
X129150570Y-42059250D01*
X129210008Y-42644233D01*
X129382429Y-43206379D01*
X129650927Y-43708702D01*
X130053532Y-43966863D01*
X131970395Y-42050000D01*
X130053532Y-40133137D01*
X129650927Y-40391298D01*
X129375349Y-40910715D01*
X129206399Y-41473913D01*
X129150570Y-42059250D01*
X111797665Y-42059250D01*
X111799430Y-42040750D01*
X111739992Y-41455767D01*
X111567571Y-40893621D01*
X111299073Y-40391298D01*
X110896468Y-40133137D01*
X108979605Y-42050000D01*
X108620395Y-42050000D01*
X108606253Y-42035858D01*
X108785858Y-41856253D01*
X108800000Y-41870395D01*
X110716863Y-39953532D01*
X110458702Y-39550927D01*
X109989518Y-39302000D01*
X130957006Y-39302000D01*
X130491298Y-39550927D01*
G37*
G04 #@! TD.AperFunction*
M02*
