G04 #@! TF.GenerationSoftware,KiCad,Pcbnew,7.0.6*
G04 #@! TF.CreationDate,2023-09-16T08:01:29+12:00*
G04 #@! TF.ProjectId,covers,636f7665-7273-42e6-9b69-6361645f7063,rev?*
G04 #@! TF.SameCoordinates,Original*
G04 #@! TF.FileFunction,Legend,Top*
G04 #@! TF.FilePolarity,Positive*
%FSLAX46Y46*%
G04 Gerber Fmt 4.6, Leading zero omitted, Abs format (unit mm)*
G04 Created by KiCad (PCBNEW 7.0.6) date 2023-09-16 08:01:29*
%MOMM*%
%LPD*%
G01*
G04 APERTURE LIST*
%ADD10C,0.150000*%
%ADD11C,0.010000*%
G04 APERTURE END LIST*
D10*
X115441800Y-120857142D02*
X115413228Y-120914285D01*
X115413228Y-120914285D02*
X115413228Y-121028571D01*
X115413228Y-121028571D02*
X115441800Y-121085714D01*
X115441800Y-121085714D02*
X115498942Y-121114285D01*
X115498942Y-121114285D02*
X115527514Y-121114285D01*
X115527514Y-121114285D02*
X115584657Y-121085714D01*
X115584657Y-121085714D02*
X115613228Y-121028571D01*
X115613228Y-121028571D02*
X115613228Y-120942857D01*
X115613228Y-120942857D02*
X115641800Y-120885714D01*
X115641800Y-120885714D02*
X115698942Y-120857142D01*
X115698942Y-120857142D02*
X115727514Y-120857142D01*
X115727514Y-120857142D02*
X115784657Y-120885714D01*
X115784657Y-120885714D02*
X115813228Y-120942857D01*
X115813228Y-120942857D02*
X115813228Y-121028571D01*
X115813228Y-121028571D02*
X115784657Y-121085714D01*
X115641800Y-121371428D02*
X115641800Y-121828571D01*
X115813228Y-122057142D02*
X115413228Y-122199999D01*
X115413228Y-122199999D02*
X115813228Y-122342856D01*
X115413228Y-122571428D02*
X115813228Y-122571428D01*
X116013228Y-122571428D02*
X115984657Y-122542856D01*
X115984657Y-122542856D02*
X115956085Y-122571428D01*
X115956085Y-122571428D02*
X115984657Y-122599999D01*
X115984657Y-122599999D02*
X116013228Y-122571428D01*
X116013228Y-122571428D02*
X115956085Y-122571428D01*
X115413228Y-123114285D02*
X116013228Y-123114285D01*
X115441800Y-123114285D02*
X115413228Y-123057142D01*
X115413228Y-123057142D02*
X115413228Y-122942856D01*
X115413228Y-122942856D02*
X115441800Y-122885713D01*
X115441800Y-122885713D02*
X115470371Y-122857142D01*
X115470371Y-122857142D02*
X115527514Y-122828570D01*
X115527514Y-122828570D02*
X115698942Y-122828570D01*
X115698942Y-122828570D02*
X115756085Y-122857142D01*
X115756085Y-122857142D02*
X115784657Y-122885713D01*
X115784657Y-122885713D02*
X115813228Y-122942856D01*
X115813228Y-122942856D02*
X115813228Y-123057142D01*
X115813228Y-123057142D02*
X115784657Y-123114285D01*
X115813228Y-123857142D02*
X115213228Y-123857142D01*
X115784657Y-123857142D02*
X115813228Y-123914285D01*
X115813228Y-123914285D02*
X115813228Y-124028570D01*
X115813228Y-124028570D02*
X115784657Y-124085713D01*
X115784657Y-124085713D02*
X115756085Y-124114285D01*
X115756085Y-124114285D02*
X115698942Y-124142856D01*
X115698942Y-124142856D02*
X115527514Y-124142856D01*
X115527514Y-124142856D02*
X115470371Y-124114285D01*
X115470371Y-124114285D02*
X115441800Y-124085713D01*
X115441800Y-124085713D02*
X115413228Y-124028570D01*
X115413228Y-124028570D02*
X115413228Y-123914285D01*
X115413228Y-123914285D02*
X115441800Y-123857142D01*
X115413228Y-124657142D02*
X115727514Y-124657142D01*
X115727514Y-124657142D02*
X115784657Y-124628570D01*
X115784657Y-124628570D02*
X115813228Y-124571427D01*
X115813228Y-124571427D02*
X115813228Y-124457142D01*
X115813228Y-124457142D02*
X115784657Y-124399999D01*
X115441800Y-124657142D02*
X115413228Y-124599999D01*
X115413228Y-124599999D02*
X115413228Y-124457142D01*
X115413228Y-124457142D02*
X115441800Y-124399999D01*
X115441800Y-124399999D02*
X115498942Y-124371427D01*
X115498942Y-124371427D02*
X115556085Y-124371427D01*
X115556085Y-124371427D02*
X115613228Y-124399999D01*
X115613228Y-124399999D02*
X115641800Y-124457142D01*
X115641800Y-124457142D02*
X115641800Y-124599999D01*
X115641800Y-124599999D02*
X115670371Y-124657142D01*
X115813228Y-124942856D02*
X115413228Y-124942856D01*
X115756085Y-124942856D02*
X115784657Y-124971427D01*
X115784657Y-124971427D02*
X115813228Y-125028570D01*
X115813228Y-125028570D02*
X115813228Y-125114284D01*
X115813228Y-125114284D02*
X115784657Y-125171427D01*
X115784657Y-125171427D02*
X115727514Y-125199999D01*
X115727514Y-125199999D02*
X115413228Y-125199999D01*
X115441800Y-125714284D02*
X115413228Y-125657141D01*
X115413228Y-125657141D02*
X115413228Y-125542856D01*
X115413228Y-125542856D02*
X115441800Y-125485713D01*
X115441800Y-125485713D02*
X115498942Y-125457141D01*
X115498942Y-125457141D02*
X115727514Y-125457141D01*
X115727514Y-125457141D02*
X115784657Y-125485713D01*
X115784657Y-125485713D02*
X115813228Y-125542856D01*
X115813228Y-125542856D02*
X115813228Y-125657141D01*
X115813228Y-125657141D02*
X115784657Y-125714284D01*
X115784657Y-125714284D02*
X115727514Y-125742856D01*
X115727514Y-125742856D02*
X115670371Y-125742856D01*
X115670371Y-125742856D02*
X115613228Y-125457141D01*
X115413228Y-126085713D02*
X115441800Y-126028570D01*
X115441800Y-126028570D02*
X115498942Y-125999999D01*
X115498942Y-125999999D02*
X116013228Y-125999999D01*
X115413228Y-126771428D02*
X115813228Y-126771428D01*
X115698942Y-126771428D02*
X115756085Y-126799999D01*
X115756085Y-126799999D02*
X115784657Y-126828571D01*
X115784657Y-126828571D02*
X115813228Y-126885713D01*
X115813228Y-126885713D02*
X115813228Y-126942856D01*
X115441800Y-127371428D02*
X115413228Y-127314285D01*
X115413228Y-127314285D02*
X115413228Y-127200000D01*
X115413228Y-127200000D02*
X115441800Y-127142857D01*
X115441800Y-127142857D02*
X115498942Y-127114285D01*
X115498942Y-127114285D02*
X115727514Y-127114285D01*
X115727514Y-127114285D02*
X115784657Y-127142857D01*
X115784657Y-127142857D02*
X115813228Y-127200000D01*
X115813228Y-127200000D02*
X115813228Y-127314285D01*
X115813228Y-127314285D02*
X115784657Y-127371428D01*
X115784657Y-127371428D02*
X115727514Y-127400000D01*
X115727514Y-127400000D02*
X115670371Y-127400000D01*
X115670371Y-127400000D02*
X115613228Y-127114285D01*
X115813228Y-127600000D02*
X115413228Y-127742857D01*
X115413228Y-127742857D02*
X115813228Y-127885714D01*
X115413228Y-128885714D02*
X115413228Y-128542857D01*
X115413228Y-128714286D02*
X116013228Y-128714286D01*
X116013228Y-128714286D02*
X115927514Y-128657143D01*
X115927514Y-128657143D02*
X115870371Y-128600000D01*
X115870371Y-128600000D02*
X115841800Y-128542857D01*
X115470371Y-129142858D02*
X115441800Y-129171429D01*
X115441800Y-129171429D02*
X115413228Y-129142858D01*
X115413228Y-129142858D02*
X115441800Y-129114286D01*
X115441800Y-129114286D02*
X115470371Y-129142858D01*
X115470371Y-129142858D02*
X115413228Y-129142858D01*
X116013228Y-129542857D02*
X116013228Y-129600000D01*
X116013228Y-129600000D02*
X115984657Y-129657143D01*
X115984657Y-129657143D02*
X115956085Y-129685715D01*
X115956085Y-129685715D02*
X115898942Y-129714286D01*
X115898942Y-129714286D02*
X115784657Y-129742857D01*
X115784657Y-129742857D02*
X115641800Y-129742857D01*
X115641800Y-129742857D02*
X115527514Y-129714286D01*
X115527514Y-129714286D02*
X115470371Y-129685715D01*
X115470371Y-129685715D02*
X115441800Y-129657143D01*
X115441800Y-129657143D02*
X115413228Y-129600000D01*
X115413228Y-129600000D02*
X115413228Y-129542857D01*
X115413228Y-129542857D02*
X115441800Y-129485715D01*
X115441800Y-129485715D02*
X115470371Y-129457143D01*
X115470371Y-129457143D02*
X115527514Y-129428572D01*
X115527514Y-129428572D02*
X115641800Y-129400000D01*
X115641800Y-129400000D02*
X115784657Y-129400000D01*
X115784657Y-129400000D02*
X115898942Y-129428572D01*
X115898942Y-129428572D02*
X115956085Y-129457143D01*
X115956085Y-129457143D02*
X115984657Y-129485715D01*
X115984657Y-129485715D02*
X116013228Y-129542857D01*
X114847228Y-121500001D02*
X114447228Y-121614287D01*
X114447228Y-121614287D02*
X114732942Y-121728572D01*
X114732942Y-121728572D02*
X114447228Y-121842858D01*
X114447228Y-121842858D02*
X114847228Y-121957144D01*
X114447228Y-122442858D02*
X114761514Y-122442858D01*
X114761514Y-122442858D02*
X114818657Y-122414286D01*
X114818657Y-122414286D02*
X114847228Y-122357143D01*
X114847228Y-122357143D02*
X114847228Y-122242858D01*
X114847228Y-122242858D02*
X114818657Y-122185715D01*
X114475800Y-122442858D02*
X114447228Y-122385715D01*
X114447228Y-122385715D02*
X114447228Y-122242858D01*
X114447228Y-122242858D02*
X114475800Y-122185715D01*
X114475800Y-122185715D02*
X114532942Y-122157143D01*
X114532942Y-122157143D02*
X114590085Y-122157143D01*
X114590085Y-122157143D02*
X114647228Y-122185715D01*
X114647228Y-122185715D02*
X114675800Y-122242858D01*
X114675800Y-122242858D02*
X114675800Y-122385715D01*
X114675800Y-122385715D02*
X114704371Y-122442858D01*
X114447228Y-122728572D02*
X115047228Y-122728572D01*
X114675800Y-122785715D02*
X114447228Y-122957143D01*
X114847228Y-122957143D02*
X114618657Y-122728572D01*
X114447228Y-123471429D02*
X114761514Y-123471429D01*
X114761514Y-123471429D02*
X114818657Y-123442857D01*
X114818657Y-123442857D02*
X114847228Y-123385714D01*
X114847228Y-123385714D02*
X114847228Y-123271429D01*
X114847228Y-123271429D02*
X114818657Y-123214286D01*
X114475800Y-123471429D02*
X114447228Y-123414286D01*
X114447228Y-123414286D02*
X114447228Y-123271429D01*
X114447228Y-123271429D02*
X114475800Y-123214286D01*
X114475800Y-123214286D02*
X114532942Y-123185714D01*
X114532942Y-123185714D02*
X114590085Y-123185714D01*
X114590085Y-123185714D02*
X114647228Y-123214286D01*
X114647228Y-123214286D02*
X114675800Y-123271429D01*
X114675800Y-123271429D02*
X114675800Y-123414286D01*
X114675800Y-123414286D02*
X114704371Y-123471429D01*
X114447228Y-123757143D02*
X115047228Y-123757143D01*
X114818657Y-123757143D02*
X114847228Y-123814286D01*
X114847228Y-123814286D02*
X114847228Y-123928571D01*
X114847228Y-123928571D02*
X114818657Y-123985714D01*
X114818657Y-123985714D02*
X114790085Y-124014286D01*
X114790085Y-124014286D02*
X114732942Y-124042857D01*
X114732942Y-124042857D02*
X114561514Y-124042857D01*
X114561514Y-124042857D02*
X114504371Y-124014286D01*
X114504371Y-124014286D02*
X114475800Y-123985714D01*
X114475800Y-123985714D02*
X114447228Y-123928571D01*
X114447228Y-123928571D02*
X114447228Y-123814286D01*
X114447228Y-123814286D02*
X114475800Y-123757143D01*
X114447228Y-124557143D02*
X114761514Y-124557143D01*
X114761514Y-124557143D02*
X114818657Y-124528571D01*
X114818657Y-124528571D02*
X114847228Y-124471428D01*
X114847228Y-124471428D02*
X114847228Y-124357143D01*
X114847228Y-124357143D02*
X114818657Y-124300000D01*
X114475800Y-124557143D02*
X114447228Y-124500000D01*
X114447228Y-124500000D02*
X114447228Y-124357143D01*
X114447228Y-124357143D02*
X114475800Y-124300000D01*
X114475800Y-124300000D02*
X114532942Y-124271428D01*
X114532942Y-124271428D02*
X114590085Y-124271428D01*
X114590085Y-124271428D02*
X114647228Y-124300000D01*
X114647228Y-124300000D02*
X114675800Y-124357143D01*
X114675800Y-124357143D02*
X114675800Y-124500000D01*
X114675800Y-124500000D02*
X114704371Y-124557143D01*
X114847228Y-124785714D02*
X114447228Y-124928571D01*
X114447228Y-124928571D02*
X114847228Y-125071428D01*
X114447228Y-125300000D02*
X114847228Y-125300000D01*
X115047228Y-125300000D02*
X115018657Y-125271428D01*
X115018657Y-125271428D02*
X114990085Y-125300000D01*
X114990085Y-125300000D02*
X115018657Y-125328571D01*
X115018657Y-125328571D02*
X115047228Y-125300000D01*
X115047228Y-125300000D02*
X114990085Y-125300000D01*
X114447228Y-125842857D02*
X115047228Y-125842857D01*
X114475800Y-125842857D02*
X114447228Y-125785714D01*
X114447228Y-125785714D02*
X114447228Y-125671428D01*
X114447228Y-125671428D02*
X114475800Y-125614285D01*
X114475800Y-125614285D02*
X114504371Y-125585714D01*
X114504371Y-125585714D02*
X114561514Y-125557142D01*
X114561514Y-125557142D02*
X114732942Y-125557142D01*
X114732942Y-125557142D02*
X114790085Y-125585714D01*
X114790085Y-125585714D02*
X114818657Y-125614285D01*
X114818657Y-125614285D02*
X114847228Y-125671428D01*
X114847228Y-125671428D02*
X114847228Y-125785714D01*
X114847228Y-125785714D02*
X114818657Y-125842857D01*
X114475800Y-126357142D02*
X114447228Y-126299999D01*
X114447228Y-126299999D02*
X114447228Y-126185714D01*
X114447228Y-126185714D02*
X114475800Y-126128571D01*
X114475800Y-126128571D02*
X114532942Y-126099999D01*
X114532942Y-126099999D02*
X114761514Y-126099999D01*
X114761514Y-126099999D02*
X114818657Y-126128571D01*
X114818657Y-126128571D02*
X114847228Y-126185714D01*
X114847228Y-126185714D02*
X114847228Y-126299999D01*
X114847228Y-126299999D02*
X114818657Y-126357142D01*
X114818657Y-126357142D02*
X114761514Y-126385714D01*
X114761514Y-126385714D02*
X114704371Y-126385714D01*
X114704371Y-126385714D02*
X114647228Y-126099999D01*
X114447228Y-126728571D02*
X114475800Y-126671428D01*
X114475800Y-126671428D02*
X114504371Y-126642857D01*
X114504371Y-126642857D02*
X114561514Y-126614285D01*
X114561514Y-126614285D02*
X114732942Y-126614285D01*
X114732942Y-126614285D02*
X114790085Y-126642857D01*
X114790085Y-126642857D02*
X114818657Y-126671428D01*
X114818657Y-126671428D02*
X114847228Y-126728571D01*
X114847228Y-126728571D02*
X114847228Y-126814285D01*
X114847228Y-126814285D02*
X114818657Y-126871428D01*
X114818657Y-126871428D02*
X114790085Y-126900000D01*
X114790085Y-126900000D02*
X114732942Y-126928571D01*
X114732942Y-126928571D02*
X114561514Y-126928571D01*
X114561514Y-126928571D02*
X114504371Y-126900000D01*
X114504371Y-126900000D02*
X114475800Y-126871428D01*
X114475800Y-126871428D02*
X114447228Y-126814285D01*
X114447228Y-126814285D02*
X114447228Y-126728571D01*
X114504371Y-127185714D02*
X114475800Y-127214285D01*
X114475800Y-127214285D02*
X114447228Y-127185714D01*
X114447228Y-127185714D02*
X114475800Y-127157142D01*
X114475800Y-127157142D02*
X114504371Y-127185714D01*
X114504371Y-127185714D02*
X114447228Y-127185714D01*
X114475800Y-127728571D02*
X114447228Y-127671428D01*
X114447228Y-127671428D02*
X114447228Y-127557142D01*
X114447228Y-127557142D02*
X114475800Y-127499999D01*
X114475800Y-127499999D02*
X114504371Y-127471428D01*
X114504371Y-127471428D02*
X114561514Y-127442856D01*
X114561514Y-127442856D02*
X114732942Y-127442856D01*
X114732942Y-127442856D02*
X114790085Y-127471428D01*
X114790085Y-127471428D02*
X114818657Y-127499999D01*
X114818657Y-127499999D02*
X114847228Y-127557142D01*
X114847228Y-127557142D02*
X114847228Y-127671428D01*
X114847228Y-127671428D02*
X114818657Y-127728571D01*
X114447228Y-128071428D02*
X114475800Y-128014285D01*
X114475800Y-128014285D02*
X114504371Y-127985714D01*
X114504371Y-127985714D02*
X114561514Y-127957142D01*
X114561514Y-127957142D02*
X114732942Y-127957142D01*
X114732942Y-127957142D02*
X114790085Y-127985714D01*
X114790085Y-127985714D02*
X114818657Y-128014285D01*
X114818657Y-128014285D02*
X114847228Y-128071428D01*
X114847228Y-128071428D02*
X114847228Y-128157142D01*
X114847228Y-128157142D02*
X114818657Y-128214285D01*
X114818657Y-128214285D02*
X114790085Y-128242857D01*
X114790085Y-128242857D02*
X114732942Y-128271428D01*
X114732942Y-128271428D02*
X114561514Y-128271428D01*
X114561514Y-128271428D02*
X114504371Y-128242857D01*
X114504371Y-128242857D02*
X114475800Y-128214285D01*
X114475800Y-128214285D02*
X114447228Y-128157142D01*
X114447228Y-128157142D02*
X114447228Y-128071428D01*
X114447228Y-128528571D02*
X114847228Y-128528571D01*
X114790085Y-128528571D02*
X114818657Y-128557142D01*
X114818657Y-128557142D02*
X114847228Y-128614285D01*
X114847228Y-128614285D02*
X114847228Y-128699999D01*
X114847228Y-128699999D02*
X114818657Y-128757142D01*
X114818657Y-128757142D02*
X114761514Y-128785714D01*
X114761514Y-128785714D02*
X114447228Y-128785714D01*
X114761514Y-128785714D02*
X114818657Y-128814285D01*
X114818657Y-128814285D02*
X114847228Y-128871428D01*
X114847228Y-128871428D02*
X114847228Y-128957142D01*
X114847228Y-128957142D02*
X114818657Y-129014285D01*
X114818657Y-129014285D02*
X114761514Y-129042856D01*
X114761514Y-129042856D02*
X114447228Y-129042856D01*
X115441800Y-45607142D02*
X115413228Y-45664285D01*
X115413228Y-45664285D02*
X115413228Y-45778571D01*
X115413228Y-45778571D02*
X115441800Y-45835714D01*
X115441800Y-45835714D02*
X115498942Y-45864285D01*
X115498942Y-45864285D02*
X115527514Y-45864285D01*
X115527514Y-45864285D02*
X115584657Y-45835714D01*
X115584657Y-45835714D02*
X115613228Y-45778571D01*
X115613228Y-45778571D02*
X115613228Y-45692857D01*
X115613228Y-45692857D02*
X115641800Y-45635714D01*
X115641800Y-45635714D02*
X115698942Y-45607142D01*
X115698942Y-45607142D02*
X115727514Y-45607142D01*
X115727514Y-45607142D02*
X115784657Y-45635714D01*
X115784657Y-45635714D02*
X115813228Y-45692857D01*
X115813228Y-45692857D02*
X115813228Y-45778571D01*
X115813228Y-45778571D02*
X115784657Y-45835714D01*
X115641800Y-46121428D02*
X115641800Y-46578571D01*
X115813228Y-46807142D02*
X115413228Y-46949999D01*
X115413228Y-46949999D02*
X115813228Y-47092856D01*
X115413228Y-47321428D02*
X115813228Y-47321428D01*
X116013228Y-47321428D02*
X115984657Y-47292856D01*
X115984657Y-47292856D02*
X115956085Y-47321428D01*
X115956085Y-47321428D02*
X115984657Y-47349999D01*
X115984657Y-47349999D02*
X116013228Y-47321428D01*
X116013228Y-47321428D02*
X115956085Y-47321428D01*
X115413228Y-47864285D02*
X116013228Y-47864285D01*
X115441800Y-47864285D02*
X115413228Y-47807142D01*
X115413228Y-47807142D02*
X115413228Y-47692856D01*
X115413228Y-47692856D02*
X115441800Y-47635713D01*
X115441800Y-47635713D02*
X115470371Y-47607142D01*
X115470371Y-47607142D02*
X115527514Y-47578570D01*
X115527514Y-47578570D02*
X115698942Y-47578570D01*
X115698942Y-47578570D02*
X115756085Y-47607142D01*
X115756085Y-47607142D02*
X115784657Y-47635713D01*
X115784657Y-47635713D02*
X115813228Y-47692856D01*
X115813228Y-47692856D02*
X115813228Y-47807142D01*
X115813228Y-47807142D02*
X115784657Y-47864285D01*
X115813228Y-48607142D02*
X115213228Y-48607142D01*
X115784657Y-48607142D02*
X115813228Y-48664285D01*
X115813228Y-48664285D02*
X115813228Y-48778570D01*
X115813228Y-48778570D02*
X115784657Y-48835713D01*
X115784657Y-48835713D02*
X115756085Y-48864285D01*
X115756085Y-48864285D02*
X115698942Y-48892856D01*
X115698942Y-48892856D02*
X115527514Y-48892856D01*
X115527514Y-48892856D02*
X115470371Y-48864285D01*
X115470371Y-48864285D02*
X115441800Y-48835713D01*
X115441800Y-48835713D02*
X115413228Y-48778570D01*
X115413228Y-48778570D02*
X115413228Y-48664285D01*
X115413228Y-48664285D02*
X115441800Y-48607142D01*
X115413228Y-49407142D02*
X115727514Y-49407142D01*
X115727514Y-49407142D02*
X115784657Y-49378570D01*
X115784657Y-49378570D02*
X115813228Y-49321427D01*
X115813228Y-49321427D02*
X115813228Y-49207142D01*
X115813228Y-49207142D02*
X115784657Y-49149999D01*
X115441800Y-49407142D02*
X115413228Y-49349999D01*
X115413228Y-49349999D02*
X115413228Y-49207142D01*
X115413228Y-49207142D02*
X115441800Y-49149999D01*
X115441800Y-49149999D02*
X115498942Y-49121427D01*
X115498942Y-49121427D02*
X115556085Y-49121427D01*
X115556085Y-49121427D02*
X115613228Y-49149999D01*
X115613228Y-49149999D02*
X115641800Y-49207142D01*
X115641800Y-49207142D02*
X115641800Y-49349999D01*
X115641800Y-49349999D02*
X115670371Y-49407142D01*
X115813228Y-49692856D02*
X115413228Y-49692856D01*
X115756085Y-49692856D02*
X115784657Y-49721427D01*
X115784657Y-49721427D02*
X115813228Y-49778570D01*
X115813228Y-49778570D02*
X115813228Y-49864284D01*
X115813228Y-49864284D02*
X115784657Y-49921427D01*
X115784657Y-49921427D02*
X115727514Y-49949999D01*
X115727514Y-49949999D02*
X115413228Y-49949999D01*
X115441800Y-50464284D02*
X115413228Y-50407141D01*
X115413228Y-50407141D02*
X115413228Y-50292856D01*
X115413228Y-50292856D02*
X115441800Y-50235713D01*
X115441800Y-50235713D02*
X115498942Y-50207141D01*
X115498942Y-50207141D02*
X115727514Y-50207141D01*
X115727514Y-50207141D02*
X115784657Y-50235713D01*
X115784657Y-50235713D02*
X115813228Y-50292856D01*
X115813228Y-50292856D02*
X115813228Y-50407141D01*
X115813228Y-50407141D02*
X115784657Y-50464284D01*
X115784657Y-50464284D02*
X115727514Y-50492856D01*
X115727514Y-50492856D02*
X115670371Y-50492856D01*
X115670371Y-50492856D02*
X115613228Y-50207141D01*
X115413228Y-50835713D02*
X115441800Y-50778570D01*
X115441800Y-50778570D02*
X115498942Y-50749999D01*
X115498942Y-50749999D02*
X116013228Y-50749999D01*
X115413228Y-51521428D02*
X115813228Y-51521428D01*
X115698942Y-51521428D02*
X115756085Y-51549999D01*
X115756085Y-51549999D02*
X115784657Y-51578571D01*
X115784657Y-51578571D02*
X115813228Y-51635713D01*
X115813228Y-51635713D02*
X115813228Y-51692856D01*
X115441800Y-52121428D02*
X115413228Y-52064285D01*
X115413228Y-52064285D02*
X115413228Y-51950000D01*
X115413228Y-51950000D02*
X115441800Y-51892857D01*
X115441800Y-51892857D02*
X115498942Y-51864285D01*
X115498942Y-51864285D02*
X115727514Y-51864285D01*
X115727514Y-51864285D02*
X115784657Y-51892857D01*
X115784657Y-51892857D02*
X115813228Y-51950000D01*
X115813228Y-51950000D02*
X115813228Y-52064285D01*
X115813228Y-52064285D02*
X115784657Y-52121428D01*
X115784657Y-52121428D02*
X115727514Y-52150000D01*
X115727514Y-52150000D02*
X115670371Y-52150000D01*
X115670371Y-52150000D02*
X115613228Y-51864285D01*
X115813228Y-52350000D02*
X115413228Y-52492857D01*
X115413228Y-52492857D02*
X115813228Y-52635714D01*
X115413228Y-53635714D02*
X115413228Y-53292857D01*
X115413228Y-53464286D02*
X116013228Y-53464286D01*
X116013228Y-53464286D02*
X115927514Y-53407143D01*
X115927514Y-53407143D02*
X115870371Y-53350000D01*
X115870371Y-53350000D02*
X115841800Y-53292857D01*
X115470371Y-53892858D02*
X115441800Y-53921429D01*
X115441800Y-53921429D02*
X115413228Y-53892858D01*
X115413228Y-53892858D02*
X115441800Y-53864286D01*
X115441800Y-53864286D02*
X115470371Y-53892858D01*
X115470371Y-53892858D02*
X115413228Y-53892858D01*
X116013228Y-54292857D02*
X116013228Y-54350000D01*
X116013228Y-54350000D02*
X115984657Y-54407143D01*
X115984657Y-54407143D02*
X115956085Y-54435715D01*
X115956085Y-54435715D02*
X115898942Y-54464286D01*
X115898942Y-54464286D02*
X115784657Y-54492857D01*
X115784657Y-54492857D02*
X115641800Y-54492857D01*
X115641800Y-54492857D02*
X115527514Y-54464286D01*
X115527514Y-54464286D02*
X115470371Y-54435715D01*
X115470371Y-54435715D02*
X115441800Y-54407143D01*
X115441800Y-54407143D02*
X115413228Y-54350000D01*
X115413228Y-54350000D02*
X115413228Y-54292857D01*
X115413228Y-54292857D02*
X115441800Y-54235715D01*
X115441800Y-54235715D02*
X115470371Y-54207143D01*
X115470371Y-54207143D02*
X115527514Y-54178572D01*
X115527514Y-54178572D02*
X115641800Y-54150000D01*
X115641800Y-54150000D02*
X115784657Y-54150000D01*
X115784657Y-54150000D02*
X115898942Y-54178572D01*
X115898942Y-54178572D02*
X115956085Y-54207143D01*
X115956085Y-54207143D02*
X115984657Y-54235715D01*
X115984657Y-54235715D02*
X116013228Y-54292857D01*
X114847228Y-46250001D02*
X114447228Y-46364287D01*
X114447228Y-46364287D02*
X114732942Y-46478572D01*
X114732942Y-46478572D02*
X114447228Y-46592858D01*
X114447228Y-46592858D02*
X114847228Y-46707144D01*
X114447228Y-47192858D02*
X114761514Y-47192858D01*
X114761514Y-47192858D02*
X114818657Y-47164286D01*
X114818657Y-47164286D02*
X114847228Y-47107143D01*
X114847228Y-47107143D02*
X114847228Y-46992858D01*
X114847228Y-46992858D02*
X114818657Y-46935715D01*
X114475800Y-47192858D02*
X114447228Y-47135715D01*
X114447228Y-47135715D02*
X114447228Y-46992858D01*
X114447228Y-46992858D02*
X114475800Y-46935715D01*
X114475800Y-46935715D02*
X114532942Y-46907143D01*
X114532942Y-46907143D02*
X114590085Y-46907143D01*
X114590085Y-46907143D02*
X114647228Y-46935715D01*
X114647228Y-46935715D02*
X114675800Y-46992858D01*
X114675800Y-46992858D02*
X114675800Y-47135715D01*
X114675800Y-47135715D02*
X114704371Y-47192858D01*
X114447228Y-47478572D02*
X115047228Y-47478572D01*
X114675800Y-47535715D02*
X114447228Y-47707143D01*
X114847228Y-47707143D02*
X114618657Y-47478572D01*
X114447228Y-48221429D02*
X114761514Y-48221429D01*
X114761514Y-48221429D02*
X114818657Y-48192857D01*
X114818657Y-48192857D02*
X114847228Y-48135714D01*
X114847228Y-48135714D02*
X114847228Y-48021429D01*
X114847228Y-48021429D02*
X114818657Y-47964286D01*
X114475800Y-48221429D02*
X114447228Y-48164286D01*
X114447228Y-48164286D02*
X114447228Y-48021429D01*
X114447228Y-48021429D02*
X114475800Y-47964286D01*
X114475800Y-47964286D02*
X114532942Y-47935714D01*
X114532942Y-47935714D02*
X114590085Y-47935714D01*
X114590085Y-47935714D02*
X114647228Y-47964286D01*
X114647228Y-47964286D02*
X114675800Y-48021429D01*
X114675800Y-48021429D02*
X114675800Y-48164286D01*
X114675800Y-48164286D02*
X114704371Y-48221429D01*
X114447228Y-48507143D02*
X115047228Y-48507143D01*
X114818657Y-48507143D02*
X114847228Y-48564286D01*
X114847228Y-48564286D02*
X114847228Y-48678571D01*
X114847228Y-48678571D02*
X114818657Y-48735714D01*
X114818657Y-48735714D02*
X114790085Y-48764286D01*
X114790085Y-48764286D02*
X114732942Y-48792857D01*
X114732942Y-48792857D02*
X114561514Y-48792857D01*
X114561514Y-48792857D02*
X114504371Y-48764286D01*
X114504371Y-48764286D02*
X114475800Y-48735714D01*
X114475800Y-48735714D02*
X114447228Y-48678571D01*
X114447228Y-48678571D02*
X114447228Y-48564286D01*
X114447228Y-48564286D02*
X114475800Y-48507143D01*
X114447228Y-49307143D02*
X114761514Y-49307143D01*
X114761514Y-49307143D02*
X114818657Y-49278571D01*
X114818657Y-49278571D02*
X114847228Y-49221428D01*
X114847228Y-49221428D02*
X114847228Y-49107143D01*
X114847228Y-49107143D02*
X114818657Y-49050000D01*
X114475800Y-49307143D02*
X114447228Y-49250000D01*
X114447228Y-49250000D02*
X114447228Y-49107143D01*
X114447228Y-49107143D02*
X114475800Y-49050000D01*
X114475800Y-49050000D02*
X114532942Y-49021428D01*
X114532942Y-49021428D02*
X114590085Y-49021428D01*
X114590085Y-49021428D02*
X114647228Y-49050000D01*
X114647228Y-49050000D02*
X114675800Y-49107143D01*
X114675800Y-49107143D02*
X114675800Y-49250000D01*
X114675800Y-49250000D02*
X114704371Y-49307143D01*
X114847228Y-49535714D02*
X114447228Y-49678571D01*
X114447228Y-49678571D02*
X114847228Y-49821428D01*
X114447228Y-50050000D02*
X114847228Y-50050000D01*
X115047228Y-50050000D02*
X115018657Y-50021428D01*
X115018657Y-50021428D02*
X114990085Y-50050000D01*
X114990085Y-50050000D02*
X115018657Y-50078571D01*
X115018657Y-50078571D02*
X115047228Y-50050000D01*
X115047228Y-50050000D02*
X114990085Y-50050000D01*
X114447228Y-50592857D02*
X115047228Y-50592857D01*
X114475800Y-50592857D02*
X114447228Y-50535714D01*
X114447228Y-50535714D02*
X114447228Y-50421428D01*
X114447228Y-50421428D02*
X114475800Y-50364285D01*
X114475800Y-50364285D02*
X114504371Y-50335714D01*
X114504371Y-50335714D02*
X114561514Y-50307142D01*
X114561514Y-50307142D02*
X114732942Y-50307142D01*
X114732942Y-50307142D02*
X114790085Y-50335714D01*
X114790085Y-50335714D02*
X114818657Y-50364285D01*
X114818657Y-50364285D02*
X114847228Y-50421428D01*
X114847228Y-50421428D02*
X114847228Y-50535714D01*
X114847228Y-50535714D02*
X114818657Y-50592857D01*
X114475800Y-51107142D02*
X114447228Y-51049999D01*
X114447228Y-51049999D02*
X114447228Y-50935714D01*
X114447228Y-50935714D02*
X114475800Y-50878571D01*
X114475800Y-50878571D02*
X114532942Y-50849999D01*
X114532942Y-50849999D02*
X114761514Y-50849999D01*
X114761514Y-50849999D02*
X114818657Y-50878571D01*
X114818657Y-50878571D02*
X114847228Y-50935714D01*
X114847228Y-50935714D02*
X114847228Y-51049999D01*
X114847228Y-51049999D02*
X114818657Y-51107142D01*
X114818657Y-51107142D02*
X114761514Y-51135714D01*
X114761514Y-51135714D02*
X114704371Y-51135714D01*
X114704371Y-51135714D02*
X114647228Y-50849999D01*
X114447228Y-51478571D02*
X114475800Y-51421428D01*
X114475800Y-51421428D02*
X114504371Y-51392857D01*
X114504371Y-51392857D02*
X114561514Y-51364285D01*
X114561514Y-51364285D02*
X114732942Y-51364285D01*
X114732942Y-51364285D02*
X114790085Y-51392857D01*
X114790085Y-51392857D02*
X114818657Y-51421428D01*
X114818657Y-51421428D02*
X114847228Y-51478571D01*
X114847228Y-51478571D02*
X114847228Y-51564285D01*
X114847228Y-51564285D02*
X114818657Y-51621428D01*
X114818657Y-51621428D02*
X114790085Y-51650000D01*
X114790085Y-51650000D02*
X114732942Y-51678571D01*
X114732942Y-51678571D02*
X114561514Y-51678571D01*
X114561514Y-51678571D02*
X114504371Y-51650000D01*
X114504371Y-51650000D02*
X114475800Y-51621428D01*
X114475800Y-51621428D02*
X114447228Y-51564285D01*
X114447228Y-51564285D02*
X114447228Y-51478571D01*
X114504371Y-51935714D02*
X114475800Y-51964285D01*
X114475800Y-51964285D02*
X114447228Y-51935714D01*
X114447228Y-51935714D02*
X114475800Y-51907142D01*
X114475800Y-51907142D02*
X114504371Y-51935714D01*
X114504371Y-51935714D02*
X114447228Y-51935714D01*
X114475800Y-52478571D02*
X114447228Y-52421428D01*
X114447228Y-52421428D02*
X114447228Y-52307142D01*
X114447228Y-52307142D02*
X114475800Y-52249999D01*
X114475800Y-52249999D02*
X114504371Y-52221428D01*
X114504371Y-52221428D02*
X114561514Y-52192856D01*
X114561514Y-52192856D02*
X114732942Y-52192856D01*
X114732942Y-52192856D02*
X114790085Y-52221428D01*
X114790085Y-52221428D02*
X114818657Y-52249999D01*
X114818657Y-52249999D02*
X114847228Y-52307142D01*
X114847228Y-52307142D02*
X114847228Y-52421428D01*
X114847228Y-52421428D02*
X114818657Y-52478571D01*
X114447228Y-52821428D02*
X114475800Y-52764285D01*
X114475800Y-52764285D02*
X114504371Y-52735714D01*
X114504371Y-52735714D02*
X114561514Y-52707142D01*
X114561514Y-52707142D02*
X114732942Y-52707142D01*
X114732942Y-52707142D02*
X114790085Y-52735714D01*
X114790085Y-52735714D02*
X114818657Y-52764285D01*
X114818657Y-52764285D02*
X114847228Y-52821428D01*
X114847228Y-52821428D02*
X114847228Y-52907142D01*
X114847228Y-52907142D02*
X114818657Y-52964285D01*
X114818657Y-52964285D02*
X114790085Y-52992857D01*
X114790085Y-52992857D02*
X114732942Y-53021428D01*
X114732942Y-53021428D02*
X114561514Y-53021428D01*
X114561514Y-53021428D02*
X114504371Y-52992857D01*
X114504371Y-52992857D02*
X114475800Y-52964285D01*
X114475800Y-52964285D02*
X114447228Y-52907142D01*
X114447228Y-52907142D02*
X114447228Y-52821428D01*
X114447228Y-53278571D02*
X114847228Y-53278571D01*
X114790085Y-53278571D02*
X114818657Y-53307142D01*
X114818657Y-53307142D02*
X114847228Y-53364285D01*
X114847228Y-53364285D02*
X114847228Y-53449999D01*
X114847228Y-53449999D02*
X114818657Y-53507142D01*
X114818657Y-53507142D02*
X114761514Y-53535714D01*
X114761514Y-53535714D02*
X114447228Y-53535714D01*
X114761514Y-53535714D02*
X114818657Y-53564285D01*
X114818657Y-53564285D02*
X114847228Y-53621428D01*
X114847228Y-53621428D02*
X114847228Y-53707142D01*
X114847228Y-53707142D02*
X114818657Y-53764285D01*
X114818657Y-53764285D02*
X114761514Y-53792856D01*
X114761514Y-53792856D02*
X114447228Y-53792856D01*
D11*
X119589081Y-124441138D02*
X119685221Y-124525421D01*
X119693273Y-124632610D01*
X119618334Y-124681139D01*
X119531120Y-124615553D01*
X119504415Y-124544388D01*
X119525348Y-124440547D01*
X119589081Y-124441138D01*
G36*
X119589081Y-124441138D02*
G01*
X119685221Y-124525421D01*
X119693273Y-124632610D01*
X119618334Y-124681139D01*
X119531120Y-124615553D01*
X119504415Y-124544388D01*
X119525348Y-124440547D01*
X119589081Y-124441138D01*
G37*
X119576000Y-122736131D02*
X119773737Y-122837169D01*
X119828790Y-122887268D01*
X119775627Y-122898667D01*
X119651354Y-122850266D01*
X119528683Y-122766996D01*
X119424598Y-122679462D01*
X119453057Y-122679310D01*
X119576000Y-122736131D01*
G36*
X119576000Y-122736131D02*
G01*
X119773737Y-122837169D01*
X119828790Y-122887268D01*
X119775627Y-122898667D01*
X119651354Y-122850266D01*
X119528683Y-122766996D01*
X119424598Y-122679462D01*
X119453057Y-122679310D01*
X119576000Y-122736131D01*
G37*
X119418806Y-122858749D02*
X119491334Y-122898667D01*
X119559103Y-122965754D01*
X119533667Y-122980741D01*
X119394528Y-122938584D01*
X119322000Y-122898667D01*
X119254231Y-122831579D01*
X119279667Y-122816593D01*
X119418806Y-122858749D01*
G36*
X119418806Y-122858749D02*
G01*
X119491334Y-122898667D01*
X119559103Y-122965754D01*
X119533667Y-122980741D01*
X119394528Y-122938584D01*
X119322000Y-122898667D01*
X119254231Y-122831579D01*
X119279667Y-122816593D01*
X119418806Y-122858749D01*
G37*
X119731075Y-123870906D02*
X119745334Y-123905608D01*
X119677955Y-123998165D01*
X119618334Y-124029951D01*
X119509106Y-124016942D01*
X119491334Y-123954343D01*
X119559166Y-123844412D01*
X119618334Y-123830000D01*
X119731075Y-123870906D01*
G36*
X119731075Y-123870906D02*
G01*
X119745334Y-123905608D01*
X119677955Y-123998165D01*
X119618334Y-124029951D01*
X119509106Y-124016942D01*
X119491334Y-123954343D01*
X119559166Y-123844412D01*
X119618334Y-123830000D01*
X119731075Y-123870906D01*
G37*
X119491334Y-125565667D02*
X119572191Y-125645441D01*
X119576000Y-125660327D01*
X119521310Y-125666104D01*
X119491334Y-125650334D01*
X119410477Y-125570559D01*
X119406667Y-125555673D01*
X119461357Y-125549897D01*
X119491334Y-125565667D01*
G36*
X119491334Y-125565667D02*
G01*
X119572191Y-125645441D01*
X119576000Y-125660327D01*
X119521310Y-125666104D01*
X119491334Y-125650334D01*
X119410477Y-125570559D01*
X119406667Y-125555673D01*
X119461357Y-125549897D01*
X119491334Y-125565667D01*
G37*
X119588057Y-126167781D02*
X119757121Y-126290114D01*
X119872111Y-126397284D01*
X119857585Y-126410575D01*
X119787667Y-126377616D01*
X119556893Y-126247752D01*
X119439185Y-126155820D01*
X119454305Y-126117558D01*
X119460787Y-126117297D01*
X119588057Y-126167781D01*
G36*
X119588057Y-126167781D02*
G01*
X119757121Y-126290114D01*
X119872111Y-126397284D01*
X119857585Y-126410575D01*
X119787667Y-126377616D01*
X119556893Y-126247752D01*
X119439185Y-126155820D01*
X119454305Y-126117558D01*
X119460787Y-126117297D01*
X119588057Y-126167781D01*
G37*
X119494379Y-122181542D02*
X119660667Y-122263667D01*
X119784001Y-122347909D01*
X119790122Y-122384612D01*
X119787667Y-122384666D01*
X119657622Y-122345791D01*
X119491334Y-122263667D01*
X119368000Y-122179424D01*
X119361879Y-122142722D01*
X119364334Y-122142667D01*
X119494379Y-122181542D01*
G36*
X119494379Y-122181542D02*
G01*
X119660667Y-122263667D01*
X119784001Y-122347909D01*
X119790122Y-122384612D01*
X119787667Y-122384666D01*
X119657622Y-122345791D01*
X119491334Y-122263667D01*
X119368000Y-122179424D01*
X119361879Y-122142722D01*
X119364334Y-122142667D01*
X119494379Y-122181542D01*
G37*
X119533667Y-125851321D02*
X119724187Y-125960036D01*
X119883001Y-126075406D01*
X119970722Y-126165217D01*
X119957000Y-126197554D01*
X119843086Y-126148409D01*
X119666374Y-126023645D01*
X119618334Y-125984104D01*
X119499859Y-125871165D01*
X119495818Y-125836631D01*
X119533667Y-125851321D01*
G36*
X119533667Y-125851321D02*
G01*
X119724187Y-125960036D01*
X119883001Y-126075406D01*
X119970722Y-126165217D01*
X119957000Y-126197554D01*
X119843086Y-126148409D01*
X119666374Y-126023645D01*
X119618334Y-125984104D01*
X119499859Y-125871165D01*
X119495818Y-125836631D01*
X119533667Y-125851321D01*
G37*
X119498760Y-121766021D02*
X119662724Y-121895731D01*
X119694999Y-121925000D01*
X119848118Y-122074619D01*
X119868329Y-122126815D01*
X119748316Y-122090289D01*
X119606888Y-122029818D01*
X119442821Y-121927928D01*
X119343586Y-121814766D01*
X119336943Y-121731660D01*
X119394304Y-121713334D01*
X119498760Y-121766021D01*
G36*
X119498760Y-121766021D02*
G01*
X119662724Y-121895731D01*
X119694999Y-121925000D01*
X119848118Y-122074619D01*
X119868329Y-122126815D01*
X119748316Y-122090289D01*
X119606888Y-122029818D01*
X119442821Y-121927928D01*
X119343586Y-121814766D01*
X119336943Y-121731660D01*
X119394304Y-121713334D01*
X119498760Y-121766021D01*
G37*
X119513674Y-122435068D02*
X119575139Y-122460454D01*
X119781509Y-122560703D01*
X119901523Y-122645250D01*
X119913806Y-122667554D01*
X119847983Y-122672368D01*
X119680204Y-122610002D01*
X119576000Y-122560000D01*
X119338740Y-122429906D01*
X119249227Y-122361391D01*
X119307520Y-122360947D01*
X119513674Y-122435068D01*
G36*
X119513674Y-122435068D02*
G01*
X119575139Y-122460454D01*
X119781509Y-122560703D01*
X119901523Y-122645250D01*
X119913806Y-122667554D01*
X119847983Y-122672368D01*
X119680204Y-122610002D01*
X119576000Y-122560000D01*
X119338740Y-122429906D01*
X119249227Y-122361391D01*
X119307520Y-122360947D01*
X119513674Y-122435068D01*
G37*
X119551429Y-126482131D02*
X119618940Y-126538065D01*
X119848145Y-126730134D01*
X119960393Y-126831035D01*
X119970123Y-126856410D01*
X119891774Y-126821902D01*
X119871387Y-126811539D01*
X119689893Y-126681510D01*
X119533326Y-126526009D01*
X119434357Y-126406032D01*
X119436288Y-126390828D01*
X119551429Y-126482131D01*
G36*
X119551429Y-126482131D02*
G01*
X119618940Y-126538065D01*
X119848145Y-126730134D01*
X119960393Y-126831035D01*
X119970123Y-126856410D01*
X119891774Y-126821902D01*
X119871387Y-126811539D01*
X119689893Y-126681510D01*
X119533326Y-126526009D01*
X119434357Y-126406032D01*
X119436288Y-126390828D01*
X119551429Y-126482131D01*
G37*
X119609746Y-126855468D02*
X119660667Y-126891388D01*
X119825208Y-127019890D01*
X119911091Y-127100340D01*
X119914667Y-127107763D01*
X119849226Y-127093024D01*
X119688863Y-127019405D01*
X119660667Y-127005000D01*
X119488269Y-126893126D01*
X119407503Y-126795960D01*
X119406667Y-126788625D01*
X119464888Y-126777652D01*
X119609746Y-126855468D01*
G36*
X119609746Y-126855468D02*
G01*
X119660667Y-126891388D01*
X119825208Y-127019890D01*
X119911091Y-127100340D01*
X119914667Y-127107763D01*
X119849226Y-127093024D01*
X119688863Y-127019405D01*
X119660667Y-127005000D01*
X119488269Y-126893126D01*
X119407503Y-126795960D01*
X119406667Y-126788625D01*
X119464888Y-126777652D01*
X119609746Y-126855468D01*
G37*
X122599911Y-122788430D02*
X122672856Y-123049804D01*
X122734060Y-123297195D01*
X122837208Y-123622773D01*
X122939124Y-123901445D01*
X123052203Y-124219276D01*
X123090861Y-124417891D01*
X123060559Y-124527382D01*
X123053992Y-124534542D01*
X122911032Y-124586112D01*
X122755869Y-124477089D01*
X122595872Y-124215075D01*
X122486406Y-123948780D01*
X122324178Y-123445658D01*
X122240466Y-123059840D01*
X122236626Y-122801436D01*
X122314012Y-122680555D01*
X122316202Y-122679684D01*
X122485251Y-122665645D01*
X122599911Y-122788430D01*
G36*
X122599911Y-122788430D02*
G01*
X122672856Y-123049804D01*
X122734060Y-123297195D01*
X122837208Y-123622773D01*
X122939124Y-123901445D01*
X123052203Y-124219276D01*
X123090861Y-124417891D01*
X123060559Y-124527382D01*
X123053992Y-124534542D01*
X122911032Y-124586112D01*
X122755869Y-124477089D01*
X122595872Y-124215075D01*
X122486406Y-123948780D01*
X122324178Y-123445658D01*
X122240466Y-123059840D01*
X122236626Y-122801436D01*
X122314012Y-122680555D01*
X122316202Y-122679684D01*
X122485251Y-122665645D01*
X122599911Y-122788430D01*
G37*
X122863118Y-125188650D02*
X122845372Y-125400843D01*
X122699884Y-125692182D01*
X122666334Y-125743055D01*
X122483826Y-126149231D01*
X122453371Y-126402982D01*
X122421448Y-126733539D01*
X122330687Y-126914826D01*
X122184092Y-126941262D01*
X122166879Y-126935328D01*
X122084691Y-126856969D01*
X122042467Y-126679022D01*
X122031334Y-126392694D01*
X122046779Y-126081686D01*
X122110576Y-125838903D01*
X122248918Y-125582140D01*
X122328033Y-125461501D01*
X122535324Y-125189216D01*
X122688191Y-125070707D01*
X122751366Y-125069523D01*
X122863118Y-125188650D01*
G36*
X122863118Y-125188650D02*
G01*
X122845372Y-125400843D01*
X122699884Y-125692182D01*
X122666334Y-125743055D01*
X122483826Y-126149231D01*
X122453371Y-126402982D01*
X122421448Y-126733539D01*
X122330687Y-126914826D01*
X122184092Y-126941262D01*
X122166879Y-126935328D01*
X122084691Y-126856969D01*
X122042467Y-126679022D01*
X122031334Y-126392694D01*
X122046779Y-126081686D01*
X122110576Y-125838903D01*
X122248918Y-125582140D01*
X122328033Y-125461501D01*
X122535324Y-125189216D01*
X122688191Y-125070707D01*
X122751366Y-125069523D01*
X122863118Y-125188650D01*
G37*
X121514505Y-125087981D02*
X121597947Y-125212699D01*
X121548645Y-125341193D01*
X121395648Y-125427271D01*
X121293158Y-125439963D01*
X121080438Y-125463647D01*
X120953138Y-125507654D01*
X120903681Y-125614961D01*
X120978157Y-125760055D01*
X121147284Y-125908613D01*
X121381784Y-126026310D01*
X121401245Y-126032954D01*
X121619493Y-126147778D01*
X121680886Y-126275018D01*
X121587818Y-126383356D01*
X121370196Y-126439184D01*
X121178505Y-126432518D01*
X121004993Y-126351410D01*
X120793383Y-126167631D01*
X120757056Y-126131644D01*
X120510317Y-125823242D01*
X120427101Y-125553330D01*
X120506806Y-125318743D01*
X120585429Y-125232947D01*
X120788064Y-125121070D01*
X121060296Y-125052274D01*
X121328133Y-125038104D01*
X121514505Y-125087981D01*
G36*
X121514505Y-125087981D02*
G01*
X121597947Y-125212699D01*
X121548645Y-125341193D01*
X121395648Y-125427271D01*
X121293158Y-125439963D01*
X121080438Y-125463647D01*
X120953138Y-125507654D01*
X120903681Y-125614961D01*
X120978157Y-125760055D01*
X121147284Y-125908613D01*
X121381784Y-126026310D01*
X121401245Y-126032954D01*
X121619493Y-126147778D01*
X121680886Y-126275018D01*
X121587818Y-126383356D01*
X121370196Y-126439184D01*
X121178505Y-126432518D01*
X121004993Y-126351410D01*
X120793383Y-126167631D01*
X120757056Y-126131644D01*
X120510317Y-125823242D01*
X120427101Y-125553330D01*
X120506806Y-125318743D01*
X120585429Y-125232947D01*
X120788064Y-125121070D01*
X121060296Y-125052274D01*
X121328133Y-125038104D01*
X121514505Y-125087981D01*
G37*
X121504601Y-122673902D02*
X121631299Y-122753838D01*
X121634659Y-122761350D01*
X121622603Y-122919791D01*
X121475945Y-123030888D01*
X121255379Y-123068000D01*
X121025668Y-123132639D01*
X120930896Y-123236906D01*
X120892480Y-123361331D01*
X120957299Y-123464645D01*
X121118417Y-123575256D01*
X121320775Y-123685583D01*
X121467501Y-123742798D01*
X121485234Y-123745017D01*
X121637782Y-123811197D01*
X121724678Y-123956389D01*
X121719326Y-124051984D01*
X121604826Y-124153207D01*
X121406422Y-124154877D01*
X121160330Y-124076794D01*
X120902766Y-123938759D01*
X120669945Y-123760573D01*
X120498084Y-123562034D01*
X120423398Y-123362944D01*
X120422667Y-123343062D01*
X120480740Y-123154380D01*
X120624866Y-122940875D01*
X120670154Y-122892154D01*
X120905365Y-122711271D01*
X121168259Y-122647104D01*
X121253763Y-122644667D01*
X121504601Y-122673902D01*
G36*
X121504601Y-122673902D02*
G01*
X121631299Y-122753838D01*
X121634659Y-122761350D01*
X121622603Y-122919791D01*
X121475945Y-123030888D01*
X121255379Y-123068000D01*
X121025668Y-123132639D01*
X120930896Y-123236906D01*
X120892480Y-123361331D01*
X120957299Y-123464645D01*
X121118417Y-123575256D01*
X121320775Y-123685583D01*
X121467501Y-123742798D01*
X121485234Y-123745017D01*
X121637782Y-123811197D01*
X121724678Y-123956389D01*
X121719326Y-124051984D01*
X121604826Y-124153207D01*
X121406422Y-124154877D01*
X121160330Y-124076794D01*
X120902766Y-123938759D01*
X120669945Y-123760573D01*
X120498084Y-123562034D01*
X120423398Y-123362944D01*
X120422667Y-123343062D01*
X120480740Y-123154380D01*
X120624866Y-122940875D01*
X120670154Y-122892154D01*
X120905365Y-122711271D01*
X121168259Y-122647104D01*
X121253763Y-122644667D01*
X121504601Y-122673902D01*
G37*
X118500899Y-123310290D02*
X118528428Y-123361844D01*
X118512781Y-123507955D01*
X118410515Y-123696496D01*
X118397473Y-123713578D01*
X118284160Y-123878312D01*
X118277120Y-123986252D01*
X118347037Y-124082567D01*
X118465142Y-124289879D01*
X118416739Y-124470553D01*
X118327167Y-124554676D01*
X118237645Y-124638117D01*
X118250513Y-124724932D01*
X118375085Y-124871741D01*
X118380212Y-124877202D01*
X118501352Y-125064489D01*
X118527915Y-125235774D01*
X118458224Y-125341260D01*
X118396270Y-125354000D01*
X118261816Y-125294660D01*
X118077249Y-125148787D01*
X117892002Y-124964602D01*
X117755508Y-124790326D01*
X117714630Y-124689063D01*
X117760304Y-124492821D01*
X117793744Y-124426654D01*
X117835873Y-124256375D01*
X117824309Y-124067376D01*
X117833803Y-123854421D01*
X117923372Y-123637331D01*
X118063941Y-123445239D01*
X118226436Y-123307280D01*
X118381780Y-123252586D01*
X118500899Y-123310290D01*
G36*
X118500899Y-123310290D02*
G01*
X118528428Y-123361844D01*
X118512781Y-123507955D01*
X118410515Y-123696496D01*
X118397473Y-123713578D01*
X118284160Y-123878312D01*
X118277120Y-123986252D01*
X118347037Y-124082567D01*
X118465142Y-124289879D01*
X118416739Y-124470553D01*
X118327167Y-124554676D01*
X118237645Y-124638117D01*
X118250513Y-124724932D01*
X118375085Y-124871741D01*
X118380212Y-124877202D01*
X118501352Y-125064489D01*
X118527915Y-125235774D01*
X118458224Y-125341260D01*
X118396270Y-125354000D01*
X118261816Y-125294660D01*
X118077249Y-125148787D01*
X117892002Y-124964602D01*
X117755508Y-124790326D01*
X117714630Y-124689063D01*
X117760304Y-124492821D01*
X117793744Y-124426654D01*
X117835873Y-124256375D01*
X117824309Y-124067376D01*
X117833803Y-123854421D01*
X117923372Y-123637331D01*
X118063941Y-123445239D01*
X118226436Y-123307280D01*
X118381780Y-123252586D01*
X118500899Y-123310290D01*
G37*
X119086745Y-119726484D02*
X119461090Y-119820611D01*
X119891611Y-119984333D01*
X120414429Y-120227667D01*
X120631254Y-120336209D01*
X121158013Y-120603007D01*
X121559214Y-120804482D01*
X121860146Y-120952244D01*
X122086102Y-121057900D01*
X122262371Y-121133060D01*
X122414245Y-121189331D01*
X122567013Y-121238323D01*
X122652502Y-121263974D01*
X123091759Y-121426144D01*
X123403168Y-121623732D01*
X123628010Y-121883902D01*
X123651597Y-121921377D01*
X123808701Y-122179000D01*
X123807158Y-121882667D01*
X123745944Y-121521803D01*
X123581082Y-121103947D01*
X123335841Y-120684210D01*
X123252850Y-120569796D01*
X123127077Y-120372471D01*
X123127575Y-120281177D01*
X123248413Y-120296139D01*
X123483656Y-120417581D01*
X123694256Y-120553148D01*
X124102134Y-120920263D01*
X124317162Y-121251648D01*
X124528657Y-121671000D01*
X124577433Y-121374667D01*
X124626208Y-121078334D01*
X124817945Y-121501667D01*
X124951899Y-121887842D01*
X124978045Y-122252688D01*
X124973011Y-122319456D01*
X124961028Y-122561599D01*
X124988914Y-122666951D01*
X125050170Y-122670231D01*
X125139954Y-122694304D01*
X125160222Y-122842113D01*
X125111788Y-123083359D01*
X125033172Y-123301889D01*
X124955691Y-123509703D01*
X124952348Y-123623931D01*
X125023144Y-123703228D01*
X125033172Y-123710670D01*
X125137739Y-123832798D01*
X125160899Y-123950477D01*
X125095516Y-123999334D01*
X124978488Y-124044447D01*
X124877476Y-124108691D01*
X124789924Y-124188475D01*
X124772520Y-124285612D01*
X124824228Y-124456537D01*
X124869001Y-124570645D01*
X124962604Y-124939344D01*
X124971313Y-125382480D01*
X124893195Y-125920845D01*
X124726315Y-126575228D01*
X124663175Y-126782855D01*
X124519082Y-127243707D01*
X124423382Y-127573757D01*
X124376810Y-127804691D01*
X124380102Y-127968197D01*
X124433991Y-128095960D01*
X124539213Y-128219666D01*
X124696502Y-128371003D01*
X124700078Y-128374427D01*
X124929644Y-128599966D01*
X125044373Y-128734873D01*
X125055152Y-128801952D01*
X124972865Y-128824009D01*
X124915324Y-128825334D01*
X124807582Y-128851028D01*
X124779743Y-128959400D01*
X124797655Y-129110903D01*
X124804766Y-129331758D01*
X124750828Y-129454044D01*
X124749998Y-129454566D01*
X124671864Y-129440225D01*
X124655580Y-129359497D01*
X124603959Y-129196414D01*
X124477256Y-128990920D01*
X124446958Y-128952334D01*
X124238757Y-128698334D01*
X124235712Y-129020830D01*
X124214772Y-129224185D01*
X124163348Y-129296286D01*
X124148000Y-129291000D01*
X124079718Y-129172986D01*
X124063105Y-129053170D01*
X124049426Y-128963349D01*
X123992303Y-128970404D01*
X123867108Y-129087209D01*
X123745605Y-129219169D01*
X123218480Y-129696816D01*
X122592545Y-130062079D01*
X122027094Y-130277116D01*
X121736075Y-130360163D01*
X121461644Y-130416230D01*
X121158859Y-130450093D01*
X120782783Y-130466527D01*
X120288476Y-130470307D01*
X120211000Y-130470111D01*
X119453132Y-130446052D01*
X118824823Y-130374011D01*
X118291059Y-130245865D01*
X117816823Y-130053495D01*
X117417000Y-129822049D01*
X117177788Y-129654563D01*
X117047792Y-129518423D01*
X116990177Y-129359288D01*
X116970476Y-129163346D01*
X116974763Y-129124153D01*
X117133555Y-129124153D01*
X117201021Y-129416488D01*
X117311167Y-129567248D01*
X117718582Y-129853750D01*
X118254093Y-130086618D01*
X118883466Y-130260407D01*
X119572467Y-130369675D01*
X120286862Y-130408981D01*
X120992417Y-130372881D01*
X121650334Y-130257084D01*
X122028257Y-130145749D01*
X122396079Y-130009694D01*
X122710115Y-129867712D01*
X122926681Y-129738598D01*
X122986749Y-129682150D01*
X123135230Y-129545012D01*
X123331960Y-129419797D01*
X123526228Y-129275290D01*
X123643095Y-129113528D01*
X123746659Y-128930353D01*
X123909943Y-128719445D01*
X123934666Y-128692132D01*
X124094810Y-128540912D01*
X124212075Y-128506369D01*
X124320883Y-128553901D01*
X124511852Y-128649527D01*
X124582811Y-128630836D01*
X124529553Y-128507055D01*
X124410771Y-128356721D01*
X124258091Y-128160623D01*
X124179082Y-127974324D01*
X124150568Y-127726878D01*
X124148000Y-127552387D01*
X124160921Y-127283002D01*
X124194637Y-127100497D01*
X124232667Y-127047334D01*
X124316932Y-127114819D01*
X124325773Y-127153167D01*
X124346019Y-127202653D01*
X124380408Y-127125154D01*
X124419689Y-126961397D01*
X124454614Y-126752107D01*
X124475935Y-126538009D01*
X124478228Y-126481881D01*
X124513942Y-126224745D01*
X124592384Y-126028515D01*
X124617192Y-125997571D01*
X124805940Y-125708568D01*
X124865145Y-125341246D01*
X124795022Y-124884355D01*
X124647058Y-124449528D01*
X124584885Y-124256259D01*
X124615817Y-124134183D01*
X124740346Y-124016619D01*
X124942183Y-123853181D01*
X124760113Y-123755741D01*
X124578043Y-123658300D01*
X124786355Y-123351335D01*
X124939697Y-123105763D01*
X124982468Y-122974787D01*
X124914653Y-122944741D01*
X124785998Y-122982194D01*
X124598535Y-123021269D01*
X124538050Y-122949733D01*
X124605662Y-122770254D01*
X124660263Y-122681718D01*
X124773036Y-122418771D01*
X124821415Y-122112516D01*
X124797976Y-121838351D01*
X124753834Y-121731739D01*
X124687908Y-121717942D01*
X124606919Y-121866747D01*
X124573171Y-121961766D01*
X124476111Y-122185758D01*
X124394688Y-122243904D01*
X124338548Y-122139584D01*
X124317337Y-121876178D01*
X124317334Y-121872104D01*
X124278845Y-121522607D01*
X124144463Y-121221888D01*
X123910148Y-120930167D01*
X123725627Y-120751675D01*
X123636460Y-120713014D01*
X123643531Y-120813481D01*
X123747724Y-121052377D01*
X123750109Y-121057167D01*
X123838028Y-121302878D01*
X123900587Y-121609862D01*
X123934861Y-121932338D01*
X123937922Y-122224525D01*
X123906847Y-122440641D01*
X123844445Y-122533336D01*
X123758273Y-122482846D01*
X123646402Y-122318846D01*
X123595979Y-122217589D01*
X123355711Y-121835831D01*
X123024060Y-121582970D01*
X122676447Y-121457053D01*
X122490809Y-121391635D01*
X122185353Y-121262617D01*
X121790810Y-121083913D01*
X121337914Y-120869435D01*
X120865516Y-120637168D01*
X120356397Y-120383345D01*
X119968416Y-120195465D01*
X119671676Y-120062902D01*
X119436283Y-119975031D01*
X119232339Y-119921224D01*
X119029951Y-119890855D01*
X118799222Y-119873299D01*
X118701432Y-119867962D01*
X118348407Y-119853669D01*
X118117273Y-119861480D01*
X117961145Y-119899792D01*
X117833137Y-119977000D01*
X117760877Y-120036376D01*
X117600435Y-120216068D01*
X117513926Y-120444416D01*
X117480463Y-120676557D01*
X117465700Y-121090560D01*
X117522724Y-121402930D01*
X117664038Y-121670652D01*
X117712885Y-121735867D01*
X117885450Y-121955247D01*
X118148688Y-121714815D01*
X118470787Y-121524711D01*
X118909139Y-121416881D01*
X119432667Y-121390129D01*
X120010292Y-121443264D01*
X120610933Y-121575090D01*
X121203513Y-121784415D01*
X121320907Y-121836666D01*
X121677503Y-121987684D01*
X122025051Y-122111698D01*
X122300210Y-122186632D01*
X122348834Y-122194915D01*
X122568397Y-122242844D01*
X122695777Y-122305032D01*
X122708667Y-122329302D01*
X122636119Y-122385579D01*
X122440679Y-122383665D01*
X122155659Y-122330752D01*
X121814368Y-122234036D01*
X121450115Y-122100709D01*
X121253468Y-122015035D01*
X120554423Y-121756037D01*
X119841443Y-121611598D01*
X119162929Y-121589856D01*
X118899919Y-121619263D01*
X118626625Y-121677426D01*
X118421652Y-121770207D01*
X118222168Y-121934306D01*
X118045763Y-122118202D01*
X117637339Y-122671259D01*
X117391040Y-123269665D01*
X117303489Y-123922958D01*
X117311429Y-124191685D01*
X117378824Y-124683564D01*
X117506250Y-125235137D01*
X117675783Y-125786927D01*
X117869494Y-126279457D01*
X118039113Y-126606027D01*
X118245428Y-126864889D01*
X118522714Y-127122674D01*
X118681463Y-127238715D01*
X119099259Y-127508377D01*
X120332463Y-127485431D01*
X121026443Y-127460042D01*
X121586146Y-127408201D01*
X122045463Y-127323275D01*
X122438287Y-127198633D01*
X122798509Y-127027642D01*
X122865260Y-126989832D01*
X123122087Y-126865573D01*
X123284309Y-126840632D01*
X123313297Y-126856097D01*
X123284501Y-126933119D01*
X123111257Y-127062030D01*
X122806876Y-127233185D01*
X122758670Y-127257882D01*
X122124265Y-127579890D01*
X120490299Y-127648711D01*
X119796388Y-127679802D01*
X119248369Y-127709652D01*
X118822849Y-127741007D01*
X118496432Y-127776615D01*
X118245726Y-127819222D01*
X118047337Y-127871575D01*
X117877869Y-127936421D01*
X117822293Y-127961987D01*
X117532350Y-128169696D01*
X117312235Y-128459879D01*
X117174964Y-128791657D01*
X117133555Y-129124153D01*
X116974763Y-129124153D01*
X117022404Y-128688660D01*
X117126466Y-128425237D01*
X117376133Y-128074076D01*
X117735446Y-127818422D01*
X118227027Y-127642739D01*
X118286860Y-127628386D01*
X118719018Y-127528632D01*
X118412476Y-127285023D01*
X118071517Y-126956819D01*
X117799807Y-126554593D01*
X117566038Y-126031611D01*
X117557573Y-126008971D01*
X117283115Y-125112197D01*
X117153214Y-124289818D01*
X117167794Y-123545390D01*
X117326778Y-122882469D01*
X117630089Y-122304613D01*
X117637336Y-122294357D01*
X117737818Y-122131763D01*
X117734876Y-122034238D01*
X117664402Y-121961857D01*
X117467430Y-121701643D01*
X117339049Y-121335698D01*
X117286147Y-120915983D01*
X117315613Y-120494460D01*
X117423540Y-120145178D01*
X117522959Y-119967328D01*
X117643921Y-119851967D01*
X117827182Y-119780066D01*
X118113497Y-119732597D01*
X118348407Y-119708366D01*
X118362107Y-119706952D01*
X118732457Y-119691936D01*
X119086745Y-119726484D01*
G36*
X119086745Y-119726484D02*
G01*
X119461090Y-119820611D01*
X119891611Y-119984333D01*
X120414429Y-120227667D01*
X120631254Y-120336209D01*
X121158013Y-120603007D01*
X121559214Y-120804482D01*
X121860146Y-120952244D01*
X122086102Y-121057900D01*
X122262371Y-121133060D01*
X122414245Y-121189331D01*
X122567013Y-121238323D01*
X122652502Y-121263974D01*
X123091759Y-121426144D01*
X123403168Y-121623732D01*
X123628010Y-121883902D01*
X123651597Y-121921377D01*
X123808701Y-122179000D01*
X123807158Y-121882667D01*
X123745944Y-121521803D01*
X123581082Y-121103947D01*
X123335841Y-120684210D01*
X123252850Y-120569796D01*
X123127077Y-120372471D01*
X123127575Y-120281177D01*
X123248413Y-120296139D01*
X123483656Y-120417581D01*
X123694256Y-120553148D01*
X124102134Y-120920263D01*
X124317162Y-121251648D01*
X124528657Y-121671000D01*
X124577433Y-121374667D01*
X124626208Y-121078334D01*
X124817945Y-121501667D01*
X124951899Y-121887842D01*
X124978045Y-122252688D01*
X124973011Y-122319456D01*
X124961028Y-122561599D01*
X124988914Y-122666951D01*
X125050170Y-122670231D01*
X125139954Y-122694304D01*
X125160222Y-122842113D01*
X125111788Y-123083359D01*
X125033172Y-123301889D01*
X124955691Y-123509703D01*
X124952348Y-123623931D01*
X125023144Y-123703228D01*
X125033172Y-123710670D01*
X125137739Y-123832798D01*
X125160899Y-123950477D01*
X125095516Y-123999334D01*
X124978488Y-124044447D01*
X124877476Y-124108691D01*
X124789924Y-124188475D01*
X124772520Y-124285612D01*
X124824228Y-124456537D01*
X124869001Y-124570645D01*
X124962604Y-124939344D01*
X124971313Y-125382480D01*
X124893195Y-125920845D01*
X124726315Y-126575228D01*
X124663175Y-126782855D01*
X124519082Y-127243707D01*
X124423382Y-127573757D01*
X124376810Y-127804691D01*
X124380102Y-127968197D01*
X124433991Y-128095960D01*
X124539213Y-128219666D01*
X124696502Y-128371003D01*
X124700078Y-128374427D01*
X124929644Y-128599966D01*
X125044373Y-128734873D01*
X125055152Y-128801952D01*
X124972865Y-128824009D01*
X124915324Y-128825334D01*
X124807582Y-128851028D01*
X124779743Y-128959400D01*
X124797655Y-129110903D01*
X124804766Y-129331758D01*
X124750828Y-129454044D01*
X124749998Y-129454566D01*
X124671864Y-129440225D01*
X124655580Y-129359497D01*
X124603959Y-129196414D01*
X124477256Y-128990920D01*
X124446958Y-128952334D01*
X124238757Y-128698334D01*
X124235712Y-129020830D01*
X124214772Y-129224185D01*
X124163348Y-129296286D01*
X124148000Y-129291000D01*
X124079718Y-129172986D01*
X124063105Y-129053170D01*
X124049426Y-128963349D01*
X123992303Y-128970404D01*
X123867108Y-129087209D01*
X123745605Y-129219169D01*
X123218480Y-129696816D01*
X122592545Y-130062079D01*
X122027094Y-130277116D01*
X121736075Y-130360163D01*
X121461644Y-130416230D01*
X121158859Y-130450093D01*
X120782783Y-130466527D01*
X120288476Y-130470307D01*
X120211000Y-130470111D01*
X119453132Y-130446052D01*
X118824823Y-130374011D01*
X118291059Y-130245865D01*
X117816823Y-130053495D01*
X117417000Y-129822049D01*
X117177788Y-129654563D01*
X117047792Y-129518423D01*
X116990177Y-129359288D01*
X116970476Y-129163346D01*
X116974763Y-129124153D01*
X117133555Y-129124153D01*
X117201021Y-129416488D01*
X117311167Y-129567248D01*
X117718582Y-129853750D01*
X118254093Y-130086618D01*
X118883466Y-130260407D01*
X119572467Y-130369675D01*
X120286862Y-130408981D01*
X120992417Y-130372881D01*
X121650334Y-130257084D01*
X122028257Y-130145749D01*
X122396079Y-130009694D01*
X122710115Y-129867712D01*
X122926681Y-129738598D01*
X122986749Y-129682150D01*
X123135230Y-129545012D01*
X123331960Y-129419797D01*
X123526228Y-129275290D01*
X123643095Y-129113528D01*
X123746659Y-128930353D01*
X123909943Y-128719445D01*
X123934666Y-128692132D01*
X124094810Y-128540912D01*
X124212075Y-128506369D01*
X124320883Y-128553901D01*
X124511852Y-128649527D01*
X124582811Y-128630836D01*
X124529553Y-128507055D01*
X124410771Y-128356721D01*
X124258091Y-128160623D01*
X124179082Y-127974324D01*
X124150568Y-127726878D01*
X124148000Y-127552387D01*
X124160921Y-127283002D01*
X124194637Y-127100497D01*
X124232667Y-127047334D01*
X124316932Y-127114819D01*
X124325773Y-127153167D01*
X124346019Y-127202653D01*
X124380408Y-127125154D01*
X124419689Y-126961397D01*
X124454614Y-126752107D01*
X124475935Y-126538009D01*
X124478228Y-126481881D01*
X124513942Y-126224745D01*
X124592384Y-126028515D01*
X124617192Y-125997571D01*
X124805940Y-125708568D01*
X124865145Y-125341246D01*
X124795022Y-124884355D01*
X124647058Y-124449528D01*
X124584885Y-124256259D01*
X124615817Y-124134183D01*
X124740346Y-124016619D01*
X124942183Y-123853181D01*
X124760113Y-123755741D01*
X124578043Y-123658300D01*
X124786355Y-123351335D01*
X124939697Y-123105763D01*
X124982468Y-122974787D01*
X124914653Y-122944741D01*
X124785998Y-122982194D01*
X124598535Y-123021269D01*
X124538050Y-122949733D01*
X124605662Y-122770254D01*
X124660263Y-122681718D01*
X124773036Y-122418771D01*
X124821415Y-122112516D01*
X124797976Y-121838351D01*
X124753834Y-121731739D01*
X124687908Y-121717942D01*
X124606919Y-121866747D01*
X124573171Y-121961766D01*
X124476111Y-122185758D01*
X124394688Y-122243904D01*
X124338548Y-122139584D01*
X124317337Y-121876178D01*
X124317334Y-121872104D01*
X124278845Y-121522607D01*
X124144463Y-121221888D01*
X123910148Y-120930167D01*
X123725627Y-120751675D01*
X123636460Y-120713014D01*
X123643531Y-120813481D01*
X123747724Y-121052377D01*
X123750109Y-121057167D01*
X123838028Y-121302878D01*
X123900587Y-121609862D01*
X123934861Y-121932338D01*
X123937922Y-122224525D01*
X123906847Y-122440641D01*
X123844445Y-122533336D01*
X123758273Y-122482846D01*
X123646402Y-122318846D01*
X123595979Y-122217589D01*
X123355711Y-121835831D01*
X123024060Y-121582970D01*
X122676447Y-121457053D01*
X122490809Y-121391635D01*
X122185353Y-121262617D01*
X121790810Y-121083913D01*
X121337914Y-120869435D01*
X120865516Y-120637168D01*
X120356397Y-120383345D01*
X119968416Y-120195465D01*
X119671676Y-120062902D01*
X119436283Y-119975031D01*
X119232339Y-119921224D01*
X119029951Y-119890855D01*
X118799222Y-119873299D01*
X118701432Y-119867962D01*
X118348407Y-119853669D01*
X118117273Y-119861480D01*
X117961145Y-119899792D01*
X117833137Y-119977000D01*
X117760877Y-120036376D01*
X117600435Y-120216068D01*
X117513926Y-120444416D01*
X117480463Y-120676557D01*
X117465700Y-121090560D01*
X117522724Y-121402930D01*
X117664038Y-121670652D01*
X117712885Y-121735867D01*
X117885450Y-121955247D01*
X118148688Y-121714815D01*
X118470787Y-121524711D01*
X118909139Y-121416881D01*
X119432667Y-121390129D01*
X120010292Y-121443264D01*
X120610933Y-121575090D01*
X121203513Y-121784415D01*
X121320907Y-121836666D01*
X121677503Y-121987684D01*
X122025051Y-122111698D01*
X122300210Y-122186632D01*
X122348834Y-122194915D01*
X122568397Y-122242844D01*
X122695777Y-122305032D01*
X122708667Y-122329302D01*
X122636119Y-122385579D01*
X122440679Y-122383665D01*
X122155659Y-122330752D01*
X121814368Y-122234036D01*
X121450115Y-122100709D01*
X121253468Y-122015035D01*
X120554423Y-121756037D01*
X119841443Y-121611598D01*
X119162929Y-121589856D01*
X118899919Y-121619263D01*
X118626625Y-121677426D01*
X118421652Y-121770207D01*
X118222168Y-121934306D01*
X118045763Y-122118202D01*
X117637339Y-122671259D01*
X117391040Y-123269665D01*
X117303489Y-123922958D01*
X117311429Y-124191685D01*
X117378824Y-124683564D01*
X117506250Y-125235137D01*
X117675783Y-125786927D01*
X117869494Y-126279457D01*
X118039113Y-126606027D01*
X118245428Y-126864889D01*
X118522714Y-127122674D01*
X118681463Y-127238715D01*
X119099259Y-127508377D01*
X120332463Y-127485431D01*
X121026443Y-127460042D01*
X121586146Y-127408201D01*
X122045463Y-127323275D01*
X122438287Y-127198633D01*
X122798509Y-127027642D01*
X122865260Y-126989832D01*
X123122087Y-126865573D01*
X123284309Y-126840632D01*
X123313297Y-126856097D01*
X123284501Y-126933119D01*
X123111257Y-127062030D01*
X122806876Y-127233185D01*
X122758670Y-127257882D01*
X122124265Y-127579890D01*
X120490299Y-127648711D01*
X119796388Y-127679802D01*
X119248369Y-127709652D01*
X118822849Y-127741007D01*
X118496432Y-127776615D01*
X118245726Y-127819222D01*
X118047337Y-127871575D01*
X117877869Y-127936421D01*
X117822293Y-127961987D01*
X117532350Y-128169696D01*
X117312235Y-128459879D01*
X117174964Y-128791657D01*
X117133555Y-129124153D01*
X116974763Y-129124153D01*
X117022404Y-128688660D01*
X117126466Y-128425237D01*
X117376133Y-128074076D01*
X117735446Y-127818422D01*
X118227027Y-127642739D01*
X118286860Y-127628386D01*
X118719018Y-127528632D01*
X118412476Y-127285023D01*
X118071517Y-126956819D01*
X117799807Y-126554593D01*
X117566038Y-126031611D01*
X117557573Y-126008971D01*
X117283115Y-125112197D01*
X117153214Y-124289818D01*
X117167794Y-123545390D01*
X117326778Y-122882469D01*
X117630089Y-122304613D01*
X117637336Y-122294357D01*
X117737818Y-122131763D01*
X117734876Y-122034238D01*
X117664402Y-121961857D01*
X117467430Y-121701643D01*
X117339049Y-121335698D01*
X117286147Y-120915983D01*
X117315613Y-120494460D01*
X117423540Y-120145178D01*
X117522959Y-119967328D01*
X117643921Y-119851967D01*
X117827182Y-119780066D01*
X118113497Y-119732597D01*
X118348407Y-119708366D01*
X118362107Y-119706952D01*
X118732457Y-119691936D01*
X119086745Y-119726484D01*
G37*
X119589081Y-49191138D02*
X119685221Y-49275421D01*
X119693273Y-49382610D01*
X119618334Y-49431139D01*
X119531120Y-49365553D01*
X119504415Y-49294388D01*
X119525348Y-49190547D01*
X119589081Y-49191138D01*
G36*
X119589081Y-49191138D02*
G01*
X119685221Y-49275421D01*
X119693273Y-49382610D01*
X119618334Y-49431139D01*
X119531120Y-49365553D01*
X119504415Y-49294388D01*
X119525348Y-49190547D01*
X119589081Y-49191138D01*
G37*
X119576000Y-47486131D02*
X119773737Y-47587169D01*
X119828790Y-47637268D01*
X119775627Y-47648667D01*
X119651354Y-47600266D01*
X119528683Y-47516996D01*
X119424598Y-47429462D01*
X119453057Y-47429310D01*
X119576000Y-47486131D01*
G36*
X119576000Y-47486131D02*
G01*
X119773737Y-47587169D01*
X119828790Y-47637268D01*
X119775627Y-47648667D01*
X119651354Y-47600266D01*
X119528683Y-47516996D01*
X119424598Y-47429462D01*
X119453057Y-47429310D01*
X119576000Y-47486131D01*
G37*
X119418806Y-47608749D02*
X119491334Y-47648667D01*
X119559103Y-47715754D01*
X119533667Y-47730741D01*
X119394528Y-47688584D01*
X119322000Y-47648667D01*
X119254231Y-47581579D01*
X119279667Y-47566593D01*
X119418806Y-47608749D01*
G36*
X119418806Y-47608749D02*
G01*
X119491334Y-47648667D01*
X119559103Y-47715754D01*
X119533667Y-47730741D01*
X119394528Y-47688584D01*
X119322000Y-47648667D01*
X119254231Y-47581579D01*
X119279667Y-47566593D01*
X119418806Y-47608749D01*
G37*
X119731075Y-48620906D02*
X119745334Y-48655608D01*
X119677955Y-48748165D01*
X119618334Y-48779951D01*
X119509106Y-48766942D01*
X119491334Y-48704343D01*
X119559166Y-48594412D01*
X119618334Y-48580000D01*
X119731075Y-48620906D01*
G36*
X119731075Y-48620906D02*
G01*
X119745334Y-48655608D01*
X119677955Y-48748165D01*
X119618334Y-48779951D01*
X119509106Y-48766942D01*
X119491334Y-48704343D01*
X119559166Y-48594412D01*
X119618334Y-48580000D01*
X119731075Y-48620906D01*
G37*
X119491334Y-50315667D02*
X119572191Y-50395441D01*
X119576000Y-50410327D01*
X119521310Y-50416104D01*
X119491334Y-50400334D01*
X119410477Y-50320559D01*
X119406667Y-50305673D01*
X119461357Y-50299897D01*
X119491334Y-50315667D01*
G36*
X119491334Y-50315667D02*
G01*
X119572191Y-50395441D01*
X119576000Y-50410327D01*
X119521310Y-50416104D01*
X119491334Y-50400334D01*
X119410477Y-50320559D01*
X119406667Y-50305673D01*
X119461357Y-50299897D01*
X119491334Y-50315667D01*
G37*
X119588057Y-50917781D02*
X119757121Y-51040114D01*
X119872111Y-51147284D01*
X119857585Y-51160575D01*
X119787667Y-51127616D01*
X119556893Y-50997752D01*
X119439185Y-50905820D01*
X119454305Y-50867558D01*
X119460787Y-50867297D01*
X119588057Y-50917781D01*
G36*
X119588057Y-50917781D02*
G01*
X119757121Y-51040114D01*
X119872111Y-51147284D01*
X119857585Y-51160575D01*
X119787667Y-51127616D01*
X119556893Y-50997752D01*
X119439185Y-50905820D01*
X119454305Y-50867558D01*
X119460787Y-50867297D01*
X119588057Y-50917781D01*
G37*
X119494379Y-46931542D02*
X119660667Y-47013667D01*
X119784001Y-47097909D01*
X119790122Y-47134612D01*
X119787667Y-47134666D01*
X119657622Y-47095791D01*
X119491334Y-47013667D01*
X119368000Y-46929424D01*
X119361879Y-46892722D01*
X119364334Y-46892667D01*
X119494379Y-46931542D01*
G36*
X119494379Y-46931542D02*
G01*
X119660667Y-47013667D01*
X119784001Y-47097909D01*
X119790122Y-47134612D01*
X119787667Y-47134666D01*
X119657622Y-47095791D01*
X119491334Y-47013667D01*
X119368000Y-46929424D01*
X119361879Y-46892722D01*
X119364334Y-46892667D01*
X119494379Y-46931542D01*
G37*
X119533667Y-50601321D02*
X119724187Y-50710036D01*
X119883001Y-50825406D01*
X119970722Y-50915217D01*
X119957000Y-50947554D01*
X119843086Y-50898409D01*
X119666374Y-50773645D01*
X119618334Y-50734104D01*
X119499859Y-50621165D01*
X119495818Y-50586631D01*
X119533667Y-50601321D01*
G36*
X119533667Y-50601321D02*
G01*
X119724187Y-50710036D01*
X119883001Y-50825406D01*
X119970722Y-50915217D01*
X119957000Y-50947554D01*
X119843086Y-50898409D01*
X119666374Y-50773645D01*
X119618334Y-50734104D01*
X119499859Y-50621165D01*
X119495818Y-50586631D01*
X119533667Y-50601321D01*
G37*
X119498760Y-46516021D02*
X119662724Y-46645731D01*
X119694999Y-46675000D01*
X119848118Y-46824619D01*
X119868329Y-46876815D01*
X119748316Y-46840289D01*
X119606888Y-46779818D01*
X119442821Y-46677928D01*
X119343586Y-46564766D01*
X119336943Y-46481660D01*
X119394304Y-46463334D01*
X119498760Y-46516021D01*
G36*
X119498760Y-46516021D02*
G01*
X119662724Y-46645731D01*
X119694999Y-46675000D01*
X119848118Y-46824619D01*
X119868329Y-46876815D01*
X119748316Y-46840289D01*
X119606888Y-46779818D01*
X119442821Y-46677928D01*
X119343586Y-46564766D01*
X119336943Y-46481660D01*
X119394304Y-46463334D01*
X119498760Y-46516021D01*
G37*
X119513674Y-47185068D02*
X119575139Y-47210454D01*
X119781509Y-47310703D01*
X119901523Y-47395250D01*
X119913806Y-47417554D01*
X119847983Y-47422368D01*
X119680204Y-47360002D01*
X119576000Y-47310000D01*
X119338740Y-47179906D01*
X119249227Y-47111391D01*
X119307520Y-47110947D01*
X119513674Y-47185068D01*
G36*
X119513674Y-47185068D02*
G01*
X119575139Y-47210454D01*
X119781509Y-47310703D01*
X119901523Y-47395250D01*
X119913806Y-47417554D01*
X119847983Y-47422368D01*
X119680204Y-47360002D01*
X119576000Y-47310000D01*
X119338740Y-47179906D01*
X119249227Y-47111391D01*
X119307520Y-47110947D01*
X119513674Y-47185068D01*
G37*
X119551429Y-51232131D02*
X119618940Y-51288065D01*
X119848145Y-51480134D01*
X119960393Y-51581035D01*
X119970123Y-51606410D01*
X119891774Y-51571902D01*
X119871387Y-51561539D01*
X119689893Y-51431510D01*
X119533326Y-51276009D01*
X119434357Y-51156032D01*
X119436288Y-51140828D01*
X119551429Y-51232131D01*
G36*
X119551429Y-51232131D02*
G01*
X119618940Y-51288065D01*
X119848145Y-51480134D01*
X119960393Y-51581035D01*
X119970123Y-51606410D01*
X119891774Y-51571902D01*
X119871387Y-51561539D01*
X119689893Y-51431510D01*
X119533326Y-51276009D01*
X119434357Y-51156032D01*
X119436288Y-51140828D01*
X119551429Y-51232131D01*
G37*
X119609746Y-51605468D02*
X119660667Y-51641388D01*
X119825208Y-51769890D01*
X119911091Y-51850340D01*
X119914667Y-51857763D01*
X119849226Y-51843024D01*
X119688863Y-51769405D01*
X119660667Y-51755000D01*
X119488269Y-51643126D01*
X119407503Y-51545960D01*
X119406667Y-51538625D01*
X119464888Y-51527652D01*
X119609746Y-51605468D01*
G36*
X119609746Y-51605468D02*
G01*
X119660667Y-51641388D01*
X119825208Y-51769890D01*
X119911091Y-51850340D01*
X119914667Y-51857763D01*
X119849226Y-51843024D01*
X119688863Y-51769405D01*
X119660667Y-51755000D01*
X119488269Y-51643126D01*
X119407503Y-51545960D01*
X119406667Y-51538625D01*
X119464888Y-51527652D01*
X119609746Y-51605468D01*
G37*
X122599911Y-47538430D02*
X122672856Y-47799804D01*
X122734060Y-48047195D01*
X122837208Y-48372773D01*
X122939124Y-48651445D01*
X123052203Y-48969276D01*
X123090861Y-49167891D01*
X123060559Y-49277382D01*
X123053992Y-49284542D01*
X122911032Y-49336112D01*
X122755869Y-49227089D01*
X122595872Y-48965075D01*
X122486406Y-48698780D01*
X122324178Y-48195658D01*
X122240466Y-47809840D01*
X122236626Y-47551436D01*
X122314012Y-47430555D01*
X122316202Y-47429684D01*
X122485251Y-47415645D01*
X122599911Y-47538430D01*
G36*
X122599911Y-47538430D02*
G01*
X122672856Y-47799804D01*
X122734060Y-48047195D01*
X122837208Y-48372773D01*
X122939124Y-48651445D01*
X123052203Y-48969276D01*
X123090861Y-49167891D01*
X123060559Y-49277382D01*
X123053992Y-49284542D01*
X122911032Y-49336112D01*
X122755869Y-49227089D01*
X122595872Y-48965075D01*
X122486406Y-48698780D01*
X122324178Y-48195658D01*
X122240466Y-47809840D01*
X122236626Y-47551436D01*
X122314012Y-47430555D01*
X122316202Y-47429684D01*
X122485251Y-47415645D01*
X122599911Y-47538430D01*
G37*
X122863118Y-49938650D02*
X122845372Y-50150843D01*
X122699884Y-50442182D01*
X122666334Y-50493055D01*
X122483826Y-50899231D01*
X122453371Y-51152982D01*
X122421448Y-51483539D01*
X122330687Y-51664826D01*
X122184092Y-51691262D01*
X122166879Y-51685328D01*
X122084691Y-51606969D01*
X122042467Y-51429022D01*
X122031334Y-51142694D01*
X122046779Y-50831686D01*
X122110576Y-50588903D01*
X122248918Y-50332140D01*
X122328033Y-50211501D01*
X122535324Y-49939216D01*
X122688191Y-49820707D01*
X122751366Y-49819523D01*
X122863118Y-49938650D01*
G36*
X122863118Y-49938650D02*
G01*
X122845372Y-50150843D01*
X122699884Y-50442182D01*
X122666334Y-50493055D01*
X122483826Y-50899231D01*
X122453371Y-51152982D01*
X122421448Y-51483539D01*
X122330687Y-51664826D01*
X122184092Y-51691262D01*
X122166879Y-51685328D01*
X122084691Y-51606969D01*
X122042467Y-51429022D01*
X122031334Y-51142694D01*
X122046779Y-50831686D01*
X122110576Y-50588903D01*
X122248918Y-50332140D01*
X122328033Y-50211501D01*
X122535324Y-49939216D01*
X122688191Y-49820707D01*
X122751366Y-49819523D01*
X122863118Y-49938650D01*
G37*
X121514505Y-49837981D02*
X121597947Y-49962699D01*
X121548645Y-50091193D01*
X121395648Y-50177271D01*
X121293158Y-50189963D01*
X121080438Y-50213647D01*
X120953138Y-50257654D01*
X120903681Y-50364961D01*
X120978157Y-50510055D01*
X121147284Y-50658613D01*
X121381784Y-50776310D01*
X121401245Y-50782954D01*
X121619493Y-50897778D01*
X121680886Y-51025018D01*
X121587818Y-51133356D01*
X121370196Y-51189184D01*
X121178505Y-51182518D01*
X121004993Y-51101410D01*
X120793383Y-50917631D01*
X120757056Y-50881644D01*
X120510317Y-50573242D01*
X120427101Y-50303330D01*
X120506806Y-50068743D01*
X120585429Y-49982947D01*
X120788064Y-49871070D01*
X121060296Y-49802274D01*
X121328133Y-49788104D01*
X121514505Y-49837981D01*
G36*
X121514505Y-49837981D02*
G01*
X121597947Y-49962699D01*
X121548645Y-50091193D01*
X121395648Y-50177271D01*
X121293158Y-50189963D01*
X121080438Y-50213647D01*
X120953138Y-50257654D01*
X120903681Y-50364961D01*
X120978157Y-50510055D01*
X121147284Y-50658613D01*
X121381784Y-50776310D01*
X121401245Y-50782954D01*
X121619493Y-50897778D01*
X121680886Y-51025018D01*
X121587818Y-51133356D01*
X121370196Y-51189184D01*
X121178505Y-51182518D01*
X121004993Y-51101410D01*
X120793383Y-50917631D01*
X120757056Y-50881644D01*
X120510317Y-50573242D01*
X120427101Y-50303330D01*
X120506806Y-50068743D01*
X120585429Y-49982947D01*
X120788064Y-49871070D01*
X121060296Y-49802274D01*
X121328133Y-49788104D01*
X121514505Y-49837981D01*
G37*
X121504601Y-47423902D02*
X121631299Y-47503838D01*
X121634659Y-47511350D01*
X121622603Y-47669791D01*
X121475945Y-47780888D01*
X121255379Y-47818000D01*
X121025668Y-47882639D01*
X120930896Y-47986906D01*
X120892480Y-48111331D01*
X120957299Y-48214645D01*
X121118417Y-48325256D01*
X121320775Y-48435583D01*
X121467501Y-48492798D01*
X121485234Y-48495017D01*
X121637782Y-48561197D01*
X121724678Y-48706389D01*
X121719326Y-48801984D01*
X121604826Y-48903207D01*
X121406422Y-48904877D01*
X121160330Y-48826794D01*
X120902766Y-48688759D01*
X120669945Y-48510573D01*
X120498084Y-48312034D01*
X120423398Y-48112944D01*
X120422667Y-48093062D01*
X120480740Y-47904380D01*
X120624866Y-47690875D01*
X120670154Y-47642154D01*
X120905365Y-47461271D01*
X121168259Y-47397104D01*
X121253763Y-47394667D01*
X121504601Y-47423902D01*
G36*
X121504601Y-47423902D02*
G01*
X121631299Y-47503838D01*
X121634659Y-47511350D01*
X121622603Y-47669791D01*
X121475945Y-47780888D01*
X121255379Y-47818000D01*
X121025668Y-47882639D01*
X120930896Y-47986906D01*
X120892480Y-48111331D01*
X120957299Y-48214645D01*
X121118417Y-48325256D01*
X121320775Y-48435583D01*
X121467501Y-48492798D01*
X121485234Y-48495017D01*
X121637782Y-48561197D01*
X121724678Y-48706389D01*
X121719326Y-48801984D01*
X121604826Y-48903207D01*
X121406422Y-48904877D01*
X121160330Y-48826794D01*
X120902766Y-48688759D01*
X120669945Y-48510573D01*
X120498084Y-48312034D01*
X120423398Y-48112944D01*
X120422667Y-48093062D01*
X120480740Y-47904380D01*
X120624866Y-47690875D01*
X120670154Y-47642154D01*
X120905365Y-47461271D01*
X121168259Y-47397104D01*
X121253763Y-47394667D01*
X121504601Y-47423902D01*
G37*
X118500899Y-48060290D02*
X118528428Y-48111844D01*
X118512781Y-48257955D01*
X118410515Y-48446496D01*
X118397473Y-48463578D01*
X118284160Y-48628312D01*
X118277120Y-48736252D01*
X118347037Y-48832567D01*
X118465142Y-49039879D01*
X118416739Y-49220553D01*
X118327167Y-49304676D01*
X118237645Y-49388117D01*
X118250513Y-49474932D01*
X118375085Y-49621741D01*
X118380212Y-49627202D01*
X118501352Y-49814489D01*
X118527915Y-49985774D01*
X118458224Y-50091260D01*
X118396270Y-50104000D01*
X118261816Y-50044660D01*
X118077249Y-49898787D01*
X117892002Y-49714602D01*
X117755508Y-49540326D01*
X117714630Y-49439063D01*
X117760304Y-49242821D01*
X117793744Y-49176654D01*
X117835873Y-49006375D01*
X117824309Y-48817376D01*
X117833803Y-48604421D01*
X117923372Y-48387331D01*
X118063941Y-48195239D01*
X118226436Y-48057280D01*
X118381780Y-48002586D01*
X118500899Y-48060290D01*
G36*
X118500899Y-48060290D02*
G01*
X118528428Y-48111844D01*
X118512781Y-48257955D01*
X118410515Y-48446496D01*
X118397473Y-48463578D01*
X118284160Y-48628312D01*
X118277120Y-48736252D01*
X118347037Y-48832567D01*
X118465142Y-49039879D01*
X118416739Y-49220553D01*
X118327167Y-49304676D01*
X118237645Y-49388117D01*
X118250513Y-49474932D01*
X118375085Y-49621741D01*
X118380212Y-49627202D01*
X118501352Y-49814489D01*
X118527915Y-49985774D01*
X118458224Y-50091260D01*
X118396270Y-50104000D01*
X118261816Y-50044660D01*
X118077249Y-49898787D01*
X117892002Y-49714602D01*
X117755508Y-49540326D01*
X117714630Y-49439063D01*
X117760304Y-49242821D01*
X117793744Y-49176654D01*
X117835873Y-49006375D01*
X117824309Y-48817376D01*
X117833803Y-48604421D01*
X117923372Y-48387331D01*
X118063941Y-48195239D01*
X118226436Y-48057280D01*
X118381780Y-48002586D01*
X118500899Y-48060290D01*
G37*
X119086745Y-44476484D02*
X119461090Y-44570611D01*
X119891611Y-44734333D01*
X120414429Y-44977667D01*
X120631254Y-45086209D01*
X121158013Y-45353007D01*
X121559214Y-45554482D01*
X121860146Y-45702244D01*
X122086102Y-45807900D01*
X122262371Y-45883060D01*
X122414245Y-45939331D01*
X122567013Y-45988323D01*
X122652502Y-46013974D01*
X123091759Y-46176144D01*
X123403168Y-46373732D01*
X123628010Y-46633902D01*
X123651597Y-46671377D01*
X123808701Y-46929000D01*
X123807158Y-46632667D01*
X123745944Y-46271803D01*
X123581082Y-45853947D01*
X123335841Y-45434210D01*
X123252850Y-45319796D01*
X123127077Y-45122471D01*
X123127575Y-45031177D01*
X123248413Y-45046139D01*
X123483656Y-45167581D01*
X123694256Y-45303148D01*
X124102134Y-45670263D01*
X124317162Y-46001648D01*
X124528657Y-46421000D01*
X124577433Y-46124667D01*
X124626208Y-45828334D01*
X124817945Y-46251667D01*
X124951899Y-46637842D01*
X124978045Y-47002688D01*
X124973011Y-47069456D01*
X124961028Y-47311599D01*
X124988914Y-47416951D01*
X125050170Y-47420231D01*
X125139954Y-47444304D01*
X125160222Y-47592113D01*
X125111788Y-47833359D01*
X125033172Y-48051889D01*
X124955691Y-48259703D01*
X124952348Y-48373931D01*
X125023144Y-48453228D01*
X125033172Y-48460670D01*
X125137739Y-48582798D01*
X125160899Y-48700477D01*
X125095516Y-48749334D01*
X124978488Y-48794447D01*
X124877476Y-48858691D01*
X124789924Y-48938475D01*
X124772520Y-49035612D01*
X124824228Y-49206537D01*
X124869001Y-49320645D01*
X124962604Y-49689344D01*
X124971313Y-50132480D01*
X124893195Y-50670845D01*
X124726315Y-51325228D01*
X124663175Y-51532855D01*
X124519082Y-51993707D01*
X124423382Y-52323757D01*
X124376810Y-52554691D01*
X124380102Y-52718197D01*
X124433991Y-52845960D01*
X124539213Y-52969666D01*
X124696502Y-53121003D01*
X124700078Y-53124427D01*
X124929644Y-53349966D01*
X125044373Y-53484873D01*
X125055152Y-53551952D01*
X124972865Y-53574009D01*
X124915324Y-53575334D01*
X124807582Y-53601028D01*
X124779743Y-53709400D01*
X124797655Y-53860903D01*
X124804766Y-54081758D01*
X124750828Y-54204044D01*
X124749998Y-54204566D01*
X124671864Y-54190225D01*
X124655580Y-54109497D01*
X124603959Y-53946414D01*
X124477256Y-53740920D01*
X124446958Y-53702334D01*
X124238757Y-53448334D01*
X124235712Y-53770830D01*
X124214772Y-53974185D01*
X124163348Y-54046286D01*
X124148000Y-54041000D01*
X124079718Y-53922986D01*
X124063105Y-53803170D01*
X124049426Y-53713349D01*
X123992303Y-53720404D01*
X123867108Y-53837209D01*
X123745605Y-53969169D01*
X123218480Y-54446816D01*
X122592545Y-54812079D01*
X122027094Y-55027116D01*
X121736075Y-55110163D01*
X121461644Y-55166230D01*
X121158859Y-55200093D01*
X120782783Y-55216527D01*
X120288476Y-55220307D01*
X120211000Y-55220111D01*
X119453132Y-55196052D01*
X118824823Y-55124011D01*
X118291059Y-54995865D01*
X117816823Y-54803495D01*
X117417000Y-54572049D01*
X117177788Y-54404563D01*
X117047792Y-54268423D01*
X116990177Y-54109288D01*
X116970476Y-53913346D01*
X116974763Y-53874153D01*
X117133555Y-53874153D01*
X117201021Y-54166488D01*
X117311167Y-54317248D01*
X117718582Y-54603750D01*
X118254093Y-54836618D01*
X118883466Y-55010407D01*
X119572467Y-55119675D01*
X120286862Y-55158981D01*
X120992417Y-55122881D01*
X121650334Y-55007084D01*
X122028257Y-54895749D01*
X122396079Y-54759694D01*
X122710115Y-54617712D01*
X122926681Y-54488598D01*
X122986749Y-54432150D01*
X123135230Y-54295012D01*
X123331960Y-54169797D01*
X123526228Y-54025290D01*
X123643095Y-53863528D01*
X123746659Y-53680353D01*
X123909943Y-53469445D01*
X123934666Y-53442132D01*
X124094810Y-53290912D01*
X124212075Y-53256369D01*
X124320883Y-53303901D01*
X124511852Y-53399527D01*
X124582811Y-53380836D01*
X124529553Y-53257055D01*
X124410771Y-53106721D01*
X124258091Y-52910623D01*
X124179082Y-52724324D01*
X124150568Y-52476878D01*
X124148000Y-52302387D01*
X124160921Y-52033002D01*
X124194637Y-51850497D01*
X124232667Y-51797334D01*
X124316932Y-51864819D01*
X124325773Y-51903167D01*
X124346019Y-51952653D01*
X124380408Y-51875154D01*
X124419689Y-51711397D01*
X124454614Y-51502107D01*
X124475935Y-51288009D01*
X124478228Y-51231881D01*
X124513942Y-50974745D01*
X124592384Y-50778515D01*
X124617192Y-50747571D01*
X124805940Y-50458568D01*
X124865145Y-50091246D01*
X124795022Y-49634355D01*
X124647058Y-49199528D01*
X124584885Y-49006259D01*
X124615817Y-48884183D01*
X124740346Y-48766619D01*
X124942183Y-48603181D01*
X124760113Y-48505741D01*
X124578043Y-48408300D01*
X124786355Y-48101335D01*
X124939697Y-47855763D01*
X124982468Y-47724787D01*
X124914653Y-47694741D01*
X124785998Y-47732194D01*
X124598535Y-47771269D01*
X124538050Y-47699733D01*
X124605662Y-47520254D01*
X124660263Y-47431718D01*
X124773036Y-47168771D01*
X124821415Y-46862516D01*
X124797976Y-46588351D01*
X124753834Y-46481739D01*
X124687908Y-46467942D01*
X124606919Y-46616747D01*
X124573171Y-46711766D01*
X124476111Y-46935758D01*
X124394688Y-46993904D01*
X124338548Y-46889584D01*
X124317337Y-46626178D01*
X124317334Y-46622104D01*
X124278845Y-46272607D01*
X124144463Y-45971888D01*
X123910148Y-45680167D01*
X123725627Y-45501675D01*
X123636460Y-45463014D01*
X123643531Y-45563481D01*
X123747724Y-45802377D01*
X123750109Y-45807167D01*
X123838028Y-46052878D01*
X123900587Y-46359862D01*
X123934861Y-46682338D01*
X123937922Y-46974525D01*
X123906847Y-47190641D01*
X123844445Y-47283336D01*
X123758273Y-47232846D01*
X123646402Y-47068846D01*
X123595979Y-46967589D01*
X123355711Y-46585831D01*
X123024060Y-46332970D01*
X122676447Y-46207053D01*
X122490809Y-46141635D01*
X122185353Y-46012617D01*
X121790810Y-45833913D01*
X121337914Y-45619435D01*
X120865516Y-45387168D01*
X120356397Y-45133345D01*
X119968416Y-44945465D01*
X119671676Y-44812902D01*
X119436283Y-44725031D01*
X119232339Y-44671224D01*
X119029951Y-44640855D01*
X118799222Y-44623299D01*
X118701432Y-44617962D01*
X118348407Y-44603669D01*
X118117273Y-44611480D01*
X117961145Y-44649792D01*
X117833137Y-44727000D01*
X117760877Y-44786376D01*
X117600435Y-44966068D01*
X117513926Y-45194416D01*
X117480463Y-45426557D01*
X117465700Y-45840560D01*
X117522724Y-46152930D01*
X117664038Y-46420652D01*
X117712885Y-46485867D01*
X117885450Y-46705247D01*
X118148688Y-46464815D01*
X118470787Y-46274711D01*
X118909139Y-46166881D01*
X119432667Y-46140129D01*
X120010292Y-46193264D01*
X120610933Y-46325090D01*
X121203513Y-46534415D01*
X121320907Y-46586666D01*
X121677503Y-46737684D01*
X122025051Y-46861698D01*
X122300210Y-46936632D01*
X122348834Y-46944915D01*
X122568397Y-46992844D01*
X122695777Y-47055032D01*
X122708667Y-47079302D01*
X122636119Y-47135579D01*
X122440679Y-47133665D01*
X122155659Y-47080752D01*
X121814368Y-46984036D01*
X121450115Y-46850709D01*
X121253468Y-46765035D01*
X120554423Y-46506037D01*
X119841443Y-46361598D01*
X119162929Y-46339856D01*
X118899919Y-46369263D01*
X118626625Y-46427426D01*
X118421652Y-46520207D01*
X118222168Y-46684306D01*
X118045763Y-46868202D01*
X117637339Y-47421259D01*
X117391040Y-48019665D01*
X117303489Y-48672958D01*
X117311429Y-48941685D01*
X117378824Y-49433564D01*
X117506250Y-49985137D01*
X117675783Y-50536927D01*
X117869494Y-51029457D01*
X118039113Y-51356027D01*
X118245428Y-51614889D01*
X118522714Y-51872674D01*
X118681463Y-51988715D01*
X119099259Y-52258377D01*
X120332463Y-52235431D01*
X121026443Y-52210042D01*
X121586146Y-52158201D01*
X122045463Y-52073275D01*
X122438287Y-51948633D01*
X122798509Y-51777642D01*
X122865260Y-51739832D01*
X123122087Y-51615573D01*
X123284309Y-51590632D01*
X123313297Y-51606097D01*
X123284501Y-51683119D01*
X123111257Y-51812030D01*
X122806876Y-51983185D01*
X122758670Y-52007882D01*
X122124265Y-52329890D01*
X120490299Y-52398711D01*
X119796388Y-52429802D01*
X119248369Y-52459652D01*
X118822849Y-52491007D01*
X118496432Y-52526615D01*
X118245726Y-52569222D01*
X118047337Y-52621575D01*
X117877869Y-52686421D01*
X117822293Y-52711987D01*
X117532350Y-52919696D01*
X117312235Y-53209879D01*
X117174964Y-53541657D01*
X117133555Y-53874153D01*
X116974763Y-53874153D01*
X117022404Y-53438660D01*
X117126466Y-53175237D01*
X117376133Y-52824076D01*
X117735446Y-52568422D01*
X118227027Y-52392739D01*
X118286860Y-52378386D01*
X118719018Y-52278632D01*
X118412476Y-52035023D01*
X118071517Y-51706819D01*
X117799807Y-51304593D01*
X117566038Y-50781611D01*
X117557573Y-50758971D01*
X117283115Y-49862197D01*
X117153214Y-49039818D01*
X117167794Y-48295390D01*
X117326778Y-47632469D01*
X117630089Y-47054613D01*
X117637336Y-47044357D01*
X117737818Y-46881763D01*
X117734876Y-46784238D01*
X117664402Y-46711857D01*
X117467430Y-46451643D01*
X117339049Y-46085698D01*
X117286147Y-45665983D01*
X117315613Y-45244460D01*
X117423540Y-44895178D01*
X117522959Y-44717328D01*
X117643921Y-44601967D01*
X117827182Y-44530066D01*
X118113497Y-44482597D01*
X118348407Y-44458366D01*
X118362107Y-44456952D01*
X118732457Y-44441936D01*
X119086745Y-44476484D01*
G36*
X119086745Y-44476484D02*
G01*
X119461090Y-44570611D01*
X119891611Y-44734333D01*
X120414429Y-44977667D01*
X120631254Y-45086209D01*
X121158013Y-45353007D01*
X121559214Y-45554482D01*
X121860146Y-45702244D01*
X122086102Y-45807900D01*
X122262371Y-45883060D01*
X122414245Y-45939331D01*
X122567013Y-45988323D01*
X122652502Y-46013974D01*
X123091759Y-46176144D01*
X123403168Y-46373732D01*
X123628010Y-46633902D01*
X123651597Y-46671377D01*
X123808701Y-46929000D01*
X123807158Y-46632667D01*
X123745944Y-46271803D01*
X123581082Y-45853947D01*
X123335841Y-45434210D01*
X123252850Y-45319796D01*
X123127077Y-45122471D01*
X123127575Y-45031177D01*
X123248413Y-45046139D01*
X123483656Y-45167581D01*
X123694256Y-45303148D01*
X124102134Y-45670263D01*
X124317162Y-46001648D01*
X124528657Y-46421000D01*
X124577433Y-46124667D01*
X124626208Y-45828334D01*
X124817945Y-46251667D01*
X124951899Y-46637842D01*
X124978045Y-47002688D01*
X124973011Y-47069456D01*
X124961028Y-47311599D01*
X124988914Y-47416951D01*
X125050170Y-47420231D01*
X125139954Y-47444304D01*
X125160222Y-47592113D01*
X125111788Y-47833359D01*
X125033172Y-48051889D01*
X124955691Y-48259703D01*
X124952348Y-48373931D01*
X125023144Y-48453228D01*
X125033172Y-48460670D01*
X125137739Y-48582798D01*
X125160899Y-48700477D01*
X125095516Y-48749334D01*
X124978488Y-48794447D01*
X124877476Y-48858691D01*
X124789924Y-48938475D01*
X124772520Y-49035612D01*
X124824228Y-49206537D01*
X124869001Y-49320645D01*
X124962604Y-49689344D01*
X124971313Y-50132480D01*
X124893195Y-50670845D01*
X124726315Y-51325228D01*
X124663175Y-51532855D01*
X124519082Y-51993707D01*
X124423382Y-52323757D01*
X124376810Y-52554691D01*
X124380102Y-52718197D01*
X124433991Y-52845960D01*
X124539213Y-52969666D01*
X124696502Y-53121003D01*
X124700078Y-53124427D01*
X124929644Y-53349966D01*
X125044373Y-53484873D01*
X125055152Y-53551952D01*
X124972865Y-53574009D01*
X124915324Y-53575334D01*
X124807582Y-53601028D01*
X124779743Y-53709400D01*
X124797655Y-53860903D01*
X124804766Y-54081758D01*
X124750828Y-54204044D01*
X124749998Y-54204566D01*
X124671864Y-54190225D01*
X124655580Y-54109497D01*
X124603959Y-53946414D01*
X124477256Y-53740920D01*
X124446958Y-53702334D01*
X124238757Y-53448334D01*
X124235712Y-53770830D01*
X124214772Y-53974185D01*
X124163348Y-54046286D01*
X124148000Y-54041000D01*
X124079718Y-53922986D01*
X124063105Y-53803170D01*
X124049426Y-53713349D01*
X123992303Y-53720404D01*
X123867108Y-53837209D01*
X123745605Y-53969169D01*
X123218480Y-54446816D01*
X122592545Y-54812079D01*
X122027094Y-55027116D01*
X121736075Y-55110163D01*
X121461644Y-55166230D01*
X121158859Y-55200093D01*
X120782783Y-55216527D01*
X120288476Y-55220307D01*
X120211000Y-55220111D01*
X119453132Y-55196052D01*
X118824823Y-55124011D01*
X118291059Y-54995865D01*
X117816823Y-54803495D01*
X117417000Y-54572049D01*
X117177788Y-54404563D01*
X117047792Y-54268423D01*
X116990177Y-54109288D01*
X116970476Y-53913346D01*
X116974763Y-53874153D01*
X117133555Y-53874153D01*
X117201021Y-54166488D01*
X117311167Y-54317248D01*
X117718582Y-54603750D01*
X118254093Y-54836618D01*
X118883466Y-55010407D01*
X119572467Y-55119675D01*
X120286862Y-55158981D01*
X120992417Y-55122881D01*
X121650334Y-55007084D01*
X122028257Y-54895749D01*
X122396079Y-54759694D01*
X122710115Y-54617712D01*
X122926681Y-54488598D01*
X122986749Y-54432150D01*
X123135230Y-54295012D01*
X123331960Y-54169797D01*
X123526228Y-54025290D01*
X123643095Y-53863528D01*
X123746659Y-53680353D01*
X123909943Y-53469445D01*
X123934666Y-53442132D01*
X124094810Y-53290912D01*
X124212075Y-53256369D01*
X124320883Y-53303901D01*
X124511852Y-53399527D01*
X124582811Y-53380836D01*
X124529553Y-53257055D01*
X124410771Y-53106721D01*
X124258091Y-52910623D01*
X124179082Y-52724324D01*
X124150568Y-52476878D01*
X124148000Y-52302387D01*
X124160921Y-52033002D01*
X124194637Y-51850497D01*
X124232667Y-51797334D01*
X124316932Y-51864819D01*
X124325773Y-51903167D01*
X124346019Y-51952653D01*
X124380408Y-51875154D01*
X124419689Y-51711397D01*
X124454614Y-51502107D01*
X124475935Y-51288009D01*
X124478228Y-51231881D01*
X124513942Y-50974745D01*
X124592384Y-50778515D01*
X124617192Y-50747571D01*
X124805940Y-50458568D01*
X124865145Y-50091246D01*
X124795022Y-49634355D01*
X124647058Y-49199528D01*
X124584885Y-49006259D01*
X124615817Y-48884183D01*
X124740346Y-48766619D01*
X124942183Y-48603181D01*
X124760113Y-48505741D01*
X124578043Y-48408300D01*
X124786355Y-48101335D01*
X124939697Y-47855763D01*
X124982468Y-47724787D01*
X124914653Y-47694741D01*
X124785998Y-47732194D01*
X124598535Y-47771269D01*
X124538050Y-47699733D01*
X124605662Y-47520254D01*
X124660263Y-47431718D01*
X124773036Y-47168771D01*
X124821415Y-46862516D01*
X124797976Y-46588351D01*
X124753834Y-46481739D01*
X124687908Y-46467942D01*
X124606919Y-46616747D01*
X124573171Y-46711766D01*
X124476111Y-46935758D01*
X124394688Y-46993904D01*
X124338548Y-46889584D01*
X124317337Y-46626178D01*
X124317334Y-46622104D01*
X124278845Y-46272607D01*
X124144463Y-45971888D01*
X123910148Y-45680167D01*
X123725627Y-45501675D01*
X123636460Y-45463014D01*
X123643531Y-45563481D01*
X123747724Y-45802377D01*
X123750109Y-45807167D01*
X123838028Y-46052878D01*
X123900587Y-46359862D01*
X123934861Y-46682338D01*
X123937922Y-46974525D01*
X123906847Y-47190641D01*
X123844445Y-47283336D01*
X123758273Y-47232846D01*
X123646402Y-47068846D01*
X123595979Y-46967589D01*
X123355711Y-46585831D01*
X123024060Y-46332970D01*
X122676447Y-46207053D01*
X122490809Y-46141635D01*
X122185353Y-46012617D01*
X121790810Y-45833913D01*
X121337914Y-45619435D01*
X120865516Y-45387168D01*
X120356397Y-45133345D01*
X119968416Y-44945465D01*
X119671676Y-44812902D01*
X119436283Y-44725031D01*
X119232339Y-44671224D01*
X119029951Y-44640855D01*
X118799222Y-44623299D01*
X118701432Y-44617962D01*
X118348407Y-44603669D01*
X118117273Y-44611480D01*
X117961145Y-44649792D01*
X117833137Y-44727000D01*
X117760877Y-44786376D01*
X117600435Y-44966068D01*
X117513926Y-45194416D01*
X117480463Y-45426557D01*
X117465700Y-45840560D01*
X117522724Y-46152930D01*
X117664038Y-46420652D01*
X117712885Y-46485867D01*
X117885450Y-46705247D01*
X118148688Y-46464815D01*
X118470787Y-46274711D01*
X118909139Y-46166881D01*
X119432667Y-46140129D01*
X120010292Y-46193264D01*
X120610933Y-46325090D01*
X121203513Y-46534415D01*
X121320907Y-46586666D01*
X121677503Y-46737684D01*
X122025051Y-46861698D01*
X122300210Y-46936632D01*
X122348834Y-46944915D01*
X122568397Y-46992844D01*
X122695777Y-47055032D01*
X122708667Y-47079302D01*
X122636119Y-47135579D01*
X122440679Y-47133665D01*
X122155659Y-47080752D01*
X121814368Y-46984036D01*
X121450115Y-46850709D01*
X121253468Y-46765035D01*
X120554423Y-46506037D01*
X119841443Y-46361598D01*
X119162929Y-46339856D01*
X118899919Y-46369263D01*
X118626625Y-46427426D01*
X118421652Y-46520207D01*
X118222168Y-46684306D01*
X118045763Y-46868202D01*
X117637339Y-47421259D01*
X117391040Y-48019665D01*
X117303489Y-48672958D01*
X117311429Y-48941685D01*
X117378824Y-49433564D01*
X117506250Y-49985137D01*
X117675783Y-50536927D01*
X117869494Y-51029457D01*
X118039113Y-51356027D01*
X118245428Y-51614889D01*
X118522714Y-51872674D01*
X118681463Y-51988715D01*
X119099259Y-52258377D01*
X120332463Y-52235431D01*
X121026443Y-52210042D01*
X121586146Y-52158201D01*
X122045463Y-52073275D01*
X122438287Y-51948633D01*
X122798509Y-51777642D01*
X122865260Y-51739832D01*
X123122087Y-51615573D01*
X123284309Y-51590632D01*
X123313297Y-51606097D01*
X123284501Y-51683119D01*
X123111257Y-51812030D01*
X122806876Y-51983185D01*
X122758670Y-52007882D01*
X122124265Y-52329890D01*
X120490299Y-52398711D01*
X119796388Y-52429802D01*
X119248369Y-52459652D01*
X118822849Y-52491007D01*
X118496432Y-52526615D01*
X118245726Y-52569222D01*
X118047337Y-52621575D01*
X117877869Y-52686421D01*
X117822293Y-52711987D01*
X117532350Y-52919696D01*
X117312235Y-53209879D01*
X117174964Y-53541657D01*
X117133555Y-53874153D01*
X116974763Y-53874153D01*
X117022404Y-53438660D01*
X117126466Y-53175237D01*
X117376133Y-52824076D01*
X117735446Y-52568422D01*
X118227027Y-52392739D01*
X118286860Y-52378386D01*
X118719018Y-52278632D01*
X118412476Y-52035023D01*
X118071517Y-51706819D01*
X117799807Y-51304593D01*
X117566038Y-50781611D01*
X117557573Y-50758971D01*
X117283115Y-49862197D01*
X117153214Y-49039818D01*
X117167794Y-48295390D01*
X117326778Y-47632469D01*
X117630089Y-47054613D01*
X117637336Y-47044357D01*
X117737818Y-46881763D01*
X117734876Y-46784238D01*
X117664402Y-46711857D01*
X117467430Y-46451643D01*
X117339049Y-46085698D01*
X117286147Y-45665983D01*
X117315613Y-45244460D01*
X117423540Y-44895178D01*
X117522959Y-44717328D01*
X117643921Y-44601967D01*
X117827182Y-44530066D01*
X118113497Y-44482597D01*
X118348407Y-44458366D01*
X118362107Y-44456952D01*
X118732457Y-44441936D01*
X119086745Y-44476484D01*
G37*
M02*
