G04 #@! TF.GenerationSoftware,KiCad,Pcbnew,7.0.6*
G04 #@! TF.CreationDate,2023-09-16T08:01:29+12:00*
G04 #@! TF.ProjectId,covers,636f7665-7273-42e6-9b69-6361645f7063,rev?*
G04 #@! TF.SameCoordinates,Original*
G04 #@! TF.FileFunction,Soldermask,Bot*
G04 #@! TF.FilePolarity,Negative*
%FSLAX46Y46*%
G04 Gerber Fmt 4.6, Leading zero omitted, Abs format (unit mm)*
G04 Created by KiCad (PCBNEW 7.0.6) date 2023-09-16 08:01:29*
%MOMM*%
%LPD*%
G01*
G04 APERTURE LIST*
G04 APERTURE END LIST*
G36*
X109249903Y-182941528D02*
G01*
X109541950Y-183016513D01*
X109822296Y-183127510D01*
X110086520Y-183272769D01*
X110330455Y-183449998D01*
X110550254Y-183656402D01*
X110742450Y-183888728D01*
X110904012Y-184143309D01*
X111032393Y-184416133D01*
X111125568Y-184702896D01*
X111182067Y-184999075D01*
X111201000Y-185300000D01*
X111182067Y-185600925D01*
X111125568Y-185897104D01*
X111032393Y-186183867D01*
X110904012Y-186456691D01*
X110742450Y-186711272D01*
X110550254Y-186943598D01*
X110330455Y-187150002D01*
X110086520Y-187327231D01*
X109822296Y-187472490D01*
X109541950Y-187583487D01*
X109249903Y-187658472D01*
X108950760Y-187696262D01*
X108649240Y-187696262D01*
X108350097Y-187658472D01*
X108058050Y-187583487D01*
X107777704Y-187472490D01*
X107513480Y-187327231D01*
X107269545Y-187150002D01*
X107049746Y-186943598D01*
X106857550Y-186711272D01*
X106695988Y-186456691D01*
X106567607Y-186183867D01*
X106474432Y-185897104D01*
X106417933Y-185600925D01*
X106399000Y-185300000D01*
X106417933Y-184999075D01*
X106474432Y-184702896D01*
X106567607Y-184416133D01*
X106695988Y-184143309D01*
X106857550Y-183888728D01*
X107049746Y-183656402D01*
X107269545Y-183449998D01*
X107513480Y-183272769D01*
X107777704Y-183127510D01*
X108058050Y-183016513D01*
X108350097Y-182941528D01*
X108649240Y-182903738D01*
X108950760Y-182903738D01*
X109249903Y-182941528D01*
G37*
G36*
X132649903Y-182941528D02*
G01*
X132941950Y-183016513D01*
X133222296Y-183127510D01*
X133486520Y-183272769D01*
X133730455Y-183449998D01*
X133950254Y-183656402D01*
X134142450Y-183888728D01*
X134304012Y-184143309D01*
X134432393Y-184416133D01*
X134525568Y-184702896D01*
X134582067Y-184999075D01*
X134601000Y-185300000D01*
X134582067Y-185600925D01*
X134525568Y-185897104D01*
X134432393Y-186183867D01*
X134304012Y-186456691D01*
X134142450Y-186711272D01*
X133950254Y-186943598D01*
X133730455Y-187150002D01*
X133486520Y-187327231D01*
X133222296Y-187472490D01*
X132941950Y-187583487D01*
X132649903Y-187658472D01*
X132350760Y-187696262D01*
X132049240Y-187696262D01*
X131750097Y-187658472D01*
X131458050Y-187583487D01*
X131177704Y-187472490D01*
X130913480Y-187327231D01*
X130669545Y-187150002D01*
X130449746Y-186943598D01*
X130257550Y-186711272D01*
X130095988Y-186456691D01*
X129967607Y-186183867D01*
X129874432Y-185897104D01*
X129817933Y-185600925D01*
X129799000Y-185300000D01*
X129817933Y-184999075D01*
X129874432Y-184702896D01*
X129967607Y-184416133D01*
X130095988Y-184143309D01*
X130257550Y-183888728D01*
X130449746Y-183656402D01*
X130669545Y-183449998D01*
X130913480Y-183272769D01*
X131177704Y-183127510D01*
X131458050Y-183016513D01*
X131750097Y-182941528D01*
X132049240Y-182903738D01*
X132350760Y-182903738D01*
X132649903Y-182941528D01*
G37*
G36*
X109249903Y-114941528D02*
G01*
X109541950Y-115016513D01*
X109822296Y-115127510D01*
X110086520Y-115272769D01*
X110330455Y-115449998D01*
X110550254Y-115656402D01*
X110742450Y-115888728D01*
X110904012Y-116143309D01*
X111032393Y-116416133D01*
X111125568Y-116702896D01*
X111182067Y-116999075D01*
X111201000Y-117300000D01*
X111182067Y-117600925D01*
X111125568Y-117897104D01*
X111032393Y-118183867D01*
X110904012Y-118456691D01*
X110742450Y-118711272D01*
X110550254Y-118943598D01*
X110330455Y-119150002D01*
X110086520Y-119327231D01*
X109822296Y-119472490D01*
X109541950Y-119583487D01*
X109249903Y-119658472D01*
X108950760Y-119696262D01*
X108649240Y-119696262D01*
X108350097Y-119658472D01*
X108058050Y-119583487D01*
X107777704Y-119472490D01*
X107513480Y-119327231D01*
X107269545Y-119150002D01*
X107049746Y-118943598D01*
X106857550Y-118711272D01*
X106695988Y-118456691D01*
X106567607Y-118183867D01*
X106474432Y-117897104D01*
X106417933Y-117600925D01*
X106399000Y-117300000D01*
X106417933Y-116999075D01*
X106474432Y-116702896D01*
X106567607Y-116416133D01*
X106695988Y-116143309D01*
X106857550Y-115888728D01*
X107049746Y-115656402D01*
X107269545Y-115449998D01*
X107513480Y-115272769D01*
X107777704Y-115127510D01*
X108058050Y-115016513D01*
X108350097Y-114941528D01*
X108649240Y-114903738D01*
X108950760Y-114903738D01*
X109249903Y-114941528D01*
G37*
G36*
X132599903Y-114941528D02*
G01*
X132891950Y-115016513D01*
X133172296Y-115127510D01*
X133436520Y-115272769D01*
X133680455Y-115449998D01*
X133900254Y-115656402D01*
X134092450Y-115888728D01*
X134254012Y-116143309D01*
X134382393Y-116416133D01*
X134475568Y-116702896D01*
X134532067Y-116999075D01*
X134551000Y-117300000D01*
X134532067Y-117600925D01*
X134475568Y-117897104D01*
X134382393Y-118183867D01*
X134254012Y-118456691D01*
X134092450Y-118711272D01*
X133900254Y-118943598D01*
X133680455Y-119150002D01*
X133436520Y-119327231D01*
X133172296Y-119472490D01*
X132891950Y-119583487D01*
X132599903Y-119658472D01*
X132300760Y-119696262D01*
X131999240Y-119696262D01*
X131700097Y-119658472D01*
X131408050Y-119583487D01*
X131127704Y-119472490D01*
X130863480Y-119327231D01*
X130619545Y-119150002D01*
X130399746Y-118943598D01*
X130207550Y-118711272D01*
X130045988Y-118456691D01*
X129917607Y-118183867D01*
X129824432Y-117897104D01*
X129767933Y-117600925D01*
X129749000Y-117300000D01*
X129767933Y-116999075D01*
X129824432Y-116702896D01*
X129917607Y-116416133D01*
X130045988Y-116143309D01*
X130207550Y-115888728D01*
X130399746Y-115656402D01*
X130619545Y-115449998D01*
X130863480Y-115272769D01*
X131127704Y-115127510D01*
X131408050Y-115016513D01*
X131700097Y-114941528D01*
X131999240Y-114903738D01*
X132300760Y-114903738D01*
X132599903Y-114941528D01*
G37*
G36*
X109249903Y-107691528D02*
G01*
X109541950Y-107766513D01*
X109822296Y-107877510D01*
X110086520Y-108022769D01*
X110330455Y-108199998D01*
X110550254Y-108406402D01*
X110742450Y-108638728D01*
X110904012Y-108893309D01*
X111032393Y-109166133D01*
X111125568Y-109452896D01*
X111182067Y-109749075D01*
X111201000Y-110050000D01*
X111182067Y-110350925D01*
X111125568Y-110647104D01*
X111032393Y-110933867D01*
X110904012Y-111206691D01*
X110742450Y-111461272D01*
X110550254Y-111693598D01*
X110330455Y-111900002D01*
X110086520Y-112077231D01*
X109822296Y-112222490D01*
X109541950Y-112333487D01*
X109249903Y-112408472D01*
X108950760Y-112446262D01*
X108649240Y-112446262D01*
X108350097Y-112408472D01*
X108058050Y-112333487D01*
X107777704Y-112222490D01*
X107513480Y-112077231D01*
X107269545Y-111900002D01*
X107049746Y-111693598D01*
X106857550Y-111461272D01*
X106695988Y-111206691D01*
X106567607Y-110933867D01*
X106474432Y-110647104D01*
X106417933Y-110350925D01*
X106399000Y-110050000D01*
X106417933Y-109749075D01*
X106474432Y-109452896D01*
X106567607Y-109166133D01*
X106695988Y-108893309D01*
X106857550Y-108638728D01*
X107049746Y-108406402D01*
X107269545Y-108199998D01*
X107513480Y-108022769D01*
X107777704Y-107877510D01*
X108058050Y-107766513D01*
X108350097Y-107691528D01*
X108649240Y-107653738D01*
X108950760Y-107653738D01*
X109249903Y-107691528D01*
G37*
G36*
X132649903Y-107691528D02*
G01*
X132941950Y-107766513D01*
X133222296Y-107877510D01*
X133486520Y-108022769D01*
X133730455Y-108199998D01*
X133950254Y-108406402D01*
X134142450Y-108638728D01*
X134304012Y-108893309D01*
X134432393Y-109166133D01*
X134525568Y-109452896D01*
X134582067Y-109749075D01*
X134601000Y-110050000D01*
X134582067Y-110350925D01*
X134525568Y-110647104D01*
X134432393Y-110933867D01*
X134304012Y-111206691D01*
X134142450Y-111461272D01*
X133950254Y-111693598D01*
X133730455Y-111900002D01*
X133486520Y-112077231D01*
X133222296Y-112222490D01*
X132941950Y-112333487D01*
X132649903Y-112408472D01*
X132350760Y-112446262D01*
X132049240Y-112446262D01*
X131750097Y-112408472D01*
X131458050Y-112333487D01*
X131177704Y-112222490D01*
X130913480Y-112077231D01*
X130669545Y-111900002D01*
X130449746Y-111693598D01*
X130257550Y-111461272D01*
X130095988Y-111206691D01*
X129967607Y-110933867D01*
X129874432Y-110647104D01*
X129817933Y-110350925D01*
X129799000Y-110050000D01*
X129817933Y-109749075D01*
X129874432Y-109452896D01*
X129967607Y-109166133D01*
X130095988Y-108893309D01*
X130257550Y-108638728D01*
X130449746Y-108406402D01*
X130669545Y-108199998D01*
X130913480Y-108022769D01*
X131177704Y-107877510D01*
X131458050Y-107766513D01*
X131750097Y-107691528D01*
X132049240Y-107653738D01*
X132350760Y-107653738D01*
X132649903Y-107691528D01*
G37*
G36*
X109249903Y-39691528D02*
G01*
X109541950Y-39766513D01*
X109822296Y-39877510D01*
X110086520Y-40022769D01*
X110330455Y-40199998D01*
X110550254Y-40406402D01*
X110742450Y-40638728D01*
X110904012Y-40893309D01*
X111032393Y-41166133D01*
X111125568Y-41452896D01*
X111182067Y-41749075D01*
X111201000Y-42050000D01*
X111182067Y-42350925D01*
X111125568Y-42647104D01*
X111032393Y-42933867D01*
X110904012Y-43206691D01*
X110742450Y-43461272D01*
X110550254Y-43693598D01*
X110330455Y-43900002D01*
X110086520Y-44077231D01*
X109822296Y-44222490D01*
X109541950Y-44333487D01*
X109249903Y-44408472D01*
X108950760Y-44446262D01*
X108649240Y-44446262D01*
X108350097Y-44408472D01*
X108058050Y-44333487D01*
X107777704Y-44222490D01*
X107513480Y-44077231D01*
X107269545Y-43900002D01*
X107049746Y-43693598D01*
X106857550Y-43461272D01*
X106695988Y-43206691D01*
X106567607Y-42933867D01*
X106474432Y-42647104D01*
X106417933Y-42350925D01*
X106399000Y-42050000D01*
X106417933Y-41749075D01*
X106474432Y-41452896D01*
X106567607Y-41166133D01*
X106695988Y-40893309D01*
X106857550Y-40638728D01*
X107049746Y-40406402D01*
X107269545Y-40199998D01*
X107513480Y-40022769D01*
X107777704Y-39877510D01*
X108058050Y-39766513D01*
X108350097Y-39691528D01*
X108649240Y-39653738D01*
X108950760Y-39653738D01*
X109249903Y-39691528D01*
G37*
G36*
X132599903Y-39691528D02*
G01*
X132891950Y-39766513D01*
X133172296Y-39877510D01*
X133436520Y-40022769D01*
X133680455Y-40199998D01*
X133900254Y-40406402D01*
X134092450Y-40638728D01*
X134254012Y-40893309D01*
X134382393Y-41166133D01*
X134475568Y-41452896D01*
X134532067Y-41749075D01*
X134551000Y-42050000D01*
X134532067Y-42350925D01*
X134475568Y-42647104D01*
X134382393Y-42933867D01*
X134254012Y-43206691D01*
X134092450Y-43461272D01*
X133900254Y-43693598D01*
X133680455Y-43900002D01*
X133436520Y-44077231D01*
X133172296Y-44222490D01*
X132891950Y-44333487D01*
X132599903Y-44408472D01*
X132300760Y-44446262D01*
X131999240Y-44446262D01*
X131700097Y-44408472D01*
X131408050Y-44333487D01*
X131127704Y-44222490D01*
X130863480Y-44077231D01*
X130619545Y-43900002D01*
X130399746Y-43693598D01*
X130207550Y-43461272D01*
X130045988Y-43206691D01*
X129917607Y-42933867D01*
X129824432Y-42647104D01*
X129767933Y-42350925D01*
X129749000Y-42050000D01*
X129767933Y-41749075D01*
X129824432Y-41452896D01*
X129917607Y-41166133D01*
X130045988Y-40893309D01*
X130207550Y-40638728D01*
X130399746Y-40406402D01*
X130619545Y-40199998D01*
X130863480Y-40022769D01*
X131127704Y-39877510D01*
X131408050Y-39766513D01*
X131700097Y-39691528D01*
X131999240Y-39653738D01*
X132300760Y-39653738D01*
X132599903Y-39691528D01*
G37*
M02*
