G04 #@! TF.GenerationSoftware,KiCad,Pcbnew,(5.1.9)-1*
G04 #@! TF.CreationDate,2021-06-14T15:24:24+12:00*
G04 #@! TF.ProjectId,rgbntsc,7267626e-7473-4632-9e6b-696361645f70,rev?*
G04 #@! TF.SameCoordinates,Original*
G04 #@! TF.FileFunction,Paste,Top*
G04 #@! TF.FilePolarity,Positive*
%FSLAX46Y46*%
G04 Gerber Fmt 4.6, Leading zero omitted, Abs format (unit mm)*
G04 Created by KiCad (PCBNEW (5.1.9)-1) date 2021-06-14 15:24:24*
%MOMM*%
%LPD*%
G01*
G04 APERTURE LIST*
%ADD10R,0.300000X1.400000*%
%ADD11R,0.800000X0.900000*%
%ADD12R,1.060000X0.650000*%
%ADD13R,1.100000X1.300000*%
G04 APERTURE END LIST*
G36*
G01*
X54449998Y-74300000D02*
X55350002Y-74300000D01*
G75*
G02*
X55600000Y-74549998I0J-249998D01*
G01*
X55600000Y-75075002D01*
G75*
G02*
X55350002Y-75325000I-249998J0D01*
G01*
X54449998Y-75325000D01*
G75*
G02*
X54200000Y-75075002I0J249998D01*
G01*
X54200000Y-74549998D01*
G75*
G02*
X54449998Y-74300000I249998J0D01*
G01*
G37*
G36*
G01*
X54449998Y-72475000D02*
X55350002Y-72475000D01*
G75*
G02*
X55600000Y-72724998I0J-249998D01*
G01*
X55600000Y-73250002D01*
G75*
G02*
X55350002Y-73500000I-249998J0D01*
G01*
X54449998Y-73500000D01*
G75*
G02*
X54200000Y-73250002I0J249998D01*
G01*
X54200000Y-72724998D01*
G75*
G02*
X54449998Y-72475000I249998J0D01*
G01*
G37*
G36*
G01*
X53990000Y-45450001D02*
X53990000Y-44549999D01*
G75*
G02*
X54239999Y-44300000I249999J0D01*
G01*
X54765001Y-44300000D01*
G75*
G02*
X55015000Y-44549999I0J-249999D01*
G01*
X55015000Y-45450001D01*
G75*
G02*
X54765001Y-45700000I-249999J0D01*
G01*
X54239999Y-45700000D01*
G75*
G02*
X53990000Y-45450001I0J249999D01*
G01*
G37*
G36*
G01*
X52165000Y-45450001D02*
X52165000Y-44549999D01*
G75*
G02*
X52414999Y-44300000I249999J0D01*
G01*
X52940001Y-44300000D01*
G75*
G02*
X53190000Y-44549999I0J-249999D01*
G01*
X53190000Y-45450001D01*
G75*
G02*
X52940001Y-45700000I-249999J0D01*
G01*
X52414999Y-45700000D01*
G75*
G02*
X52165000Y-45450001I0J249999D01*
G01*
G37*
G36*
G01*
X57550000Y-44543750D02*
X57550000Y-45456250D01*
G75*
G02*
X57306250Y-45700000I-243750J0D01*
G01*
X56818750Y-45700000D01*
G75*
G02*
X56575000Y-45456250I0J243750D01*
G01*
X56575000Y-44543750D01*
G75*
G02*
X56818750Y-44300000I243750J0D01*
G01*
X57306250Y-44300000D01*
G75*
G02*
X57550000Y-44543750I0J-243750D01*
G01*
G37*
G36*
G01*
X59425000Y-44543750D02*
X59425000Y-45456250D01*
G75*
G02*
X59181250Y-45700000I-243750J0D01*
G01*
X58693750Y-45700000D01*
G75*
G02*
X58450000Y-45456250I0J243750D01*
G01*
X58450000Y-44543750D01*
G75*
G02*
X58693750Y-44300000I243750J0D01*
G01*
X59181250Y-44300000D01*
G75*
G02*
X59425000Y-44543750I0J-243750D01*
G01*
G37*
G36*
G01*
X54100000Y-89450001D02*
X54100000Y-88549999D01*
G75*
G02*
X54349999Y-88300000I249999J0D01*
G01*
X54875001Y-88300000D01*
G75*
G02*
X55125000Y-88549999I0J-249999D01*
G01*
X55125000Y-89450001D01*
G75*
G02*
X54875001Y-89700000I-249999J0D01*
G01*
X54349999Y-89700000D01*
G75*
G02*
X54100000Y-89450001I0J249999D01*
G01*
G37*
G36*
G01*
X52275000Y-89450001D02*
X52275000Y-88549999D01*
G75*
G02*
X52524999Y-88300000I249999J0D01*
G01*
X53050001Y-88300000D01*
G75*
G02*
X53300000Y-88549999I0J-249999D01*
G01*
X53300000Y-89450001D01*
G75*
G02*
X53050001Y-89700000I-249999J0D01*
G01*
X52524999Y-89700000D01*
G75*
G02*
X52275000Y-89450001I0J249999D01*
G01*
G37*
G36*
G01*
X32450000Y-43975000D02*
X32450000Y-43025000D01*
G75*
G02*
X32700000Y-42775000I250000J0D01*
G01*
X33200000Y-42775000D01*
G75*
G02*
X33450000Y-43025000I0J-250000D01*
G01*
X33450000Y-43975000D01*
G75*
G02*
X33200000Y-44225000I-250000J0D01*
G01*
X32700000Y-44225000D01*
G75*
G02*
X32450000Y-43975000I0J250000D01*
G01*
G37*
G36*
G01*
X30550000Y-43975000D02*
X30550000Y-43025000D01*
G75*
G02*
X30800000Y-42775000I250000J0D01*
G01*
X31300000Y-42775000D01*
G75*
G02*
X31550000Y-43025000I0J-250000D01*
G01*
X31550000Y-43975000D01*
G75*
G02*
X31300000Y-44225000I-250000J0D01*
G01*
X30800000Y-44225000D01*
G75*
G02*
X30550000Y-43975000I0J250000D01*
G01*
G37*
G36*
G01*
X45949998Y-92400000D02*
X46850002Y-92400000D01*
G75*
G02*
X47100000Y-92649998I0J-249998D01*
G01*
X47100000Y-93175002D01*
G75*
G02*
X46850002Y-93425000I-249998J0D01*
G01*
X45949998Y-93425000D01*
G75*
G02*
X45700000Y-93175002I0J249998D01*
G01*
X45700000Y-92649998D01*
G75*
G02*
X45949998Y-92400000I249998J0D01*
G01*
G37*
G36*
G01*
X45949998Y-90575000D02*
X46850002Y-90575000D01*
G75*
G02*
X47100000Y-90824998I0J-249998D01*
G01*
X47100000Y-91350002D01*
G75*
G02*
X46850002Y-91600000I-249998J0D01*
G01*
X45949998Y-91600000D01*
G75*
G02*
X45700000Y-91350002I0J249998D01*
G01*
X45700000Y-90824998D01*
G75*
G02*
X45949998Y-90575000I249998J0D01*
G01*
G37*
G36*
G01*
X43949998Y-92400000D02*
X44850002Y-92400000D01*
G75*
G02*
X45100000Y-92649998I0J-249998D01*
G01*
X45100000Y-93175002D01*
G75*
G02*
X44850002Y-93425000I-249998J0D01*
G01*
X43949998Y-93425000D01*
G75*
G02*
X43700000Y-93175002I0J249998D01*
G01*
X43700000Y-92649998D01*
G75*
G02*
X43949998Y-92400000I249998J0D01*
G01*
G37*
G36*
G01*
X43949998Y-90575000D02*
X44850002Y-90575000D01*
G75*
G02*
X45100000Y-90824998I0J-249998D01*
G01*
X45100000Y-91350002D01*
G75*
G02*
X44850002Y-91600000I-249998J0D01*
G01*
X43949998Y-91600000D01*
G75*
G02*
X43700000Y-91350002I0J249998D01*
G01*
X43700000Y-90824998D01*
G75*
G02*
X43949998Y-90575000I249998J0D01*
G01*
G37*
G36*
G01*
X41949998Y-92400000D02*
X42850002Y-92400000D01*
G75*
G02*
X43100000Y-92649998I0J-249998D01*
G01*
X43100000Y-93175002D01*
G75*
G02*
X42850002Y-93425000I-249998J0D01*
G01*
X41949998Y-93425000D01*
G75*
G02*
X41700000Y-93175002I0J249998D01*
G01*
X41700000Y-92649998D01*
G75*
G02*
X41949998Y-92400000I249998J0D01*
G01*
G37*
G36*
G01*
X41949998Y-90575000D02*
X42850002Y-90575000D01*
G75*
G02*
X43100000Y-90824998I0J-249998D01*
G01*
X43100000Y-91350002D01*
G75*
G02*
X42850002Y-91600000I-249998J0D01*
G01*
X41949998Y-91600000D01*
G75*
G02*
X41700000Y-91350002I0J249998D01*
G01*
X41700000Y-90824998D01*
G75*
G02*
X41949998Y-90575000I249998J0D01*
G01*
G37*
G36*
G01*
X63050000Y-51550000D02*
X63050000Y-50450000D01*
G75*
G02*
X63300000Y-50200000I250000J0D01*
G01*
X66300000Y-50200000D01*
G75*
G02*
X66550000Y-50450000I0J-250000D01*
G01*
X66550000Y-51550000D01*
G75*
G02*
X66300000Y-51800000I-250000J0D01*
G01*
X63300000Y-51800000D01*
G75*
G02*
X63050000Y-51550000I0J250000D01*
G01*
G37*
G36*
G01*
X57450000Y-51550000D02*
X57450000Y-50450000D01*
G75*
G02*
X57700000Y-50200000I250000J0D01*
G01*
X60700000Y-50200000D01*
G75*
G02*
X60950000Y-50450000I0J-250000D01*
G01*
X60950000Y-51550000D01*
G75*
G02*
X60700000Y-51800000I-250000J0D01*
G01*
X57700000Y-51800000D01*
G75*
G02*
X57450000Y-51550000I0J250000D01*
G01*
G37*
G36*
G01*
X45925000Y-89050000D02*
X46875000Y-89050000D01*
G75*
G02*
X47125000Y-89300000I0J-250000D01*
G01*
X47125000Y-89800000D01*
G75*
G02*
X46875000Y-90050000I-250000J0D01*
G01*
X45925000Y-90050000D01*
G75*
G02*
X45675000Y-89800000I0J250000D01*
G01*
X45675000Y-89300000D01*
G75*
G02*
X45925000Y-89050000I250000J0D01*
G01*
G37*
G36*
G01*
X45925000Y-87150000D02*
X46875000Y-87150000D01*
G75*
G02*
X47125000Y-87400000I0J-250000D01*
G01*
X47125000Y-87900000D01*
G75*
G02*
X46875000Y-88150000I-250000J0D01*
G01*
X45925000Y-88150000D01*
G75*
G02*
X45675000Y-87900000I0J250000D01*
G01*
X45675000Y-87400000D01*
G75*
G02*
X45925000Y-87150000I250000J0D01*
G01*
G37*
G36*
G01*
X43925000Y-89050000D02*
X44875000Y-89050000D01*
G75*
G02*
X45125000Y-89300000I0J-250000D01*
G01*
X45125000Y-89800000D01*
G75*
G02*
X44875000Y-90050000I-250000J0D01*
G01*
X43925000Y-90050000D01*
G75*
G02*
X43675000Y-89800000I0J250000D01*
G01*
X43675000Y-89300000D01*
G75*
G02*
X43925000Y-89050000I250000J0D01*
G01*
G37*
G36*
G01*
X43925000Y-87150000D02*
X44875000Y-87150000D01*
G75*
G02*
X45125000Y-87400000I0J-250000D01*
G01*
X45125000Y-87900000D01*
G75*
G02*
X44875000Y-88150000I-250000J0D01*
G01*
X43925000Y-88150000D01*
G75*
G02*
X43675000Y-87900000I0J250000D01*
G01*
X43675000Y-87400000D01*
G75*
G02*
X43925000Y-87150000I250000J0D01*
G01*
G37*
G36*
G01*
X41925000Y-89050000D02*
X42875000Y-89050000D01*
G75*
G02*
X43125000Y-89300000I0J-250000D01*
G01*
X43125000Y-89800000D01*
G75*
G02*
X42875000Y-90050000I-250000J0D01*
G01*
X41925000Y-90050000D01*
G75*
G02*
X41675000Y-89800000I0J250000D01*
G01*
X41675000Y-89300000D01*
G75*
G02*
X41925000Y-89050000I250000J0D01*
G01*
G37*
G36*
G01*
X41925000Y-87150000D02*
X42875000Y-87150000D01*
G75*
G02*
X43125000Y-87400000I0J-250000D01*
G01*
X43125000Y-87900000D01*
G75*
G02*
X42875000Y-88150000I-250000J0D01*
G01*
X41925000Y-88150000D01*
G75*
G02*
X41675000Y-87900000I0J250000D01*
G01*
X41675000Y-87400000D01*
G75*
G02*
X41925000Y-87150000I250000J0D01*
G01*
G37*
G36*
G01*
X46775000Y-96650000D02*
X45825000Y-96650000D01*
G75*
G02*
X45575000Y-96400000I0J250000D01*
G01*
X45575000Y-95900000D01*
G75*
G02*
X45825000Y-95650000I250000J0D01*
G01*
X46775000Y-95650000D01*
G75*
G02*
X47025000Y-95900000I0J-250000D01*
G01*
X47025000Y-96400000D01*
G75*
G02*
X46775000Y-96650000I-250000J0D01*
G01*
G37*
G36*
G01*
X46775000Y-98550000D02*
X45825000Y-98550000D01*
G75*
G02*
X45575000Y-98300000I0J250000D01*
G01*
X45575000Y-97800000D01*
G75*
G02*
X45825000Y-97550000I250000J0D01*
G01*
X46775000Y-97550000D01*
G75*
G02*
X47025000Y-97800000I0J-250000D01*
G01*
X47025000Y-98300000D01*
G75*
G02*
X46775000Y-98550000I-250000J0D01*
G01*
G37*
G36*
G01*
X40150000Y-49125000D02*
X40150000Y-50075000D01*
G75*
G02*
X39900000Y-50325000I-250000J0D01*
G01*
X39400000Y-50325000D01*
G75*
G02*
X39150000Y-50075000I0J250000D01*
G01*
X39150000Y-49125000D01*
G75*
G02*
X39400000Y-48875000I250000J0D01*
G01*
X39900000Y-48875000D01*
G75*
G02*
X40150000Y-49125000I0J-250000D01*
G01*
G37*
G36*
G01*
X42050000Y-49125000D02*
X42050000Y-50075000D01*
G75*
G02*
X41800000Y-50325000I-250000J0D01*
G01*
X41300000Y-50325000D01*
G75*
G02*
X41050000Y-50075000I0J250000D01*
G01*
X41050000Y-49125000D01*
G75*
G02*
X41300000Y-48875000I250000J0D01*
G01*
X41800000Y-48875000D01*
G75*
G02*
X42050000Y-49125000I0J-250000D01*
G01*
G37*
G36*
G01*
X54650000Y-86525000D02*
X54650000Y-87475000D01*
G75*
G02*
X54400000Y-87725000I-250000J0D01*
G01*
X53900000Y-87725000D01*
G75*
G02*
X53650000Y-87475000I0J250000D01*
G01*
X53650000Y-86525000D01*
G75*
G02*
X53900000Y-86275000I250000J0D01*
G01*
X54400000Y-86275000D01*
G75*
G02*
X54650000Y-86525000I0J-250000D01*
G01*
G37*
G36*
G01*
X56550000Y-86525000D02*
X56550000Y-87475000D01*
G75*
G02*
X56300000Y-87725000I-250000J0D01*
G01*
X55800000Y-87725000D01*
G75*
G02*
X55550000Y-87475000I0J250000D01*
G01*
X55550000Y-86525000D01*
G75*
G02*
X55800000Y-86275000I250000J0D01*
G01*
X56300000Y-86275000D01*
G75*
G02*
X56550000Y-86525000I0J-250000D01*
G01*
G37*
G36*
G01*
X37325000Y-89350000D02*
X38275000Y-89350000D01*
G75*
G02*
X38525000Y-89600000I0J-250000D01*
G01*
X38525000Y-90100000D01*
G75*
G02*
X38275000Y-90350000I-250000J0D01*
G01*
X37325000Y-90350000D01*
G75*
G02*
X37075000Y-90100000I0J250000D01*
G01*
X37075000Y-89600000D01*
G75*
G02*
X37325000Y-89350000I250000J0D01*
G01*
G37*
G36*
G01*
X37325000Y-87450000D02*
X38275000Y-87450000D01*
G75*
G02*
X38525000Y-87700000I0J-250000D01*
G01*
X38525000Y-88200000D01*
G75*
G02*
X38275000Y-88450000I-250000J0D01*
G01*
X37325000Y-88450000D01*
G75*
G02*
X37075000Y-88200000I0J250000D01*
G01*
X37075000Y-87700000D01*
G75*
G02*
X37325000Y-87450000I250000J0D01*
G01*
G37*
G36*
G01*
X37325000Y-81750000D02*
X38275000Y-81750000D01*
G75*
G02*
X38525000Y-82000000I0J-250000D01*
G01*
X38525000Y-82500000D01*
G75*
G02*
X38275000Y-82750000I-250000J0D01*
G01*
X37325000Y-82750000D01*
G75*
G02*
X37075000Y-82500000I0J250000D01*
G01*
X37075000Y-82000000D01*
G75*
G02*
X37325000Y-81750000I250000J0D01*
G01*
G37*
G36*
G01*
X37325000Y-79850000D02*
X38275000Y-79850000D01*
G75*
G02*
X38525000Y-80100000I0J-250000D01*
G01*
X38525000Y-80600000D01*
G75*
G02*
X38275000Y-80850000I-250000J0D01*
G01*
X37325000Y-80850000D01*
G75*
G02*
X37075000Y-80600000I0J250000D01*
G01*
X37075000Y-80100000D01*
G75*
G02*
X37325000Y-79850000I250000J0D01*
G01*
G37*
G36*
G01*
X38275000Y-77050000D02*
X37325000Y-77050000D01*
G75*
G02*
X37075000Y-76800000I0J250000D01*
G01*
X37075000Y-76300000D01*
G75*
G02*
X37325000Y-76050000I250000J0D01*
G01*
X38275000Y-76050000D01*
G75*
G02*
X38525000Y-76300000I0J-250000D01*
G01*
X38525000Y-76800000D01*
G75*
G02*
X38275000Y-77050000I-250000J0D01*
G01*
G37*
G36*
G01*
X38275000Y-78950000D02*
X37325000Y-78950000D01*
G75*
G02*
X37075000Y-78700000I0J250000D01*
G01*
X37075000Y-78200000D01*
G75*
G02*
X37325000Y-77950000I250000J0D01*
G01*
X38275000Y-77950000D01*
G75*
G02*
X38525000Y-78200000I0J-250000D01*
G01*
X38525000Y-78700000D01*
G75*
G02*
X38275000Y-78950000I-250000J0D01*
G01*
G37*
G36*
G01*
X44750000Y-60025000D02*
X44750000Y-60975000D01*
G75*
G02*
X44500000Y-61225000I-250000J0D01*
G01*
X44000000Y-61225000D01*
G75*
G02*
X43750000Y-60975000I0J250000D01*
G01*
X43750000Y-60025000D01*
G75*
G02*
X44000000Y-59775000I250000J0D01*
G01*
X44500000Y-59775000D01*
G75*
G02*
X44750000Y-60025000I0J-250000D01*
G01*
G37*
G36*
G01*
X46650000Y-60025000D02*
X46650000Y-60975000D01*
G75*
G02*
X46400000Y-61225000I-250000J0D01*
G01*
X45900000Y-61225000D01*
G75*
G02*
X45650000Y-60975000I0J250000D01*
G01*
X45650000Y-60025000D01*
G75*
G02*
X45900000Y-59775000I250000J0D01*
G01*
X46400000Y-59775000D01*
G75*
G02*
X46650000Y-60025000I0J-250000D01*
G01*
G37*
G36*
G01*
X35025000Y-45050000D02*
X35975000Y-45050000D01*
G75*
G02*
X36225000Y-45300000I0J-250000D01*
G01*
X36225000Y-45800000D01*
G75*
G02*
X35975000Y-46050000I-250000J0D01*
G01*
X35025000Y-46050000D01*
G75*
G02*
X34775000Y-45800000I0J250000D01*
G01*
X34775000Y-45300000D01*
G75*
G02*
X35025000Y-45050000I250000J0D01*
G01*
G37*
G36*
G01*
X35025000Y-43150000D02*
X35975000Y-43150000D01*
G75*
G02*
X36225000Y-43400000I0J-250000D01*
G01*
X36225000Y-43900000D01*
G75*
G02*
X35975000Y-44150000I-250000J0D01*
G01*
X35025000Y-44150000D01*
G75*
G02*
X34775000Y-43900000I0J250000D01*
G01*
X34775000Y-43400000D01*
G75*
G02*
X35025000Y-43150000I250000J0D01*
G01*
G37*
G36*
G01*
X44550000Y-68175000D02*
X44550000Y-69125000D01*
G75*
G02*
X44300000Y-69375000I-250000J0D01*
G01*
X43800000Y-69375000D01*
G75*
G02*
X43550000Y-69125000I0J250000D01*
G01*
X43550000Y-68175000D01*
G75*
G02*
X43800000Y-67925000I250000J0D01*
G01*
X44300000Y-67925000D01*
G75*
G02*
X44550000Y-68175000I0J-250000D01*
G01*
G37*
G36*
G01*
X46450000Y-68175000D02*
X46450000Y-69125000D01*
G75*
G02*
X46200000Y-69375000I-250000J0D01*
G01*
X45700000Y-69375000D01*
G75*
G02*
X45450000Y-69125000I0J250000D01*
G01*
X45450000Y-68175000D01*
G75*
G02*
X45700000Y-67925000I250000J0D01*
G01*
X46200000Y-67925000D01*
G75*
G02*
X46450000Y-68175000I0J-250000D01*
G01*
G37*
G36*
G01*
X39025000Y-66750000D02*
X39975000Y-66750000D01*
G75*
G02*
X40225000Y-67000000I0J-250000D01*
G01*
X40225000Y-67500000D01*
G75*
G02*
X39975000Y-67750000I-250000J0D01*
G01*
X39025000Y-67750000D01*
G75*
G02*
X38775000Y-67500000I0J250000D01*
G01*
X38775000Y-67000000D01*
G75*
G02*
X39025000Y-66750000I250000J0D01*
G01*
G37*
G36*
G01*
X39025000Y-64850000D02*
X39975000Y-64850000D01*
G75*
G02*
X40225000Y-65100000I0J-250000D01*
G01*
X40225000Y-65600000D01*
G75*
G02*
X39975000Y-65850000I-250000J0D01*
G01*
X39025000Y-65850000D01*
G75*
G02*
X38775000Y-65600000I0J250000D01*
G01*
X38775000Y-65100000D01*
G75*
G02*
X39025000Y-64850000I250000J0D01*
G01*
G37*
D10*
X42400000Y-94900000D03*
X42900000Y-94900000D03*
X43400000Y-94900000D03*
X43900000Y-94900000D03*
X44400000Y-94900000D03*
X44400000Y-99300000D03*
X43900000Y-99300000D03*
X43400000Y-99300000D03*
X42900000Y-99300000D03*
X42400000Y-99300000D03*
G36*
G01*
X49700000Y-90150002D02*
X49700000Y-89249998D01*
G75*
G02*
X49949998Y-89000000I249998J0D01*
G01*
X50475002Y-89000000D01*
G75*
G02*
X50725000Y-89249998I0J-249998D01*
G01*
X50725000Y-90150002D01*
G75*
G02*
X50475002Y-90400000I-249998J0D01*
G01*
X49949998Y-90400000D01*
G75*
G02*
X49700000Y-90150002I0J249998D01*
G01*
G37*
G36*
G01*
X47875000Y-90150002D02*
X47875000Y-89249998D01*
G75*
G02*
X48124998Y-89000000I249998J0D01*
G01*
X48650002Y-89000000D01*
G75*
G02*
X48900000Y-89249998I0J-249998D01*
G01*
X48900000Y-90150002D01*
G75*
G02*
X48650002Y-90400000I-249998J0D01*
G01*
X48124998Y-90400000D01*
G75*
G02*
X47875000Y-90150002I0J249998D01*
G01*
G37*
G36*
G01*
X49700000Y-88150002D02*
X49700000Y-87249998D01*
G75*
G02*
X49949998Y-87000000I249998J0D01*
G01*
X50475002Y-87000000D01*
G75*
G02*
X50725000Y-87249998I0J-249998D01*
G01*
X50725000Y-88150002D01*
G75*
G02*
X50475002Y-88400000I-249998J0D01*
G01*
X49949998Y-88400000D01*
G75*
G02*
X49700000Y-88150002I0J249998D01*
G01*
G37*
G36*
G01*
X47875000Y-88150002D02*
X47875000Y-87249998D01*
G75*
G02*
X48124998Y-87000000I249998J0D01*
G01*
X48650002Y-87000000D01*
G75*
G02*
X48900000Y-87249998I0J-249998D01*
G01*
X48900000Y-88150002D01*
G75*
G02*
X48650002Y-88400000I-249998J0D01*
G01*
X48124998Y-88400000D01*
G75*
G02*
X47875000Y-88150002I0J249998D01*
G01*
G37*
G36*
G01*
X49700000Y-92150002D02*
X49700000Y-91249998D01*
G75*
G02*
X49949998Y-91000000I249998J0D01*
G01*
X50475002Y-91000000D01*
G75*
G02*
X50725000Y-91249998I0J-249998D01*
G01*
X50725000Y-92150002D01*
G75*
G02*
X50475002Y-92400000I-249998J0D01*
G01*
X49949998Y-92400000D01*
G75*
G02*
X49700000Y-92150002I0J249998D01*
G01*
G37*
G36*
G01*
X47875000Y-92150002D02*
X47875000Y-91249998D01*
G75*
G02*
X48124998Y-91000000I249998J0D01*
G01*
X48650002Y-91000000D01*
G75*
G02*
X48900000Y-91249998I0J-249998D01*
G01*
X48900000Y-92150002D01*
G75*
G02*
X48650002Y-92400000I-249998J0D01*
G01*
X48124998Y-92400000D01*
G75*
G02*
X47875000Y-92150002I0J249998D01*
G01*
G37*
D11*
X38746000Y-43642000D03*
X39696000Y-45642000D03*
X37796000Y-45642000D03*
G36*
G01*
X33500000Y-55549998D02*
X33500000Y-56450002D01*
G75*
G02*
X33250002Y-56700000I-249998J0D01*
G01*
X32724998Y-56700000D01*
G75*
G02*
X32475000Y-56450002I0J249998D01*
G01*
X32475000Y-55549998D01*
G75*
G02*
X32724998Y-55300000I249998J0D01*
G01*
X33250002Y-55300000D01*
G75*
G02*
X33500000Y-55549998I0J-249998D01*
G01*
G37*
G36*
G01*
X35325000Y-55549998D02*
X35325000Y-56450002D01*
G75*
G02*
X35075002Y-56700000I-249998J0D01*
G01*
X34549998Y-56700000D01*
G75*
G02*
X34300000Y-56450002I0J249998D01*
G01*
X34300000Y-55549998D01*
G75*
G02*
X34549998Y-55300000I249998J0D01*
G01*
X35075002Y-55300000D01*
G75*
G02*
X35325000Y-55549998I0J-249998D01*
G01*
G37*
G36*
G01*
X52249998Y-74300000D02*
X53150002Y-74300000D01*
G75*
G02*
X53400000Y-74549998I0J-249998D01*
G01*
X53400000Y-75075002D01*
G75*
G02*
X53150002Y-75325000I-249998J0D01*
G01*
X52249998Y-75325000D01*
G75*
G02*
X52000000Y-75075002I0J249998D01*
G01*
X52000000Y-74549998D01*
G75*
G02*
X52249998Y-74300000I249998J0D01*
G01*
G37*
G36*
G01*
X52249998Y-72475000D02*
X53150002Y-72475000D01*
G75*
G02*
X53400000Y-72724998I0J-249998D01*
G01*
X53400000Y-73250002D01*
G75*
G02*
X53150002Y-73500000I-249998J0D01*
G01*
X52249998Y-73500000D01*
G75*
G02*
X52000000Y-73250002I0J249998D01*
G01*
X52000000Y-72724998D01*
G75*
G02*
X52249998Y-72475000I249998J0D01*
G01*
G37*
G36*
G01*
X46449998Y-74300000D02*
X47350002Y-74300000D01*
G75*
G02*
X47600000Y-74549998I0J-249998D01*
G01*
X47600000Y-75075002D01*
G75*
G02*
X47350002Y-75325000I-249998J0D01*
G01*
X46449998Y-75325000D01*
G75*
G02*
X46200000Y-75075002I0J249998D01*
G01*
X46200000Y-74549998D01*
G75*
G02*
X46449998Y-74300000I249998J0D01*
G01*
G37*
G36*
G01*
X46449998Y-72475000D02*
X47350002Y-72475000D01*
G75*
G02*
X47600000Y-72724998I0J-249998D01*
G01*
X47600000Y-73250002D01*
G75*
G02*
X47350002Y-73500000I-249998J0D01*
G01*
X46449998Y-73500000D01*
G75*
G02*
X46200000Y-73250002I0J249998D01*
G01*
X46200000Y-72724998D01*
G75*
G02*
X46449998Y-72475000I249998J0D01*
G01*
G37*
G36*
G01*
X49300000Y-74349998D02*
X49300000Y-75250002D01*
G75*
G02*
X49050002Y-75500000I-249998J0D01*
G01*
X48524998Y-75500000D01*
G75*
G02*
X48275000Y-75250002I0J249998D01*
G01*
X48275000Y-74349998D01*
G75*
G02*
X48524998Y-74100000I249998J0D01*
G01*
X49050002Y-74100000D01*
G75*
G02*
X49300000Y-74349998I0J-249998D01*
G01*
G37*
G36*
G01*
X51125000Y-74349998D02*
X51125000Y-75250002D01*
G75*
G02*
X50875002Y-75500000I-249998J0D01*
G01*
X50349998Y-75500000D01*
G75*
G02*
X50100000Y-75250002I0J249998D01*
G01*
X50100000Y-74349998D01*
G75*
G02*
X50349998Y-74100000I249998J0D01*
G01*
X50875002Y-74100000D01*
G75*
G02*
X51125000Y-74349998I0J-249998D01*
G01*
G37*
G36*
G01*
X37349998Y-93100000D02*
X38250002Y-93100000D01*
G75*
G02*
X38500000Y-93349998I0J-249998D01*
G01*
X38500000Y-93875002D01*
G75*
G02*
X38250002Y-94125000I-249998J0D01*
G01*
X37349998Y-94125000D01*
G75*
G02*
X37100000Y-93875002I0J249998D01*
G01*
X37100000Y-93349998D01*
G75*
G02*
X37349998Y-93100000I249998J0D01*
G01*
G37*
G36*
G01*
X37349998Y-91275000D02*
X38250002Y-91275000D01*
G75*
G02*
X38500000Y-91524998I0J-249998D01*
G01*
X38500000Y-92050002D01*
G75*
G02*
X38250002Y-92300000I-249998J0D01*
G01*
X37349998Y-92300000D01*
G75*
G02*
X37100000Y-92050002I0J249998D01*
G01*
X37100000Y-91524998D01*
G75*
G02*
X37349998Y-91275000I249998J0D01*
G01*
G37*
G36*
G01*
X36400000Y-47149998D02*
X36400000Y-48050002D01*
G75*
G02*
X36150002Y-48300000I-249998J0D01*
G01*
X35624998Y-48300000D01*
G75*
G02*
X35375000Y-48050002I0J249998D01*
G01*
X35375000Y-47149998D01*
G75*
G02*
X35624998Y-46900000I249998J0D01*
G01*
X36150002Y-46900000D01*
G75*
G02*
X36400000Y-47149998I0J-249998D01*
G01*
G37*
G36*
G01*
X38225000Y-47149998D02*
X38225000Y-48050002D01*
G75*
G02*
X37975002Y-48300000I-249998J0D01*
G01*
X37449998Y-48300000D01*
G75*
G02*
X37200000Y-48050002I0J249998D01*
G01*
X37200000Y-47149998D01*
G75*
G02*
X37449998Y-46900000I249998J0D01*
G01*
X37975002Y-46900000D01*
G75*
G02*
X38225000Y-47149998I0J-249998D01*
G01*
G37*
G36*
G01*
X40200000Y-47149998D02*
X40200000Y-48050002D01*
G75*
G02*
X39950002Y-48300000I-249998J0D01*
G01*
X39424998Y-48300000D01*
G75*
G02*
X39175000Y-48050002I0J249998D01*
G01*
X39175000Y-47149998D01*
G75*
G02*
X39424998Y-46900000I249998J0D01*
G01*
X39950002Y-46900000D01*
G75*
G02*
X40200000Y-47149998I0J-249998D01*
G01*
G37*
G36*
G01*
X42025000Y-47149998D02*
X42025000Y-48050002D01*
G75*
G02*
X41775002Y-48300000I-249998J0D01*
G01*
X41249998Y-48300000D01*
G75*
G02*
X41000000Y-48050002I0J249998D01*
G01*
X41000000Y-47149998D01*
G75*
G02*
X41249998Y-46900000I249998J0D01*
G01*
X41775002Y-46900000D01*
G75*
G02*
X42025000Y-47149998I0J-249998D01*
G01*
G37*
G36*
G01*
X37349998Y-85500000D02*
X38250002Y-85500000D01*
G75*
G02*
X38500000Y-85749998I0J-249998D01*
G01*
X38500000Y-86275002D01*
G75*
G02*
X38250002Y-86525000I-249998J0D01*
G01*
X37349998Y-86525000D01*
G75*
G02*
X37100000Y-86275002I0J249998D01*
G01*
X37100000Y-85749998D01*
G75*
G02*
X37349998Y-85500000I249998J0D01*
G01*
G37*
G36*
G01*
X37349998Y-83675000D02*
X38250002Y-83675000D01*
G75*
G02*
X38500000Y-83924998I0J-249998D01*
G01*
X38500000Y-84450002D01*
G75*
G02*
X38250002Y-84700000I-249998J0D01*
G01*
X37349998Y-84700000D01*
G75*
G02*
X37100000Y-84450002I0J249998D01*
G01*
X37100000Y-83924998D01*
G75*
G02*
X37349998Y-83675000I249998J0D01*
G01*
G37*
G36*
G01*
X38250002Y-73300000D02*
X37349998Y-73300000D01*
G75*
G02*
X37100000Y-73050002I0J249998D01*
G01*
X37100000Y-72524998D01*
G75*
G02*
X37349998Y-72275000I249998J0D01*
G01*
X38250002Y-72275000D01*
G75*
G02*
X38500000Y-72524998I0J-249998D01*
G01*
X38500000Y-73050002D01*
G75*
G02*
X38250002Y-73300000I-249998J0D01*
G01*
G37*
G36*
G01*
X38250002Y-75125000D02*
X37349998Y-75125000D01*
G75*
G02*
X37100000Y-74875002I0J249998D01*
G01*
X37100000Y-74349998D01*
G75*
G02*
X37349998Y-74100000I249998J0D01*
G01*
X38250002Y-74100000D01*
G75*
G02*
X38500000Y-74349998I0J-249998D01*
G01*
X38500000Y-74875002D01*
G75*
G02*
X38250002Y-75125000I-249998J0D01*
G01*
G37*
G36*
G01*
X44600000Y-70249998D02*
X44600000Y-71150002D01*
G75*
G02*
X44350002Y-71400000I-249998J0D01*
G01*
X43824998Y-71400000D01*
G75*
G02*
X43575000Y-71150002I0J249998D01*
G01*
X43575000Y-70249998D01*
G75*
G02*
X43824998Y-70000000I249998J0D01*
G01*
X44350002Y-70000000D01*
G75*
G02*
X44600000Y-70249998I0J-249998D01*
G01*
G37*
G36*
G01*
X46425000Y-70249998D02*
X46425000Y-71150002D01*
G75*
G02*
X46175002Y-71400000I-249998J0D01*
G01*
X45649998Y-71400000D01*
G75*
G02*
X45400000Y-71150002I0J249998D01*
G01*
X45400000Y-70249998D01*
G75*
G02*
X45649998Y-70000000I249998J0D01*
G01*
X46175002Y-70000000D01*
G75*
G02*
X46425000Y-70249998I0J-249998D01*
G01*
G37*
G36*
G01*
X29200000Y-47749998D02*
X29200000Y-48650002D01*
G75*
G02*
X28950002Y-48900000I-249998J0D01*
G01*
X28424998Y-48900000D01*
G75*
G02*
X28175000Y-48650002I0J249998D01*
G01*
X28175000Y-47749998D01*
G75*
G02*
X28424998Y-47500000I249998J0D01*
G01*
X28950002Y-47500000D01*
G75*
G02*
X29200000Y-47749998I0J-249998D01*
G01*
G37*
G36*
G01*
X31025000Y-47749998D02*
X31025000Y-48650002D01*
G75*
G02*
X30775002Y-48900000I-249998J0D01*
G01*
X30249998Y-48900000D01*
G75*
G02*
X30000000Y-48650002I0J249998D01*
G01*
X30000000Y-47749998D01*
G75*
G02*
X30249998Y-47500000I249998J0D01*
G01*
X30775002Y-47500000D01*
G75*
G02*
X31025000Y-47749998I0J-249998D01*
G01*
G37*
G36*
G01*
X29200000Y-45749998D02*
X29200000Y-46650002D01*
G75*
G02*
X28950002Y-46900000I-249998J0D01*
G01*
X28424998Y-46900000D01*
G75*
G02*
X28175000Y-46650002I0J249998D01*
G01*
X28175000Y-45749998D01*
G75*
G02*
X28424998Y-45500000I249998J0D01*
G01*
X28950002Y-45500000D01*
G75*
G02*
X29200000Y-45749998I0J-249998D01*
G01*
G37*
G36*
G01*
X31025000Y-45749998D02*
X31025000Y-46650002D01*
G75*
G02*
X30775002Y-46900000I-249998J0D01*
G01*
X30249998Y-46900000D01*
G75*
G02*
X30000000Y-46650002I0J249998D01*
G01*
X30000000Y-45749998D01*
G75*
G02*
X30249998Y-45500000I249998J0D01*
G01*
X30775002Y-45500000D01*
G75*
G02*
X31025000Y-45749998I0J-249998D01*
G01*
G37*
G36*
G01*
X39950002Y-61900000D02*
X39049998Y-61900000D01*
G75*
G02*
X38800000Y-61650002I0J249998D01*
G01*
X38800000Y-61124998D01*
G75*
G02*
X39049998Y-60875000I249998J0D01*
G01*
X39950002Y-60875000D01*
G75*
G02*
X40200000Y-61124998I0J-249998D01*
G01*
X40200000Y-61650002D01*
G75*
G02*
X39950002Y-61900000I-249998J0D01*
G01*
G37*
G36*
G01*
X39950002Y-63725000D02*
X39049998Y-63725000D01*
G75*
G02*
X38800000Y-63475002I0J249998D01*
G01*
X38800000Y-62949998D01*
G75*
G02*
X39049998Y-62700000I249998J0D01*
G01*
X39950002Y-62700000D01*
G75*
G02*
X40200000Y-62949998I0J-249998D01*
G01*
X40200000Y-63475002D01*
G75*
G02*
X39950002Y-63725000I-249998J0D01*
G01*
G37*
G36*
G01*
X42165000Y-78625000D02*
X41865000Y-78625000D01*
G75*
G02*
X41715000Y-78475000I0J150000D01*
G01*
X41715000Y-76800000D01*
G75*
G02*
X41865000Y-76650000I150000J0D01*
G01*
X42165000Y-76650000D01*
G75*
G02*
X42315000Y-76800000I0J-150000D01*
G01*
X42315000Y-78475000D01*
G75*
G02*
X42165000Y-78625000I-150000J0D01*
G01*
G37*
G36*
G01*
X43435000Y-78625000D02*
X43135000Y-78625000D01*
G75*
G02*
X42985000Y-78475000I0J150000D01*
G01*
X42985000Y-76800000D01*
G75*
G02*
X43135000Y-76650000I150000J0D01*
G01*
X43435000Y-76650000D01*
G75*
G02*
X43585000Y-76800000I0J-150000D01*
G01*
X43585000Y-78475000D01*
G75*
G02*
X43435000Y-78625000I-150000J0D01*
G01*
G37*
G36*
G01*
X44705000Y-78625000D02*
X44405000Y-78625000D01*
G75*
G02*
X44255000Y-78475000I0J150000D01*
G01*
X44255000Y-76800000D01*
G75*
G02*
X44405000Y-76650000I150000J0D01*
G01*
X44705000Y-76650000D01*
G75*
G02*
X44855000Y-76800000I0J-150000D01*
G01*
X44855000Y-78475000D01*
G75*
G02*
X44705000Y-78625000I-150000J0D01*
G01*
G37*
G36*
G01*
X45975000Y-78625000D02*
X45675000Y-78625000D01*
G75*
G02*
X45525000Y-78475000I0J150000D01*
G01*
X45525000Y-76800000D01*
G75*
G02*
X45675000Y-76650000I150000J0D01*
G01*
X45975000Y-76650000D01*
G75*
G02*
X46125000Y-76800000I0J-150000D01*
G01*
X46125000Y-78475000D01*
G75*
G02*
X45975000Y-78625000I-150000J0D01*
G01*
G37*
G36*
G01*
X47245000Y-78625000D02*
X46945000Y-78625000D01*
G75*
G02*
X46795000Y-78475000I0J150000D01*
G01*
X46795000Y-76800000D01*
G75*
G02*
X46945000Y-76650000I150000J0D01*
G01*
X47245000Y-76650000D01*
G75*
G02*
X47395000Y-76800000I0J-150000D01*
G01*
X47395000Y-78475000D01*
G75*
G02*
X47245000Y-78625000I-150000J0D01*
G01*
G37*
G36*
G01*
X48515000Y-78625000D02*
X48215000Y-78625000D01*
G75*
G02*
X48065000Y-78475000I0J150000D01*
G01*
X48065000Y-76800000D01*
G75*
G02*
X48215000Y-76650000I150000J0D01*
G01*
X48515000Y-76650000D01*
G75*
G02*
X48665000Y-76800000I0J-150000D01*
G01*
X48665000Y-78475000D01*
G75*
G02*
X48515000Y-78625000I-150000J0D01*
G01*
G37*
G36*
G01*
X49785000Y-78625000D02*
X49485000Y-78625000D01*
G75*
G02*
X49335000Y-78475000I0J150000D01*
G01*
X49335000Y-76800000D01*
G75*
G02*
X49485000Y-76650000I150000J0D01*
G01*
X49785000Y-76650000D01*
G75*
G02*
X49935000Y-76800000I0J-150000D01*
G01*
X49935000Y-78475000D01*
G75*
G02*
X49785000Y-78625000I-150000J0D01*
G01*
G37*
G36*
G01*
X51055000Y-78625000D02*
X50755000Y-78625000D01*
G75*
G02*
X50605000Y-78475000I0J150000D01*
G01*
X50605000Y-76800000D01*
G75*
G02*
X50755000Y-76650000I150000J0D01*
G01*
X51055000Y-76650000D01*
G75*
G02*
X51205000Y-76800000I0J-150000D01*
G01*
X51205000Y-78475000D01*
G75*
G02*
X51055000Y-78625000I-150000J0D01*
G01*
G37*
G36*
G01*
X52325000Y-78625000D02*
X52025000Y-78625000D01*
G75*
G02*
X51875000Y-78475000I0J150000D01*
G01*
X51875000Y-76800000D01*
G75*
G02*
X52025000Y-76650000I150000J0D01*
G01*
X52325000Y-76650000D01*
G75*
G02*
X52475000Y-76800000I0J-150000D01*
G01*
X52475000Y-78475000D01*
G75*
G02*
X52325000Y-78625000I-150000J0D01*
G01*
G37*
G36*
G01*
X53595000Y-78625000D02*
X53295000Y-78625000D01*
G75*
G02*
X53145000Y-78475000I0J150000D01*
G01*
X53145000Y-76800000D01*
G75*
G02*
X53295000Y-76650000I150000J0D01*
G01*
X53595000Y-76650000D01*
G75*
G02*
X53745000Y-76800000I0J-150000D01*
G01*
X53745000Y-78475000D01*
G75*
G02*
X53595000Y-78625000I-150000J0D01*
G01*
G37*
G36*
G01*
X54865000Y-78625000D02*
X54565000Y-78625000D01*
G75*
G02*
X54415000Y-78475000I0J150000D01*
G01*
X54415000Y-76800000D01*
G75*
G02*
X54565000Y-76650000I150000J0D01*
G01*
X54865000Y-76650000D01*
G75*
G02*
X55015000Y-76800000I0J-150000D01*
G01*
X55015000Y-78475000D01*
G75*
G02*
X54865000Y-78625000I-150000J0D01*
G01*
G37*
G36*
G01*
X56135000Y-78625000D02*
X55835000Y-78625000D01*
G75*
G02*
X55685000Y-78475000I0J150000D01*
G01*
X55685000Y-76800000D01*
G75*
G02*
X55835000Y-76650000I150000J0D01*
G01*
X56135000Y-76650000D01*
G75*
G02*
X56285000Y-76800000I0J-150000D01*
G01*
X56285000Y-78475000D01*
G75*
G02*
X56135000Y-78625000I-150000J0D01*
G01*
G37*
G36*
G01*
X56135000Y-85550000D02*
X55835000Y-85550000D01*
G75*
G02*
X55685000Y-85400000I0J150000D01*
G01*
X55685000Y-83725000D01*
G75*
G02*
X55835000Y-83575000I150000J0D01*
G01*
X56135000Y-83575000D01*
G75*
G02*
X56285000Y-83725000I0J-150000D01*
G01*
X56285000Y-85400000D01*
G75*
G02*
X56135000Y-85550000I-150000J0D01*
G01*
G37*
G36*
G01*
X54865000Y-85550000D02*
X54565000Y-85550000D01*
G75*
G02*
X54415000Y-85400000I0J150000D01*
G01*
X54415000Y-83725000D01*
G75*
G02*
X54565000Y-83575000I150000J0D01*
G01*
X54865000Y-83575000D01*
G75*
G02*
X55015000Y-83725000I0J-150000D01*
G01*
X55015000Y-85400000D01*
G75*
G02*
X54865000Y-85550000I-150000J0D01*
G01*
G37*
G36*
G01*
X53595000Y-85550000D02*
X53295000Y-85550000D01*
G75*
G02*
X53145000Y-85400000I0J150000D01*
G01*
X53145000Y-83725000D01*
G75*
G02*
X53295000Y-83575000I150000J0D01*
G01*
X53595000Y-83575000D01*
G75*
G02*
X53745000Y-83725000I0J-150000D01*
G01*
X53745000Y-85400000D01*
G75*
G02*
X53595000Y-85550000I-150000J0D01*
G01*
G37*
G36*
G01*
X52325000Y-85550000D02*
X52025000Y-85550000D01*
G75*
G02*
X51875000Y-85400000I0J150000D01*
G01*
X51875000Y-83725000D01*
G75*
G02*
X52025000Y-83575000I150000J0D01*
G01*
X52325000Y-83575000D01*
G75*
G02*
X52475000Y-83725000I0J-150000D01*
G01*
X52475000Y-85400000D01*
G75*
G02*
X52325000Y-85550000I-150000J0D01*
G01*
G37*
G36*
G01*
X51055000Y-85550000D02*
X50755000Y-85550000D01*
G75*
G02*
X50605000Y-85400000I0J150000D01*
G01*
X50605000Y-83725000D01*
G75*
G02*
X50755000Y-83575000I150000J0D01*
G01*
X51055000Y-83575000D01*
G75*
G02*
X51205000Y-83725000I0J-150000D01*
G01*
X51205000Y-85400000D01*
G75*
G02*
X51055000Y-85550000I-150000J0D01*
G01*
G37*
G36*
G01*
X49785000Y-85550000D02*
X49485000Y-85550000D01*
G75*
G02*
X49335000Y-85400000I0J150000D01*
G01*
X49335000Y-83725000D01*
G75*
G02*
X49485000Y-83575000I150000J0D01*
G01*
X49785000Y-83575000D01*
G75*
G02*
X49935000Y-83725000I0J-150000D01*
G01*
X49935000Y-85400000D01*
G75*
G02*
X49785000Y-85550000I-150000J0D01*
G01*
G37*
G36*
G01*
X48515000Y-85550000D02*
X48215000Y-85550000D01*
G75*
G02*
X48065000Y-85400000I0J150000D01*
G01*
X48065000Y-83725000D01*
G75*
G02*
X48215000Y-83575000I150000J0D01*
G01*
X48515000Y-83575000D01*
G75*
G02*
X48665000Y-83725000I0J-150000D01*
G01*
X48665000Y-85400000D01*
G75*
G02*
X48515000Y-85550000I-150000J0D01*
G01*
G37*
G36*
G01*
X47245000Y-85550000D02*
X46945000Y-85550000D01*
G75*
G02*
X46795000Y-85400000I0J150000D01*
G01*
X46795000Y-83725000D01*
G75*
G02*
X46945000Y-83575000I150000J0D01*
G01*
X47245000Y-83575000D01*
G75*
G02*
X47395000Y-83725000I0J-150000D01*
G01*
X47395000Y-85400000D01*
G75*
G02*
X47245000Y-85550000I-150000J0D01*
G01*
G37*
G36*
G01*
X45975000Y-85550000D02*
X45675000Y-85550000D01*
G75*
G02*
X45525000Y-85400000I0J150000D01*
G01*
X45525000Y-83725000D01*
G75*
G02*
X45675000Y-83575000I150000J0D01*
G01*
X45975000Y-83575000D01*
G75*
G02*
X46125000Y-83725000I0J-150000D01*
G01*
X46125000Y-85400000D01*
G75*
G02*
X45975000Y-85550000I-150000J0D01*
G01*
G37*
G36*
G01*
X44705000Y-85550000D02*
X44405000Y-85550000D01*
G75*
G02*
X44255000Y-85400000I0J150000D01*
G01*
X44255000Y-83725000D01*
G75*
G02*
X44405000Y-83575000I150000J0D01*
G01*
X44705000Y-83575000D01*
G75*
G02*
X44855000Y-83725000I0J-150000D01*
G01*
X44855000Y-85400000D01*
G75*
G02*
X44705000Y-85550000I-150000J0D01*
G01*
G37*
G36*
G01*
X43435000Y-85550000D02*
X43135000Y-85550000D01*
G75*
G02*
X42985000Y-85400000I0J150000D01*
G01*
X42985000Y-83725000D01*
G75*
G02*
X43135000Y-83575000I150000J0D01*
G01*
X43435000Y-83575000D01*
G75*
G02*
X43585000Y-83725000I0J-150000D01*
G01*
X43585000Y-85400000D01*
G75*
G02*
X43435000Y-85550000I-150000J0D01*
G01*
G37*
G36*
G01*
X42165000Y-85550000D02*
X41865000Y-85550000D01*
G75*
G02*
X41715000Y-85400000I0J150000D01*
G01*
X41715000Y-83725000D01*
G75*
G02*
X41865000Y-83575000I150000J0D01*
G01*
X42165000Y-83575000D01*
G75*
G02*
X42315000Y-83725000I0J-150000D01*
G01*
X42315000Y-85400000D01*
G75*
G02*
X42165000Y-85550000I-150000J0D01*
G01*
G37*
G36*
G01*
X53450000Y-68050000D02*
X54550000Y-68050000D01*
G75*
G02*
X54800000Y-68300000I0J-250000D01*
G01*
X54800000Y-71300000D01*
G75*
G02*
X54550000Y-71550000I-250000J0D01*
G01*
X53450000Y-71550000D01*
G75*
G02*
X53200000Y-71300000I0J250000D01*
G01*
X53200000Y-68300000D01*
G75*
G02*
X53450000Y-68050000I250000J0D01*
G01*
G37*
G36*
G01*
X53450000Y-62450000D02*
X54550000Y-62450000D01*
G75*
G02*
X54800000Y-62700000I0J-250000D01*
G01*
X54800000Y-65700000D01*
G75*
G02*
X54550000Y-65950000I-250000J0D01*
G01*
X53450000Y-65950000D01*
G75*
G02*
X53200000Y-65700000I0J250000D01*
G01*
X53200000Y-62700000D01*
G75*
G02*
X53450000Y-62450000I250000J0D01*
G01*
G37*
G36*
G01*
X55050000Y-58750000D02*
X55050000Y-57650000D01*
G75*
G02*
X55300000Y-57400000I250000J0D01*
G01*
X58300000Y-57400000D01*
G75*
G02*
X58550000Y-57650000I0J-250000D01*
G01*
X58550000Y-58750000D01*
G75*
G02*
X58300000Y-59000000I-250000J0D01*
G01*
X55300000Y-59000000D01*
G75*
G02*
X55050000Y-58750000I0J250000D01*
G01*
G37*
G36*
G01*
X49450000Y-58750000D02*
X49450000Y-57650000D01*
G75*
G02*
X49700000Y-57400000I250000J0D01*
G01*
X52700000Y-57400000D01*
G75*
G02*
X52950000Y-57650000I0J-250000D01*
G01*
X52950000Y-58750000D01*
G75*
G02*
X52700000Y-59000000I-250000J0D01*
G01*
X49700000Y-59000000D01*
G75*
G02*
X49450000Y-58750000I0J250000D01*
G01*
G37*
D12*
X39000000Y-52050000D03*
X39000000Y-53950000D03*
X36800000Y-53950000D03*
X36800000Y-53000000D03*
X36800000Y-52050000D03*
X35000000Y-52050000D03*
X35000000Y-53950000D03*
X32800000Y-53950000D03*
X32800000Y-53000000D03*
X32800000Y-52050000D03*
D13*
X53275000Y-93850000D03*
X53275000Y-91750000D03*
X54925000Y-91750000D03*
X54925000Y-93850000D03*
G36*
G01*
X47550000Y-46050000D02*
X46450000Y-46050000D01*
G75*
G02*
X46200000Y-45800000I0J250000D01*
G01*
X46200000Y-42800000D01*
G75*
G02*
X46450000Y-42550000I250000J0D01*
G01*
X47550000Y-42550000D01*
G75*
G02*
X47800000Y-42800000I0J-250000D01*
G01*
X47800000Y-45800000D01*
G75*
G02*
X47550000Y-46050000I-250000J0D01*
G01*
G37*
G36*
G01*
X47550000Y-51450000D02*
X46450000Y-51450000D01*
G75*
G02*
X46200000Y-51200000I0J250000D01*
G01*
X46200000Y-48200000D01*
G75*
G02*
X46450000Y-47950000I250000J0D01*
G01*
X47550000Y-47950000D01*
G75*
G02*
X47800000Y-48200000I0J-250000D01*
G01*
X47800000Y-51200000D01*
G75*
G02*
X47550000Y-51450000I-250000J0D01*
G01*
G37*
G36*
G01*
X46500000Y-63145000D02*
X46500000Y-62845000D01*
G75*
G02*
X46650000Y-62695000I150000J0D01*
G01*
X48300000Y-62695000D01*
G75*
G02*
X48450000Y-62845000I0J-150000D01*
G01*
X48450000Y-63145000D01*
G75*
G02*
X48300000Y-63295000I-150000J0D01*
G01*
X46650000Y-63295000D01*
G75*
G02*
X46500000Y-63145000I0J150000D01*
G01*
G37*
G36*
G01*
X46500000Y-64415000D02*
X46500000Y-64115000D01*
G75*
G02*
X46650000Y-63965000I150000J0D01*
G01*
X48300000Y-63965000D01*
G75*
G02*
X48450000Y-64115000I0J-150000D01*
G01*
X48450000Y-64415000D01*
G75*
G02*
X48300000Y-64565000I-150000J0D01*
G01*
X46650000Y-64565000D01*
G75*
G02*
X46500000Y-64415000I0J150000D01*
G01*
G37*
G36*
G01*
X46500000Y-65685000D02*
X46500000Y-65385000D01*
G75*
G02*
X46650000Y-65235000I150000J0D01*
G01*
X48300000Y-65235000D01*
G75*
G02*
X48450000Y-65385000I0J-150000D01*
G01*
X48450000Y-65685000D01*
G75*
G02*
X48300000Y-65835000I-150000J0D01*
G01*
X46650000Y-65835000D01*
G75*
G02*
X46500000Y-65685000I0J150000D01*
G01*
G37*
G36*
G01*
X46500000Y-66955000D02*
X46500000Y-66655000D01*
G75*
G02*
X46650000Y-66505000I150000J0D01*
G01*
X48300000Y-66505000D01*
G75*
G02*
X48450000Y-66655000I0J-150000D01*
G01*
X48450000Y-66955000D01*
G75*
G02*
X48300000Y-67105000I-150000J0D01*
G01*
X46650000Y-67105000D01*
G75*
G02*
X46500000Y-66955000I0J150000D01*
G01*
G37*
G36*
G01*
X41550000Y-66955000D02*
X41550000Y-66655000D01*
G75*
G02*
X41700000Y-66505000I150000J0D01*
G01*
X43350000Y-66505000D01*
G75*
G02*
X43500000Y-66655000I0J-150000D01*
G01*
X43500000Y-66955000D01*
G75*
G02*
X43350000Y-67105000I-150000J0D01*
G01*
X41700000Y-67105000D01*
G75*
G02*
X41550000Y-66955000I0J150000D01*
G01*
G37*
G36*
G01*
X41550000Y-65685000D02*
X41550000Y-65385000D01*
G75*
G02*
X41700000Y-65235000I150000J0D01*
G01*
X43350000Y-65235000D01*
G75*
G02*
X43500000Y-65385000I0J-150000D01*
G01*
X43500000Y-65685000D01*
G75*
G02*
X43350000Y-65835000I-150000J0D01*
G01*
X41700000Y-65835000D01*
G75*
G02*
X41550000Y-65685000I0J150000D01*
G01*
G37*
G36*
G01*
X41550000Y-64415000D02*
X41550000Y-64115000D01*
G75*
G02*
X41700000Y-63965000I150000J0D01*
G01*
X43350000Y-63965000D01*
G75*
G02*
X43500000Y-64115000I0J-150000D01*
G01*
X43500000Y-64415000D01*
G75*
G02*
X43350000Y-64565000I-150000J0D01*
G01*
X41700000Y-64565000D01*
G75*
G02*
X41550000Y-64415000I0J150000D01*
G01*
G37*
G36*
G01*
X41550000Y-63145000D02*
X41550000Y-62845000D01*
G75*
G02*
X41700000Y-62695000I150000J0D01*
G01*
X43350000Y-62695000D01*
G75*
G02*
X43500000Y-62845000I0J-150000D01*
G01*
X43500000Y-63145000D01*
G75*
G02*
X43350000Y-63295000I-150000J0D01*
G01*
X41700000Y-63295000D01*
G75*
G02*
X41550000Y-63145000I0J150000D01*
G01*
G37*
M02*
