M48
; DRILL file {KiCad (5.1.5)-2} date 23/08/2020 21:31:49
; FORMAT={-:-/ absolute / inch / decimal}
; #@! TF.CreationDate,2020-08-23T21:31:49+12:00
; #@! TF.GenerationSoftware,Kicad,Pcbnew,(5.1.5)-2
; #@! TF.FileFunction,Plated,1,2,PTH
FMAT,2
INCH
T1C0.0157
T2C0.0236
T3C0.0276
T4C0.0354
T5C0.0394
T6C0.0512
T7C0.0787
T8C0.1260
T9C0.1417
%
G90
G05
T1
X0.8976Y-2.1496
X0.9567Y-2.2638
X1.0039Y-3.6929
X1.0118Y-3.9843
X1.0433Y-2.0039
X1.0945Y-3.1457
X1.0945Y-3.3346
X1.1063Y-1.6614
X1.1124Y-3.4864
X1.1299Y-3.9528
X1.1535Y-2.0433
X1.1732Y-1.748
X1.1772Y-4.1693
X1.2165Y-3.3307
X1.2323Y-2.9134
X1.2441Y-4.0551
X1.2598Y-3.1772
X1.2677Y-2.2756
X1.2677Y-3.874
X1.2717Y-2.8661
X1.2756Y-1.9094
X1.2795Y-3.5394
X1.2835Y-3.0354
X1.3031Y-3.4291
X1.3071Y-3.2598
X1.4252Y-1.7402
X1.4291Y-2.8583
X1.4291Y-4.0197
X1.4331Y-1.6575
X1.4331Y-3.126
X1.4331Y-3.4094
X1.4331Y-4.1299
X1.437Y-2.063
X1.4449Y-4.2402
X1.4764Y-2.4173
X1.4882Y-1.7874
X1.4882Y-2.2835
X1.4921Y-2.6142
X1.4961Y-1.8701
X1.5394Y-3.2835
X1.5472Y-3.0787
X1.5551Y-3.4173
X1.5591Y-2.878
X1.563Y-2.9685
X1.563Y-3.7008
X1.6102Y-3.4803
X1.626Y-3.5118
X1.6339Y-2.4252
X1.6417Y-2.8031
X1.6457Y-2.1496
X1.6496Y-2.7126
X1.6575Y-3.3858
X1.6614Y-1.9567
X1.7008Y-2.2559
X1.7126Y-4.1181
X1.7165Y-4.0118
X1.7205Y-2.4331
X1.7283Y-3.3937
X1.7559Y-4.2717
X1.7638Y-2.5906
X1.7677Y-2.9449
X1.7756Y-3.0236
X1.7756Y-3.126
X1.7913Y-3.3622
X1.8071Y-3.1811
X1.8189Y-2.4291
X1.8228Y-3.0709
X1.8386Y-3.2835
X1.8465Y-2.8504
X1.8543Y-2.2953
X1.8622Y-2.1929
X1.8622Y-2.6693
X1.8701Y-3.126
X1.8819Y-2.0
X1.8858Y-3.1811
X1.8858Y-3.3701
X1.8976Y-1.9094
X1.9173Y-3.0472
X1.9291Y-1.7323
X1.9331Y-2.4331
X1.9331Y-2.8976
X1.9488Y-3.2362
X1.9567Y-3.3307
X1.9803Y-3.1181
X1.9961Y-2.563
X2.0709Y-4.0276
X2.0748Y-2.9213
X2.0748Y-3.3937
X2.0984Y-1.7283
X2.1496Y-4.2205
X2.1693Y-2.4331
X2.1693Y-2.5276
X2.1772Y-4.1339
X2.2165Y-3.9449
X2.2244Y-3.0236
X2.2402Y-3.1575
X2.2559Y-2.4567
X2.2559Y-2.7323
X2.2874Y-3.4331
X2.3268Y-3.2913
X2.3346Y-2.7087
X2.3346Y-2.8346
X2.3346Y-3.1181
X2.3425Y-2.5354
X2.3425Y-2.9921
X2.3465Y-4.2244
X2.3622Y-3.7402
X2.374Y-3.9724
X2.4291Y-3.315
X2.437Y-3.2126
X2.5039Y-3.7323
T3
X2.6024Y-2.75
X2.6024Y-3.2815
X2.6339Y-3.0157
T4
X2.3858Y-2.8819
X2.3858Y-3.1496
X2.4843Y-2.8819
X2.4843Y-3.1496
T5
X0.8685Y-2.7276
X0.8685Y-2.8177
X0.8685Y-2.9079
X0.8685Y-2.998
X0.8685Y-3.0882
X0.9685Y-2.7724
X0.9685Y-2.8626
X0.9685Y-2.9528
X0.9685Y-3.0429
X0.9685Y-3.1331
X1.0685Y-2.7276
X1.0685Y-2.8177
X1.0685Y-2.9079
X1.0685Y-2.998
X1.0685Y-3.0882
T6
X1.1575Y-2.5083
X1.1575Y-2.6583
X1.1575Y-2.8083
X1.1575Y-2.9583
X1.1575Y-3.1083
X1.1575Y-3.2583
X1.1575Y-3.4083
X1.1575Y-3.5583
X1.1575Y-3.7083
X1.1575Y-3.8583
X1.3575Y-2.4333
X1.3575Y-2.5833
X1.3575Y-2.7333
X1.3575Y-2.8833
X1.3575Y-3.0333
X1.3575Y-3.1833
X1.3575Y-3.3333
X1.3575Y-3.4833
X1.3575Y-3.6333
X1.3575Y-3.7833
X1.3575Y-3.9333
T7
X2.7185Y-2.2264
X2.7185Y-2.561
T8
X0.9685Y-2.426
X0.9685Y-3.4102
T9
X1.0709Y-2.1654
X1.0709Y-4.2232
T2
G00X0.815Y-1.7039
M15
G01X0.8386Y-1.7039
M16
G05
G00X0.815Y-2.0441
M15
G01X0.8386Y-2.0441
M16
G05
G00X0.9646Y-1.7039
M15
G01X0.9882Y-1.7039
M16
G05
G00X0.9646Y-2.0441
M15
G01X0.9882Y-2.0441
M16
G05
T5
G00X2.4469Y-2.3937
M15
G01X2.3878Y-2.3937
M16
G05
G00X2.439Y-4.0795
M15
G01X2.3799Y-4.0795
M16
G05
G00X2.439Y-3.5669
M15
G01X2.3799Y-3.5669
M16
G05
T6
G00X2.5945Y-2.3701
M15
G01X2.5945Y-2.4173
M16
G05
G00X2.5866Y-4.0559
M15
G01X2.5866Y-4.1031
M16
G05
G00X2.5866Y-3.5433
M15
G01X2.5866Y-3.5906
M16
G05
T0
M30
