G04 #@! TF.GenerationSoftware,KiCad,Pcbnew,(5.1.9)-1*
G04 #@! TF.CreationDate,2021-06-14T15:24:24+12:00*
G04 #@! TF.ProjectId,rgbntsc,7267626e-7473-4632-9e6b-696361645f70,rev?*
G04 #@! TF.SameCoordinates,Original*
G04 #@! TF.FileFunction,Legend,Top*
G04 #@! TF.FilePolarity,Positive*
%FSLAX46Y46*%
G04 Gerber Fmt 4.6, Leading zero omitted, Abs format (unit mm)*
G04 Created by KiCad (PCBNEW (5.1.9)-1) date 2021-06-14 15:24:24*
%MOMM*%
%LPD*%
G01*
G04 APERTURE LIST*
%ADD10C,0.200000*%
%ADD11C,0.120000*%
%ADD12C,0.150000*%
%ADD13C,0.400000*%
%ADD14C,0.127000*%
%ADD15C,0.010000*%
%ADD16C,0.050000*%
G04 APERTURE END LIST*
D10*
X47231904Y-103128571D02*
X46798571Y-102414285D01*
X46489047Y-103128571D02*
X46489047Y-101628571D01*
X46984285Y-101628571D01*
X47108095Y-101700000D01*
X47170000Y-101771428D01*
X47231904Y-101914285D01*
X47231904Y-102128571D01*
X47170000Y-102271428D01*
X47108095Y-102342857D01*
X46984285Y-102414285D01*
X46489047Y-102414285D01*
X48470000Y-101700000D02*
X48346190Y-101628571D01*
X48160476Y-101628571D01*
X47974761Y-101700000D01*
X47850952Y-101842857D01*
X47789047Y-101985714D01*
X47727142Y-102271428D01*
X47727142Y-102485714D01*
X47789047Y-102771428D01*
X47850952Y-102914285D01*
X47974761Y-103057142D01*
X48160476Y-103128571D01*
X48284285Y-103128571D01*
X48470000Y-103057142D01*
X48531904Y-102985714D01*
X48531904Y-102485714D01*
X48284285Y-102485714D01*
X49522380Y-102342857D02*
X49708095Y-102414285D01*
X49770000Y-102485714D01*
X49831904Y-102628571D01*
X49831904Y-102842857D01*
X49770000Y-102985714D01*
X49708095Y-103057142D01*
X49584285Y-103128571D01*
X49089047Y-103128571D01*
X49089047Y-101628571D01*
X49522380Y-101628571D01*
X49646190Y-101700000D01*
X49708095Y-101771428D01*
X49770000Y-101914285D01*
X49770000Y-102057142D01*
X49708095Y-102200000D01*
X49646190Y-102271428D01*
X49522380Y-102342857D01*
X49089047Y-102342857D01*
X51193809Y-102128571D02*
X51689047Y-102128571D01*
X51379523Y-101628571D02*
X51379523Y-102914285D01*
X51441428Y-103057142D01*
X51565238Y-103128571D01*
X51689047Y-103128571D01*
X52308095Y-103128571D02*
X52184285Y-103057142D01*
X52122380Y-102985714D01*
X52060476Y-102842857D01*
X52060476Y-102414285D01*
X52122380Y-102271428D01*
X52184285Y-102200000D01*
X52308095Y-102128571D01*
X52493809Y-102128571D01*
X52617619Y-102200000D01*
X52679523Y-102271428D01*
X52741428Y-102414285D01*
X52741428Y-102842857D01*
X52679523Y-102985714D01*
X52617619Y-103057142D01*
X52493809Y-103128571D01*
X52308095Y-103128571D01*
X54289047Y-103128571D02*
X54289047Y-101628571D01*
X55031904Y-103128571D01*
X55031904Y-101628571D01*
X55465238Y-101628571D02*
X56208095Y-101628571D01*
X55836666Y-103128571D02*
X55836666Y-101628571D01*
X56579523Y-103057142D02*
X56765238Y-103128571D01*
X57074761Y-103128571D01*
X57198571Y-103057142D01*
X57260476Y-102985714D01*
X57322380Y-102842857D01*
X57322380Y-102700000D01*
X57260476Y-102557142D01*
X57198571Y-102485714D01*
X57074761Y-102414285D01*
X56827142Y-102342857D01*
X56703333Y-102271428D01*
X56641428Y-102200000D01*
X56579523Y-102057142D01*
X56579523Y-101914285D01*
X56641428Y-101771428D01*
X56703333Y-101700000D01*
X56827142Y-101628571D01*
X57136666Y-101628571D01*
X57322380Y-101700000D01*
X58622380Y-102985714D02*
X58560476Y-103057142D01*
X58374761Y-103128571D01*
X58250952Y-103128571D01*
X58065238Y-103057142D01*
X57941428Y-102914285D01*
X57879523Y-102771428D01*
X57817619Y-102485714D01*
X57817619Y-102271428D01*
X57879523Y-101985714D01*
X57941428Y-101842857D01*
X58065238Y-101700000D01*
X58250952Y-101628571D01*
X58374761Y-101628571D01*
X58560476Y-101700000D01*
X58622380Y-101771428D01*
X38008095Y-104221428D02*
X38070000Y-104150000D01*
X38193809Y-104078571D01*
X38503333Y-104078571D01*
X38627142Y-104150000D01*
X38689047Y-104221428D01*
X38750952Y-104364285D01*
X38750952Y-104507142D01*
X38689047Y-104721428D01*
X37946190Y-105578571D01*
X38750952Y-105578571D01*
X39555714Y-104078571D02*
X39679523Y-104078571D01*
X39803333Y-104150000D01*
X39865238Y-104221428D01*
X39927142Y-104364285D01*
X39989047Y-104650000D01*
X39989047Y-105007142D01*
X39927142Y-105292857D01*
X39865238Y-105435714D01*
X39803333Y-105507142D01*
X39679523Y-105578571D01*
X39555714Y-105578571D01*
X39431904Y-105507142D01*
X39370000Y-105435714D01*
X39308095Y-105292857D01*
X39246190Y-105007142D01*
X39246190Y-104650000D01*
X39308095Y-104364285D01*
X39370000Y-104221428D01*
X39431904Y-104150000D01*
X39555714Y-104078571D01*
X40484285Y-104221428D02*
X40546190Y-104150000D01*
X40670000Y-104078571D01*
X40979523Y-104078571D01*
X41103333Y-104150000D01*
X41165238Y-104221428D01*
X41227142Y-104364285D01*
X41227142Y-104507142D01*
X41165238Y-104721428D01*
X40422380Y-105578571D01*
X41227142Y-105578571D01*
X42465238Y-105578571D02*
X41722380Y-105578571D01*
X42093809Y-105578571D02*
X42093809Y-104078571D01*
X41970000Y-104292857D01*
X41846190Y-104435714D01*
X41722380Y-104507142D01*
X43022380Y-105007142D02*
X44012857Y-105007142D01*
X44879523Y-104078571D02*
X45003333Y-104078571D01*
X45127142Y-104150000D01*
X45189047Y-104221428D01*
X45250952Y-104364285D01*
X45312857Y-104650000D01*
X45312857Y-105007142D01*
X45250952Y-105292857D01*
X45189047Y-105435714D01*
X45127142Y-105507142D01*
X45003333Y-105578571D01*
X44879523Y-105578571D01*
X44755714Y-105507142D01*
X44693809Y-105435714D01*
X44631904Y-105292857D01*
X44570000Y-105007142D01*
X44570000Y-104650000D01*
X44631904Y-104364285D01*
X44693809Y-104221428D01*
X44755714Y-104150000D01*
X44879523Y-104078571D01*
X46427142Y-104078571D02*
X46179523Y-104078571D01*
X46055714Y-104150000D01*
X45993809Y-104221428D01*
X45870000Y-104435714D01*
X45808095Y-104721428D01*
X45808095Y-105292857D01*
X45870000Y-105435714D01*
X45931904Y-105507142D01*
X46055714Y-105578571D01*
X46303333Y-105578571D01*
X46427142Y-105507142D01*
X46489047Y-105435714D01*
X46550952Y-105292857D01*
X46550952Y-104935714D01*
X46489047Y-104792857D01*
X46427142Y-104721428D01*
X46303333Y-104650000D01*
X46055714Y-104650000D01*
X45931904Y-104721428D01*
X45870000Y-104792857D01*
X45808095Y-104935714D01*
X47108095Y-105007142D02*
X48098571Y-105007142D01*
X49398571Y-105578571D02*
X48655714Y-105578571D01*
X49027142Y-105578571D02*
X49027142Y-104078571D01*
X48903333Y-104292857D01*
X48779523Y-104435714D01*
X48655714Y-104507142D01*
X50203333Y-104078571D02*
X50327142Y-104078571D01*
X50450952Y-104150000D01*
X50512857Y-104221428D01*
X50574761Y-104364285D01*
X50636666Y-104650000D01*
X50636666Y-105007142D01*
X50574761Y-105292857D01*
X50512857Y-105435714D01*
X50450952Y-105507142D01*
X50327142Y-105578571D01*
X50203333Y-105578571D01*
X50079523Y-105507142D01*
X50017619Y-105435714D01*
X49955714Y-105292857D01*
X49893809Y-105007142D01*
X49893809Y-104650000D01*
X49955714Y-104364285D01*
X50017619Y-104221428D01*
X50079523Y-104150000D01*
X50203333Y-104078571D01*
X52184285Y-105578571D02*
X52184285Y-104578571D01*
X52184285Y-104864285D02*
X52246190Y-104721428D01*
X52308095Y-104650000D01*
X52431904Y-104578571D01*
X52555714Y-104578571D01*
X53484285Y-105507142D02*
X53360476Y-105578571D01*
X53112857Y-105578571D01*
X52989047Y-105507142D01*
X52927142Y-105364285D01*
X52927142Y-104792857D01*
X52989047Y-104650000D01*
X53112857Y-104578571D01*
X53360476Y-104578571D01*
X53484285Y-104650000D01*
X53546190Y-104792857D01*
X53546190Y-104935714D01*
X52927142Y-105078571D01*
X53979523Y-104578571D02*
X54289047Y-105578571D01*
X54598571Y-104578571D01*
X55960476Y-104078571D02*
X56765238Y-104078571D01*
X56331904Y-104650000D01*
X56517619Y-104650000D01*
X56641428Y-104721428D01*
X56703333Y-104792857D01*
X56765238Y-104935714D01*
X56765238Y-105292857D01*
X56703333Y-105435714D01*
X56641428Y-105507142D01*
X56517619Y-105578571D01*
X56146190Y-105578571D01*
X56022380Y-105507142D01*
X55960476Y-105435714D01*
X57322380Y-105435714D02*
X57384285Y-105507142D01*
X57322380Y-105578571D01*
X57260476Y-105507142D01*
X57322380Y-105435714D01*
X57322380Y-105578571D01*
X57879523Y-104221428D02*
X57941428Y-104150000D01*
X58065238Y-104078571D01*
X58374761Y-104078571D01*
X58498571Y-104150000D01*
X58560476Y-104221428D01*
X58622380Y-104364285D01*
X58622380Y-104507142D01*
X58560476Y-104721428D01*
X57817619Y-105578571D01*
X58622380Y-105578571D01*
X42217619Y-107028571D02*
X42465238Y-108028571D01*
X42712857Y-107314285D01*
X42960476Y-108028571D01*
X43208095Y-107028571D01*
X44260476Y-108028571D02*
X44260476Y-107242857D01*
X44198571Y-107100000D01*
X44074761Y-107028571D01*
X43827142Y-107028571D01*
X43703333Y-107100000D01*
X44260476Y-107957142D02*
X44136666Y-108028571D01*
X43827142Y-108028571D01*
X43703333Y-107957142D01*
X43641428Y-107814285D01*
X43641428Y-107671428D01*
X43703333Y-107528571D01*
X43827142Y-107457142D01*
X44136666Y-107457142D01*
X44260476Y-107385714D01*
X44879523Y-108028571D02*
X44879523Y-106528571D01*
X45003333Y-107457142D02*
X45374761Y-108028571D01*
X45374761Y-107028571D02*
X44879523Y-107600000D01*
X46489047Y-108028571D02*
X46489047Y-107242857D01*
X46427142Y-107100000D01*
X46303333Y-107028571D01*
X46055714Y-107028571D01*
X45931904Y-107100000D01*
X46489047Y-107957142D02*
X46365238Y-108028571D01*
X46055714Y-108028571D01*
X45931904Y-107957142D01*
X45870000Y-107814285D01*
X45870000Y-107671428D01*
X45931904Y-107528571D01*
X46055714Y-107457142D01*
X46365238Y-107457142D01*
X46489047Y-107385714D01*
X47108095Y-108028571D02*
X47108095Y-106528571D01*
X47108095Y-107100000D02*
X47231904Y-107028571D01*
X47479523Y-107028571D01*
X47603333Y-107100000D01*
X47665238Y-107171428D01*
X47727142Y-107314285D01*
X47727142Y-107742857D01*
X47665238Y-107885714D01*
X47603333Y-107957142D01*
X47479523Y-108028571D01*
X47231904Y-108028571D01*
X47108095Y-107957142D01*
X48841428Y-108028571D02*
X48841428Y-107242857D01*
X48779523Y-107100000D01*
X48655714Y-107028571D01*
X48408095Y-107028571D01*
X48284285Y-107100000D01*
X48841428Y-107957142D02*
X48717619Y-108028571D01*
X48408095Y-108028571D01*
X48284285Y-107957142D01*
X48222380Y-107814285D01*
X48222380Y-107671428D01*
X48284285Y-107528571D01*
X48408095Y-107457142D01*
X48717619Y-107457142D01*
X48841428Y-107385714D01*
X49336666Y-107028571D02*
X49646190Y-108028571D01*
X49955714Y-107028571D01*
X50450952Y-108028571D02*
X50450952Y-107028571D01*
X50450952Y-106528571D02*
X50389047Y-106600000D01*
X50450952Y-106671428D01*
X50512857Y-106600000D01*
X50450952Y-106528571D01*
X50450952Y-106671428D01*
X51627142Y-108028571D02*
X51627142Y-106528571D01*
X51627142Y-107957142D02*
X51503333Y-108028571D01*
X51255714Y-108028571D01*
X51131904Y-107957142D01*
X51070000Y-107885714D01*
X51008095Y-107742857D01*
X51008095Y-107314285D01*
X51070000Y-107171428D01*
X51131904Y-107100000D01*
X51255714Y-107028571D01*
X51503333Y-107028571D01*
X51627142Y-107100000D01*
X52741428Y-107957142D02*
X52617619Y-108028571D01*
X52370000Y-108028571D01*
X52246190Y-107957142D01*
X52184285Y-107814285D01*
X52184285Y-107242857D01*
X52246190Y-107100000D01*
X52370000Y-107028571D01*
X52617619Y-107028571D01*
X52741428Y-107100000D01*
X52803333Y-107242857D01*
X52803333Y-107385714D01*
X52184285Y-107528571D01*
X53546190Y-108028571D02*
X53422380Y-107957142D01*
X53360476Y-107885714D01*
X53298571Y-107742857D01*
X53298571Y-107314285D01*
X53360476Y-107171428D01*
X53422380Y-107100000D01*
X53546190Y-107028571D01*
X53731904Y-107028571D01*
X53855714Y-107100000D01*
X53917619Y-107171428D01*
X53979523Y-107314285D01*
X53979523Y-107742857D01*
X53917619Y-107885714D01*
X53855714Y-107957142D01*
X53731904Y-108028571D01*
X53546190Y-108028571D01*
X54536666Y-107885714D02*
X54598571Y-107957142D01*
X54536666Y-108028571D01*
X54474761Y-107957142D01*
X54536666Y-107885714D01*
X54536666Y-108028571D01*
X55712857Y-107957142D02*
X55589047Y-108028571D01*
X55341428Y-108028571D01*
X55217619Y-107957142D01*
X55155714Y-107885714D01*
X55093809Y-107742857D01*
X55093809Y-107314285D01*
X55155714Y-107171428D01*
X55217619Y-107100000D01*
X55341428Y-107028571D01*
X55589047Y-107028571D01*
X55712857Y-107100000D01*
X56455714Y-108028571D02*
X56331904Y-107957142D01*
X56270000Y-107885714D01*
X56208095Y-107742857D01*
X56208095Y-107314285D01*
X56270000Y-107171428D01*
X56331904Y-107100000D01*
X56455714Y-107028571D01*
X56641428Y-107028571D01*
X56765238Y-107100000D01*
X56827142Y-107171428D01*
X56889047Y-107314285D01*
X56889047Y-107742857D01*
X56827142Y-107885714D01*
X56765238Y-107957142D01*
X56641428Y-108028571D01*
X56455714Y-108028571D01*
X57446190Y-108028571D02*
X57446190Y-107028571D01*
X57446190Y-107171428D02*
X57508095Y-107100000D01*
X57631904Y-107028571D01*
X57817619Y-107028571D01*
X57941428Y-107100000D01*
X58003333Y-107242857D01*
X58003333Y-108028571D01*
X58003333Y-107242857D02*
X58065238Y-107100000D01*
X58189047Y-107028571D01*
X58374761Y-107028571D01*
X58498571Y-107100000D01*
X58560476Y-107242857D01*
X58560476Y-108028571D01*
D11*
X55635000Y-73672936D02*
X55635000Y-74127064D01*
X54165000Y-73672936D02*
X54165000Y-74127064D01*
X53362936Y-44265000D02*
X53817064Y-44265000D01*
X53362936Y-45735000D02*
X53817064Y-45735000D01*
X57000000Y-45960000D02*
X59685000Y-45960000D01*
X59685000Y-45960000D02*
X59685000Y-44040000D01*
X59685000Y-44040000D02*
X57000000Y-44040000D01*
X53472936Y-89735000D02*
X53927064Y-89735000D01*
X53472936Y-88265000D02*
X53927064Y-88265000D01*
X31738748Y-44235000D02*
X32261252Y-44235000D01*
X31738748Y-42765000D02*
X32261252Y-42765000D01*
X47135000Y-91772936D02*
X47135000Y-92227064D01*
X45665000Y-91772936D02*
X45665000Y-92227064D01*
X45135000Y-91772936D02*
X45135000Y-92227064D01*
X43665000Y-91772936D02*
X43665000Y-92227064D01*
X43135000Y-91772936D02*
X43135000Y-92227064D01*
X41665000Y-91772936D02*
X41665000Y-92227064D01*
X65410000Y-54410000D02*
X65410000Y-52060000D01*
X65410000Y-47590000D02*
X65410000Y-49940000D01*
X59654437Y-47590000D02*
X65410000Y-47590000D01*
X59654437Y-54410000D02*
X65410000Y-54410000D01*
X58590000Y-53345563D02*
X58590000Y-52060000D01*
X58590000Y-48654437D02*
X58590000Y-49940000D01*
X58590000Y-48654437D02*
X59654437Y-47590000D01*
X58590000Y-53345563D02*
X59654437Y-54410000D01*
X57562500Y-49152500D02*
X58350000Y-49152500D01*
X57956250Y-48758750D02*
X57956250Y-49546250D01*
X47135000Y-88338748D02*
X47135000Y-88861252D01*
X45665000Y-88338748D02*
X45665000Y-88861252D01*
X45135000Y-88338748D02*
X45135000Y-88861252D01*
X43665000Y-88338748D02*
X43665000Y-88861252D01*
X43135000Y-88338748D02*
X43135000Y-88861252D01*
X41665000Y-88338748D02*
X41665000Y-88861252D01*
X45565000Y-97361252D02*
X45565000Y-96838748D01*
X47035000Y-97361252D02*
X47035000Y-96838748D01*
X40861252Y-50335000D02*
X40338748Y-50335000D01*
X40861252Y-48865000D02*
X40338748Y-48865000D01*
X55361252Y-87735000D02*
X54838748Y-87735000D01*
X55361252Y-86265000D02*
X54838748Y-86265000D01*
X38535000Y-88638748D02*
X38535000Y-89161252D01*
X37065000Y-88638748D02*
X37065000Y-89161252D01*
X38535000Y-81038748D02*
X38535000Y-81561252D01*
X37065000Y-81038748D02*
X37065000Y-81561252D01*
X37065000Y-77761252D02*
X37065000Y-77238748D01*
X38535000Y-77761252D02*
X38535000Y-77238748D01*
X45461252Y-61235000D02*
X44938748Y-61235000D01*
X45461252Y-59765000D02*
X44938748Y-59765000D01*
X36235000Y-44338748D02*
X36235000Y-44861252D01*
X34765000Y-44338748D02*
X34765000Y-44861252D01*
X45261252Y-69385000D02*
X44738748Y-69385000D01*
X45261252Y-67915000D02*
X44738748Y-67915000D01*
X40235000Y-66038748D02*
X40235000Y-66561252D01*
X38765000Y-66038748D02*
X38765000Y-66561252D01*
D12*
X41725000Y-98775000D02*
X41950000Y-98775000D01*
X41725000Y-95425000D02*
X42025000Y-95425000D01*
X45075000Y-95425000D02*
X44775000Y-95425000D01*
X45075000Y-98775000D02*
X44775000Y-98775000D01*
X41725000Y-98775000D02*
X41725000Y-95425000D01*
X45075000Y-98775000D02*
X45075000Y-95425000D01*
X41950000Y-98775000D02*
X41950000Y-100000000D01*
D11*
X49072936Y-88965000D02*
X49527064Y-88965000D01*
X49072936Y-90435000D02*
X49527064Y-90435000D01*
X49072936Y-86965000D02*
X49527064Y-86965000D01*
X49072936Y-88435000D02*
X49527064Y-88435000D01*
X49072936Y-90965000D02*
X49527064Y-90965000D01*
X49072936Y-92435000D02*
X49527064Y-92435000D01*
X40326000Y-43882000D02*
X40326000Y-45342000D01*
X37166000Y-43882000D02*
X37166000Y-46042000D01*
X37166000Y-43882000D02*
X38096000Y-43882000D01*
X40326000Y-43882000D02*
X39396000Y-43882000D01*
X34127064Y-56735000D02*
X33672936Y-56735000D01*
X34127064Y-55265000D02*
X33672936Y-55265000D01*
X53435000Y-73672936D02*
X53435000Y-74127064D01*
X51965000Y-73672936D02*
X51965000Y-74127064D01*
X47635000Y-73672936D02*
X47635000Y-74127064D01*
X46165000Y-73672936D02*
X46165000Y-74127064D01*
X49927064Y-75535000D02*
X49472936Y-75535000D01*
X49927064Y-74065000D02*
X49472936Y-74065000D01*
X38535000Y-92472936D02*
X38535000Y-92927064D01*
X37065000Y-92472936D02*
X37065000Y-92927064D01*
X37027064Y-48335000D02*
X36572936Y-48335000D01*
X37027064Y-46865000D02*
X36572936Y-46865000D01*
X40827064Y-48335000D02*
X40372936Y-48335000D01*
X40827064Y-46865000D02*
X40372936Y-46865000D01*
X38535000Y-84872936D02*
X38535000Y-85327064D01*
X37065000Y-84872936D02*
X37065000Y-85327064D01*
X37065000Y-73927064D02*
X37065000Y-73472936D01*
X38535000Y-73927064D02*
X38535000Y-73472936D01*
X45227064Y-71435000D02*
X44772936Y-71435000D01*
X45227064Y-69965000D02*
X44772936Y-69965000D01*
X29827064Y-48935000D02*
X29372936Y-48935000D01*
X29827064Y-47465000D02*
X29372936Y-47465000D01*
X29827064Y-46935000D02*
X29372936Y-46935000D01*
X29827064Y-45465000D02*
X29372936Y-45465000D01*
X38765000Y-62527064D02*
X38765000Y-62072936D01*
X40235000Y-62527064D02*
X40235000Y-62072936D01*
D13*
X63300000Y-68940000D02*
G75*
G03*
X63300000Y-68940000I-200000J0D01*
G01*
D14*
X58600000Y-83600000D02*
X64250000Y-83600000D01*
X71600000Y-83600000D02*
X67910000Y-83600000D01*
X58600000Y-69600000D02*
X64250000Y-69600000D01*
X71600000Y-69600000D02*
X67910000Y-69600000D01*
X58600000Y-83600000D02*
X58600000Y-69600000D01*
X71600000Y-69600000D02*
X71600000Y-83600000D01*
D11*
X41390000Y-81100000D02*
X41390000Y-85550000D01*
X41390000Y-81100000D02*
X41390000Y-78450000D01*
X56610000Y-81100000D02*
X56610000Y-83750000D01*
X56610000Y-81100000D02*
X56610000Y-78450000D01*
X56241250Y-62956250D02*
X55453750Y-62956250D01*
X55847500Y-62562500D02*
X55847500Y-63350000D01*
X51654437Y-63590000D02*
X50590000Y-64654437D01*
X56345563Y-63590000D02*
X57410000Y-64654437D01*
X56345563Y-63590000D02*
X55060000Y-63590000D01*
X51654437Y-63590000D02*
X52940000Y-63590000D01*
X50590000Y-64654437D02*
X50590000Y-70410000D01*
X57410000Y-64654437D02*
X57410000Y-70410000D01*
X57410000Y-70410000D02*
X55060000Y-70410000D01*
X50590000Y-70410000D02*
X52940000Y-70410000D01*
X49956250Y-55958750D02*
X49956250Y-56746250D01*
X49562500Y-56352500D02*
X50350000Y-56352500D01*
X50590000Y-60545563D02*
X51654437Y-61610000D01*
X50590000Y-55854437D02*
X51654437Y-54790000D01*
X50590000Y-55854437D02*
X50590000Y-57140000D01*
X50590000Y-60545563D02*
X50590000Y-59260000D01*
X51654437Y-61610000D02*
X57410000Y-61610000D01*
X51654437Y-54790000D02*
X57410000Y-54790000D01*
X57410000Y-54790000D02*
X57410000Y-57140000D01*
X57410000Y-61610000D02*
X57410000Y-59260000D01*
X38800000Y-51390000D02*
X36350000Y-51390000D01*
X37000000Y-54610000D02*
X38800000Y-54610000D01*
X34800000Y-51390000D02*
X32350000Y-51390000D01*
X33000000Y-54610000D02*
X34800000Y-54610000D01*
X45900000Y-53950000D02*
X45900000Y-58050000D01*
X45900000Y-58050000D02*
X43900000Y-58050000D01*
X43900000Y-58050000D02*
X43900000Y-53950000D01*
X43900000Y-53950000D02*
X45900000Y-53950000D01*
X43700000Y-54700000D02*
X43400000Y-54400000D01*
X43400000Y-54400000D02*
X43400000Y-55000000D01*
X43700000Y-54700000D02*
X43400000Y-55000000D01*
D15*
G36*
X51899334Y-94004484D02*
G01*
X51944447Y-94121512D01*
X52008691Y-94222524D01*
X52088475Y-94310076D01*
X52185612Y-94327480D01*
X52356537Y-94275772D01*
X52470645Y-94230999D01*
X52839344Y-94137396D01*
X53282480Y-94128687D01*
X53820845Y-94206805D01*
X54475228Y-94373685D01*
X54682855Y-94436825D01*
X55143707Y-94580918D01*
X55473757Y-94676618D01*
X55704691Y-94723190D01*
X55868197Y-94719898D01*
X55995960Y-94666009D01*
X56119666Y-94560787D01*
X56271003Y-94403498D01*
X56274427Y-94399922D01*
X56499966Y-94170356D01*
X56634873Y-94055627D01*
X56701952Y-94044848D01*
X56724009Y-94127135D01*
X56725334Y-94184676D01*
X56751028Y-94292418D01*
X56859400Y-94320257D01*
X57010903Y-94302345D01*
X57231758Y-94295234D01*
X57354044Y-94349172D01*
X57354566Y-94350002D01*
X57340225Y-94428136D01*
X57259497Y-94444420D01*
X57096414Y-94496041D01*
X56890920Y-94622744D01*
X56852334Y-94653042D01*
X56598334Y-94861243D01*
X56920830Y-94864288D01*
X57124185Y-94885228D01*
X57196286Y-94936652D01*
X57191000Y-94952000D01*
X57072986Y-95020282D01*
X56953170Y-95036895D01*
X56863349Y-95050574D01*
X56870404Y-95107697D01*
X56987209Y-95232892D01*
X57119169Y-95354395D01*
X57596816Y-95881520D01*
X57962079Y-96507455D01*
X58177116Y-97072906D01*
X58260163Y-97363925D01*
X58316230Y-97638356D01*
X58350093Y-97941141D01*
X58366527Y-98317217D01*
X58370307Y-98811524D01*
X58370111Y-98889000D01*
X58346052Y-99646868D01*
X58274011Y-100275177D01*
X58145865Y-100808941D01*
X57953495Y-101283177D01*
X57722049Y-101683000D01*
X57554563Y-101922212D01*
X57418423Y-102052208D01*
X57259288Y-102109823D01*
X57063346Y-102129524D01*
X56588660Y-102077596D01*
X56325237Y-101973534D01*
X55974076Y-101723867D01*
X55718422Y-101364554D01*
X55542739Y-100872973D01*
X55528386Y-100813140D01*
X55428632Y-100380982D01*
X55185023Y-100687524D01*
X54856819Y-101028483D01*
X54454593Y-101300193D01*
X53931611Y-101533962D01*
X53908971Y-101542427D01*
X53012197Y-101816885D01*
X52189818Y-101946786D01*
X51445390Y-101932206D01*
X50782469Y-101773222D01*
X50204613Y-101469911D01*
X50194357Y-101462664D01*
X50031763Y-101362182D01*
X49934238Y-101365124D01*
X49861857Y-101435598D01*
X49601643Y-101632570D01*
X49235698Y-101760951D01*
X48815983Y-101813853D01*
X48394460Y-101784387D01*
X48045178Y-101676460D01*
X47867328Y-101577041D01*
X47751967Y-101456079D01*
X47680066Y-101272818D01*
X47632597Y-100986503D01*
X47608366Y-100751593D01*
X47753669Y-100751593D01*
X47761480Y-100982727D01*
X47799792Y-101138855D01*
X47877000Y-101266863D01*
X47936376Y-101339123D01*
X48116068Y-101499565D01*
X48344416Y-101586074D01*
X48576557Y-101619537D01*
X48990560Y-101634300D01*
X49302930Y-101577276D01*
X49570652Y-101435962D01*
X49635867Y-101387115D01*
X49855247Y-101214550D01*
X49614815Y-100951312D01*
X49424711Y-100629213D01*
X49316881Y-100190861D01*
X49290129Y-99667333D01*
X49343264Y-99089708D01*
X49475090Y-98489067D01*
X49684415Y-97896487D01*
X49736666Y-97779093D01*
X49887684Y-97422497D01*
X50011698Y-97074949D01*
X50086632Y-96799790D01*
X50094915Y-96751166D01*
X50142844Y-96531603D01*
X50205032Y-96404223D01*
X50229302Y-96391333D01*
X50285579Y-96463881D01*
X50283665Y-96659321D01*
X50230752Y-96944341D01*
X50134036Y-97285632D01*
X50000709Y-97649885D01*
X49915035Y-97846532D01*
X49656037Y-98545577D01*
X49511598Y-99258557D01*
X49489856Y-99937071D01*
X49519263Y-100200081D01*
X49577426Y-100473375D01*
X49670207Y-100678348D01*
X49834306Y-100877832D01*
X50018202Y-101054237D01*
X50571259Y-101462661D01*
X51169665Y-101708960D01*
X51822958Y-101796511D01*
X52091685Y-101788571D01*
X52583564Y-101721176D01*
X53135137Y-101593750D01*
X53686927Y-101424217D01*
X54179457Y-101230506D01*
X54506027Y-101060887D01*
X54764889Y-100854572D01*
X55022674Y-100577286D01*
X55138715Y-100418537D01*
X55408377Y-100000741D01*
X55385431Y-98767537D01*
X55360042Y-98073557D01*
X55308201Y-97513854D01*
X55223275Y-97054537D01*
X55098633Y-96661713D01*
X54927642Y-96301491D01*
X54889832Y-96234740D01*
X54765573Y-95977913D01*
X54740632Y-95815691D01*
X54756097Y-95786703D01*
X54833119Y-95815499D01*
X54962030Y-95988743D01*
X55133185Y-96293124D01*
X55157882Y-96341330D01*
X55479890Y-96975735D01*
X55548711Y-98609701D01*
X55579802Y-99303612D01*
X55609652Y-99851631D01*
X55641007Y-100277151D01*
X55676615Y-100603568D01*
X55719222Y-100854274D01*
X55771575Y-101052663D01*
X55836421Y-101222131D01*
X55861987Y-101277707D01*
X56069696Y-101567650D01*
X56359879Y-101787765D01*
X56691657Y-101925036D01*
X57024153Y-101966445D01*
X57316488Y-101898979D01*
X57467248Y-101788833D01*
X57753750Y-101381418D01*
X57986618Y-100845907D01*
X58160407Y-100216534D01*
X58269675Y-99527533D01*
X58308981Y-98813138D01*
X58272881Y-98107583D01*
X58157084Y-97449666D01*
X58045749Y-97071743D01*
X57909694Y-96703921D01*
X57767712Y-96389885D01*
X57638598Y-96173319D01*
X57582150Y-96113251D01*
X57445012Y-95964770D01*
X57319797Y-95768040D01*
X57175290Y-95573772D01*
X57013528Y-95456905D01*
X56830353Y-95353341D01*
X56619445Y-95190057D01*
X56592132Y-95165334D01*
X56440912Y-95005190D01*
X56406369Y-94887925D01*
X56453901Y-94779117D01*
X56549527Y-94588148D01*
X56530836Y-94517189D01*
X56407055Y-94570447D01*
X56256721Y-94689229D01*
X56060623Y-94841909D01*
X55874324Y-94920918D01*
X55626878Y-94949432D01*
X55452387Y-94952000D01*
X55183002Y-94939079D01*
X55000497Y-94905363D01*
X54947334Y-94867333D01*
X55014819Y-94783068D01*
X55053167Y-94774227D01*
X55102653Y-94753981D01*
X55025154Y-94719592D01*
X54861397Y-94680311D01*
X54652107Y-94645386D01*
X54438009Y-94624065D01*
X54381881Y-94621772D01*
X54124745Y-94586058D01*
X53928515Y-94507616D01*
X53897571Y-94482808D01*
X53608568Y-94294060D01*
X53241246Y-94234855D01*
X52784355Y-94304978D01*
X52349528Y-94452942D01*
X52156259Y-94515115D01*
X52034183Y-94484183D01*
X51916619Y-94359654D01*
X51753181Y-94157817D01*
X51655741Y-94339887D01*
X51558300Y-94521957D01*
X51251335Y-94313645D01*
X51005763Y-94160303D01*
X50874787Y-94117532D01*
X50844741Y-94185347D01*
X50882194Y-94314002D01*
X50921269Y-94501465D01*
X50849733Y-94561950D01*
X50670254Y-94494338D01*
X50581718Y-94439737D01*
X50318771Y-94326964D01*
X50012516Y-94278585D01*
X49738351Y-94302024D01*
X49631739Y-94346166D01*
X49617942Y-94412092D01*
X49766747Y-94493081D01*
X49861766Y-94526829D01*
X50085758Y-94623889D01*
X50143904Y-94705312D01*
X50039584Y-94761452D01*
X49776178Y-94782663D01*
X49772104Y-94782666D01*
X49422607Y-94821155D01*
X49121888Y-94955537D01*
X48830167Y-95189852D01*
X48651675Y-95374373D01*
X48613014Y-95463540D01*
X48713481Y-95456469D01*
X48952377Y-95352276D01*
X48957167Y-95349891D01*
X49202878Y-95261972D01*
X49509862Y-95199413D01*
X49832338Y-95165139D01*
X50124525Y-95162078D01*
X50340641Y-95193153D01*
X50433336Y-95255555D01*
X50382846Y-95341727D01*
X50218846Y-95453598D01*
X50117589Y-95504021D01*
X49735831Y-95744289D01*
X49482970Y-96075940D01*
X49357053Y-96423553D01*
X49291635Y-96609191D01*
X49162617Y-96914647D01*
X48983913Y-97309190D01*
X48769435Y-97762086D01*
X48537168Y-98234484D01*
X48283345Y-98743603D01*
X48095465Y-99131584D01*
X47962902Y-99428324D01*
X47875031Y-99663717D01*
X47821224Y-99867661D01*
X47790855Y-100070049D01*
X47773299Y-100300778D01*
X47767962Y-100398568D01*
X47753669Y-100751593D01*
X47608366Y-100751593D01*
X47606952Y-100737893D01*
X47591936Y-100367543D01*
X47626484Y-100013255D01*
X47720611Y-99638910D01*
X47884333Y-99208389D01*
X48127667Y-98685571D01*
X48236209Y-98468746D01*
X48503007Y-97941987D01*
X48704482Y-97540786D01*
X48852244Y-97239854D01*
X48957900Y-97013898D01*
X49033060Y-96837629D01*
X49089331Y-96685755D01*
X49138323Y-96532987D01*
X49163974Y-96447498D01*
X49326144Y-96008241D01*
X49523732Y-95696832D01*
X49783902Y-95471990D01*
X49821377Y-95448403D01*
X50079000Y-95291299D01*
X49782667Y-95292842D01*
X49421803Y-95354056D01*
X49003947Y-95518918D01*
X48584210Y-95764159D01*
X48469796Y-95847150D01*
X48272471Y-95972923D01*
X48181177Y-95972425D01*
X48196139Y-95851587D01*
X48317581Y-95616344D01*
X48453148Y-95405744D01*
X48820263Y-94997866D01*
X49151648Y-94782838D01*
X49571000Y-94571343D01*
X49274667Y-94522567D01*
X48978334Y-94473792D01*
X49401667Y-94282055D01*
X49787842Y-94148101D01*
X50152688Y-94121955D01*
X50219456Y-94126989D01*
X50461599Y-94138972D01*
X50566951Y-94111086D01*
X50570231Y-94049830D01*
X50594304Y-93960046D01*
X50742113Y-93939778D01*
X50983359Y-93988212D01*
X51201889Y-94066828D01*
X51409703Y-94144309D01*
X51523931Y-94147652D01*
X51603228Y-94076856D01*
X51610670Y-94066828D01*
X51732798Y-93962261D01*
X51850477Y-93939101D01*
X51899334Y-94004484D01*
G37*
X51899334Y-94004484D02*
X51944447Y-94121512D01*
X52008691Y-94222524D01*
X52088475Y-94310076D01*
X52185612Y-94327480D01*
X52356537Y-94275772D01*
X52470645Y-94230999D01*
X52839344Y-94137396D01*
X53282480Y-94128687D01*
X53820845Y-94206805D01*
X54475228Y-94373685D01*
X54682855Y-94436825D01*
X55143707Y-94580918D01*
X55473757Y-94676618D01*
X55704691Y-94723190D01*
X55868197Y-94719898D01*
X55995960Y-94666009D01*
X56119666Y-94560787D01*
X56271003Y-94403498D01*
X56274427Y-94399922D01*
X56499966Y-94170356D01*
X56634873Y-94055627D01*
X56701952Y-94044848D01*
X56724009Y-94127135D01*
X56725334Y-94184676D01*
X56751028Y-94292418D01*
X56859400Y-94320257D01*
X57010903Y-94302345D01*
X57231758Y-94295234D01*
X57354044Y-94349172D01*
X57354566Y-94350002D01*
X57340225Y-94428136D01*
X57259497Y-94444420D01*
X57096414Y-94496041D01*
X56890920Y-94622744D01*
X56852334Y-94653042D01*
X56598334Y-94861243D01*
X56920830Y-94864288D01*
X57124185Y-94885228D01*
X57196286Y-94936652D01*
X57191000Y-94952000D01*
X57072986Y-95020282D01*
X56953170Y-95036895D01*
X56863349Y-95050574D01*
X56870404Y-95107697D01*
X56987209Y-95232892D01*
X57119169Y-95354395D01*
X57596816Y-95881520D01*
X57962079Y-96507455D01*
X58177116Y-97072906D01*
X58260163Y-97363925D01*
X58316230Y-97638356D01*
X58350093Y-97941141D01*
X58366527Y-98317217D01*
X58370307Y-98811524D01*
X58370111Y-98889000D01*
X58346052Y-99646868D01*
X58274011Y-100275177D01*
X58145865Y-100808941D01*
X57953495Y-101283177D01*
X57722049Y-101683000D01*
X57554563Y-101922212D01*
X57418423Y-102052208D01*
X57259288Y-102109823D01*
X57063346Y-102129524D01*
X56588660Y-102077596D01*
X56325237Y-101973534D01*
X55974076Y-101723867D01*
X55718422Y-101364554D01*
X55542739Y-100872973D01*
X55528386Y-100813140D01*
X55428632Y-100380982D01*
X55185023Y-100687524D01*
X54856819Y-101028483D01*
X54454593Y-101300193D01*
X53931611Y-101533962D01*
X53908971Y-101542427D01*
X53012197Y-101816885D01*
X52189818Y-101946786D01*
X51445390Y-101932206D01*
X50782469Y-101773222D01*
X50204613Y-101469911D01*
X50194357Y-101462664D01*
X50031763Y-101362182D01*
X49934238Y-101365124D01*
X49861857Y-101435598D01*
X49601643Y-101632570D01*
X49235698Y-101760951D01*
X48815983Y-101813853D01*
X48394460Y-101784387D01*
X48045178Y-101676460D01*
X47867328Y-101577041D01*
X47751967Y-101456079D01*
X47680066Y-101272818D01*
X47632597Y-100986503D01*
X47608366Y-100751593D01*
X47753669Y-100751593D01*
X47761480Y-100982727D01*
X47799792Y-101138855D01*
X47877000Y-101266863D01*
X47936376Y-101339123D01*
X48116068Y-101499565D01*
X48344416Y-101586074D01*
X48576557Y-101619537D01*
X48990560Y-101634300D01*
X49302930Y-101577276D01*
X49570652Y-101435962D01*
X49635867Y-101387115D01*
X49855247Y-101214550D01*
X49614815Y-100951312D01*
X49424711Y-100629213D01*
X49316881Y-100190861D01*
X49290129Y-99667333D01*
X49343264Y-99089708D01*
X49475090Y-98489067D01*
X49684415Y-97896487D01*
X49736666Y-97779093D01*
X49887684Y-97422497D01*
X50011698Y-97074949D01*
X50086632Y-96799790D01*
X50094915Y-96751166D01*
X50142844Y-96531603D01*
X50205032Y-96404223D01*
X50229302Y-96391333D01*
X50285579Y-96463881D01*
X50283665Y-96659321D01*
X50230752Y-96944341D01*
X50134036Y-97285632D01*
X50000709Y-97649885D01*
X49915035Y-97846532D01*
X49656037Y-98545577D01*
X49511598Y-99258557D01*
X49489856Y-99937071D01*
X49519263Y-100200081D01*
X49577426Y-100473375D01*
X49670207Y-100678348D01*
X49834306Y-100877832D01*
X50018202Y-101054237D01*
X50571259Y-101462661D01*
X51169665Y-101708960D01*
X51822958Y-101796511D01*
X52091685Y-101788571D01*
X52583564Y-101721176D01*
X53135137Y-101593750D01*
X53686927Y-101424217D01*
X54179457Y-101230506D01*
X54506027Y-101060887D01*
X54764889Y-100854572D01*
X55022674Y-100577286D01*
X55138715Y-100418537D01*
X55408377Y-100000741D01*
X55385431Y-98767537D01*
X55360042Y-98073557D01*
X55308201Y-97513854D01*
X55223275Y-97054537D01*
X55098633Y-96661713D01*
X54927642Y-96301491D01*
X54889832Y-96234740D01*
X54765573Y-95977913D01*
X54740632Y-95815691D01*
X54756097Y-95786703D01*
X54833119Y-95815499D01*
X54962030Y-95988743D01*
X55133185Y-96293124D01*
X55157882Y-96341330D01*
X55479890Y-96975735D01*
X55548711Y-98609701D01*
X55579802Y-99303612D01*
X55609652Y-99851631D01*
X55641007Y-100277151D01*
X55676615Y-100603568D01*
X55719222Y-100854274D01*
X55771575Y-101052663D01*
X55836421Y-101222131D01*
X55861987Y-101277707D01*
X56069696Y-101567650D01*
X56359879Y-101787765D01*
X56691657Y-101925036D01*
X57024153Y-101966445D01*
X57316488Y-101898979D01*
X57467248Y-101788833D01*
X57753750Y-101381418D01*
X57986618Y-100845907D01*
X58160407Y-100216534D01*
X58269675Y-99527533D01*
X58308981Y-98813138D01*
X58272881Y-98107583D01*
X58157084Y-97449666D01*
X58045749Y-97071743D01*
X57909694Y-96703921D01*
X57767712Y-96389885D01*
X57638598Y-96173319D01*
X57582150Y-96113251D01*
X57445012Y-95964770D01*
X57319797Y-95768040D01*
X57175290Y-95573772D01*
X57013528Y-95456905D01*
X56830353Y-95353341D01*
X56619445Y-95190057D01*
X56592132Y-95165334D01*
X56440912Y-95005190D01*
X56406369Y-94887925D01*
X56453901Y-94779117D01*
X56549527Y-94588148D01*
X56530836Y-94517189D01*
X56407055Y-94570447D01*
X56256721Y-94689229D01*
X56060623Y-94841909D01*
X55874324Y-94920918D01*
X55626878Y-94949432D01*
X55452387Y-94952000D01*
X55183002Y-94939079D01*
X55000497Y-94905363D01*
X54947334Y-94867333D01*
X55014819Y-94783068D01*
X55053167Y-94774227D01*
X55102653Y-94753981D01*
X55025154Y-94719592D01*
X54861397Y-94680311D01*
X54652107Y-94645386D01*
X54438009Y-94624065D01*
X54381881Y-94621772D01*
X54124745Y-94586058D01*
X53928515Y-94507616D01*
X53897571Y-94482808D01*
X53608568Y-94294060D01*
X53241246Y-94234855D01*
X52784355Y-94304978D01*
X52349528Y-94452942D01*
X52156259Y-94515115D01*
X52034183Y-94484183D01*
X51916619Y-94359654D01*
X51753181Y-94157817D01*
X51655741Y-94339887D01*
X51558300Y-94521957D01*
X51251335Y-94313645D01*
X51005763Y-94160303D01*
X50874787Y-94117532D01*
X50844741Y-94185347D01*
X50882194Y-94314002D01*
X50921269Y-94501465D01*
X50849733Y-94561950D01*
X50670254Y-94494338D01*
X50581718Y-94439737D01*
X50318771Y-94326964D01*
X50012516Y-94278585D01*
X49738351Y-94302024D01*
X49631739Y-94346166D01*
X49617942Y-94412092D01*
X49766747Y-94493081D01*
X49861766Y-94526829D01*
X50085758Y-94623889D01*
X50143904Y-94705312D01*
X50039584Y-94761452D01*
X49776178Y-94782663D01*
X49772104Y-94782666D01*
X49422607Y-94821155D01*
X49121888Y-94955537D01*
X48830167Y-95189852D01*
X48651675Y-95374373D01*
X48613014Y-95463540D01*
X48713481Y-95456469D01*
X48952377Y-95352276D01*
X48957167Y-95349891D01*
X49202878Y-95261972D01*
X49509862Y-95199413D01*
X49832338Y-95165139D01*
X50124525Y-95162078D01*
X50340641Y-95193153D01*
X50433336Y-95255555D01*
X50382846Y-95341727D01*
X50218846Y-95453598D01*
X50117589Y-95504021D01*
X49735831Y-95744289D01*
X49482970Y-96075940D01*
X49357053Y-96423553D01*
X49291635Y-96609191D01*
X49162617Y-96914647D01*
X48983913Y-97309190D01*
X48769435Y-97762086D01*
X48537168Y-98234484D01*
X48283345Y-98743603D01*
X48095465Y-99131584D01*
X47962902Y-99428324D01*
X47875031Y-99663717D01*
X47821224Y-99867661D01*
X47790855Y-100070049D01*
X47773299Y-100300778D01*
X47767962Y-100398568D01*
X47753669Y-100751593D01*
X47608366Y-100751593D01*
X47606952Y-100737893D01*
X47591936Y-100367543D01*
X47626484Y-100013255D01*
X47720611Y-99638910D01*
X47884333Y-99208389D01*
X48127667Y-98685571D01*
X48236209Y-98468746D01*
X48503007Y-97941987D01*
X48704482Y-97540786D01*
X48852244Y-97239854D01*
X48957900Y-97013898D01*
X49033060Y-96837629D01*
X49089331Y-96685755D01*
X49138323Y-96532987D01*
X49163974Y-96447498D01*
X49326144Y-96008241D01*
X49523732Y-95696832D01*
X49783902Y-95471990D01*
X49821377Y-95448403D01*
X50079000Y-95291299D01*
X49782667Y-95292842D01*
X49421803Y-95354056D01*
X49003947Y-95518918D01*
X48584210Y-95764159D01*
X48469796Y-95847150D01*
X48272471Y-95972923D01*
X48181177Y-95972425D01*
X48196139Y-95851587D01*
X48317581Y-95616344D01*
X48453148Y-95405744D01*
X48820263Y-94997866D01*
X49151648Y-94782838D01*
X49571000Y-94571343D01*
X49274667Y-94522567D01*
X48978334Y-94473792D01*
X49401667Y-94282055D01*
X49787842Y-94148101D01*
X50152688Y-94121955D01*
X50219456Y-94126989D01*
X50461599Y-94138972D01*
X50566951Y-94111086D01*
X50570231Y-94049830D01*
X50594304Y-93960046D01*
X50742113Y-93939778D01*
X50983359Y-93988212D01*
X51201889Y-94066828D01*
X51409703Y-94144309D01*
X51523931Y-94147652D01*
X51603228Y-94076856D01*
X51610670Y-94066828D01*
X51732798Y-93962261D01*
X51850477Y-93939101D01*
X51899334Y-94004484D01*
G36*
X51407955Y-100587219D02*
G01*
X51596496Y-100689485D01*
X51613578Y-100702527D01*
X51778312Y-100815840D01*
X51886252Y-100822880D01*
X51982567Y-100752963D01*
X52189879Y-100634858D01*
X52370553Y-100683261D01*
X52454676Y-100772833D01*
X52538117Y-100862355D01*
X52624932Y-100849487D01*
X52771741Y-100724915D01*
X52777202Y-100719788D01*
X52964489Y-100598648D01*
X53135774Y-100572085D01*
X53241260Y-100641776D01*
X53254000Y-100703730D01*
X53194660Y-100838184D01*
X53048787Y-101022751D01*
X52864602Y-101207998D01*
X52690326Y-101344492D01*
X52589063Y-101385370D01*
X52392821Y-101339696D01*
X52326654Y-101306256D01*
X52156375Y-101264127D01*
X51967376Y-101275691D01*
X51754421Y-101266197D01*
X51537331Y-101176628D01*
X51345239Y-101036059D01*
X51207280Y-100873564D01*
X51152586Y-100718220D01*
X51210290Y-100599101D01*
X51261844Y-100571572D01*
X51407955Y-100587219D01*
G37*
X51407955Y-100587219D02*
X51596496Y-100689485D01*
X51613578Y-100702527D01*
X51778312Y-100815840D01*
X51886252Y-100822880D01*
X51982567Y-100752963D01*
X52189879Y-100634858D01*
X52370553Y-100683261D01*
X52454676Y-100772833D01*
X52538117Y-100862355D01*
X52624932Y-100849487D01*
X52771741Y-100724915D01*
X52777202Y-100719788D01*
X52964489Y-100598648D01*
X53135774Y-100572085D01*
X53241260Y-100641776D01*
X53254000Y-100703730D01*
X53194660Y-100838184D01*
X53048787Y-101022751D01*
X52864602Y-101207998D01*
X52690326Y-101344492D01*
X52589063Y-101385370D01*
X52392821Y-101339696D01*
X52326654Y-101306256D01*
X52156375Y-101264127D01*
X51967376Y-101275691D01*
X51754421Y-101266197D01*
X51537331Y-101176628D01*
X51345239Y-101036059D01*
X51207280Y-100873564D01*
X51152586Y-100718220D01*
X51210290Y-100599101D01*
X51261844Y-100571572D01*
X51407955Y-100587219D01*
G36*
X50572368Y-99252017D02*
G01*
X50510002Y-99419796D01*
X50460000Y-99524000D01*
X50329906Y-99761260D01*
X50261391Y-99850773D01*
X50260947Y-99792480D01*
X50335068Y-99586326D01*
X50360454Y-99524861D01*
X50460703Y-99318491D01*
X50545250Y-99198477D01*
X50567554Y-99186194D01*
X50572368Y-99252017D01*
G37*
X50572368Y-99252017D02*
X50510002Y-99419796D01*
X50460000Y-99524000D01*
X50329906Y-99761260D01*
X50261391Y-99850773D01*
X50260947Y-99792480D01*
X50335068Y-99586326D01*
X50360454Y-99524861D01*
X50460703Y-99318491D01*
X50545250Y-99198477D01*
X50567554Y-99186194D01*
X50572368Y-99252017D01*
G36*
X50880741Y-99566333D02*
G01*
X50838584Y-99705472D01*
X50798667Y-99778000D01*
X50731579Y-99845769D01*
X50716593Y-99820333D01*
X50758749Y-99681194D01*
X50798667Y-99608666D01*
X50865754Y-99540897D01*
X50880741Y-99566333D01*
G37*
X50880741Y-99566333D02*
X50838584Y-99705472D01*
X50798667Y-99778000D01*
X50731579Y-99845769D01*
X50716593Y-99820333D01*
X50758749Y-99681194D01*
X50798667Y-99608666D01*
X50865754Y-99540897D01*
X50880741Y-99566333D01*
G36*
X49990289Y-99351684D02*
G01*
X49929818Y-99493112D01*
X49827928Y-99657179D01*
X49714766Y-99756414D01*
X49631660Y-99763057D01*
X49613334Y-99705696D01*
X49666021Y-99601240D01*
X49795731Y-99437276D01*
X49825000Y-99405001D01*
X49974619Y-99251882D01*
X50026815Y-99231671D01*
X49990289Y-99351684D01*
G37*
X49990289Y-99351684D02*
X49929818Y-99493112D01*
X49827928Y-99657179D01*
X49714766Y-99756414D01*
X49631660Y-99763057D01*
X49613334Y-99705696D01*
X49666021Y-99601240D01*
X49795731Y-99437276D01*
X49825000Y-99405001D01*
X49974619Y-99251882D01*
X50026815Y-99231671D01*
X49990289Y-99351684D01*
G36*
X50284666Y-99312333D02*
G01*
X50245791Y-99442378D01*
X50163667Y-99608666D01*
X50079424Y-99732000D01*
X50042722Y-99738121D01*
X50042667Y-99735666D01*
X50081542Y-99605621D01*
X50163667Y-99439333D01*
X50247909Y-99315999D01*
X50284612Y-99309878D01*
X50284666Y-99312333D01*
G37*
X50284666Y-99312333D02*
X50245791Y-99442378D01*
X50163667Y-99608666D01*
X50079424Y-99732000D01*
X50042722Y-99738121D01*
X50042667Y-99735666D01*
X50081542Y-99605621D01*
X50163667Y-99439333D01*
X50247909Y-99315999D01*
X50284612Y-99309878D01*
X50284666Y-99312333D01*
G36*
X50798667Y-99324373D02*
G01*
X50750266Y-99448646D01*
X50666996Y-99571317D01*
X50579462Y-99675402D01*
X50579310Y-99646943D01*
X50636131Y-99524000D01*
X50737169Y-99326263D01*
X50787268Y-99271210D01*
X50798667Y-99324373D01*
G37*
X50798667Y-99324373D02*
X50750266Y-99448646D01*
X50666996Y-99571317D01*
X50579462Y-99675402D01*
X50579310Y-99646943D01*
X50636131Y-99524000D01*
X50737169Y-99326263D01*
X50787268Y-99271210D01*
X50798667Y-99324373D01*
G36*
X53566104Y-99578690D02*
G01*
X53550334Y-99608666D01*
X53470559Y-99689523D01*
X53455673Y-99693333D01*
X53449897Y-99638643D01*
X53465667Y-99608666D01*
X53545441Y-99527809D01*
X53560327Y-99524000D01*
X53566104Y-99578690D01*
G37*
X53566104Y-99578690D02*
X53550334Y-99608666D01*
X53470559Y-99689523D01*
X53455673Y-99693333D01*
X53449897Y-99638643D01*
X53465667Y-99608666D01*
X53545441Y-99527809D01*
X53560327Y-99524000D01*
X53566104Y-99578690D01*
G36*
X54097554Y-99143000D02*
G01*
X54048409Y-99256914D01*
X53923645Y-99433626D01*
X53884104Y-99481666D01*
X53771165Y-99600141D01*
X53736631Y-99604182D01*
X53751321Y-99566333D01*
X53860036Y-99375813D01*
X53975406Y-99216999D01*
X54065217Y-99129278D01*
X54097554Y-99143000D01*
G37*
X54097554Y-99143000D02*
X54048409Y-99256914D01*
X53923645Y-99433626D01*
X53884104Y-99481666D01*
X53771165Y-99600141D01*
X53736631Y-99604182D01*
X53751321Y-99566333D01*
X53860036Y-99375813D01*
X53975406Y-99216999D01*
X54065217Y-99129278D01*
X54097554Y-99143000D01*
G36*
X54310575Y-99242415D02*
G01*
X54277616Y-99312333D01*
X54147752Y-99543107D01*
X54055820Y-99660815D01*
X54017558Y-99645695D01*
X54017297Y-99639213D01*
X54067781Y-99511943D01*
X54190114Y-99342879D01*
X54297284Y-99227889D01*
X54310575Y-99242415D01*
G37*
X54310575Y-99242415D02*
X54277616Y-99312333D01*
X54147752Y-99543107D01*
X54055820Y-99660815D01*
X54017558Y-99645695D01*
X54017297Y-99639213D01*
X54067781Y-99511943D01*
X54190114Y-99342879D01*
X54297284Y-99227889D01*
X54310575Y-99242415D01*
G36*
X54721902Y-99208226D02*
G01*
X54711539Y-99228613D01*
X54581510Y-99410107D01*
X54426009Y-99566674D01*
X54306032Y-99665643D01*
X54290828Y-99663712D01*
X54382131Y-99548571D01*
X54438065Y-99481060D01*
X54630134Y-99251855D01*
X54731035Y-99139607D01*
X54756410Y-99129877D01*
X54721902Y-99208226D01*
G37*
X54721902Y-99208226D02*
X54711539Y-99228613D01*
X54581510Y-99410107D01*
X54426009Y-99566674D01*
X54306032Y-99665643D01*
X54290828Y-99663712D01*
X54382131Y-99548571D01*
X54438065Y-99481060D01*
X54630134Y-99251855D01*
X54731035Y-99139607D01*
X54756410Y-99129877D01*
X54721902Y-99208226D01*
G36*
X54993024Y-99250774D02*
G01*
X54919405Y-99411137D01*
X54905000Y-99439333D01*
X54793126Y-99611731D01*
X54695960Y-99692497D01*
X54688625Y-99693333D01*
X54677652Y-99635112D01*
X54755468Y-99490254D01*
X54791388Y-99439333D01*
X54919890Y-99274792D01*
X55000340Y-99188909D01*
X55007763Y-99185333D01*
X54993024Y-99250774D01*
G37*
X54993024Y-99250774D02*
X54919405Y-99411137D01*
X54905000Y-99439333D01*
X54793126Y-99611731D01*
X54695960Y-99692497D01*
X54688625Y-99693333D01*
X54677652Y-99635112D01*
X54755468Y-99490254D01*
X54791388Y-99439333D01*
X54919890Y-99274792D01*
X55000340Y-99188909D01*
X55007763Y-99185333D01*
X54993024Y-99250774D01*
G36*
X51898165Y-99422045D02*
G01*
X51929951Y-99481666D01*
X51916942Y-99590894D01*
X51854343Y-99608666D01*
X51744412Y-99540834D01*
X51730000Y-99481666D01*
X51770906Y-99368925D01*
X51805608Y-99354666D01*
X51898165Y-99422045D01*
G37*
X51898165Y-99422045D02*
X51929951Y-99481666D01*
X51916942Y-99590894D01*
X51854343Y-99608666D01*
X51744412Y-99540834D01*
X51730000Y-99481666D01*
X51770906Y-99368925D01*
X51805608Y-99354666D01*
X51898165Y-99422045D01*
G36*
X52581139Y-99481666D02*
G01*
X52515553Y-99568880D01*
X52444388Y-99595585D01*
X52340547Y-99574652D01*
X52341138Y-99510919D01*
X52425421Y-99414779D01*
X52532610Y-99406727D01*
X52581139Y-99481666D01*
G37*
X52581139Y-99481666D02*
X52515553Y-99568880D01*
X52444388Y-99595585D01*
X52340547Y-99574652D01*
X52341138Y-99510919D01*
X52425421Y-99414779D01*
X52532610Y-99406727D01*
X52581139Y-99481666D01*
G36*
X51951984Y-97380674D02*
G01*
X52053207Y-97495174D01*
X52054877Y-97693578D01*
X51976794Y-97939670D01*
X51838759Y-98197234D01*
X51660573Y-98430055D01*
X51462034Y-98601916D01*
X51262944Y-98676602D01*
X51243062Y-98677333D01*
X51054380Y-98619260D01*
X50840875Y-98475134D01*
X50792154Y-98429846D01*
X50611271Y-98194635D01*
X50547104Y-97931741D01*
X50544667Y-97846237D01*
X50573902Y-97595399D01*
X50653838Y-97468701D01*
X50661350Y-97465341D01*
X50819791Y-97477397D01*
X50930888Y-97624055D01*
X50968000Y-97844621D01*
X51032639Y-98074332D01*
X51136906Y-98169104D01*
X51261331Y-98207520D01*
X51364645Y-98142701D01*
X51475256Y-97981583D01*
X51585583Y-97779225D01*
X51642798Y-97632499D01*
X51645017Y-97614766D01*
X51711197Y-97462218D01*
X51856389Y-97375322D01*
X51951984Y-97380674D01*
G37*
X51951984Y-97380674D02*
X52053207Y-97495174D01*
X52054877Y-97693578D01*
X51976794Y-97939670D01*
X51838759Y-98197234D01*
X51660573Y-98430055D01*
X51462034Y-98601916D01*
X51262944Y-98676602D01*
X51243062Y-98677333D01*
X51054380Y-98619260D01*
X50840875Y-98475134D01*
X50792154Y-98429846D01*
X50611271Y-98194635D01*
X50547104Y-97931741D01*
X50544667Y-97846237D01*
X50573902Y-97595399D01*
X50653838Y-97468701D01*
X50661350Y-97465341D01*
X50819791Y-97477397D01*
X50930888Y-97624055D01*
X50968000Y-97844621D01*
X51032639Y-98074332D01*
X51136906Y-98169104D01*
X51261331Y-98207520D01*
X51364645Y-98142701D01*
X51475256Y-97981583D01*
X51585583Y-97779225D01*
X51642798Y-97632499D01*
X51645017Y-97614766D01*
X51711197Y-97462218D01*
X51856389Y-97375322D01*
X51951984Y-97380674D01*
G36*
X54283356Y-97512182D02*
G01*
X54339184Y-97729804D01*
X54332518Y-97921495D01*
X54251410Y-98095007D01*
X54067631Y-98306617D01*
X54031644Y-98342944D01*
X53723242Y-98589683D01*
X53453330Y-98672899D01*
X53218743Y-98593194D01*
X53132947Y-98514571D01*
X53021070Y-98311936D01*
X52952274Y-98039704D01*
X52938104Y-97771867D01*
X52987981Y-97585495D01*
X53112699Y-97502053D01*
X53241193Y-97551355D01*
X53327271Y-97704352D01*
X53339963Y-97806842D01*
X53363647Y-98019562D01*
X53407654Y-98146862D01*
X53514961Y-98196319D01*
X53660055Y-98121843D01*
X53808613Y-97952716D01*
X53926310Y-97718216D01*
X53932954Y-97698755D01*
X54047778Y-97480507D01*
X54175018Y-97419114D01*
X54283356Y-97512182D01*
G37*
X54283356Y-97512182D02*
X54339184Y-97729804D01*
X54332518Y-97921495D01*
X54251410Y-98095007D01*
X54067631Y-98306617D01*
X54031644Y-98342944D01*
X53723242Y-98589683D01*
X53453330Y-98672899D01*
X53218743Y-98593194D01*
X53132947Y-98514571D01*
X53021070Y-98311936D01*
X52952274Y-98039704D01*
X52938104Y-97771867D01*
X52987981Y-97585495D01*
X53112699Y-97502053D01*
X53241193Y-97551355D01*
X53327271Y-97704352D01*
X53339963Y-97806842D01*
X53363647Y-98019562D01*
X53407654Y-98146862D01*
X53514961Y-98196319D01*
X53660055Y-98121843D01*
X53808613Y-97952716D01*
X53926310Y-97718216D01*
X53932954Y-97698755D01*
X54047778Y-97480507D01*
X54175018Y-97419114D01*
X54283356Y-97512182D01*
G36*
X53300843Y-96254628D02*
G01*
X53592182Y-96400116D01*
X53643055Y-96433666D01*
X54049231Y-96616174D01*
X54302982Y-96646629D01*
X54633539Y-96678552D01*
X54814826Y-96769313D01*
X54841262Y-96915908D01*
X54835328Y-96933121D01*
X54756969Y-97015309D01*
X54579022Y-97057533D01*
X54292694Y-97068666D01*
X53981686Y-97053221D01*
X53738903Y-96989424D01*
X53482140Y-96851082D01*
X53361501Y-96771967D01*
X53089216Y-96564676D01*
X52970707Y-96411809D01*
X52969523Y-96348634D01*
X53088650Y-96236882D01*
X53300843Y-96254628D01*
G37*
X53300843Y-96254628D02*
X53592182Y-96400116D01*
X53643055Y-96433666D01*
X54049231Y-96616174D01*
X54302982Y-96646629D01*
X54633539Y-96678552D01*
X54814826Y-96769313D01*
X54841262Y-96915908D01*
X54835328Y-96933121D01*
X54756969Y-97015309D01*
X54579022Y-97057533D01*
X54292694Y-97068666D01*
X53981686Y-97053221D01*
X53738903Y-96989424D01*
X53482140Y-96851082D01*
X53361501Y-96771967D01*
X53089216Y-96564676D01*
X52970707Y-96411809D01*
X52969523Y-96348634D01*
X53088650Y-96236882D01*
X53300843Y-96254628D01*
G36*
X52427382Y-96039441D02*
G01*
X52434542Y-96046008D01*
X52486112Y-96188968D01*
X52377089Y-96344131D01*
X52115075Y-96504128D01*
X51848780Y-96613594D01*
X51345658Y-96775822D01*
X50959840Y-96859534D01*
X50701436Y-96863374D01*
X50580555Y-96785988D01*
X50579684Y-96783798D01*
X50565645Y-96614749D01*
X50688430Y-96500089D01*
X50949804Y-96427144D01*
X51197195Y-96365940D01*
X51522773Y-96262792D01*
X51801445Y-96160876D01*
X52119276Y-96047797D01*
X52317891Y-96009139D01*
X52427382Y-96039441D01*
G37*
X52427382Y-96039441D02*
X52434542Y-96046008D01*
X52486112Y-96188968D01*
X52377089Y-96344131D01*
X52115075Y-96504128D01*
X51848780Y-96613594D01*
X51345658Y-96775822D01*
X50959840Y-96859534D01*
X50701436Y-96863374D01*
X50580555Y-96785988D01*
X50579684Y-96783798D01*
X50565645Y-96614749D01*
X50688430Y-96500089D01*
X50949804Y-96427144D01*
X51197195Y-96365940D01*
X51522773Y-96262792D01*
X51801445Y-96160876D01*
X52119276Y-96047797D01*
X52317891Y-96009139D01*
X52427382Y-96039441D01*
D12*
X28950000Y-105760000D02*
X25450000Y-105760000D01*
X28950000Y-102605000D02*
X28950000Y-108760000D01*
X36400000Y-102605000D02*
X28950000Y-102605000D01*
X36400000Y-59105000D02*
X36400000Y-102605000D01*
X28950000Y-59105000D02*
X36400000Y-59105000D01*
X28950000Y-59105000D02*
X28950000Y-53490000D01*
X25450000Y-56490000D02*
X28950000Y-56490000D01*
X25450000Y-108760000D02*
X25450000Y-53490000D01*
X28950000Y-108760000D02*
X25450000Y-108760000D01*
X25450000Y-53490000D02*
X28950000Y-53490000D01*
X28947880Y-105759700D02*
X25455380Y-108746740D01*
X25442680Y-105767320D02*
X28945340Y-108756900D01*
X28940260Y-53500720D02*
X25460460Y-56472520D01*
X25457920Y-53508340D02*
X28925020Y-56475060D01*
D11*
X55675000Y-94700000D02*
X55675000Y-90900000D01*
X52525000Y-94700000D02*
X55675000Y-94700000D01*
X59900000Y-55600000D02*
X69900000Y-55600000D01*
X59900000Y-66000000D02*
X59900000Y-55600000D01*
X69900000Y-66000000D02*
X59900000Y-66000000D01*
X69900000Y-55600000D02*
X69900000Y-66000000D01*
X59700000Y-85400000D02*
X69700000Y-85400000D01*
X59700000Y-95800000D02*
X59700000Y-85400000D01*
X69700000Y-95800000D02*
X59700000Y-95800000D01*
X69700000Y-85400000D02*
X69700000Y-95800000D01*
X59700000Y-98420000D02*
X69700000Y-98420000D01*
X59700000Y-108820000D02*
X59700000Y-98420000D01*
X69700000Y-108820000D02*
X59700000Y-108820000D01*
X69700000Y-98420000D02*
X69700000Y-108820000D01*
X44758750Y-51043750D02*
X45546250Y-51043750D01*
X45152500Y-51437500D02*
X45152500Y-50650000D01*
X49345563Y-50410000D02*
X50410000Y-49345563D01*
X44654437Y-50410000D02*
X43590000Y-49345563D01*
X44654437Y-50410000D02*
X45940000Y-50410000D01*
X49345563Y-50410000D02*
X48060000Y-50410000D01*
X50410000Y-49345563D02*
X50410000Y-43590000D01*
X43590000Y-49345563D02*
X43590000Y-43590000D01*
X43590000Y-43590000D02*
X45940000Y-43590000D01*
X50410000Y-43590000D02*
X48060000Y-43590000D01*
D12*
X14890000Y-58600000D02*
X29470000Y-58600000D01*
X14890000Y-89400000D02*
X14890000Y-58600000D01*
X29470000Y-89400000D02*
X14890000Y-89400000D01*
X29470000Y-89400000D02*
X29470000Y-58600000D01*
D11*
X45000000Y-62340000D02*
X41550000Y-62340000D01*
X45000000Y-62340000D02*
X46950000Y-62340000D01*
X45000000Y-67460000D02*
X43050000Y-67460000D01*
X45000000Y-67460000D02*
X46950000Y-67460000D01*
D12*
X54857142Y-71652380D02*
X54523809Y-71176190D01*
X54285714Y-71652380D02*
X54285714Y-70652380D01*
X54666666Y-70652380D01*
X54761904Y-70700000D01*
X54809523Y-70747619D01*
X54857142Y-70842857D01*
X54857142Y-70985714D01*
X54809523Y-71080952D01*
X54761904Y-71128571D01*
X54666666Y-71176190D01*
X54285714Y-71176190D01*
X55809523Y-71652380D02*
X55238095Y-71652380D01*
X55523809Y-71652380D02*
X55523809Y-70652380D01*
X55428571Y-70795238D01*
X55333333Y-70890476D01*
X55238095Y-70938095D01*
X56666666Y-70985714D02*
X56666666Y-71652380D01*
X56428571Y-70604761D02*
X56190476Y-71319047D01*
X56809523Y-71319047D01*
X52947142Y-43802380D02*
X52613809Y-43326190D01*
X52375714Y-43802380D02*
X52375714Y-42802380D01*
X52756666Y-42802380D01*
X52851904Y-42850000D01*
X52899523Y-42897619D01*
X52947142Y-42992857D01*
X52947142Y-43135714D01*
X52899523Y-43230952D01*
X52851904Y-43278571D01*
X52756666Y-43326190D01*
X52375714Y-43326190D01*
X53328095Y-42897619D02*
X53375714Y-42850000D01*
X53470952Y-42802380D01*
X53709047Y-42802380D01*
X53804285Y-42850000D01*
X53851904Y-42897619D01*
X53899523Y-42992857D01*
X53899523Y-43088095D01*
X53851904Y-43230952D01*
X53280476Y-43802380D01*
X53899523Y-43802380D01*
X54280476Y-42897619D02*
X54328095Y-42850000D01*
X54423333Y-42802380D01*
X54661428Y-42802380D01*
X54756666Y-42850000D01*
X54804285Y-42897619D01*
X54851904Y-42992857D01*
X54851904Y-43088095D01*
X54804285Y-43230952D01*
X54232857Y-43802380D01*
X54851904Y-43802380D01*
X57261904Y-47102380D02*
X57261904Y-46102380D01*
X57500000Y-46102380D01*
X57642857Y-46150000D01*
X57738095Y-46245238D01*
X57785714Y-46340476D01*
X57833333Y-46530952D01*
X57833333Y-46673809D01*
X57785714Y-46864285D01*
X57738095Y-46959523D01*
X57642857Y-47054761D01*
X57500000Y-47102380D01*
X57261904Y-47102380D01*
X58785714Y-47102380D02*
X58214285Y-47102380D01*
X58500000Y-47102380D02*
X58500000Y-46102380D01*
X58404761Y-46245238D01*
X58309523Y-46340476D01*
X58214285Y-46388095D01*
X53057142Y-87802380D02*
X52723809Y-87326190D01*
X52485714Y-87802380D02*
X52485714Y-86802380D01*
X52866666Y-86802380D01*
X52961904Y-86850000D01*
X53009523Y-86897619D01*
X53057142Y-86992857D01*
X53057142Y-87135714D01*
X53009523Y-87230952D01*
X52961904Y-87278571D01*
X52866666Y-87326190D01*
X52485714Y-87326190D01*
X53438095Y-86897619D02*
X53485714Y-86850000D01*
X53580952Y-86802380D01*
X53819047Y-86802380D01*
X53914285Y-86850000D01*
X53961904Y-86897619D01*
X54009523Y-86992857D01*
X54009523Y-87088095D01*
X53961904Y-87230952D01*
X53390476Y-87802380D01*
X54009523Y-87802380D01*
X54961904Y-87802380D02*
X54390476Y-87802380D01*
X54676190Y-87802380D02*
X54676190Y-86802380D01*
X54580952Y-86945238D01*
X54485714Y-87040476D01*
X54390476Y-87088095D01*
X31166666Y-41748571D02*
X30833333Y-41748571D01*
X30833333Y-42272380D02*
X30833333Y-41272380D01*
X31309523Y-41272380D01*
X32023809Y-41748571D02*
X32166666Y-41796190D01*
X32214285Y-41843809D01*
X32261904Y-41939047D01*
X32261904Y-42081904D01*
X32214285Y-42177142D01*
X32166666Y-42224761D01*
X32071428Y-42272380D01*
X31690476Y-42272380D01*
X31690476Y-41272380D01*
X32023809Y-41272380D01*
X32119047Y-41320000D01*
X32166666Y-41367619D01*
X32214285Y-41462857D01*
X32214285Y-41558095D01*
X32166666Y-41653333D01*
X32119047Y-41700952D01*
X32023809Y-41748571D01*
X31690476Y-41748571D01*
X33214285Y-42272380D02*
X32642857Y-42272380D01*
X32928571Y-42272380D02*
X32928571Y-41272380D01*
X32833333Y-41415238D01*
X32738095Y-41510476D01*
X32642857Y-41558095D01*
X61357142Y-47007142D02*
X61309523Y-47054761D01*
X61166666Y-47102380D01*
X61071428Y-47102380D01*
X60928571Y-47054761D01*
X60833333Y-46959523D01*
X60785714Y-46864285D01*
X60738095Y-46673809D01*
X60738095Y-46530952D01*
X60785714Y-46340476D01*
X60833333Y-46245238D01*
X60928571Y-46150000D01*
X61071428Y-46102380D01*
X61166666Y-46102380D01*
X61309523Y-46150000D01*
X61357142Y-46197619D01*
X62309523Y-47102380D02*
X61738095Y-47102380D01*
X62023809Y-47102380D02*
X62023809Y-46102380D01*
X61928571Y-46245238D01*
X61833333Y-46340476D01*
X61738095Y-46388095D01*
X62690476Y-46197619D02*
X62738095Y-46150000D01*
X62833333Y-46102380D01*
X63071428Y-46102380D01*
X63166666Y-46150000D01*
X63214285Y-46197619D01*
X63261904Y-46292857D01*
X63261904Y-46388095D01*
X63214285Y-46530952D01*
X62642857Y-47102380D01*
X63261904Y-47102380D01*
X48257142Y-97142857D02*
X48304761Y-97190476D01*
X48352380Y-97333333D01*
X48352380Y-97428571D01*
X48304761Y-97571428D01*
X48209523Y-97666666D01*
X48114285Y-97714285D01*
X47923809Y-97761904D01*
X47780952Y-97761904D01*
X47590476Y-97714285D01*
X47495238Y-97666666D01*
X47400000Y-97571428D01*
X47352380Y-97428571D01*
X47352380Y-97333333D01*
X47400000Y-97190476D01*
X47447619Y-97142857D01*
X48352380Y-96190476D02*
X48352380Y-96761904D01*
X48352380Y-96476190D02*
X47352380Y-96476190D01*
X47495238Y-96571428D01*
X47590476Y-96666666D01*
X47638095Y-96761904D01*
X48352380Y-95238095D02*
X48352380Y-95809523D01*
X48352380Y-95523809D02*
X47352380Y-95523809D01*
X47495238Y-95619047D01*
X47590476Y-95714285D01*
X47638095Y-95809523D01*
X39957142Y-51637142D02*
X39909523Y-51684761D01*
X39766666Y-51732380D01*
X39671428Y-51732380D01*
X39528571Y-51684761D01*
X39433333Y-51589523D01*
X39385714Y-51494285D01*
X39338095Y-51303809D01*
X39338095Y-51160952D01*
X39385714Y-50970476D01*
X39433333Y-50875238D01*
X39528571Y-50780000D01*
X39671428Y-50732380D01*
X39766666Y-50732380D01*
X39909523Y-50780000D01*
X39957142Y-50827619D01*
X40909523Y-51732380D02*
X40338095Y-51732380D01*
X40623809Y-51732380D02*
X40623809Y-50732380D01*
X40528571Y-50875238D01*
X40433333Y-50970476D01*
X40338095Y-51018095D01*
X41528571Y-50732380D02*
X41623809Y-50732380D01*
X41719047Y-50780000D01*
X41766666Y-50827619D01*
X41814285Y-50922857D01*
X41861904Y-51113333D01*
X41861904Y-51351428D01*
X41814285Y-51541904D01*
X41766666Y-51637142D01*
X41719047Y-51684761D01*
X41623809Y-51732380D01*
X41528571Y-51732380D01*
X41433333Y-51684761D01*
X41385714Y-51637142D01*
X41338095Y-51541904D01*
X41290476Y-51351428D01*
X41290476Y-51113333D01*
X41338095Y-50922857D01*
X41385714Y-50827619D01*
X41433333Y-50780000D01*
X41528571Y-50732380D01*
X55833333Y-89057142D02*
X55785714Y-89104761D01*
X55642857Y-89152380D01*
X55547619Y-89152380D01*
X55404761Y-89104761D01*
X55309523Y-89009523D01*
X55261904Y-88914285D01*
X55214285Y-88723809D01*
X55214285Y-88580952D01*
X55261904Y-88390476D01*
X55309523Y-88295238D01*
X55404761Y-88200000D01*
X55547619Y-88152380D01*
X55642857Y-88152380D01*
X55785714Y-88200000D01*
X55833333Y-88247619D01*
X56404761Y-88580952D02*
X56309523Y-88533333D01*
X56261904Y-88485714D01*
X56214285Y-88390476D01*
X56214285Y-88342857D01*
X56261904Y-88247619D01*
X56309523Y-88200000D01*
X56404761Y-88152380D01*
X56595238Y-88152380D01*
X56690476Y-88200000D01*
X56738095Y-88247619D01*
X56785714Y-88342857D01*
X56785714Y-88390476D01*
X56738095Y-88485714D01*
X56690476Y-88533333D01*
X56595238Y-88580952D01*
X56404761Y-88580952D01*
X56309523Y-88628571D01*
X56261904Y-88676190D01*
X56214285Y-88771428D01*
X56214285Y-88961904D01*
X56261904Y-89057142D01*
X56309523Y-89104761D01*
X56404761Y-89152380D01*
X56595238Y-89152380D01*
X56690476Y-89104761D01*
X56738095Y-89057142D01*
X56785714Y-88961904D01*
X56785714Y-88771428D01*
X56738095Y-88676190D01*
X56690476Y-88628571D01*
X56595238Y-88580952D01*
X39837142Y-89066666D02*
X39884761Y-89114285D01*
X39932380Y-89257142D01*
X39932380Y-89352380D01*
X39884761Y-89495238D01*
X39789523Y-89590476D01*
X39694285Y-89638095D01*
X39503809Y-89685714D01*
X39360952Y-89685714D01*
X39170476Y-89638095D01*
X39075238Y-89590476D01*
X38980000Y-89495238D01*
X38932380Y-89352380D01*
X38932380Y-89257142D01*
X38980000Y-89114285D01*
X39027619Y-89066666D01*
X38932380Y-88733333D02*
X38932380Y-88066666D01*
X39932380Y-88495238D01*
X39837142Y-81466666D02*
X39884761Y-81514285D01*
X39932380Y-81657142D01*
X39932380Y-81752380D01*
X39884761Y-81895238D01*
X39789523Y-81990476D01*
X39694285Y-82038095D01*
X39503809Y-82085714D01*
X39360952Y-82085714D01*
X39170476Y-82038095D01*
X39075238Y-81990476D01*
X38980000Y-81895238D01*
X38932380Y-81752380D01*
X38932380Y-81657142D01*
X38980000Y-81514285D01*
X39027619Y-81466666D01*
X38932380Y-80609523D02*
X38932380Y-80800000D01*
X38980000Y-80895238D01*
X39027619Y-80942857D01*
X39170476Y-81038095D01*
X39360952Y-81085714D01*
X39741904Y-81085714D01*
X39837142Y-81038095D01*
X39884761Y-80990476D01*
X39932380Y-80895238D01*
X39932380Y-80704761D01*
X39884761Y-80609523D01*
X39837142Y-80561904D01*
X39741904Y-80514285D01*
X39503809Y-80514285D01*
X39408571Y-80561904D01*
X39360952Y-80609523D01*
X39313333Y-80704761D01*
X39313333Y-80895238D01*
X39360952Y-80990476D01*
X39408571Y-81038095D01*
X39503809Y-81085714D01*
X39757142Y-77666666D02*
X39804761Y-77714285D01*
X39852380Y-77857142D01*
X39852380Y-77952380D01*
X39804761Y-78095238D01*
X39709523Y-78190476D01*
X39614285Y-78238095D01*
X39423809Y-78285714D01*
X39280952Y-78285714D01*
X39090476Y-78238095D01*
X38995238Y-78190476D01*
X38900000Y-78095238D01*
X38852380Y-77952380D01*
X38852380Y-77857142D01*
X38900000Y-77714285D01*
X38947619Y-77666666D01*
X38852380Y-76761904D02*
X38852380Y-77238095D01*
X39328571Y-77285714D01*
X39280952Y-77238095D01*
X39233333Y-77142857D01*
X39233333Y-76904761D01*
X39280952Y-76809523D01*
X39328571Y-76761904D01*
X39423809Y-76714285D01*
X39661904Y-76714285D01*
X39757142Y-76761904D01*
X39804761Y-76809523D01*
X39852380Y-76904761D01*
X39852380Y-77142857D01*
X39804761Y-77238095D01*
X39757142Y-77285714D01*
X44833333Y-59357142D02*
X44785714Y-59404761D01*
X44642857Y-59452380D01*
X44547619Y-59452380D01*
X44404761Y-59404761D01*
X44309523Y-59309523D01*
X44261904Y-59214285D01*
X44214285Y-59023809D01*
X44214285Y-58880952D01*
X44261904Y-58690476D01*
X44309523Y-58595238D01*
X44404761Y-58500000D01*
X44547619Y-58452380D01*
X44642857Y-58452380D01*
X44785714Y-58500000D01*
X44833333Y-58547619D01*
X45690476Y-58785714D02*
X45690476Y-59452380D01*
X45452380Y-58404761D02*
X45214285Y-59119047D01*
X45833333Y-59119047D01*
X37537142Y-44766666D02*
X37584761Y-44814285D01*
X37632380Y-44957142D01*
X37632380Y-45052380D01*
X37584761Y-45195238D01*
X37489523Y-45290476D01*
X37394285Y-45338095D01*
X37203809Y-45385714D01*
X37060952Y-45385714D01*
X36870476Y-45338095D01*
X36775238Y-45290476D01*
X36680000Y-45195238D01*
X36632380Y-45052380D01*
X36632380Y-44957142D01*
X36680000Y-44814285D01*
X36727619Y-44766666D01*
X36632380Y-44433333D02*
X36632380Y-43814285D01*
X37013333Y-44147619D01*
X37013333Y-44004761D01*
X37060952Y-43909523D01*
X37108571Y-43861904D01*
X37203809Y-43814285D01*
X37441904Y-43814285D01*
X37537142Y-43861904D01*
X37584761Y-43909523D01*
X37632380Y-44004761D01*
X37632380Y-44290476D01*
X37584761Y-44385714D01*
X37537142Y-44433333D01*
X44833333Y-70687142D02*
X44785714Y-70734761D01*
X44642857Y-70782380D01*
X44547619Y-70782380D01*
X44404761Y-70734761D01*
X44309523Y-70639523D01*
X44261904Y-70544285D01*
X44214285Y-70353809D01*
X44214285Y-70210952D01*
X44261904Y-70020476D01*
X44309523Y-69925238D01*
X44404761Y-69830000D01*
X44547619Y-69782380D01*
X44642857Y-69782380D01*
X44785714Y-69830000D01*
X44833333Y-69877619D01*
X45214285Y-69877619D02*
X45261904Y-69830000D01*
X45357142Y-69782380D01*
X45595238Y-69782380D01*
X45690476Y-69830000D01*
X45738095Y-69877619D01*
X45785714Y-69972857D01*
X45785714Y-70068095D01*
X45738095Y-70210952D01*
X45166666Y-70782380D01*
X45785714Y-70782380D01*
X41537142Y-66466666D02*
X41584761Y-66514285D01*
X41632380Y-66657142D01*
X41632380Y-66752380D01*
X41584761Y-66895238D01*
X41489523Y-66990476D01*
X41394285Y-67038095D01*
X41203809Y-67085714D01*
X41060952Y-67085714D01*
X40870476Y-67038095D01*
X40775238Y-66990476D01*
X40680000Y-66895238D01*
X40632380Y-66752380D01*
X40632380Y-66657142D01*
X40680000Y-66514285D01*
X40727619Y-66466666D01*
X41632380Y-65514285D02*
X41632380Y-66085714D01*
X41632380Y-65800000D02*
X40632380Y-65800000D01*
X40775238Y-65895238D01*
X40870476Y-65990476D01*
X40918095Y-66085714D01*
X40252380Y-97861904D02*
X41061904Y-97861904D01*
X41157142Y-97814285D01*
X41204761Y-97766666D01*
X41252380Y-97671428D01*
X41252380Y-97480952D01*
X41204761Y-97385714D01*
X41157142Y-97338095D01*
X41061904Y-97290476D01*
X40252380Y-97290476D01*
X40252380Y-96385714D02*
X40252380Y-96576190D01*
X40300000Y-96671428D01*
X40347619Y-96719047D01*
X40490476Y-96814285D01*
X40680952Y-96861904D01*
X41061904Y-96861904D01*
X41157142Y-96814285D01*
X41204761Y-96766666D01*
X41252380Y-96671428D01*
X41252380Y-96480952D01*
X41204761Y-96385714D01*
X41157142Y-96338095D01*
X41061904Y-96290476D01*
X40823809Y-96290476D01*
X40728571Y-96338095D01*
X40680952Y-96385714D01*
X40633333Y-96480952D01*
X40633333Y-96671428D01*
X40680952Y-96766666D01*
X40728571Y-96814285D01*
X40823809Y-96861904D01*
X36538095Y-42002380D02*
X36538095Y-42811904D01*
X36585714Y-42907142D01*
X36633333Y-42954761D01*
X36728571Y-43002380D01*
X36919047Y-43002380D01*
X37014285Y-42954761D01*
X37061904Y-42907142D01*
X37109523Y-42811904D01*
X37109523Y-42002380D01*
X38014285Y-42335714D02*
X38014285Y-43002380D01*
X37776190Y-41954761D02*
X37538095Y-42669047D01*
X38157142Y-42669047D01*
X33733333Y-58102380D02*
X33400000Y-57626190D01*
X33161904Y-58102380D02*
X33161904Y-57102380D01*
X33542857Y-57102380D01*
X33638095Y-57150000D01*
X33685714Y-57197619D01*
X33733333Y-57292857D01*
X33733333Y-57435714D01*
X33685714Y-57530952D01*
X33638095Y-57578571D01*
X33542857Y-57626190D01*
X33161904Y-57626190D01*
X34638095Y-57102380D02*
X34161904Y-57102380D01*
X34114285Y-57578571D01*
X34161904Y-57530952D01*
X34257142Y-57483333D01*
X34495238Y-57483333D01*
X34590476Y-57530952D01*
X34638095Y-57578571D01*
X34685714Y-57673809D01*
X34685714Y-57911904D01*
X34638095Y-58007142D01*
X34590476Y-58054761D01*
X34495238Y-58102380D01*
X34257142Y-58102380D01*
X34161904Y-58054761D01*
X34114285Y-58007142D01*
X51657142Y-71652380D02*
X51323809Y-71176190D01*
X51085714Y-71652380D02*
X51085714Y-70652380D01*
X51466666Y-70652380D01*
X51561904Y-70700000D01*
X51609523Y-70747619D01*
X51657142Y-70842857D01*
X51657142Y-70985714D01*
X51609523Y-71080952D01*
X51561904Y-71128571D01*
X51466666Y-71176190D01*
X51085714Y-71176190D01*
X52609523Y-71652380D02*
X52038095Y-71652380D01*
X52323809Y-71652380D02*
X52323809Y-70652380D01*
X52228571Y-70795238D01*
X52133333Y-70890476D01*
X52038095Y-70938095D01*
X52942857Y-70652380D02*
X53561904Y-70652380D01*
X53228571Y-71033333D01*
X53371428Y-71033333D01*
X53466666Y-71080952D01*
X53514285Y-71128571D01*
X53561904Y-71223809D01*
X53561904Y-71461904D01*
X53514285Y-71557142D01*
X53466666Y-71604761D01*
X53371428Y-71652380D01*
X53085714Y-71652380D01*
X52990476Y-71604761D01*
X52942857Y-71557142D01*
X45552380Y-75042857D02*
X45076190Y-75376190D01*
X45552380Y-75614285D02*
X44552380Y-75614285D01*
X44552380Y-75233333D01*
X44600000Y-75138095D01*
X44647619Y-75090476D01*
X44742857Y-75042857D01*
X44885714Y-75042857D01*
X44980952Y-75090476D01*
X45028571Y-75138095D01*
X45076190Y-75233333D01*
X45076190Y-75614285D01*
X45552380Y-74090476D02*
X45552380Y-74661904D01*
X45552380Y-74376190D02*
X44552380Y-74376190D01*
X44695238Y-74471428D01*
X44790476Y-74566666D01*
X44838095Y-74661904D01*
X44647619Y-73709523D02*
X44600000Y-73661904D01*
X44552380Y-73566666D01*
X44552380Y-73328571D01*
X44600000Y-73233333D01*
X44647619Y-73185714D01*
X44742857Y-73138095D01*
X44838095Y-73138095D01*
X44980952Y-73185714D01*
X45552380Y-73757142D01*
X45552380Y-73138095D01*
X48957142Y-73652380D02*
X48623809Y-73176190D01*
X48385714Y-73652380D02*
X48385714Y-72652380D01*
X48766666Y-72652380D01*
X48861904Y-72700000D01*
X48909523Y-72747619D01*
X48957142Y-72842857D01*
X48957142Y-72985714D01*
X48909523Y-73080952D01*
X48861904Y-73128571D01*
X48766666Y-73176190D01*
X48385714Y-73176190D01*
X49909523Y-73652380D02*
X49338095Y-73652380D01*
X49623809Y-73652380D02*
X49623809Y-72652380D01*
X49528571Y-72795238D01*
X49433333Y-72890476D01*
X49338095Y-72938095D01*
X50861904Y-73652380D02*
X50290476Y-73652380D01*
X50576190Y-73652380D02*
X50576190Y-72652380D01*
X50480952Y-72795238D01*
X50385714Y-72890476D01*
X50290476Y-72938095D01*
X39902380Y-93342857D02*
X39426190Y-93676190D01*
X39902380Y-93914285D02*
X38902380Y-93914285D01*
X38902380Y-93533333D01*
X38950000Y-93438095D01*
X38997619Y-93390476D01*
X39092857Y-93342857D01*
X39235714Y-93342857D01*
X39330952Y-93390476D01*
X39378571Y-93438095D01*
X39426190Y-93533333D01*
X39426190Y-93914285D01*
X39902380Y-92390476D02*
X39902380Y-92961904D01*
X39902380Y-92676190D02*
X38902380Y-92676190D01*
X39045238Y-92771428D01*
X39140476Y-92866666D01*
X39188095Y-92961904D01*
X38902380Y-91771428D02*
X38902380Y-91676190D01*
X38950000Y-91580952D01*
X38997619Y-91533333D01*
X39092857Y-91485714D01*
X39283333Y-91438095D01*
X39521428Y-91438095D01*
X39711904Y-91485714D01*
X39807142Y-91533333D01*
X39854761Y-91580952D01*
X39902380Y-91676190D01*
X39902380Y-91771428D01*
X39854761Y-91866666D01*
X39807142Y-91914285D01*
X39711904Y-91961904D01*
X39521428Y-92009523D01*
X39283333Y-92009523D01*
X39092857Y-91961904D01*
X38997619Y-91914285D01*
X38950000Y-91866666D01*
X38902380Y-91771428D01*
X36633333Y-49702380D02*
X36300000Y-49226190D01*
X36061904Y-49702380D02*
X36061904Y-48702380D01*
X36442857Y-48702380D01*
X36538095Y-48750000D01*
X36585714Y-48797619D01*
X36633333Y-48892857D01*
X36633333Y-49035714D01*
X36585714Y-49130952D01*
X36538095Y-49178571D01*
X36442857Y-49226190D01*
X36061904Y-49226190D01*
X37109523Y-49702380D02*
X37300000Y-49702380D01*
X37395238Y-49654761D01*
X37442857Y-49607142D01*
X37538095Y-49464285D01*
X37585714Y-49273809D01*
X37585714Y-48892857D01*
X37538095Y-48797619D01*
X37490476Y-48750000D01*
X37395238Y-48702380D01*
X37204761Y-48702380D01*
X37109523Y-48750000D01*
X37061904Y-48797619D01*
X37014285Y-48892857D01*
X37014285Y-49130952D01*
X37061904Y-49226190D01*
X37109523Y-49273809D01*
X37204761Y-49321428D01*
X37395238Y-49321428D01*
X37490476Y-49273809D01*
X37538095Y-49226190D01*
X37585714Y-49130952D01*
X40433333Y-49702380D02*
X40100000Y-49226190D01*
X39861904Y-49702380D02*
X39861904Y-48702380D01*
X40242857Y-48702380D01*
X40338095Y-48750000D01*
X40385714Y-48797619D01*
X40433333Y-48892857D01*
X40433333Y-49035714D01*
X40385714Y-49130952D01*
X40338095Y-49178571D01*
X40242857Y-49226190D01*
X39861904Y-49226190D01*
X41004761Y-49130952D02*
X40909523Y-49083333D01*
X40861904Y-49035714D01*
X40814285Y-48940476D01*
X40814285Y-48892857D01*
X40861904Y-48797619D01*
X40909523Y-48750000D01*
X41004761Y-48702380D01*
X41195238Y-48702380D01*
X41290476Y-48750000D01*
X41338095Y-48797619D01*
X41385714Y-48892857D01*
X41385714Y-48940476D01*
X41338095Y-49035714D01*
X41290476Y-49083333D01*
X41195238Y-49130952D01*
X41004761Y-49130952D01*
X40909523Y-49178571D01*
X40861904Y-49226190D01*
X40814285Y-49321428D01*
X40814285Y-49511904D01*
X40861904Y-49607142D01*
X40909523Y-49654761D01*
X41004761Y-49702380D01*
X41195238Y-49702380D01*
X41290476Y-49654761D01*
X41338095Y-49607142D01*
X41385714Y-49511904D01*
X41385714Y-49321428D01*
X41338095Y-49226190D01*
X41290476Y-49178571D01*
X41195238Y-49130952D01*
X39902380Y-85266666D02*
X39426190Y-85600000D01*
X39902380Y-85838095D02*
X38902380Y-85838095D01*
X38902380Y-85457142D01*
X38950000Y-85361904D01*
X38997619Y-85314285D01*
X39092857Y-85266666D01*
X39235714Y-85266666D01*
X39330952Y-85314285D01*
X39378571Y-85361904D01*
X39426190Y-85457142D01*
X39426190Y-85838095D01*
X38902380Y-84933333D02*
X38902380Y-84266666D01*
X39902380Y-84695238D01*
X39852380Y-73866666D02*
X39376190Y-74200000D01*
X39852380Y-74438095D02*
X38852380Y-74438095D01*
X38852380Y-74057142D01*
X38900000Y-73961904D01*
X38947619Y-73914285D01*
X39042857Y-73866666D01*
X39185714Y-73866666D01*
X39280952Y-73914285D01*
X39328571Y-73961904D01*
X39376190Y-74057142D01*
X39376190Y-74438095D01*
X38852380Y-73009523D02*
X38852380Y-73200000D01*
X38900000Y-73295238D01*
X38947619Y-73342857D01*
X39090476Y-73438095D01*
X39280952Y-73485714D01*
X39661904Y-73485714D01*
X39757142Y-73438095D01*
X39804761Y-73390476D01*
X39852380Y-73295238D01*
X39852380Y-73104761D01*
X39804761Y-73009523D01*
X39757142Y-72961904D01*
X39661904Y-72914285D01*
X39423809Y-72914285D01*
X39328571Y-72961904D01*
X39280952Y-73009523D01*
X39233333Y-73104761D01*
X39233333Y-73295238D01*
X39280952Y-73390476D01*
X39328571Y-73438095D01*
X39423809Y-73485714D01*
X44833333Y-72802380D02*
X44500000Y-72326190D01*
X44261904Y-72802380D02*
X44261904Y-71802380D01*
X44642857Y-71802380D01*
X44738095Y-71850000D01*
X44785714Y-71897619D01*
X44833333Y-71992857D01*
X44833333Y-72135714D01*
X44785714Y-72230952D01*
X44738095Y-72278571D01*
X44642857Y-72326190D01*
X44261904Y-72326190D01*
X45690476Y-72135714D02*
X45690476Y-72802380D01*
X45452380Y-71754761D02*
X45214285Y-72469047D01*
X45833333Y-72469047D01*
X29433333Y-50302380D02*
X29100000Y-49826190D01*
X28861904Y-50302380D02*
X28861904Y-49302380D01*
X29242857Y-49302380D01*
X29338095Y-49350000D01*
X29385714Y-49397619D01*
X29433333Y-49492857D01*
X29433333Y-49635714D01*
X29385714Y-49730952D01*
X29338095Y-49778571D01*
X29242857Y-49826190D01*
X28861904Y-49826190D01*
X29766666Y-49302380D02*
X30385714Y-49302380D01*
X30052380Y-49683333D01*
X30195238Y-49683333D01*
X30290476Y-49730952D01*
X30338095Y-49778571D01*
X30385714Y-49873809D01*
X30385714Y-50111904D01*
X30338095Y-50207142D01*
X30290476Y-50254761D01*
X30195238Y-50302380D01*
X29909523Y-50302380D01*
X29814285Y-50254761D01*
X29766666Y-50207142D01*
X29433333Y-48302380D02*
X29100000Y-47826190D01*
X28861904Y-48302380D02*
X28861904Y-47302380D01*
X29242857Y-47302380D01*
X29338095Y-47350000D01*
X29385714Y-47397619D01*
X29433333Y-47492857D01*
X29433333Y-47635714D01*
X29385714Y-47730952D01*
X29338095Y-47778571D01*
X29242857Y-47826190D01*
X28861904Y-47826190D01*
X29814285Y-47397619D02*
X29861904Y-47350000D01*
X29957142Y-47302380D01*
X30195238Y-47302380D01*
X30290476Y-47350000D01*
X30338095Y-47397619D01*
X30385714Y-47492857D01*
X30385714Y-47588095D01*
X30338095Y-47730952D01*
X29766666Y-48302380D01*
X30385714Y-48302380D01*
X38302380Y-62466666D02*
X37826190Y-62800000D01*
X38302380Y-63038095D02*
X37302380Y-63038095D01*
X37302380Y-62657142D01*
X37350000Y-62561904D01*
X37397619Y-62514285D01*
X37492857Y-62466666D01*
X37635714Y-62466666D01*
X37730952Y-62514285D01*
X37778571Y-62561904D01*
X37826190Y-62657142D01*
X37826190Y-63038095D01*
X38302380Y-61514285D02*
X38302380Y-62085714D01*
X38302380Y-61800000D02*
X37302380Y-61800000D01*
X37445238Y-61895238D01*
X37540476Y-61990476D01*
X37588095Y-62085714D01*
D16*
X72068612Y-72112543D02*
X72783026Y-72112543D01*
X72925909Y-72160170D01*
X73021164Y-72255426D01*
X73068792Y-72398309D01*
X73068792Y-72493564D01*
X72402005Y-71207618D02*
X73068792Y-71207618D01*
X72020984Y-71445756D02*
X72735399Y-71683894D01*
X72735399Y-71064735D01*
D12*
X40002380Y-81861904D02*
X40811904Y-81861904D01*
X40907142Y-81814285D01*
X40954761Y-81766666D01*
X41002380Y-81671428D01*
X41002380Y-81480952D01*
X40954761Y-81385714D01*
X40907142Y-81338095D01*
X40811904Y-81290476D01*
X40002380Y-81290476D01*
X40002380Y-80338095D02*
X40002380Y-80814285D01*
X40478571Y-80861904D01*
X40430952Y-80814285D01*
X40383333Y-80719047D01*
X40383333Y-80480952D01*
X40430952Y-80385714D01*
X40478571Y-80338095D01*
X40573809Y-80290476D01*
X40811904Y-80290476D01*
X40907142Y-80338095D01*
X40954761Y-80385714D01*
X41002380Y-80480952D01*
X41002380Y-80719047D01*
X40954761Y-80814285D01*
X40907142Y-80861904D01*
X55857142Y-71557142D02*
X55809523Y-71604761D01*
X55666666Y-71652380D01*
X55571428Y-71652380D01*
X55428571Y-71604761D01*
X55333333Y-71509523D01*
X55285714Y-71414285D01*
X55238095Y-71223809D01*
X55238095Y-71080952D01*
X55285714Y-70890476D01*
X55333333Y-70795238D01*
X55428571Y-70700000D01*
X55571428Y-70652380D01*
X55666666Y-70652380D01*
X55809523Y-70700000D01*
X55857142Y-70747619D01*
X56809523Y-71652380D02*
X56238095Y-71652380D01*
X56523809Y-71652380D02*
X56523809Y-70652380D01*
X56428571Y-70795238D01*
X56333333Y-70890476D01*
X56238095Y-70938095D01*
X57666666Y-70985714D02*
X57666666Y-71652380D01*
X57428571Y-70604761D02*
X57190476Y-71319047D01*
X57809523Y-71319047D01*
X58557142Y-56342857D02*
X58604761Y-56390476D01*
X58652380Y-56533333D01*
X58652380Y-56628571D01*
X58604761Y-56771428D01*
X58509523Y-56866666D01*
X58414285Y-56914285D01*
X58223809Y-56961904D01*
X58080952Y-56961904D01*
X57890476Y-56914285D01*
X57795238Y-56866666D01*
X57700000Y-56771428D01*
X57652380Y-56628571D01*
X57652380Y-56533333D01*
X57700000Y-56390476D01*
X57747619Y-56342857D01*
X58652380Y-55390476D02*
X58652380Y-55961904D01*
X58652380Y-55676190D02*
X57652380Y-55676190D01*
X57795238Y-55771428D01*
X57890476Y-55866666D01*
X57938095Y-55961904D01*
X57652380Y-55057142D02*
X57652380Y-54438095D01*
X58033333Y-54771428D01*
X58033333Y-54628571D01*
X58080952Y-54533333D01*
X58128571Y-54485714D01*
X58223809Y-54438095D01*
X58461904Y-54438095D01*
X58557142Y-54485714D01*
X58604761Y-54533333D01*
X58652380Y-54628571D01*
X58652380Y-54914285D01*
X58604761Y-55009523D01*
X58557142Y-55057142D01*
X37138095Y-49552380D02*
X37138095Y-50361904D01*
X37185714Y-50457142D01*
X37233333Y-50504761D01*
X37328571Y-50552380D01*
X37519047Y-50552380D01*
X37614285Y-50504761D01*
X37661904Y-50457142D01*
X37709523Y-50361904D01*
X37709523Y-49552380D01*
X38090476Y-49552380D02*
X38709523Y-49552380D01*
X38376190Y-49933333D01*
X38519047Y-49933333D01*
X38614285Y-49980952D01*
X38661904Y-50028571D01*
X38709523Y-50123809D01*
X38709523Y-50361904D01*
X38661904Y-50457142D01*
X38614285Y-50504761D01*
X38519047Y-50552380D01*
X38233333Y-50552380D01*
X38138095Y-50504761D01*
X38090476Y-50457142D01*
X33138095Y-49552380D02*
X33138095Y-50361904D01*
X33185714Y-50457142D01*
X33233333Y-50504761D01*
X33328571Y-50552380D01*
X33519047Y-50552380D01*
X33614285Y-50504761D01*
X33661904Y-50457142D01*
X33709523Y-50361904D01*
X33709523Y-49552380D01*
X34138095Y-49647619D02*
X34185714Y-49600000D01*
X34280952Y-49552380D01*
X34519047Y-49552380D01*
X34614285Y-49600000D01*
X34661904Y-49647619D01*
X34709523Y-49742857D01*
X34709523Y-49838095D01*
X34661904Y-49980952D01*
X34090476Y-50552380D01*
X34709523Y-50552380D01*
X46152380Y-56833333D02*
X46866666Y-56833333D01*
X47009523Y-56880952D01*
X47104761Y-56976190D01*
X47152380Y-57119047D01*
X47152380Y-57214285D01*
X47152380Y-56357142D02*
X46152380Y-56357142D01*
X46152380Y-55976190D01*
X46200000Y-55880952D01*
X46247619Y-55833333D01*
X46342857Y-55785714D01*
X46485714Y-55785714D01*
X46580952Y-55833333D01*
X46628571Y-55880952D01*
X46676190Y-55976190D01*
X46676190Y-56357142D01*
X47152380Y-54833333D02*
X47152380Y-55404761D01*
X47152380Y-55119047D02*
X46152380Y-55119047D01*
X46295238Y-55214285D01*
X46390476Y-55309523D01*
X46438095Y-55404761D01*
X24252380Y-98383333D02*
X24966666Y-98383333D01*
X25109523Y-98430952D01*
X25204761Y-98526190D01*
X25252380Y-98669047D01*
X25252380Y-98764285D01*
X24252380Y-98002380D02*
X24252380Y-97383333D01*
X24633333Y-97716666D01*
X24633333Y-97573809D01*
X24680952Y-97478571D01*
X24728571Y-97430952D01*
X24823809Y-97383333D01*
X25061904Y-97383333D01*
X25157142Y-97430952D01*
X25204761Y-97478571D01*
X25252380Y-97573809D01*
X25252380Y-97859523D01*
X25204761Y-97954761D01*
X25157142Y-98002380D01*
X26234380Y-47933333D02*
X26948666Y-47933333D01*
X27091523Y-47980952D01*
X27186761Y-48076190D01*
X27234380Y-48219047D01*
X27234380Y-48314285D01*
X27234380Y-46933333D02*
X27234380Y-47504761D01*
X27234380Y-47219047D02*
X26234380Y-47219047D01*
X26377238Y-47314285D01*
X26472476Y-47409523D01*
X26520095Y-47504761D01*
X55852380Y-93809523D02*
X56852380Y-93142857D01*
X55852380Y-93142857D02*
X56852380Y-93809523D01*
X56852380Y-92238095D02*
X56852380Y-92809523D01*
X56852380Y-92523809D02*
X55852380Y-92523809D01*
X55995238Y-92619047D01*
X56090476Y-92714285D01*
X56138095Y-92809523D01*
X71892380Y-59093333D02*
X72606666Y-59093333D01*
X72749523Y-59140952D01*
X72844761Y-59236190D01*
X72892380Y-59379047D01*
X72892380Y-59474285D01*
X72892380Y-58045714D02*
X72416190Y-58379047D01*
X72892380Y-58617142D02*
X71892380Y-58617142D01*
X71892380Y-58236190D01*
X71940000Y-58140952D01*
X71987619Y-58093333D01*
X72082857Y-58045714D01*
X72225714Y-58045714D01*
X72320952Y-58093333D01*
X72368571Y-58140952D01*
X72416190Y-58236190D01*
X72416190Y-58617142D01*
X71987619Y-57664761D02*
X71940000Y-57617142D01*
X71892380Y-57521904D01*
X71892380Y-57283809D01*
X71940000Y-57188571D01*
X71987619Y-57140952D01*
X72082857Y-57093333D01*
X72178095Y-57093333D01*
X72320952Y-57140952D01*
X72892380Y-57712380D01*
X72892380Y-57093333D01*
X71692380Y-88893333D02*
X72406666Y-88893333D01*
X72549523Y-88940952D01*
X72644761Y-89036190D01*
X72692380Y-89179047D01*
X72692380Y-89274285D01*
X72692380Y-87845714D02*
X72216190Y-88179047D01*
X72692380Y-88417142D02*
X71692380Y-88417142D01*
X71692380Y-88036190D01*
X71740000Y-87940952D01*
X71787619Y-87893333D01*
X71882857Y-87845714D01*
X72025714Y-87845714D01*
X72120952Y-87893333D01*
X72168571Y-87940952D01*
X72216190Y-88036190D01*
X72216190Y-88417142D01*
X72692380Y-86893333D02*
X72692380Y-87464761D01*
X72692380Y-87179047D02*
X71692380Y-87179047D01*
X71835238Y-87274285D01*
X71930476Y-87369523D01*
X71978095Y-87464761D01*
X71692380Y-101937142D02*
X72406666Y-101937142D01*
X72549523Y-101984761D01*
X72644761Y-102080000D01*
X72692380Y-102222857D01*
X72692380Y-102318095D01*
X71692380Y-101460952D02*
X72501904Y-101460952D01*
X72597142Y-101413333D01*
X72644761Y-101365714D01*
X72692380Y-101270476D01*
X72692380Y-101080000D01*
X72644761Y-100984761D01*
X72597142Y-100937142D01*
X72501904Y-100889523D01*
X71692380Y-100889523D01*
X72692380Y-99889523D02*
X72692380Y-100460952D01*
X72692380Y-100175238D02*
X71692380Y-100175238D01*
X71835238Y-100270476D01*
X71930476Y-100365714D01*
X71978095Y-100460952D01*
X44133333Y-43257142D02*
X44085714Y-43304761D01*
X43942857Y-43352380D01*
X43847619Y-43352380D01*
X43704761Y-43304761D01*
X43609523Y-43209523D01*
X43561904Y-43114285D01*
X43514285Y-42923809D01*
X43514285Y-42780952D01*
X43561904Y-42590476D01*
X43609523Y-42495238D01*
X43704761Y-42400000D01*
X43847619Y-42352380D01*
X43942857Y-42352380D01*
X44085714Y-42400000D01*
X44133333Y-42447619D01*
X44609523Y-43352380D02*
X44800000Y-43352380D01*
X44895238Y-43304761D01*
X44942857Y-43257142D01*
X45038095Y-43114285D01*
X45085714Y-42923809D01*
X45085714Y-42542857D01*
X45038095Y-42447619D01*
X44990476Y-42400000D01*
X44895238Y-42352380D01*
X44704761Y-42352380D01*
X44609523Y-42400000D01*
X44561904Y-42447619D01*
X44514285Y-42542857D01*
X44514285Y-42780952D01*
X44561904Y-42876190D01*
X44609523Y-42923809D01*
X44704761Y-42971428D01*
X44895238Y-42971428D01*
X44990476Y-42923809D01*
X45038095Y-42876190D01*
X45085714Y-42780952D01*
X24271746Y-90154660D02*
X24271746Y-90868946D01*
X24224127Y-91011803D01*
X24128889Y-91107041D01*
X23986032Y-91154660D01*
X23890794Y-91154660D01*
X24700318Y-90249899D02*
X24747937Y-90202280D01*
X24843175Y-90154660D01*
X25081270Y-90154660D01*
X25176508Y-90202280D01*
X25224127Y-90249899D01*
X25271746Y-90345137D01*
X25271746Y-90440375D01*
X25224127Y-90583232D01*
X24652699Y-91154660D01*
X25271746Y-91154660D01*
X42038095Y-60952380D02*
X42038095Y-61761904D01*
X42085714Y-61857142D01*
X42133333Y-61904761D01*
X42228571Y-61952380D01*
X42419047Y-61952380D01*
X42514285Y-61904761D01*
X42561904Y-61857142D01*
X42609523Y-61761904D01*
X42609523Y-60952380D01*
X43609523Y-61952380D02*
X43038095Y-61952380D01*
X43323809Y-61952380D02*
X43323809Y-60952380D01*
X43228571Y-61095238D01*
X43133333Y-61190476D01*
X43038095Y-61238095D01*
M02*
