G04 #@! TF.GenerationSoftware,KiCad,Pcbnew,(5.1.12)-1*
G04 #@! TF.CreationDate,2022-05-19T15:31:46+12:00*
G04 #@! TF.ProjectId,rgbntsc,7267626e-7473-4632-9e6b-696361645f70,rev?*
G04 #@! TF.SameCoordinates,Original*
G04 #@! TF.FileFunction,Legend,Top*
G04 #@! TF.FilePolarity,Positive*
%FSLAX46Y46*%
G04 Gerber Fmt 4.6, Leading zero omitted, Abs format (unit mm)*
G04 Created by KiCad (PCBNEW (5.1.12)-1) date 2022-05-19 15:31:46*
%MOMM*%
%LPD*%
G01*
G04 APERTURE LIST*
%ADD10C,0.200000*%
%ADD11C,0.120000*%
%ADD12C,0.400000*%
%ADD13C,0.127000*%
%ADD14C,0.010000*%
%ADD15C,0.150000*%
%ADD16C,0.050000*%
G04 APERTURE END LIST*
D10*
X47231904Y-103128571D02*
X46798571Y-102414285D01*
X46489047Y-103128571D02*
X46489047Y-101628571D01*
X46984285Y-101628571D01*
X47108095Y-101700000D01*
X47170000Y-101771428D01*
X47231904Y-101914285D01*
X47231904Y-102128571D01*
X47170000Y-102271428D01*
X47108095Y-102342857D01*
X46984285Y-102414285D01*
X46489047Y-102414285D01*
X48470000Y-101700000D02*
X48346190Y-101628571D01*
X48160476Y-101628571D01*
X47974761Y-101700000D01*
X47850952Y-101842857D01*
X47789047Y-101985714D01*
X47727142Y-102271428D01*
X47727142Y-102485714D01*
X47789047Y-102771428D01*
X47850952Y-102914285D01*
X47974761Y-103057142D01*
X48160476Y-103128571D01*
X48284285Y-103128571D01*
X48470000Y-103057142D01*
X48531904Y-102985714D01*
X48531904Y-102485714D01*
X48284285Y-102485714D01*
X49522380Y-102342857D02*
X49708095Y-102414285D01*
X49770000Y-102485714D01*
X49831904Y-102628571D01*
X49831904Y-102842857D01*
X49770000Y-102985714D01*
X49708095Y-103057142D01*
X49584285Y-103128571D01*
X49089047Y-103128571D01*
X49089047Y-101628571D01*
X49522380Y-101628571D01*
X49646190Y-101700000D01*
X49708095Y-101771428D01*
X49770000Y-101914285D01*
X49770000Y-102057142D01*
X49708095Y-102200000D01*
X49646190Y-102271428D01*
X49522380Y-102342857D01*
X49089047Y-102342857D01*
X51193809Y-102128571D02*
X51689047Y-102128571D01*
X51379523Y-101628571D02*
X51379523Y-102914285D01*
X51441428Y-103057142D01*
X51565238Y-103128571D01*
X51689047Y-103128571D01*
X52308095Y-103128571D02*
X52184285Y-103057142D01*
X52122380Y-102985714D01*
X52060476Y-102842857D01*
X52060476Y-102414285D01*
X52122380Y-102271428D01*
X52184285Y-102200000D01*
X52308095Y-102128571D01*
X52493809Y-102128571D01*
X52617619Y-102200000D01*
X52679523Y-102271428D01*
X52741428Y-102414285D01*
X52741428Y-102842857D01*
X52679523Y-102985714D01*
X52617619Y-103057142D01*
X52493809Y-103128571D01*
X52308095Y-103128571D01*
X54289047Y-103128571D02*
X54289047Y-101628571D01*
X55031904Y-103128571D01*
X55031904Y-101628571D01*
X55465238Y-101628571D02*
X56208095Y-101628571D01*
X55836666Y-103128571D02*
X55836666Y-101628571D01*
X56579523Y-103057142D02*
X56765238Y-103128571D01*
X57074761Y-103128571D01*
X57198571Y-103057142D01*
X57260476Y-102985714D01*
X57322380Y-102842857D01*
X57322380Y-102700000D01*
X57260476Y-102557142D01*
X57198571Y-102485714D01*
X57074761Y-102414285D01*
X56827142Y-102342857D01*
X56703333Y-102271428D01*
X56641428Y-102200000D01*
X56579523Y-102057142D01*
X56579523Y-101914285D01*
X56641428Y-101771428D01*
X56703333Y-101700000D01*
X56827142Y-101628571D01*
X57136666Y-101628571D01*
X57322380Y-101700000D01*
X58622380Y-102985714D02*
X58560476Y-103057142D01*
X58374761Y-103128571D01*
X58250952Y-103128571D01*
X58065238Y-103057142D01*
X57941428Y-102914285D01*
X57879523Y-102771428D01*
X57817619Y-102485714D01*
X57817619Y-102271428D01*
X57879523Y-101985714D01*
X57941428Y-101842857D01*
X58065238Y-101700000D01*
X58250952Y-101628571D01*
X58374761Y-101628571D01*
X58560476Y-101700000D01*
X58622380Y-101771428D01*
X38008095Y-104221428D02*
X38070000Y-104150000D01*
X38193809Y-104078571D01*
X38503333Y-104078571D01*
X38627142Y-104150000D01*
X38689047Y-104221428D01*
X38750952Y-104364285D01*
X38750952Y-104507142D01*
X38689047Y-104721428D01*
X37946190Y-105578571D01*
X38750952Y-105578571D01*
X39555714Y-104078571D02*
X39679523Y-104078571D01*
X39803333Y-104150000D01*
X39865238Y-104221428D01*
X39927142Y-104364285D01*
X39989047Y-104650000D01*
X39989047Y-105007142D01*
X39927142Y-105292857D01*
X39865238Y-105435714D01*
X39803333Y-105507142D01*
X39679523Y-105578571D01*
X39555714Y-105578571D01*
X39431904Y-105507142D01*
X39370000Y-105435714D01*
X39308095Y-105292857D01*
X39246190Y-105007142D01*
X39246190Y-104650000D01*
X39308095Y-104364285D01*
X39370000Y-104221428D01*
X39431904Y-104150000D01*
X39555714Y-104078571D01*
X40484285Y-104221428D02*
X40546190Y-104150000D01*
X40670000Y-104078571D01*
X40979523Y-104078571D01*
X41103333Y-104150000D01*
X41165238Y-104221428D01*
X41227142Y-104364285D01*
X41227142Y-104507142D01*
X41165238Y-104721428D01*
X40422380Y-105578571D01*
X41227142Y-105578571D01*
X42465238Y-105578571D02*
X41722380Y-105578571D01*
X42093809Y-105578571D02*
X42093809Y-104078571D01*
X41970000Y-104292857D01*
X41846190Y-104435714D01*
X41722380Y-104507142D01*
X43022380Y-105007142D02*
X44012857Y-105007142D01*
X44879523Y-104078571D02*
X45003333Y-104078571D01*
X45127142Y-104150000D01*
X45189047Y-104221428D01*
X45250952Y-104364285D01*
X45312857Y-104650000D01*
X45312857Y-105007142D01*
X45250952Y-105292857D01*
X45189047Y-105435714D01*
X45127142Y-105507142D01*
X45003333Y-105578571D01*
X44879523Y-105578571D01*
X44755714Y-105507142D01*
X44693809Y-105435714D01*
X44631904Y-105292857D01*
X44570000Y-105007142D01*
X44570000Y-104650000D01*
X44631904Y-104364285D01*
X44693809Y-104221428D01*
X44755714Y-104150000D01*
X44879523Y-104078571D01*
X46489047Y-104078571D02*
X45870000Y-104078571D01*
X45808095Y-104792857D01*
X45870000Y-104721428D01*
X45993809Y-104650000D01*
X46303333Y-104650000D01*
X46427142Y-104721428D01*
X46489047Y-104792857D01*
X46550952Y-104935714D01*
X46550952Y-105292857D01*
X46489047Y-105435714D01*
X46427142Y-105507142D01*
X46303333Y-105578571D01*
X45993809Y-105578571D01*
X45870000Y-105507142D01*
X45808095Y-105435714D01*
X47108095Y-105007142D02*
X48098571Y-105007142D01*
X48965238Y-104078571D02*
X49089047Y-104078571D01*
X49212857Y-104150000D01*
X49274761Y-104221428D01*
X49336666Y-104364285D01*
X49398571Y-104650000D01*
X49398571Y-105007142D01*
X49336666Y-105292857D01*
X49274761Y-105435714D01*
X49212857Y-105507142D01*
X49089047Y-105578571D01*
X48965238Y-105578571D01*
X48841428Y-105507142D01*
X48779523Y-105435714D01*
X48717619Y-105292857D01*
X48655714Y-105007142D01*
X48655714Y-104650000D01*
X48717619Y-104364285D01*
X48779523Y-104221428D01*
X48841428Y-104150000D01*
X48965238Y-104078571D01*
X50574761Y-104078571D02*
X49955714Y-104078571D01*
X49893809Y-104792857D01*
X49955714Y-104721428D01*
X50079523Y-104650000D01*
X50389047Y-104650000D01*
X50512857Y-104721428D01*
X50574761Y-104792857D01*
X50636666Y-104935714D01*
X50636666Y-105292857D01*
X50574761Y-105435714D01*
X50512857Y-105507142D01*
X50389047Y-105578571D01*
X50079523Y-105578571D01*
X49955714Y-105507142D01*
X49893809Y-105435714D01*
X52184285Y-105578571D02*
X52184285Y-104578571D01*
X52184285Y-104864285D02*
X52246190Y-104721428D01*
X52308095Y-104650000D01*
X52431904Y-104578571D01*
X52555714Y-104578571D01*
X53484285Y-105507142D02*
X53360476Y-105578571D01*
X53112857Y-105578571D01*
X52989047Y-105507142D01*
X52927142Y-105364285D01*
X52927142Y-104792857D01*
X52989047Y-104650000D01*
X53112857Y-104578571D01*
X53360476Y-104578571D01*
X53484285Y-104650000D01*
X53546190Y-104792857D01*
X53546190Y-104935714D01*
X52927142Y-105078571D01*
X53979523Y-104578571D02*
X54289047Y-105578571D01*
X54598571Y-104578571D01*
X55960476Y-104078571D02*
X56765238Y-104078571D01*
X56331904Y-104650000D01*
X56517619Y-104650000D01*
X56641428Y-104721428D01*
X56703333Y-104792857D01*
X56765238Y-104935714D01*
X56765238Y-105292857D01*
X56703333Y-105435714D01*
X56641428Y-105507142D01*
X56517619Y-105578571D01*
X56146190Y-105578571D01*
X56022380Y-105507142D01*
X55960476Y-105435714D01*
X57322380Y-105435714D02*
X57384285Y-105507142D01*
X57322380Y-105578571D01*
X57260476Y-105507142D01*
X57322380Y-105435714D01*
X57322380Y-105578571D01*
X57817619Y-104078571D02*
X58622380Y-104078571D01*
X58189047Y-104650000D01*
X58374761Y-104650000D01*
X58498571Y-104721428D01*
X58560476Y-104792857D01*
X58622380Y-104935714D01*
X58622380Y-105292857D01*
X58560476Y-105435714D01*
X58498571Y-105507142D01*
X58374761Y-105578571D01*
X58003333Y-105578571D01*
X57879523Y-105507142D01*
X57817619Y-105435714D01*
X42217619Y-107028571D02*
X42465238Y-108028571D01*
X42712857Y-107314285D01*
X42960476Y-108028571D01*
X43208095Y-107028571D01*
X44260476Y-108028571D02*
X44260476Y-107242857D01*
X44198571Y-107100000D01*
X44074761Y-107028571D01*
X43827142Y-107028571D01*
X43703333Y-107100000D01*
X44260476Y-107957142D02*
X44136666Y-108028571D01*
X43827142Y-108028571D01*
X43703333Y-107957142D01*
X43641428Y-107814285D01*
X43641428Y-107671428D01*
X43703333Y-107528571D01*
X43827142Y-107457142D01*
X44136666Y-107457142D01*
X44260476Y-107385714D01*
X44879523Y-108028571D02*
X44879523Y-106528571D01*
X45003333Y-107457142D02*
X45374761Y-108028571D01*
X45374761Y-107028571D02*
X44879523Y-107600000D01*
X46489047Y-108028571D02*
X46489047Y-107242857D01*
X46427142Y-107100000D01*
X46303333Y-107028571D01*
X46055714Y-107028571D01*
X45931904Y-107100000D01*
X46489047Y-107957142D02*
X46365238Y-108028571D01*
X46055714Y-108028571D01*
X45931904Y-107957142D01*
X45870000Y-107814285D01*
X45870000Y-107671428D01*
X45931904Y-107528571D01*
X46055714Y-107457142D01*
X46365238Y-107457142D01*
X46489047Y-107385714D01*
X47108095Y-108028571D02*
X47108095Y-106528571D01*
X47108095Y-107100000D02*
X47231904Y-107028571D01*
X47479523Y-107028571D01*
X47603333Y-107100000D01*
X47665238Y-107171428D01*
X47727142Y-107314285D01*
X47727142Y-107742857D01*
X47665238Y-107885714D01*
X47603333Y-107957142D01*
X47479523Y-108028571D01*
X47231904Y-108028571D01*
X47108095Y-107957142D01*
X48841428Y-108028571D02*
X48841428Y-107242857D01*
X48779523Y-107100000D01*
X48655714Y-107028571D01*
X48408095Y-107028571D01*
X48284285Y-107100000D01*
X48841428Y-107957142D02*
X48717619Y-108028571D01*
X48408095Y-108028571D01*
X48284285Y-107957142D01*
X48222380Y-107814285D01*
X48222380Y-107671428D01*
X48284285Y-107528571D01*
X48408095Y-107457142D01*
X48717619Y-107457142D01*
X48841428Y-107385714D01*
X49336666Y-107028571D02*
X49646190Y-108028571D01*
X49955714Y-107028571D01*
X50450952Y-108028571D02*
X50450952Y-107028571D01*
X50450952Y-106528571D02*
X50389047Y-106600000D01*
X50450952Y-106671428D01*
X50512857Y-106600000D01*
X50450952Y-106528571D01*
X50450952Y-106671428D01*
X51627142Y-108028571D02*
X51627142Y-106528571D01*
X51627142Y-107957142D02*
X51503333Y-108028571D01*
X51255714Y-108028571D01*
X51131904Y-107957142D01*
X51070000Y-107885714D01*
X51008095Y-107742857D01*
X51008095Y-107314285D01*
X51070000Y-107171428D01*
X51131904Y-107100000D01*
X51255714Y-107028571D01*
X51503333Y-107028571D01*
X51627142Y-107100000D01*
X52741428Y-107957142D02*
X52617619Y-108028571D01*
X52370000Y-108028571D01*
X52246190Y-107957142D01*
X52184285Y-107814285D01*
X52184285Y-107242857D01*
X52246190Y-107100000D01*
X52370000Y-107028571D01*
X52617619Y-107028571D01*
X52741428Y-107100000D01*
X52803333Y-107242857D01*
X52803333Y-107385714D01*
X52184285Y-107528571D01*
X53546190Y-108028571D02*
X53422380Y-107957142D01*
X53360476Y-107885714D01*
X53298571Y-107742857D01*
X53298571Y-107314285D01*
X53360476Y-107171428D01*
X53422380Y-107100000D01*
X53546190Y-107028571D01*
X53731904Y-107028571D01*
X53855714Y-107100000D01*
X53917619Y-107171428D01*
X53979523Y-107314285D01*
X53979523Y-107742857D01*
X53917619Y-107885714D01*
X53855714Y-107957142D01*
X53731904Y-108028571D01*
X53546190Y-108028571D01*
X54536666Y-107885714D02*
X54598571Y-107957142D01*
X54536666Y-108028571D01*
X54474761Y-107957142D01*
X54536666Y-107885714D01*
X54536666Y-108028571D01*
X55712857Y-107957142D02*
X55589047Y-108028571D01*
X55341428Y-108028571D01*
X55217619Y-107957142D01*
X55155714Y-107885714D01*
X55093809Y-107742857D01*
X55093809Y-107314285D01*
X55155714Y-107171428D01*
X55217619Y-107100000D01*
X55341428Y-107028571D01*
X55589047Y-107028571D01*
X55712857Y-107100000D01*
X56455714Y-108028571D02*
X56331904Y-107957142D01*
X56270000Y-107885714D01*
X56208095Y-107742857D01*
X56208095Y-107314285D01*
X56270000Y-107171428D01*
X56331904Y-107100000D01*
X56455714Y-107028571D01*
X56641428Y-107028571D01*
X56765238Y-107100000D01*
X56827142Y-107171428D01*
X56889047Y-107314285D01*
X56889047Y-107742857D01*
X56827142Y-107885714D01*
X56765238Y-107957142D01*
X56641428Y-108028571D01*
X56455714Y-108028571D01*
X57446190Y-108028571D02*
X57446190Y-107028571D01*
X57446190Y-107171428D02*
X57508095Y-107100000D01*
X57631904Y-107028571D01*
X57817619Y-107028571D01*
X57941428Y-107100000D01*
X58003333Y-107242857D01*
X58003333Y-108028571D01*
X58003333Y-107242857D02*
X58065238Y-107100000D01*
X58189047Y-107028571D01*
X58374761Y-107028571D01*
X58498571Y-107100000D01*
X58560476Y-107242857D01*
X58560476Y-108028571D01*
D11*
X41690000Y-98150000D02*
X41690000Y-101750000D01*
X41690000Y-98150000D02*
X41690000Y-95950000D01*
X46910000Y-98150000D02*
X46910000Y-100350000D01*
X46910000Y-98150000D02*
X46910000Y-95950000D01*
X58240000Y-95490000D02*
X58700000Y-95490000D01*
X58240000Y-92610000D02*
X58240000Y-95490000D01*
X52760000Y-97750000D02*
X52760000Y-97690000D01*
X58240000Y-97750000D02*
X52760000Y-97750000D01*
X58240000Y-97690000D02*
X58240000Y-97750000D01*
X58700000Y-97690000D02*
X58240000Y-97690000D01*
X52760000Y-95490000D02*
X52760000Y-92610000D01*
X58240000Y-90350000D02*
X58240000Y-90410000D01*
X52760000Y-90350000D02*
X58240000Y-90350000D01*
X52760000Y-90410000D02*
X52760000Y-90350000D01*
X47735000Y-44838748D02*
X47735000Y-45361252D01*
X46265000Y-44838748D02*
X46265000Y-45361252D01*
X55635000Y-73672936D02*
X55635000Y-74127064D01*
X54165000Y-73672936D02*
X54165000Y-74127064D01*
X53362936Y-44265000D02*
X53817064Y-44265000D01*
X53362936Y-45735000D02*
X53817064Y-45735000D01*
X57000000Y-45960000D02*
X59685000Y-45960000D01*
X59685000Y-45960000D02*
X59685000Y-44040000D01*
X59685000Y-44040000D02*
X57000000Y-44040000D01*
X53472936Y-89735000D02*
X53927064Y-89735000D01*
X53472936Y-88265000D02*
X53927064Y-88265000D01*
X31738748Y-44235000D02*
X32261252Y-44235000D01*
X31738748Y-42765000D02*
X32261252Y-42765000D01*
X47135000Y-91772936D02*
X47135000Y-92227064D01*
X45665000Y-91772936D02*
X45665000Y-92227064D01*
X45135000Y-91772936D02*
X45135000Y-92227064D01*
X43665000Y-91772936D02*
X43665000Y-92227064D01*
X43135000Y-91772936D02*
X43135000Y-92227064D01*
X41665000Y-91772936D02*
X41665000Y-92227064D01*
X65410000Y-54410000D02*
X65410000Y-52060000D01*
X65410000Y-47590000D02*
X65410000Y-49940000D01*
X59654437Y-47590000D02*
X65410000Y-47590000D01*
X59654437Y-54410000D02*
X65410000Y-54410000D01*
X58590000Y-53345563D02*
X58590000Y-52060000D01*
X58590000Y-48654437D02*
X58590000Y-49940000D01*
X58590000Y-48654437D02*
X59654437Y-47590000D01*
X58590000Y-53345563D02*
X59654437Y-54410000D01*
X57562500Y-49152500D02*
X58350000Y-49152500D01*
X57956250Y-48758750D02*
X57956250Y-49546250D01*
X47135000Y-88338748D02*
X47135000Y-88861252D01*
X45665000Y-88338748D02*
X45665000Y-88861252D01*
X45135000Y-88338748D02*
X45135000Y-88861252D01*
X43665000Y-88338748D02*
X43665000Y-88861252D01*
X43135000Y-88338748D02*
X43135000Y-88861252D01*
X41665000Y-88338748D02*
X41665000Y-88861252D01*
X47365000Y-98361252D02*
X47365000Y-97838748D01*
X48835000Y-98361252D02*
X48835000Y-97838748D01*
X47735000Y-48388748D02*
X47735000Y-48911252D01*
X46265000Y-48388748D02*
X46265000Y-48911252D01*
X55361252Y-87735000D02*
X54838748Y-87735000D01*
X55361252Y-86265000D02*
X54838748Y-86265000D01*
X38535000Y-88638748D02*
X38535000Y-89161252D01*
X37065000Y-88638748D02*
X37065000Y-89161252D01*
X38535000Y-81038748D02*
X38535000Y-81561252D01*
X37065000Y-81038748D02*
X37065000Y-81561252D01*
X37065000Y-77761252D02*
X37065000Y-77238748D01*
X38535000Y-77761252D02*
X38535000Y-77238748D01*
X45461252Y-61235000D02*
X44938748Y-61235000D01*
X45461252Y-59765000D02*
X44938748Y-59765000D01*
X36235000Y-44338748D02*
X36235000Y-44861252D01*
X34765000Y-44338748D02*
X34765000Y-44861252D01*
X45261252Y-69385000D02*
X44738748Y-69385000D01*
X45261252Y-67915000D02*
X44738748Y-67915000D01*
X40235000Y-66038748D02*
X40235000Y-66561252D01*
X38765000Y-66038748D02*
X38765000Y-66561252D01*
X49072936Y-88965000D02*
X49527064Y-88965000D01*
X49072936Y-90435000D02*
X49527064Y-90435000D01*
X49072936Y-86965000D02*
X49527064Y-86965000D01*
X49072936Y-88435000D02*
X49527064Y-88435000D01*
X49072936Y-90965000D02*
X49527064Y-90965000D01*
X49072936Y-92435000D02*
X49527064Y-92435000D01*
X34127064Y-56735000D02*
X33672936Y-56735000D01*
X34127064Y-55265000D02*
X33672936Y-55265000D01*
X53435000Y-73672936D02*
X53435000Y-74127064D01*
X51965000Y-73672936D02*
X51965000Y-74127064D01*
X47635000Y-73672936D02*
X47635000Y-74127064D01*
X46165000Y-73672936D02*
X46165000Y-74127064D01*
X49927064Y-75535000D02*
X49472936Y-75535000D01*
X49927064Y-74065000D02*
X49472936Y-74065000D01*
X38535000Y-92472936D02*
X38535000Y-92927064D01*
X37065000Y-92472936D02*
X37065000Y-92927064D01*
X38535000Y-84872936D02*
X38535000Y-85327064D01*
X37065000Y-84872936D02*
X37065000Y-85327064D01*
X37065000Y-73927064D02*
X37065000Y-73472936D01*
X38535000Y-73927064D02*
X38535000Y-73472936D01*
X45227064Y-71435000D02*
X44772936Y-71435000D01*
X45227064Y-69965000D02*
X44772936Y-69965000D01*
X29827064Y-48935000D02*
X29372936Y-48935000D01*
X29827064Y-47465000D02*
X29372936Y-47465000D01*
X29827064Y-46935000D02*
X29372936Y-46935000D01*
X29827064Y-45465000D02*
X29372936Y-45465000D01*
X38765000Y-62527064D02*
X38765000Y-62072936D01*
X40235000Y-62527064D02*
X40235000Y-62072936D01*
D12*
X63300000Y-68940000D02*
G75*
G03*
X63300000Y-68940000I-200000J0D01*
G01*
D13*
X58600000Y-83600000D02*
X64250000Y-83600000D01*
X71600000Y-83600000D02*
X67910000Y-83600000D01*
X58600000Y-69600000D02*
X64250000Y-69600000D01*
X71600000Y-69600000D02*
X67910000Y-69600000D01*
X58600000Y-83600000D02*
X58600000Y-69600000D01*
X71600000Y-69600000D02*
X71600000Y-83600000D01*
D11*
X41390000Y-81100000D02*
X41390000Y-85550000D01*
X41390000Y-81100000D02*
X41390000Y-78450000D01*
X56610000Y-81100000D02*
X56610000Y-83750000D01*
X56610000Y-81100000D02*
X56610000Y-78450000D01*
X56241250Y-62956250D02*
X55453750Y-62956250D01*
X55847500Y-62562500D02*
X55847500Y-63350000D01*
X51654437Y-63590000D02*
X50590000Y-64654437D01*
X56345563Y-63590000D02*
X57410000Y-64654437D01*
X56345563Y-63590000D02*
X55060000Y-63590000D01*
X51654437Y-63590000D02*
X52940000Y-63590000D01*
X50590000Y-64654437D02*
X50590000Y-70410000D01*
X57410000Y-64654437D02*
X57410000Y-70410000D01*
X57410000Y-70410000D02*
X55060000Y-70410000D01*
X50590000Y-70410000D02*
X52940000Y-70410000D01*
X49956250Y-55958750D02*
X49956250Y-56746250D01*
X49562500Y-56352500D02*
X50350000Y-56352500D01*
X50590000Y-60545563D02*
X51654437Y-61610000D01*
X50590000Y-55854437D02*
X51654437Y-54790000D01*
X50590000Y-55854437D02*
X50590000Y-57140000D01*
X50590000Y-60545563D02*
X50590000Y-59260000D01*
X51654437Y-61610000D02*
X57410000Y-61610000D01*
X51654437Y-54790000D02*
X57410000Y-54790000D01*
X57410000Y-54790000D02*
X57410000Y-57140000D01*
X57410000Y-61610000D02*
X57410000Y-59260000D01*
X38800000Y-51390000D02*
X36350000Y-51390000D01*
X37000000Y-54610000D02*
X38800000Y-54610000D01*
X34800000Y-51390000D02*
X32350000Y-51390000D01*
X33000000Y-54610000D02*
X34800000Y-54610000D01*
X45900000Y-53950000D02*
X45900000Y-58050000D01*
X45900000Y-58050000D02*
X43900000Y-58050000D01*
X43900000Y-58050000D02*
X43900000Y-53950000D01*
X43900000Y-53950000D02*
X45900000Y-53950000D01*
X43700000Y-54700000D02*
X43400000Y-54400000D01*
X43400000Y-54400000D02*
X43400000Y-55000000D01*
X43700000Y-54700000D02*
X43400000Y-55000000D01*
D14*
G36*
X34099334Y-101404484D02*
G01*
X34144447Y-101521512D01*
X34208691Y-101622524D01*
X34288475Y-101710076D01*
X34385612Y-101727480D01*
X34556537Y-101675772D01*
X34670645Y-101630999D01*
X35039344Y-101537396D01*
X35482480Y-101528687D01*
X36020845Y-101606805D01*
X36675228Y-101773685D01*
X36882855Y-101836825D01*
X37343707Y-101980918D01*
X37673757Y-102076618D01*
X37904691Y-102123190D01*
X38068197Y-102119898D01*
X38195960Y-102066009D01*
X38319666Y-101960787D01*
X38471003Y-101803498D01*
X38474427Y-101799922D01*
X38699966Y-101570356D01*
X38834873Y-101455627D01*
X38901952Y-101444848D01*
X38924009Y-101527135D01*
X38925334Y-101584676D01*
X38951028Y-101692418D01*
X39059400Y-101720257D01*
X39210903Y-101702345D01*
X39431758Y-101695234D01*
X39554044Y-101749172D01*
X39554566Y-101750002D01*
X39540225Y-101828136D01*
X39459497Y-101844420D01*
X39296414Y-101896041D01*
X39090920Y-102022744D01*
X39052334Y-102053042D01*
X38798334Y-102261243D01*
X39120830Y-102264288D01*
X39324185Y-102285228D01*
X39396286Y-102336652D01*
X39391000Y-102352000D01*
X39272986Y-102420282D01*
X39153170Y-102436895D01*
X39063349Y-102450574D01*
X39070404Y-102507697D01*
X39187209Y-102632892D01*
X39319169Y-102754395D01*
X39796816Y-103281520D01*
X40162079Y-103907455D01*
X40377116Y-104472906D01*
X40460163Y-104763925D01*
X40516230Y-105038356D01*
X40550093Y-105341141D01*
X40566527Y-105717217D01*
X40570307Y-106211524D01*
X40570111Y-106289000D01*
X40546052Y-107046868D01*
X40474011Y-107675177D01*
X40345865Y-108208941D01*
X40153495Y-108683177D01*
X39922049Y-109083000D01*
X39754563Y-109322212D01*
X39618423Y-109452208D01*
X39459288Y-109509823D01*
X39263346Y-109529524D01*
X38788660Y-109477596D01*
X38525237Y-109373534D01*
X38174076Y-109123867D01*
X37918422Y-108764554D01*
X37742739Y-108272973D01*
X37728386Y-108213140D01*
X37628632Y-107780982D01*
X37385023Y-108087524D01*
X37056819Y-108428483D01*
X36654593Y-108700193D01*
X36131611Y-108933962D01*
X36108971Y-108942427D01*
X35212197Y-109216885D01*
X34389818Y-109346786D01*
X33645390Y-109332206D01*
X32982469Y-109173222D01*
X32404613Y-108869911D01*
X32394357Y-108862664D01*
X32231763Y-108762182D01*
X32134238Y-108765124D01*
X32061857Y-108835598D01*
X31801643Y-109032570D01*
X31435698Y-109160951D01*
X31015983Y-109213853D01*
X30594460Y-109184387D01*
X30245178Y-109076460D01*
X30067328Y-108977041D01*
X29951967Y-108856079D01*
X29880066Y-108672818D01*
X29832597Y-108386503D01*
X29808366Y-108151593D01*
X29953669Y-108151593D01*
X29961480Y-108382727D01*
X29999792Y-108538855D01*
X30077000Y-108666863D01*
X30136376Y-108739123D01*
X30316068Y-108899565D01*
X30544416Y-108986074D01*
X30776557Y-109019537D01*
X31190560Y-109034300D01*
X31502930Y-108977276D01*
X31770652Y-108835962D01*
X31835867Y-108787115D01*
X32055247Y-108614550D01*
X31814815Y-108351312D01*
X31624711Y-108029213D01*
X31516881Y-107590861D01*
X31490129Y-107067333D01*
X31543264Y-106489708D01*
X31675090Y-105889067D01*
X31884415Y-105296487D01*
X31936666Y-105179093D01*
X32087684Y-104822497D01*
X32211698Y-104474949D01*
X32286632Y-104199790D01*
X32294915Y-104151166D01*
X32342844Y-103931603D01*
X32405032Y-103804223D01*
X32429302Y-103791333D01*
X32485579Y-103863881D01*
X32483665Y-104059321D01*
X32430752Y-104344341D01*
X32334036Y-104685632D01*
X32200709Y-105049885D01*
X32115035Y-105246532D01*
X31856037Y-105945577D01*
X31711598Y-106658557D01*
X31689856Y-107337071D01*
X31719263Y-107600081D01*
X31777426Y-107873375D01*
X31870207Y-108078348D01*
X32034306Y-108277832D01*
X32218202Y-108454237D01*
X32771259Y-108862661D01*
X33369665Y-109108960D01*
X34022958Y-109196511D01*
X34291685Y-109188571D01*
X34783564Y-109121176D01*
X35335137Y-108993750D01*
X35886927Y-108824217D01*
X36379457Y-108630506D01*
X36706027Y-108460887D01*
X36964889Y-108254572D01*
X37222674Y-107977286D01*
X37338715Y-107818537D01*
X37608377Y-107400741D01*
X37585431Y-106167537D01*
X37560042Y-105473557D01*
X37508201Y-104913854D01*
X37423275Y-104454537D01*
X37298633Y-104061713D01*
X37127642Y-103701491D01*
X37089832Y-103634740D01*
X36965573Y-103377913D01*
X36940632Y-103215691D01*
X36956097Y-103186703D01*
X37033119Y-103215499D01*
X37162030Y-103388743D01*
X37333185Y-103693124D01*
X37357882Y-103741330D01*
X37679890Y-104375735D01*
X37748711Y-106009701D01*
X37779802Y-106703612D01*
X37809652Y-107251631D01*
X37841007Y-107677151D01*
X37876615Y-108003568D01*
X37919222Y-108254274D01*
X37971575Y-108452663D01*
X38036421Y-108622131D01*
X38061987Y-108677707D01*
X38269696Y-108967650D01*
X38559879Y-109187765D01*
X38891657Y-109325036D01*
X39224153Y-109366445D01*
X39516488Y-109298979D01*
X39667248Y-109188833D01*
X39953750Y-108781418D01*
X40186618Y-108245907D01*
X40360407Y-107616534D01*
X40469675Y-106927533D01*
X40508981Y-106213138D01*
X40472881Y-105507583D01*
X40357084Y-104849666D01*
X40245749Y-104471743D01*
X40109694Y-104103921D01*
X39967712Y-103789885D01*
X39838598Y-103573319D01*
X39782150Y-103513251D01*
X39645012Y-103364770D01*
X39519797Y-103168040D01*
X39375290Y-102973772D01*
X39213528Y-102856905D01*
X39030353Y-102753341D01*
X38819445Y-102590057D01*
X38792132Y-102565334D01*
X38640912Y-102405190D01*
X38606369Y-102287925D01*
X38653901Y-102179117D01*
X38749527Y-101988148D01*
X38730836Y-101917189D01*
X38607055Y-101970447D01*
X38456721Y-102089229D01*
X38260623Y-102241909D01*
X38074324Y-102320918D01*
X37826878Y-102349432D01*
X37652387Y-102352000D01*
X37383002Y-102339079D01*
X37200497Y-102305363D01*
X37147334Y-102267333D01*
X37214819Y-102183068D01*
X37253167Y-102174227D01*
X37302653Y-102153981D01*
X37225154Y-102119592D01*
X37061397Y-102080311D01*
X36852107Y-102045386D01*
X36638009Y-102024065D01*
X36581881Y-102021772D01*
X36324745Y-101986058D01*
X36128515Y-101907616D01*
X36097571Y-101882808D01*
X35808568Y-101694060D01*
X35441246Y-101634855D01*
X34984355Y-101704978D01*
X34549528Y-101852942D01*
X34356259Y-101915115D01*
X34234183Y-101884183D01*
X34116619Y-101759654D01*
X33953181Y-101557817D01*
X33855741Y-101739887D01*
X33758300Y-101921957D01*
X33451335Y-101713645D01*
X33205763Y-101560303D01*
X33074787Y-101517532D01*
X33044741Y-101585347D01*
X33082194Y-101714002D01*
X33121269Y-101901465D01*
X33049733Y-101961950D01*
X32870254Y-101894338D01*
X32781718Y-101839737D01*
X32518771Y-101726964D01*
X32212516Y-101678585D01*
X31938351Y-101702024D01*
X31831739Y-101746166D01*
X31817942Y-101812092D01*
X31966747Y-101893081D01*
X32061766Y-101926829D01*
X32285758Y-102023889D01*
X32343904Y-102105312D01*
X32239584Y-102161452D01*
X31976178Y-102182663D01*
X31972104Y-102182666D01*
X31622607Y-102221155D01*
X31321888Y-102355537D01*
X31030167Y-102589852D01*
X30851675Y-102774373D01*
X30813014Y-102863540D01*
X30913481Y-102856469D01*
X31152377Y-102752276D01*
X31157167Y-102749891D01*
X31402878Y-102661972D01*
X31709862Y-102599413D01*
X32032338Y-102565139D01*
X32324525Y-102562078D01*
X32540641Y-102593153D01*
X32633336Y-102655555D01*
X32582846Y-102741727D01*
X32418846Y-102853598D01*
X32317589Y-102904021D01*
X31935831Y-103144289D01*
X31682970Y-103475940D01*
X31557053Y-103823553D01*
X31491635Y-104009191D01*
X31362617Y-104314647D01*
X31183913Y-104709190D01*
X30969435Y-105162086D01*
X30737168Y-105634484D01*
X30483345Y-106143603D01*
X30295465Y-106531584D01*
X30162902Y-106828324D01*
X30075031Y-107063717D01*
X30021224Y-107267661D01*
X29990855Y-107470049D01*
X29973299Y-107700778D01*
X29967962Y-107798568D01*
X29953669Y-108151593D01*
X29808366Y-108151593D01*
X29806952Y-108137893D01*
X29791936Y-107767543D01*
X29826484Y-107413255D01*
X29920611Y-107038910D01*
X30084333Y-106608389D01*
X30327667Y-106085571D01*
X30436209Y-105868746D01*
X30703007Y-105341987D01*
X30904482Y-104940786D01*
X31052244Y-104639854D01*
X31157900Y-104413898D01*
X31233060Y-104237629D01*
X31289331Y-104085755D01*
X31338323Y-103932987D01*
X31363974Y-103847498D01*
X31526144Y-103408241D01*
X31723732Y-103096832D01*
X31983902Y-102871990D01*
X32021377Y-102848403D01*
X32279000Y-102691299D01*
X31982667Y-102692842D01*
X31621803Y-102754056D01*
X31203947Y-102918918D01*
X30784210Y-103164159D01*
X30669796Y-103247150D01*
X30472471Y-103372923D01*
X30381177Y-103372425D01*
X30396139Y-103251587D01*
X30517581Y-103016344D01*
X30653148Y-102805744D01*
X31020263Y-102397866D01*
X31351648Y-102182838D01*
X31771000Y-101971343D01*
X31474667Y-101922567D01*
X31178334Y-101873792D01*
X31601667Y-101682055D01*
X31987842Y-101548101D01*
X32352688Y-101521955D01*
X32419456Y-101526989D01*
X32661599Y-101538972D01*
X32766951Y-101511086D01*
X32770231Y-101449830D01*
X32794304Y-101360046D01*
X32942113Y-101339778D01*
X33183359Y-101388212D01*
X33401889Y-101466828D01*
X33609703Y-101544309D01*
X33723931Y-101547652D01*
X33803228Y-101476856D01*
X33810670Y-101466828D01*
X33932798Y-101362261D01*
X34050477Y-101339101D01*
X34099334Y-101404484D01*
G37*
X34099334Y-101404484D02*
X34144447Y-101521512D01*
X34208691Y-101622524D01*
X34288475Y-101710076D01*
X34385612Y-101727480D01*
X34556537Y-101675772D01*
X34670645Y-101630999D01*
X35039344Y-101537396D01*
X35482480Y-101528687D01*
X36020845Y-101606805D01*
X36675228Y-101773685D01*
X36882855Y-101836825D01*
X37343707Y-101980918D01*
X37673757Y-102076618D01*
X37904691Y-102123190D01*
X38068197Y-102119898D01*
X38195960Y-102066009D01*
X38319666Y-101960787D01*
X38471003Y-101803498D01*
X38474427Y-101799922D01*
X38699966Y-101570356D01*
X38834873Y-101455627D01*
X38901952Y-101444848D01*
X38924009Y-101527135D01*
X38925334Y-101584676D01*
X38951028Y-101692418D01*
X39059400Y-101720257D01*
X39210903Y-101702345D01*
X39431758Y-101695234D01*
X39554044Y-101749172D01*
X39554566Y-101750002D01*
X39540225Y-101828136D01*
X39459497Y-101844420D01*
X39296414Y-101896041D01*
X39090920Y-102022744D01*
X39052334Y-102053042D01*
X38798334Y-102261243D01*
X39120830Y-102264288D01*
X39324185Y-102285228D01*
X39396286Y-102336652D01*
X39391000Y-102352000D01*
X39272986Y-102420282D01*
X39153170Y-102436895D01*
X39063349Y-102450574D01*
X39070404Y-102507697D01*
X39187209Y-102632892D01*
X39319169Y-102754395D01*
X39796816Y-103281520D01*
X40162079Y-103907455D01*
X40377116Y-104472906D01*
X40460163Y-104763925D01*
X40516230Y-105038356D01*
X40550093Y-105341141D01*
X40566527Y-105717217D01*
X40570307Y-106211524D01*
X40570111Y-106289000D01*
X40546052Y-107046868D01*
X40474011Y-107675177D01*
X40345865Y-108208941D01*
X40153495Y-108683177D01*
X39922049Y-109083000D01*
X39754563Y-109322212D01*
X39618423Y-109452208D01*
X39459288Y-109509823D01*
X39263346Y-109529524D01*
X38788660Y-109477596D01*
X38525237Y-109373534D01*
X38174076Y-109123867D01*
X37918422Y-108764554D01*
X37742739Y-108272973D01*
X37728386Y-108213140D01*
X37628632Y-107780982D01*
X37385023Y-108087524D01*
X37056819Y-108428483D01*
X36654593Y-108700193D01*
X36131611Y-108933962D01*
X36108971Y-108942427D01*
X35212197Y-109216885D01*
X34389818Y-109346786D01*
X33645390Y-109332206D01*
X32982469Y-109173222D01*
X32404613Y-108869911D01*
X32394357Y-108862664D01*
X32231763Y-108762182D01*
X32134238Y-108765124D01*
X32061857Y-108835598D01*
X31801643Y-109032570D01*
X31435698Y-109160951D01*
X31015983Y-109213853D01*
X30594460Y-109184387D01*
X30245178Y-109076460D01*
X30067328Y-108977041D01*
X29951967Y-108856079D01*
X29880066Y-108672818D01*
X29832597Y-108386503D01*
X29808366Y-108151593D01*
X29953669Y-108151593D01*
X29961480Y-108382727D01*
X29999792Y-108538855D01*
X30077000Y-108666863D01*
X30136376Y-108739123D01*
X30316068Y-108899565D01*
X30544416Y-108986074D01*
X30776557Y-109019537D01*
X31190560Y-109034300D01*
X31502930Y-108977276D01*
X31770652Y-108835962D01*
X31835867Y-108787115D01*
X32055247Y-108614550D01*
X31814815Y-108351312D01*
X31624711Y-108029213D01*
X31516881Y-107590861D01*
X31490129Y-107067333D01*
X31543264Y-106489708D01*
X31675090Y-105889067D01*
X31884415Y-105296487D01*
X31936666Y-105179093D01*
X32087684Y-104822497D01*
X32211698Y-104474949D01*
X32286632Y-104199790D01*
X32294915Y-104151166D01*
X32342844Y-103931603D01*
X32405032Y-103804223D01*
X32429302Y-103791333D01*
X32485579Y-103863881D01*
X32483665Y-104059321D01*
X32430752Y-104344341D01*
X32334036Y-104685632D01*
X32200709Y-105049885D01*
X32115035Y-105246532D01*
X31856037Y-105945577D01*
X31711598Y-106658557D01*
X31689856Y-107337071D01*
X31719263Y-107600081D01*
X31777426Y-107873375D01*
X31870207Y-108078348D01*
X32034306Y-108277832D01*
X32218202Y-108454237D01*
X32771259Y-108862661D01*
X33369665Y-109108960D01*
X34022958Y-109196511D01*
X34291685Y-109188571D01*
X34783564Y-109121176D01*
X35335137Y-108993750D01*
X35886927Y-108824217D01*
X36379457Y-108630506D01*
X36706027Y-108460887D01*
X36964889Y-108254572D01*
X37222674Y-107977286D01*
X37338715Y-107818537D01*
X37608377Y-107400741D01*
X37585431Y-106167537D01*
X37560042Y-105473557D01*
X37508201Y-104913854D01*
X37423275Y-104454537D01*
X37298633Y-104061713D01*
X37127642Y-103701491D01*
X37089832Y-103634740D01*
X36965573Y-103377913D01*
X36940632Y-103215691D01*
X36956097Y-103186703D01*
X37033119Y-103215499D01*
X37162030Y-103388743D01*
X37333185Y-103693124D01*
X37357882Y-103741330D01*
X37679890Y-104375735D01*
X37748711Y-106009701D01*
X37779802Y-106703612D01*
X37809652Y-107251631D01*
X37841007Y-107677151D01*
X37876615Y-108003568D01*
X37919222Y-108254274D01*
X37971575Y-108452663D01*
X38036421Y-108622131D01*
X38061987Y-108677707D01*
X38269696Y-108967650D01*
X38559879Y-109187765D01*
X38891657Y-109325036D01*
X39224153Y-109366445D01*
X39516488Y-109298979D01*
X39667248Y-109188833D01*
X39953750Y-108781418D01*
X40186618Y-108245907D01*
X40360407Y-107616534D01*
X40469675Y-106927533D01*
X40508981Y-106213138D01*
X40472881Y-105507583D01*
X40357084Y-104849666D01*
X40245749Y-104471743D01*
X40109694Y-104103921D01*
X39967712Y-103789885D01*
X39838598Y-103573319D01*
X39782150Y-103513251D01*
X39645012Y-103364770D01*
X39519797Y-103168040D01*
X39375290Y-102973772D01*
X39213528Y-102856905D01*
X39030353Y-102753341D01*
X38819445Y-102590057D01*
X38792132Y-102565334D01*
X38640912Y-102405190D01*
X38606369Y-102287925D01*
X38653901Y-102179117D01*
X38749527Y-101988148D01*
X38730836Y-101917189D01*
X38607055Y-101970447D01*
X38456721Y-102089229D01*
X38260623Y-102241909D01*
X38074324Y-102320918D01*
X37826878Y-102349432D01*
X37652387Y-102352000D01*
X37383002Y-102339079D01*
X37200497Y-102305363D01*
X37147334Y-102267333D01*
X37214819Y-102183068D01*
X37253167Y-102174227D01*
X37302653Y-102153981D01*
X37225154Y-102119592D01*
X37061397Y-102080311D01*
X36852107Y-102045386D01*
X36638009Y-102024065D01*
X36581881Y-102021772D01*
X36324745Y-101986058D01*
X36128515Y-101907616D01*
X36097571Y-101882808D01*
X35808568Y-101694060D01*
X35441246Y-101634855D01*
X34984355Y-101704978D01*
X34549528Y-101852942D01*
X34356259Y-101915115D01*
X34234183Y-101884183D01*
X34116619Y-101759654D01*
X33953181Y-101557817D01*
X33855741Y-101739887D01*
X33758300Y-101921957D01*
X33451335Y-101713645D01*
X33205763Y-101560303D01*
X33074787Y-101517532D01*
X33044741Y-101585347D01*
X33082194Y-101714002D01*
X33121269Y-101901465D01*
X33049733Y-101961950D01*
X32870254Y-101894338D01*
X32781718Y-101839737D01*
X32518771Y-101726964D01*
X32212516Y-101678585D01*
X31938351Y-101702024D01*
X31831739Y-101746166D01*
X31817942Y-101812092D01*
X31966747Y-101893081D01*
X32061766Y-101926829D01*
X32285758Y-102023889D01*
X32343904Y-102105312D01*
X32239584Y-102161452D01*
X31976178Y-102182663D01*
X31972104Y-102182666D01*
X31622607Y-102221155D01*
X31321888Y-102355537D01*
X31030167Y-102589852D01*
X30851675Y-102774373D01*
X30813014Y-102863540D01*
X30913481Y-102856469D01*
X31152377Y-102752276D01*
X31157167Y-102749891D01*
X31402878Y-102661972D01*
X31709862Y-102599413D01*
X32032338Y-102565139D01*
X32324525Y-102562078D01*
X32540641Y-102593153D01*
X32633336Y-102655555D01*
X32582846Y-102741727D01*
X32418846Y-102853598D01*
X32317589Y-102904021D01*
X31935831Y-103144289D01*
X31682970Y-103475940D01*
X31557053Y-103823553D01*
X31491635Y-104009191D01*
X31362617Y-104314647D01*
X31183913Y-104709190D01*
X30969435Y-105162086D01*
X30737168Y-105634484D01*
X30483345Y-106143603D01*
X30295465Y-106531584D01*
X30162902Y-106828324D01*
X30075031Y-107063717D01*
X30021224Y-107267661D01*
X29990855Y-107470049D01*
X29973299Y-107700778D01*
X29967962Y-107798568D01*
X29953669Y-108151593D01*
X29808366Y-108151593D01*
X29806952Y-108137893D01*
X29791936Y-107767543D01*
X29826484Y-107413255D01*
X29920611Y-107038910D01*
X30084333Y-106608389D01*
X30327667Y-106085571D01*
X30436209Y-105868746D01*
X30703007Y-105341987D01*
X30904482Y-104940786D01*
X31052244Y-104639854D01*
X31157900Y-104413898D01*
X31233060Y-104237629D01*
X31289331Y-104085755D01*
X31338323Y-103932987D01*
X31363974Y-103847498D01*
X31526144Y-103408241D01*
X31723732Y-103096832D01*
X31983902Y-102871990D01*
X32021377Y-102848403D01*
X32279000Y-102691299D01*
X31982667Y-102692842D01*
X31621803Y-102754056D01*
X31203947Y-102918918D01*
X30784210Y-103164159D01*
X30669796Y-103247150D01*
X30472471Y-103372923D01*
X30381177Y-103372425D01*
X30396139Y-103251587D01*
X30517581Y-103016344D01*
X30653148Y-102805744D01*
X31020263Y-102397866D01*
X31351648Y-102182838D01*
X31771000Y-101971343D01*
X31474667Y-101922567D01*
X31178334Y-101873792D01*
X31601667Y-101682055D01*
X31987842Y-101548101D01*
X32352688Y-101521955D01*
X32419456Y-101526989D01*
X32661599Y-101538972D01*
X32766951Y-101511086D01*
X32770231Y-101449830D01*
X32794304Y-101360046D01*
X32942113Y-101339778D01*
X33183359Y-101388212D01*
X33401889Y-101466828D01*
X33609703Y-101544309D01*
X33723931Y-101547652D01*
X33803228Y-101476856D01*
X33810670Y-101466828D01*
X33932798Y-101362261D01*
X34050477Y-101339101D01*
X34099334Y-101404484D01*
G36*
X33607955Y-107987219D02*
G01*
X33796496Y-108089485D01*
X33813578Y-108102527D01*
X33978312Y-108215840D01*
X34086252Y-108222880D01*
X34182567Y-108152963D01*
X34389879Y-108034858D01*
X34570553Y-108083261D01*
X34654676Y-108172833D01*
X34738117Y-108262355D01*
X34824932Y-108249487D01*
X34971741Y-108124915D01*
X34977202Y-108119788D01*
X35164489Y-107998648D01*
X35335774Y-107972085D01*
X35441260Y-108041776D01*
X35454000Y-108103730D01*
X35394660Y-108238184D01*
X35248787Y-108422751D01*
X35064602Y-108607998D01*
X34890326Y-108744492D01*
X34789063Y-108785370D01*
X34592821Y-108739696D01*
X34526654Y-108706256D01*
X34356375Y-108664127D01*
X34167376Y-108675691D01*
X33954421Y-108666197D01*
X33737331Y-108576628D01*
X33545239Y-108436059D01*
X33407280Y-108273564D01*
X33352586Y-108118220D01*
X33410290Y-107999101D01*
X33461844Y-107971572D01*
X33607955Y-107987219D01*
G37*
X33607955Y-107987219D02*
X33796496Y-108089485D01*
X33813578Y-108102527D01*
X33978312Y-108215840D01*
X34086252Y-108222880D01*
X34182567Y-108152963D01*
X34389879Y-108034858D01*
X34570553Y-108083261D01*
X34654676Y-108172833D01*
X34738117Y-108262355D01*
X34824932Y-108249487D01*
X34971741Y-108124915D01*
X34977202Y-108119788D01*
X35164489Y-107998648D01*
X35335774Y-107972085D01*
X35441260Y-108041776D01*
X35454000Y-108103730D01*
X35394660Y-108238184D01*
X35248787Y-108422751D01*
X35064602Y-108607998D01*
X34890326Y-108744492D01*
X34789063Y-108785370D01*
X34592821Y-108739696D01*
X34526654Y-108706256D01*
X34356375Y-108664127D01*
X34167376Y-108675691D01*
X33954421Y-108666197D01*
X33737331Y-108576628D01*
X33545239Y-108436059D01*
X33407280Y-108273564D01*
X33352586Y-108118220D01*
X33410290Y-107999101D01*
X33461844Y-107971572D01*
X33607955Y-107987219D01*
G36*
X32772368Y-106652017D02*
G01*
X32710002Y-106819796D01*
X32660000Y-106924000D01*
X32529906Y-107161260D01*
X32461391Y-107250773D01*
X32460947Y-107192480D01*
X32535068Y-106986326D01*
X32560454Y-106924861D01*
X32660703Y-106718491D01*
X32745250Y-106598477D01*
X32767554Y-106586194D01*
X32772368Y-106652017D01*
G37*
X32772368Y-106652017D02*
X32710002Y-106819796D01*
X32660000Y-106924000D01*
X32529906Y-107161260D01*
X32461391Y-107250773D01*
X32460947Y-107192480D01*
X32535068Y-106986326D01*
X32560454Y-106924861D01*
X32660703Y-106718491D01*
X32745250Y-106598477D01*
X32767554Y-106586194D01*
X32772368Y-106652017D01*
G36*
X33080741Y-106966333D02*
G01*
X33038584Y-107105472D01*
X32998667Y-107178000D01*
X32931579Y-107245769D01*
X32916593Y-107220333D01*
X32958749Y-107081194D01*
X32998667Y-107008666D01*
X33065754Y-106940897D01*
X33080741Y-106966333D01*
G37*
X33080741Y-106966333D02*
X33038584Y-107105472D01*
X32998667Y-107178000D01*
X32931579Y-107245769D01*
X32916593Y-107220333D01*
X32958749Y-107081194D01*
X32998667Y-107008666D01*
X33065754Y-106940897D01*
X33080741Y-106966333D01*
G36*
X32190289Y-106751684D02*
G01*
X32129818Y-106893112D01*
X32027928Y-107057179D01*
X31914766Y-107156414D01*
X31831660Y-107163057D01*
X31813334Y-107105696D01*
X31866021Y-107001240D01*
X31995731Y-106837276D01*
X32025000Y-106805001D01*
X32174619Y-106651882D01*
X32226815Y-106631671D01*
X32190289Y-106751684D01*
G37*
X32190289Y-106751684D02*
X32129818Y-106893112D01*
X32027928Y-107057179D01*
X31914766Y-107156414D01*
X31831660Y-107163057D01*
X31813334Y-107105696D01*
X31866021Y-107001240D01*
X31995731Y-106837276D01*
X32025000Y-106805001D01*
X32174619Y-106651882D01*
X32226815Y-106631671D01*
X32190289Y-106751684D01*
G36*
X32484666Y-106712333D02*
G01*
X32445791Y-106842378D01*
X32363667Y-107008666D01*
X32279424Y-107132000D01*
X32242722Y-107138121D01*
X32242667Y-107135666D01*
X32281542Y-107005621D01*
X32363667Y-106839333D01*
X32447909Y-106715999D01*
X32484612Y-106709878D01*
X32484666Y-106712333D01*
G37*
X32484666Y-106712333D02*
X32445791Y-106842378D01*
X32363667Y-107008666D01*
X32279424Y-107132000D01*
X32242722Y-107138121D01*
X32242667Y-107135666D01*
X32281542Y-107005621D01*
X32363667Y-106839333D01*
X32447909Y-106715999D01*
X32484612Y-106709878D01*
X32484666Y-106712333D01*
G36*
X32998667Y-106724373D02*
G01*
X32950266Y-106848646D01*
X32866996Y-106971317D01*
X32779462Y-107075402D01*
X32779310Y-107046943D01*
X32836131Y-106924000D01*
X32937169Y-106726263D01*
X32987268Y-106671210D01*
X32998667Y-106724373D01*
G37*
X32998667Y-106724373D02*
X32950266Y-106848646D01*
X32866996Y-106971317D01*
X32779462Y-107075402D01*
X32779310Y-107046943D01*
X32836131Y-106924000D01*
X32937169Y-106726263D01*
X32987268Y-106671210D01*
X32998667Y-106724373D01*
G36*
X35766104Y-106978690D02*
G01*
X35750334Y-107008666D01*
X35670559Y-107089523D01*
X35655673Y-107093333D01*
X35649897Y-107038643D01*
X35665667Y-107008666D01*
X35745441Y-106927809D01*
X35760327Y-106924000D01*
X35766104Y-106978690D01*
G37*
X35766104Y-106978690D02*
X35750334Y-107008666D01*
X35670559Y-107089523D01*
X35655673Y-107093333D01*
X35649897Y-107038643D01*
X35665667Y-107008666D01*
X35745441Y-106927809D01*
X35760327Y-106924000D01*
X35766104Y-106978690D01*
G36*
X36297554Y-106543000D02*
G01*
X36248409Y-106656914D01*
X36123645Y-106833626D01*
X36084104Y-106881666D01*
X35971165Y-107000141D01*
X35936631Y-107004182D01*
X35951321Y-106966333D01*
X36060036Y-106775813D01*
X36175406Y-106616999D01*
X36265217Y-106529278D01*
X36297554Y-106543000D01*
G37*
X36297554Y-106543000D02*
X36248409Y-106656914D01*
X36123645Y-106833626D01*
X36084104Y-106881666D01*
X35971165Y-107000141D01*
X35936631Y-107004182D01*
X35951321Y-106966333D01*
X36060036Y-106775813D01*
X36175406Y-106616999D01*
X36265217Y-106529278D01*
X36297554Y-106543000D01*
G36*
X36510575Y-106642415D02*
G01*
X36477616Y-106712333D01*
X36347752Y-106943107D01*
X36255820Y-107060815D01*
X36217558Y-107045695D01*
X36217297Y-107039213D01*
X36267781Y-106911943D01*
X36390114Y-106742879D01*
X36497284Y-106627889D01*
X36510575Y-106642415D01*
G37*
X36510575Y-106642415D02*
X36477616Y-106712333D01*
X36347752Y-106943107D01*
X36255820Y-107060815D01*
X36217558Y-107045695D01*
X36217297Y-107039213D01*
X36267781Y-106911943D01*
X36390114Y-106742879D01*
X36497284Y-106627889D01*
X36510575Y-106642415D01*
G36*
X36921902Y-106608226D02*
G01*
X36911539Y-106628613D01*
X36781510Y-106810107D01*
X36626009Y-106966674D01*
X36506032Y-107065643D01*
X36490828Y-107063712D01*
X36582131Y-106948571D01*
X36638065Y-106881060D01*
X36830134Y-106651855D01*
X36931035Y-106539607D01*
X36956410Y-106529877D01*
X36921902Y-106608226D01*
G37*
X36921902Y-106608226D02*
X36911539Y-106628613D01*
X36781510Y-106810107D01*
X36626009Y-106966674D01*
X36506032Y-107065643D01*
X36490828Y-107063712D01*
X36582131Y-106948571D01*
X36638065Y-106881060D01*
X36830134Y-106651855D01*
X36931035Y-106539607D01*
X36956410Y-106529877D01*
X36921902Y-106608226D01*
G36*
X37193024Y-106650774D02*
G01*
X37119405Y-106811137D01*
X37105000Y-106839333D01*
X36993126Y-107011731D01*
X36895960Y-107092497D01*
X36888625Y-107093333D01*
X36877652Y-107035112D01*
X36955468Y-106890254D01*
X36991388Y-106839333D01*
X37119890Y-106674792D01*
X37200340Y-106588909D01*
X37207763Y-106585333D01*
X37193024Y-106650774D01*
G37*
X37193024Y-106650774D02*
X37119405Y-106811137D01*
X37105000Y-106839333D01*
X36993126Y-107011731D01*
X36895960Y-107092497D01*
X36888625Y-107093333D01*
X36877652Y-107035112D01*
X36955468Y-106890254D01*
X36991388Y-106839333D01*
X37119890Y-106674792D01*
X37200340Y-106588909D01*
X37207763Y-106585333D01*
X37193024Y-106650774D01*
G36*
X34098165Y-106822045D02*
G01*
X34129951Y-106881666D01*
X34116942Y-106990894D01*
X34054343Y-107008666D01*
X33944412Y-106940834D01*
X33930000Y-106881666D01*
X33970906Y-106768925D01*
X34005608Y-106754666D01*
X34098165Y-106822045D01*
G37*
X34098165Y-106822045D02*
X34129951Y-106881666D01*
X34116942Y-106990894D01*
X34054343Y-107008666D01*
X33944412Y-106940834D01*
X33930000Y-106881666D01*
X33970906Y-106768925D01*
X34005608Y-106754666D01*
X34098165Y-106822045D01*
G36*
X34781139Y-106881666D02*
G01*
X34715553Y-106968880D01*
X34644388Y-106995585D01*
X34540547Y-106974652D01*
X34541138Y-106910919D01*
X34625421Y-106814779D01*
X34732610Y-106806727D01*
X34781139Y-106881666D01*
G37*
X34781139Y-106881666D02*
X34715553Y-106968880D01*
X34644388Y-106995585D01*
X34540547Y-106974652D01*
X34541138Y-106910919D01*
X34625421Y-106814779D01*
X34732610Y-106806727D01*
X34781139Y-106881666D01*
G36*
X34151984Y-104780674D02*
G01*
X34253207Y-104895174D01*
X34254877Y-105093578D01*
X34176794Y-105339670D01*
X34038759Y-105597234D01*
X33860573Y-105830055D01*
X33662034Y-106001916D01*
X33462944Y-106076602D01*
X33443062Y-106077333D01*
X33254380Y-106019260D01*
X33040875Y-105875134D01*
X32992154Y-105829846D01*
X32811271Y-105594635D01*
X32747104Y-105331741D01*
X32744667Y-105246237D01*
X32773902Y-104995399D01*
X32853838Y-104868701D01*
X32861350Y-104865341D01*
X33019791Y-104877397D01*
X33130888Y-105024055D01*
X33168000Y-105244621D01*
X33232639Y-105474332D01*
X33336906Y-105569104D01*
X33461331Y-105607520D01*
X33564645Y-105542701D01*
X33675256Y-105381583D01*
X33785583Y-105179225D01*
X33842798Y-105032499D01*
X33845017Y-105014766D01*
X33911197Y-104862218D01*
X34056389Y-104775322D01*
X34151984Y-104780674D01*
G37*
X34151984Y-104780674D02*
X34253207Y-104895174D01*
X34254877Y-105093578D01*
X34176794Y-105339670D01*
X34038759Y-105597234D01*
X33860573Y-105830055D01*
X33662034Y-106001916D01*
X33462944Y-106076602D01*
X33443062Y-106077333D01*
X33254380Y-106019260D01*
X33040875Y-105875134D01*
X32992154Y-105829846D01*
X32811271Y-105594635D01*
X32747104Y-105331741D01*
X32744667Y-105246237D01*
X32773902Y-104995399D01*
X32853838Y-104868701D01*
X32861350Y-104865341D01*
X33019791Y-104877397D01*
X33130888Y-105024055D01*
X33168000Y-105244621D01*
X33232639Y-105474332D01*
X33336906Y-105569104D01*
X33461331Y-105607520D01*
X33564645Y-105542701D01*
X33675256Y-105381583D01*
X33785583Y-105179225D01*
X33842798Y-105032499D01*
X33845017Y-105014766D01*
X33911197Y-104862218D01*
X34056389Y-104775322D01*
X34151984Y-104780674D01*
G36*
X36483356Y-104912182D02*
G01*
X36539184Y-105129804D01*
X36532518Y-105321495D01*
X36451410Y-105495007D01*
X36267631Y-105706617D01*
X36231644Y-105742944D01*
X35923242Y-105989683D01*
X35653330Y-106072899D01*
X35418743Y-105993194D01*
X35332947Y-105914571D01*
X35221070Y-105711936D01*
X35152274Y-105439704D01*
X35138104Y-105171867D01*
X35187981Y-104985495D01*
X35312699Y-104902053D01*
X35441193Y-104951355D01*
X35527271Y-105104352D01*
X35539963Y-105206842D01*
X35563647Y-105419562D01*
X35607654Y-105546862D01*
X35714961Y-105596319D01*
X35860055Y-105521843D01*
X36008613Y-105352716D01*
X36126310Y-105118216D01*
X36132954Y-105098755D01*
X36247778Y-104880507D01*
X36375018Y-104819114D01*
X36483356Y-104912182D01*
G37*
X36483356Y-104912182D02*
X36539184Y-105129804D01*
X36532518Y-105321495D01*
X36451410Y-105495007D01*
X36267631Y-105706617D01*
X36231644Y-105742944D01*
X35923242Y-105989683D01*
X35653330Y-106072899D01*
X35418743Y-105993194D01*
X35332947Y-105914571D01*
X35221070Y-105711936D01*
X35152274Y-105439704D01*
X35138104Y-105171867D01*
X35187981Y-104985495D01*
X35312699Y-104902053D01*
X35441193Y-104951355D01*
X35527271Y-105104352D01*
X35539963Y-105206842D01*
X35563647Y-105419562D01*
X35607654Y-105546862D01*
X35714961Y-105596319D01*
X35860055Y-105521843D01*
X36008613Y-105352716D01*
X36126310Y-105118216D01*
X36132954Y-105098755D01*
X36247778Y-104880507D01*
X36375018Y-104819114D01*
X36483356Y-104912182D01*
G36*
X35500843Y-103654628D02*
G01*
X35792182Y-103800116D01*
X35843055Y-103833666D01*
X36249231Y-104016174D01*
X36502982Y-104046629D01*
X36833539Y-104078552D01*
X37014826Y-104169313D01*
X37041262Y-104315908D01*
X37035328Y-104333121D01*
X36956969Y-104415309D01*
X36779022Y-104457533D01*
X36492694Y-104468666D01*
X36181686Y-104453221D01*
X35938903Y-104389424D01*
X35682140Y-104251082D01*
X35561501Y-104171967D01*
X35289216Y-103964676D01*
X35170707Y-103811809D01*
X35169523Y-103748634D01*
X35288650Y-103636882D01*
X35500843Y-103654628D01*
G37*
X35500843Y-103654628D02*
X35792182Y-103800116D01*
X35843055Y-103833666D01*
X36249231Y-104016174D01*
X36502982Y-104046629D01*
X36833539Y-104078552D01*
X37014826Y-104169313D01*
X37041262Y-104315908D01*
X37035328Y-104333121D01*
X36956969Y-104415309D01*
X36779022Y-104457533D01*
X36492694Y-104468666D01*
X36181686Y-104453221D01*
X35938903Y-104389424D01*
X35682140Y-104251082D01*
X35561501Y-104171967D01*
X35289216Y-103964676D01*
X35170707Y-103811809D01*
X35169523Y-103748634D01*
X35288650Y-103636882D01*
X35500843Y-103654628D01*
G36*
X34627382Y-103439441D02*
G01*
X34634542Y-103446008D01*
X34686112Y-103588968D01*
X34577089Y-103744131D01*
X34315075Y-103904128D01*
X34048780Y-104013594D01*
X33545658Y-104175822D01*
X33159840Y-104259534D01*
X32901436Y-104263374D01*
X32780555Y-104185988D01*
X32779684Y-104183798D01*
X32765645Y-104014749D01*
X32888430Y-103900089D01*
X33149804Y-103827144D01*
X33397195Y-103765940D01*
X33722773Y-103662792D01*
X34001445Y-103560876D01*
X34319276Y-103447797D01*
X34517891Y-103409139D01*
X34627382Y-103439441D01*
G37*
X34627382Y-103439441D02*
X34634542Y-103446008D01*
X34686112Y-103588968D01*
X34577089Y-103744131D01*
X34315075Y-103904128D01*
X34048780Y-104013594D01*
X33545658Y-104175822D01*
X33159840Y-104259534D01*
X32901436Y-104263374D01*
X32780555Y-104185988D01*
X32779684Y-104183798D01*
X32765645Y-104014749D01*
X32888430Y-103900089D01*
X33149804Y-103827144D01*
X33397195Y-103765940D01*
X33722773Y-103662792D01*
X34001445Y-103560876D01*
X34319276Y-103447797D01*
X34517891Y-103409139D01*
X34627382Y-103439441D01*
D15*
X28950000Y-105760000D02*
X25450000Y-105760000D01*
X28950000Y-102605000D02*
X28950000Y-108760000D01*
X36400000Y-102605000D02*
X28950000Y-102605000D01*
X36400000Y-59105000D02*
X36400000Y-102605000D01*
X28950000Y-59105000D02*
X36400000Y-59105000D01*
X28950000Y-59105000D02*
X28950000Y-53490000D01*
X25450000Y-56490000D02*
X28950000Y-56490000D01*
X25450000Y-108760000D02*
X25450000Y-53490000D01*
X28950000Y-108760000D02*
X25450000Y-108760000D01*
X25450000Y-53490000D02*
X28950000Y-53490000D01*
X28947880Y-105759700D02*
X25455380Y-108746740D01*
X25442680Y-105767320D02*
X28945340Y-108756900D01*
X28940260Y-53500720D02*
X25460460Y-56472520D01*
X25457920Y-53508340D02*
X28925020Y-56475060D01*
D11*
X59900000Y-55600000D02*
X69900000Y-55600000D01*
X59900000Y-66000000D02*
X59900000Y-55600000D01*
X69900000Y-66000000D02*
X59900000Y-66000000D01*
X69900000Y-55600000D02*
X69900000Y-66000000D01*
X59700000Y-85400000D02*
X69700000Y-85400000D01*
X59700000Y-95800000D02*
X59700000Y-85400000D01*
X69700000Y-95800000D02*
X59700000Y-95800000D01*
X69700000Y-85400000D02*
X69700000Y-95800000D01*
X59700000Y-98420000D02*
X69700000Y-98420000D01*
X59700000Y-108820000D02*
X59700000Y-98420000D01*
X69700000Y-108820000D02*
X59700000Y-108820000D01*
X69700000Y-98420000D02*
X69700000Y-108820000D01*
X43441250Y-42856250D02*
X42653750Y-42856250D01*
X43047500Y-42462500D02*
X43047500Y-43250000D01*
X38854437Y-43490000D02*
X37790000Y-44554437D01*
X43545563Y-43490000D02*
X44610000Y-44554437D01*
X43545563Y-43490000D02*
X42260000Y-43490000D01*
X38854437Y-43490000D02*
X40140000Y-43490000D01*
X37790000Y-44554437D02*
X37790000Y-50310000D01*
X44610000Y-44554437D02*
X44610000Y-50310000D01*
X44610000Y-50310000D02*
X42260000Y-50310000D01*
X37790000Y-50310000D02*
X40140000Y-50310000D01*
D15*
X14890000Y-58600000D02*
X29470000Y-58600000D01*
X14890000Y-89400000D02*
X14890000Y-58600000D01*
X29470000Y-89400000D02*
X14890000Y-89400000D01*
X29470000Y-89400000D02*
X29470000Y-58600000D01*
D11*
X45000000Y-62340000D02*
X41550000Y-62340000D01*
X45000000Y-62340000D02*
X46950000Y-62340000D01*
X45000000Y-67460000D02*
X43050000Y-67460000D01*
X45000000Y-67460000D02*
X46950000Y-67460000D01*
D15*
X40302380Y-98911904D02*
X41111904Y-98911904D01*
X41207142Y-98864285D01*
X41254761Y-98816666D01*
X41302380Y-98721428D01*
X41302380Y-98530952D01*
X41254761Y-98435714D01*
X41207142Y-98388095D01*
X41111904Y-98340476D01*
X40302380Y-98340476D01*
X40635714Y-97435714D02*
X41302380Y-97435714D01*
X40254761Y-97673809D02*
X40969047Y-97911904D01*
X40969047Y-97292857D01*
X50952380Y-94859523D02*
X51952380Y-94192857D01*
X50952380Y-94192857D02*
X51952380Y-94859523D01*
X51952380Y-93288095D02*
X51952380Y-93859523D01*
X51952380Y-93573809D02*
X50952380Y-93573809D01*
X51095238Y-93669047D01*
X51190476Y-93764285D01*
X51238095Y-93859523D01*
X48608571Y-45933333D02*
X48608571Y-46266666D01*
X49132380Y-46266666D02*
X48132380Y-46266666D01*
X48132380Y-45790476D01*
X48608571Y-45076190D02*
X48656190Y-44933333D01*
X48703809Y-44885714D01*
X48799047Y-44838095D01*
X48941904Y-44838095D01*
X49037142Y-44885714D01*
X49084761Y-44933333D01*
X49132380Y-45028571D01*
X49132380Y-45409523D01*
X48132380Y-45409523D01*
X48132380Y-45076190D01*
X48180000Y-44980952D01*
X48227619Y-44933333D01*
X48322857Y-44885714D01*
X48418095Y-44885714D01*
X48513333Y-44933333D01*
X48560952Y-44980952D01*
X48608571Y-45076190D01*
X48608571Y-45409523D01*
X48227619Y-44457142D02*
X48180000Y-44409523D01*
X48132380Y-44314285D01*
X48132380Y-44076190D01*
X48180000Y-43980952D01*
X48227619Y-43933333D01*
X48322857Y-43885714D01*
X48418095Y-43885714D01*
X48560952Y-43933333D01*
X49132380Y-44504761D01*
X49132380Y-43885714D01*
X54857142Y-71652380D02*
X54523809Y-71176190D01*
X54285714Y-71652380D02*
X54285714Y-70652380D01*
X54666666Y-70652380D01*
X54761904Y-70700000D01*
X54809523Y-70747619D01*
X54857142Y-70842857D01*
X54857142Y-70985714D01*
X54809523Y-71080952D01*
X54761904Y-71128571D01*
X54666666Y-71176190D01*
X54285714Y-71176190D01*
X55809523Y-71652380D02*
X55238095Y-71652380D01*
X55523809Y-71652380D02*
X55523809Y-70652380D01*
X55428571Y-70795238D01*
X55333333Y-70890476D01*
X55238095Y-70938095D01*
X56666666Y-70985714D02*
X56666666Y-71652380D01*
X56428571Y-70604761D02*
X56190476Y-71319047D01*
X56809523Y-71319047D01*
X52947142Y-43802380D02*
X52613809Y-43326190D01*
X52375714Y-43802380D02*
X52375714Y-42802380D01*
X52756666Y-42802380D01*
X52851904Y-42850000D01*
X52899523Y-42897619D01*
X52947142Y-42992857D01*
X52947142Y-43135714D01*
X52899523Y-43230952D01*
X52851904Y-43278571D01*
X52756666Y-43326190D01*
X52375714Y-43326190D01*
X53328095Y-42897619D02*
X53375714Y-42850000D01*
X53470952Y-42802380D01*
X53709047Y-42802380D01*
X53804285Y-42850000D01*
X53851904Y-42897619D01*
X53899523Y-42992857D01*
X53899523Y-43088095D01*
X53851904Y-43230952D01*
X53280476Y-43802380D01*
X53899523Y-43802380D01*
X54280476Y-42897619D02*
X54328095Y-42850000D01*
X54423333Y-42802380D01*
X54661428Y-42802380D01*
X54756666Y-42850000D01*
X54804285Y-42897619D01*
X54851904Y-42992857D01*
X54851904Y-43088095D01*
X54804285Y-43230952D01*
X54232857Y-43802380D01*
X54851904Y-43802380D01*
X57261904Y-47102380D02*
X57261904Y-46102380D01*
X57500000Y-46102380D01*
X57642857Y-46150000D01*
X57738095Y-46245238D01*
X57785714Y-46340476D01*
X57833333Y-46530952D01*
X57833333Y-46673809D01*
X57785714Y-46864285D01*
X57738095Y-46959523D01*
X57642857Y-47054761D01*
X57500000Y-47102380D01*
X57261904Y-47102380D01*
X58785714Y-47102380D02*
X58214285Y-47102380D01*
X58500000Y-47102380D02*
X58500000Y-46102380D01*
X58404761Y-46245238D01*
X58309523Y-46340476D01*
X58214285Y-46388095D01*
X53057142Y-87802380D02*
X52723809Y-87326190D01*
X52485714Y-87802380D02*
X52485714Y-86802380D01*
X52866666Y-86802380D01*
X52961904Y-86850000D01*
X53009523Y-86897619D01*
X53057142Y-86992857D01*
X53057142Y-87135714D01*
X53009523Y-87230952D01*
X52961904Y-87278571D01*
X52866666Y-87326190D01*
X52485714Y-87326190D01*
X53438095Y-86897619D02*
X53485714Y-86850000D01*
X53580952Y-86802380D01*
X53819047Y-86802380D01*
X53914285Y-86850000D01*
X53961904Y-86897619D01*
X54009523Y-86992857D01*
X54009523Y-87088095D01*
X53961904Y-87230952D01*
X53390476Y-87802380D01*
X54009523Y-87802380D01*
X54961904Y-87802380D02*
X54390476Y-87802380D01*
X54676190Y-87802380D02*
X54676190Y-86802380D01*
X54580952Y-86945238D01*
X54485714Y-87040476D01*
X54390476Y-87088095D01*
X31166666Y-41748571D02*
X30833333Y-41748571D01*
X30833333Y-42272380D02*
X30833333Y-41272380D01*
X31309523Y-41272380D01*
X32023809Y-41748571D02*
X32166666Y-41796190D01*
X32214285Y-41843809D01*
X32261904Y-41939047D01*
X32261904Y-42081904D01*
X32214285Y-42177142D01*
X32166666Y-42224761D01*
X32071428Y-42272380D01*
X31690476Y-42272380D01*
X31690476Y-41272380D01*
X32023809Y-41272380D01*
X32119047Y-41320000D01*
X32166666Y-41367619D01*
X32214285Y-41462857D01*
X32214285Y-41558095D01*
X32166666Y-41653333D01*
X32119047Y-41700952D01*
X32023809Y-41748571D01*
X31690476Y-41748571D01*
X33214285Y-42272380D02*
X32642857Y-42272380D01*
X32928571Y-42272380D02*
X32928571Y-41272380D01*
X32833333Y-41415238D01*
X32738095Y-41510476D01*
X32642857Y-41558095D01*
X61357142Y-47007142D02*
X61309523Y-47054761D01*
X61166666Y-47102380D01*
X61071428Y-47102380D01*
X60928571Y-47054761D01*
X60833333Y-46959523D01*
X60785714Y-46864285D01*
X60738095Y-46673809D01*
X60738095Y-46530952D01*
X60785714Y-46340476D01*
X60833333Y-46245238D01*
X60928571Y-46150000D01*
X61071428Y-46102380D01*
X61166666Y-46102380D01*
X61309523Y-46150000D01*
X61357142Y-46197619D01*
X62309523Y-47102380D02*
X61738095Y-47102380D01*
X62023809Y-47102380D02*
X62023809Y-46102380D01*
X61928571Y-46245238D01*
X61833333Y-46340476D01*
X61738095Y-46388095D01*
X62690476Y-46197619D02*
X62738095Y-46150000D01*
X62833333Y-46102380D01*
X63071428Y-46102380D01*
X63166666Y-46150000D01*
X63214285Y-46197619D01*
X63261904Y-46292857D01*
X63261904Y-46388095D01*
X63214285Y-46530952D01*
X62642857Y-47102380D01*
X63261904Y-47102380D01*
X50057142Y-98142857D02*
X50104761Y-98190476D01*
X50152380Y-98333333D01*
X50152380Y-98428571D01*
X50104761Y-98571428D01*
X50009523Y-98666666D01*
X49914285Y-98714285D01*
X49723809Y-98761904D01*
X49580952Y-98761904D01*
X49390476Y-98714285D01*
X49295238Y-98666666D01*
X49200000Y-98571428D01*
X49152380Y-98428571D01*
X49152380Y-98333333D01*
X49200000Y-98190476D01*
X49247619Y-98142857D01*
X50152380Y-97190476D02*
X50152380Y-97761904D01*
X50152380Y-97476190D02*
X49152380Y-97476190D01*
X49295238Y-97571428D01*
X49390476Y-97666666D01*
X49438095Y-97761904D01*
X50152380Y-96238095D02*
X50152380Y-96809523D01*
X50152380Y-96523809D02*
X49152380Y-96523809D01*
X49295238Y-96619047D01*
X49390476Y-96714285D01*
X49438095Y-96809523D01*
X49037142Y-49292857D02*
X49084761Y-49340476D01*
X49132380Y-49483333D01*
X49132380Y-49578571D01*
X49084761Y-49721428D01*
X48989523Y-49816666D01*
X48894285Y-49864285D01*
X48703809Y-49911904D01*
X48560952Y-49911904D01*
X48370476Y-49864285D01*
X48275238Y-49816666D01*
X48180000Y-49721428D01*
X48132380Y-49578571D01*
X48132380Y-49483333D01*
X48180000Y-49340476D01*
X48227619Y-49292857D01*
X49132380Y-48340476D02*
X49132380Y-48911904D01*
X49132380Y-48626190D02*
X48132380Y-48626190D01*
X48275238Y-48721428D01*
X48370476Y-48816666D01*
X48418095Y-48911904D01*
X48132380Y-47721428D02*
X48132380Y-47626190D01*
X48180000Y-47530952D01*
X48227619Y-47483333D01*
X48322857Y-47435714D01*
X48513333Y-47388095D01*
X48751428Y-47388095D01*
X48941904Y-47435714D01*
X49037142Y-47483333D01*
X49084761Y-47530952D01*
X49132380Y-47626190D01*
X49132380Y-47721428D01*
X49084761Y-47816666D01*
X49037142Y-47864285D01*
X48941904Y-47911904D01*
X48751428Y-47959523D01*
X48513333Y-47959523D01*
X48322857Y-47911904D01*
X48227619Y-47864285D01*
X48180000Y-47816666D01*
X48132380Y-47721428D01*
X55833333Y-89057142D02*
X55785714Y-89104761D01*
X55642857Y-89152380D01*
X55547619Y-89152380D01*
X55404761Y-89104761D01*
X55309523Y-89009523D01*
X55261904Y-88914285D01*
X55214285Y-88723809D01*
X55214285Y-88580952D01*
X55261904Y-88390476D01*
X55309523Y-88295238D01*
X55404761Y-88200000D01*
X55547619Y-88152380D01*
X55642857Y-88152380D01*
X55785714Y-88200000D01*
X55833333Y-88247619D01*
X56404761Y-88580952D02*
X56309523Y-88533333D01*
X56261904Y-88485714D01*
X56214285Y-88390476D01*
X56214285Y-88342857D01*
X56261904Y-88247619D01*
X56309523Y-88200000D01*
X56404761Y-88152380D01*
X56595238Y-88152380D01*
X56690476Y-88200000D01*
X56738095Y-88247619D01*
X56785714Y-88342857D01*
X56785714Y-88390476D01*
X56738095Y-88485714D01*
X56690476Y-88533333D01*
X56595238Y-88580952D01*
X56404761Y-88580952D01*
X56309523Y-88628571D01*
X56261904Y-88676190D01*
X56214285Y-88771428D01*
X56214285Y-88961904D01*
X56261904Y-89057142D01*
X56309523Y-89104761D01*
X56404761Y-89152380D01*
X56595238Y-89152380D01*
X56690476Y-89104761D01*
X56738095Y-89057142D01*
X56785714Y-88961904D01*
X56785714Y-88771428D01*
X56738095Y-88676190D01*
X56690476Y-88628571D01*
X56595238Y-88580952D01*
X39837142Y-89066666D02*
X39884761Y-89114285D01*
X39932380Y-89257142D01*
X39932380Y-89352380D01*
X39884761Y-89495238D01*
X39789523Y-89590476D01*
X39694285Y-89638095D01*
X39503809Y-89685714D01*
X39360952Y-89685714D01*
X39170476Y-89638095D01*
X39075238Y-89590476D01*
X38980000Y-89495238D01*
X38932380Y-89352380D01*
X38932380Y-89257142D01*
X38980000Y-89114285D01*
X39027619Y-89066666D01*
X38932380Y-88733333D02*
X38932380Y-88066666D01*
X39932380Y-88495238D01*
X39837142Y-81466666D02*
X39884761Y-81514285D01*
X39932380Y-81657142D01*
X39932380Y-81752380D01*
X39884761Y-81895238D01*
X39789523Y-81990476D01*
X39694285Y-82038095D01*
X39503809Y-82085714D01*
X39360952Y-82085714D01*
X39170476Y-82038095D01*
X39075238Y-81990476D01*
X38980000Y-81895238D01*
X38932380Y-81752380D01*
X38932380Y-81657142D01*
X38980000Y-81514285D01*
X39027619Y-81466666D01*
X38932380Y-80609523D02*
X38932380Y-80800000D01*
X38980000Y-80895238D01*
X39027619Y-80942857D01*
X39170476Y-81038095D01*
X39360952Y-81085714D01*
X39741904Y-81085714D01*
X39837142Y-81038095D01*
X39884761Y-80990476D01*
X39932380Y-80895238D01*
X39932380Y-80704761D01*
X39884761Y-80609523D01*
X39837142Y-80561904D01*
X39741904Y-80514285D01*
X39503809Y-80514285D01*
X39408571Y-80561904D01*
X39360952Y-80609523D01*
X39313333Y-80704761D01*
X39313333Y-80895238D01*
X39360952Y-80990476D01*
X39408571Y-81038095D01*
X39503809Y-81085714D01*
X39757142Y-77666666D02*
X39804761Y-77714285D01*
X39852380Y-77857142D01*
X39852380Y-77952380D01*
X39804761Y-78095238D01*
X39709523Y-78190476D01*
X39614285Y-78238095D01*
X39423809Y-78285714D01*
X39280952Y-78285714D01*
X39090476Y-78238095D01*
X38995238Y-78190476D01*
X38900000Y-78095238D01*
X38852380Y-77952380D01*
X38852380Y-77857142D01*
X38900000Y-77714285D01*
X38947619Y-77666666D01*
X38852380Y-76761904D02*
X38852380Y-77238095D01*
X39328571Y-77285714D01*
X39280952Y-77238095D01*
X39233333Y-77142857D01*
X39233333Y-76904761D01*
X39280952Y-76809523D01*
X39328571Y-76761904D01*
X39423809Y-76714285D01*
X39661904Y-76714285D01*
X39757142Y-76761904D01*
X39804761Y-76809523D01*
X39852380Y-76904761D01*
X39852380Y-77142857D01*
X39804761Y-77238095D01*
X39757142Y-77285714D01*
X44833333Y-59357142D02*
X44785714Y-59404761D01*
X44642857Y-59452380D01*
X44547619Y-59452380D01*
X44404761Y-59404761D01*
X44309523Y-59309523D01*
X44261904Y-59214285D01*
X44214285Y-59023809D01*
X44214285Y-58880952D01*
X44261904Y-58690476D01*
X44309523Y-58595238D01*
X44404761Y-58500000D01*
X44547619Y-58452380D01*
X44642857Y-58452380D01*
X44785714Y-58500000D01*
X44833333Y-58547619D01*
X45690476Y-58785714D02*
X45690476Y-59452380D01*
X45452380Y-58404761D02*
X45214285Y-59119047D01*
X45833333Y-59119047D01*
X37537142Y-44766666D02*
X37584761Y-44814285D01*
X37632380Y-44957142D01*
X37632380Y-45052380D01*
X37584761Y-45195238D01*
X37489523Y-45290476D01*
X37394285Y-45338095D01*
X37203809Y-45385714D01*
X37060952Y-45385714D01*
X36870476Y-45338095D01*
X36775238Y-45290476D01*
X36680000Y-45195238D01*
X36632380Y-45052380D01*
X36632380Y-44957142D01*
X36680000Y-44814285D01*
X36727619Y-44766666D01*
X36632380Y-44433333D02*
X36632380Y-43814285D01*
X37013333Y-44147619D01*
X37013333Y-44004761D01*
X37060952Y-43909523D01*
X37108571Y-43861904D01*
X37203809Y-43814285D01*
X37441904Y-43814285D01*
X37537142Y-43861904D01*
X37584761Y-43909523D01*
X37632380Y-44004761D01*
X37632380Y-44290476D01*
X37584761Y-44385714D01*
X37537142Y-44433333D01*
X44833333Y-70687142D02*
X44785714Y-70734761D01*
X44642857Y-70782380D01*
X44547619Y-70782380D01*
X44404761Y-70734761D01*
X44309523Y-70639523D01*
X44261904Y-70544285D01*
X44214285Y-70353809D01*
X44214285Y-70210952D01*
X44261904Y-70020476D01*
X44309523Y-69925238D01*
X44404761Y-69830000D01*
X44547619Y-69782380D01*
X44642857Y-69782380D01*
X44785714Y-69830000D01*
X44833333Y-69877619D01*
X45214285Y-69877619D02*
X45261904Y-69830000D01*
X45357142Y-69782380D01*
X45595238Y-69782380D01*
X45690476Y-69830000D01*
X45738095Y-69877619D01*
X45785714Y-69972857D01*
X45785714Y-70068095D01*
X45738095Y-70210952D01*
X45166666Y-70782380D01*
X45785714Y-70782380D01*
X41537142Y-66466666D02*
X41584761Y-66514285D01*
X41632380Y-66657142D01*
X41632380Y-66752380D01*
X41584761Y-66895238D01*
X41489523Y-66990476D01*
X41394285Y-67038095D01*
X41203809Y-67085714D01*
X41060952Y-67085714D01*
X40870476Y-67038095D01*
X40775238Y-66990476D01*
X40680000Y-66895238D01*
X40632380Y-66752380D01*
X40632380Y-66657142D01*
X40680000Y-66514285D01*
X40727619Y-66466666D01*
X41632380Y-65514285D02*
X41632380Y-66085714D01*
X41632380Y-65800000D02*
X40632380Y-65800000D01*
X40775238Y-65895238D01*
X40870476Y-65990476D01*
X40918095Y-66085714D01*
X33733333Y-58102380D02*
X33400000Y-57626190D01*
X33161904Y-58102380D02*
X33161904Y-57102380D01*
X33542857Y-57102380D01*
X33638095Y-57150000D01*
X33685714Y-57197619D01*
X33733333Y-57292857D01*
X33733333Y-57435714D01*
X33685714Y-57530952D01*
X33638095Y-57578571D01*
X33542857Y-57626190D01*
X33161904Y-57626190D01*
X34638095Y-57102380D02*
X34161904Y-57102380D01*
X34114285Y-57578571D01*
X34161904Y-57530952D01*
X34257142Y-57483333D01*
X34495238Y-57483333D01*
X34590476Y-57530952D01*
X34638095Y-57578571D01*
X34685714Y-57673809D01*
X34685714Y-57911904D01*
X34638095Y-58007142D01*
X34590476Y-58054761D01*
X34495238Y-58102380D01*
X34257142Y-58102380D01*
X34161904Y-58054761D01*
X34114285Y-58007142D01*
X51657142Y-71652380D02*
X51323809Y-71176190D01*
X51085714Y-71652380D02*
X51085714Y-70652380D01*
X51466666Y-70652380D01*
X51561904Y-70700000D01*
X51609523Y-70747619D01*
X51657142Y-70842857D01*
X51657142Y-70985714D01*
X51609523Y-71080952D01*
X51561904Y-71128571D01*
X51466666Y-71176190D01*
X51085714Y-71176190D01*
X52609523Y-71652380D02*
X52038095Y-71652380D01*
X52323809Y-71652380D02*
X52323809Y-70652380D01*
X52228571Y-70795238D01*
X52133333Y-70890476D01*
X52038095Y-70938095D01*
X52942857Y-70652380D02*
X53561904Y-70652380D01*
X53228571Y-71033333D01*
X53371428Y-71033333D01*
X53466666Y-71080952D01*
X53514285Y-71128571D01*
X53561904Y-71223809D01*
X53561904Y-71461904D01*
X53514285Y-71557142D01*
X53466666Y-71604761D01*
X53371428Y-71652380D01*
X53085714Y-71652380D01*
X52990476Y-71604761D01*
X52942857Y-71557142D01*
X45552380Y-75042857D02*
X45076190Y-75376190D01*
X45552380Y-75614285D02*
X44552380Y-75614285D01*
X44552380Y-75233333D01*
X44600000Y-75138095D01*
X44647619Y-75090476D01*
X44742857Y-75042857D01*
X44885714Y-75042857D01*
X44980952Y-75090476D01*
X45028571Y-75138095D01*
X45076190Y-75233333D01*
X45076190Y-75614285D01*
X45552380Y-74090476D02*
X45552380Y-74661904D01*
X45552380Y-74376190D02*
X44552380Y-74376190D01*
X44695238Y-74471428D01*
X44790476Y-74566666D01*
X44838095Y-74661904D01*
X44647619Y-73709523D02*
X44600000Y-73661904D01*
X44552380Y-73566666D01*
X44552380Y-73328571D01*
X44600000Y-73233333D01*
X44647619Y-73185714D01*
X44742857Y-73138095D01*
X44838095Y-73138095D01*
X44980952Y-73185714D01*
X45552380Y-73757142D01*
X45552380Y-73138095D01*
X48957142Y-73652380D02*
X48623809Y-73176190D01*
X48385714Y-73652380D02*
X48385714Y-72652380D01*
X48766666Y-72652380D01*
X48861904Y-72700000D01*
X48909523Y-72747619D01*
X48957142Y-72842857D01*
X48957142Y-72985714D01*
X48909523Y-73080952D01*
X48861904Y-73128571D01*
X48766666Y-73176190D01*
X48385714Y-73176190D01*
X49909523Y-73652380D02*
X49338095Y-73652380D01*
X49623809Y-73652380D02*
X49623809Y-72652380D01*
X49528571Y-72795238D01*
X49433333Y-72890476D01*
X49338095Y-72938095D01*
X50861904Y-73652380D02*
X50290476Y-73652380D01*
X50576190Y-73652380D02*
X50576190Y-72652380D01*
X50480952Y-72795238D01*
X50385714Y-72890476D01*
X50290476Y-72938095D01*
X39902380Y-93342857D02*
X39426190Y-93676190D01*
X39902380Y-93914285D02*
X38902380Y-93914285D01*
X38902380Y-93533333D01*
X38950000Y-93438095D01*
X38997619Y-93390476D01*
X39092857Y-93342857D01*
X39235714Y-93342857D01*
X39330952Y-93390476D01*
X39378571Y-93438095D01*
X39426190Y-93533333D01*
X39426190Y-93914285D01*
X39902380Y-92390476D02*
X39902380Y-92961904D01*
X39902380Y-92676190D02*
X38902380Y-92676190D01*
X39045238Y-92771428D01*
X39140476Y-92866666D01*
X39188095Y-92961904D01*
X38902380Y-91771428D02*
X38902380Y-91676190D01*
X38950000Y-91580952D01*
X38997619Y-91533333D01*
X39092857Y-91485714D01*
X39283333Y-91438095D01*
X39521428Y-91438095D01*
X39711904Y-91485714D01*
X39807142Y-91533333D01*
X39854761Y-91580952D01*
X39902380Y-91676190D01*
X39902380Y-91771428D01*
X39854761Y-91866666D01*
X39807142Y-91914285D01*
X39711904Y-91961904D01*
X39521428Y-92009523D01*
X39283333Y-92009523D01*
X39092857Y-91961904D01*
X38997619Y-91914285D01*
X38950000Y-91866666D01*
X38902380Y-91771428D01*
X39902380Y-85266666D02*
X39426190Y-85600000D01*
X39902380Y-85838095D02*
X38902380Y-85838095D01*
X38902380Y-85457142D01*
X38950000Y-85361904D01*
X38997619Y-85314285D01*
X39092857Y-85266666D01*
X39235714Y-85266666D01*
X39330952Y-85314285D01*
X39378571Y-85361904D01*
X39426190Y-85457142D01*
X39426190Y-85838095D01*
X38902380Y-84933333D02*
X38902380Y-84266666D01*
X39902380Y-84695238D01*
X39852380Y-73866666D02*
X39376190Y-74200000D01*
X39852380Y-74438095D02*
X38852380Y-74438095D01*
X38852380Y-74057142D01*
X38900000Y-73961904D01*
X38947619Y-73914285D01*
X39042857Y-73866666D01*
X39185714Y-73866666D01*
X39280952Y-73914285D01*
X39328571Y-73961904D01*
X39376190Y-74057142D01*
X39376190Y-74438095D01*
X38852380Y-73009523D02*
X38852380Y-73200000D01*
X38900000Y-73295238D01*
X38947619Y-73342857D01*
X39090476Y-73438095D01*
X39280952Y-73485714D01*
X39661904Y-73485714D01*
X39757142Y-73438095D01*
X39804761Y-73390476D01*
X39852380Y-73295238D01*
X39852380Y-73104761D01*
X39804761Y-73009523D01*
X39757142Y-72961904D01*
X39661904Y-72914285D01*
X39423809Y-72914285D01*
X39328571Y-72961904D01*
X39280952Y-73009523D01*
X39233333Y-73104761D01*
X39233333Y-73295238D01*
X39280952Y-73390476D01*
X39328571Y-73438095D01*
X39423809Y-73485714D01*
X44833333Y-72802380D02*
X44500000Y-72326190D01*
X44261904Y-72802380D02*
X44261904Y-71802380D01*
X44642857Y-71802380D01*
X44738095Y-71850000D01*
X44785714Y-71897619D01*
X44833333Y-71992857D01*
X44833333Y-72135714D01*
X44785714Y-72230952D01*
X44738095Y-72278571D01*
X44642857Y-72326190D01*
X44261904Y-72326190D01*
X45690476Y-72135714D02*
X45690476Y-72802380D01*
X45452380Y-71754761D02*
X45214285Y-72469047D01*
X45833333Y-72469047D01*
X29433333Y-50302380D02*
X29100000Y-49826190D01*
X28861904Y-50302380D02*
X28861904Y-49302380D01*
X29242857Y-49302380D01*
X29338095Y-49350000D01*
X29385714Y-49397619D01*
X29433333Y-49492857D01*
X29433333Y-49635714D01*
X29385714Y-49730952D01*
X29338095Y-49778571D01*
X29242857Y-49826190D01*
X28861904Y-49826190D01*
X29766666Y-49302380D02*
X30385714Y-49302380D01*
X30052380Y-49683333D01*
X30195238Y-49683333D01*
X30290476Y-49730952D01*
X30338095Y-49778571D01*
X30385714Y-49873809D01*
X30385714Y-50111904D01*
X30338095Y-50207142D01*
X30290476Y-50254761D01*
X30195238Y-50302380D01*
X29909523Y-50302380D01*
X29814285Y-50254761D01*
X29766666Y-50207142D01*
X29433333Y-48302380D02*
X29100000Y-47826190D01*
X28861904Y-48302380D02*
X28861904Y-47302380D01*
X29242857Y-47302380D01*
X29338095Y-47350000D01*
X29385714Y-47397619D01*
X29433333Y-47492857D01*
X29433333Y-47635714D01*
X29385714Y-47730952D01*
X29338095Y-47778571D01*
X29242857Y-47826190D01*
X28861904Y-47826190D01*
X29814285Y-47397619D02*
X29861904Y-47350000D01*
X29957142Y-47302380D01*
X30195238Y-47302380D01*
X30290476Y-47350000D01*
X30338095Y-47397619D01*
X30385714Y-47492857D01*
X30385714Y-47588095D01*
X30338095Y-47730952D01*
X29766666Y-48302380D01*
X30385714Y-48302380D01*
X38302380Y-62466666D02*
X37826190Y-62800000D01*
X38302380Y-63038095D02*
X37302380Y-63038095D01*
X37302380Y-62657142D01*
X37350000Y-62561904D01*
X37397619Y-62514285D01*
X37492857Y-62466666D01*
X37635714Y-62466666D01*
X37730952Y-62514285D01*
X37778571Y-62561904D01*
X37826190Y-62657142D01*
X37826190Y-63038095D01*
X38302380Y-61514285D02*
X38302380Y-62085714D01*
X38302380Y-61800000D02*
X37302380Y-61800000D01*
X37445238Y-61895238D01*
X37540476Y-61990476D01*
X37588095Y-62085714D01*
D16*
X72068612Y-72112543D02*
X72783026Y-72112543D01*
X72925909Y-72160170D01*
X73021164Y-72255426D01*
X73068792Y-72398309D01*
X73068792Y-72493564D01*
X72402005Y-71207618D02*
X73068792Y-71207618D01*
X72020984Y-71445756D02*
X72735399Y-71683894D01*
X72735399Y-71064735D01*
D15*
X40002380Y-81861904D02*
X40811904Y-81861904D01*
X40907142Y-81814285D01*
X40954761Y-81766666D01*
X41002380Y-81671428D01*
X41002380Y-81480952D01*
X40954761Y-81385714D01*
X40907142Y-81338095D01*
X40811904Y-81290476D01*
X40002380Y-81290476D01*
X40002380Y-80338095D02*
X40002380Y-80814285D01*
X40478571Y-80861904D01*
X40430952Y-80814285D01*
X40383333Y-80719047D01*
X40383333Y-80480952D01*
X40430952Y-80385714D01*
X40478571Y-80338095D01*
X40573809Y-80290476D01*
X40811904Y-80290476D01*
X40907142Y-80338095D01*
X40954761Y-80385714D01*
X41002380Y-80480952D01*
X41002380Y-80719047D01*
X40954761Y-80814285D01*
X40907142Y-80861904D01*
X55857142Y-71557142D02*
X55809523Y-71604761D01*
X55666666Y-71652380D01*
X55571428Y-71652380D01*
X55428571Y-71604761D01*
X55333333Y-71509523D01*
X55285714Y-71414285D01*
X55238095Y-71223809D01*
X55238095Y-71080952D01*
X55285714Y-70890476D01*
X55333333Y-70795238D01*
X55428571Y-70700000D01*
X55571428Y-70652380D01*
X55666666Y-70652380D01*
X55809523Y-70700000D01*
X55857142Y-70747619D01*
X56809523Y-71652380D02*
X56238095Y-71652380D01*
X56523809Y-71652380D02*
X56523809Y-70652380D01*
X56428571Y-70795238D01*
X56333333Y-70890476D01*
X56238095Y-70938095D01*
X57666666Y-70985714D02*
X57666666Y-71652380D01*
X57428571Y-70604761D02*
X57190476Y-71319047D01*
X57809523Y-71319047D01*
X58557142Y-56342857D02*
X58604761Y-56390476D01*
X58652380Y-56533333D01*
X58652380Y-56628571D01*
X58604761Y-56771428D01*
X58509523Y-56866666D01*
X58414285Y-56914285D01*
X58223809Y-56961904D01*
X58080952Y-56961904D01*
X57890476Y-56914285D01*
X57795238Y-56866666D01*
X57700000Y-56771428D01*
X57652380Y-56628571D01*
X57652380Y-56533333D01*
X57700000Y-56390476D01*
X57747619Y-56342857D01*
X58652380Y-55390476D02*
X58652380Y-55961904D01*
X58652380Y-55676190D02*
X57652380Y-55676190D01*
X57795238Y-55771428D01*
X57890476Y-55866666D01*
X57938095Y-55961904D01*
X57652380Y-55057142D02*
X57652380Y-54438095D01*
X58033333Y-54771428D01*
X58033333Y-54628571D01*
X58080952Y-54533333D01*
X58128571Y-54485714D01*
X58223809Y-54438095D01*
X58461904Y-54438095D01*
X58557142Y-54485714D01*
X58604761Y-54533333D01*
X58652380Y-54628571D01*
X58652380Y-54914285D01*
X58604761Y-55009523D01*
X58557142Y-55057142D01*
X35988095Y-49552380D02*
X35988095Y-50361904D01*
X36035714Y-50457142D01*
X36083333Y-50504761D01*
X36178571Y-50552380D01*
X36369047Y-50552380D01*
X36464285Y-50504761D01*
X36511904Y-50457142D01*
X36559523Y-50361904D01*
X36559523Y-49552380D01*
X36940476Y-49552380D02*
X37559523Y-49552380D01*
X37226190Y-49933333D01*
X37369047Y-49933333D01*
X37464285Y-49980952D01*
X37511904Y-50028571D01*
X37559523Y-50123809D01*
X37559523Y-50361904D01*
X37511904Y-50457142D01*
X37464285Y-50504761D01*
X37369047Y-50552380D01*
X37083333Y-50552380D01*
X36988095Y-50504761D01*
X36940476Y-50457142D01*
X33138095Y-49552380D02*
X33138095Y-50361904D01*
X33185714Y-50457142D01*
X33233333Y-50504761D01*
X33328571Y-50552380D01*
X33519047Y-50552380D01*
X33614285Y-50504761D01*
X33661904Y-50457142D01*
X33709523Y-50361904D01*
X33709523Y-49552380D01*
X34138095Y-49647619D02*
X34185714Y-49600000D01*
X34280952Y-49552380D01*
X34519047Y-49552380D01*
X34614285Y-49600000D01*
X34661904Y-49647619D01*
X34709523Y-49742857D01*
X34709523Y-49838095D01*
X34661904Y-49980952D01*
X34090476Y-50552380D01*
X34709523Y-50552380D01*
X46152380Y-56833333D02*
X46866666Y-56833333D01*
X47009523Y-56880952D01*
X47104761Y-56976190D01*
X47152380Y-57119047D01*
X47152380Y-57214285D01*
X47152380Y-56357142D02*
X46152380Y-56357142D01*
X46152380Y-55976190D01*
X46200000Y-55880952D01*
X46247619Y-55833333D01*
X46342857Y-55785714D01*
X46485714Y-55785714D01*
X46580952Y-55833333D01*
X46628571Y-55880952D01*
X46676190Y-55976190D01*
X46676190Y-56357142D01*
X47152380Y-54833333D02*
X47152380Y-55404761D01*
X47152380Y-55119047D02*
X46152380Y-55119047D01*
X46295238Y-55214285D01*
X46390476Y-55309523D01*
X46438095Y-55404761D01*
X24252380Y-98383333D02*
X24966666Y-98383333D01*
X25109523Y-98430952D01*
X25204761Y-98526190D01*
X25252380Y-98669047D01*
X25252380Y-98764285D01*
X24252380Y-98002380D02*
X24252380Y-97383333D01*
X24633333Y-97716666D01*
X24633333Y-97573809D01*
X24680952Y-97478571D01*
X24728571Y-97430952D01*
X24823809Y-97383333D01*
X25061904Y-97383333D01*
X25157142Y-97430952D01*
X25204761Y-97478571D01*
X25252380Y-97573809D01*
X25252380Y-97859523D01*
X25204761Y-97954761D01*
X25157142Y-98002380D01*
X26234380Y-47933333D02*
X26948666Y-47933333D01*
X27091523Y-47980952D01*
X27186761Y-48076190D01*
X27234380Y-48219047D01*
X27234380Y-48314285D01*
X27234380Y-46933333D02*
X27234380Y-47504761D01*
X27234380Y-47219047D02*
X26234380Y-47219047D01*
X26377238Y-47314285D01*
X26472476Y-47409523D01*
X26520095Y-47504761D01*
X71892380Y-59093333D02*
X72606666Y-59093333D01*
X72749523Y-59140952D01*
X72844761Y-59236190D01*
X72892380Y-59379047D01*
X72892380Y-59474285D01*
X72892380Y-58045714D02*
X72416190Y-58379047D01*
X72892380Y-58617142D02*
X71892380Y-58617142D01*
X71892380Y-58236190D01*
X71940000Y-58140952D01*
X71987619Y-58093333D01*
X72082857Y-58045714D01*
X72225714Y-58045714D01*
X72320952Y-58093333D01*
X72368571Y-58140952D01*
X72416190Y-58236190D01*
X72416190Y-58617142D01*
X71987619Y-57664761D02*
X71940000Y-57617142D01*
X71892380Y-57521904D01*
X71892380Y-57283809D01*
X71940000Y-57188571D01*
X71987619Y-57140952D01*
X72082857Y-57093333D01*
X72178095Y-57093333D01*
X72320952Y-57140952D01*
X72892380Y-57712380D01*
X72892380Y-57093333D01*
X71692380Y-88893333D02*
X72406666Y-88893333D01*
X72549523Y-88940952D01*
X72644761Y-89036190D01*
X72692380Y-89179047D01*
X72692380Y-89274285D01*
X72692380Y-87845714D02*
X72216190Y-88179047D01*
X72692380Y-88417142D02*
X71692380Y-88417142D01*
X71692380Y-88036190D01*
X71740000Y-87940952D01*
X71787619Y-87893333D01*
X71882857Y-87845714D01*
X72025714Y-87845714D01*
X72120952Y-87893333D01*
X72168571Y-87940952D01*
X72216190Y-88036190D01*
X72216190Y-88417142D01*
X72692380Y-86893333D02*
X72692380Y-87464761D01*
X72692380Y-87179047D02*
X71692380Y-87179047D01*
X71835238Y-87274285D01*
X71930476Y-87369523D01*
X71978095Y-87464761D01*
X71692380Y-101937142D02*
X72406666Y-101937142D01*
X72549523Y-101984761D01*
X72644761Y-102080000D01*
X72692380Y-102222857D01*
X72692380Y-102318095D01*
X71692380Y-101460952D02*
X72501904Y-101460952D01*
X72597142Y-101413333D01*
X72644761Y-101365714D01*
X72692380Y-101270476D01*
X72692380Y-101080000D01*
X72644761Y-100984761D01*
X72597142Y-100937142D01*
X72501904Y-100889523D01*
X71692380Y-100889523D01*
X72692380Y-99889523D02*
X72692380Y-100460952D01*
X72692380Y-100175238D02*
X71692380Y-100175238D01*
X71835238Y-100270476D01*
X71930476Y-100365714D01*
X71978095Y-100460952D01*
X43733333Y-51357142D02*
X43685714Y-51404761D01*
X43542857Y-51452380D01*
X43447619Y-51452380D01*
X43304761Y-51404761D01*
X43209523Y-51309523D01*
X43161904Y-51214285D01*
X43114285Y-51023809D01*
X43114285Y-50880952D01*
X43161904Y-50690476D01*
X43209523Y-50595238D01*
X43304761Y-50500000D01*
X43447619Y-50452380D01*
X43542857Y-50452380D01*
X43685714Y-50500000D01*
X43733333Y-50547619D01*
X44209523Y-51452380D02*
X44400000Y-51452380D01*
X44495238Y-51404761D01*
X44542857Y-51357142D01*
X44638095Y-51214285D01*
X44685714Y-51023809D01*
X44685714Y-50642857D01*
X44638095Y-50547619D01*
X44590476Y-50500000D01*
X44495238Y-50452380D01*
X44304761Y-50452380D01*
X44209523Y-50500000D01*
X44161904Y-50547619D01*
X44114285Y-50642857D01*
X44114285Y-50880952D01*
X44161904Y-50976190D01*
X44209523Y-51023809D01*
X44304761Y-51071428D01*
X44495238Y-51071428D01*
X44590476Y-51023809D01*
X44638095Y-50976190D01*
X44685714Y-50880952D01*
X24271746Y-90154660D02*
X24271746Y-90868946D01*
X24224127Y-91011803D01*
X24128889Y-91107041D01*
X23986032Y-91154660D01*
X23890794Y-91154660D01*
X24700318Y-90249899D02*
X24747937Y-90202280D01*
X24843175Y-90154660D01*
X25081270Y-90154660D01*
X25176508Y-90202280D01*
X25224127Y-90249899D01*
X25271746Y-90345137D01*
X25271746Y-90440375D01*
X25224127Y-90583232D01*
X24652699Y-91154660D01*
X25271746Y-91154660D01*
X42038095Y-60952380D02*
X42038095Y-61761904D01*
X42085714Y-61857142D01*
X42133333Y-61904761D01*
X42228571Y-61952380D01*
X42419047Y-61952380D01*
X42514285Y-61904761D01*
X42561904Y-61857142D01*
X42609523Y-61761904D01*
X42609523Y-60952380D01*
X43609523Y-61952380D02*
X43038095Y-61952380D01*
X43323809Y-61952380D02*
X43323809Y-60952380D01*
X43228571Y-61095238D01*
X43133333Y-61190476D01*
X43038095Y-61238095D01*
M02*
