G04 #@! TF.GenerationSoftware,KiCad,Pcbnew,(5.1.5)-2*
G04 #@! TF.CreationDate,2020-08-23T21:31:47+12:00*
G04 #@! TF.ProjectId,rgbntsc,7267626e-7473-4632-9e6b-696361645f70,rev?*
G04 #@! TF.SameCoordinates,Original*
G04 #@! TF.FileFunction,Copper,L2,Bot*
G04 #@! TF.FilePolarity,Positive*
%FSLAX46Y46*%
G04 Gerber Fmt 4.6, Leading zero omitted, Abs format (unit mm)*
G04 Created by KiCad (PCBNEW (5.1.5)-2) date 2020-08-23 21:31:47*
%MOMM*%
%LPD*%
G04 APERTURE LIST*
%ADD10C,2.200000*%
%ADD11O,3.000000X3.000000*%
%ADD12C,1.408000*%
%ADD13R,1.408000X1.408000*%
%ADD14O,3.400000X1.700000*%
%ADD15O,1.700000X3.400000*%
%ADD16C,4.500000*%
%ADD17C,1.600000*%
%ADD18C,4.000000*%
%ADD19O,1.700000X1.100000*%
%ADD20C,0.800000*%
%ADD21C,0.400000*%
%ADD22C,0.250000*%
%ADD23C,0.254000*%
G04 APERTURE END LIST*
D10*
X69050000Y-56550000D03*
X69050000Y-65050000D03*
D11*
X65900000Y-60800000D03*
X61400000Y-60800000D03*
D12*
X60600000Y-80000000D03*
X63100000Y-80000000D03*
D13*
X63100000Y-73200000D03*
D12*
X60600000Y-73200000D03*
D14*
X66100000Y-83350000D03*
D15*
X66900000Y-76600000D03*
D14*
X66100000Y-69850000D03*
D10*
X68850000Y-86350000D03*
X68850000Y-94850000D03*
D11*
X65700000Y-90600000D03*
X61200000Y-90600000D03*
D10*
X68850000Y-99370000D03*
X68850000Y-107870000D03*
D11*
X65700000Y-103620000D03*
X61200000Y-103620000D03*
D16*
X24600000Y-61620000D03*
X24600000Y-86620000D03*
D17*
X22060000Y-69280000D03*
X22060000Y-71570000D03*
X22060000Y-73860000D03*
X22060000Y-76150000D03*
X22060000Y-78440000D03*
X24600000Y-77290000D03*
X24600000Y-79580000D03*
X27140000Y-69280000D03*
X27140000Y-71570000D03*
X27140000Y-73860000D03*
X27140000Y-76150000D03*
X27140000Y-78440000D03*
X24600000Y-70420000D03*
X24600000Y-72710000D03*
X24600000Y-75000000D03*
D10*
X34480000Y-99905000D03*
X34480000Y-61805000D03*
X29400000Y-67520000D03*
X34480000Y-65615000D03*
X29400000Y-71330000D03*
X34480000Y-69425000D03*
X29400000Y-75140000D03*
X34480000Y-73235000D03*
X29400000Y-63710000D03*
X34480000Y-77045000D03*
X29400000Y-78950000D03*
X34480000Y-80855000D03*
X29400000Y-82760000D03*
X34480000Y-84665000D03*
X29400000Y-86570000D03*
X34480000Y-88475000D03*
X29400000Y-90380000D03*
X34480000Y-92285000D03*
X29400000Y-94190000D03*
X34480000Y-96095000D03*
X29400000Y-98000000D03*
D18*
X27200000Y-55000000D03*
X27200000Y-107270000D03*
D19*
X24800000Y-43280000D03*
X24800000Y-51920000D03*
X21000000Y-51920000D03*
X21000000Y-43280000D03*
D20*
X47500000Y-79400000D03*
X45100000Y-79400000D03*
X27800000Y-84700000D03*
X28255027Y-88554594D03*
X32500000Y-89900000D03*
X33100000Y-87100000D03*
X50700000Y-65100000D03*
X47300000Y-67800000D03*
X43200000Y-57300000D03*
X41500000Y-61600000D03*
X44800000Y-65800000D03*
X46200000Y-61700000D03*
X41900000Y-68900000D03*
X39600000Y-73100000D03*
X36400000Y-86600000D03*
X36400000Y-79400000D03*
X31600000Y-103000000D03*
X36300000Y-102100000D03*
X36400000Y-104900000D03*
X43600000Y-101900000D03*
X43500000Y-104600000D03*
X55300000Y-105000000D03*
X52600000Y-102300000D03*
X56300000Y-100200000D03*
X60300000Y-100900000D03*
X60000000Y-95000000D03*
X63600000Y-94800000D03*
X59600000Y-107300000D03*
X54600000Y-107200000D03*
X44600000Y-108500000D03*
X36700000Y-107700000D03*
X29900000Y-105900000D03*
X25700000Y-101200000D03*
X28700000Y-100400000D03*
X25500000Y-93800000D03*
X32200000Y-98400000D03*
X32000000Y-80700000D03*
X30900000Y-84600000D03*
X32600000Y-77100000D03*
X33200000Y-82800000D03*
X27800000Y-79900000D03*
X24300000Y-57500000D03*
X22800000Y-54600000D03*
X26500000Y-50900000D03*
X29300000Y-51900000D03*
X32400000Y-48500000D03*
X36500000Y-52400000D03*
X37800000Y-58000000D03*
X32200000Y-57800000D03*
X41800000Y-54600000D03*
X42200000Y-49700000D03*
X38000000Y-47500000D03*
X37800000Y-45400000D03*
X49000000Y-44000000D03*
X53300000Y-43900000D03*
X28100000Y-42200000D03*
X29800000Y-44400000D03*
X36400000Y-42100000D03*
X36200000Y-44200000D03*
X47100000Y-58300000D03*
X47300000Y-55700000D03*
X47800000Y-50800000D03*
X48200000Y-48500000D03*
X39700000Y-75400000D03*
X39300000Y-78200000D03*
X48700000Y-77400000D03*
X45100000Y-76800000D03*
X44900000Y-74800000D03*
X46900000Y-72400000D03*
X41700000Y-71200000D03*
X49100000Y-73600000D03*
X52700000Y-74200000D03*
X50300000Y-79200000D03*
X56900000Y-80200000D03*
X56500000Y-76800000D03*
X57300000Y-62400000D03*
X57300000Y-69400000D03*
X59300000Y-68800000D03*
X59500000Y-64400000D03*
X55100000Y-64200000D03*
X55100000Y-61800000D03*
X49100000Y-61800000D03*
X43700000Y-61800000D03*
X37500000Y-61400000D03*
X37900000Y-66400000D03*
X36300000Y-72600000D03*
X31300000Y-74000000D03*
X39100000Y-83400000D03*
X39500000Y-86800000D03*
X40900000Y-88400000D03*
X43900000Y-86200000D03*
X52700000Y-86200000D03*
X58100000Y-87200000D03*
X59500000Y-76000000D03*
X59300000Y-79200000D03*
X61700000Y-84200000D03*
X61900000Y-81600000D03*
X59300000Y-72000000D03*
X39700000Y-94000000D03*
X47900000Y-80800000D03*
X46300000Y-78000000D03*
X45500000Y-85400000D03*
X47900000Y-85600000D03*
X41300000Y-89200000D03*
X42100000Y-86000000D03*
X45900000Y-80800000D03*
X46700000Y-83400000D03*
X49500000Y-82200000D03*
X49700000Y-84600000D03*
X32300000Y-72800000D03*
X59100000Y-83600000D03*
D21*
X30715000Y-77000000D02*
X34480000Y-73235000D01*
X27140000Y-78440000D02*
X28580000Y-77000000D01*
X28580000Y-77000000D02*
X30715000Y-77000000D01*
D22*
X47500000Y-79400000D02*
X45300000Y-79400000D01*
X45300000Y-79400000D02*
X45100000Y-79400000D01*
X23191370Y-71570000D02*
X22060000Y-71570000D01*
X25125002Y-71570000D02*
X23191370Y-71570000D01*
X26290001Y-72734999D02*
X25125002Y-71570000D01*
X27680001Y-72734999D02*
X26290001Y-72734999D01*
X27745002Y-72800000D02*
X27680001Y-72734999D01*
X32300000Y-72800000D02*
X27745002Y-72800000D01*
X59100000Y-83034315D02*
X58300000Y-82234315D01*
X59100000Y-83600000D02*
X59100000Y-83034315D01*
X58300000Y-63900000D02*
X61400000Y-60800000D01*
X58300000Y-82234315D02*
X58300000Y-63900000D01*
D23*
G36*
X68773000Y-55099162D02*
G01*
X68619175Y-55129760D01*
X68350378Y-55241099D01*
X68108467Y-55402739D01*
X67902739Y-55608467D01*
X67741099Y-55850378D01*
X67629760Y-56119175D01*
X67573000Y-56404528D01*
X67573000Y-56695472D01*
X67629760Y-56980825D01*
X67741099Y-57249622D01*
X67902739Y-57491533D01*
X68108467Y-57697261D01*
X68350378Y-57858901D01*
X68619175Y-57970240D01*
X68773000Y-58000838D01*
X68773000Y-63599162D01*
X68619175Y-63629760D01*
X68350378Y-63741099D01*
X68108467Y-63902739D01*
X67902739Y-64108467D01*
X67741099Y-64350378D01*
X67629760Y-64619175D01*
X67573000Y-64904528D01*
X67573000Y-65195472D01*
X67629760Y-65480825D01*
X67741099Y-65749622D01*
X67902739Y-65991533D01*
X68108467Y-66197261D01*
X68350378Y-66358901D01*
X68619175Y-66470240D01*
X68773000Y-66500838D01*
X68773000Y-84873000D01*
X68704528Y-84873000D01*
X68419175Y-84929760D01*
X68150378Y-85041099D01*
X67908467Y-85202739D01*
X67702739Y-85408467D01*
X67541099Y-85650378D01*
X67429760Y-85919175D01*
X67373000Y-86204528D01*
X67373000Y-86495472D01*
X67429760Y-86780825D01*
X67541099Y-87049622D01*
X67702739Y-87291533D01*
X67908467Y-87497261D01*
X68150378Y-87658901D01*
X68419175Y-87770240D01*
X68704528Y-87827000D01*
X68773000Y-87827000D01*
X68773000Y-93373000D01*
X68704528Y-93373000D01*
X68419175Y-93429760D01*
X68150378Y-93541099D01*
X67908467Y-93702739D01*
X67702739Y-93908467D01*
X67541099Y-94150378D01*
X67429760Y-94419175D01*
X67373000Y-94704528D01*
X67373000Y-94995472D01*
X67429760Y-95280825D01*
X67541099Y-95549622D01*
X67702739Y-95791533D01*
X67908467Y-95997261D01*
X68150378Y-96158901D01*
X68419175Y-96270240D01*
X68704528Y-96327000D01*
X68773000Y-96327000D01*
X68773000Y-97893000D01*
X68704528Y-97893000D01*
X68419175Y-97949760D01*
X68150378Y-98061099D01*
X67908467Y-98222739D01*
X67702739Y-98428467D01*
X67541099Y-98670378D01*
X67429760Y-98939175D01*
X67373000Y-99224528D01*
X67373000Y-99515472D01*
X67429760Y-99800825D01*
X67541099Y-100069622D01*
X67702739Y-100311533D01*
X67908467Y-100517261D01*
X68150378Y-100678901D01*
X68419175Y-100790240D01*
X68704528Y-100847000D01*
X68773000Y-100847000D01*
X68773000Y-106393000D01*
X68704528Y-106393000D01*
X68419175Y-106449760D01*
X68150378Y-106561099D01*
X67908467Y-106722739D01*
X67702739Y-106928467D01*
X67541099Y-107170378D01*
X67429760Y-107439175D01*
X67373000Y-107724528D01*
X67373000Y-108015472D01*
X67429760Y-108300825D01*
X67541099Y-108569622D01*
X67702739Y-108811533D01*
X67764206Y-108873000D01*
X28958585Y-108873000D01*
X29046336Y-108785249D01*
X29306470Y-108395932D01*
X29485653Y-107963345D01*
X29577000Y-107504114D01*
X29577000Y-107035886D01*
X29485653Y-106576655D01*
X29306470Y-106144068D01*
X29046336Y-105754751D01*
X28715249Y-105423664D01*
X28325932Y-105163530D01*
X27893345Y-104984347D01*
X27434114Y-104893000D01*
X26965886Y-104893000D01*
X26506655Y-104984347D01*
X26074068Y-105163530D01*
X25684751Y-105423664D01*
X25353664Y-105754751D01*
X25093530Y-106144068D01*
X24914347Y-106576655D01*
X24823000Y-107035886D01*
X24823000Y-107504114D01*
X24914347Y-107963345D01*
X25093530Y-108395932D01*
X25353664Y-108785249D01*
X25441415Y-108873000D01*
X21027000Y-108873000D01*
X21027000Y-103435132D01*
X59323000Y-103435132D01*
X59323000Y-103804868D01*
X59395132Y-104167501D01*
X59536624Y-104509093D01*
X59742039Y-104816518D01*
X60003482Y-105077961D01*
X60310907Y-105283376D01*
X60652499Y-105424868D01*
X61015132Y-105497000D01*
X61384868Y-105497000D01*
X61747501Y-105424868D01*
X62089093Y-105283376D01*
X62396518Y-105077961D01*
X62657961Y-104816518D01*
X62863376Y-104509093D01*
X63004868Y-104167501D01*
X63022505Y-104078833D01*
X63614883Y-104078833D01*
X63744462Y-104476803D01*
X63949191Y-104841846D01*
X64221203Y-105159934D01*
X64550044Y-105418844D01*
X64923077Y-105608625D01*
X65241167Y-105705113D01*
X65573000Y-105592165D01*
X65573000Y-103747000D01*
X65827000Y-103747000D01*
X65827000Y-105592165D01*
X66158833Y-105705113D01*
X66476923Y-105608625D01*
X66849956Y-105418844D01*
X67178797Y-105159934D01*
X67450809Y-104841846D01*
X67655538Y-104476803D01*
X67785117Y-104078833D01*
X67672473Y-103747000D01*
X65827000Y-103747000D01*
X65573000Y-103747000D01*
X63727527Y-103747000D01*
X63614883Y-104078833D01*
X63022505Y-104078833D01*
X63077000Y-103804868D01*
X63077000Y-103435132D01*
X63022506Y-103161167D01*
X63614883Y-103161167D01*
X63727527Y-103493000D01*
X65573000Y-103493000D01*
X65573000Y-101647835D01*
X65827000Y-101647835D01*
X65827000Y-103493000D01*
X67672473Y-103493000D01*
X67785117Y-103161167D01*
X67655538Y-102763197D01*
X67450809Y-102398154D01*
X67178797Y-102080066D01*
X66849956Y-101821156D01*
X66476923Y-101631375D01*
X66158833Y-101534887D01*
X65827000Y-101647835D01*
X65573000Y-101647835D01*
X65241167Y-101534887D01*
X64923077Y-101631375D01*
X64550044Y-101821156D01*
X64221203Y-102080066D01*
X63949191Y-102398154D01*
X63744462Y-102763197D01*
X63614883Y-103161167D01*
X63022506Y-103161167D01*
X63004868Y-103072499D01*
X62863376Y-102730907D01*
X62657961Y-102423482D01*
X62396518Y-102162039D01*
X62089093Y-101956624D01*
X61747501Y-101815132D01*
X61384868Y-101743000D01*
X61015132Y-101743000D01*
X60652499Y-101815132D01*
X60310907Y-101956624D01*
X60003482Y-102162039D01*
X59742039Y-102423482D01*
X59536624Y-102730907D01*
X59395132Y-103072499D01*
X59323000Y-103435132D01*
X21027000Y-103435132D01*
X21027000Y-99759528D01*
X33003000Y-99759528D01*
X33003000Y-100050472D01*
X33059760Y-100335825D01*
X33171099Y-100604622D01*
X33332739Y-100846533D01*
X33538467Y-101052261D01*
X33780378Y-101213901D01*
X34049175Y-101325240D01*
X34334528Y-101382000D01*
X34625472Y-101382000D01*
X34910825Y-101325240D01*
X35179622Y-101213901D01*
X35421533Y-101052261D01*
X35627261Y-100846533D01*
X35788901Y-100604622D01*
X35900240Y-100335825D01*
X35957000Y-100050472D01*
X35957000Y-99759528D01*
X35900240Y-99474175D01*
X35788901Y-99205378D01*
X35627261Y-98963467D01*
X35421533Y-98757739D01*
X35179622Y-98596099D01*
X34910825Y-98484760D01*
X34625472Y-98428000D01*
X34334528Y-98428000D01*
X34049175Y-98484760D01*
X33780378Y-98596099D01*
X33538467Y-98757739D01*
X33332739Y-98963467D01*
X33171099Y-99205378D01*
X33059760Y-99474175D01*
X33003000Y-99759528D01*
X21027000Y-99759528D01*
X21027000Y-97854528D01*
X27923000Y-97854528D01*
X27923000Y-98145472D01*
X27979760Y-98430825D01*
X28091099Y-98699622D01*
X28252739Y-98941533D01*
X28458467Y-99147261D01*
X28700378Y-99308901D01*
X28969175Y-99420240D01*
X29254528Y-99477000D01*
X29545472Y-99477000D01*
X29830825Y-99420240D01*
X30099622Y-99308901D01*
X30341533Y-99147261D01*
X30547261Y-98941533D01*
X30708901Y-98699622D01*
X30820240Y-98430825D01*
X30877000Y-98145472D01*
X30877000Y-97854528D01*
X30820240Y-97569175D01*
X30708901Y-97300378D01*
X30547261Y-97058467D01*
X30341533Y-96852739D01*
X30099622Y-96691099D01*
X29830825Y-96579760D01*
X29545472Y-96523000D01*
X29254528Y-96523000D01*
X28969175Y-96579760D01*
X28700378Y-96691099D01*
X28458467Y-96852739D01*
X28252739Y-97058467D01*
X28091099Y-97300378D01*
X27979760Y-97569175D01*
X27923000Y-97854528D01*
X21027000Y-97854528D01*
X21027000Y-95949528D01*
X33003000Y-95949528D01*
X33003000Y-96240472D01*
X33059760Y-96525825D01*
X33171099Y-96794622D01*
X33332739Y-97036533D01*
X33538467Y-97242261D01*
X33780378Y-97403901D01*
X34049175Y-97515240D01*
X34334528Y-97572000D01*
X34625472Y-97572000D01*
X34910825Y-97515240D01*
X35179622Y-97403901D01*
X35421533Y-97242261D01*
X35627261Y-97036533D01*
X35788901Y-96794622D01*
X35900240Y-96525825D01*
X35957000Y-96240472D01*
X35957000Y-95949528D01*
X35900240Y-95664175D01*
X35788901Y-95395378D01*
X35627261Y-95153467D01*
X35421533Y-94947739D01*
X35179622Y-94786099D01*
X34910825Y-94674760D01*
X34625472Y-94618000D01*
X34334528Y-94618000D01*
X34049175Y-94674760D01*
X33780378Y-94786099D01*
X33538467Y-94947739D01*
X33332739Y-95153467D01*
X33171099Y-95395378D01*
X33059760Y-95664175D01*
X33003000Y-95949528D01*
X21027000Y-95949528D01*
X21027000Y-95396712D01*
X28372893Y-95396712D01*
X28480726Y-95671338D01*
X28787384Y-95822216D01*
X29117585Y-95910369D01*
X29458639Y-95932409D01*
X29797439Y-95887489D01*
X30120966Y-95777336D01*
X30319274Y-95671338D01*
X30427107Y-95396712D01*
X29400000Y-94369605D01*
X28372893Y-95396712D01*
X21027000Y-95396712D01*
X21027000Y-94248639D01*
X27657591Y-94248639D01*
X27702511Y-94587439D01*
X27812664Y-94910966D01*
X27918662Y-95109274D01*
X28193288Y-95217107D01*
X29220395Y-94190000D01*
X29579605Y-94190000D01*
X30606712Y-95217107D01*
X30881338Y-95109274D01*
X31032216Y-94802616D01*
X31120369Y-94472415D01*
X31142409Y-94131361D01*
X31097489Y-93792561D01*
X30995058Y-93491712D01*
X33452893Y-93491712D01*
X33560726Y-93766338D01*
X33867384Y-93917216D01*
X34197585Y-94005369D01*
X34538639Y-94027409D01*
X34877439Y-93982489D01*
X35200966Y-93872336D01*
X35399274Y-93766338D01*
X35507107Y-93491712D01*
X34480000Y-92464605D01*
X33452893Y-93491712D01*
X30995058Y-93491712D01*
X30987336Y-93469034D01*
X30881338Y-93270726D01*
X30606712Y-93162893D01*
X29579605Y-94190000D01*
X29220395Y-94190000D01*
X28193288Y-93162893D01*
X27918662Y-93270726D01*
X27767784Y-93577384D01*
X27679631Y-93907585D01*
X27657591Y-94248639D01*
X21027000Y-94248639D01*
X21027000Y-92983288D01*
X28372893Y-92983288D01*
X29400000Y-94010395D01*
X30427107Y-92983288D01*
X30319274Y-92708662D01*
X30012616Y-92557784D01*
X29682415Y-92469631D01*
X29341361Y-92447591D01*
X29002561Y-92492511D01*
X28679034Y-92602664D01*
X28480726Y-92708662D01*
X28372893Y-92983288D01*
X21027000Y-92983288D01*
X21027000Y-92343639D01*
X32737591Y-92343639D01*
X32782511Y-92682439D01*
X32892664Y-93005966D01*
X32998662Y-93204274D01*
X33273288Y-93312107D01*
X34300395Y-92285000D01*
X34659605Y-92285000D01*
X35686712Y-93312107D01*
X35961338Y-93204274D01*
X36112216Y-92897616D01*
X36200369Y-92567415D01*
X36222409Y-92226361D01*
X36177489Y-91887561D01*
X36067336Y-91564034D01*
X35961338Y-91365726D01*
X35686712Y-91257893D01*
X34659605Y-92285000D01*
X34300395Y-92285000D01*
X33273288Y-91257893D01*
X32998662Y-91365726D01*
X32847784Y-91672384D01*
X32759631Y-92002585D01*
X32737591Y-92343639D01*
X21027000Y-92343639D01*
X21027000Y-90234528D01*
X27923000Y-90234528D01*
X27923000Y-90525472D01*
X27979760Y-90810825D01*
X28091099Y-91079622D01*
X28252739Y-91321533D01*
X28458467Y-91527261D01*
X28700378Y-91688901D01*
X28969175Y-91800240D01*
X29254528Y-91857000D01*
X29545472Y-91857000D01*
X29830825Y-91800240D01*
X30099622Y-91688901D01*
X30341533Y-91527261D01*
X30547261Y-91321533D01*
X30708901Y-91079622D01*
X30709453Y-91078288D01*
X33452893Y-91078288D01*
X34480000Y-92105395D01*
X35507107Y-91078288D01*
X35399274Y-90803662D01*
X35092616Y-90652784D01*
X34762415Y-90564631D01*
X34421361Y-90542591D01*
X34082561Y-90587511D01*
X33759034Y-90697664D01*
X33560726Y-90803662D01*
X33452893Y-91078288D01*
X30709453Y-91078288D01*
X30820240Y-90810825D01*
X30877000Y-90525472D01*
X30877000Y-90415132D01*
X59323000Y-90415132D01*
X59323000Y-90784868D01*
X59395132Y-91147501D01*
X59536624Y-91489093D01*
X59742039Y-91796518D01*
X60003482Y-92057961D01*
X60310907Y-92263376D01*
X60652499Y-92404868D01*
X61015132Y-92477000D01*
X61384868Y-92477000D01*
X61747501Y-92404868D01*
X62089093Y-92263376D01*
X62396518Y-92057961D01*
X62657961Y-91796518D01*
X62863376Y-91489093D01*
X63004868Y-91147501D01*
X63022505Y-91058833D01*
X63614883Y-91058833D01*
X63744462Y-91456803D01*
X63949191Y-91821846D01*
X64221203Y-92139934D01*
X64550044Y-92398844D01*
X64923077Y-92588625D01*
X65241167Y-92685113D01*
X65573000Y-92572165D01*
X65573000Y-90727000D01*
X65827000Y-90727000D01*
X65827000Y-92572165D01*
X66158833Y-92685113D01*
X66476923Y-92588625D01*
X66849956Y-92398844D01*
X67178797Y-92139934D01*
X67450809Y-91821846D01*
X67655538Y-91456803D01*
X67785117Y-91058833D01*
X67672473Y-90727000D01*
X65827000Y-90727000D01*
X65573000Y-90727000D01*
X63727527Y-90727000D01*
X63614883Y-91058833D01*
X63022505Y-91058833D01*
X63077000Y-90784868D01*
X63077000Y-90415132D01*
X63022506Y-90141167D01*
X63614883Y-90141167D01*
X63727527Y-90473000D01*
X65573000Y-90473000D01*
X65573000Y-88627835D01*
X65827000Y-88627835D01*
X65827000Y-90473000D01*
X67672473Y-90473000D01*
X67785117Y-90141167D01*
X67655538Y-89743197D01*
X67450809Y-89378154D01*
X67178797Y-89060066D01*
X66849956Y-88801156D01*
X66476923Y-88611375D01*
X66158833Y-88514887D01*
X65827000Y-88627835D01*
X65573000Y-88627835D01*
X65241167Y-88514887D01*
X64923077Y-88611375D01*
X64550044Y-88801156D01*
X64221203Y-89060066D01*
X63949191Y-89378154D01*
X63744462Y-89743197D01*
X63614883Y-90141167D01*
X63022506Y-90141167D01*
X63004868Y-90052499D01*
X62863376Y-89710907D01*
X62657961Y-89403482D01*
X62396518Y-89142039D01*
X62089093Y-88936624D01*
X61747501Y-88795132D01*
X61384868Y-88723000D01*
X61015132Y-88723000D01*
X60652499Y-88795132D01*
X60310907Y-88936624D01*
X60003482Y-89142039D01*
X59742039Y-89403482D01*
X59536624Y-89710907D01*
X59395132Y-90052499D01*
X59323000Y-90415132D01*
X30877000Y-90415132D01*
X30877000Y-90234528D01*
X30820240Y-89949175D01*
X30708901Y-89680378D01*
X30547261Y-89438467D01*
X30341533Y-89232739D01*
X30099622Y-89071099D01*
X29830825Y-88959760D01*
X29545472Y-88903000D01*
X29254528Y-88903000D01*
X28969175Y-88959760D01*
X28700378Y-89071099D01*
X28458467Y-89232739D01*
X28252739Y-89438467D01*
X28091099Y-89680378D01*
X27979760Y-89949175D01*
X27923000Y-90234528D01*
X21027000Y-90234528D01*
X21027000Y-88645340D01*
X22754265Y-88645340D01*
X23000416Y-89037704D01*
X23502822Y-89303312D01*
X24047393Y-89465801D01*
X24613199Y-89518928D01*
X25178498Y-89460652D01*
X25721566Y-89293210D01*
X26199584Y-89037704D01*
X26445735Y-88645340D01*
X24600000Y-86799605D01*
X22754265Y-88645340D01*
X21027000Y-88645340D01*
X21027000Y-86633199D01*
X21701072Y-86633199D01*
X21759348Y-87198498D01*
X21926790Y-87741566D01*
X22182296Y-88219584D01*
X22574660Y-88465735D01*
X24420395Y-86620000D01*
X24779605Y-86620000D01*
X26625340Y-88465735D01*
X26842453Y-88329528D01*
X33003000Y-88329528D01*
X33003000Y-88620472D01*
X33059760Y-88905825D01*
X33171099Y-89174622D01*
X33332739Y-89416533D01*
X33538467Y-89622261D01*
X33780378Y-89783901D01*
X34049175Y-89895240D01*
X34334528Y-89952000D01*
X34625472Y-89952000D01*
X34910825Y-89895240D01*
X35179622Y-89783901D01*
X35421533Y-89622261D01*
X35627261Y-89416533D01*
X35788901Y-89174622D01*
X35900240Y-88905825D01*
X35957000Y-88620472D01*
X35957000Y-88329528D01*
X35900240Y-88044175D01*
X35788901Y-87775378D01*
X35627261Y-87533467D01*
X35421533Y-87327739D01*
X35179622Y-87166099D01*
X34910825Y-87054760D01*
X34625472Y-86998000D01*
X34334528Y-86998000D01*
X34049175Y-87054760D01*
X33780378Y-87166099D01*
X33538467Y-87327739D01*
X33332739Y-87533467D01*
X33171099Y-87775378D01*
X33059760Y-88044175D01*
X33003000Y-88329528D01*
X26842453Y-88329528D01*
X27017704Y-88219584D01*
X27283312Y-87717178D01*
X27445801Y-87172607D01*
X27498928Y-86606801D01*
X27480138Y-86424528D01*
X27923000Y-86424528D01*
X27923000Y-86715472D01*
X27979760Y-87000825D01*
X28091099Y-87269622D01*
X28252739Y-87511533D01*
X28458467Y-87717261D01*
X28700378Y-87878901D01*
X28969175Y-87990240D01*
X29254528Y-88047000D01*
X29545472Y-88047000D01*
X29830825Y-87990240D01*
X30099622Y-87878901D01*
X30341533Y-87717261D01*
X30547261Y-87511533D01*
X30708901Y-87269622D01*
X30820240Y-87000825D01*
X30877000Y-86715472D01*
X30877000Y-86424528D01*
X30820240Y-86139175D01*
X30709454Y-85871712D01*
X33452893Y-85871712D01*
X33560726Y-86146338D01*
X33867384Y-86297216D01*
X34197585Y-86385369D01*
X34538639Y-86407409D01*
X34877439Y-86362489D01*
X35200966Y-86252336D01*
X35399274Y-86146338D01*
X35507107Y-85871712D01*
X34480000Y-84844605D01*
X33452893Y-85871712D01*
X30709454Y-85871712D01*
X30708901Y-85870378D01*
X30547261Y-85628467D01*
X30341533Y-85422739D01*
X30099622Y-85261099D01*
X29830825Y-85149760D01*
X29545472Y-85093000D01*
X29254528Y-85093000D01*
X28969175Y-85149760D01*
X28700378Y-85261099D01*
X28458467Y-85422739D01*
X28252739Y-85628467D01*
X28091099Y-85870378D01*
X27979760Y-86139175D01*
X27923000Y-86424528D01*
X27480138Y-86424528D01*
X27440652Y-86041502D01*
X27273210Y-85498434D01*
X27017704Y-85020416D01*
X26625340Y-84774265D01*
X24779605Y-86620000D01*
X24420395Y-86620000D01*
X22574660Y-84774265D01*
X22182296Y-85020416D01*
X21916688Y-85522822D01*
X21754199Y-86067393D01*
X21701072Y-86633199D01*
X21027000Y-86633199D01*
X21027000Y-84594660D01*
X22754265Y-84594660D01*
X24600000Y-86440395D01*
X26316756Y-84723639D01*
X32737591Y-84723639D01*
X32782511Y-85062439D01*
X32892664Y-85385966D01*
X32998662Y-85584274D01*
X33273288Y-85692107D01*
X34300395Y-84665000D01*
X34659605Y-84665000D01*
X35686712Y-85692107D01*
X35961338Y-85584274D01*
X36112216Y-85277616D01*
X36200369Y-84947415D01*
X36222409Y-84606361D01*
X36177489Y-84267561D01*
X36067336Y-83944034D01*
X35961338Y-83745726D01*
X35686712Y-83637893D01*
X34659605Y-84665000D01*
X34300395Y-84665000D01*
X33273288Y-83637893D01*
X32998662Y-83745726D01*
X32847784Y-84052384D01*
X32759631Y-84382585D01*
X32737591Y-84723639D01*
X26316756Y-84723639D01*
X26445735Y-84594660D01*
X26199584Y-84202296D01*
X25697178Y-83936688D01*
X25152607Y-83774199D01*
X24586801Y-83721072D01*
X24021502Y-83779348D01*
X23478434Y-83946790D01*
X23000416Y-84202296D01*
X22754265Y-84594660D01*
X21027000Y-84594660D01*
X21027000Y-82614528D01*
X27923000Y-82614528D01*
X27923000Y-82905472D01*
X27979760Y-83190825D01*
X28091099Y-83459622D01*
X28252739Y-83701533D01*
X28458467Y-83907261D01*
X28700378Y-84068901D01*
X28969175Y-84180240D01*
X29254528Y-84237000D01*
X29545472Y-84237000D01*
X29830825Y-84180240D01*
X30099622Y-84068901D01*
X30341533Y-83907261D01*
X30547261Y-83701533D01*
X30708901Y-83459622D01*
X30709453Y-83458288D01*
X33452893Y-83458288D01*
X34480000Y-84485395D01*
X35507107Y-83458288D01*
X35399274Y-83183662D01*
X35092616Y-83032784D01*
X34762415Y-82944631D01*
X34421361Y-82922591D01*
X34082561Y-82967511D01*
X33759034Y-83077664D01*
X33560726Y-83183662D01*
X33452893Y-83458288D01*
X30709453Y-83458288D01*
X30820240Y-83190825D01*
X30877000Y-82905472D01*
X30877000Y-82614528D01*
X30820240Y-82329175D01*
X30708901Y-82060378D01*
X30547261Y-81818467D01*
X30341533Y-81612739D01*
X30099622Y-81451099D01*
X29830825Y-81339760D01*
X29545472Y-81283000D01*
X29254528Y-81283000D01*
X28969175Y-81339760D01*
X28700378Y-81451099D01*
X28458467Y-81612739D01*
X28252739Y-81818467D01*
X28091099Y-82060378D01*
X27979760Y-82329175D01*
X27923000Y-82614528D01*
X21027000Y-82614528D01*
X21027000Y-80572702D01*
X23786903Y-80572702D01*
X23858486Y-80816671D01*
X24113996Y-80937571D01*
X24388184Y-81006300D01*
X24670512Y-81020217D01*
X24950130Y-80978787D01*
X25216292Y-80883603D01*
X25341514Y-80816671D01*
X25372950Y-80709528D01*
X33003000Y-80709528D01*
X33003000Y-81000472D01*
X33059760Y-81285825D01*
X33171099Y-81554622D01*
X33332739Y-81796533D01*
X33538467Y-82002261D01*
X33780378Y-82163901D01*
X34049175Y-82275240D01*
X34334528Y-82332000D01*
X34625472Y-82332000D01*
X34910825Y-82275240D01*
X35179622Y-82163901D01*
X35421533Y-82002261D01*
X35627261Y-81796533D01*
X35788901Y-81554622D01*
X35900240Y-81285825D01*
X35957000Y-81000472D01*
X35957000Y-80709528D01*
X35900240Y-80424175D01*
X35788901Y-80155378D01*
X35627261Y-79913467D01*
X35421533Y-79707739D01*
X35179622Y-79546099D01*
X34910825Y-79434760D01*
X34625472Y-79378000D01*
X34334528Y-79378000D01*
X34049175Y-79434760D01*
X33780378Y-79546099D01*
X33538467Y-79707739D01*
X33332739Y-79913467D01*
X33171099Y-80155378D01*
X33059760Y-80424175D01*
X33003000Y-80709528D01*
X25372950Y-80709528D01*
X25413097Y-80572702D01*
X24600000Y-79759605D01*
X23786903Y-80572702D01*
X21027000Y-80572702D01*
X21027000Y-79650512D01*
X23159783Y-79650512D01*
X23201213Y-79930130D01*
X23296397Y-80196292D01*
X23363329Y-80321514D01*
X23607298Y-80393097D01*
X24420395Y-79580000D01*
X24779605Y-79580000D01*
X25592702Y-80393097D01*
X25836671Y-80321514D01*
X25957571Y-80066004D01*
X26026300Y-79791816D01*
X26040217Y-79509488D01*
X25998787Y-79229870D01*
X25903603Y-78963708D01*
X25836671Y-78838486D01*
X25592702Y-78766903D01*
X24779605Y-79580000D01*
X24420395Y-79580000D01*
X23607298Y-78766903D01*
X23363329Y-78838486D01*
X23242429Y-79093996D01*
X23173700Y-79368184D01*
X23159783Y-79650512D01*
X21027000Y-79650512D01*
X21027000Y-79012551D01*
X21145764Y-79190294D01*
X21309706Y-79354236D01*
X21502481Y-79483044D01*
X21716682Y-79571769D01*
X21944076Y-79617000D01*
X22175924Y-79617000D01*
X22403318Y-79571769D01*
X22617519Y-79483044D01*
X22810294Y-79354236D01*
X22974236Y-79190294D01*
X23103044Y-78997519D01*
X23191769Y-78783318D01*
X23237000Y-78555924D01*
X23237000Y-78324076D01*
X23228771Y-78282702D01*
X23786903Y-78282702D01*
X23831589Y-78435000D01*
X23786903Y-78587298D01*
X24600000Y-79400395D01*
X25413097Y-78587298D01*
X25368411Y-78435000D01*
X25413097Y-78282702D01*
X24600000Y-77469605D01*
X23786903Y-78282702D01*
X23228771Y-78282702D01*
X23191769Y-78096682D01*
X23103044Y-77882481D01*
X22974236Y-77689706D01*
X22810294Y-77525764D01*
X22617519Y-77396956D01*
X22529536Y-77360512D01*
X23159783Y-77360512D01*
X23201213Y-77640130D01*
X23296397Y-77906292D01*
X23363329Y-78031514D01*
X23607298Y-78103097D01*
X24420395Y-77290000D01*
X24779605Y-77290000D01*
X25592702Y-78103097D01*
X25836671Y-78031514D01*
X25957571Y-77776004D01*
X26026300Y-77501816D01*
X26040217Y-77219488D01*
X25998787Y-76939870D01*
X25903603Y-76673708D01*
X25836671Y-76548486D01*
X25592702Y-76476903D01*
X24779605Y-77290000D01*
X24420395Y-77290000D01*
X23607298Y-76476903D01*
X23363329Y-76548486D01*
X23242429Y-76803996D01*
X23173700Y-77078184D01*
X23159783Y-77360512D01*
X22529536Y-77360512D01*
X22403318Y-77308231D01*
X22336801Y-77295000D01*
X22403318Y-77281769D01*
X22617519Y-77193044D01*
X22810294Y-77064236D01*
X22974236Y-76900294D01*
X23103044Y-76707519D01*
X23191769Y-76493318D01*
X23237000Y-76265924D01*
X23237000Y-76034076D01*
X23228771Y-75992702D01*
X23786903Y-75992702D01*
X23831589Y-76145000D01*
X23786903Y-76297298D01*
X24600000Y-77110395D01*
X25413097Y-76297298D01*
X25368411Y-76145000D01*
X25413097Y-75992702D01*
X24600000Y-75179605D01*
X23786903Y-75992702D01*
X23228771Y-75992702D01*
X23191769Y-75806682D01*
X23103044Y-75592481D01*
X22974236Y-75399706D01*
X22810294Y-75235764D01*
X22617519Y-75106956D01*
X22529536Y-75070512D01*
X23159783Y-75070512D01*
X23201213Y-75350130D01*
X23296397Y-75616292D01*
X23363329Y-75741514D01*
X23607298Y-75813097D01*
X24420395Y-75000000D01*
X24779605Y-75000000D01*
X25592702Y-75813097D01*
X25836671Y-75741514D01*
X25957571Y-75486004D01*
X26026300Y-75211816D01*
X26040217Y-74929488D01*
X25998787Y-74649870D01*
X25903603Y-74383708D01*
X25836671Y-74258486D01*
X25592702Y-74186903D01*
X24779605Y-75000000D01*
X24420395Y-75000000D01*
X23607298Y-74186903D01*
X23363329Y-74258486D01*
X23242429Y-74513996D01*
X23173700Y-74788184D01*
X23159783Y-75070512D01*
X22529536Y-75070512D01*
X22403318Y-75018231D01*
X22336801Y-75005000D01*
X22403318Y-74991769D01*
X22617519Y-74903044D01*
X22810294Y-74774236D01*
X22974236Y-74610294D01*
X23103044Y-74417519D01*
X23191769Y-74203318D01*
X23237000Y-73975924D01*
X23237000Y-73744076D01*
X23191769Y-73516682D01*
X23103044Y-73302481D01*
X22974236Y-73109706D01*
X22810294Y-72945764D01*
X22617519Y-72816956D01*
X22403318Y-72728231D01*
X22336801Y-72715000D01*
X22403318Y-72701769D01*
X22617519Y-72613044D01*
X22810294Y-72484236D01*
X22974236Y-72320294D01*
X23103044Y-72127519D01*
X23126041Y-72072000D01*
X23610732Y-72072000D01*
X23556956Y-72152481D01*
X23468231Y-72366682D01*
X23423000Y-72594076D01*
X23423000Y-72825924D01*
X23468231Y-73053318D01*
X23556956Y-73267519D01*
X23685764Y-73460294D01*
X23849706Y-73624236D01*
X23969260Y-73704119D01*
X23858486Y-73763329D01*
X23786903Y-74007298D01*
X24600000Y-74820395D01*
X25413097Y-74007298D01*
X25341514Y-73763329D01*
X25224787Y-73708097D01*
X25350294Y-73624236D01*
X25514236Y-73460294D01*
X25643044Y-73267519D01*
X25731769Y-73053318D01*
X25759412Y-72914345D01*
X25917604Y-73072537D01*
X25933317Y-73091683D01*
X25952463Y-73107396D01*
X25952465Y-73107398D01*
X25970122Y-73121889D01*
X26009756Y-73154416D01*
X26096965Y-73201030D01*
X26153321Y-73218125D01*
X26096956Y-73302481D01*
X26008231Y-73516682D01*
X25963000Y-73744076D01*
X25963000Y-73975924D01*
X26008231Y-74203318D01*
X26096956Y-74417519D01*
X26225764Y-74610294D01*
X26389706Y-74774236D01*
X26582481Y-74903044D01*
X26796682Y-74991769D01*
X26863199Y-75005000D01*
X26796682Y-75018231D01*
X26582481Y-75106956D01*
X26389706Y-75235764D01*
X26225764Y-75399706D01*
X26096956Y-75592481D01*
X26008231Y-75806682D01*
X25963000Y-76034076D01*
X25963000Y-76265924D01*
X26008231Y-76493318D01*
X26096956Y-76707519D01*
X26225764Y-76900294D01*
X26389706Y-77064236D01*
X26582481Y-77193044D01*
X26796682Y-77281769D01*
X26863199Y-77295000D01*
X26796682Y-77308231D01*
X26582481Y-77396956D01*
X26389706Y-77525764D01*
X26225764Y-77689706D01*
X26096956Y-77882481D01*
X26008231Y-78096682D01*
X25963000Y-78324076D01*
X25963000Y-78555924D01*
X26008231Y-78783318D01*
X26096956Y-78997519D01*
X26225764Y-79190294D01*
X26389706Y-79354236D01*
X26582481Y-79483044D01*
X26796682Y-79571769D01*
X27024076Y-79617000D01*
X27255924Y-79617000D01*
X27483318Y-79571769D01*
X27697519Y-79483044D01*
X27890294Y-79354236D01*
X27960505Y-79284025D01*
X27979760Y-79380825D01*
X28091099Y-79649622D01*
X28252739Y-79891533D01*
X28458467Y-80097261D01*
X28700378Y-80258901D01*
X28969175Y-80370240D01*
X29254528Y-80427000D01*
X29545472Y-80427000D01*
X29830825Y-80370240D01*
X30099622Y-80258901D01*
X30341533Y-80097261D01*
X30547261Y-79891533D01*
X30708901Y-79649622D01*
X30820240Y-79380825D01*
X30831648Y-79323472D01*
X44323000Y-79323472D01*
X44323000Y-79476528D01*
X44352859Y-79626643D01*
X44411431Y-79768048D01*
X44496464Y-79895309D01*
X44604691Y-80003536D01*
X44731952Y-80088569D01*
X44873357Y-80147141D01*
X45023472Y-80177000D01*
X45176528Y-80177000D01*
X45326643Y-80147141D01*
X45468048Y-80088569D01*
X45595309Y-80003536D01*
X45696845Y-79902000D01*
X46903155Y-79902000D01*
X47004691Y-80003536D01*
X47131952Y-80088569D01*
X47273357Y-80147141D01*
X47423472Y-80177000D01*
X47576528Y-80177000D01*
X47726643Y-80147141D01*
X47868048Y-80088569D01*
X47995309Y-80003536D01*
X48103536Y-79895309D01*
X48188569Y-79768048D01*
X48247141Y-79626643D01*
X48277000Y-79476528D01*
X48277000Y-79323472D01*
X48247141Y-79173357D01*
X48188569Y-79031952D01*
X48103536Y-78904691D01*
X47995309Y-78796464D01*
X47868048Y-78711431D01*
X47726643Y-78652859D01*
X47576528Y-78623000D01*
X47423472Y-78623000D01*
X47273357Y-78652859D01*
X47131952Y-78711431D01*
X47004691Y-78796464D01*
X46903155Y-78898000D01*
X45696845Y-78898000D01*
X45595309Y-78796464D01*
X45468048Y-78711431D01*
X45326643Y-78652859D01*
X45176528Y-78623000D01*
X45023472Y-78623000D01*
X44873357Y-78652859D01*
X44731952Y-78711431D01*
X44604691Y-78796464D01*
X44496464Y-78904691D01*
X44411431Y-79031952D01*
X44352859Y-79173357D01*
X44323000Y-79323472D01*
X30831648Y-79323472D01*
X30877000Y-79095472D01*
X30877000Y-78804528D01*
X30820240Y-78519175D01*
X30709454Y-78251712D01*
X33452893Y-78251712D01*
X33560726Y-78526338D01*
X33867384Y-78677216D01*
X34197585Y-78765369D01*
X34538639Y-78787409D01*
X34877439Y-78742489D01*
X35200966Y-78632336D01*
X35399274Y-78526338D01*
X35507107Y-78251712D01*
X34480000Y-77224605D01*
X33452893Y-78251712D01*
X30709454Y-78251712D01*
X30708901Y-78250378D01*
X30547261Y-78008467D01*
X30341533Y-77802739D01*
X30099622Y-77641099D01*
X29944873Y-77577000D01*
X30686669Y-77577000D01*
X30715000Y-77579790D01*
X30743331Y-77577000D01*
X30743336Y-77577000D01*
X30773045Y-77574074D01*
X30828111Y-77568651D01*
X30872770Y-77555103D01*
X30936876Y-77535657D01*
X31037115Y-77482079D01*
X31124974Y-77409974D01*
X31143039Y-77387962D01*
X31427362Y-77103639D01*
X32737591Y-77103639D01*
X32782511Y-77442439D01*
X32892664Y-77765966D01*
X32998662Y-77964274D01*
X33273288Y-78072107D01*
X34300395Y-77045000D01*
X34659605Y-77045000D01*
X35686712Y-78072107D01*
X35961338Y-77964274D01*
X36112216Y-77657616D01*
X36200369Y-77327415D01*
X36222409Y-76986361D01*
X36177489Y-76647561D01*
X36067336Y-76324034D01*
X35961338Y-76125726D01*
X35686712Y-76017893D01*
X34659605Y-77045000D01*
X34300395Y-77045000D01*
X33273288Y-76017893D01*
X32998662Y-76125726D01*
X32847784Y-76432384D01*
X32759631Y-76762585D01*
X32737591Y-77103639D01*
X31427362Y-77103639D01*
X32692713Y-75838288D01*
X33452893Y-75838288D01*
X34480000Y-76865395D01*
X35507107Y-75838288D01*
X35399274Y-75563662D01*
X35092616Y-75412784D01*
X34762415Y-75324631D01*
X34421361Y-75302591D01*
X34082561Y-75347511D01*
X33759034Y-75457664D01*
X33560726Y-75563662D01*
X33452893Y-75838288D01*
X32692713Y-75838288D01*
X33926553Y-74604449D01*
X34049175Y-74655240D01*
X34334528Y-74712000D01*
X34625472Y-74712000D01*
X34910825Y-74655240D01*
X35179622Y-74543901D01*
X35421533Y-74382261D01*
X35627261Y-74176533D01*
X35788901Y-73934622D01*
X35900240Y-73665825D01*
X35957000Y-73380472D01*
X35957000Y-73089528D01*
X35900240Y-72804175D01*
X35788901Y-72535378D01*
X35627261Y-72293467D01*
X35421533Y-72087739D01*
X35179622Y-71926099D01*
X34910825Y-71814760D01*
X34625472Y-71758000D01*
X34334528Y-71758000D01*
X34049175Y-71814760D01*
X33780378Y-71926099D01*
X33538467Y-72087739D01*
X33332739Y-72293467D01*
X33171099Y-72535378D01*
X33077000Y-72762554D01*
X33077000Y-72723472D01*
X33047141Y-72573357D01*
X32988569Y-72431952D01*
X32903536Y-72304691D01*
X32795309Y-72196464D01*
X32668048Y-72111431D01*
X32526643Y-72052859D01*
X32376528Y-72023000D01*
X32223472Y-72023000D01*
X32073357Y-72052859D01*
X31931952Y-72111431D01*
X31804691Y-72196464D01*
X31703155Y-72298000D01*
X30520794Y-72298000D01*
X30547261Y-72271533D01*
X30708901Y-72029622D01*
X30820240Y-71760825D01*
X30877000Y-71475472D01*
X30877000Y-71184528D01*
X30820240Y-70899175D01*
X30709454Y-70631712D01*
X33452893Y-70631712D01*
X33560726Y-70906338D01*
X33867384Y-71057216D01*
X34197585Y-71145369D01*
X34538639Y-71167409D01*
X34877439Y-71122489D01*
X35200966Y-71012336D01*
X35399274Y-70906338D01*
X35507107Y-70631712D01*
X34480000Y-69604605D01*
X33452893Y-70631712D01*
X30709454Y-70631712D01*
X30708901Y-70630378D01*
X30547261Y-70388467D01*
X30341533Y-70182739D01*
X30099622Y-70021099D01*
X29830825Y-69909760D01*
X29545472Y-69853000D01*
X29254528Y-69853000D01*
X28969175Y-69909760D01*
X28700378Y-70021099D01*
X28458467Y-70182739D01*
X28252739Y-70388467D01*
X28091099Y-70630378D01*
X28024849Y-70790319D01*
X27890294Y-70655764D01*
X27770740Y-70575881D01*
X27881514Y-70516671D01*
X27953097Y-70272702D01*
X27140000Y-69459605D01*
X26326903Y-70272702D01*
X26398486Y-70516671D01*
X26515213Y-70571903D01*
X26389706Y-70655764D01*
X26225764Y-70819706D01*
X26096956Y-71012481D01*
X26008231Y-71226682D01*
X25963000Y-71454076D01*
X25963000Y-71685924D01*
X25966014Y-71701078D01*
X25661642Y-71396706D01*
X25708977Y-71349370D01*
X25592704Y-71233097D01*
X25836671Y-71161514D01*
X25957571Y-70906004D01*
X26026300Y-70631816D01*
X26040217Y-70349488D01*
X25998787Y-70069870D01*
X25990657Y-70047137D01*
X26147298Y-70093097D01*
X26960395Y-69280000D01*
X26147298Y-68466903D01*
X25903329Y-68538486D01*
X25782429Y-68793996D01*
X25713700Y-69068184D01*
X25699783Y-69350512D01*
X25741213Y-69630130D01*
X25749343Y-69652863D01*
X25592702Y-69606903D01*
X24779605Y-70420000D01*
X24793748Y-70434143D01*
X24614143Y-70613748D01*
X24600000Y-70599605D01*
X24585858Y-70613748D01*
X24406253Y-70434143D01*
X24420395Y-70420000D01*
X23607298Y-69606903D01*
X23363329Y-69678486D01*
X23242429Y-69933996D01*
X23173700Y-70208184D01*
X23159783Y-70490512D01*
X23201213Y-70770130D01*
X23296397Y-71036292D01*
X23313345Y-71068000D01*
X23126041Y-71068000D01*
X23103044Y-71012481D01*
X22974236Y-70819706D01*
X22810294Y-70655764D01*
X22617519Y-70526956D01*
X22403318Y-70438231D01*
X22336801Y-70425000D01*
X22403318Y-70411769D01*
X22617519Y-70323044D01*
X22810294Y-70194236D01*
X22974236Y-70030294D01*
X23103044Y-69837519D01*
X23191769Y-69623318D01*
X23230759Y-69427298D01*
X23786903Y-69427298D01*
X24600000Y-70240395D01*
X25413097Y-69427298D01*
X25341514Y-69183329D01*
X25086004Y-69062429D01*
X24811816Y-68993700D01*
X24529488Y-68979783D01*
X24249870Y-69021213D01*
X23983708Y-69116397D01*
X23858486Y-69183329D01*
X23786903Y-69427298D01*
X23230759Y-69427298D01*
X23237000Y-69395924D01*
X23237000Y-69164076D01*
X23191769Y-68936682D01*
X23103044Y-68722481D01*
X22974236Y-68529706D01*
X22810294Y-68365764D01*
X22692862Y-68287298D01*
X26326903Y-68287298D01*
X27140000Y-69100395D01*
X27154143Y-69086253D01*
X27333748Y-69265858D01*
X27319605Y-69280000D01*
X28132702Y-70093097D01*
X28376671Y-70021514D01*
X28497571Y-69766004D01*
X28566300Y-69491816D01*
X28566703Y-69483639D01*
X32737591Y-69483639D01*
X32782511Y-69822439D01*
X32892664Y-70145966D01*
X32998662Y-70344274D01*
X33273288Y-70452107D01*
X34300395Y-69425000D01*
X34659605Y-69425000D01*
X35686712Y-70452107D01*
X35961338Y-70344274D01*
X36112216Y-70037616D01*
X36200369Y-69707415D01*
X36222409Y-69366361D01*
X36177489Y-69027561D01*
X36067336Y-68704034D01*
X35961338Y-68505726D01*
X35686712Y-68397893D01*
X34659605Y-69425000D01*
X34300395Y-69425000D01*
X33273288Y-68397893D01*
X32998662Y-68505726D01*
X32847784Y-68812384D01*
X32759631Y-69142585D01*
X32737591Y-69483639D01*
X28566703Y-69483639D01*
X28580217Y-69209488D01*
X28554774Y-69037770D01*
X28787384Y-69152216D01*
X29117585Y-69240369D01*
X29458639Y-69262409D01*
X29797439Y-69217489D01*
X30120966Y-69107336D01*
X30319274Y-69001338D01*
X30427107Y-68726712D01*
X29400000Y-67699605D01*
X29385858Y-67713748D01*
X29206253Y-67534143D01*
X29220395Y-67520000D01*
X29579605Y-67520000D01*
X30606712Y-68547107D01*
X30881338Y-68439274D01*
X30990064Y-68218288D01*
X33452893Y-68218288D01*
X34480000Y-69245395D01*
X35507107Y-68218288D01*
X35399274Y-67943662D01*
X35092616Y-67792784D01*
X34762415Y-67704631D01*
X34421361Y-67682591D01*
X34082561Y-67727511D01*
X33759034Y-67837664D01*
X33560726Y-67943662D01*
X33452893Y-68218288D01*
X30990064Y-68218288D01*
X31032216Y-68132616D01*
X31120369Y-67802415D01*
X31142409Y-67461361D01*
X31097489Y-67122561D01*
X30987336Y-66799034D01*
X30881338Y-66600726D01*
X30606712Y-66492893D01*
X29579605Y-67520000D01*
X29220395Y-67520000D01*
X28193288Y-66492893D01*
X27918662Y-66600726D01*
X27767784Y-66907384D01*
X27679631Y-67237585D01*
X27657591Y-67578639D01*
X27702511Y-67917439D01*
X27719229Y-67966540D01*
X27626004Y-67922429D01*
X27351816Y-67853700D01*
X27069488Y-67839783D01*
X26789870Y-67881213D01*
X26523708Y-67976397D01*
X26398486Y-68043329D01*
X26326903Y-68287298D01*
X22692862Y-68287298D01*
X22617519Y-68236956D01*
X22403318Y-68148231D01*
X22175924Y-68103000D01*
X21944076Y-68103000D01*
X21716682Y-68148231D01*
X21502481Y-68236956D01*
X21309706Y-68365764D01*
X21145764Y-68529706D01*
X21027000Y-68707449D01*
X21027000Y-66313288D01*
X28372893Y-66313288D01*
X29400000Y-67340395D01*
X30427107Y-66313288D01*
X30319274Y-66038662D01*
X30012616Y-65887784D01*
X29682415Y-65799631D01*
X29341361Y-65777591D01*
X29002561Y-65822511D01*
X28679034Y-65932664D01*
X28480726Y-66038662D01*
X28372893Y-66313288D01*
X21027000Y-66313288D01*
X21027000Y-65469528D01*
X33003000Y-65469528D01*
X33003000Y-65760472D01*
X33059760Y-66045825D01*
X33171099Y-66314622D01*
X33332739Y-66556533D01*
X33538467Y-66762261D01*
X33780378Y-66923901D01*
X34049175Y-67035240D01*
X34334528Y-67092000D01*
X34625472Y-67092000D01*
X34910825Y-67035240D01*
X35179622Y-66923901D01*
X35421533Y-66762261D01*
X35627261Y-66556533D01*
X35788901Y-66314622D01*
X35900240Y-66045825D01*
X35957000Y-65760472D01*
X35957000Y-65469528D01*
X35900240Y-65184175D01*
X35788901Y-64915378D01*
X35627261Y-64673467D01*
X35421533Y-64467739D01*
X35179622Y-64306099D01*
X34910825Y-64194760D01*
X34625472Y-64138000D01*
X34334528Y-64138000D01*
X34049175Y-64194760D01*
X33780378Y-64306099D01*
X33538467Y-64467739D01*
X33332739Y-64673467D01*
X33171099Y-64915378D01*
X33059760Y-65184175D01*
X33003000Y-65469528D01*
X21027000Y-65469528D01*
X21027000Y-63645340D01*
X22754265Y-63645340D01*
X23000416Y-64037704D01*
X23502822Y-64303312D01*
X24047393Y-64465801D01*
X24613199Y-64518928D01*
X25178498Y-64460652D01*
X25721566Y-64293210D01*
X26199584Y-64037704D01*
X26445735Y-63645340D01*
X26364923Y-63564528D01*
X27923000Y-63564528D01*
X27923000Y-63855472D01*
X27979760Y-64140825D01*
X28091099Y-64409622D01*
X28252739Y-64651533D01*
X28458467Y-64857261D01*
X28700378Y-65018901D01*
X28969175Y-65130240D01*
X29254528Y-65187000D01*
X29545472Y-65187000D01*
X29830825Y-65130240D01*
X30099622Y-65018901D01*
X30341533Y-64857261D01*
X30547261Y-64651533D01*
X30708901Y-64409622D01*
X30820240Y-64140825D01*
X30868142Y-63900000D01*
X57795573Y-63900000D01*
X57798001Y-63924653D01*
X57798000Y-82209672D01*
X57795573Y-82234315D01*
X57798000Y-82258958D01*
X57798000Y-82258967D01*
X57805264Y-82332723D01*
X57833969Y-82427350D01*
X57880583Y-82514560D01*
X57943316Y-82590999D01*
X57962467Y-82606716D01*
X58482035Y-83126285D01*
X58411431Y-83231952D01*
X58352859Y-83373357D01*
X58323000Y-83523472D01*
X58323000Y-83676528D01*
X58352859Y-83826643D01*
X58411431Y-83968048D01*
X58496464Y-84095309D01*
X58604691Y-84203536D01*
X58731952Y-84288569D01*
X58873357Y-84347141D01*
X59023472Y-84377000D01*
X59176528Y-84377000D01*
X59326643Y-84347141D01*
X59468048Y-84288569D01*
X59595309Y-84203536D01*
X59703536Y-84095309D01*
X59788569Y-83968048D01*
X59847141Y-83826643D01*
X59877000Y-83676528D01*
X59877000Y-83523472D01*
X59847141Y-83373357D01*
X59837467Y-83350000D01*
X64017064Y-83350000D01*
X64040755Y-83590534D01*
X64110916Y-83821824D01*
X64224851Y-84034983D01*
X64378183Y-84221817D01*
X64565017Y-84375149D01*
X64778176Y-84489084D01*
X65009466Y-84559245D01*
X65189732Y-84577000D01*
X67010268Y-84577000D01*
X67190534Y-84559245D01*
X67421824Y-84489084D01*
X67634983Y-84375149D01*
X67821817Y-84221817D01*
X67975149Y-84034983D01*
X68089084Y-83821824D01*
X68159245Y-83590534D01*
X68182936Y-83350000D01*
X68159245Y-83109466D01*
X68089084Y-82878176D01*
X67975149Y-82665017D01*
X67821817Y-82478183D01*
X67634983Y-82324851D01*
X67421824Y-82210916D01*
X67190534Y-82140755D01*
X67010268Y-82123000D01*
X65189732Y-82123000D01*
X65009466Y-82140755D01*
X64778176Y-82210916D01*
X64565017Y-82324851D01*
X64378183Y-82478183D01*
X64224851Y-82665017D01*
X64110916Y-82878176D01*
X64040755Y-83109466D01*
X64017064Y-83350000D01*
X59837467Y-83350000D01*
X59788569Y-83231952D01*
X59703536Y-83104691D01*
X59601289Y-83002444D01*
X59594736Y-82935906D01*
X59566031Y-82841279D01*
X59519417Y-82754070D01*
X59506838Y-82738743D01*
X59472400Y-82696779D01*
X59472392Y-82696771D01*
X59456684Y-82677631D01*
X59437543Y-82661922D01*
X58802000Y-82026381D01*
X58802000Y-79893531D01*
X59519000Y-79893531D01*
X59519000Y-80106469D01*
X59560543Y-80315316D01*
X59642031Y-80512045D01*
X59760333Y-80689097D01*
X59910903Y-80839667D01*
X60087955Y-80957969D01*
X60284684Y-81039457D01*
X60493531Y-81081000D01*
X60706469Y-81081000D01*
X60915316Y-81039457D01*
X61112045Y-80957969D01*
X61162691Y-80924128D01*
X62355477Y-80924128D01*
X62415423Y-81158305D01*
X62654551Y-81269602D01*
X62910797Y-81332109D01*
X63174314Y-81343425D01*
X63434976Y-81303114D01*
X63682764Y-81212724D01*
X63784577Y-81158305D01*
X63844523Y-80924128D01*
X63100000Y-80179605D01*
X62355477Y-80924128D01*
X61162691Y-80924128D01*
X61289097Y-80839667D01*
X61439667Y-80689097D01*
X61557969Y-80512045D01*
X61639457Y-80315316D01*
X61681000Y-80106469D01*
X61681000Y-80074314D01*
X61756575Y-80074314D01*
X61796886Y-80334976D01*
X61887276Y-80582764D01*
X61941695Y-80684577D01*
X62175872Y-80744523D01*
X62920395Y-80000000D01*
X63279605Y-80000000D01*
X64024128Y-80744523D01*
X64258305Y-80684577D01*
X64369602Y-80445449D01*
X64432109Y-80189203D01*
X64443425Y-79925686D01*
X64403114Y-79665024D01*
X64312724Y-79417236D01*
X64258305Y-79315423D01*
X64024128Y-79255477D01*
X63279605Y-80000000D01*
X62920395Y-80000000D01*
X62175872Y-79255477D01*
X61941695Y-79315423D01*
X61830398Y-79554551D01*
X61767891Y-79810797D01*
X61756575Y-80074314D01*
X61681000Y-80074314D01*
X61681000Y-79893531D01*
X61639457Y-79684684D01*
X61557969Y-79487955D01*
X61439667Y-79310903D01*
X61289097Y-79160333D01*
X61162692Y-79075872D01*
X62355477Y-79075872D01*
X63100000Y-79820395D01*
X63844523Y-79075872D01*
X63784577Y-78841695D01*
X63545449Y-78730398D01*
X63289203Y-78667891D01*
X63025686Y-78656575D01*
X62765024Y-78696886D01*
X62517236Y-78787276D01*
X62415423Y-78841695D01*
X62355477Y-79075872D01*
X61162692Y-79075872D01*
X61112045Y-79042031D01*
X60915316Y-78960543D01*
X60706469Y-78919000D01*
X60493531Y-78919000D01*
X60284684Y-78960543D01*
X60087955Y-79042031D01*
X59910903Y-79160333D01*
X59760333Y-79310903D01*
X59642031Y-79487955D01*
X59560543Y-79684684D01*
X59519000Y-79893531D01*
X58802000Y-79893531D01*
X58802000Y-75689733D01*
X65673000Y-75689733D01*
X65673000Y-77510268D01*
X65690756Y-77690534D01*
X65760917Y-77921824D01*
X65874852Y-78134983D01*
X66028184Y-78321817D01*
X66215018Y-78475149D01*
X66428177Y-78589084D01*
X66659467Y-78659245D01*
X66900000Y-78682936D01*
X67140534Y-78659245D01*
X67371824Y-78589084D01*
X67584983Y-78475149D01*
X67771817Y-78321817D01*
X67925149Y-78134983D01*
X68039084Y-77921824D01*
X68109245Y-77690534D01*
X68127000Y-77510268D01*
X68127000Y-75689732D01*
X68109245Y-75509466D01*
X68039084Y-75278176D01*
X67925149Y-75065017D01*
X67771817Y-74878183D01*
X67584982Y-74724851D01*
X67371823Y-74610916D01*
X67140533Y-74540755D01*
X66900000Y-74517064D01*
X66659466Y-74540755D01*
X66428176Y-74610916D01*
X66215017Y-74724851D01*
X66028183Y-74878183D01*
X65874851Y-75065018D01*
X65760916Y-75278177D01*
X65690755Y-75509467D01*
X65673000Y-75689733D01*
X58802000Y-75689733D01*
X58802000Y-73093531D01*
X59519000Y-73093531D01*
X59519000Y-73306469D01*
X59560543Y-73515316D01*
X59642031Y-73712045D01*
X59760333Y-73889097D01*
X59910903Y-74039667D01*
X60087955Y-74157969D01*
X60284684Y-74239457D01*
X60493531Y-74281000D01*
X60706469Y-74281000D01*
X60915316Y-74239457D01*
X61112045Y-74157969D01*
X61289097Y-74039667D01*
X61424764Y-73904000D01*
X61757928Y-73904000D01*
X61770188Y-74028482D01*
X61806498Y-74148180D01*
X61865463Y-74258494D01*
X61944815Y-74355185D01*
X62041506Y-74434537D01*
X62151820Y-74493502D01*
X62271518Y-74529812D01*
X62396000Y-74542072D01*
X62814250Y-74539000D01*
X62973000Y-74380250D01*
X62973000Y-73327000D01*
X63227000Y-73327000D01*
X63227000Y-74380250D01*
X63385750Y-74539000D01*
X63804000Y-74542072D01*
X63928482Y-74529812D01*
X64048180Y-74493502D01*
X64158494Y-74434537D01*
X64255185Y-74355185D01*
X64334537Y-74258494D01*
X64393502Y-74148180D01*
X64429812Y-74028482D01*
X64442072Y-73904000D01*
X64439000Y-73485750D01*
X64280250Y-73327000D01*
X63227000Y-73327000D01*
X62973000Y-73327000D01*
X61919750Y-73327000D01*
X61761000Y-73485750D01*
X61757928Y-73904000D01*
X61424764Y-73904000D01*
X61439667Y-73889097D01*
X61557969Y-73712045D01*
X61639457Y-73515316D01*
X61681000Y-73306469D01*
X61681000Y-73093531D01*
X61639457Y-72884684D01*
X61557969Y-72687955D01*
X61439667Y-72510903D01*
X61424764Y-72496000D01*
X61757928Y-72496000D01*
X61761000Y-72914250D01*
X61919750Y-73073000D01*
X62973000Y-73073000D01*
X62973000Y-72019750D01*
X63227000Y-72019750D01*
X63227000Y-73073000D01*
X64280250Y-73073000D01*
X64439000Y-72914250D01*
X64442072Y-72496000D01*
X64429812Y-72371518D01*
X64393502Y-72251820D01*
X64334537Y-72141506D01*
X64255185Y-72044815D01*
X64158494Y-71965463D01*
X64048180Y-71906498D01*
X63928482Y-71870188D01*
X63804000Y-71857928D01*
X63385750Y-71861000D01*
X63227000Y-72019750D01*
X62973000Y-72019750D01*
X62814250Y-71861000D01*
X62396000Y-71857928D01*
X62271518Y-71870188D01*
X62151820Y-71906498D01*
X62041506Y-71965463D01*
X61944815Y-72044815D01*
X61865463Y-72141506D01*
X61806498Y-72251820D01*
X61770188Y-72371518D01*
X61757928Y-72496000D01*
X61424764Y-72496000D01*
X61289097Y-72360333D01*
X61112045Y-72242031D01*
X60915316Y-72160543D01*
X60706469Y-72119000D01*
X60493531Y-72119000D01*
X60284684Y-72160543D01*
X60087955Y-72242031D01*
X59910903Y-72360333D01*
X59760333Y-72510903D01*
X59642031Y-72687955D01*
X59560543Y-72884684D01*
X59519000Y-73093531D01*
X58802000Y-73093531D01*
X58802000Y-69850000D01*
X64017064Y-69850000D01*
X64040755Y-70090534D01*
X64110916Y-70321824D01*
X64224851Y-70534983D01*
X64378183Y-70721817D01*
X64565017Y-70875149D01*
X64778176Y-70989084D01*
X65009466Y-71059245D01*
X65189732Y-71077000D01*
X67010268Y-71077000D01*
X67190534Y-71059245D01*
X67421824Y-70989084D01*
X67634983Y-70875149D01*
X67821817Y-70721817D01*
X67975149Y-70534983D01*
X68089084Y-70321824D01*
X68159245Y-70090534D01*
X68182936Y-69850000D01*
X68159245Y-69609466D01*
X68089084Y-69378176D01*
X67975149Y-69165017D01*
X67821817Y-68978183D01*
X67634983Y-68824851D01*
X67421824Y-68710916D01*
X67190534Y-68640755D01*
X67010268Y-68623000D01*
X65189732Y-68623000D01*
X65009466Y-68640755D01*
X64778176Y-68710916D01*
X64565017Y-68824851D01*
X64378183Y-68978183D01*
X64224851Y-69165017D01*
X64110916Y-69378176D01*
X64040755Y-69609466D01*
X64017064Y-69850000D01*
X58802000Y-69850000D01*
X58802000Y-64107934D01*
X60472333Y-62437602D01*
X60510907Y-62463376D01*
X60852499Y-62604868D01*
X61215132Y-62677000D01*
X61584868Y-62677000D01*
X61947501Y-62604868D01*
X62289093Y-62463376D01*
X62596518Y-62257961D01*
X62857961Y-61996518D01*
X63063376Y-61689093D01*
X63204868Y-61347501D01*
X63222505Y-61258833D01*
X63814883Y-61258833D01*
X63944462Y-61656803D01*
X64149191Y-62021846D01*
X64421203Y-62339934D01*
X64750044Y-62598844D01*
X65123077Y-62788625D01*
X65441167Y-62885113D01*
X65773000Y-62772165D01*
X65773000Y-60927000D01*
X66027000Y-60927000D01*
X66027000Y-62772165D01*
X66358833Y-62885113D01*
X66676923Y-62788625D01*
X67049956Y-62598844D01*
X67378797Y-62339934D01*
X67650809Y-62021846D01*
X67855538Y-61656803D01*
X67985117Y-61258833D01*
X67872473Y-60927000D01*
X66027000Y-60927000D01*
X65773000Y-60927000D01*
X63927527Y-60927000D01*
X63814883Y-61258833D01*
X63222505Y-61258833D01*
X63277000Y-60984868D01*
X63277000Y-60615132D01*
X63222506Y-60341167D01*
X63814883Y-60341167D01*
X63927527Y-60673000D01*
X65773000Y-60673000D01*
X65773000Y-58827835D01*
X66027000Y-58827835D01*
X66027000Y-60673000D01*
X67872473Y-60673000D01*
X67985117Y-60341167D01*
X67855538Y-59943197D01*
X67650809Y-59578154D01*
X67378797Y-59260066D01*
X67049956Y-59001156D01*
X66676923Y-58811375D01*
X66358833Y-58714887D01*
X66027000Y-58827835D01*
X65773000Y-58827835D01*
X65441167Y-58714887D01*
X65123077Y-58811375D01*
X64750044Y-59001156D01*
X64421203Y-59260066D01*
X64149191Y-59578154D01*
X63944462Y-59943197D01*
X63814883Y-60341167D01*
X63222506Y-60341167D01*
X63204868Y-60252499D01*
X63063376Y-59910907D01*
X62857961Y-59603482D01*
X62596518Y-59342039D01*
X62289093Y-59136624D01*
X61947501Y-58995132D01*
X61584868Y-58923000D01*
X61215132Y-58923000D01*
X60852499Y-58995132D01*
X60510907Y-59136624D01*
X60203482Y-59342039D01*
X59942039Y-59603482D01*
X59736624Y-59910907D01*
X59595132Y-60252499D01*
X59523000Y-60615132D01*
X59523000Y-60984868D01*
X59595132Y-61347501D01*
X59736624Y-61689093D01*
X59762398Y-61727667D01*
X57962463Y-63527603D01*
X57943317Y-63543316D01*
X57927604Y-63562462D01*
X57927601Y-63562465D01*
X57880584Y-63619755D01*
X57833970Y-63706964D01*
X57805265Y-63801591D01*
X57795573Y-63900000D01*
X30868142Y-63900000D01*
X30877000Y-63855472D01*
X30877000Y-63564528D01*
X30820240Y-63279175D01*
X30709454Y-63011712D01*
X33452893Y-63011712D01*
X33560726Y-63286338D01*
X33867384Y-63437216D01*
X34197585Y-63525369D01*
X34538639Y-63547409D01*
X34877439Y-63502489D01*
X35200966Y-63392336D01*
X35399274Y-63286338D01*
X35507107Y-63011712D01*
X34480000Y-61984605D01*
X33452893Y-63011712D01*
X30709454Y-63011712D01*
X30708901Y-63010378D01*
X30547261Y-62768467D01*
X30341533Y-62562739D01*
X30099622Y-62401099D01*
X29830825Y-62289760D01*
X29545472Y-62233000D01*
X29254528Y-62233000D01*
X28969175Y-62289760D01*
X28700378Y-62401099D01*
X28458467Y-62562739D01*
X28252739Y-62768467D01*
X28091099Y-63010378D01*
X27979760Y-63279175D01*
X27923000Y-63564528D01*
X26364923Y-63564528D01*
X24600000Y-61799605D01*
X22754265Y-63645340D01*
X21027000Y-63645340D01*
X21027000Y-61633199D01*
X21701072Y-61633199D01*
X21759348Y-62198498D01*
X21926790Y-62741566D01*
X22182296Y-63219584D01*
X22574660Y-63465735D01*
X24420395Y-61620000D01*
X24779605Y-61620000D01*
X26625340Y-63465735D01*
X27017704Y-63219584D01*
X27283312Y-62717178D01*
X27445801Y-62172607D01*
X27474811Y-61863639D01*
X32737591Y-61863639D01*
X32782511Y-62202439D01*
X32892664Y-62525966D01*
X32998662Y-62724274D01*
X33273288Y-62832107D01*
X34300395Y-61805000D01*
X34659605Y-61805000D01*
X35686712Y-62832107D01*
X35961338Y-62724274D01*
X36112216Y-62417616D01*
X36200369Y-62087415D01*
X36222409Y-61746361D01*
X36177489Y-61407561D01*
X36067336Y-61084034D01*
X35961338Y-60885726D01*
X35686712Y-60777893D01*
X34659605Y-61805000D01*
X34300395Y-61805000D01*
X33273288Y-60777893D01*
X32998662Y-60885726D01*
X32847784Y-61192384D01*
X32759631Y-61522585D01*
X32737591Y-61863639D01*
X27474811Y-61863639D01*
X27498928Y-61606801D01*
X27440652Y-61041502D01*
X27303998Y-60598288D01*
X33452893Y-60598288D01*
X34480000Y-61625395D01*
X35507107Y-60598288D01*
X35399274Y-60323662D01*
X35092616Y-60172784D01*
X34762415Y-60084631D01*
X34421361Y-60062591D01*
X34082561Y-60107511D01*
X33759034Y-60217664D01*
X33560726Y-60323662D01*
X33452893Y-60598288D01*
X27303998Y-60598288D01*
X27273210Y-60498434D01*
X27017704Y-60020416D01*
X26625340Y-59774265D01*
X24779605Y-61620000D01*
X24420395Y-61620000D01*
X22574660Y-59774265D01*
X22182296Y-60020416D01*
X21916688Y-60522822D01*
X21754199Y-61067393D01*
X21701072Y-61633199D01*
X21027000Y-61633199D01*
X21027000Y-59594660D01*
X22754265Y-59594660D01*
X24600000Y-61440395D01*
X26445735Y-59594660D01*
X26199584Y-59202296D01*
X25697178Y-58936688D01*
X25152607Y-58774199D01*
X24586801Y-58721072D01*
X24021502Y-58779348D01*
X23478434Y-58946790D01*
X23000416Y-59202296D01*
X22754265Y-59594660D01*
X21027000Y-59594660D01*
X21027000Y-54765886D01*
X24823000Y-54765886D01*
X24823000Y-55234114D01*
X24914347Y-55693345D01*
X25093530Y-56125932D01*
X25353664Y-56515249D01*
X25684751Y-56846336D01*
X26074068Y-57106470D01*
X26506655Y-57285653D01*
X26965886Y-57377000D01*
X27434114Y-57377000D01*
X27893345Y-57285653D01*
X28325932Y-57106470D01*
X28715249Y-56846336D01*
X29046336Y-56515249D01*
X29306470Y-56125932D01*
X29485653Y-55693345D01*
X29577000Y-55234114D01*
X29577000Y-54765886D01*
X29485653Y-54306655D01*
X29306470Y-53874068D01*
X29046336Y-53484751D01*
X28715249Y-53153664D01*
X28325932Y-52893530D01*
X27893345Y-52714347D01*
X27434114Y-52623000D01*
X26965886Y-52623000D01*
X26506655Y-52714347D01*
X26074068Y-52893530D01*
X25684751Y-53153664D01*
X25353664Y-53484751D01*
X25093530Y-53874068D01*
X24914347Y-54306655D01*
X24823000Y-54765886D01*
X21027000Y-54765886D01*
X21027000Y-53105000D01*
X21427000Y-53105000D01*
X21655742Y-53057454D01*
X21870813Y-52966196D01*
X22063948Y-52834734D01*
X22227725Y-52668119D01*
X22355850Y-52472754D01*
X22443399Y-52256147D01*
X22443803Y-52229744D01*
X23356197Y-52229744D01*
X23356601Y-52256147D01*
X23444150Y-52472754D01*
X23572275Y-52668119D01*
X23736052Y-52834734D01*
X23929187Y-52966196D01*
X24144258Y-53057454D01*
X24373000Y-53105000D01*
X24673000Y-53105000D01*
X24673000Y-52047000D01*
X24927000Y-52047000D01*
X24927000Y-53105000D01*
X25227000Y-53105000D01*
X25455742Y-53057454D01*
X25670813Y-52966196D01*
X25863948Y-52834734D01*
X26027725Y-52668119D01*
X26155850Y-52472754D01*
X26243399Y-52256147D01*
X26243803Y-52229744D01*
X26118361Y-52047000D01*
X24927000Y-52047000D01*
X24673000Y-52047000D01*
X23481639Y-52047000D01*
X23356197Y-52229744D01*
X22443803Y-52229744D01*
X22318361Y-52047000D01*
X21127000Y-52047000D01*
X21127000Y-52067000D01*
X21027000Y-52067000D01*
X21027000Y-51773000D01*
X21127000Y-51773000D01*
X21127000Y-51793000D01*
X22318361Y-51793000D01*
X22443803Y-51610256D01*
X23356197Y-51610256D01*
X23481639Y-51793000D01*
X24673000Y-51793000D01*
X24673000Y-50735000D01*
X24927000Y-50735000D01*
X24927000Y-51793000D01*
X26118361Y-51793000D01*
X26243803Y-51610256D01*
X26243399Y-51583853D01*
X26155850Y-51367246D01*
X26027725Y-51171881D01*
X25863948Y-51005266D01*
X25670813Y-50873804D01*
X25455742Y-50782546D01*
X25227000Y-50735000D01*
X24927000Y-50735000D01*
X24673000Y-50735000D01*
X24373000Y-50735000D01*
X24144258Y-50782546D01*
X23929187Y-50873804D01*
X23736052Y-51005266D01*
X23572275Y-51171881D01*
X23444150Y-51367246D01*
X23356601Y-51583853D01*
X23356197Y-51610256D01*
X22443803Y-51610256D01*
X22443399Y-51583853D01*
X22355850Y-51367246D01*
X22227725Y-51171881D01*
X22063948Y-51005266D01*
X21870813Y-50873804D01*
X21655742Y-50782546D01*
X21427000Y-50735000D01*
X21027000Y-50735000D01*
X21027000Y-44465000D01*
X21427000Y-44465000D01*
X21655742Y-44417454D01*
X21870813Y-44326196D01*
X22063948Y-44194734D01*
X22227725Y-44028119D01*
X22355850Y-43832754D01*
X22443399Y-43616147D01*
X22443803Y-43589744D01*
X23356197Y-43589744D01*
X23356601Y-43616147D01*
X23444150Y-43832754D01*
X23572275Y-44028119D01*
X23736052Y-44194734D01*
X23929187Y-44326196D01*
X24144258Y-44417454D01*
X24373000Y-44465000D01*
X24673000Y-44465000D01*
X24673000Y-43407000D01*
X24927000Y-43407000D01*
X24927000Y-44465000D01*
X25227000Y-44465000D01*
X25455742Y-44417454D01*
X25670813Y-44326196D01*
X25863948Y-44194734D01*
X26027725Y-44028119D01*
X26155850Y-43832754D01*
X26243399Y-43616147D01*
X26243803Y-43589744D01*
X26118361Y-43407000D01*
X24927000Y-43407000D01*
X24673000Y-43407000D01*
X23481639Y-43407000D01*
X23356197Y-43589744D01*
X22443803Y-43589744D01*
X22318361Y-43407000D01*
X21127000Y-43407000D01*
X21127000Y-43427000D01*
X21027000Y-43427000D01*
X21027000Y-43133000D01*
X21127000Y-43133000D01*
X21127000Y-43153000D01*
X22318361Y-43153000D01*
X22443803Y-42970256D01*
X23356197Y-42970256D01*
X23481639Y-43153000D01*
X24673000Y-43153000D01*
X24673000Y-42095000D01*
X24927000Y-42095000D01*
X24927000Y-43153000D01*
X26118361Y-43153000D01*
X26243803Y-42970256D01*
X26243399Y-42943853D01*
X26155850Y-42727246D01*
X26027725Y-42531881D01*
X25863948Y-42365266D01*
X25670813Y-42233804D01*
X25455742Y-42142546D01*
X25227000Y-42095000D01*
X24927000Y-42095000D01*
X24673000Y-42095000D01*
X24373000Y-42095000D01*
X24144258Y-42142546D01*
X23929187Y-42233804D01*
X23736052Y-42365266D01*
X23572275Y-42531881D01*
X23444150Y-42727246D01*
X23356601Y-42943853D01*
X23356197Y-42970256D01*
X22443803Y-42970256D01*
X22443399Y-42943853D01*
X22355850Y-42727246D01*
X22227725Y-42531881D01*
X22063948Y-42365266D01*
X21870813Y-42233804D01*
X21655742Y-42142546D01*
X21427000Y-42095000D01*
X21027000Y-42095000D01*
X21027000Y-41127000D01*
X68773000Y-41127000D01*
X68773000Y-55099162D01*
G37*
X68773000Y-55099162D02*
X68619175Y-55129760D01*
X68350378Y-55241099D01*
X68108467Y-55402739D01*
X67902739Y-55608467D01*
X67741099Y-55850378D01*
X67629760Y-56119175D01*
X67573000Y-56404528D01*
X67573000Y-56695472D01*
X67629760Y-56980825D01*
X67741099Y-57249622D01*
X67902739Y-57491533D01*
X68108467Y-57697261D01*
X68350378Y-57858901D01*
X68619175Y-57970240D01*
X68773000Y-58000838D01*
X68773000Y-63599162D01*
X68619175Y-63629760D01*
X68350378Y-63741099D01*
X68108467Y-63902739D01*
X67902739Y-64108467D01*
X67741099Y-64350378D01*
X67629760Y-64619175D01*
X67573000Y-64904528D01*
X67573000Y-65195472D01*
X67629760Y-65480825D01*
X67741099Y-65749622D01*
X67902739Y-65991533D01*
X68108467Y-66197261D01*
X68350378Y-66358901D01*
X68619175Y-66470240D01*
X68773000Y-66500838D01*
X68773000Y-84873000D01*
X68704528Y-84873000D01*
X68419175Y-84929760D01*
X68150378Y-85041099D01*
X67908467Y-85202739D01*
X67702739Y-85408467D01*
X67541099Y-85650378D01*
X67429760Y-85919175D01*
X67373000Y-86204528D01*
X67373000Y-86495472D01*
X67429760Y-86780825D01*
X67541099Y-87049622D01*
X67702739Y-87291533D01*
X67908467Y-87497261D01*
X68150378Y-87658901D01*
X68419175Y-87770240D01*
X68704528Y-87827000D01*
X68773000Y-87827000D01*
X68773000Y-93373000D01*
X68704528Y-93373000D01*
X68419175Y-93429760D01*
X68150378Y-93541099D01*
X67908467Y-93702739D01*
X67702739Y-93908467D01*
X67541099Y-94150378D01*
X67429760Y-94419175D01*
X67373000Y-94704528D01*
X67373000Y-94995472D01*
X67429760Y-95280825D01*
X67541099Y-95549622D01*
X67702739Y-95791533D01*
X67908467Y-95997261D01*
X68150378Y-96158901D01*
X68419175Y-96270240D01*
X68704528Y-96327000D01*
X68773000Y-96327000D01*
X68773000Y-97893000D01*
X68704528Y-97893000D01*
X68419175Y-97949760D01*
X68150378Y-98061099D01*
X67908467Y-98222739D01*
X67702739Y-98428467D01*
X67541099Y-98670378D01*
X67429760Y-98939175D01*
X67373000Y-99224528D01*
X67373000Y-99515472D01*
X67429760Y-99800825D01*
X67541099Y-100069622D01*
X67702739Y-100311533D01*
X67908467Y-100517261D01*
X68150378Y-100678901D01*
X68419175Y-100790240D01*
X68704528Y-100847000D01*
X68773000Y-100847000D01*
X68773000Y-106393000D01*
X68704528Y-106393000D01*
X68419175Y-106449760D01*
X68150378Y-106561099D01*
X67908467Y-106722739D01*
X67702739Y-106928467D01*
X67541099Y-107170378D01*
X67429760Y-107439175D01*
X67373000Y-107724528D01*
X67373000Y-108015472D01*
X67429760Y-108300825D01*
X67541099Y-108569622D01*
X67702739Y-108811533D01*
X67764206Y-108873000D01*
X28958585Y-108873000D01*
X29046336Y-108785249D01*
X29306470Y-108395932D01*
X29485653Y-107963345D01*
X29577000Y-107504114D01*
X29577000Y-107035886D01*
X29485653Y-106576655D01*
X29306470Y-106144068D01*
X29046336Y-105754751D01*
X28715249Y-105423664D01*
X28325932Y-105163530D01*
X27893345Y-104984347D01*
X27434114Y-104893000D01*
X26965886Y-104893000D01*
X26506655Y-104984347D01*
X26074068Y-105163530D01*
X25684751Y-105423664D01*
X25353664Y-105754751D01*
X25093530Y-106144068D01*
X24914347Y-106576655D01*
X24823000Y-107035886D01*
X24823000Y-107504114D01*
X24914347Y-107963345D01*
X25093530Y-108395932D01*
X25353664Y-108785249D01*
X25441415Y-108873000D01*
X21027000Y-108873000D01*
X21027000Y-103435132D01*
X59323000Y-103435132D01*
X59323000Y-103804868D01*
X59395132Y-104167501D01*
X59536624Y-104509093D01*
X59742039Y-104816518D01*
X60003482Y-105077961D01*
X60310907Y-105283376D01*
X60652499Y-105424868D01*
X61015132Y-105497000D01*
X61384868Y-105497000D01*
X61747501Y-105424868D01*
X62089093Y-105283376D01*
X62396518Y-105077961D01*
X62657961Y-104816518D01*
X62863376Y-104509093D01*
X63004868Y-104167501D01*
X63022505Y-104078833D01*
X63614883Y-104078833D01*
X63744462Y-104476803D01*
X63949191Y-104841846D01*
X64221203Y-105159934D01*
X64550044Y-105418844D01*
X64923077Y-105608625D01*
X65241167Y-105705113D01*
X65573000Y-105592165D01*
X65573000Y-103747000D01*
X65827000Y-103747000D01*
X65827000Y-105592165D01*
X66158833Y-105705113D01*
X66476923Y-105608625D01*
X66849956Y-105418844D01*
X67178797Y-105159934D01*
X67450809Y-104841846D01*
X67655538Y-104476803D01*
X67785117Y-104078833D01*
X67672473Y-103747000D01*
X65827000Y-103747000D01*
X65573000Y-103747000D01*
X63727527Y-103747000D01*
X63614883Y-104078833D01*
X63022505Y-104078833D01*
X63077000Y-103804868D01*
X63077000Y-103435132D01*
X63022506Y-103161167D01*
X63614883Y-103161167D01*
X63727527Y-103493000D01*
X65573000Y-103493000D01*
X65573000Y-101647835D01*
X65827000Y-101647835D01*
X65827000Y-103493000D01*
X67672473Y-103493000D01*
X67785117Y-103161167D01*
X67655538Y-102763197D01*
X67450809Y-102398154D01*
X67178797Y-102080066D01*
X66849956Y-101821156D01*
X66476923Y-101631375D01*
X66158833Y-101534887D01*
X65827000Y-101647835D01*
X65573000Y-101647835D01*
X65241167Y-101534887D01*
X64923077Y-101631375D01*
X64550044Y-101821156D01*
X64221203Y-102080066D01*
X63949191Y-102398154D01*
X63744462Y-102763197D01*
X63614883Y-103161167D01*
X63022506Y-103161167D01*
X63004868Y-103072499D01*
X62863376Y-102730907D01*
X62657961Y-102423482D01*
X62396518Y-102162039D01*
X62089093Y-101956624D01*
X61747501Y-101815132D01*
X61384868Y-101743000D01*
X61015132Y-101743000D01*
X60652499Y-101815132D01*
X60310907Y-101956624D01*
X60003482Y-102162039D01*
X59742039Y-102423482D01*
X59536624Y-102730907D01*
X59395132Y-103072499D01*
X59323000Y-103435132D01*
X21027000Y-103435132D01*
X21027000Y-99759528D01*
X33003000Y-99759528D01*
X33003000Y-100050472D01*
X33059760Y-100335825D01*
X33171099Y-100604622D01*
X33332739Y-100846533D01*
X33538467Y-101052261D01*
X33780378Y-101213901D01*
X34049175Y-101325240D01*
X34334528Y-101382000D01*
X34625472Y-101382000D01*
X34910825Y-101325240D01*
X35179622Y-101213901D01*
X35421533Y-101052261D01*
X35627261Y-100846533D01*
X35788901Y-100604622D01*
X35900240Y-100335825D01*
X35957000Y-100050472D01*
X35957000Y-99759528D01*
X35900240Y-99474175D01*
X35788901Y-99205378D01*
X35627261Y-98963467D01*
X35421533Y-98757739D01*
X35179622Y-98596099D01*
X34910825Y-98484760D01*
X34625472Y-98428000D01*
X34334528Y-98428000D01*
X34049175Y-98484760D01*
X33780378Y-98596099D01*
X33538467Y-98757739D01*
X33332739Y-98963467D01*
X33171099Y-99205378D01*
X33059760Y-99474175D01*
X33003000Y-99759528D01*
X21027000Y-99759528D01*
X21027000Y-97854528D01*
X27923000Y-97854528D01*
X27923000Y-98145472D01*
X27979760Y-98430825D01*
X28091099Y-98699622D01*
X28252739Y-98941533D01*
X28458467Y-99147261D01*
X28700378Y-99308901D01*
X28969175Y-99420240D01*
X29254528Y-99477000D01*
X29545472Y-99477000D01*
X29830825Y-99420240D01*
X30099622Y-99308901D01*
X30341533Y-99147261D01*
X30547261Y-98941533D01*
X30708901Y-98699622D01*
X30820240Y-98430825D01*
X30877000Y-98145472D01*
X30877000Y-97854528D01*
X30820240Y-97569175D01*
X30708901Y-97300378D01*
X30547261Y-97058467D01*
X30341533Y-96852739D01*
X30099622Y-96691099D01*
X29830825Y-96579760D01*
X29545472Y-96523000D01*
X29254528Y-96523000D01*
X28969175Y-96579760D01*
X28700378Y-96691099D01*
X28458467Y-96852739D01*
X28252739Y-97058467D01*
X28091099Y-97300378D01*
X27979760Y-97569175D01*
X27923000Y-97854528D01*
X21027000Y-97854528D01*
X21027000Y-95949528D01*
X33003000Y-95949528D01*
X33003000Y-96240472D01*
X33059760Y-96525825D01*
X33171099Y-96794622D01*
X33332739Y-97036533D01*
X33538467Y-97242261D01*
X33780378Y-97403901D01*
X34049175Y-97515240D01*
X34334528Y-97572000D01*
X34625472Y-97572000D01*
X34910825Y-97515240D01*
X35179622Y-97403901D01*
X35421533Y-97242261D01*
X35627261Y-97036533D01*
X35788901Y-96794622D01*
X35900240Y-96525825D01*
X35957000Y-96240472D01*
X35957000Y-95949528D01*
X35900240Y-95664175D01*
X35788901Y-95395378D01*
X35627261Y-95153467D01*
X35421533Y-94947739D01*
X35179622Y-94786099D01*
X34910825Y-94674760D01*
X34625472Y-94618000D01*
X34334528Y-94618000D01*
X34049175Y-94674760D01*
X33780378Y-94786099D01*
X33538467Y-94947739D01*
X33332739Y-95153467D01*
X33171099Y-95395378D01*
X33059760Y-95664175D01*
X33003000Y-95949528D01*
X21027000Y-95949528D01*
X21027000Y-95396712D01*
X28372893Y-95396712D01*
X28480726Y-95671338D01*
X28787384Y-95822216D01*
X29117585Y-95910369D01*
X29458639Y-95932409D01*
X29797439Y-95887489D01*
X30120966Y-95777336D01*
X30319274Y-95671338D01*
X30427107Y-95396712D01*
X29400000Y-94369605D01*
X28372893Y-95396712D01*
X21027000Y-95396712D01*
X21027000Y-94248639D01*
X27657591Y-94248639D01*
X27702511Y-94587439D01*
X27812664Y-94910966D01*
X27918662Y-95109274D01*
X28193288Y-95217107D01*
X29220395Y-94190000D01*
X29579605Y-94190000D01*
X30606712Y-95217107D01*
X30881338Y-95109274D01*
X31032216Y-94802616D01*
X31120369Y-94472415D01*
X31142409Y-94131361D01*
X31097489Y-93792561D01*
X30995058Y-93491712D01*
X33452893Y-93491712D01*
X33560726Y-93766338D01*
X33867384Y-93917216D01*
X34197585Y-94005369D01*
X34538639Y-94027409D01*
X34877439Y-93982489D01*
X35200966Y-93872336D01*
X35399274Y-93766338D01*
X35507107Y-93491712D01*
X34480000Y-92464605D01*
X33452893Y-93491712D01*
X30995058Y-93491712D01*
X30987336Y-93469034D01*
X30881338Y-93270726D01*
X30606712Y-93162893D01*
X29579605Y-94190000D01*
X29220395Y-94190000D01*
X28193288Y-93162893D01*
X27918662Y-93270726D01*
X27767784Y-93577384D01*
X27679631Y-93907585D01*
X27657591Y-94248639D01*
X21027000Y-94248639D01*
X21027000Y-92983288D01*
X28372893Y-92983288D01*
X29400000Y-94010395D01*
X30427107Y-92983288D01*
X30319274Y-92708662D01*
X30012616Y-92557784D01*
X29682415Y-92469631D01*
X29341361Y-92447591D01*
X29002561Y-92492511D01*
X28679034Y-92602664D01*
X28480726Y-92708662D01*
X28372893Y-92983288D01*
X21027000Y-92983288D01*
X21027000Y-92343639D01*
X32737591Y-92343639D01*
X32782511Y-92682439D01*
X32892664Y-93005966D01*
X32998662Y-93204274D01*
X33273288Y-93312107D01*
X34300395Y-92285000D01*
X34659605Y-92285000D01*
X35686712Y-93312107D01*
X35961338Y-93204274D01*
X36112216Y-92897616D01*
X36200369Y-92567415D01*
X36222409Y-92226361D01*
X36177489Y-91887561D01*
X36067336Y-91564034D01*
X35961338Y-91365726D01*
X35686712Y-91257893D01*
X34659605Y-92285000D01*
X34300395Y-92285000D01*
X33273288Y-91257893D01*
X32998662Y-91365726D01*
X32847784Y-91672384D01*
X32759631Y-92002585D01*
X32737591Y-92343639D01*
X21027000Y-92343639D01*
X21027000Y-90234528D01*
X27923000Y-90234528D01*
X27923000Y-90525472D01*
X27979760Y-90810825D01*
X28091099Y-91079622D01*
X28252739Y-91321533D01*
X28458467Y-91527261D01*
X28700378Y-91688901D01*
X28969175Y-91800240D01*
X29254528Y-91857000D01*
X29545472Y-91857000D01*
X29830825Y-91800240D01*
X30099622Y-91688901D01*
X30341533Y-91527261D01*
X30547261Y-91321533D01*
X30708901Y-91079622D01*
X30709453Y-91078288D01*
X33452893Y-91078288D01*
X34480000Y-92105395D01*
X35507107Y-91078288D01*
X35399274Y-90803662D01*
X35092616Y-90652784D01*
X34762415Y-90564631D01*
X34421361Y-90542591D01*
X34082561Y-90587511D01*
X33759034Y-90697664D01*
X33560726Y-90803662D01*
X33452893Y-91078288D01*
X30709453Y-91078288D01*
X30820240Y-90810825D01*
X30877000Y-90525472D01*
X30877000Y-90415132D01*
X59323000Y-90415132D01*
X59323000Y-90784868D01*
X59395132Y-91147501D01*
X59536624Y-91489093D01*
X59742039Y-91796518D01*
X60003482Y-92057961D01*
X60310907Y-92263376D01*
X60652499Y-92404868D01*
X61015132Y-92477000D01*
X61384868Y-92477000D01*
X61747501Y-92404868D01*
X62089093Y-92263376D01*
X62396518Y-92057961D01*
X62657961Y-91796518D01*
X62863376Y-91489093D01*
X63004868Y-91147501D01*
X63022505Y-91058833D01*
X63614883Y-91058833D01*
X63744462Y-91456803D01*
X63949191Y-91821846D01*
X64221203Y-92139934D01*
X64550044Y-92398844D01*
X64923077Y-92588625D01*
X65241167Y-92685113D01*
X65573000Y-92572165D01*
X65573000Y-90727000D01*
X65827000Y-90727000D01*
X65827000Y-92572165D01*
X66158833Y-92685113D01*
X66476923Y-92588625D01*
X66849956Y-92398844D01*
X67178797Y-92139934D01*
X67450809Y-91821846D01*
X67655538Y-91456803D01*
X67785117Y-91058833D01*
X67672473Y-90727000D01*
X65827000Y-90727000D01*
X65573000Y-90727000D01*
X63727527Y-90727000D01*
X63614883Y-91058833D01*
X63022505Y-91058833D01*
X63077000Y-90784868D01*
X63077000Y-90415132D01*
X63022506Y-90141167D01*
X63614883Y-90141167D01*
X63727527Y-90473000D01*
X65573000Y-90473000D01*
X65573000Y-88627835D01*
X65827000Y-88627835D01*
X65827000Y-90473000D01*
X67672473Y-90473000D01*
X67785117Y-90141167D01*
X67655538Y-89743197D01*
X67450809Y-89378154D01*
X67178797Y-89060066D01*
X66849956Y-88801156D01*
X66476923Y-88611375D01*
X66158833Y-88514887D01*
X65827000Y-88627835D01*
X65573000Y-88627835D01*
X65241167Y-88514887D01*
X64923077Y-88611375D01*
X64550044Y-88801156D01*
X64221203Y-89060066D01*
X63949191Y-89378154D01*
X63744462Y-89743197D01*
X63614883Y-90141167D01*
X63022506Y-90141167D01*
X63004868Y-90052499D01*
X62863376Y-89710907D01*
X62657961Y-89403482D01*
X62396518Y-89142039D01*
X62089093Y-88936624D01*
X61747501Y-88795132D01*
X61384868Y-88723000D01*
X61015132Y-88723000D01*
X60652499Y-88795132D01*
X60310907Y-88936624D01*
X60003482Y-89142039D01*
X59742039Y-89403482D01*
X59536624Y-89710907D01*
X59395132Y-90052499D01*
X59323000Y-90415132D01*
X30877000Y-90415132D01*
X30877000Y-90234528D01*
X30820240Y-89949175D01*
X30708901Y-89680378D01*
X30547261Y-89438467D01*
X30341533Y-89232739D01*
X30099622Y-89071099D01*
X29830825Y-88959760D01*
X29545472Y-88903000D01*
X29254528Y-88903000D01*
X28969175Y-88959760D01*
X28700378Y-89071099D01*
X28458467Y-89232739D01*
X28252739Y-89438467D01*
X28091099Y-89680378D01*
X27979760Y-89949175D01*
X27923000Y-90234528D01*
X21027000Y-90234528D01*
X21027000Y-88645340D01*
X22754265Y-88645340D01*
X23000416Y-89037704D01*
X23502822Y-89303312D01*
X24047393Y-89465801D01*
X24613199Y-89518928D01*
X25178498Y-89460652D01*
X25721566Y-89293210D01*
X26199584Y-89037704D01*
X26445735Y-88645340D01*
X24600000Y-86799605D01*
X22754265Y-88645340D01*
X21027000Y-88645340D01*
X21027000Y-86633199D01*
X21701072Y-86633199D01*
X21759348Y-87198498D01*
X21926790Y-87741566D01*
X22182296Y-88219584D01*
X22574660Y-88465735D01*
X24420395Y-86620000D01*
X24779605Y-86620000D01*
X26625340Y-88465735D01*
X26842453Y-88329528D01*
X33003000Y-88329528D01*
X33003000Y-88620472D01*
X33059760Y-88905825D01*
X33171099Y-89174622D01*
X33332739Y-89416533D01*
X33538467Y-89622261D01*
X33780378Y-89783901D01*
X34049175Y-89895240D01*
X34334528Y-89952000D01*
X34625472Y-89952000D01*
X34910825Y-89895240D01*
X35179622Y-89783901D01*
X35421533Y-89622261D01*
X35627261Y-89416533D01*
X35788901Y-89174622D01*
X35900240Y-88905825D01*
X35957000Y-88620472D01*
X35957000Y-88329528D01*
X35900240Y-88044175D01*
X35788901Y-87775378D01*
X35627261Y-87533467D01*
X35421533Y-87327739D01*
X35179622Y-87166099D01*
X34910825Y-87054760D01*
X34625472Y-86998000D01*
X34334528Y-86998000D01*
X34049175Y-87054760D01*
X33780378Y-87166099D01*
X33538467Y-87327739D01*
X33332739Y-87533467D01*
X33171099Y-87775378D01*
X33059760Y-88044175D01*
X33003000Y-88329528D01*
X26842453Y-88329528D01*
X27017704Y-88219584D01*
X27283312Y-87717178D01*
X27445801Y-87172607D01*
X27498928Y-86606801D01*
X27480138Y-86424528D01*
X27923000Y-86424528D01*
X27923000Y-86715472D01*
X27979760Y-87000825D01*
X28091099Y-87269622D01*
X28252739Y-87511533D01*
X28458467Y-87717261D01*
X28700378Y-87878901D01*
X28969175Y-87990240D01*
X29254528Y-88047000D01*
X29545472Y-88047000D01*
X29830825Y-87990240D01*
X30099622Y-87878901D01*
X30341533Y-87717261D01*
X30547261Y-87511533D01*
X30708901Y-87269622D01*
X30820240Y-87000825D01*
X30877000Y-86715472D01*
X30877000Y-86424528D01*
X30820240Y-86139175D01*
X30709454Y-85871712D01*
X33452893Y-85871712D01*
X33560726Y-86146338D01*
X33867384Y-86297216D01*
X34197585Y-86385369D01*
X34538639Y-86407409D01*
X34877439Y-86362489D01*
X35200966Y-86252336D01*
X35399274Y-86146338D01*
X35507107Y-85871712D01*
X34480000Y-84844605D01*
X33452893Y-85871712D01*
X30709454Y-85871712D01*
X30708901Y-85870378D01*
X30547261Y-85628467D01*
X30341533Y-85422739D01*
X30099622Y-85261099D01*
X29830825Y-85149760D01*
X29545472Y-85093000D01*
X29254528Y-85093000D01*
X28969175Y-85149760D01*
X28700378Y-85261099D01*
X28458467Y-85422739D01*
X28252739Y-85628467D01*
X28091099Y-85870378D01*
X27979760Y-86139175D01*
X27923000Y-86424528D01*
X27480138Y-86424528D01*
X27440652Y-86041502D01*
X27273210Y-85498434D01*
X27017704Y-85020416D01*
X26625340Y-84774265D01*
X24779605Y-86620000D01*
X24420395Y-86620000D01*
X22574660Y-84774265D01*
X22182296Y-85020416D01*
X21916688Y-85522822D01*
X21754199Y-86067393D01*
X21701072Y-86633199D01*
X21027000Y-86633199D01*
X21027000Y-84594660D01*
X22754265Y-84594660D01*
X24600000Y-86440395D01*
X26316756Y-84723639D01*
X32737591Y-84723639D01*
X32782511Y-85062439D01*
X32892664Y-85385966D01*
X32998662Y-85584274D01*
X33273288Y-85692107D01*
X34300395Y-84665000D01*
X34659605Y-84665000D01*
X35686712Y-85692107D01*
X35961338Y-85584274D01*
X36112216Y-85277616D01*
X36200369Y-84947415D01*
X36222409Y-84606361D01*
X36177489Y-84267561D01*
X36067336Y-83944034D01*
X35961338Y-83745726D01*
X35686712Y-83637893D01*
X34659605Y-84665000D01*
X34300395Y-84665000D01*
X33273288Y-83637893D01*
X32998662Y-83745726D01*
X32847784Y-84052384D01*
X32759631Y-84382585D01*
X32737591Y-84723639D01*
X26316756Y-84723639D01*
X26445735Y-84594660D01*
X26199584Y-84202296D01*
X25697178Y-83936688D01*
X25152607Y-83774199D01*
X24586801Y-83721072D01*
X24021502Y-83779348D01*
X23478434Y-83946790D01*
X23000416Y-84202296D01*
X22754265Y-84594660D01*
X21027000Y-84594660D01*
X21027000Y-82614528D01*
X27923000Y-82614528D01*
X27923000Y-82905472D01*
X27979760Y-83190825D01*
X28091099Y-83459622D01*
X28252739Y-83701533D01*
X28458467Y-83907261D01*
X28700378Y-84068901D01*
X28969175Y-84180240D01*
X29254528Y-84237000D01*
X29545472Y-84237000D01*
X29830825Y-84180240D01*
X30099622Y-84068901D01*
X30341533Y-83907261D01*
X30547261Y-83701533D01*
X30708901Y-83459622D01*
X30709453Y-83458288D01*
X33452893Y-83458288D01*
X34480000Y-84485395D01*
X35507107Y-83458288D01*
X35399274Y-83183662D01*
X35092616Y-83032784D01*
X34762415Y-82944631D01*
X34421361Y-82922591D01*
X34082561Y-82967511D01*
X33759034Y-83077664D01*
X33560726Y-83183662D01*
X33452893Y-83458288D01*
X30709453Y-83458288D01*
X30820240Y-83190825D01*
X30877000Y-82905472D01*
X30877000Y-82614528D01*
X30820240Y-82329175D01*
X30708901Y-82060378D01*
X30547261Y-81818467D01*
X30341533Y-81612739D01*
X30099622Y-81451099D01*
X29830825Y-81339760D01*
X29545472Y-81283000D01*
X29254528Y-81283000D01*
X28969175Y-81339760D01*
X28700378Y-81451099D01*
X28458467Y-81612739D01*
X28252739Y-81818467D01*
X28091099Y-82060378D01*
X27979760Y-82329175D01*
X27923000Y-82614528D01*
X21027000Y-82614528D01*
X21027000Y-80572702D01*
X23786903Y-80572702D01*
X23858486Y-80816671D01*
X24113996Y-80937571D01*
X24388184Y-81006300D01*
X24670512Y-81020217D01*
X24950130Y-80978787D01*
X25216292Y-80883603D01*
X25341514Y-80816671D01*
X25372950Y-80709528D01*
X33003000Y-80709528D01*
X33003000Y-81000472D01*
X33059760Y-81285825D01*
X33171099Y-81554622D01*
X33332739Y-81796533D01*
X33538467Y-82002261D01*
X33780378Y-82163901D01*
X34049175Y-82275240D01*
X34334528Y-82332000D01*
X34625472Y-82332000D01*
X34910825Y-82275240D01*
X35179622Y-82163901D01*
X35421533Y-82002261D01*
X35627261Y-81796533D01*
X35788901Y-81554622D01*
X35900240Y-81285825D01*
X35957000Y-81000472D01*
X35957000Y-80709528D01*
X35900240Y-80424175D01*
X35788901Y-80155378D01*
X35627261Y-79913467D01*
X35421533Y-79707739D01*
X35179622Y-79546099D01*
X34910825Y-79434760D01*
X34625472Y-79378000D01*
X34334528Y-79378000D01*
X34049175Y-79434760D01*
X33780378Y-79546099D01*
X33538467Y-79707739D01*
X33332739Y-79913467D01*
X33171099Y-80155378D01*
X33059760Y-80424175D01*
X33003000Y-80709528D01*
X25372950Y-80709528D01*
X25413097Y-80572702D01*
X24600000Y-79759605D01*
X23786903Y-80572702D01*
X21027000Y-80572702D01*
X21027000Y-79650512D01*
X23159783Y-79650512D01*
X23201213Y-79930130D01*
X23296397Y-80196292D01*
X23363329Y-80321514D01*
X23607298Y-80393097D01*
X24420395Y-79580000D01*
X24779605Y-79580000D01*
X25592702Y-80393097D01*
X25836671Y-80321514D01*
X25957571Y-80066004D01*
X26026300Y-79791816D01*
X26040217Y-79509488D01*
X25998787Y-79229870D01*
X25903603Y-78963708D01*
X25836671Y-78838486D01*
X25592702Y-78766903D01*
X24779605Y-79580000D01*
X24420395Y-79580000D01*
X23607298Y-78766903D01*
X23363329Y-78838486D01*
X23242429Y-79093996D01*
X23173700Y-79368184D01*
X23159783Y-79650512D01*
X21027000Y-79650512D01*
X21027000Y-79012551D01*
X21145764Y-79190294D01*
X21309706Y-79354236D01*
X21502481Y-79483044D01*
X21716682Y-79571769D01*
X21944076Y-79617000D01*
X22175924Y-79617000D01*
X22403318Y-79571769D01*
X22617519Y-79483044D01*
X22810294Y-79354236D01*
X22974236Y-79190294D01*
X23103044Y-78997519D01*
X23191769Y-78783318D01*
X23237000Y-78555924D01*
X23237000Y-78324076D01*
X23228771Y-78282702D01*
X23786903Y-78282702D01*
X23831589Y-78435000D01*
X23786903Y-78587298D01*
X24600000Y-79400395D01*
X25413097Y-78587298D01*
X25368411Y-78435000D01*
X25413097Y-78282702D01*
X24600000Y-77469605D01*
X23786903Y-78282702D01*
X23228771Y-78282702D01*
X23191769Y-78096682D01*
X23103044Y-77882481D01*
X22974236Y-77689706D01*
X22810294Y-77525764D01*
X22617519Y-77396956D01*
X22529536Y-77360512D01*
X23159783Y-77360512D01*
X23201213Y-77640130D01*
X23296397Y-77906292D01*
X23363329Y-78031514D01*
X23607298Y-78103097D01*
X24420395Y-77290000D01*
X24779605Y-77290000D01*
X25592702Y-78103097D01*
X25836671Y-78031514D01*
X25957571Y-77776004D01*
X26026300Y-77501816D01*
X26040217Y-77219488D01*
X25998787Y-76939870D01*
X25903603Y-76673708D01*
X25836671Y-76548486D01*
X25592702Y-76476903D01*
X24779605Y-77290000D01*
X24420395Y-77290000D01*
X23607298Y-76476903D01*
X23363329Y-76548486D01*
X23242429Y-76803996D01*
X23173700Y-77078184D01*
X23159783Y-77360512D01*
X22529536Y-77360512D01*
X22403318Y-77308231D01*
X22336801Y-77295000D01*
X22403318Y-77281769D01*
X22617519Y-77193044D01*
X22810294Y-77064236D01*
X22974236Y-76900294D01*
X23103044Y-76707519D01*
X23191769Y-76493318D01*
X23237000Y-76265924D01*
X23237000Y-76034076D01*
X23228771Y-75992702D01*
X23786903Y-75992702D01*
X23831589Y-76145000D01*
X23786903Y-76297298D01*
X24600000Y-77110395D01*
X25413097Y-76297298D01*
X25368411Y-76145000D01*
X25413097Y-75992702D01*
X24600000Y-75179605D01*
X23786903Y-75992702D01*
X23228771Y-75992702D01*
X23191769Y-75806682D01*
X23103044Y-75592481D01*
X22974236Y-75399706D01*
X22810294Y-75235764D01*
X22617519Y-75106956D01*
X22529536Y-75070512D01*
X23159783Y-75070512D01*
X23201213Y-75350130D01*
X23296397Y-75616292D01*
X23363329Y-75741514D01*
X23607298Y-75813097D01*
X24420395Y-75000000D01*
X24779605Y-75000000D01*
X25592702Y-75813097D01*
X25836671Y-75741514D01*
X25957571Y-75486004D01*
X26026300Y-75211816D01*
X26040217Y-74929488D01*
X25998787Y-74649870D01*
X25903603Y-74383708D01*
X25836671Y-74258486D01*
X25592702Y-74186903D01*
X24779605Y-75000000D01*
X24420395Y-75000000D01*
X23607298Y-74186903D01*
X23363329Y-74258486D01*
X23242429Y-74513996D01*
X23173700Y-74788184D01*
X23159783Y-75070512D01*
X22529536Y-75070512D01*
X22403318Y-75018231D01*
X22336801Y-75005000D01*
X22403318Y-74991769D01*
X22617519Y-74903044D01*
X22810294Y-74774236D01*
X22974236Y-74610294D01*
X23103044Y-74417519D01*
X23191769Y-74203318D01*
X23237000Y-73975924D01*
X23237000Y-73744076D01*
X23191769Y-73516682D01*
X23103044Y-73302481D01*
X22974236Y-73109706D01*
X22810294Y-72945764D01*
X22617519Y-72816956D01*
X22403318Y-72728231D01*
X22336801Y-72715000D01*
X22403318Y-72701769D01*
X22617519Y-72613044D01*
X22810294Y-72484236D01*
X22974236Y-72320294D01*
X23103044Y-72127519D01*
X23126041Y-72072000D01*
X23610732Y-72072000D01*
X23556956Y-72152481D01*
X23468231Y-72366682D01*
X23423000Y-72594076D01*
X23423000Y-72825924D01*
X23468231Y-73053318D01*
X23556956Y-73267519D01*
X23685764Y-73460294D01*
X23849706Y-73624236D01*
X23969260Y-73704119D01*
X23858486Y-73763329D01*
X23786903Y-74007298D01*
X24600000Y-74820395D01*
X25413097Y-74007298D01*
X25341514Y-73763329D01*
X25224787Y-73708097D01*
X25350294Y-73624236D01*
X25514236Y-73460294D01*
X25643044Y-73267519D01*
X25731769Y-73053318D01*
X25759412Y-72914345D01*
X25917604Y-73072537D01*
X25933317Y-73091683D01*
X25952463Y-73107396D01*
X25952465Y-73107398D01*
X25970122Y-73121889D01*
X26009756Y-73154416D01*
X26096965Y-73201030D01*
X26153321Y-73218125D01*
X26096956Y-73302481D01*
X26008231Y-73516682D01*
X25963000Y-73744076D01*
X25963000Y-73975924D01*
X26008231Y-74203318D01*
X26096956Y-74417519D01*
X26225764Y-74610294D01*
X26389706Y-74774236D01*
X26582481Y-74903044D01*
X26796682Y-74991769D01*
X26863199Y-75005000D01*
X26796682Y-75018231D01*
X26582481Y-75106956D01*
X26389706Y-75235764D01*
X26225764Y-75399706D01*
X26096956Y-75592481D01*
X26008231Y-75806682D01*
X25963000Y-76034076D01*
X25963000Y-76265924D01*
X26008231Y-76493318D01*
X26096956Y-76707519D01*
X26225764Y-76900294D01*
X26389706Y-77064236D01*
X26582481Y-77193044D01*
X26796682Y-77281769D01*
X26863199Y-77295000D01*
X26796682Y-77308231D01*
X26582481Y-77396956D01*
X26389706Y-77525764D01*
X26225764Y-77689706D01*
X26096956Y-77882481D01*
X26008231Y-78096682D01*
X25963000Y-78324076D01*
X25963000Y-78555924D01*
X26008231Y-78783318D01*
X26096956Y-78997519D01*
X26225764Y-79190294D01*
X26389706Y-79354236D01*
X26582481Y-79483044D01*
X26796682Y-79571769D01*
X27024076Y-79617000D01*
X27255924Y-79617000D01*
X27483318Y-79571769D01*
X27697519Y-79483044D01*
X27890294Y-79354236D01*
X27960505Y-79284025D01*
X27979760Y-79380825D01*
X28091099Y-79649622D01*
X28252739Y-79891533D01*
X28458467Y-80097261D01*
X28700378Y-80258901D01*
X28969175Y-80370240D01*
X29254528Y-80427000D01*
X29545472Y-80427000D01*
X29830825Y-80370240D01*
X30099622Y-80258901D01*
X30341533Y-80097261D01*
X30547261Y-79891533D01*
X30708901Y-79649622D01*
X30820240Y-79380825D01*
X30831648Y-79323472D01*
X44323000Y-79323472D01*
X44323000Y-79476528D01*
X44352859Y-79626643D01*
X44411431Y-79768048D01*
X44496464Y-79895309D01*
X44604691Y-80003536D01*
X44731952Y-80088569D01*
X44873357Y-80147141D01*
X45023472Y-80177000D01*
X45176528Y-80177000D01*
X45326643Y-80147141D01*
X45468048Y-80088569D01*
X45595309Y-80003536D01*
X45696845Y-79902000D01*
X46903155Y-79902000D01*
X47004691Y-80003536D01*
X47131952Y-80088569D01*
X47273357Y-80147141D01*
X47423472Y-80177000D01*
X47576528Y-80177000D01*
X47726643Y-80147141D01*
X47868048Y-80088569D01*
X47995309Y-80003536D01*
X48103536Y-79895309D01*
X48188569Y-79768048D01*
X48247141Y-79626643D01*
X48277000Y-79476528D01*
X48277000Y-79323472D01*
X48247141Y-79173357D01*
X48188569Y-79031952D01*
X48103536Y-78904691D01*
X47995309Y-78796464D01*
X47868048Y-78711431D01*
X47726643Y-78652859D01*
X47576528Y-78623000D01*
X47423472Y-78623000D01*
X47273357Y-78652859D01*
X47131952Y-78711431D01*
X47004691Y-78796464D01*
X46903155Y-78898000D01*
X45696845Y-78898000D01*
X45595309Y-78796464D01*
X45468048Y-78711431D01*
X45326643Y-78652859D01*
X45176528Y-78623000D01*
X45023472Y-78623000D01*
X44873357Y-78652859D01*
X44731952Y-78711431D01*
X44604691Y-78796464D01*
X44496464Y-78904691D01*
X44411431Y-79031952D01*
X44352859Y-79173357D01*
X44323000Y-79323472D01*
X30831648Y-79323472D01*
X30877000Y-79095472D01*
X30877000Y-78804528D01*
X30820240Y-78519175D01*
X30709454Y-78251712D01*
X33452893Y-78251712D01*
X33560726Y-78526338D01*
X33867384Y-78677216D01*
X34197585Y-78765369D01*
X34538639Y-78787409D01*
X34877439Y-78742489D01*
X35200966Y-78632336D01*
X35399274Y-78526338D01*
X35507107Y-78251712D01*
X34480000Y-77224605D01*
X33452893Y-78251712D01*
X30709454Y-78251712D01*
X30708901Y-78250378D01*
X30547261Y-78008467D01*
X30341533Y-77802739D01*
X30099622Y-77641099D01*
X29944873Y-77577000D01*
X30686669Y-77577000D01*
X30715000Y-77579790D01*
X30743331Y-77577000D01*
X30743336Y-77577000D01*
X30773045Y-77574074D01*
X30828111Y-77568651D01*
X30872770Y-77555103D01*
X30936876Y-77535657D01*
X31037115Y-77482079D01*
X31124974Y-77409974D01*
X31143039Y-77387962D01*
X31427362Y-77103639D01*
X32737591Y-77103639D01*
X32782511Y-77442439D01*
X32892664Y-77765966D01*
X32998662Y-77964274D01*
X33273288Y-78072107D01*
X34300395Y-77045000D01*
X34659605Y-77045000D01*
X35686712Y-78072107D01*
X35961338Y-77964274D01*
X36112216Y-77657616D01*
X36200369Y-77327415D01*
X36222409Y-76986361D01*
X36177489Y-76647561D01*
X36067336Y-76324034D01*
X35961338Y-76125726D01*
X35686712Y-76017893D01*
X34659605Y-77045000D01*
X34300395Y-77045000D01*
X33273288Y-76017893D01*
X32998662Y-76125726D01*
X32847784Y-76432384D01*
X32759631Y-76762585D01*
X32737591Y-77103639D01*
X31427362Y-77103639D01*
X32692713Y-75838288D01*
X33452893Y-75838288D01*
X34480000Y-76865395D01*
X35507107Y-75838288D01*
X35399274Y-75563662D01*
X35092616Y-75412784D01*
X34762415Y-75324631D01*
X34421361Y-75302591D01*
X34082561Y-75347511D01*
X33759034Y-75457664D01*
X33560726Y-75563662D01*
X33452893Y-75838288D01*
X32692713Y-75838288D01*
X33926553Y-74604449D01*
X34049175Y-74655240D01*
X34334528Y-74712000D01*
X34625472Y-74712000D01*
X34910825Y-74655240D01*
X35179622Y-74543901D01*
X35421533Y-74382261D01*
X35627261Y-74176533D01*
X35788901Y-73934622D01*
X35900240Y-73665825D01*
X35957000Y-73380472D01*
X35957000Y-73089528D01*
X35900240Y-72804175D01*
X35788901Y-72535378D01*
X35627261Y-72293467D01*
X35421533Y-72087739D01*
X35179622Y-71926099D01*
X34910825Y-71814760D01*
X34625472Y-71758000D01*
X34334528Y-71758000D01*
X34049175Y-71814760D01*
X33780378Y-71926099D01*
X33538467Y-72087739D01*
X33332739Y-72293467D01*
X33171099Y-72535378D01*
X33077000Y-72762554D01*
X33077000Y-72723472D01*
X33047141Y-72573357D01*
X32988569Y-72431952D01*
X32903536Y-72304691D01*
X32795309Y-72196464D01*
X32668048Y-72111431D01*
X32526643Y-72052859D01*
X32376528Y-72023000D01*
X32223472Y-72023000D01*
X32073357Y-72052859D01*
X31931952Y-72111431D01*
X31804691Y-72196464D01*
X31703155Y-72298000D01*
X30520794Y-72298000D01*
X30547261Y-72271533D01*
X30708901Y-72029622D01*
X30820240Y-71760825D01*
X30877000Y-71475472D01*
X30877000Y-71184528D01*
X30820240Y-70899175D01*
X30709454Y-70631712D01*
X33452893Y-70631712D01*
X33560726Y-70906338D01*
X33867384Y-71057216D01*
X34197585Y-71145369D01*
X34538639Y-71167409D01*
X34877439Y-71122489D01*
X35200966Y-71012336D01*
X35399274Y-70906338D01*
X35507107Y-70631712D01*
X34480000Y-69604605D01*
X33452893Y-70631712D01*
X30709454Y-70631712D01*
X30708901Y-70630378D01*
X30547261Y-70388467D01*
X30341533Y-70182739D01*
X30099622Y-70021099D01*
X29830825Y-69909760D01*
X29545472Y-69853000D01*
X29254528Y-69853000D01*
X28969175Y-69909760D01*
X28700378Y-70021099D01*
X28458467Y-70182739D01*
X28252739Y-70388467D01*
X28091099Y-70630378D01*
X28024849Y-70790319D01*
X27890294Y-70655764D01*
X27770740Y-70575881D01*
X27881514Y-70516671D01*
X27953097Y-70272702D01*
X27140000Y-69459605D01*
X26326903Y-70272702D01*
X26398486Y-70516671D01*
X26515213Y-70571903D01*
X26389706Y-70655764D01*
X26225764Y-70819706D01*
X26096956Y-71012481D01*
X26008231Y-71226682D01*
X25963000Y-71454076D01*
X25963000Y-71685924D01*
X25966014Y-71701078D01*
X25661642Y-71396706D01*
X25708977Y-71349370D01*
X25592704Y-71233097D01*
X25836671Y-71161514D01*
X25957571Y-70906004D01*
X26026300Y-70631816D01*
X26040217Y-70349488D01*
X25998787Y-70069870D01*
X25990657Y-70047137D01*
X26147298Y-70093097D01*
X26960395Y-69280000D01*
X26147298Y-68466903D01*
X25903329Y-68538486D01*
X25782429Y-68793996D01*
X25713700Y-69068184D01*
X25699783Y-69350512D01*
X25741213Y-69630130D01*
X25749343Y-69652863D01*
X25592702Y-69606903D01*
X24779605Y-70420000D01*
X24793748Y-70434143D01*
X24614143Y-70613748D01*
X24600000Y-70599605D01*
X24585858Y-70613748D01*
X24406253Y-70434143D01*
X24420395Y-70420000D01*
X23607298Y-69606903D01*
X23363329Y-69678486D01*
X23242429Y-69933996D01*
X23173700Y-70208184D01*
X23159783Y-70490512D01*
X23201213Y-70770130D01*
X23296397Y-71036292D01*
X23313345Y-71068000D01*
X23126041Y-71068000D01*
X23103044Y-71012481D01*
X22974236Y-70819706D01*
X22810294Y-70655764D01*
X22617519Y-70526956D01*
X22403318Y-70438231D01*
X22336801Y-70425000D01*
X22403318Y-70411769D01*
X22617519Y-70323044D01*
X22810294Y-70194236D01*
X22974236Y-70030294D01*
X23103044Y-69837519D01*
X23191769Y-69623318D01*
X23230759Y-69427298D01*
X23786903Y-69427298D01*
X24600000Y-70240395D01*
X25413097Y-69427298D01*
X25341514Y-69183329D01*
X25086004Y-69062429D01*
X24811816Y-68993700D01*
X24529488Y-68979783D01*
X24249870Y-69021213D01*
X23983708Y-69116397D01*
X23858486Y-69183329D01*
X23786903Y-69427298D01*
X23230759Y-69427298D01*
X23237000Y-69395924D01*
X23237000Y-69164076D01*
X23191769Y-68936682D01*
X23103044Y-68722481D01*
X22974236Y-68529706D01*
X22810294Y-68365764D01*
X22692862Y-68287298D01*
X26326903Y-68287298D01*
X27140000Y-69100395D01*
X27154143Y-69086253D01*
X27333748Y-69265858D01*
X27319605Y-69280000D01*
X28132702Y-70093097D01*
X28376671Y-70021514D01*
X28497571Y-69766004D01*
X28566300Y-69491816D01*
X28566703Y-69483639D01*
X32737591Y-69483639D01*
X32782511Y-69822439D01*
X32892664Y-70145966D01*
X32998662Y-70344274D01*
X33273288Y-70452107D01*
X34300395Y-69425000D01*
X34659605Y-69425000D01*
X35686712Y-70452107D01*
X35961338Y-70344274D01*
X36112216Y-70037616D01*
X36200369Y-69707415D01*
X36222409Y-69366361D01*
X36177489Y-69027561D01*
X36067336Y-68704034D01*
X35961338Y-68505726D01*
X35686712Y-68397893D01*
X34659605Y-69425000D01*
X34300395Y-69425000D01*
X33273288Y-68397893D01*
X32998662Y-68505726D01*
X32847784Y-68812384D01*
X32759631Y-69142585D01*
X32737591Y-69483639D01*
X28566703Y-69483639D01*
X28580217Y-69209488D01*
X28554774Y-69037770D01*
X28787384Y-69152216D01*
X29117585Y-69240369D01*
X29458639Y-69262409D01*
X29797439Y-69217489D01*
X30120966Y-69107336D01*
X30319274Y-69001338D01*
X30427107Y-68726712D01*
X29400000Y-67699605D01*
X29385858Y-67713748D01*
X29206253Y-67534143D01*
X29220395Y-67520000D01*
X29579605Y-67520000D01*
X30606712Y-68547107D01*
X30881338Y-68439274D01*
X30990064Y-68218288D01*
X33452893Y-68218288D01*
X34480000Y-69245395D01*
X35507107Y-68218288D01*
X35399274Y-67943662D01*
X35092616Y-67792784D01*
X34762415Y-67704631D01*
X34421361Y-67682591D01*
X34082561Y-67727511D01*
X33759034Y-67837664D01*
X33560726Y-67943662D01*
X33452893Y-68218288D01*
X30990064Y-68218288D01*
X31032216Y-68132616D01*
X31120369Y-67802415D01*
X31142409Y-67461361D01*
X31097489Y-67122561D01*
X30987336Y-66799034D01*
X30881338Y-66600726D01*
X30606712Y-66492893D01*
X29579605Y-67520000D01*
X29220395Y-67520000D01*
X28193288Y-66492893D01*
X27918662Y-66600726D01*
X27767784Y-66907384D01*
X27679631Y-67237585D01*
X27657591Y-67578639D01*
X27702511Y-67917439D01*
X27719229Y-67966540D01*
X27626004Y-67922429D01*
X27351816Y-67853700D01*
X27069488Y-67839783D01*
X26789870Y-67881213D01*
X26523708Y-67976397D01*
X26398486Y-68043329D01*
X26326903Y-68287298D01*
X22692862Y-68287298D01*
X22617519Y-68236956D01*
X22403318Y-68148231D01*
X22175924Y-68103000D01*
X21944076Y-68103000D01*
X21716682Y-68148231D01*
X21502481Y-68236956D01*
X21309706Y-68365764D01*
X21145764Y-68529706D01*
X21027000Y-68707449D01*
X21027000Y-66313288D01*
X28372893Y-66313288D01*
X29400000Y-67340395D01*
X30427107Y-66313288D01*
X30319274Y-66038662D01*
X30012616Y-65887784D01*
X29682415Y-65799631D01*
X29341361Y-65777591D01*
X29002561Y-65822511D01*
X28679034Y-65932664D01*
X28480726Y-66038662D01*
X28372893Y-66313288D01*
X21027000Y-66313288D01*
X21027000Y-65469528D01*
X33003000Y-65469528D01*
X33003000Y-65760472D01*
X33059760Y-66045825D01*
X33171099Y-66314622D01*
X33332739Y-66556533D01*
X33538467Y-66762261D01*
X33780378Y-66923901D01*
X34049175Y-67035240D01*
X34334528Y-67092000D01*
X34625472Y-67092000D01*
X34910825Y-67035240D01*
X35179622Y-66923901D01*
X35421533Y-66762261D01*
X35627261Y-66556533D01*
X35788901Y-66314622D01*
X35900240Y-66045825D01*
X35957000Y-65760472D01*
X35957000Y-65469528D01*
X35900240Y-65184175D01*
X35788901Y-64915378D01*
X35627261Y-64673467D01*
X35421533Y-64467739D01*
X35179622Y-64306099D01*
X34910825Y-64194760D01*
X34625472Y-64138000D01*
X34334528Y-64138000D01*
X34049175Y-64194760D01*
X33780378Y-64306099D01*
X33538467Y-64467739D01*
X33332739Y-64673467D01*
X33171099Y-64915378D01*
X33059760Y-65184175D01*
X33003000Y-65469528D01*
X21027000Y-65469528D01*
X21027000Y-63645340D01*
X22754265Y-63645340D01*
X23000416Y-64037704D01*
X23502822Y-64303312D01*
X24047393Y-64465801D01*
X24613199Y-64518928D01*
X25178498Y-64460652D01*
X25721566Y-64293210D01*
X26199584Y-64037704D01*
X26445735Y-63645340D01*
X26364923Y-63564528D01*
X27923000Y-63564528D01*
X27923000Y-63855472D01*
X27979760Y-64140825D01*
X28091099Y-64409622D01*
X28252739Y-64651533D01*
X28458467Y-64857261D01*
X28700378Y-65018901D01*
X28969175Y-65130240D01*
X29254528Y-65187000D01*
X29545472Y-65187000D01*
X29830825Y-65130240D01*
X30099622Y-65018901D01*
X30341533Y-64857261D01*
X30547261Y-64651533D01*
X30708901Y-64409622D01*
X30820240Y-64140825D01*
X30868142Y-63900000D01*
X57795573Y-63900000D01*
X57798001Y-63924653D01*
X57798000Y-82209672D01*
X57795573Y-82234315D01*
X57798000Y-82258958D01*
X57798000Y-82258967D01*
X57805264Y-82332723D01*
X57833969Y-82427350D01*
X57880583Y-82514560D01*
X57943316Y-82590999D01*
X57962467Y-82606716D01*
X58482035Y-83126285D01*
X58411431Y-83231952D01*
X58352859Y-83373357D01*
X58323000Y-83523472D01*
X58323000Y-83676528D01*
X58352859Y-83826643D01*
X58411431Y-83968048D01*
X58496464Y-84095309D01*
X58604691Y-84203536D01*
X58731952Y-84288569D01*
X58873357Y-84347141D01*
X59023472Y-84377000D01*
X59176528Y-84377000D01*
X59326643Y-84347141D01*
X59468048Y-84288569D01*
X59595309Y-84203536D01*
X59703536Y-84095309D01*
X59788569Y-83968048D01*
X59847141Y-83826643D01*
X59877000Y-83676528D01*
X59877000Y-83523472D01*
X59847141Y-83373357D01*
X59837467Y-83350000D01*
X64017064Y-83350000D01*
X64040755Y-83590534D01*
X64110916Y-83821824D01*
X64224851Y-84034983D01*
X64378183Y-84221817D01*
X64565017Y-84375149D01*
X64778176Y-84489084D01*
X65009466Y-84559245D01*
X65189732Y-84577000D01*
X67010268Y-84577000D01*
X67190534Y-84559245D01*
X67421824Y-84489084D01*
X67634983Y-84375149D01*
X67821817Y-84221817D01*
X67975149Y-84034983D01*
X68089084Y-83821824D01*
X68159245Y-83590534D01*
X68182936Y-83350000D01*
X68159245Y-83109466D01*
X68089084Y-82878176D01*
X67975149Y-82665017D01*
X67821817Y-82478183D01*
X67634983Y-82324851D01*
X67421824Y-82210916D01*
X67190534Y-82140755D01*
X67010268Y-82123000D01*
X65189732Y-82123000D01*
X65009466Y-82140755D01*
X64778176Y-82210916D01*
X64565017Y-82324851D01*
X64378183Y-82478183D01*
X64224851Y-82665017D01*
X64110916Y-82878176D01*
X64040755Y-83109466D01*
X64017064Y-83350000D01*
X59837467Y-83350000D01*
X59788569Y-83231952D01*
X59703536Y-83104691D01*
X59601289Y-83002444D01*
X59594736Y-82935906D01*
X59566031Y-82841279D01*
X59519417Y-82754070D01*
X59506838Y-82738743D01*
X59472400Y-82696779D01*
X59472392Y-82696771D01*
X59456684Y-82677631D01*
X59437543Y-82661922D01*
X58802000Y-82026381D01*
X58802000Y-79893531D01*
X59519000Y-79893531D01*
X59519000Y-80106469D01*
X59560543Y-80315316D01*
X59642031Y-80512045D01*
X59760333Y-80689097D01*
X59910903Y-80839667D01*
X60087955Y-80957969D01*
X60284684Y-81039457D01*
X60493531Y-81081000D01*
X60706469Y-81081000D01*
X60915316Y-81039457D01*
X61112045Y-80957969D01*
X61162691Y-80924128D01*
X62355477Y-80924128D01*
X62415423Y-81158305D01*
X62654551Y-81269602D01*
X62910797Y-81332109D01*
X63174314Y-81343425D01*
X63434976Y-81303114D01*
X63682764Y-81212724D01*
X63784577Y-81158305D01*
X63844523Y-80924128D01*
X63100000Y-80179605D01*
X62355477Y-80924128D01*
X61162691Y-80924128D01*
X61289097Y-80839667D01*
X61439667Y-80689097D01*
X61557969Y-80512045D01*
X61639457Y-80315316D01*
X61681000Y-80106469D01*
X61681000Y-80074314D01*
X61756575Y-80074314D01*
X61796886Y-80334976D01*
X61887276Y-80582764D01*
X61941695Y-80684577D01*
X62175872Y-80744523D01*
X62920395Y-80000000D01*
X63279605Y-80000000D01*
X64024128Y-80744523D01*
X64258305Y-80684577D01*
X64369602Y-80445449D01*
X64432109Y-80189203D01*
X64443425Y-79925686D01*
X64403114Y-79665024D01*
X64312724Y-79417236D01*
X64258305Y-79315423D01*
X64024128Y-79255477D01*
X63279605Y-80000000D01*
X62920395Y-80000000D01*
X62175872Y-79255477D01*
X61941695Y-79315423D01*
X61830398Y-79554551D01*
X61767891Y-79810797D01*
X61756575Y-80074314D01*
X61681000Y-80074314D01*
X61681000Y-79893531D01*
X61639457Y-79684684D01*
X61557969Y-79487955D01*
X61439667Y-79310903D01*
X61289097Y-79160333D01*
X61162692Y-79075872D01*
X62355477Y-79075872D01*
X63100000Y-79820395D01*
X63844523Y-79075872D01*
X63784577Y-78841695D01*
X63545449Y-78730398D01*
X63289203Y-78667891D01*
X63025686Y-78656575D01*
X62765024Y-78696886D01*
X62517236Y-78787276D01*
X62415423Y-78841695D01*
X62355477Y-79075872D01*
X61162692Y-79075872D01*
X61112045Y-79042031D01*
X60915316Y-78960543D01*
X60706469Y-78919000D01*
X60493531Y-78919000D01*
X60284684Y-78960543D01*
X60087955Y-79042031D01*
X59910903Y-79160333D01*
X59760333Y-79310903D01*
X59642031Y-79487955D01*
X59560543Y-79684684D01*
X59519000Y-79893531D01*
X58802000Y-79893531D01*
X58802000Y-75689733D01*
X65673000Y-75689733D01*
X65673000Y-77510268D01*
X65690756Y-77690534D01*
X65760917Y-77921824D01*
X65874852Y-78134983D01*
X66028184Y-78321817D01*
X66215018Y-78475149D01*
X66428177Y-78589084D01*
X66659467Y-78659245D01*
X66900000Y-78682936D01*
X67140534Y-78659245D01*
X67371824Y-78589084D01*
X67584983Y-78475149D01*
X67771817Y-78321817D01*
X67925149Y-78134983D01*
X68039084Y-77921824D01*
X68109245Y-77690534D01*
X68127000Y-77510268D01*
X68127000Y-75689732D01*
X68109245Y-75509466D01*
X68039084Y-75278176D01*
X67925149Y-75065017D01*
X67771817Y-74878183D01*
X67584982Y-74724851D01*
X67371823Y-74610916D01*
X67140533Y-74540755D01*
X66900000Y-74517064D01*
X66659466Y-74540755D01*
X66428176Y-74610916D01*
X66215017Y-74724851D01*
X66028183Y-74878183D01*
X65874851Y-75065018D01*
X65760916Y-75278177D01*
X65690755Y-75509467D01*
X65673000Y-75689733D01*
X58802000Y-75689733D01*
X58802000Y-73093531D01*
X59519000Y-73093531D01*
X59519000Y-73306469D01*
X59560543Y-73515316D01*
X59642031Y-73712045D01*
X59760333Y-73889097D01*
X59910903Y-74039667D01*
X60087955Y-74157969D01*
X60284684Y-74239457D01*
X60493531Y-74281000D01*
X60706469Y-74281000D01*
X60915316Y-74239457D01*
X61112045Y-74157969D01*
X61289097Y-74039667D01*
X61424764Y-73904000D01*
X61757928Y-73904000D01*
X61770188Y-74028482D01*
X61806498Y-74148180D01*
X61865463Y-74258494D01*
X61944815Y-74355185D01*
X62041506Y-74434537D01*
X62151820Y-74493502D01*
X62271518Y-74529812D01*
X62396000Y-74542072D01*
X62814250Y-74539000D01*
X62973000Y-74380250D01*
X62973000Y-73327000D01*
X63227000Y-73327000D01*
X63227000Y-74380250D01*
X63385750Y-74539000D01*
X63804000Y-74542072D01*
X63928482Y-74529812D01*
X64048180Y-74493502D01*
X64158494Y-74434537D01*
X64255185Y-74355185D01*
X64334537Y-74258494D01*
X64393502Y-74148180D01*
X64429812Y-74028482D01*
X64442072Y-73904000D01*
X64439000Y-73485750D01*
X64280250Y-73327000D01*
X63227000Y-73327000D01*
X62973000Y-73327000D01*
X61919750Y-73327000D01*
X61761000Y-73485750D01*
X61757928Y-73904000D01*
X61424764Y-73904000D01*
X61439667Y-73889097D01*
X61557969Y-73712045D01*
X61639457Y-73515316D01*
X61681000Y-73306469D01*
X61681000Y-73093531D01*
X61639457Y-72884684D01*
X61557969Y-72687955D01*
X61439667Y-72510903D01*
X61424764Y-72496000D01*
X61757928Y-72496000D01*
X61761000Y-72914250D01*
X61919750Y-73073000D01*
X62973000Y-73073000D01*
X62973000Y-72019750D01*
X63227000Y-72019750D01*
X63227000Y-73073000D01*
X64280250Y-73073000D01*
X64439000Y-72914250D01*
X64442072Y-72496000D01*
X64429812Y-72371518D01*
X64393502Y-72251820D01*
X64334537Y-72141506D01*
X64255185Y-72044815D01*
X64158494Y-71965463D01*
X64048180Y-71906498D01*
X63928482Y-71870188D01*
X63804000Y-71857928D01*
X63385750Y-71861000D01*
X63227000Y-72019750D01*
X62973000Y-72019750D01*
X62814250Y-71861000D01*
X62396000Y-71857928D01*
X62271518Y-71870188D01*
X62151820Y-71906498D01*
X62041506Y-71965463D01*
X61944815Y-72044815D01*
X61865463Y-72141506D01*
X61806498Y-72251820D01*
X61770188Y-72371518D01*
X61757928Y-72496000D01*
X61424764Y-72496000D01*
X61289097Y-72360333D01*
X61112045Y-72242031D01*
X60915316Y-72160543D01*
X60706469Y-72119000D01*
X60493531Y-72119000D01*
X60284684Y-72160543D01*
X60087955Y-72242031D01*
X59910903Y-72360333D01*
X59760333Y-72510903D01*
X59642031Y-72687955D01*
X59560543Y-72884684D01*
X59519000Y-73093531D01*
X58802000Y-73093531D01*
X58802000Y-69850000D01*
X64017064Y-69850000D01*
X64040755Y-70090534D01*
X64110916Y-70321824D01*
X64224851Y-70534983D01*
X64378183Y-70721817D01*
X64565017Y-70875149D01*
X64778176Y-70989084D01*
X65009466Y-71059245D01*
X65189732Y-71077000D01*
X67010268Y-71077000D01*
X67190534Y-71059245D01*
X67421824Y-70989084D01*
X67634983Y-70875149D01*
X67821817Y-70721817D01*
X67975149Y-70534983D01*
X68089084Y-70321824D01*
X68159245Y-70090534D01*
X68182936Y-69850000D01*
X68159245Y-69609466D01*
X68089084Y-69378176D01*
X67975149Y-69165017D01*
X67821817Y-68978183D01*
X67634983Y-68824851D01*
X67421824Y-68710916D01*
X67190534Y-68640755D01*
X67010268Y-68623000D01*
X65189732Y-68623000D01*
X65009466Y-68640755D01*
X64778176Y-68710916D01*
X64565017Y-68824851D01*
X64378183Y-68978183D01*
X64224851Y-69165017D01*
X64110916Y-69378176D01*
X64040755Y-69609466D01*
X64017064Y-69850000D01*
X58802000Y-69850000D01*
X58802000Y-64107934D01*
X60472333Y-62437602D01*
X60510907Y-62463376D01*
X60852499Y-62604868D01*
X61215132Y-62677000D01*
X61584868Y-62677000D01*
X61947501Y-62604868D01*
X62289093Y-62463376D01*
X62596518Y-62257961D01*
X62857961Y-61996518D01*
X63063376Y-61689093D01*
X63204868Y-61347501D01*
X63222505Y-61258833D01*
X63814883Y-61258833D01*
X63944462Y-61656803D01*
X64149191Y-62021846D01*
X64421203Y-62339934D01*
X64750044Y-62598844D01*
X65123077Y-62788625D01*
X65441167Y-62885113D01*
X65773000Y-62772165D01*
X65773000Y-60927000D01*
X66027000Y-60927000D01*
X66027000Y-62772165D01*
X66358833Y-62885113D01*
X66676923Y-62788625D01*
X67049956Y-62598844D01*
X67378797Y-62339934D01*
X67650809Y-62021846D01*
X67855538Y-61656803D01*
X67985117Y-61258833D01*
X67872473Y-60927000D01*
X66027000Y-60927000D01*
X65773000Y-60927000D01*
X63927527Y-60927000D01*
X63814883Y-61258833D01*
X63222505Y-61258833D01*
X63277000Y-60984868D01*
X63277000Y-60615132D01*
X63222506Y-60341167D01*
X63814883Y-60341167D01*
X63927527Y-60673000D01*
X65773000Y-60673000D01*
X65773000Y-58827835D01*
X66027000Y-58827835D01*
X66027000Y-60673000D01*
X67872473Y-60673000D01*
X67985117Y-60341167D01*
X67855538Y-59943197D01*
X67650809Y-59578154D01*
X67378797Y-59260066D01*
X67049956Y-59001156D01*
X66676923Y-58811375D01*
X66358833Y-58714887D01*
X66027000Y-58827835D01*
X65773000Y-58827835D01*
X65441167Y-58714887D01*
X65123077Y-58811375D01*
X64750044Y-59001156D01*
X64421203Y-59260066D01*
X64149191Y-59578154D01*
X63944462Y-59943197D01*
X63814883Y-60341167D01*
X63222506Y-60341167D01*
X63204868Y-60252499D01*
X63063376Y-59910907D01*
X62857961Y-59603482D01*
X62596518Y-59342039D01*
X62289093Y-59136624D01*
X61947501Y-58995132D01*
X61584868Y-58923000D01*
X61215132Y-58923000D01*
X60852499Y-58995132D01*
X60510907Y-59136624D01*
X60203482Y-59342039D01*
X59942039Y-59603482D01*
X59736624Y-59910907D01*
X59595132Y-60252499D01*
X59523000Y-60615132D01*
X59523000Y-60984868D01*
X59595132Y-61347501D01*
X59736624Y-61689093D01*
X59762398Y-61727667D01*
X57962463Y-63527603D01*
X57943317Y-63543316D01*
X57927604Y-63562462D01*
X57927601Y-63562465D01*
X57880584Y-63619755D01*
X57833970Y-63706964D01*
X57805265Y-63801591D01*
X57795573Y-63900000D01*
X30868142Y-63900000D01*
X30877000Y-63855472D01*
X30877000Y-63564528D01*
X30820240Y-63279175D01*
X30709454Y-63011712D01*
X33452893Y-63011712D01*
X33560726Y-63286338D01*
X33867384Y-63437216D01*
X34197585Y-63525369D01*
X34538639Y-63547409D01*
X34877439Y-63502489D01*
X35200966Y-63392336D01*
X35399274Y-63286338D01*
X35507107Y-63011712D01*
X34480000Y-61984605D01*
X33452893Y-63011712D01*
X30709454Y-63011712D01*
X30708901Y-63010378D01*
X30547261Y-62768467D01*
X30341533Y-62562739D01*
X30099622Y-62401099D01*
X29830825Y-62289760D01*
X29545472Y-62233000D01*
X29254528Y-62233000D01*
X28969175Y-62289760D01*
X28700378Y-62401099D01*
X28458467Y-62562739D01*
X28252739Y-62768467D01*
X28091099Y-63010378D01*
X27979760Y-63279175D01*
X27923000Y-63564528D01*
X26364923Y-63564528D01*
X24600000Y-61799605D01*
X22754265Y-63645340D01*
X21027000Y-63645340D01*
X21027000Y-61633199D01*
X21701072Y-61633199D01*
X21759348Y-62198498D01*
X21926790Y-62741566D01*
X22182296Y-63219584D01*
X22574660Y-63465735D01*
X24420395Y-61620000D01*
X24779605Y-61620000D01*
X26625340Y-63465735D01*
X27017704Y-63219584D01*
X27283312Y-62717178D01*
X27445801Y-62172607D01*
X27474811Y-61863639D01*
X32737591Y-61863639D01*
X32782511Y-62202439D01*
X32892664Y-62525966D01*
X32998662Y-62724274D01*
X33273288Y-62832107D01*
X34300395Y-61805000D01*
X34659605Y-61805000D01*
X35686712Y-62832107D01*
X35961338Y-62724274D01*
X36112216Y-62417616D01*
X36200369Y-62087415D01*
X36222409Y-61746361D01*
X36177489Y-61407561D01*
X36067336Y-61084034D01*
X35961338Y-60885726D01*
X35686712Y-60777893D01*
X34659605Y-61805000D01*
X34300395Y-61805000D01*
X33273288Y-60777893D01*
X32998662Y-60885726D01*
X32847784Y-61192384D01*
X32759631Y-61522585D01*
X32737591Y-61863639D01*
X27474811Y-61863639D01*
X27498928Y-61606801D01*
X27440652Y-61041502D01*
X27303998Y-60598288D01*
X33452893Y-60598288D01*
X34480000Y-61625395D01*
X35507107Y-60598288D01*
X35399274Y-60323662D01*
X35092616Y-60172784D01*
X34762415Y-60084631D01*
X34421361Y-60062591D01*
X34082561Y-60107511D01*
X33759034Y-60217664D01*
X33560726Y-60323662D01*
X33452893Y-60598288D01*
X27303998Y-60598288D01*
X27273210Y-60498434D01*
X27017704Y-60020416D01*
X26625340Y-59774265D01*
X24779605Y-61620000D01*
X24420395Y-61620000D01*
X22574660Y-59774265D01*
X22182296Y-60020416D01*
X21916688Y-60522822D01*
X21754199Y-61067393D01*
X21701072Y-61633199D01*
X21027000Y-61633199D01*
X21027000Y-59594660D01*
X22754265Y-59594660D01*
X24600000Y-61440395D01*
X26445735Y-59594660D01*
X26199584Y-59202296D01*
X25697178Y-58936688D01*
X25152607Y-58774199D01*
X24586801Y-58721072D01*
X24021502Y-58779348D01*
X23478434Y-58946790D01*
X23000416Y-59202296D01*
X22754265Y-59594660D01*
X21027000Y-59594660D01*
X21027000Y-54765886D01*
X24823000Y-54765886D01*
X24823000Y-55234114D01*
X24914347Y-55693345D01*
X25093530Y-56125932D01*
X25353664Y-56515249D01*
X25684751Y-56846336D01*
X26074068Y-57106470D01*
X26506655Y-57285653D01*
X26965886Y-57377000D01*
X27434114Y-57377000D01*
X27893345Y-57285653D01*
X28325932Y-57106470D01*
X28715249Y-56846336D01*
X29046336Y-56515249D01*
X29306470Y-56125932D01*
X29485653Y-55693345D01*
X29577000Y-55234114D01*
X29577000Y-54765886D01*
X29485653Y-54306655D01*
X29306470Y-53874068D01*
X29046336Y-53484751D01*
X28715249Y-53153664D01*
X28325932Y-52893530D01*
X27893345Y-52714347D01*
X27434114Y-52623000D01*
X26965886Y-52623000D01*
X26506655Y-52714347D01*
X26074068Y-52893530D01*
X25684751Y-53153664D01*
X25353664Y-53484751D01*
X25093530Y-53874068D01*
X24914347Y-54306655D01*
X24823000Y-54765886D01*
X21027000Y-54765886D01*
X21027000Y-53105000D01*
X21427000Y-53105000D01*
X21655742Y-53057454D01*
X21870813Y-52966196D01*
X22063948Y-52834734D01*
X22227725Y-52668119D01*
X22355850Y-52472754D01*
X22443399Y-52256147D01*
X22443803Y-52229744D01*
X23356197Y-52229744D01*
X23356601Y-52256147D01*
X23444150Y-52472754D01*
X23572275Y-52668119D01*
X23736052Y-52834734D01*
X23929187Y-52966196D01*
X24144258Y-53057454D01*
X24373000Y-53105000D01*
X24673000Y-53105000D01*
X24673000Y-52047000D01*
X24927000Y-52047000D01*
X24927000Y-53105000D01*
X25227000Y-53105000D01*
X25455742Y-53057454D01*
X25670813Y-52966196D01*
X25863948Y-52834734D01*
X26027725Y-52668119D01*
X26155850Y-52472754D01*
X26243399Y-52256147D01*
X26243803Y-52229744D01*
X26118361Y-52047000D01*
X24927000Y-52047000D01*
X24673000Y-52047000D01*
X23481639Y-52047000D01*
X23356197Y-52229744D01*
X22443803Y-52229744D01*
X22318361Y-52047000D01*
X21127000Y-52047000D01*
X21127000Y-52067000D01*
X21027000Y-52067000D01*
X21027000Y-51773000D01*
X21127000Y-51773000D01*
X21127000Y-51793000D01*
X22318361Y-51793000D01*
X22443803Y-51610256D01*
X23356197Y-51610256D01*
X23481639Y-51793000D01*
X24673000Y-51793000D01*
X24673000Y-50735000D01*
X24927000Y-50735000D01*
X24927000Y-51793000D01*
X26118361Y-51793000D01*
X26243803Y-51610256D01*
X26243399Y-51583853D01*
X26155850Y-51367246D01*
X26027725Y-51171881D01*
X25863948Y-51005266D01*
X25670813Y-50873804D01*
X25455742Y-50782546D01*
X25227000Y-50735000D01*
X24927000Y-50735000D01*
X24673000Y-50735000D01*
X24373000Y-50735000D01*
X24144258Y-50782546D01*
X23929187Y-50873804D01*
X23736052Y-51005266D01*
X23572275Y-51171881D01*
X23444150Y-51367246D01*
X23356601Y-51583853D01*
X23356197Y-51610256D01*
X22443803Y-51610256D01*
X22443399Y-51583853D01*
X22355850Y-51367246D01*
X22227725Y-51171881D01*
X22063948Y-51005266D01*
X21870813Y-50873804D01*
X21655742Y-50782546D01*
X21427000Y-50735000D01*
X21027000Y-50735000D01*
X21027000Y-44465000D01*
X21427000Y-44465000D01*
X21655742Y-44417454D01*
X21870813Y-44326196D01*
X22063948Y-44194734D01*
X22227725Y-44028119D01*
X22355850Y-43832754D01*
X22443399Y-43616147D01*
X22443803Y-43589744D01*
X23356197Y-43589744D01*
X23356601Y-43616147D01*
X23444150Y-43832754D01*
X23572275Y-44028119D01*
X23736052Y-44194734D01*
X23929187Y-44326196D01*
X24144258Y-44417454D01*
X24373000Y-44465000D01*
X24673000Y-44465000D01*
X24673000Y-43407000D01*
X24927000Y-43407000D01*
X24927000Y-44465000D01*
X25227000Y-44465000D01*
X25455742Y-44417454D01*
X25670813Y-44326196D01*
X25863948Y-44194734D01*
X26027725Y-44028119D01*
X26155850Y-43832754D01*
X26243399Y-43616147D01*
X26243803Y-43589744D01*
X26118361Y-43407000D01*
X24927000Y-43407000D01*
X24673000Y-43407000D01*
X23481639Y-43407000D01*
X23356197Y-43589744D01*
X22443803Y-43589744D01*
X22318361Y-43407000D01*
X21127000Y-43407000D01*
X21127000Y-43427000D01*
X21027000Y-43427000D01*
X21027000Y-43133000D01*
X21127000Y-43133000D01*
X21127000Y-43153000D01*
X22318361Y-43153000D01*
X22443803Y-42970256D01*
X23356197Y-42970256D01*
X23481639Y-43153000D01*
X24673000Y-43153000D01*
X24673000Y-42095000D01*
X24927000Y-42095000D01*
X24927000Y-43153000D01*
X26118361Y-43153000D01*
X26243803Y-42970256D01*
X26243399Y-42943853D01*
X26155850Y-42727246D01*
X26027725Y-42531881D01*
X25863948Y-42365266D01*
X25670813Y-42233804D01*
X25455742Y-42142546D01*
X25227000Y-42095000D01*
X24927000Y-42095000D01*
X24673000Y-42095000D01*
X24373000Y-42095000D01*
X24144258Y-42142546D01*
X23929187Y-42233804D01*
X23736052Y-42365266D01*
X23572275Y-42531881D01*
X23444150Y-42727246D01*
X23356601Y-42943853D01*
X23356197Y-42970256D01*
X22443803Y-42970256D01*
X22443399Y-42943853D01*
X22355850Y-42727246D01*
X22227725Y-42531881D01*
X22063948Y-42365266D01*
X21870813Y-42233804D01*
X21655742Y-42142546D01*
X21427000Y-42095000D01*
X21027000Y-42095000D01*
X21027000Y-41127000D01*
X68773000Y-41127000D01*
X68773000Y-55099162D01*
G36*
X33003000Y-73380472D02*
G01*
X33059760Y-73665825D01*
X33110551Y-73788447D01*
X30921642Y-75977357D01*
X31032216Y-75752616D01*
X31120369Y-75422415D01*
X31142409Y-75081361D01*
X31097489Y-74742561D01*
X30987336Y-74419034D01*
X30881338Y-74220726D01*
X30606712Y-74112893D01*
X29579605Y-75140000D01*
X29593748Y-75154143D01*
X29414143Y-75333748D01*
X29400000Y-75319605D01*
X29385858Y-75333748D01*
X29206253Y-75154143D01*
X29220395Y-75140000D01*
X29206253Y-75125858D01*
X29385858Y-74946253D01*
X29400000Y-74960395D01*
X30427107Y-73933288D01*
X30319274Y-73658662D01*
X30012616Y-73507784D01*
X29682415Y-73419631D01*
X29341361Y-73397591D01*
X29002561Y-73442511D01*
X28679034Y-73552664D01*
X28480726Y-73658662D01*
X28372894Y-73933286D01*
X28317000Y-73877392D01*
X28317000Y-73744076D01*
X28271769Y-73516682D01*
X28183044Y-73302481D01*
X28182723Y-73302000D01*
X31703155Y-73302000D01*
X31804691Y-73403536D01*
X31931952Y-73488569D01*
X32073357Y-73547141D01*
X32223472Y-73577000D01*
X32376528Y-73577000D01*
X32526643Y-73547141D01*
X32668048Y-73488569D01*
X32795309Y-73403536D01*
X32903536Y-73295309D01*
X32988569Y-73168048D01*
X33003000Y-73133209D01*
X33003000Y-73380472D01*
G37*
X33003000Y-73380472D02*
X33059760Y-73665825D01*
X33110551Y-73788447D01*
X30921642Y-75977357D01*
X31032216Y-75752616D01*
X31120369Y-75422415D01*
X31142409Y-75081361D01*
X31097489Y-74742561D01*
X30987336Y-74419034D01*
X30881338Y-74220726D01*
X30606712Y-74112893D01*
X29579605Y-75140000D01*
X29593748Y-75154143D01*
X29414143Y-75333748D01*
X29400000Y-75319605D01*
X29385858Y-75333748D01*
X29206253Y-75154143D01*
X29220395Y-75140000D01*
X29206253Y-75125858D01*
X29385858Y-74946253D01*
X29400000Y-74960395D01*
X30427107Y-73933288D01*
X30319274Y-73658662D01*
X30012616Y-73507784D01*
X29682415Y-73419631D01*
X29341361Y-73397591D01*
X29002561Y-73442511D01*
X28679034Y-73552664D01*
X28480726Y-73658662D01*
X28372894Y-73933286D01*
X28317000Y-73877392D01*
X28317000Y-73744076D01*
X28271769Y-73516682D01*
X28183044Y-73302481D01*
X28182723Y-73302000D01*
X31703155Y-73302000D01*
X31804691Y-73403536D01*
X31931952Y-73488569D01*
X32073357Y-73547141D01*
X32223472Y-73577000D01*
X32376528Y-73577000D01*
X32526643Y-73547141D01*
X32668048Y-73488569D01*
X32795309Y-73403536D01*
X32903536Y-73295309D01*
X32988569Y-73168048D01*
X33003000Y-73133209D01*
X33003000Y-73380472D01*
M02*
