G04 #@! TF.GenerationSoftware,KiCad,Pcbnew,(5.1.8)-1*
G04 #@! TF.CreationDate,2020-12-20T03:48:40+13:00*
G04 #@! TF.ProjectId,rgbntsc,7267626e-7473-4632-9e6b-696361645f70,rev?*
G04 #@! TF.SameCoordinates,Original*
G04 #@! TF.FileFunction,Legend,Top*
G04 #@! TF.FilePolarity,Positive*
%FSLAX46Y46*%
G04 Gerber Fmt 4.6, Leading zero omitted, Abs format (unit mm)*
G04 Created by KiCad (PCBNEW (5.1.8)-1) date 2020-12-20 03:48:40*
%MOMM*%
%LPD*%
G01*
G04 APERTURE LIST*
%ADD10C,0.200000*%
%ADD11C,0.120000*%
%ADD12C,0.150000*%
%ADD13C,0.127000*%
%ADD14C,0.400000*%
%ADD15C,0.010000*%
%ADD16C,0.050000*%
G04 APERTURE END LIST*
D10*
X47231904Y-103128571D02*
X46798571Y-102414285D01*
X46489047Y-103128571D02*
X46489047Y-101628571D01*
X46984285Y-101628571D01*
X47108095Y-101700000D01*
X47170000Y-101771428D01*
X47231904Y-101914285D01*
X47231904Y-102128571D01*
X47170000Y-102271428D01*
X47108095Y-102342857D01*
X46984285Y-102414285D01*
X46489047Y-102414285D01*
X48470000Y-101700000D02*
X48346190Y-101628571D01*
X48160476Y-101628571D01*
X47974761Y-101700000D01*
X47850952Y-101842857D01*
X47789047Y-101985714D01*
X47727142Y-102271428D01*
X47727142Y-102485714D01*
X47789047Y-102771428D01*
X47850952Y-102914285D01*
X47974761Y-103057142D01*
X48160476Y-103128571D01*
X48284285Y-103128571D01*
X48470000Y-103057142D01*
X48531904Y-102985714D01*
X48531904Y-102485714D01*
X48284285Y-102485714D01*
X49522380Y-102342857D02*
X49708095Y-102414285D01*
X49770000Y-102485714D01*
X49831904Y-102628571D01*
X49831904Y-102842857D01*
X49770000Y-102985714D01*
X49708095Y-103057142D01*
X49584285Y-103128571D01*
X49089047Y-103128571D01*
X49089047Y-101628571D01*
X49522380Y-101628571D01*
X49646190Y-101700000D01*
X49708095Y-101771428D01*
X49770000Y-101914285D01*
X49770000Y-102057142D01*
X49708095Y-102200000D01*
X49646190Y-102271428D01*
X49522380Y-102342857D01*
X49089047Y-102342857D01*
X51193809Y-102128571D02*
X51689047Y-102128571D01*
X51379523Y-101628571D02*
X51379523Y-102914285D01*
X51441428Y-103057142D01*
X51565238Y-103128571D01*
X51689047Y-103128571D01*
X52308095Y-103128571D02*
X52184285Y-103057142D01*
X52122380Y-102985714D01*
X52060476Y-102842857D01*
X52060476Y-102414285D01*
X52122380Y-102271428D01*
X52184285Y-102200000D01*
X52308095Y-102128571D01*
X52493809Y-102128571D01*
X52617619Y-102200000D01*
X52679523Y-102271428D01*
X52741428Y-102414285D01*
X52741428Y-102842857D01*
X52679523Y-102985714D01*
X52617619Y-103057142D01*
X52493809Y-103128571D01*
X52308095Y-103128571D01*
X54289047Y-103128571D02*
X54289047Y-101628571D01*
X55031904Y-103128571D01*
X55031904Y-101628571D01*
X55465238Y-101628571D02*
X56208095Y-101628571D01*
X55836666Y-103128571D02*
X55836666Y-101628571D01*
X56579523Y-103057142D02*
X56765238Y-103128571D01*
X57074761Y-103128571D01*
X57198571Y-103057142D01*
X57260476Y-102985714D01*
X57322380Y-102842857D01*
X57322380Y-102700000D01*
X57260476Y-102557142D01*
X57198571Y-102485714D01*
X57074761Y-102414285D01*
X56827142Y-102342857D01*
X56703333Y-102271428D01*
X56641428Y-102200000D01*
X56579523Y-102057142D01*
X56579523Y-101914285D01*
X56641428Y-101771428D01*
X56703333Y-101700000D01*
X56827142Y-101628571D01*
X57136666Y-101628571D01*
X57322380Y-101700000D01*
X58622380Y-102985714D02*
X58560476Y-103057142D01*
X58374761Y-103128571D01*
X58250952Y-103128571D01*
X58065238Y-103057142D01*
X57941428Y-102914285D01*
X57879523Y-102771428D01*
X57817619Y-102485714D01*
X57817619Y-102271428D01*
X57879523Y-101985714D01*
X57941428Y-101842857D01*
X58065238Y-101700000D01*
X58250952Y-101628571D01*
X58374761Y-101628571D01*
X58560476Y-101700000D01*
X58622380Y-101771428D01*
X38008095Y-104221428D02*
X38070000Y-104150000D01*
X38193809Y-104078571D01*
X38503333Y-104078571D01*
X38627142Y-104150000D01*
X38689047Y-104221428D01*
X38750952Y-104364285D01*
X38750952Y-104507142D01*
X38689047Y-104721428D01*
X37946190Y-105578571D01*
X38750952Y-105578571D01*
X39555714Y-104078571D02*
X39679523Y-104078571D01*
X39803333Y-104150000D01*
X39865238Y-104221428D01*
X39927142Y-104364285D01*
X39989047Y-104650000D01*
X39989047Y-105007142D01*
X39927142Y-105292857D01*
X39865238Y-105435714D01*
X39803333Y-105507142D01*
X39679523Y-105578571D01*
X39555714Y-105578571D01*
X39431904Y-105507142D01*
X39370000Y-105435714D01*
X39308095Y-105292857D01*
X39246190Y-105007142D01*
X39246190Y-104650000D01*
X39308095Y-104364285D01*
X39370000Y-104221428D01*
X39431904Y-104150000D01*
X39555714Y-104078571D01*
X40484285Y-104221428D02*
X40546190Y-104150000D01*
X40670000Y-104078571D01*
X40979523Y-104078571D01*
X41103333Y-104150000D01*
X41165238Y-104221428D01*
X41227142Y-104364285D01*
X41227142Y-104507142D01*
X41165238Y-104721428D01*
X40422380Y-105578571D01*
X41227142Y-105578571D01*
X42031904Y-104078571D02*
X42155714Y-104078571D01*
X42279523Y-104150000D01*
X42341428Y-104221428D01*
X42403333Y-104364285D01*
X42465238Y-104650000D01*
X42465238Y-105007142D01*
X42403333Y-105292857D01*
X42341428Y-105435714D01*
X42279523Y-105507142D01*
X42155714Y-105578571D01*
X42031904Y-105578571D01*
X41908095Y-105507142D01*
X41846190Y-105435714D01*
X41784285Y-105292857D01*
X41722380Y-105007142D01*
X41722380Y-104650000D01*
X41784285Y-104364285D01*
X41846190Y-104221428D01*
X41908095Y-104150000D01*
X42031904Y-104078571D01*
X43022380Y-105007142D02*
X44012857Y-105007142D01*
X45312857Y-105578571D02*
X44570000Y-105578571D01*
X44941428Y-105578571D02*
X44941428Y-104078571D01*
X44817619Y-104292857D01*
X44693809Y-104435714D01*
X44570000Y-104507142D01*
X45808095Y-104221428D02*
X45870000Y-104150000D01*
X45993809Y-104078571D01*
X46303333Y-104078571D01*
X46427142Y-104150000D01*
X46489047Y-104221428D01*
X46550952Y-104364285D01*
X46550952Y-104507142D01*
X46489047Y-104721428D01*
X45746190Y-105578571D01*
X46550952Y-105578571D01*
X47108095Y-105007142D02*
X48098571Y-105007142D01*
X49398571Y-105578571D02*
X48655714Y-105578571D01*
X49027142Y-105578571D02*
X49027142Y-104078571D01*
X48903333Y-104292857D01*
X48779523Y-104435714D01*
X48655714Y-104507142D01*
X50203333Y-104078571D02*
X50327142Y-104078571D01*
X50450952Y-104150000D01*
X50512857Y-104221428D01*
X50574761Y-104364285D01*
X50636666Y-104650000D01*
X50636666Y-105007142D01*
X50574761Y-105292857D01*
X50512857Y-105435714D01*
X50450952Y-105507142D01*
X50327142Y-105578571D01*
X50203333Y-105578571D01*
X50079523Y-105507142D01*
X50017619Y-105435714D01*
X49955714Y-105292857D01*
X49893809Y-105007142D01*
X49893809Y-104650000D01*
X49955714Y-104364285D01*
X50017619Y-104221428D01*
X50079523Y-104150000D01*
X50203333Y-104078571D01*
X52184285Y-105578571D02*
X52184285Y-104578571D01*
X52184285Y-104864285D02*
X52246190Y-104721428D01*
X52308095Y-104650000D01*
X52431904Y-104578571D01*
X52555714Y-104578571D01*
X53484285Y-105507142D02*
X53360476Y-105578571D01*
X53112857Y-105578571D01*
X52989047Y-105507142D01*
X52927142Y-105364285D01*
X52927142Y-104792857D01*
X52989047Y-104650000D01*
X53112857Y-104578571D01*
X53360476Y-104578571D01*
X53484285Y-104650000D01*
X53546190Y-104792857D01*
X53546190Y-104935714D01*
X52927142Y-105078571D01*
X53979523Y-104578571D02*
X54289047Y-105578571D01*
X54598571Y-104578571D01*
X55960476Y-104078571D02*
X56765238Y-104078571D01*
X56331904Y-104650000D01*
X56517619Y-104650000D01*
X56641428Y-104721428D01*
X56703333Y-104792857D01*
X56765238Y-104935714D01*
X56765238Y-105292857D01*
X56703333Y-105435714D01*
X56641428Y-105507142D01*
X56517619Y-105578571D01*
X56146190Y-105578571D01*
X56022380Y-105507142D01*
X55960476Y-105435714D01*
X57322380Y-105435714D02*
X57384285Y-105507142D01*
X57322380Y-105578571D01*
X57260476Y-105507142D01*
X57322380Y-105435714D01*
X57322380Y-105578571D01*
X58622380Y-105578571D02*
X57879523Y-105578571D01*
X58250952Y-105578571D02*
X58250952Y-104078571D01*
X58127142Y-104292857D01*
X58003333Y-104435714D01*
X57879523Y-104507142D01*
X42217619Y-107028571D02*
X42465238Y-108028571D01*
X42712857Y-107314285D01*
X42960476Y-108028571D01*
X43208095Y-107028571D01*
X44260476Y-108028571D02*
X44260476Y-107242857D01*
X44198571Y-107100000D01*
X44074761Y-107028571D01*
X43827142Y-107028571D01*
X43703333Y-107100000D01*
X44260476Y-107957142D02*
X44136666Y-108028571D01*
X43827142Y-108028571D01*
X43703333Y-107957142D01*
X43641428Y-107814285D01*
X43641428Y-107671428D01*
X43703333Y-107528571D01*
X43827142Y-107457142D01*
X44136666Y-107457142D01*
X44260476Y-107385714D01*
X44879523Y-108028571D02*
X44879523Y-106528571D01*
X45003333Y-107457142D02*
X45374761Y-108028571D01*
X45374761Y-107028571D02*
X44879523Y-107600000D01*
X46489047Y-108028571D02*
X46489047Y-107242857D01*
X46427142Y-107100000D01*
X46303333Y-107028571D01*
X46055714Y-107028571D01*
X45931904Y-107100000D01*
X46489047Y-107957142D02*
X46365238Y-108028571D01*
X46055714Y-108028571D01*
X45931904Y-107957142D01*
X45870000Y-107814285D01*
X45870000Y-107671428D01*
X45931904Y-107528571D01*
X46055714Y-107457142D01*
X46365238Y-107457142D01*
X46489047Y-107385714D01*
X47108095Y-108028571D02*
X47108095Y-106528571D01*
X47108095Y-107100000D02*
X47231904Y-107028571D01*
X47479523Y-107028571D01*
X47603333Y-107100000D01*
X47665238Y-107171428D01*
X47727142Y-107314285D01*
X47727142Y-107742857D01*
X47665238Y-107885714D01*
X47603333Y-107957142D01*
X47479523Y-108028571D01*
X47231904Y-108028571D01*
X47108095Y-107957142D01*
X48841428Y-108028571D02*
X48841428Y-107242857D01*
X48779523Y-107100000D01*
X48655714Y-107028571D01*
X48408095Y-107028571D01*
X48284285Y-107100000D01*
X48841428Y-107957142D02*
X48717619Y-108028571D01*
X48408095Y-108028571D01*
X48284285Y-107957142D01*
X48222380Y-107814285D01*
X48222380Y-107671428D01*
X48284285Y-107528571D01*
X48408095Y-107457142D01*
X48717619Y-107457142D01*
X48841428Y-107385714D01*
X49336666Y-107028571D02*
X49646190Y-108028571D01*
X49955714Y-107028571D01*
X50450952Y-108028571D02*
X50450952Y-107028571D01*
X50450952Y-106528571D02*
X50389047Y-106600000D01*
X50450952Y-106671428D01*
X50512857Y-106600000D01*
X50450952Y-106528571D01*
X50450952Y-106671428D01*
X51627142Y-108028571D02*
X51627142Y-106528571D01*
X51627142Y-107957142D02*
X51503333Y-108028571D01*
X51255714Y-108028571D01*
X51131904Y-107957142D01*
X51070000Y-107885714D01*
X51008095Y-107742857D01*
X51008095Y-107314285D01*
X51070000Y-107171428D01*
X51131904Y-107100000D01*
X51255714Y-107028571D01*
X51503333Y-107028571D01*
X51627142Y-107100000D01*
X52741428Y-107957142D02*
X52617619Y-108028571D01*
X52370000Y-108028571D01*
X52246190Y-107957142D01*
X52184285Y-107814285D01*
X52184285Y-107242857D01*
X52246190Y-107100000D01*
X52370000Y-107028571D01*
X52617619Y-107028571D01*
X52741428Y-107100000D01*
X52803333Y-107242857D01*
X52803333Y-107385714D01*
X52184285Y-107528571D01*
X53546190Y-108028571D02*
X53422380Y-107957142D01*
X53360476Y-107885714D01*
X53298571Y-107742857D01*
X53298571Y-107314285D01*
X53360476Y-107171428D01*
X53422380Y-107100000D01*
X53546190Y-107028571D01*
X53731904Y-107028571D01*
X53855714Y-107100000D01*
X53917619Y-107171428D01*
X53979523Y-107314285D01*
X53979523Y-107742857D01*
X53917619Y-107885714D01*
X53855714Y-107957142D01*
X53731904Y-108028571D01*
X53546190Y-108028571D01*
X54536666Y-107885714D02*
X54598571Y-107957142D01*
X54536666Y-108028571D01*
X54474761Y-107957142D01*
X54536666Y-107885714D01*
X54536666Y-108028571D01*
X55712857Y-107957142D02*
X55589047Y-108028571D01*
X55341428Y-108028571D01*
X55217619Y-107957142D01*
X55155714Y-107885714D01*
X55093809Y-107742857D01*
X55093809Y-107314285D01*
X55155714Y-107171428D01*
X55217619Y-107100000D01*
X55341428Y-107028571D01*
X55589047Y-107028571D01*
X55712857Y-107100000D01*
X56455714Y-108028571D02*
X56331904Y-107957142D01*
X56270000Y-107885714D01*
X56208095Y-107742857D01*
X56208095Y-107314285D01*
X56270000Y-107171428D01*
X56331904Y-107100000D01*
X56455714Y-107028571D01*
X56641428Y-107028571D01*
X56765238Y-107100000D01*
X56827142Y-107171428D01*
X56889047Y-107314285D01*
X56889047Y-107742857D01*
X56827142Y-107885714D01*
X56765238Y-107957142D01*
X56641428Y-108028571D01*
X56455714Y-108028571D01*
X57446190Y-108028571D02*
X57446190Y-107028571D01*
X57446190Y-107171428D02*
X57508095Y-107100000D01*
X57631904Y-107028571D01*
X57817619Y-107028571D01*
X57941428Y-107100000D01*
X58003333Y-107242857D01*
X58003333Y-108028571D01*
X58003333Y-107242857D02*
X58065238Y-107100000D01*
X58189047Y-107028571D01*
X58374761Y-107028571D01*
X58498571Y-107100000D01*
X58560476Y-107242857D01*
X58560476Y-108028571D01*
D11*
X45665000Y-91772936D02*
X45665000Y-92227064D01*
X47135000Y-91772936D02*
X47135000Y-92227064D01*
X43665000Y-91772936D02*
X43665000Y-92227064D01*
X45135000Y-91772936D02*
X45135000Y-92227064D01*
X41665000Y-91772936D02*
X41665000Y-92227064D01*
X43135000Y-91772936D02*
X43135000Y-92227064D01*
X51856250Y-51258750D02*
X51856250Y-52046250D01*
X51462500Y-51652500D02*
X52250000Y-51652500D01*
X52490000Y-55845563D02*
X53554437Y-56910000D01*
X52490000Y-51154437D02*
X53554437Y-50090000D01*
X52490000Y-51154437D02*
X52490000Y-52440000D01*
X52490000Y-55845563D02*
X52490000Y-54560000D01*
X53554437Y-56910000D02*
X59310000Y-56910000D01*
X53554437Y-50090000D02*
X59310000Y-50090000D01*
X59310000Y-50090000D02*
X59310000Y-52440000D01*
X59310000Y-56910000D02*
X59310000Y-54560000D01*
X45665000Y-88338748D02*
X45665000Y-88861252D01*
X47135000Y-88338748D02*
X47135000Y-88861252D01*
X43665000Y-88338748D02*
X43665000Y-88861252D01*
X45135000Y-88338748D02*
X45135000Y-88861252D01*
X41665000Y-88338748D02*
X41665000Y-88861252D01*
X43135000Y-88338748D02*
X43135000Y-88861252D01*
X47035000Y-97361252D02*
X47035000Y-96838748D01*
X45565000Y-97361252D02*
X45565000Y-96838748D01*
X40861252Y-48865000D02*
X40338748Y-48865000D01*
X40861252Y-50335000D02*
X40338748Y-50335000D01*
X55361252Y-86265000D02*
X54838748Y-86265000D01*
X55361252Y-87735000D02*
X54838748Y-87735000D01*
X37065000Y-88638748D02*
X37065000Y-89161252D01*
X38535000Y-88638748D02*
X38535000Y-89161252D01*
X37065000Y-81038748D02*
X37065000Y-81561252D01*
X38535000Y-81038748D02*
X38535000Y-81561252D01*
X38535000Y-77761252D02*
X38535000Y-77238748D01*
X37065000Y-77761252D02*
X37065000Y-77238748D01*
X45461252Y-59765000D02*
X44938748Y-59765000D01*
X45461252Y-61235000D02*
X44938748Y-61235000D01*
X34765000Y-43838748D02*
X34765000Y-44361252D01*
X36235000Y-43838748D02*
X36235000Y-44361252D01*
X45261252Y-67915000D02*
X44738748Y-67915000D01*
X45261252Y-69385000D02*
X44738748Y-69385000D01*
X38765000Y-66038748D02*
X38765000Y-66561252D01*
X40235000Y-66038748D02*
X40235000Y-66561252D01*
D12*
X41950000Y-98775000D02*
X41950000Y-100000000D01*
X45075000Y-98775000D02*
X45075000Y-95425000D01*
X41725000Y-98775000D02*
X41725000Y-95425000D01*
X45075000Y-98775000D02*
X44775000Y-98775000D01*
X45075000Y-95425000D02*
X44775000Y-95425000D01*
X41725000Y-95425000D02*
X42025000Y-95425000D01*
X41725000Y-98775000D02*
X41950000Y-98775000D01*
D11*
X49072936Y-90435000D02*
X49527064Y-90435000D01*
X49072936Y-88965000D02*
X49527064Y-88965000D01*
X49072936Y-88435000D02*
X49527064Y-88435000D01*
X49072936Y-86965000D02*
X49527064Y-86965000D01*
X49072936Y-92435000D02*
X49527064Y-92435000D01*
X49072936Y-90965000D02*
X49527064Y-90965000D01*
X40326000Y-43382000D02*
X39396000Y-43382000D01*
X37166000Y-43382000D02*
X38096000Y-43382000D01*
X37166000Y-43382000D02*
X37166000Y-45542000D01*
X40326000Y-43382000D02*
X40326000Y-44842000D01*
X34127064Y-55265000D02*
X33672936Y-55265000D01*
X34127064Y-56735000D02*
X33672936Y-56735000D01*
X54627064Y-74665000D02*
X54172936Y-74665000D01*
X54627064Y-76135000D02*
X54172936Y-76135000D01*
X50865000Y-63072936D02*
X50865000Y-63527064D01*
X52335000Y-63072936D02*
X52335000Y-63527064D01*
X47565000Y-54172936D02*
X47565000Y-54627064D01*
X49035000Y-54172936D02*
X49035000Y-54627064D01*
X49827064Y-74465000D02*
X49372936Y-74465000D01*
X49827064Y-75935000D02*
X49372936Y-75935000D01*
X37065000Y-92472936D02*
X37065000Y-92927064D01*
X38535000Y-92472936D02*
X38535000Y-92927064D01*
X37027064Y-46865000D02*
X36572936Y-46865000D01*
X37027064Y-48335000D02*
X36572936Y-48335000D01*
X40827064Y-46865000D02*
X40372936Y-46865000D01*
X40827064Y-48335000D02*
X40372936Y-48335000D01*
X37065000Y-84872936D02*
X37065000Y-85327064D01*
X38535000Y-84872936D02*
X38535000Y-85327064D01*
X38535000Y-73927064D02*
X38535000Y-73472936D01*
X37065000Y-73927064D02*
X37065000Y-73472936D01*
X45227064Y-69965000D02*
X44772936Y-69965000D01*
X45227064Y-71435000D02*
X44772936Y-71435000D01*
X29827064Y-47465000D02*
X29372936Y-47465000D01*
X29827064Y-48935000D02*
X29372936Y-48935000D01*
X29827064Y-45465000D02*
X29372936Y-45465000D01*
X29827064Y-46935000D02*
X29372936Y-46935000D01*
X40235000Y-62527064D02*
X40235000Y-62072936D01*
X38765000Y-62527064D02*
X38765000Y-62072936D01*
D13*
X71600000Y-69600000D02*
X71600000Y-83600000D01*
X58600000Y-83600000D02*
X58600000Y-69600000D01*
X71600000Y-69600000D02*
X67910000Y-69600000D01*
X58600000Y-69600000D02*
X64250000Y-69600000D01*
X71600000Y-83600000D02*
X67910000Y-83600000D01*
X58600000Y-83600000D02*
X64250000Y-83600000D01*
D14*
X63300000Y-68940000D02*
G75*
G03*
X63300000Y-68940000I-200000J0D01*
G01*
D11*
X56610000Y-81100000D02*
X56610000Y-78450000D01*
X56610000Y-81100000D02*
X56610000Y-83750000D01*
X41390000Y-81100000D02*
X41390000Y-78450000D01*
X41390000Y-81100000D02*
X41390000Y-85550000D01*
X57410000Y-74310000D02*
X57410000Y-71960000D01*
X57410000Y-67490000D02*
X57410000Y-69840000D01*
X51654437Y-67490000D02*
X57410000Y-67490000D01*
X51654437Y-74310000D02*
X57410000Y-74310000D01*
X50590000Y-73245563D02*
X50590000Y-71960000D01*
X50590000Y-68554437D02*
X50590000Y-69840000D01*
X50590000Y-68554437D02*
X51654437Y-67490000D01*
X50590000Y-73245563D02*
X51654437Y-74310000D01*
X49562500Y-69052500D02*
X50350000Y-69052500D01*
X49956250Y-68658750D02*
X49956250Y-69446250D01*
X52790000Y-65810000D02*
X55140000Y-65810000D01*
X59610000Y-65810000D02*
X57260000Y-65810000D01*
X59610000Y-60054437D02*
X59610000Y-65810000D01*
X52790000Y-60054437D02*
X52790000Y-65810000D01*
X53854437Y-58990000D02*
X55140000Y-58990000D01*
X58545563Y-58990000D02*
X57260000Y-58990000D01*
X58545563Y-58990000D02*
X59610000Y-60054437D01*
X53854437Y-58990000D02*
X52790000Y-60054437D01*
X58047500Y-57962500D02*
X58047500Y-58750000D01*
X58441250Y-58356250D02*
X57653750Y-58356250D01*
X37000000Y-54610000D02*
X38800000Y-54610000D01*
X38800000Y-51390000D02*
X36350000Y-51390000D01*
X33000000Y-54610000D02*
X34800000Y-54610000D01*
X34800000Y-51390000D02*
X32350000Y-51390000D01*
X43700000Y-54700000D02*
X43400000Y-55000000D01*
X43400000Y-54400000D02*
X43400000Y-55000000D01*
X43700000Y-54700000D02*
X43400000Y-54400000D01*
X43900000Y-53950000D02*
X45900000Y-53950000D01*
X43900000Y-58050000D02*
X43900000Y-53950000D01*
X45900000Y-58050000D02*
X43900000Y-58050000D01*
X45900000Y-53950000D02*
X45900000Y-58050000D01*
D15*
G36*
X53427382Y-94639441D02*
G01*
X53434542Y-94646008D01*
X53486112Y-94788968D01*
X53377089Y-94944131D01*
X53115075Y-95104128D01*
X52848780Y-95213594D01*
X52345658Y-95375822D01*
X51959840Y-95459534D01*
X51701436Y-95463374D01*
X51580555Y-95385988D01*
X51579684Y-95383798D01*
X51565645Y-95214749D01*
X51688430Y-95100089D01*
X51949804Y-95027144D01*
X52197195Y-94965940D01*
X52522773Y-94862792D01*
X52801445Y-94760876D01*
X53119276Y-94647797D01*
X53317891Y-94609139D01*
X53427382Y-94639441D01*
G37*
X53427382Y-94639441D02*
X53434542Y-94646008D01*
X53486112Y-94788968D01*
X53377089Y-94944131D01*
X53115075Y-95104128D01*
X52848780Y-95213594D01*
X52345658Y-95375822D01*
X51959840Y-95459534D01*
X51701436Y-95463374D01*
X51580555Y-95385988D01*
X51579684Y-95383798D01*
X51565645Y-95214749D01*
X51688430Y-95100089D01*
X51949804Y-95027144D01*
X52197195Y-94965940D01*
X52522773Y-94862792D01*
X52801445Y-94760876D01*
X53119276Y-94647797D01*
X53317891Y-94609139D01*
X53427382Y-94639441D01*
G36*
X54300843Y-94854628D02*
G01*
X54592182Y-95000116D01*
X54643055Y-95033666D01*
X55049231Y-95216174D01*
X55302982Y-95246629D01*
X55633539Y-95278552D01*
X55814826Y-95369313D01*
X55841262Y-95515908D01*
X55835328Y-95533121D01*
X55756969Y-95615309D01*
X55579022Y-95657533D01*
X55292694Y-95668666D01*
X54981686Y-95653221D01*
X54738903Y-95589424D01*
X54482140Y-95451082D01*
X54361501Y-95371967D01*
X54089216Y-95164676D01*
X53970707Y-95011809D01*
X53969523Y-94948634D01*
X54088650Y-94836882D01*
X54300843Y-94854628D01*
G37*
X54300843Y-94854628D02*
X54592182Y-95000116D01*
X54643055Y-95033666D01*
X55049231Y-95216174D01*
X55302982Y-95246629D01*
X55633539Y-95278552D01*
X55814826Y-95369313D01*
X55841262Y-95515908D01*
X55835328Y-95533121D01*
X55756969Y-95615309D01*
X55579022Y-95657533D01*
X55292694Y-95668666D01*
X54981686Y-95653221D01*
X54738903Y-95589424D01*
X54482140Y-95451082D01*
X54361501Y-95371967D01*
X54089216Y-95164676D01*
X53970707Y-95011809D01*
X53969523Y-94948634D01*
X54088650Y-94836882D01*
X54300843Y-94854628D01*
G36*
X55283356Y-96112182D02*
G01*
X55339184Y-96329804D01*
X55332518Y-96521495D01*
X55251410Y-96695007D01*
X55067631Y-96906617D01*
X55031644Y-96942944D01*
X54723242Y-97189683D01*
X54453330Y-97272899D01*
X54218743Y-97193194D01*
X54132947Y-97114571D01*
X54021070Y-96911936D01*
X53952274Y-96639704D01*
X53938104Y-96371867D01*
X53987981Y-96185495D01*
X54112699Y-96102053D01*
X54241193Y-96151355D01*
X54327271Y-96304352D01*
X54339963Y-96406842D01*
X54363647Y-96619562D01*
X54407654Y-96746862D01*
X54514961Y-96796319D01*
X54660055Y-96721843D01*
X54808613Y-96552716D01*
X54926310Y-96318216D01*
X54932954Y-96298755D01*
X55047778Y-96080507D01*
X55175018Y-96019114D01*
X55283356Y-96112182D01*
G37*
X55283356Y-96112182D02*
X55339184Y-96329804D01*
X55332518Y-96521495D01*
X55251410Y-96695007D01*
X55067631Y-96906617D01*
X55031644Y-96942944D01*
X54723242Y-97189683D01*
X54453330Y-97272899D01*
X54218743Y-97193194D01*
X54132947Y-97114571D01*
X54021070Y-96911936D01*
X53952274Y-96639704D01*
X53938104Y-96371867D01*
X53987981Y-96185495D01*
X54112699Y-96102053D01*
X54241193Y-96151355D01*
X54327271Y-96304352D01*
X54339963Y-96406842D01*
X54363647Y-96619562D01*
X54407654Y-96746862D01*
X54514961Y-96796319D01*
X54660055Y-96721843D01*
X54808613Y-96552716D01*
X54926310Y-96318216D01*
X54932954Y-96298755D01*
X55047778Y-96080507D01*
X55175018Y-96019114D01*
X55283356Y-96112182D01*
G36*
X52951984Y-95980674D02*
G01*
X53053207Y-96095174D01*
X53054877Y-96293578D01*
X52976794Y-96539670D01*
X52838759Y-96797234D01*
X52660573Y-97030055D01*
X52462034Y-97201916D01*
X52262944Y-97276602D01*
X52243062Y-97277333D01*
X52054380Y-97219260D01*
X51840875Y-97075134D01*
X51792154Y-97029846D01*
X51611271Y-96794635D01*
X51547104Y-96531741D01*
X51544667Y-96446237D01*
X51573902Y-96195399D01*
X51653838Y-96068701D01*
X51661350Y-96065341D01*
X51819791Y-96077397D01*
X51930888Y-96224055D01*
X51968000Y-96444621D01*
X52032639Y-96674332D01*
X52136906Y-96769104D01*
X52261331Y-96807520D01*
X52364645Y-96742701D01*
X52475256Y-96581583D01*
X52585583Y-96379225D01*
X52642798Y-96232499D01*
X52645017Y-96214766D01*
X52711197Y-96062218D01*
X52856389Y-95975322D01*
X52951984Y-95980674D01*
G37*
X52951984Y-95980674D02*
X53053207Y-96095174D01*
X53054877Y-96293578D01*
X52976794Y-96539670D01*
X52838759Y-96797234D01*
X52660573Y-97030055D01*
X52462034Y-97201916D01*
X52262944Y-97276602D01*
X52243062Y-97277333D01*
X52054380Y-97219260D01*
X51840875Y-97075134D01*
X51792154Y-97029846D01*
X51611271Y-96794635D01*
X51547104Y-96531741D01*
X51544667Y-96446237D01*
X51573902Y-96195399D01*
X51653838Y-96068701D01*
X51661350Y-96065341D01*
X51819791Y-96077397D01*
X51930888Y-96224055D01*
X51968000Y-96444621D01*
X52032639Y-96674332D01*
X52136906Y-96769104D01*
X52261331Y-96807520D01*
X52364645Y-96742701D01*
X52475256Y-96581583D01*
X52585583Y-96379225D01*
X52642798Y-96232499D01*
X52645017Y-96214766D01*
X52711197Y-96062218D01*
X52856389Y-95975322D01*
X52951984Y-95980674D01*
G36*
X53581139Y-98081666D02*
G01*
X53515553Y-98168880D01*
X53444388Y-98195585D01*
X53340547Y-98174652D01*
X53341138Y-98110919D01*
X53425421Y-98014779D01*
X53532610Y-98006727D01*
X53581139Y-98081666D01*
G37*
X53581139Y-98081666D02*
X53515553Y-98168880D01*
X53444388Y-98195585D01*
X53340547Y-98174652D01*
X53341138Y-98110919D01*
X53425421Y-98014779D01*
X53532610Y-98006727D01*
X53581139Y-98081666D01*
G36*
X52898165Y-98022045D02*
G01*
X52929951Y-98081666D01*
X52916942Y-98190894D01*
X52854343Y-98208666D01*
X52744412Y-98140834D01*
X52730000Y-98081666D01*
X52770906Y-97968925D01*
X52805608Y-97954666D01*
X52898165Y-98022045D01*
G37*
X52898165Y-98022045D02*
X52929951Y-98081666D01*
X52916942Y-98190894D01*
X52854343Y-98208666D01*
X52744412Y-98140834D01*
X52730000Y-98081666D01*
X52770906Y-97968925D01*
X52805608Y-97954666D01*
X52898165Y-98022045D01*
G36*
X55993024Y-97850774D02*
G01*
X55919405Y-98011137D01*
X55905000Y-98039333D01*
X55793126Y-98211731D01*
X55695960Y-98292497D01*
X55688625Y-98293333D01*
X55677652Y-98235112D01*
X55755468Y-98090254D01*
X55791388Y-98039333D01*
X55919890Y-97874792D01*
X56000340Y-97788909D01*
X56007763Y-97785333D01*
X55993024Y-97850774D01*
G37*
X55993024Y-97850774D02*
X55919405Y-98011137D01*
X55905000Y-98039333D01*
X55793126Y-98211731D01*
X55695960Y-98292497D01*
X55688625Y-98293333D01*
X55677652Y-98235112D01*
X55755468Y-98090254D01*
X55791388Y-98039333D01*
X55919890Y-97874792D01*
X56000340Y-97788909D01*
X56007763Y-97785333D01*
X55993024Y-97850774D01*
G36*
X55721902Y-97808226D02*
G01*
X55711539Y-97828613D01*
X55581510Y-98010107D01*
X55426009Y-98166674D01*
X55306032Y-98265643D01*
X55290828Y-98263712D01*
X55382131Y-98148571D01*
X55438065Y-98081060D01*
X55630134Y-97851855D01*
X55731035Y-97739607D01*
X55756410Y-97729877D01*
X55721902Y-97808226D01*
G37*
X55721902Y-97808226D02*
X55711539Y-97828613D01*
X55581510Y-98010107D01*
X55426009Y-98166674D01*
X55306032Y-98265643D01*
X55290828Y-98263712D01*
X55382131Y-98148571D01*
X55438065Y-98081060D01*
X55630134Y-97851855D01*
X55731035Y-97739607D01*
X55756410Y-97729877D01*
X55721902Y-97808226D01*
G36*
X55310575Y-97842415D02*
G01*
X55277616Y-97912333D01*
X55147752Y-98143107D01*
X55055820Y-98260815D01*
X55017558Y-98245695D01*
X55017297Y-98239213D01*
X55067781Y-98111943D01*
X55190114Y-97942879D01*
X55297284Y-97827889D01*
X55310575Y-97842415D01*
G37*
X55310575Y-97842415D02*
X55277616Y-97912333D01*
X55147752Y-98143107D01*
X55055820Y-98260815D01*
X55017558Y-98245695D01*
X55017297Y-98239213D01*
X55067781Y-98111943D01*
X55190114Y-97942879D01*
X55297284Y-97827889D01*
X55310575Y-97842415D01*
G36*
X55097554Y-97743000D02*
G01*
X55048409Y-97856914D01*
X54923645Y-98033626D01*
X54884104Y-98081666D01*
X54771165Y-98200141D01*
X54736631Y-98204182D01*
X54751321Y-98166333D01*
X54860036Y-97975813D01*
X54975406Y-97816999D01*
X55065217Y-97729278D01*
X55097554Y-97743000D01*
G37*
X55097554Y-97743000D02*
X55048409Y-97856914D01*
X54923645Y-98033626D01*
X54884104Y-98081666D01*
X54771165Y-98200141D01*
X54736631Y-98204182D01*
X54751321Y-98166333D01*
X54860036Y-97975813D01*
X54975406Y-97816999D01*
X55065217Y-97729278D01*
X55097554Y-97743000D01*
G36*
X54566104Y-98178690D02*
G01*
X54550334Y-98208666D01*
X54470559Y-98289523D01*
X54455673Y-98293333D01*
X54449897Y-98238643D01*
X54465667Y-98208666D01*
X54545441Y-98127809D01*
X54560327Y-98124000D01*
X54566104Y-98178690D01*
G37*
X54566104Y-98178690D02*
X54550334Y-98208666D01*
X54470559Y-98289523D01*
X54455673Y-98293333D01*
X54449897Y-98238643D01*
X54465667Y-98208666D01*
X54545441Y-98127809D01*
X54560327Y-98124000D01*
X54566104Y-98178690D01*
G36*
X51798667Y-97924373D02*
G01*
X51750266Y-98048646D01*
X51666996Y-98171317D01*
X51579462Y-98275402D01*
X51579310Y-98246943D01*
X51636131Y-98124000D01*
X51737169Y-97926263D01*
X51787268Y-97871210D01*
X51798667Y-97924373D01*
G37*
X51798667Y-97924373D02*
X51750266Y-98048646D01*
X51666996Y-98171317D01*
X51579462Y-98275402D01*
X51579310Y-98246943D01*
X51636131Y-98124000D01*
X51737169Y-97926263D01*
X51787268Y-97871210D01*
X51798667Y-97924373D01*
G36*
X51284666Y-97912333D02*
G01*
X51245791Y-98042378D01*
X51163667Y-98208666D01*
X51079424Y-98332000D01*
X51042722Y-98338121D01*
X51042667Y-98335666D01*
X51081542Y-98205621D01*
X51163667Y-98039333D01*
X51247909Y-97915999D01*
X51284612Y-97909878D01*
X51284666Y-97912333D01*
G37*
X51284666Y-97912333D02*
X51245791Y-98042378D01*
X51163667Y-98208666D01*
X51079424Y-98332000D01*
X51042722Y-98338121D01*
X51042667Y-98335666D01*
X51081542Y-98205621D01*
X51163667Y-98039333D01*
X51247909Y-97915999D01*
X51284612Y-97909878D01*
X51284666Y-97912333D01*
G36*
X50990289Y-97951684D02*
G01*
X50929818Y-98093112D01*
X50827928Y-98257179D01*
X50714766Y-98356414D01*
X50631660Y-98363057D01*
X50613334Y-98305696D01*
X50666021Y-98201240D01*
X50795731Y-98037276D01*
X50825000Y-98005001D01*
X50974619Y-97851882D01*
X51026815Y-97831671D01*
X50990289Y-97951684D01*
G37*
X50990289Y-97951684D02*
X50929818Y-98093112D01*
X50827928Y-98257179D01*
X50714766Y-98356414D01*
X50631660Y-98363057D01*
X50613334Y-98305696D01*
X50666021Y-98201240D01*
X50795731Y-98037276D01*
X50825000Y-98005001D01*
X50974619Y-97851882D01*
X51026815Y-97831671D01*
X50990289Y-97951684D01*
G36*
X51880741Y-98166333D02*
G01*
X51838584Y-98305472D01*
X51798667Y-98378000D01*
X51731579Y-98445769D01*
X51716593Y-98420333D01*
X51758749Y-98281194D01*
X51798667Y-98208666D01*
X51865754Y-98140897D01*
X51880741Y-98166333D01*
G37*
X51880741Y-98166333D02*
X51838584Y-98305472D01*
X51798667Y-98378000D01*
X51731579Y-98445769D01*
X51716593Y-98420333D01*
X51758749Y-98281194D01*
X51798667Y-98208666D01*
X51865754Y-98140897D01*
X51880741Y-98166333D01*
G36*
X51572368Y-97852017D02*
G01*
X51510002Y-98019796D01*
X51460000Y-98124000D01*
X51329906Y-98361260D01*
X51261391Y-98450773D01*
X51260947Y-98392480D01*
X51335068Y-98186326D01*
X51360454Y-98124861D01*
X51460703Y-97918491D01*
X51545250Y-97798477D01*
X51567554Y-97786194D01*
X51572368Y-97852017D01*
G37*
X51572368Y-97852017D02*
X51510002Y-98019796D01*
X51460000Y-98124000D01*
X51329906Y-98361260D01*
X51261391Y-98450773D01*
X51260947Y-98392480D01*
X51335068Y-98186326D01*
X51360454Y-98124861D01*
X51460703Y-97918491D01*
X51545250Y-97798477D01*
X51567554Y-97786194D01*
X51572368Y-97852017D01*
G36*
X52407955Y-99187219D02*
G01*
X52596496Y-99289485D01*
X52613578Y-99302527D01*
X52778312Y-99415840D01*
X52886252Y-99422880D01*
X52982567Y-99352963D01*
X53189879Y-99234858D01*
X53370553Y-99283261D01*
X53454676Y-99372833D01*
X53538117Y-99462355D01*
X53624932Y-99449487D01*
X53771741Y-99324915D01*
X53777202Y-99319788D01*
X53964489Y-99198648D01*
X54135774Y-99172085D01*
X54241260Y-99241776D01*
X54254000Y-99303730D01*
X54194660Y-99438184D01*
X54048787Y-99622751D01*
X53864602Y-99807998D01*
X53690326Y-99944492D01*
X53589063Y-99985370D01*
X53392821Y-99939696D01*
X53326654Y-99906256D01*
X53156375Y-99864127D01*
X52967376Y-99875691D01*
X52754421Y-99866197D01*
X52537331Y-99776628D01*
X52345239Y-99636059D01*
X52207280Y-99473564D01*
X52152586Y-99318220D01*
X52210290Y-99199101D01*
X52261844Y-99171572D01*
X52407955Y-99187219D01*
G37*
X52407955Y-99187219D02*
X52596496Y-99289485D01*
X52613578Y-99302527D01*
X52778312Y-99415840D01*
X52886252Y-99422880D01*
X52982567Y-99352963D01*
X53189879Y-99234858D01*
X53370553Y-99283261D01*
X53454676Y-99372833D01*
X53538117Y-99462355D01*
X53624932Y-99449487D01*
X53771741Y-99324915D01*
X53777202Y-99319788D01*
X53964489Y-99198648D01*
X54135774Y-99172085D01*
X54241260Y-99241776D01*
X54254000Y-99303730D01*
X54194660Y-99438184D01*
X54048787Y-99622751D01*
X53864602Y-99807998D01*
X53690326Y-99944492D01*
X53589063Y-99985370D01*
X53392821Y-99939696D01*
X53326654Y-99906256D01*
X53156375Y-99864127D01*
X52967376Y-99875691D01*
X52754421Y-99866197D01*
X52537331Y-99776628D01*
X52345239Y-99636059D01*
X52207280Y-99473564D01*
X52152586Y-99318220D01*
X52210290Y-99199101D01*
X52261844Y-99171572D01*
X52407955Y-99187219D01*
G36*
X52899334Y-92604484D02*
G01*
X52944447Y-92721512D01*
X53008691Y-92822524D01*
X53088475Y-92910076D01*
X53185612Y-92927480D01*
X53356537Y-92875772D01*
X53470645Y-92830999D01*
X53839344Y-92737396D01*
X54282480Y-92728687D01*
X54820845Y-92806805D01*
X55475228Y-92973685D01*
X55682855Y-93036825D01*
X56143707Y-93180918D01*
X56473757Y-93276618D01*
X56704691Y-93323190D01*
X56868197Y-93319898D01*
X56995960Y-93266009D01*
X57119666Y-93160787D01*
X57271003Y-93003498D01*
X57274427Y-92999922D01*
X57499966Y-92770356D01*
X57634873Y-92655627D01*
X57701952Y-92644848D01*
X57724009Y-92727135D01*
X57725334Y-92784676D01*
X57751028Y-92892418D01*
X57859400Y-92920257D01*
X58010903Y-92902345D01*
X58231758Y-92895234D01*
X58354044Y-92949172D01*
X58354566Y-92950002D01*
X58340225Y-93028136D01*
X58259497Y-93044420D01*
X58096414Y-93096041D01*
X57890920Y-93222744D01*
X57852334Y-93253042D01*
X57598334Y-93461243D01*
X57920830Y-93464288D01*
X58124185Y-93485228D01*
X58196286Y-93536652D01*
X58191000Y-93552000D01*
X58072986Y-93620282D01*
X57953170Y-93636895D01*
X57863349Y-93650574D01*
X57870404Y-93707697D01*
X57987209Y-93832892D01*
X58119169Y-93954395D01*
X58596816Y-94481520D01*
X58962079Y-95107455D01*
X59177116Y-95672906D01*
X59260163Y-95963925D01*
X59316230Y-96238356D01*
X59350093Y-96541141D01*
X59366527Y-96917217D01*
X59370307Y-97411524D01*
X59370111Y-97489000D01*
X59346052Y-98246868D01*
X59274011Y-98875177D01*
X59145865Y-99408941D01*
X58953495Y-99883177D01*
X58722049Y-100283000D01*
X58554563Y-100522212D01*
X58418423Y-100652208D01*
X58259288Y-100709823D01*
X58063346Y-100729524D01*
X57588660Y-100677596D01*
X57325237Y-100573534D01*
X56974076Y-100323867D01*
X56718422Y-99964554D01*
X56542739Y-99472973D01*
X56528386Y-99413140D01*
X56428632Y-98980982D01*
X56185023Y-99287524D01*
X55856819Y-99628483D01*
X55454593Y-99900193D01*
X54931611Y-100133962D01*
X54908971Y-100142427D01*
X54012197Y-100416885D01*
X53189818Y-100546786D01*
X52445390Y-100532206D01*
X51782469Y-100373222D01*
X51204613Y-100069911D01*
X51194357Y-100062664D01*
X51031763Y-99962182D01*
X50934238Y-99965124D01*
X50861857Y-100035598D01*
X50601643Y-100232570D01*
X50235698Y-100360951D01*
X49815983Y-100413853D01*
X49394460Y-100384387D01*
X49045178Y-100276460D01*
X48867328Y-100177041D01*
X48751967Y-100056079D01*
X48680066Y-99872818D01*
X48632597Y-99586503D01*
X48608366Y-99351593D01*
X48753669Y-99351593D01*
X48761480Y-99582727D01*
X48799792Y-99738855D01*
X48877000Y-99866863D01*
X48936376Y-99939123D01*
X49116068Y-100099565D01*
X49344416Y-100186074D01*
X49576557Y-100219537D01*
X49990560Y-100234300D01*
X50302930Y-100177276D01*
X50570652Y-100035962D01*
X50635867Y-99987115D01*
X50855247Y-99814550D01*
X50614815Y-99551312D01*
X50424711Y-99229213D01*
X50316881Y-98790861D01*
X50290129Y-98267333D01*
X50343264Y-97689708D01*
X50475090Y-97089067D01*
X50684415Y-96496487D01*
X50736666Y-96379093D01*
X50887684Y-96022497D01*
X51011698Y-95674949D01*
X51086632Y-95399790D01*
X51094915Y-95351166D01*
X51142844Y-95131603D01*
X51205032Y-95004223D01*
X51229302Y-94991333D01*
X51285579Y-95063881D01*
X51283665Y-95259321D01*
X51230752Y-95544341D01*
X51134036Y-95885632D01*
X51000709Y-96249885D01*
X50915035Y-96446532D01*
X50656037Y-97145577D01*
X50511598Y-97858557D01*
X50489856Y-98537071D01*
X50519263Y-98800081D01*
X50577426Y-99073375D01*
X50670207Y-99278348D01*
X50834306Y-99477832D01*
X51018202Y-99654237D01*
X51571259Y-100062661D01*
X52169665Y-100308960D01*
X52822958Y-100396511D01*
X53091685Y-100388571D01*
X53583564Y-100321176D01*
X54135137Y-100193750D01*
X54686927Y-100024217D01*
X55179457Y-99830506D01*
X55506027Y-99660887D01*
X55764889Y-99454572D01*
X56022674Y-99177286D01*
X56138715Y-99018537D01*
X56408377Y-98600741D01*
X56385431Y-97367537D01*
X56360042Y-96673557D01*
X56308201Y-96113854D01*
X56223275Y-95654537D01*
X56098633Y-95261713D01*
X55927642Y-94901491D01*
X55889832Y-94834740D01*
X55765573Y-94577913D01*
X55740632Y-94415691D01*
X55756097Y-94386703D01*
X55833119Y-94415499D01*
X55962030Y-94588743D01*
X56133185Y-94893124D01*
X56157882Y-94941330D01*
X56479890Y-95575735D01*
X56548711Y-97209701D01*
X56579802Y-97903612D01*
X56609652Y-98451631D01*
X56641007Y-98877151D01*
X56676615Y-99203568D01*
X56719222Y-99454274D01*
X56771575Y-99652663D01*
X56836421Y-99822131D01*
X56861987Y-99877707D01*
X57069696Y-100167650D01*
X57359879Y-100387765D01*
X57691657Y-100525036D01*
X58024153Y-100566445D01*
X58316488Y-100498979D01*
X58467248Y-100388833D01*
X58753750Y-99981418D01*
X58986618Y-99445907D01*
X59160407Y-98816534D01*
X59269675Y-98127533D01*
X59308981Y-97413138D01*
X59272881Y-96707583D01*
X59157084Y-96049666D01*
X59045749Y-95671743D01*
X58909694Y-95303921D01*
X58767712Y-94989885D01*
X58638598Y-94773319D01*
X58582150Y-94713251D01*
X58445012Y-94564770D01*
X58319797Y-94368040D01*
X58175290Y-94173772D01*
X58013528Y-94056905D01*
X57830353Y-93953341D01*
X57619445Y-93790057D01*
X57592132Y-93765334D01*
X57440912Y-93605190D01*
X57406369Y-93487925D01*
X57453901Y-93379117D01*
X57549527Y-93188148D01*
X57530836Y-93117189D01*
X57407055Y-93170447D01*
X57256721Y-93289229D01*
X57060623Y-93441909D01*
X56874324Y-93520918D01*
X56626878Y-93549432D01*
X56452387Y-93552000D01*
X56183002Y-93539079D01*
X56000497Y-93505363D01*
X55947334Y-93467333D01*
X56014819Y-93383068D01*
X56053167Y-93374227D01*
X56102653Y-93353981D01*
X56025154Y-93319592D01*
X55861397Y-93280311D01*
X55652107Y-93245386D01*
X55438009Y-93224065D01*
X55381881Y-93221772D01*
X55124745Y-93186058D01*
X54928515Y-93107616D01*
X54897571Y-93082808D01*
X54608568Y-92894060D01*
X54241246Y-92834855D01*
X53784355Y-92904978D01*
X53349528Y-93052942D01*
X53156259Y-93115115D01*
X53034183Y-93084183D01*
X52916619Y-92959654D01*
X52753181Y-92757817D01*
X52655741Y-92939887D01*
X52558300Y-93121957D01*
X52251335Y-92913645D01*
X52005763Y-92760303D01*
X51874787Y-92717532D01*
X51844741Y-92785347D01*
X51882194Y-92914002D01*
X51921269Y-93101465D01*
X51849733Y-93161950D01*
X51670254Y-93094338D01*
X51581718Y-93039737D01*
X51318771Y-92926964D01*
X51012516Y-92878585D01*
X50738351Y-92902024D01*
X50631739Y-92946166D01*
X50617942Y-93012092D01*
X50766747Y-93093081D01*
X50861766Y-93126829D01*
X51085758Y-93223889D01*
X51143904Y-93305312D01*
X51039584Y-93361452D01*
X50776178Y-93382663D01*
X50772104Y-93382666D01*
X50422607Y-93421155D01*
X50121888Y-93555537D01*
X49830167Y-93789852D01*
X49651675Y-93974373D01*
X49613014Y-94063540D01*
X49713481Y-94056469D01*
X49952377Y-93952276D01*
X49957167Y-93949891D01*
X50202878Y-93861972D01*
X50509862Y-93799413D01*
X50832338Y-93765139D01*
X51124525Y-93762078D01*
X51340641Y-93793153D01*
X51433336Y-93855555D01*
X51382846Y-93941727D01*
X51218846Y-94053598D01*
X51117589Y-94104021D01*
X50735831Y-94344289D01*
X50482970Y-94675940D01*
X50357053Y-95023553D01*
X50291635Y-95209191D01*
X50162617Y-95514647D01*
X49983913Y-95909190D01*
X49769435Y-96362086D01*
X49537168Y-96834484D01*
X49283345Y-97343603D01*
X49095465Y-97731584D01*
X48962902Y-98028324D01*
X48875031Y-98263717D01*
X48821224Y-98467661D01*
X48790855Y-98670049D01*
X48773299Y-98900778D01*
X48767962Y-98998568D01*
X48753669Y-99351593D01*
X48608366Y-99351593D01*
X48606952Y-99337893D01*
X48591936Y-98967543D01*
X48626484Y-98613255D01*
X48720611Y-98238910D01*
X48884333Y-97808389D01*
X49127667Y-97285571D01*
X49236209Y-97068746D01*
X49503007Y-96541987D01*
X49704482Y-96140786D01*
X49852244Y-95839854D01*
X49957900Y-95613898D01*
X50033060Y-95437629D01*
X50089331Y-95285755D01*
X50138323Y-95132987D01*
X50163974Y-95047498D01*
X50326144Y-94608241D01*
X50523732Y-94296832D01*
X50783902Y-94071990D01*
X50821377Y-94048403D01*
X51079000Y-93891299D01*
X50782667Y-93892842D01*
X50421803Y-93954056D01*
X50003947Y-94118918D01*
X49584210Y-94364159D01*
X49469796Y-94447150D01*
X49272471Y-94572923D01*
X49181177Y-94572425D01*
X49196139Y-94451587D01*
X49317581Y-94216344D01*
X49453148Y-94005744D01*
X49820263Y-93597866D01*
X50151648Y-93382838D01*
X50571000Y-93171343D01*
X50274667Y-93122567D01*
X49978334Y-93073792D01*
X50401667Y-92882055D01*
X50787842Y-92748101D01*
X51152688Y-92721955D01*
X51219456Y-92726989D01*
X51461599Y-92738972D01*
X51566951Y-92711086D01*
X51570231Y-92649830D01*
X51594304Y-92560046D01*
X51742113Y-92539778D01*
X51983359Y-92588212D01*
X52201889Y-92666828D01*
X52409703Y-92744309D01*
X52523931Y-92747652D01*
X52603228Y-92676856D01*
X52610670Y-92666828D01*
X52732798Y-92562261D01*
X52850477Y-92539101D01*
X52899334Y-92604484D01*
G37*
X52899334Y-92604484D02*
X52944447Y-92721512D01*
X53008691Y-92822524D01*
X53088475Y-92910076D01*
X53185612Y-92927480D01*
X53356537Y-92875772D01*
X53470645Y-92830999D01*
X53839344Y-92737396D01*
X54282480Y-92728687D01*
X54820845Y-92806805D01*
X55475228Y-92973685D01*
X55682855Y-93036825D01*
X56143707Y-93180918D01*
X56473757Y-93276618D01*
X56704691Y-93323190D01*
X56868197Y-93319898D01*
X56995960Y-93266009D01*
X57119666Y-93160787D01*
X57271003Y-93003498D01*
X57274427Y-92999922D01*
X57499966Y-92770356D01*
X57634873Y-92655627D01*
X57701952Y-92644848D01*
X57724009Y-92727135D01*
X57725334Y-92784676D01*
X57751028Y-92892418D01*
X57859400Y-92920257D01*
X58010903Y-92902345D01*
X58231758Y-92895234D01*
X58354044Y-92949172D01*
X58354566Y-92950002D01*
X58340225Y-93028136D01*
X58259497Y-93044420D01*
X58096414Y-93096041D01*
X57890920Y-93222744D01*
X57852334Y-93253042D01*
X57598334Y-93461243D01*
X57920830Y-93464288D01*
X58124185Y-93485228D01*
X58196286Y-93536652D01*
X58191000Y-93552000D01*
X58072986Y-93620282D01*
X57953170Y-93636895D01*
X57863349Y-93650574D01*
X57870404Y-93707697D01*
X57987209Y-93832892D01*
X58119169Y-93954395D01*
X58596816Y-94481520D01*
X58962079Y-95107455D01*
X59177116Y-95672906D01*
X59260163Y-95963925D01*
X59316230Y-96238356D01*
X59350093Y-96541141D01*
X59366527Y-96917217D01*
X59370307Y-97411524D01*
X59370111Y-97489000D01*
X59346052Y-98246868D01*
X59274011Y-98875177D01*
X59145865Y-99408941D01*
X58953495Y-99883177D01*
X58722049Y-100283000D01*
X58554563Y-100522212D01*
X58418423Y-100652208D01*
X58259288Y-100709823D01*
X58063346Y-100729524D01*
X57588660Y-100677596D01*
X57325237Y-100573534D01*
X56974076Y-100323867D01*
X56718422Y-99964554D01*
X56542739Y-99472973D01*
X56528386Y-99413140D01*
X56428632Y-98980982D01*
X56185023Y-99287524D01*
X55856819Y-99628483D01*
X55454593Y-99900193D01*
X54931611Y-100133962D01*
X54908971Y-100142427D01*
X54012197Y-100416885D01*
X53189818Y-100546786D01*
X52445390Y-100532206D01*
X51782469Y-100373222D01*
X51204613Y-100069911D01*
X51194357Y-100062664D01*
X51031763Y-99962182D01*
X50934238Y-99965124D01*
X50861857Y-100035598D01*
X50601643Y-100232570D01*
X50235698Y-100360951D01*
X49815983Y-100413853D01*
X49394460Y-100384387D01*
X49045178Y-100276460D01*
X48867328Y-100177041D01*
X48751967Y-100056079D01*
X48680066Y-99872818D01*
X48632597Y-99586503D01*
X48608366Y-99351593D01*
X48753669Y-99351593D01*
X48761480Y-99582727D01*
X48799792Y-99738855D01*
X48877000Y-99866863D01*
X48936376Y-99939123D01*
X49116068Y-100099565D01*
X49344416Y-100186074D01*
X49576557Y-100219537D01*
X49990560Y-100234300D01*
X50302930Y-100177276D01*
X50570652Y-100035962D01*
X50635867Y-99987115D01*
X50855247Y-99814550D01*
X50614815Y-99551312D01*
X50424711Y-99229213D01*
X50316881Y-98790861D01*
X50290129Y-98267333D01*
X50343264Y-97689708D01*
X50475090Y-97089067D01*
X50684415Y-96496487D01*
X50736666Y-96379093D01*
X50887684Y-96022497D01*
X51011698Y-95674949D01*
X51086632Y-95399790D01*
X51094915Y-95351166D01*
X51142844Y-95131603D01*
X51205032Y-95004223D01*
X51229302Y-94991333D01*
X51285579Y-95063881D01*
X51283665Y-95259321D01*
X51230752Y-95544341D01*
X51134036Y-95885632D01*
X51000709Y-96249885D01*
X50915035Y-96446532D01*
X50656037Y-97145577D01*
X50511598Y-97858557D01*
X50489856Y-98537071D01*
X50519263Y-98800081D01*
X50577426Y-99073375D01*
X50670207Y-99278348D01*
X50834306Y-99477832D01*
X51018202Y-99654237D01*
X51571259Y-100062661D01*
X52169665Y-100308960D01*
X52822958Y-100396511D01*
X53091685Y-100388571D01*
X53583564Y-100321176D01*
X54135137Y-100193750D01*
X54686927Y-100024217D01*
X55179457Y-99830506D01*
X55506027Y-99660887D01*
X55764889Y-99454572D01*
X56022674Y-99177286D01*
X56138715Y-99018537D01*
X56408377Y-98600741D01*
X56385431Y-97367537D01*
X56360042Y-96673557D01*
X56308201Y-96113854D01*
X56223275Y-95654537D01*
X56098633Y-95261713D01*
X55927642Y-94901491D01*
X55889832Y-94834740D01*
X55765573Y-94577913D01*
X55740632Y-94415691D01*
X55756097Y-94386703D01*
X55833119Y-94415499D01*
X55962030Y-94588743D01*
X56133185Y-94893124D01*
X56157882Y-94941330D01*
X56479890Y-95575735D01*
X56548711Y-97209701D01*
X56579802Y-97903612D01*
X56609652Y-98451631D01*
X56641007Y-98877151D01*
X56676615Y-99203568D01*
X56719222Y-99454274D01*
X56771575Y-99652663D01*
X56836421Y-99822131D01*
X56861987Y-99877707D01*
X57069696Y-100167650D01*
X57359879Y-100387765D01*
X57691657Y-100525036D01*
X58024153Y-100566445D01*
X58316488Y-100498979D01*
X58467248Y-100388833D01*
X58753750Y-99981418D01*
X58986618Y-99445907D01*
X59160407Y-98816534D01*
X59269675Y-98127533D01*
X59308981Y-97413138D01*
X59272881Y-96707583D01*
X59157084Y-96049666D01*
X59045749Y-95671743D01*
X58909694Y-95303921D01*
X58767712Y-94989885D01*
X58638598Y-94773319D01*
X58582150Y-94713251D01*
X58445012Y-94564770D01*
X58319797Y-94368040D01*
X58175290Y-94173772D01*
X58013528Y-94056905D01*
X57830353Y-93953341D01*
X57619445Y-93790057D01*
X57592132Y-93765334D01*
X57440912Y-93605190D01*
X57406369Y-93487925D01*
X57453901Y-93379117D01*
X57549527Y-93188148D01*
X57530836Y-93117189D01*
X57407055Y-93170447D01*
X57256721Y-93289229D01*
X57060623Y-93441909D01*
X56874324Y-93520918D01*
X56626878Y-93549432D01*
X56452387Y-93552000D01*
X56183002Y-93539079D01*
X56000497Y-93505363D01*
X55947334Y-93467333D01*
X56014819Y-93383068D01*
X56053167Y-93374227D01*
X56102653Y-93353981D01*
X56025154Y-93319592D01*
X55861397Y-93280311D01*
X55652107Y-93245386D01*
X55438009Y-93224065D01*
X55381881Y-93221772D01*
X55124745Y-93186058D01*
X54928515Y-93107616D01*
X54897571Y-93082808D01*
X54608568Y-92894060D01*
X54241246Y-92834855D01*
X53784355Y-92904978D01*
X53349528Y-93052942D01*
X53156259Y-93115115D01*
X53034183Y-93084183D01*
X52916619Y-92959654D01*
X52753181Y-92757817D01*
X52655741Y-92939887D01*
X52558300Y-93121957D01*
X52251335Y-92913645D01*
X52005763Y-92760303D01*
X51874787Y-92717532D01*
X51844741Y-92785347D01*
X51882194Y-92914002D01*
X51921269Y-93101465D01*
X51849733Y-93161950D01*
X51670254Y-93094338D01*
X51581718Y-93039737D01*
X51318771Y-92926964D01*
X51012516Y-92878585D01*
X50738351Y-92902024D01*
X50631739Y-92946166D01*
X50617942Y-93012092D01*
X50766747Y-93093081D01*
X50861766Y-93126829D01*
X51085758Y-93223889D01*
X51143904Y-93305312D01*
X51039584Y-93361452D01*
X50776178Y-93382663D01*
X50772104Y-93382666D01*
X50422607Y-93421155D01*
X50121888Y-93555537D01*
X49830167Y-93789852D01*
X49651675Y-93974373D01*
X49613014Y-94063540D01*
X49713481Y-94056469D01*
X49952377Y-93952276D01*
X49957167Y-93949891D01*
X50202878Y-93861972D01*
X50509862Y-93799413D01*
X50832338Y-93765139D01*
X51124525Y-93762078D01*
X51340641Y-93793153D01*
X51433336Y-93855555D01*
X51382846Y-93941727D01*
X51218846Y-94053598D01*
X51117589Y-94104021D01*
X50735831Y-94344289D01*
X50482970Y-94675940D01*
X50357053Y-95023553D01*
X50291635Y-95209191D01*
X50162617Y-95514647D01*
X49983913Y-95909190D01*
X49769435Y-96362086D01*
X49537168Y-96834484D01*
X49283345Y-97343603D01*
X49095465Y-97731584D01*
X48962902Y-98028324D01*
X48875031Y-98263717D01*
X48821224Y-98467661D01*
X48790855Y-98670049D01*
X48773299Y-98900778D01*
X48767962Y-98998568D01*
X48753669Y-99351593D01*
X48608366Y-99351593D01*
X48606952Y-99337893D01*
X48591936Y-98967543D01*
X48626484Y-98613255D01*
X48720611Y-98238910D01*
X48884333Y-97808389D01*
X49127667Y-97285571D01*
X49236209Y-97068746D01*
X49503007Y-96541987D01*
X49704482Y-96140786D01*
X49852244Y-95839854D01*
X49957900Y-95613898D01*
X50033060Y-95437629D01*
X50089331Y-95285755D01*
X50138323Y-95132987D01*
X50163974Y-95047498D01*
X50326144Y-94608241D01*
X50523732Y-94296832D01*
X50783902Y-94071990D01*
X50821377Y-94048403D01*
X51079000Y-93891299D01*
X50782667Y-93892842D01*
X50421803Y-93954056D01*
X50003947Y-94118918D01*
X49584210Y-94364159D01*
X49469796Y-94447150D01*
X49272471Y-94572923D01*
X49181177Y-94572425D01*
X49196139Y-94451587D01*
X49317581Y-94216344D01*
X49453148Y-94005744D01*
X49820263Y-93597866D01*
X50151648Y-93382838D01*
X50571000Y-93171343D01*
X50274667Y-93122567D01*
X49978334Y-93073792D01*
X50401667Y-92882055D01*
X50787842Y-92748101D01*
X51152688Y-92721955D01*
X51219456Y-92726989D01*
X51461599Y-92738972D01*
X51566951Y-92711086D01*
X51570231Y-92649830D01*
X51594304Y-92560046D01*
X51742113Y-92539778D01*
X51983359Y-92588212D01*
X52201889Y-92666828D01*
X52409703Y-92744309D01*
X52523931Y-92747652D01*
X52603228Y-92676856D01*
X52610670Y-92666828D01*
X52732798Y-92562261D01*
X52850477Y-92539101D01*
X52899334Y-92604484D01*
D12*
X25457920Y-53508340D02*
X28925020Y-56475060D01*
X28940260Y-53500720D02*
X25460460Y-56472520D01*
X25442680Y-105767320D02*
X28945340Y-108756900D01*
X28947880Y-105759700D02*
X25455380Y-108746740D01*
X25450000Y-53490000D02*
X28950000Y-53490000D01*
X28950000Y-108760000D02*
X25450000Y-108760000D01*
X25450000Y-108760000D02*
X25450000Y-53490000D01*
X25450000Y-56490000D02*
X28950000Y-56490000D01*
X28950000Y-59105000D02*
X28950000Y-53490000D01*
X28950000Y-59105000D02*
X36400000Y-59105000D01*
X36400000Y-59105000D02*
X36400000Y-102605000D01*
X36400000Y-102605000D02*
X28950000Y-102605000D01*
X28950000Y-102605000D02*
X28950000Y-108760000D01*
X28950000Y-105760000D02*
X25450000Y-105760000D01*
D11*
X51925000Y-92700000D02*
X55075000Y-92700000D01*
X55075000Y-92700000D02*
X55075000Y-88900000D01*
X69900000Y-55600000D02*
X69900000Y-66000000D01*
X69900000Y-66000000D02*
X59900000Y-66000000D01*
X59900000Y-66000000D02*
X59900000Y-55600000D01*
X59900000Y-55600000D02*
X69900000Y-55600000D01*
X69700000Y-85400000D02*
X69700000Y-95800000D01*
X69700000Y-95800000D02*
X59700000Y-95800000D01*
X59700000Y-95800000D02*
X59700000Y-85400000D01*
X59700000Y-85400000D02*
X69700000Y-85400000D01*
X69700000Y-98420000D02*
X69700000Y-108820000D01*
X69700000Y-108820000D02*
X59700000Y-108820000D01*
X59700000Y-108820000D02*
X59700000Y-98420000D01*
X59700000Y-98420000D02*
X69700000Y-98420000D01*
X50410000Y-43290000D02*
X48060000Y-43290000D01*
X43590000Y-43290000D02*
X45940000Y-43290000D01*
X43590000Y-49045563D02*
X43590000Y-43290000D01*
X50410000Y-49045563D02*
X50410000Y-43290000D01*
X49345563Y-50110000D02*
X48060000Y-50110000D01*
X44654437Y-50110000D02*
X45940000Y-50110000D01*
X44654437Y-50110000D02*
X43590000Y-49045563D01*
X49345563Y-50110000D02*
X50410000Y-49045563D01*
X45152500Y-51137500D02*
X45152500Y-50350000D01*
X44758750Y-50743750D02*
X45546250Y-50743750D01*
D12*
X29470000Y-89400000D02*
X29470000Y-58600000D01*
X29470000Y-89400000D02*
X14890000Y-89400000D01*
X14890000Y-89400000D02*
X14890000Y-58600000D01*
X14890000Y-58600000D02*
X29470000Y-58600000D01*
D11*
X45000000Y-67460000D02*
X46950000Y-67460000D01*
X45000000Y-67460000D02*
X43050000Y-67460000D01*
X45000000Y-62340000D02*
X46950000Y-62340000D01*
X45000000Y-62340000D02*
X41550000Y-62340000D01*
D12*
X48502380Y-92642857D02*
X48026190Y-92976190D01*
X48502380Y-93214285D02*
X47502380Y-93214285D01*
X47502380Y-92833333D01*
X47550000Y-92738095D01*
X47597619Y-92690476D01*
X47692857Y-92642857D01*
X47835714Y-92642857D01*
X47930952Y-92690476D01*
X47978571Y-92738095D01*
X48026190Y-92833333D01*
X48026190Y-93214285D01*
X47597619Y-92261904D02*
X47550000Y-92214285D01*
X47502380Y-92119047D01*
X47502380Y-91880952D01*
X47550000Y-91785714D01*
X47597619Y-91738095D01*
X47692857Y-91690476D01*
X47788095Y-91690476D01*
X47930952Y-91738095D01*
X48502380Y-92309523D01*
X48502380Y-91690476D01*
X47502380Y-91071428D02*
X47502380Y-90976190D01*
X47550000Y-90880952D01*
X47597619Y-90833333D01*
X47692857Y-90785714D01*
X47883333Y-90738095D01*
X48121428Y-90738095D01*
X48311904Y-90785714D01*
X48407142Y-90833333D01*
X48454761Y-90880952D01*
X48502380Y-90976190D01*
X48502380Y-91071428D01*
X48454761Y-91166666D01*
X48407142Y-91214285D01*
X48311904Y-91261904D01*
X48121428Y-91309523D01*
X47883333Y-91309523D01*
X47692857Y-91261904D01*
X47597619Y-91214285D01*
X47550000Y-91166666D01*
X47502380Y-91071428D01*
X46502380Y-92642857D02*
X46026190Y-92976190D01*
X46502380Y-93214285D02*
X45502380Y-93214285D01*
X45502380Y-92833333D01*
X45550000Y-92738095D01*
X45597619Y-92690476D01*
X45692857Y-92642857D01*
X45835714Y-92642857D01*
X45930952Y-92690476D01*
X45978571Y-92738095D01*
X46026190Y-92833333D01*
X46026190Y-93214285D01*
X46502380Y-91690476D02*
X46502380Y-92261904D01*
X46502380Y-91976190D02*
X45502380Y-91976190D01*
X45645238Y-92071428D01*
X45740476Y-92166666D01*
X45788095Y-92261904D01*
X46502380Y-91214285D02*
X46502380Y-91023809D01*
X46454761Y-90928571D01*
X46407142Y-90880952D01*
X46264285Y-90785714D01*
X46073809Y-90738095D01*
X45692857Y-90738095D01*
X45597619Y-90785714D01*
X45550000Y-90833333D01*
X45502380Y-90928571D01*
X45502380Y-91119047D01*
X45550000Y-91214285D01*
X45597619Y-91261904D01*
X45692857Y-91309523D01*
X45930952Y-91309523D01*
X46026190Y-91261904D01*
X46073809Y-91214285D01*
X46121428Y-91119047D01*
X46121428Y-90928571D01*
X46073809Y-90833333D01*
X46026190Y-90785714D01*
X45930952Y-90738095D01*
X44502380Y-92642857D02*
X44026190Y-92976190D01*
X44502380Y-93214285D02*
X43502380Y-93214285D01*
X43502380Y-92833333D01*
X43550000Y-92738095D01*
X43597619Y-92690476D01*
X43692857Y-92642857D01*
X43835714Y-92642857D01*
X43930952Y-92690476D01*
X43978571Y-92738095D01*
X44026190Y-92833333D01*
X44026190Y-93214285D01*
X44502380Y-91690476D02*
X44502380Y-92261904D01*
X44502380Y-91976190D02*
X43502380Y-91976190D01*
X43645238Y-92071428D01*
X43740476Y-92166666D01*
X43788095Y-92261904D01*
X43930952Y-91119047D02*
X43883333Y-91214285D01*
X43835714Y-91261904D01*
X43740476Y-91309523D01*
X43692857Y-91309523D01*
X43597619Y-91261904D01*
X43550000Y-91214285D01*
X43502380Y-91119047D01*
X43502380Y-90928571D01*
X43550000Y-90833333D01*
X43597619Y-90785714D01*
X43692857Y-90738095D01*
X43740476Y-90738095D01*
X43835714Y-90785714D01*
X43883333Y-90833333D01*
X43930952Y-90928571D01*
X43930952Y-91119047D01*
X43978571Y-91214285D01*
X44026190Y-91261904D01*
X44121428Y-91309523D01*
X44311904Y-91309523D01*
X44407142Y-91261904D01*
X44454761Y-91214285D01*
X44502380Y-91119047D01*
X44502380Y-90928571D01*
X44454761Y-90833333D01*
X44407142Y-90785714D01*
X44311904Y-90738095D01*
X44121428Y-90738095D01*
X44026190Y-90785714D01*
X43978571Y-90833333D01*
X43930952Y-90928571D01*
X55257142Y-49507142D02*
X55209523Y-49554761D01*
X55066666Y-49602380D01*
X54971428Y-49602380D01*
X54828571Y-49554761D01*
X54733333Y-49459523D01*
X54685714Y-49364285D01*
X54638095Y-49173809D01*
X54638095Y-49030952D01*
X54685714Y-48840476D01*
X54733333Y-48745238D01*
X54828571Y-48650000D01*
X54971428Y-48602380D01*
X55066666Y-48602380D01*
X55209523Y-48650000D01*
X55257142Y-48697619D01*
X56209523Y-49602380D02*
X55638095Y-49602380D01*
X55923809Y-49602380D02*
X55923809Y-48602380D01*
X55828571Y-48745238D01*
X55733333Y-48840476D01*
X55638095Y-48888095D01*
X56590476Y-48697619D02*
X56638095Y-48650000D01*
X56733333Y-48602380D01*
X56971428Y-48602380D01*
X57066666Y-48650000D01*
X57114285Y-48697619D01*
X57161904Y-48792857D01*
X57161904Y-48888095D01*
X57114285Y-49030952D01*
X56542857Y-49602380D01*
X57161904Y-49602380D01*
X48437142Y-89242857D02*
X48484761Y-89290476D01*
X48532380Y-89433333D01*
X48532380Y-89528571D01*
X48484761Y-89671428D01*
X48389523Y-89766666D01*
X48294285Y-89814285D01*
X48103809Y-89861904D01*
X47960952Y-89861904D01*
X47770476Y-89814285D01*
X47675238Y-89766666D01*
X47580000Y-89671428D01*
X47532380Y-89528571D01*
X47532380Y-89433333D01*
X47580000Y-89290476D01*
X47627619Y-89242857D01*
X48532380Y-88290476D02*
X48532380Y-88861904D01*
X48532380Y-88576190D02*
X47532380Y-88576190D01*
X47675238Y-88671428D01*
X47770476Y-88766666D01*
X47818095Y-88861904D01*
X47532380Y-87957142D02*
X47532380Y-87290476D01*
X48532380Y-87719047D01*
X46437142Y-89242857D02*
X46484761Y-89290476D01*
X46532380Y-89433333D01*
X46532380Y-89528571D01*
X46484761Y-89671428D01*
X46389523Y-89766666D01*
X46294285Y-89814285D01*
X46103809Y-89861904D01*
X45960952Y-89861904D01*
X45770476Y-89814285D01*
X45675238Y-89766666D01*
X45580000Y-89671428D01*
X45532380Y-89528571D01*
X45532380Y-89433333D01*
X45580000Y-89290476D01*
X45627619Y-89242857D01*
X46532380Y-88290476D02*
X46532380Y-88861904D01*
X46532380Y-88576190D02*
X45532380Y-88576190D01*
X45675238Y-88671428D01*
X45770476Y-88766666D01*
X45818095Y-88861904D01*
X45532380Y-87433333D02*
X45532380Y-87623809D01*
X45580000Y-87719047D01*
X45627619Y-87766666D01*
X45770476Y-87861904D01*
X45960952Y-87909523D01*
X46341904Y-87909523D01*
X46437142Y-87861904D01*
X46484761Y-87814285D01*
X46532380Y-87719047D01*
X46532380Y-87528571D01*
X46484761Y-87433333D01*
X46437142Y-87385714D01*
X46341904Y-87338095D01*
X46103809Y-87338095D01*
X46008571Y-87385714D01*
X45960952Y-87433333D01*
X45913333Y-87528571D01*
X45913333Y-87719047D01*
X45960952Y-87814285D01*
X46008571Y-87861904D01*
X46103809Y-87909523D01*
X44437142Y-89242857D02*
X44484761Y-89290476D01*
X44532380Y-89433333D01*
X44532380Y-89528571D01*
X44484761Y-89671428D01*
X44389523Y-89766666D01*
X44294285Y-89814285D01*
X44103809Y-89861904D01*
X43960952Y-89861904D01*
X43770476Y-89814285D01*
X43675238Y-89766666D01*
X43580000Y-89671428D01*
X43532380Y-89528571D01*
X43532380Y-89433333D01*
X43580000Y-89290476D01*
X43627619Y-89242857D01*
X44532380Y-88290476D02*
X44532380Y-88861904D01*
X44532380Y-88576190D02*
X43532380Y-88576190D01*
X43675238Y-88671428D01*
X43770476Y-88766666D01*
X43818095Y-88861904D01*
X43532380Y-87385714D02*
X43532380Y-87861904D01*
X44008571Y-87909523D01*
X43960952Y-87861904D01*
X43913333Y-87766666D01*
X43913333Y-87528571D01*
X43960952Y-87433333D01*
X44008571Y-87385714D01*
X44103809Y-87338095D01*
X44341904Y-87338095D01*
X44437142Y-87385714D01*
X44484761Y-87433333D01*
X44532380Y-87528571D01*
X44532380Y-87766666D01*
X44484761Y-87861904D01*
X44437142Y-87909523D01*
X44977142Y-97742857D02*
X45024761Y-97790476D01*
X45072380Y-97933333D01*
X45072380Y-98028571D01*
X45024761Y-98171428D01*
X44929523Y-98266666D01*
X44834285Y-98314285D01*
X44643809Y-98361904D01*
X44500952Y-98361904D01*
X44310476Y-98314285D01*
X44215238Y-98266666D01*
X44120000Y-98171428D01*
X44072380Y-98028571D01*
X44072380Y-97933333D01*
X44120000Y-97790476D01*
X44167619Y-97742857D01*
X45072380Y-96790476D02*
X45072380Y-97361904D01*
X45072380Y-97076190D02*
X44072380Y-97076190D01*
X44215238Y-97171428D01*
X44310476Y-97266666D01*
X44358095Y-97361904D01*
X45072380Y-95838095D02*
X45072380Y-96409523D01*
X45072380Y-96123809D02*
X44072380Y-96123809D01*
X44215238Y-96219047D01*
X44310476Y-96314285D01*
X44358095Y-96409523D01*
X39957142Y-51637142D02*
X39909523Y-51684761D01*
X39766666Y-51732380D01*
X39671428Y-51732380D01*
X39528571Y-51684761D01*
X39433333Y-51589523D01*
X39385714Y-51494285D01*
X39338095Y-51303809D01*
X39338095Y-51160952D01*
X39385714Y-50970476D01*
X39433333Y-50875238D01*
X39528571Y-50780000D01*
X39671428Y-50732380D01*
X39766666Y-50732380D01*
X39909523Y-50780000D01*
X39957142Y-50827619D01*
X40909523Y-51732380D02*
X40338095Y-51732380D01*
X40623809Y-51732380D02*
X40623809Y-50732380D01*
X40528571Y-50875238D01*
X40433333Y-50970476D01*
X40338095Y-51018095D01*
X41528571Y-50732380D02*
X41623809Y-50732380D01*
X41719047Y-50780000D01*
X41766666Y-50827619D01*
X41814285Y-50922857D01*
X41861904Y-51113333D01*
X41861904Y-51351428D01*
X41814285Y-51541904D01*
X41766666Y-51637142D01*
X41719047Y-51684761D01*
X41623809Y-51732380D01*
X41528571Y-51732380D01*
X41433333Y-51684761D01*
X41385714Y-51637142D01*
X41338095Y-51541904D01*
X41290476Y-51351428D01*
X41290476Y-51113333D01*
X41338095Y-50922857D01*
X41385714Y-50827619D01*
X41433333Y-50780000D01*
X41528571Y-50732380D01*
X54933333Y-89037142D02*
X54885714Y-89084761D01*
X54742857Y-89132380D01*
X54647619Y-89132380D01*
X54504761Y-89084761D01*
X54409523Y-88989523D01*
X54361904Y-88894285D01*
X54314285Y-88703809D01*
X54314285Y-88560952D01*
X54361904Y-88370476D01*
X54409523Y-88275238D01*
X54504761Y-88180000D01*
X54647619Y-88132380D01*
X54742857Y-88132380D01*
X54885714Y-88180000D01*
X54933333Y-88227619D01*
X55504761Y-88560952D02*
X55409523Y-88513333D01*
X55361904Y-88465714D01*
X55314285Y-88370476D01*
X55314285Y-88322857D01*
X55361904Y-88227619D01*
X55409523Y-88180000D01*
X55504761Y-88132380D01*
X55695238Y-88132380D01*
X55790476Y-88180000D01*
X55838095Y-88227619D01*
X55885714Y-88322857D01*
X55885714Y-88370476D01*
X55838095Y-88465714D01*
X55790476Y-88513333D01*
X55695238Y-88560952D01*
X55504761Y-88560952D01*
X55409523Y-88608571D01*
X55361904Y-88656190D01*
X55314285Y-88751428D01*
X55314285Y-88941904D01*
X55361904Y-89037142D01*
X55409523Y-89084761D01*
X55504761Y-89132380D01*
X55695238Y-89132380D01*
X55790476Y-89084761D01*
X55838095Y-89037142D01*
X55885714Y-88941904D01*
X55885714Y-88751428D01*
X55838095Y-88656190D01*
X55790476Y-88608571D01*
X55695238Y-88560952D01*
X39837142Y-89066666D02*
X39884761Y-89114285D01*
X39932380Y-89257142D01*
X39932380Y-89352380D01*
X39884761Y-89495238D01*
X39789523Y-89590476D01*
X39694285Y-89638095D01*
X39503809Y-89685714D01*
X39360952Y-89685714D01*
X39170476Y-89638095D01*
X39075238Y-89590476D01*
X38980000Y-89495238D01*
X38932380Y-89352380D01*
X38932380Y-89257142D01*
X38980000Y-89114285D01*
X39027619Y-89066666D01*
X38932380Y-88733333D02*
X38932380Y-88066666D01*
X39932380Y-88495238D01*
X39837142Y-81466666D02*
X39884761Y-81514285D01*
X39932380Y-81657142D01*
X39932380Y-81752380D01*
X39884761Y-81895238D01*
X39789523Y-81990476D01*
X39694285Y-82038095D01*
X39503809Y-82085714D01*
X39360952Y-82085714D01*
X39170476Y-82038095D01*
X39075238Y-81990476D01*
X38980000Y-81895238D01*
X38932380Y-81752380D01*
X38932380Y-81657142D01*
X38980000Y-81514285D01*
X39027619Y-81466666D01*
X38932380Y-80609523D02*
X38932380Y-80800000D01*
X38980000Y-80895238D01*
X39027619Y-80942857D01*
X39170476Y-81038095D01*
X39360952Y-81085714D01*
X39741904Y-81085714D01*
X39837142Y-81038095D01*
X39884761Y-80990476D01*
X39932380Y-80895238D01*
X39932380Y-80704761D01*
X39884761Y-80609523D01*
X39837142Y-80561904D01*
X39741904Y-80514285D01*
X39503809Y-80514285D01*
X39408571Y-80561904D01*
X39360952Y-80609523D01*
X39313333Y-80704761D01*
X39313333Y-80895238D01*
X39360952Y-80990476D01*
X39408571Y-81038095D01*
X39503809Y-81085714D01*
X36477142Y-77666666D02*
X36524761Y-77714285D01*
X36572380Y-77857142D01*
X36572380Y-77952380D01*
X36524761Y-78095238D01*
X36429523Y-78190476D01*
X36334285Y-78238095D01*
X36143809Y-78285714D01*
X36000952Y-78285714D01*
X35810476Y-78238095D01*
X35715238Y-78190476D01*
X35620000Y-78095238D01*
X35572380Y-77952380D01*
X35572380Y-77857142D01*
X35620000Y-77714285D01*
X35667619Y-77666666D01*
X35572380Y-76761904D02*
X35572380Y-77238095D01*
X36048571Y-77285714D01*
X36000952Y-77238095D01*
X35953333Y-77142857D01*
X35953333Y-76904761D01*
X36000952Y-76809523D01*
X36048571Y-76761904D01*
X36143809Y-76714285D01*
X36381904Y-76714285D01*
X36477142Y-76761904D01*
X36524761Y-76809523D01*
X36572380Y-76904761D01*
X36572380Y-77142857D01*
X36524761Y-77238095D01*
X36477142Y-77285714D01*
X45033333Y-62537142D02*
X44985714Y-62584761D01*
X44842857Y-62632380D01*
X44747619Y-62632380D01*
X44604761Y-62584761D01*
X44509523Y-62489523D01*
X44461904Y-62394285D01*
X44414285Y-62203809D01*
X44414285Y-62060952D01*
X44461904Y-61870476D01*
X44509523Y-61775238D01*
X44604761Y-61680000D01*
X44747619Y-61632380D01*
X44842857Y-61632380D01*
X44985714Y-61680000D01*
X45033333Y-61727619D01*
X45890476Y-61965714D02*
X45890476Y-62632380D01*
X45652380Y-61584761D02*
X45414285Y-62299047D01*
X46033333Y-62299047D01*
X37537142Y-44266666D02*
X37584761Y-44314285D01*
X37632380Y-44457142D01*
X37632380Y-44552380D01*
X37584761Y-44695238D01*
X37489523Y-44790476D01*
X37394285Y-44838095D01*
X37203809Y-44885714D01*
X37060952Y-44885714D01*
X36870476Y-44838095D01*
X36775238Y-44790476D01*
X36680000Y-44695238D01*
X36632380Y-44552380D01*
X36632380Y-44457142D01*
X36680000Y-44314285D01*
X36727619Y-44266666D01*
X36632380Y-43933333D02*
X36632380Y-43314285D01*
X37013333Y-43647619D01*
X37013333Y-43504761D01*
X37060952Y-43409523D01*
X37108571Y-43361904D01*
X37203809Y-43314285D01*
X37441904Y-43314285D01*
X37537142Y-43361904D01*
X37584761Y-43409523D01*
X37632380Y-43504761D01*
X37632380Y-43790476D01*
X37584761Y-43885714D01*
X37537142Y-43933333D01*
X44833333Y-70687142D02*
X44785714Y-70734761D01*
X44642857Y-70782380D01*
X44547619Y-70782380D01*
X44404761Y-70734761D01*
X44309523Y-70639523D01*
X44261904Y-70544285D01*
X44214285Y-70353809D01*
X44214285Y-70210952D01*
X44261904Y-70020476D01*
X44309523Y-69925238D01*
X44404761Y-69830000D01*
X44547619Y-69782380D01*
X44642857Y-69782380D01*
X44785714Y-69830000D01*
X44833333Y-69877619D01*
X45214285Y-69877619D02*
X45261904Y-69830000D01*
X45357142Y-69782380D01*
X45595238Y-69782380D01*
X45690476Y-69830000D01*
X45738095Y-69877619D01*
X45785714Y-69972857D01*
X45785714Y-70068095D01*
X45738095Y-70210952D01*
X45166666Y-70782380D01*
X45785714Y-70782380D01*
X41537142Y-66466666D02*
X41584761Y-66514285D01*
X41632380Y-66657142D01*
X41632380Y-66752380D01*
X41584761Y-66895238D01*
X41489523Y-66990476D01*
X41394285Y-67038095D01*
X41203809Y-67085714D01*
X41060952Y-67085714D01*
X40870476Y-67038095D01*
X40775238Y-66990476D01*
X40680000Y-66895238D01*
X40632380Y-66752380D01*
X40632380Y-66657142D01*
X40680000Y-66514285D01*
X40727619Y-66466666D01*
X41632380Y-65514285D02*
X41632380Y-66085714D01*
X41632380Y-65800000D02*
X40632380Y-65800000D01*
X40775238Y-65895238D01*
X40870476Y-65990476D01*
X40918095Y-66085714D01*
X40252380Y-97861904D02*
X41061904Y-97861904D01*
X41157142Y-97814285D01*
X41204761Y-97766666D01*
X41252380Y-97671428D01*
X41252380Y-97480952D01*
X41204761Y-97385714D01*
X41157142Y-97338095D01*
X41061904Y-97290476D01*
X40252380Y-97290476D01*
X40252380Y-96385714D02*
X40252380Y-96576190D01*
X40300000Y-96671428D01*
X40347619Y-96719047D01*
X40490476Y-96814285D01*
X40680952Y-96861904D01*
X41061904Y-96861904D01*
X41157142Y-96814285D01*
X41204761Y-96766666D01*
X41252380Y-96671428D01*
X41252380Y-96480952D01*
X41204761Y-96385714D01*
X41157142Y-96338095D01*
X41061904Y-96290476D01*
X40823809Y-96290476D01*
X40728571Y-96338095D01*
X40680952Y-96385714D01*
X40633333Y-96480952D01*
X40633333Y-96671428D01*
X40680952Y-96766666D01*
X40728571Y-96814285D01*
X40823809Y-96861904D01*
X48657142Y-88502380D02*
X48323809Y-88026190D01*
X48085714Y-88502380D02*
X48085714Y-87502380D01*
X48466666Y-87502380D01*
X48561904Y-87550000D01*
X48609523Y-87597619D01*
X48657142Y-87692857D01*
X48657142Y-87835714D01*
X48609523Y-87930952D01*
X48561904Y-87978571D01*
X48466666Y-88026190D01*
X48085714Y-88026190D01*
X49609523Y-88502380D02*
X49038095Y-88502380D01*
X49323809Y-88502380D02*
X49323809Y-87502380D01*
X49228571Y-87645238D01*
X49133333Y-87740476D01*
X49038095Y-87788095D01*
X49942857Y-87502380D02*
X50609523Y-87502380D01*
X50180952Y-88502380D01*
X48657142Y-86502380D02*
X48323809Y-86026190D01*
X48085714Y-86502380D02*
X48085714Y-85502380D01*
X48466666Y-85502380D01*
X48561904Y-85550000D01*
X48609523Y-85597619D01*
X48657142Y-85692857D01*
X48657142Y-85835714D01*
X48609523Y-85930952D01*
X48561904Y-85978571D01*
X48466666Y-86026190D01*
X48085714Y-86026190D01*
X49609523Y-86502380D02*
X49038095Y-86502380D01*
X49323809Y-86502380D02*
X49323809Y-85502380D01*
X49228571Y-85645238D01*
X49133333Y-85740476D01*
X49038095Y-85788095D01*
X50466666Y-85502380D02*
X50276190Y-85502380D01*
X50180952Y-85550000D01*
X50133333Y-85597619D01*
X50038095Y-85740476D01*
X49990476Y-85930952D01*
X49990476Y-86311904D01*
X50038095Y-86407142D01*
X50085714Y-86454761D01*
X50180952Y-86502380D01*
X50371428Y-86502380D01*
X50466666Y-86454761D01*
X50514285Y-86407142D01*
X50561904Y-86311904D01*
X50561904Y-86073809D01*
X50514285Y-85978571D01*
X50466666Y-85930952D01*
X50371428Y-85883333D01*
X50180952Y-85883333D01*
X50085714Y-85930952D01*
X50038095Y-85978571D01*
X49990476Y-86073809D01*
X48657142Y-90502380D02*
X48323809Y-90026190D01*
X48085714Y-90502380D02*
X48085714Y-89502380D01*
X48466666Y-89502380D01*
X48561904Y-89550000D01*
X48609523Y-89597619D01*
X48657142Y-89692857D01*
X48657142Y-89835714D01*
X48609523Y-89930952D01*
X48561904Y-89978571D01*
X48466666Y-90026190D01*
X48085714Y-90026190D01*
X49609523Y-90502380D02*
X49038095Y-90502380D01*
X49323809Y-90502380D02*
X49323809Y-89502380D01*
X49228571Y-89645238D01*
X49133333Y-89740476D01*
X49038095Y-89788095D01*
X50514285Y-89502380D02*
X50038095Y-89502380D01*
X49990476Y-89978571D01*
X50038095Y-89930952D01*
X50133333Y-89883333D01*
X50371428Y-89883333D01*
X50466666Y-89930952D01*
X50514285Y-89978571D01*
X50561904Y-90073809D01*
X50561904Y-90311904D01*
X50514285Y-90407142D01*
X50466666Y-90454761D01*
X50371428Y-90502380D01*
X50133333Y-90502380D01*
X50038095Y-90454761D01*
X49990476Y-90407142D01*
X36538095Y-41502380D02*
X36538095Y-42311904D01*
X36585714Y-42407142D01*
X36633333Y-42454761D01*
X36728571Y-42502380D01*
X36919047Y-42502380D01*
X37014285Y-42454761D01*
X37061904Y-42407142D01*
X37109523Y-42311904D01*
X37109523Y-41502380D01*
X38014285Y-41835714D02*
X38014285Y-42502380D01*
X37776190Y-41454761D02*
X37538095Y-42169047D01*
X38157142Y-42169047D01*
X33733333Y-58102380D02*
X33400000Y-57626190D01*
X33161904Y-58102380D02*
X33161904Y-57102380D01*
X33542857Y-57102380D01*
X33638095Y-57150000D01*
X33685714Y-57197619D01*
X33733333Y-57292857D01*
X33733333Y-57435714D01*
X33685714Y-57530952D01*
X33638095Y-57578571D01*
X33542857Y-57626190D01*
X33161904Y-57626190D01*
X34638095Y-57102380D02*
X34161904Y-57102380D01*
X34114285Y-57578571D01*
X34161904Y-57530952D01*
X34257142Y-57483333D01*
X34495238Y-57483333D01*
X34590476Y-57530952D01*
X34638095Y-57578571D01*
X34685714Y-57673809D01*
X34685714Y-57911904D01*
X34638095Y-58007142D01*
X34590476Y-58054761D01*
X34495238Y-58102380D01*
X34257142Y-58102380D01*
X34161904Y-58054761D01*
X34114285Y-58007142D01*
X57552380Y-76642857D02*
X57076190Y-76976190D01*
X57552380Y-77214285D02*
X56552380Y-77214285D01*
X56552380Y-76833333D01*
X56600000Y-76738095D01*
X56647619Y-76690476D01*
X56742857Y-76642857D01*
X56885714Y-76642857D01*
X56980952Y-76690476D01*
X57028571Y-76738095D01*
X57076190Y-76833333D01*
X57076190Y-77214285D01*
X57552380Y-75690476D02*
X57552380Y-76261904D01*
X57552380Y-75976190D02*
X56552380Y-75976190D01*
X56695238Y-76071428D01*
X56790476Y-76166666D01*
X56838095Y-76261904D01*
X56885714Y-74833333D02*
X57552380Y-74833333D01*
X56504761Y-75071428D02*
X57219047Y-75309523D01*
X57219047Y-74690476D01*
X53702380Y-63942857D02*
X53226190Y-64276190D01*
X53702380Y-64514285D02*
X52702380Y-64514285D01*
X52702380Y-64133333D01*
X52750000Y-64038095D01*
X52797619Y-63990476D01*
X52892857Y-63942857D01*
X53035714Y-63942857D01*
X53130952Y-63990476D01*
X53178571Y-64038095D01*
X53226190Y-64133333D01*
X53226190Y-64514285D01*
X53702380Y-62990476D02*
X53702380Y-63561904D01*
X53702380Y-63276190D02*
X52702380Y-63276190D01*
X52845238Y-63371428D01*
X52940476Y-63466666D01*
X52988095Y-63561904D01*
X52702380Y-62657142D02*
X52702380Y-62038095D01*
X53083333Y-62371428D01*
X53083333Y-62228571D01*
X53130952Y-62133333D01*
X53178571Y-62085714D01*
X53273809Y-62038095D01*
X53511904Y-62038095D01*
X53607142Y-62085714D01*
X53654761Y-62133333D01*
X53702380Y-62228571D01*
X53702380Y-62514285D01*
X53654761Y-62609523D01*
X53607142Y-62657142D01*
X50402380Y-55042857D02*
X49926190Y-55376190D01*
X50402380Y-55614285D02*
X49402380Y-55614285D01*
X49402380Y-55233333D01*
X49450000Y-55138095D01*
X49497619Y-55090476D01*
X49592857Y-55042857D01*
X49735714Y-55042857D01*
X49830952Y-55090476D01*
X49878571Y-55138095D01*
X49926190Y-55233333D01*
X49926190Y-55614285D01*
X50402380Y-54090476D02*
X50402380Y-54661904D01*
X50402380Y-54376190D02*
X49402380Y-54376190D01*
X49545238Y-54471428D01*
X49640476Y-54566666D01*
X49688095Y-54661904D01*
X49497619Y-53709523D02*
X49450000Y-53661904D01*
X49402380Y-53566666D01*
X49402380Y-53328571D01*
X49450000Y-53233333D01*
X49497619Y-53185714D01*
X49592857Y-53138095D01*
X49688095Y-53138095D01*
X49830952Y-53185714D01*
X50402380Y-53757142D01*
X50402380Y-53138095D01*
X48957142Y-77302380D02*
X48623809Y-76826190D01*
X48385714Y-77302380D02*
X48385714Y-76302380D01*
X48766666Y-76302380D01*
X48861904Y-76350000D01*
X48909523Y-76397619D01*
X48957142Y-76492857D01*
X48957142Y-76635714D01*
X48909523Y-76730952D01*
X48861904Y-76778571D01*
X48766666Y-76826190D01*
X48385714Y-76826190D01*
X49909523Y-77302380D02*
X49338095Y-77302380D01*
X49623809Y-77302380D02*
X49623809Y-76302380D01*
X49528571Y-76445238D01*
X49433333Y-76540476D01*
X49338095Y-76588095D01*
X50861904Y-77302380D02*
X50290476Y-77302380D01*
X50576190Y-77302380D02*
X50576190Y-76302380D01*
X50480952Y-76445238D01*
X50385714Y-76540476D01*
X50290476Y-76588095D01*
X39902380Y-93342857D02*
X39426190Y-93676190D01*
X39902380Y-93914285D02*
X38902380Y-93914285D01*
X38902380Y-93533333D01*
X38950000Y-93438095D01*
X38997619Y-93390476D01*
X39092857Y-93342857D01*
X39235714Y-93342857D01*
X39330952Y-93390476D01*
X39378571Y-93438095D01*
X39426190Y-93533333D01*
X39426190Y-93914285D01*
X39902380Y-92390476D02*
X39902380Y-92961904D01*
X39902380Y-92676190D02*
X38902380Y-92676190D01*
X39045238Y-92771428D01*
X39140476Y-92866666D01*
X39188095Y-92961904D01*
X38902380Y-91771428D02*
X38902380Y-91676190D01*
X38950000Y-91580952D01*
X38997619Y-91533333D01*
X39092857Y-91485714D01*
X39283333Y-91438095D01*
X39521428Y-91438095D01*
X39711904Y-91485714D01*
X39807142Y-91533333D01*
X39854761Y-91580952D01*
X39902380Y-91676190D01*
X39902380Y-91771428D01*
X39854761Y-91866666D01*
X39807142Y-91914285D01*
X39711904Y-91961904D01*
X39521428Y-92009523D01*
X39283333Y-92009523D01*
X39092857Y-91961904D01*
X38997619Y-91914285D01*
X38950000Y-91866666D01*
X38902380Y-91771428D01*
X36633333Y-49702380D02*
X36300000Y-49226190D01*
X36061904Y-49702380D02*
X36061904Y-48702380D01*
X36442857Y-48702380D01*
X36538095Y-48750000D01*
X36585714Y-48797619D01*
X36633333Y-48892857D01*
X36633333Y-49035714D01*
X36585714Y-49130952D01*
X36538095Y-49178571D01*
X36442857Y-49226190D01*
X36061904Y-49226190D01*
X37109523Y-49702380D02*
X37300000Y-49702380D01*
X37395238Y-49654761D01*
X37442857Y-49607142D01*
X37538095Y-49464285D01*
X37585714Y-49273809D01*
X37585714Y-48892857D01*
X37538095Y-48797619D01*
X37490476Y-48750000D01*
X37395238Y-48702380D01*
X37204761Y-48702380D01*
X37109523Y-48750000D01*
X37061904Y-48797619D01*
X37014285Y-48892857D01*
X37014285Y-49130952D01*
X37061904Y-49226190D01*
X37109523Y-49273809D01*
X37204761Y-49321428D01*
X37395238Y-49321428D01*
X37490476Y-49273809D01*
X37538095Y-49226190D01*
X37585714Y-49130952D01*
X40433333Y-49702380D02*
X40100000Y-49226190D01*
X39861904Y-49702380D02*
X39861904Y-48702380D01*
X40242857Y-48702380D01*
X40338095Y-48750000D01*
X40385714Y-48797619D01*
X40433333Y-48892857D01*
X40433333Y-49035714D01*
X40385714Y-49130952D01*
X40338095Y-49178571D01*
X40242857Y-49226190D01*
X39861904Y-49226190D01*
X41004761Y-49130952D02*
X40909523Y-49083333D01*
X40861904Y-49035714D01*
X40814285Y-48940476D01*
X40814285Y-48892857D01*
X40861904Y-48797619D01*
X40909523Y-48750000D01*
X41004761Y-48702380D01*
X41195238Y-48702380D01*
X41290476Y-48750000D01*
X41338095Y-48797619D01*
X41385714Y-48892857D01*
X41385714Y-48940476D01*
X41338095Y-49035714D01*
X41290476Y-49083333D01*
X41195238Y-49130952D01*
X41004761Y-49130952D01*
X40909523Y-49178571D01*
X40861904Y-49226190D01*
X40814285Y-49321428D01*
X40814285Y-49511904D01*
X40861904Y-49607142D01*
X40909523Y-49654761D01*
X41004761Y-49702380D01*
X41195238Y-49702380D01*
X41290476Y-49654761D01*
X41338095Y-49607142D01*
X41385714Y-49511904D01*
X41385714Y-49321428D01*
X41338095Y-49226190D01*
X41290476Y-49178571D01*
X41195238Y-49130952D01*
X39902380Y-85266666D02*
X39426190Y-85600000D01*
X39902380Y-85838095D02*
X38902380Y-85838095D01*
X38902380Y-85457142D01*
X38950000Y-85361904D01*
X38997619Y-85314285D01*
X39092857Y-85266666D01*
X39235714Y-85266666D01*
X39330952Y-85314285D01*
X39378571Y-85361904D01*
X39426190Y-85457142D01*
X39426190Y-85838095D01*
X38902380Y-84933333D02*
X38902380Y-84266666D01*
X39902380Y-84695238D01*
X36602380Y-73866666D02*
X36126190Y-74200000D01*
X36602380Y-74438095D02*
X35602380Y-74438095D01*
X35602380Y-74057142D01*
X35650000Y-73961904D01*
X35697619Y-73914285D01*
X35792857Y-73866666D01*
X35935714Y-73866666D01*
X36030952Y-73914285D01*
X36078571Y-73961904D01*
X36126190Y-74057142D01*
X36126190Y-74438095D01*
X35602380Y-73009523D02*
X35602380Y-73200000D01*
X35650000Y-73295238D01*
X35697619Y-73342857D01*
X35840476Y-73438095D01*
X36030952Y-73485714D01*
X36411904Y-73485714D01*
X36507142Y-73438095D01*
X36554761Y-73390476D01*
X36602380Y-73295238D01*
X36602380Y-73104761D01*
X36554761Y-73009523D01*
X36507142Y-72961904D01*
X36411904Y-72914285D01*
X36173809Y-72914285D01*
X36078571Y-72961904D01*
X36030952Y-73009523D01*
X35983333Y-73104761D01*
X35983333Y-73295238D01*
X36030952Y-73390476D01*
X36078571Y-73438095D01*
X36173809Y-73485714D01*
X44833333Y-72802380D02*
X44500000Y-72326190D01*
X44261904Y-72802380D02*
X44261904Y-71802380D01*
X44642857Y-71802380D01*
X44738095Y-71850000D01*
X44785714Y-71897619D01*
X44833333Y-71992857D01*
X44833333Y-72135714D01*
X44785714Y-72230952D01*
X44738095Y-72278571D01*
X44642857Y-72326190D01*
X44261904Y-72326190D01*
X45690476Y-72135714D02*
X45690476Y-72802380D01*
X45452380Y-71754761D02*
X45214285Y-72469047D01*
X45833333Y-72469047D01*
X29433333Y-50302380D02*
X29100000Y-49826190D01*
X28861904Y-50302380D02*
X28861904Y-49302380D01*
X29242857Y-49302380D01*
X29338095Y-49350000D01*
X29385714Y-49397619D01*
X29433333Y-49492857D01*
X29433333Y-49635714D01*
X29385714Y-49730952D01*
X29338095Y-49778571D01*
X29242857Y-49826190D01*
X28861904Y-49826190D01*
X29766666Y-49302380D02*
X30385714Y-49302380D01*
X30052380Y-49683333D01*
X30195238Y-49683333D01*
X30290476Y-49730952D01*
X30338095Y-49778571D01*
X30385714Y-49873809D01*
X30385714Y-50111904D01*
X30338095Y-50207142D01*
X30290476Y-50254761D01*
X30195238Y-50302380D01*
X29909523Y-50302380D01*
X29814285Y-50254761D01*
X29766666Y-50207142D01*
X29433333Y-48302380D02*
X29100000Y-47826190D01*
X28861904Y-48302380D02*
X28861904Y-47302380D01*
X29242857Y-47302380D01*
X29338095Y-47350000D01*
X29385714Y-47397619D01*
X29433333Y-47492857D01*
X29433333Y-47635714D01*
X29385714Y-47730952D01*
X29338095Y-47778571D01*
X29242857Y-47826190D01*
X28861904Y-47826190D01*
X29814285Y-47397619D02*
X29861904Y-47350000D01*
X29957142Y-47302380D01*
X30195238Y-47302380D01*
X30290476Y-47350000D01*
X30338095Y-47397619D01*
X30385714Y-47492857D01*
X30385714Y-47588095D01*
X30338095Y-47730952D01*
X29766666Y-48302380D01*
X30385714Y-48302380D01*
X38302380Y-62466666D02*
X37826190Y-62800000D01*
X38302380Y-63038095D02*
X37302380Y-63038095D01*
X37302380Y-62657142D01*
X37350000Y-62561904D01*
X37397619Y-62514285D01*
X37492857Y-62466666D01*
X37635714Y-62466666D01*
X37730952Y-62514285D01*
X37778571Y-62561904D01*
X37826190Y-62657142D01*
X37826190Y-63038095D01*
X38302380Y-61514285D02*
X38302380Y-62085714D01*
X38302380Y-61800000D02*
X37302380Y-61800000D01*
X37445238Y-61895238D01*
X37540476Y-61990476D01*
X37588095Y-62085714D01*
D16*
X72068612Y-72112543D02*
X72783026Y-72112543D01*
X72925909Y-72160170D01*
X73021164Y-72255426D01*
X73068792Y-72398309D01*
X73068792Y-72493564D01*
X72402005Y-71207618D02*
X73068792Y-71207618D01*
X72020984Y-71445756D02*
X72735399Y-71683894D01*
X72735399Y-71064735D01*
D12*
X40002380Y-81861904D02*
X40811904Y-81861904D01*
X40907142Y-81814285D01*
X40954761Y-81766666D01*
X41002380Y-81671428D01*
X41002380Y-81480952D01*
X40954761Y-81385714D01*
X40907142Y-81338095D01*
X40811904Y-81290476D01*
X40002380Y-81290476D01*
X40002380Y-80338095D02*
X40002380Y-80814285D01*
X40478571Y-80861904D01*
X40430952Y-80814285D01*
X40383333Y-80719047D01*
X40383333Y-80480952D01*
X40430952Y-80385714D01*
X40478571Y-80338095D01*
X40573809Y-80290476D01*
X40811904Y-80290476D01*
X40907142Y-80338095D01*
X40954761Y-80385714D01*
X41002380Y-80480952D01*
X41002380Y-80719047D01*
X40954761Y-80814285D01*
X40907142Y-80861904D01*
X59857142Y-71142857D02*
X59904761Y-71190476D01*
X59952380Y-71333333D01*
X59952380Y-71428571D01*
X59904761Y-71571428D01*
X59809523Y-71666666D01*
X59714285Y-71714285D01*
X59523809Y-71761904D01*
X59380952Y-71761904D01*
X59190476Y-71714285D01*
X59095238Y-71666666D01*
X59000000Y-71571428D01*
X58952380Y-71428571D01*
X58952380Y-71333333D01*
X59000000Y-71190476D01*
X59047619Y-71142857D01*
X59952380Y-70190476D02*
X59952380Y-70761904D01*
X59952380Y-70476190D02*
X58952380Y-70476190D01*
X59095238Y-70571428D01*
X59190476Y-70666666D01*
X59238095Y-70761904D01*
X59285714Y-69333333D02*
X59952380Y-69333333D01*
X58904761Y-69571428D02*
X59619047Y-69809523D01*
X59619047Y-69190476D01*
X60907142Y-63042857D02*
X60954761Y-63090476D01*
X61002380Y-63233333D01*
X61002380Y-63328571D01*
X60954761Y-63471428D01*
X60859523Y-63566666D01*
X60764285Y-63614285D01*
X60573809Y-63661904D01*
X60430952Y-63661904D01*
X60240476Y-63614285D01*
X60145238Y-63566666D01*
X60050000Y-63471428D01*
X60002380Y-63328571D01*
X60002380Y-63233333D01*
X60050000Y-63090476D01*
X60097619Y-63042857D01*
X61002380Y-62090476D02*
X61002380Y-62661904D01*
X61002380Y-62376190D02*
X60002380Y-62376190D01*
X60145238Y-62471428D01*
X60240476Y-62566666D01*
X60288095Y-62661904D01*
X60002380Y-61757142D02*
X60002380Y-61138095D01*
X60383333Y-61471428D01*
X60383333Y-61328571D01*
X60430952Y-61233333D01*
X60478571Y-61185714D01*
X60573809Y-61138095D01*
X60811904Y-61138095D01*
X60907142Y-61185714D01*
X60954761Y-61233333D01*
X61002380Y-61328571D01*
X61002380Y-61614285D01*
X60954761Y-61709523D01*
X60907142Y-61757142D01*
X37138095Y-49552380D02*
X37138095Y-50361904D01*
X37185714Y-50457142D01*
X37233333Y-50504761D01*
X37328571Y-50552380D01*
X37519047Y-50552380D01*
X37614285Y-50504761D01*
X37661904Y-50457142D01*
X37709523Y-50361904D01*
X37709523Y-49552380D01*
X38090476Y-49552380D02*
X38709523Y-49552380D01*
X38376190Y-49933333D01*
X38519047Y-49933333D01*
X38614285Y-49980952D01*
X38661904Y-50028571D01*
X38709523Y-50123809D01*
X38709523Y-50361904D01*
X38661904Y-50457142D01*
X38614285Y-50504761D01*
X38519047Y-50552380D01*
X38233333Y-50552380D01*
X38138095Y-50504761D01*
X38090476Y-50457142D01*
X33138095Y-49552380D02*
X33138095Y-50361904D01*
X33185714Y-50457142D01*
X33233333Y-50504761D01*
X33328571Y-50552380D01*
X33519047Y-50552380D01*
X33614285Y-50504761D01*
X33661904Y-50457142D01*
X33709523Y-50361904D01*
X33709523Y-49552380D01*
X34138095Y-49647619D02*
X34185714Y-49600000D01*
X34280952Y-49552380D01*
X34519047Y-49552380D01*
X34614285Y-49600000D01*
X34661904Y-49647619D01*
X34709523Y-49742857D01*
X34709523Y-49838095D01*
X34661904Y-49980952D01*
X34090476Y-50552380D01*
X34709523Y-50552380D01*
X46152380Y-56833333D02*
X46866666Y-56833333D01*
X47009523Y-56880952D01*
X47104761Y-56976190D01*
X47152380Y-57119047D01*
X47152380Y-57214285D01*
X47152380Y-56357142D02*
X46152380Y-56357142D01*
X46152380Y-55976190D01*
X46200000Y-55880952D01*
X46247619Y-55833333D01*
X46342857Y-55785714D01*
X46485714Y-55785714D01*
X46580952Y-55833333D01*
X46628571Y-55880952D01*
X46676190Y-55976190D01*
X46676190Y-56357142D01*
X47152380Y-54833333D02*
X47152380Y-55404761D01*
X47152380Y-55119047D02*
X46152380Y-55119047D01*
X46295238Y-55214285D01*
X46390476Y-55309523D01*
X46438095Y-55404761D01*
X24252380Y-98383333D02*
X24966666Y-98383333D01*
X25109523Y-98430952D01*
X25204761Y-98526190D01*
X25252380Y-98669047D01*
X25252380Y-98764285D01*
X24252380Y-98002380D02*
X24252380Y-97383333D01*
X24633333Y-97716666D01*
X24633333Y-97573809D01*
X24680952Y-97478571D01*
X24728571Y-97430952D01*
X24823809Y-97383333D01*
X25061904Y-97383333D01*
X25157142Y-97430952D01*
X25204761Y-97478571D01*
X25252380Y-97573809D01*
X25252380Y-97859523D01*
X25204761Y-97954761D01*
X25157142Y-98002380D01*
X26234380Y-47933333D02*
X26948666Y-47933333D01*
X27091523Y-47980952D01*
X27186761Y-48076190D01*
X27234380Y-48219047D01*
X27234380Y-48314285D01*
X27234380Y-46933333D02*
X27234380Y-47504761D01*
X27234380Y-47219047D02*
X26234380Y-47219047D01*
X26377238Y-47314285D01*
X26472476Y-47409523D01*
X26520095Y-47504761D01*
X50502380Y-91609523D02*
X51502380Y-90942857D01*
X50502380Y-90942857D02*
X51502380Y-91609523D01*
X51502380Y-90038095D02*
X51502380Y-90609523D01*
X51502380Y-90323809D02*
X50502380Y-90323809D01*
X50645238Y-90419047D01*
X50740476Y-90514285D01*
X50788095Y-90609523D01*
X71892380Y-59093333D02*
X72606666Y-59093333D01*
X72749523Y-59140952D01*
X72844761Y-59236190D01*
X72892380Y-59379047D01*
X72892380Y-59474285D01*
X72892380Y-58045714D02*
X72416190Y-58379047D01*
X72892380Y-58617142D02*
X71892380Y-58617142D01*
X71892380Y-58236190D01*
X71940000Y-58140952D01*
X71987619Y-58093333D01*
X72082857Y-58045714D01*
X72225714Y-58045714D01*
X72320952Y-58093333D01*
X72368571Y-58140952D01*
X72416190Y-58236190D01*
X72416190Y-58617142D01*
X71987619Y-57664761D02*
X71940000Y-57617142D01*
X71892380Y-57521904D01*
X71892380Y-57283809D01*
X71940000Y-57188571D01*
X71987619Y-57140952D01*
X72082857Y-57093333D01*
X72178095Y-57093333D01*
X72320952Y-57140952D01*
X72892380Y-57712380D01*
X72892380Y-57093333D01*
X71692380Y-88893333D02*
X72406666Y-88893333D01*
X72549523Y-88940952D01*
X72644761Y-89036190D01*
X72692380Y-89179047D01*
X72692380Y-89274285D01*
X72692380Y-87845714D02*
X72216190Y-88179047D01*
X72692380Y-88417142D02*
X71692380Y-88417142D01*
X71692380Y-88036190D01*
X71740000Y-87940952D01*
X71787619Y-87893333D01*
X71882857Y-87845714D01*
X72025714Y-87845714D01*
X72120952Y-87893333D01*
X72168571Y-87940952D01*
X72216190Y-88036190D01*
X72216190Y-88417142D01*
X72692380Y-86893333D02*
X72692380Y-87464761D01*
X72692380Y-87179047D02*
X71692380Y-87179047D01*
X71835238Y-87274285D01*
X71930476Y-87369523D01*
X71978095Y-87464761D01*
X71692380Y-101937142D02*
X72406666Y-101937142D01*
X72549523Y-101984761D01*
X72644761Y-102080000D01*
X72692380Y-102222857D01*
X72692380Y-102318095D01*
X71692380Y-101460952D02*
X72501904Y-101460952D01*
X72597142Y-101413333D01*
X72644761Y-101365714D01*
X72692380Y-101270476D01*
X72692380Y-101080000D01*
X72644761Y-100984761D01*
X72597142Y-100937142D01*
X72501904Y-100889523D01*
X71692380Y-100889523D01*
X72692380Y-99889523D02*
X72692380Y-100460952D01*
X72692380Y-100175238D02*
X71692380Y-100175238D01*
X71835238Y-100270476D01*
X71930476Y-100365714D01*
X71978095Y-100460952D01*
X44133333Y-42957142D02*
X44085714Y-43004761D01*
X43942857Y-43052380D01*
X43847619Y-43052380D01*
X43704761Y-43004761D01*
X43609523Y-42909523D01*
X43561904Y-42814285D01*
X43514285Y-42623809D01*
X43514285Y-42480952D01*
X43561904Y-42290476D01*
X43609523Y-42195238D01*
X43704761Y-42100000D01*
X43847619Y-42052380D01*
X43942857Y-42052380D01*
X44085714Y-42100000D01*
X44133333Y-42147619D01*
X44609523Y-43052380D02*
X44800000Y-43052380D01*
X44895238Y-43004761D01*
X44942857Y-42957142D01*
X45038095Y-42814285D01*
X45085714Y-42623809D01*
X45085714Y-42242857D01*
X45038095Y-42147619D01*
X44990476Y-42100000D01*
X44895238Y-42052380D01*
X44704761Y-42052380D01*
X44609523Y-42100000D01*
X44561904Y-42147619D01*
X44514285Y-42242857D01*
X44514285Y-42480952D01*
X44561904Y-42576190D01*
X44609523Y-42623809D01*
X44704761Y-42671428D01*
X44895238Y-42671428D01*
X44990476Y-42623809D01*
X45038095Y-42576190D01*
X45085714Y-42480952D01*
X24271746Y-90154660D02*
X24271746Y-90868946D01*
X24224127Y-91011803D01*
X24128889Y-91107041D01*
X23986032Y-91154660D01*
X23890794Y-91154660D01*
X24700318Y-90249899D02*
X24747937Y-90202280D01*
X24843175Y-90154660D01*
X25081270Y-90154660D01*
X25176508Y-90202280D01*
X25224127Y-90249899D01*
X25271746Y-90345137D01*
X25271746Y-90440375D01*
X25224127Y-90583232D01*
X24652699Y-91154660D01*
X25271746Y-91154660D01*
X44238095Y-60852380D02*
X44238095Y-61661904D01*
X44285714Y-61757142D01*
X44333333Y-61804761D01*
X44428571Y-61852380D01*
X44619047Y-61852380D01*
X44714285Y-61804761D01*
X44761904Y-61757142D01*
X44809523Y-61661904D01*
X44809523Y-60852380D01*
X45809523Y-61852380D02*
X45238095Y-61852380D01*
X45523809Y-61852380D02*
X45523809Y-60852380D01*
X45428571Y-60995238D01*
X45333333Y-61090476D01*
X45238095Y-61138095D01*
M02*
