G04 #@! TF.GenerationSoftware,KiCad,Pcbnew,(5.1.5)-2*
G04 #@! TF.CreationDate,2020-11-21T23:32:15+13:00*
G04 #@! TF.ProjectId,rgbntsc,7267626e-7473-4632-9e6b-696361645f70,rev?*
G04 #@! TF.SameCoordinates,Original*
G04 #@! TF.FileFunction,Soldermask,Top*
G04 #@! TF.FilePolarity,Negative*
%FSLAX46Y46*%
G04 Gerber Fmt 4.6, Leading zero omitted, Abs format (unit mm)*
G04 Created by KiCad (PCBNEW (5.1.5)-2) date 2020-11-21 23:32:15*
%MOMM*%
%LPD*%
G04 APERTURE LIST*
%ADD10C,0.100000*%
G04 APERTURE END LIST*
D10*
G36*
X27798254Y-105297818D02*
G01*
X28171511Y-105452426D01*
X28171513Y-105452427D01*
X28507436Y-105676884D01*
X28793116Y-105962564D01*
X29017574Y-106298489D01*
X29172182Y-106671746D01*
X29251000Y-107067993D01*
X29251000Y-107472007D01*
X29172182Y-107868254D01*
X29124501Y-107983365D01*
X29017573Y-108241513D01*
X28793116Y-108577436D01*
X28507436Y-108863116D01*
X28171513Y-109087573D01*
X28171512Y-109087574D01*
X28171511Y-109087574D01*
X27798254Y-109242182D01*
X27402007Y-109321000D01*
X26997993Y-109321000D01*
X26601746Y-109242182D01*
X26228489Y-109087574D01*
X26228488Y-109087574D01*
X26228487Y-109087573D01*
X25892564Y-108863116D01*
X25606884Y-108577436D01*
X25382427Y-108241513D01*
X25275499Y-107983365D01*
X25227818Y-107868254D01*
X25149000Y-107472007D01*
X25149000Y-107067993D01*
X25227818Y-106671746D01*
X25382426Y-106298489D01*
X25606884Y-105962564D01*
X25892564Y-105676884D01*
X26228487Y-105452427D01*
X26228489Y-105452426D01*
X26601746Y-105297818D01*
X26997993Y-105219000D01*
X27402007Y-105219000D01*
X27798254Y-105297818D01*
G37*
G36*
X69074549Y-106741116D02*
G01*
X69185734Y-106763232D01*
X69395203Y-106849997D01*
X69583720Y-106975960D01*
X69744040Y-107136280D01*
X69870003Y-107324797D01*
X69956768Y-107534266D01*
X70001000Y-107756636D01*
X70001000Y-107983364D01*
X69956768Y-108205734D01*
X69870003Y-108415203D01*
X69744040Y-108603720D01*
X69583720Y-108764040D01*
X69395203Y-108890003D01*
X69185734Y-108976768D01*
X69074549Y-108998884D01*
X68963365Y-109021000D01*
X68736635Y-109021000D01*
X68625451Y-108998884D01*
X68514266Y-108976768D01*
X68304797Y-108890003D01*
X68116280Y-108764040D01*
X67955960Y-108603720D01*
X67829997Y-108415203D01*
X67743232Y-108205734D01*
X67699000Y-107983364D01*
X67699000Y-107756636D01*
X67743232Y-107534266D01*
X67829997Y-107324797D01*
X67955960Y-107136280D01*
X68116280Y-106975960D01*
X68304797Y-106849997D01*
X68514266Y-106763232D01*
X68625451Y-106741116D01*
X68736635Y-106719000D01*
X68963365Y-106719000D01*
X69074549Y-106741116D01*
G37*
G36*
X61502585Y-102098802D02*
G01*
X61652410Y-102128604D01*
X61934674Y-102245521D01*
X62188705Y-102415259D01*
X62404741Y-102631295D01*
X62574479Y-102885326D01*
X62691396Y-103167590D01*
X62751000Y-103467240D01*
X62751000Y-103772760D01*
X62691396Y-104072410D01*
X62574479Y-104354674D01*
X62404741Y-104608705D01*
X62188705Y-104824741D01*
X61934674Y-104994479D01*
X61652410Y-105111396D01*
X61502585Y-105141198D01*
X61352761Y-105171000D01*
X61047239Y-105171000D01*
X60897415Y-105141198D01*
X60747590Y-105111396D01*
X60465326Y-104994479D01*
X60211295Y-104824741D01*
X59995259Y-104608705D01*
X59825521Y-104354674D01*
X59708604Y-104072410D01*
X59649000Y-103772760D01*
X59649000Y-103467240D01*
X59708604Y-103167590D01*
X59825521Y-102885326D01*
X59995259Y-102631295D01*
X60211295Y-102415259D01*
X60465326Y-102245521D01*
X60747590Y-102128604D01*
X60897415Y-102098802D01*
X61047239Y-102069000D01*
X61352761Y-102069000D01*
X61502585Y-102098802D01*
G37*
G36*
X66002585Y-102098802D02*
G01*
X66152410Y-102128604D01*
X66434674Y-102245521D01*
X66688705Y-102415259D01*
X66904741Y-102631295D01*
X67074479Y-102885326D01*
X67191396Y-103167590D01*
X67251000Y-103467240D01*
X67251000Y-103772760D01*
X67191396Y-104072410D01*
X67074479Y-104354674D01*
X66904741Y-104608705D01*
X66688705Y-104824741D01*
X66434674Y-104994479D01*
X66152410Y-105111396D01*
X66002585Y-105141198D01*
X65852761Y-105171000D01*
X65547239Y-105171000D01*
X65397415Y-105141198D01*
X65247590Y-105111396D01*
X64965326Y-104994479D01*
X64711295Y-104824741D01*
X64495259Y-104608705D01*
X64325521Y-104354674D01*
X64208604Y-104072410D01*
X64149000Y-103772760D01*
X64149000Y-103467240D01*
X64208604Y-103167590D01*
X64325521Y-102885326D01*
X64495259Y-102631295D01*
X64711295Y-102415259D01*
X64965326Y-102245521D01*
X65247590Y-102128604D01*
X65397415Y-102098802D01*
X65547239Y-102069000D01*
X65852761Y-102069000D01*
X66002585Y-102098802D01*
G37*
G36*
X34704549Y-98776116D02*
G01*
X34815734Y-98798232D01*
X35025203Y-98884997D01*
X35213720Y-99010960D01*
X35374040Y-99171280D01*
X35500003Y-99359797D01*
X35586768Y-99569266D01*
X35631000Y-99791636D01*
X35631000Y-100018364D01*
X35586768Y-100240734D01*
X35500003Y-100450203D01*
X35374040Y-100638720D01*
X35213720Y-100799040D01*
X35025203Y-100925003D01*
X34815734Y-101011768D01*
X34704549Y-101033884D01*
X34593365Y-101056000D01*
X34366635Y-101056000D01*
X34255451Y-101033884D01*
X34144266Y-101011768D01*
X33934797Y-100925003D01*
X33746280Y-100799040D01*
X33585960Y-100638720D01*
X33459997Y-100450203D01*
X33373232Y-100240734D01*
X33329000Y-100018364D01*
X33329000Y-99791636D01*
X33373232Y-99569266D01*
X33459997Y-99359797D01*
X33585960Y-99171280D01*
X33746280Y-99010960D01*
X33934797Y-98884997D01*
X34144266Y-98798232D01*
X34255451Y-98776116D01*
X34366635Y-98754000D01*
X34593365Y-98754000D01*
X34704549Y-98776116D01*
G37*
G36*
X69074549Y-98241116D02*
G01*
X69185734Y-98263232D01*
X69395203Y-98349997D01*
X69583720Y-98475960D01*
X69744040Y-98636280D01*
X69870003Y-98824797D01*
X69956768Y-99034266D01*
X70001000Y-99256636D01*
X70001000Y-99483364D01*
X69956768Y-99705734D01*
X69870003Y-99915203D01*
X69744040Y-100103720D01*
X69583720Y-100264040D01*
X69395203Y-100390003D01*
X69185734Y-100476768D01*
X69074549Y-100498884D01*
X68963365Y-100521000D01*
X68736635Y-100521000D01*
X68625451Y-100498884D01*
X68514266Y-100476768D01*
X68304797Y-100390003D01*
X68116280Y-100264040D01*
X67955960Y-100103720D01*
X67829997Y-99915203D01*
X67743232Y-99705734D01*
X67699000Y-99483364D01*
X67699000Y-99256636D01*
X67743232Y-99034266D01*
X67829997Y-98824797D01*
X67955960Y-98636280D01*
X68116280Y-98475960D01*
X68304797Y-98349997D01*
X68514266Y-98263232D01*
X68625451Y-98241116D01*
X68736635Y-98219000D01*
X68963365Y-98219000D01*
X69074549Y-98241116D01*
G37*
G36*
X29624549Y-96871116D02*
G01*
X29735734Y-96893232D01*
X29945203Y-96979997D01*
X30133720Y-97105960D01*
X30294040Y-97266280D01*
X30420003Y-97454797D01*
X30506768Y-97664266D01*
X30551000Y-97886636D01*
X30551000Y-98113364D01*
X30506768Y-98335734D01*
X30420003Y-98545203D01*
X30294040Y-98733720D01*
X30133720Y-98894040D01*
X29945203Y-99020003D01*
X29735734Y-99106768D01*
X29624549Y-99128884D01*
X29513365Y-99151000D01*
X29286635Y-99151000D01*
X29175451Y-99128884D01*
X29064266Y-99106768D01*
X28854797Y-99020003D01*
X28666280Y-98894040D01*
X28505960Y-98733720D01*
X28379997Y-98545203D01*
X28293232Y-98335734D01*
X28249000Y-98113364D01*
X28249000Y-97886636D01*
X28293232Y-97664266D01*
X28379997Y-97454797D01*
X28505960Y-97266280D01*
X28666280Y-97105960D01*
X28854797Y-96979997D01*
X29064266Y-96893232D01*
X29175451Y-96871116D01*
X29286635Y-96849000D01*
X29513365Y-96849000D01*
X29624549Y-96871116D01*
G37*
G36*
X34690714Y-94963364D02*
G01*
X34815734Y-94988232D01*
X35025203Y-95074997D01*
X35213720Y-95200960D01*
X35374040Y-95361280D01*
X35500003Y-95549797D01*
X35500004Y-95549799D01*
X35586768Y-95759267D01*
X35626054Y-95956768D01*
X35631000Y-95981636D01*
X35631000Y-96208364D01*
X35586768Y-96430734D01*
X35500003Y-96640203D01*
X35374040Y-96828720D01*
X35213720Y-96989040D01*
X35025203Y-97115003D01*
X34815734Y-97201768D01*
X34704549Y-97223884D01*
X34593365Y-97246000D01*
X34366635Y-97246000D01*
X34255451Y-97223884D01*
X34144266Y-97201768D01*
X33934797Y-97115003D01*
X33746280Y-96989040D01*
X33585960Y-96828720D01*
X33459997Y-96640203D01*
X33373232Y-96430734D01*
X33329000Y-96208364D01*
X33329000Y-95981636D01*
X33333947Y-95956768D01*
X33373232Y-95759267D01*
X33459996Y-95549799D01*
X33459997Y-95549797D01*
X33585960Y-95361280D01*
X33746280Y-95200960D01*
X33934797Y-95074997D01*
X34144266Y-94988232D01*
X34269286Y-94963364D01*
X34366635Y-94944000D01*
X34593365Y-94944000D01*
X34690714Y-94963364D01*
G37*
G36*
X69074549Y-93721116D02*
G01*
X69185734Y-93743232D01*
X69395203Y-93829997D01*
X69583720Y-93955960D01*
X69744040Y-94116280D01*
X69869046Y-94303365D01*
X69870004Y-94304799D01*
X69956768Y-94514267D01*
X70001000Y-94736635D01*
X70001000Y-94963365D01*
X69978884Y-95074549D01*
X69956768Y-95185734D01*
X69870003Y-95395203D01*
X69744040Y-95583720D01*
X69583720Y-95744040D01*
X69395203Y-95870003D01*
X69185734Y-95956768D01*
X69074549Y-95978884D01*
X68963365Y-96001000D01*
X68736635Y-96001000D01*
X68625451Y-95978884D01*
X68514266Y-95956768D01*
X68304797Y-95870003D01*
X68116280Y-95744040D01*
X67955960Y-95583720D01*
X67829997Y-95395203D01*
X67743232Y-95185734D01*
X67721116Y-95074549D01*
X67699000Y-94963365D01*
X67699000Y-94736635D01*
X67743232Y-94514267D01*
X67829996Y-94304799D01*
X67830954Y-94303365D01*
X67955960Y-94116280D01*
X68116280Y-93955960D01*
X68304797Y-93829997D01*
X68514266Y-93743232D01*
X68625451Y-93721116D01*
X68736635Y-93699000D01*
X68963365Y-93699000D01*
X69074549Y-93721116D01*
G37*
G36*
X29624549Y-93061116D02*
G01*
X29735734Y-93083232D01*
X29945203Y-93169997D01*
X30133720Y-93295960D01*
X30294040Y-93456280D01*
X30420003Y-93644797D01*
X30420004Y-93644799D01*
X30506768Y-93854267D01*
X30551000Y-94076635D01*
X30551000Y-94303365D01*
X30545646Y-94330282D01*
X30506768Y-94525734D01*
X30420003Y-94735203D01*
X30294040Y-94923720D01*
X30133720Y-95084040D01*
X29945203Y-95210003D01*
X29735734Y-95296768D01*
X29624549Y-95318884D01*
X29513365Y-95341000D01*
X29286635Y-95341000D01*
X29175451Y-95318884D01*
X29064266Y-95296768D01*
X28854797Y-95210003D01*
X28666280Y-95084040D01*
X28505960Y-94923720D01*
X28379997Y-94735203D01*
X28293232Y-94525734D01*
X28254354Y-94330282D01*
X28249000Y-94303365D01*
X28249000Y-94076635D01*
X28293232Y-93854267D01*
X28379996Y-93644799D01*
X28379997Y-93644797D01*
X28505960Y-93456280D01*
X28666280Y-93295960D01*
X28854797Y-93169997D01*
X29064266Y-93083232D01*
X29175451Y-93061116D01*
X29286635Y-93039000D01*
X29513365Y-93039000D01*
X29624549Y-93061116D01*
G37*
G36*
X43151000Y-94426000D02*
G01*
X41749000Y-94426000D01*
X41749000Y-93224000D01*
X43151000Y-93224000D01*
X43151000Y-94426000D01*
G37*
G36*
X45251000Y-94426000D02*
G01*
X43849000Y-94426000D01*
X43849000Y-93224000D01*
X45251000Y-93224000D01*
X45251000Y-94426000D01*
G37*
G36*
X38388674Y-93103465D02*
G01*
X38426367Y-93114899D01*
X38461103Y-93133466D01*
X38491548Y-93158452D01*
X38516534Y-93188897D01*
X38535101Y-93223633D01*
X38546535Y-93261326D01*
X38551000Y-93306661D01*
X38551000Y-94143339D01*
X38546535Y-94188674D01*
X38535101Y-94226367D01*
X38516534Y-94261103D01*
X38491548Y-94291548D01*
X38461103Y-94316534D01*
X38426367Y-94335101D01*
X38388674Y-94346535D01*
X38343339Y-94351000D01*
X37256661Y-94351000D01*
X37211326Y-94346535D01*
X37173633Y-94335101D01*
X37138897Y-94316534D01*
X37108452Y-94291548D01*
X37083466Y-94261103D01*
X37064899Y-94226367D01*
X37053465Y-94188674D01*
X37049000Y-94143339D01*
X37049000Y-93306661D01*
X37053465Y-93261326D01*
X37064899Y-93223633D01*
X37083466Y-93188897D01*
X37108452Y-93158452D01*
X37138897Y-93133466D01*
X37173633Y-93114899D01*
X37211326Y-93103465D01*
X37256661Y-93099000D01*
X38343339Y-93099000D01*
X38388674Y-93103465D01*
G37*
G36*
X34704549Y-91156116D02*
G01*
X34815734Y-91178232D01*
X35025203Y-91264997D01*
X35213720Y-91390960D01*
X35374040Y-91551280D01*
X35500003Y-91739797D01*
X35500004Y-91739799D01*
X35586768Y-91949267D01*
X35631000Y-92171635D01*
X35631000Y-92398365D01*
X35586768Y-92620733D01*
X35500072Y-92830038D01*
X35500003Y-92830203D01*
X35374040Y-93018720D01*
X35213720Y-93179040D01*
X35025203Y-93305003D01*
X35025202Y-93305004D01*
X35025201Y-93305004D01*
X34963850Y-93330416D01*
X34815734Y-93391768D01*
X34704549Y-93413884D01*
X34593365Y-93436000D01*
X34366635Y-93436000D01*
X34255451Y-93413884D01*
X34144266Y-93391768D01*
X33996150Y-93330416D01*
X33934799Y-93305004D01*
X33934798Y-93305004D01*
X33934797Y-93305003D01*
X33746280Y-93179040D01*
X33585960Y-93018720D01*
X33459997Y-92830203D01*
X33459929Y-92830038D01*
X33373232Y-92620733D01*
X33329000Y-92398365D01*
X33329000Y-92171635D01*
X33373232Y-91949267D01*
X33459996Y-91739799D01*
X33459997Y-91739797D01*
X33585960Y-91551280D01*
X33746280Y-91390960D01*
X33934797Y-91264997D01*
X34144266Y-91178232D01*
X34255451Y-91156116D01*
X34366635Y-91134000D01*
X34593365Y-91134000D01*
X34704549Y-91156116D01*
G37*
G36*
X52788674Y-91453465D02*
G01*
X52826367Y-91464899D01*
X52861103Y-91483466D01*
X52891548Y-91508452D01*
X52916534Y-91538897D01*
X52935101Y-91573633D01*
X52946535Y-91611326D01*
X52951000Y-91656661D01*
X52951000Y-92743339D01*
X52946535Y-92788674D01*
X52935101Y-92826367D01*
X52916534Y-92861103D01*
X52891548Y-92891548D01*
X52861103Y-92916534D01*
X52826367Y-92935101D01*
X52788674Y-92946535D01*
X52743339Y-92951000D01*
X51906661Y-92951000D01*
X51861326Y-92946535D01*
X51823633Y-92935101D01*
X51788897Y-92916534D01*
X51758452Y-92891548D01*
X51733466Y-92861103D01*
X51714899Y-92826367D01*
X51703465Y-92788674D01*
X51699000Y-92743339D01*
X51699000Y-91656661D01*
X51703465Y-91611326D01*
X51714899Y-91573633D01*
X51733466Y-91538897D01*
X51758452Y-91508452D01*
X51788897Y-91483466D01*
X51823633Y-91464899D01*
X51861326Y-91453465D01*
X51906661Y-91449000D01*
X52743339Y-91449000D01*
X52788674Y-91453465D01*
G37*
G36*
X46738674Y-91453465D02*
G01*
X46776367Y-91464899D01*
X46811103Y-91483466D01*
X46841548Y-91508452D01*
X46866534Y-91538897D01*
X46885101Y-91573633D01*
X46896535Y-91611326D01*
X46901000Y-91656661D01*
X46901000Y-92743339D01*
X46896535Y-92788674D01*
X46885101Y-92826367D01*
X46866534Y-92861103D01*
X46841548Y-92891548D01*
X46811103Y-92916534D01*
X46776367Y-92935101D01*
X46738674Y-92946535D01*
X46693339Y-92951000D01*
X45856661Y-92951000D01*
X45811326Y-92946535D01*
X45773633Y-92935101D01*
X45738897Y-92916534D01*
X45708452Y-92891548D01*
X45683466Y-92861103D01*
X45664899Y-92826367D01*
X45653465Y-92788674D01*
X45649000Y-92743339D01*
X45649000Y-91656661D01*
X45653465Y-91611326D01*
X45664899Y-91573633D01*
X45683466Y-91538897D01*
X45708452Y-91508452D01*
X45738897Y-91483466D01*
X45773633Y-91464899D01*
X45811326Y-91453465D01*
X45856661Y-91449000D01*
X46693339Y-91449000D01*
X46738674Y-91453465D01*
G37*
G36*
X50738674Y-91453465D02*
G01*
X50776367Y-91464899D01*
X50811103Y-91483466D01*
X50841548Y-91508452D01*
X50866534Y-91538897D01*
X50885101Y-91573633D01*
X50896535Y-91611326D01*
X50901000Y-91656661D01*
X50901000Y-92743339D01*
X50896535Y-92788674D01*
X50885101Y-92826367D01*
X50866534Y-92861103D01*
X50841548Y-92891548D01*
X50811103Y-92916534D01*
X50776367Y-92935101D01*
X50738674Y-92946535D01*
X50693339Y-92951000D01*
X49856661Y-92951000D01*
X49811326Y-92946535D01*
X49773633Y-92935101D01*
X49738897Y-92916534D01*
X49708452Y-92891548D01*
X49683466Y-92861103D01*
X49664899Y-92826367D01*
X49653465Y-92788674D01*
X49649000Y-92743339D01*
X49649000Y-91656661D01*
X49653465Y-91611326D01*
X49664899Y-91573633D01*
X49683466Y-91538897D01*
X49708452Y-91508452D01*
X49738897Y-91483466D01*
X49773633Y-91464899D01*
X49811326Y-91453465D01*
X49856661Y-91449000D01*
X50693339Y-91449000D01*
X50738674Y-91453465D01*
G37*
G36*
X48788674Y-91453465D02*
G01*
X48826367Y-91464899D01*
X48861103Y-91483466D01*
X48891548Y-91508452D01*
X48916534Y-91538897D01*
X48935101Y-91573633D01*
X48946535Y-91611326D01*
X48951000Y-91656661D01*
X48951000Y-92743339D01*
X48946535Y-92788674D01*
X48935101Y-92826367D01*
X48916534Y-92861103D01*
X48891548Y-92891548D01*
X48861103Y-92916534D01*
X48826367Y-92935101D01*
X48788674Y-92946535D01*
X48743339Y-92951000D01*
X47906661Y-92951000D01*
X47861326Y-92946535D01*
X47823633Y-92935101D01*
X47788897Y-92916534D01*
X47758452Y-92891548D01*
X47733466Y-92861103D01*
X47714899Y-92826367D01*
X47703465Y-92788674D01*
X47699000Y-92743339D01*
X47699000Y-91656661D01*
X47703465Y-91611326D01*
X47714899Y-91573633D01*
X47733466Y-91538897D01*
X47758452Y-91508452D01*
X47788897Y-91483466D01*
X47823633Y-91464899D01*
X47861326Y-91453465D01*
X47906661Y-91449000D01*
X48743339Y-91449000D01*
X48788674Y-91453465D01*
G37*
G36*
X45251000Y-92776000D02*
G01*
X43849000Y-92776000D01*
X43849000Y-91574000D01*
X45251000Y-91574000D01*
X45251000Y-92776000D01*
G37*
G36*
X43151000Y-92776000D02*
G01*
X41749000Y-92776000D01*
X41749000Y-91574000D01*
X43151000Y-91574000D01*
X43151000Y-92776000D01*
G37*
G36*
X38388674Y-91053465D02*
G01*
X38426367Y-91064899D01*
X38461103Y-91083466D01*
X38491548Y-91108452D01*
X38516534Y-91138897D01*
X38535101Y-91173633D01*
X38546535Y-91211326D01*
X38551000Y-91256661D01*
X38551000Y-92093339D01*
X38546535Y-92138674D01*
X38535101Y-92176367D01*
X38516534Y-92211103D01*
X38491548Y-92241548D01*
X38461103Y-92266534D01*
X38426367Y-92285101D01*
X38388674Y-92296535D01*
X38343339Y-92301000D01*
X37256661Y-92301000D01*
X37211326Y-92296535D01*
X37173633Y-92285101D01*
X37138897Y-92266534D01*
X37108452Y-92241548D01*
X37083466Y-92211103D01*
X37064899Y-92176367D01*
X37053465Y-92138674D01*
X37049000Y-92093339D01*
X37049000Y-91256661D01*
X37053465Y-91211326D01*
X37064899Y-91173633D01*
X37083466Y-91138897D01*
X37108452Y-91108452D01*
X37138897Y-91083466D01*
X37173633Y-91064899D01*
X37211326Y-91053465D01*
X37256661Y-91049000D01*
X38343339Y-91049000D01*
X38388674Y-91053465D01*
G37*
G36*
X66002585Y-89078802D02*
G01*
X66152410Y-89108604D01*
X66434674Y-89225521D01*
X66688705Y-89395259D01*
X66904741Y-89611295D01*
X67074479Y-89865326D01*
X67191396Y-90147590D01*
X67197803Y-90179800D01*
X67228063Y-90331925D01*
X67251000Y-90447240D01*
X67251000Y-90752760D01*
X67191396Y-91052410D01*
X67074479Y-91334674D01*
X66904741Y-91588705D01*
X66688705Y-91804741D01*
X66434674Y-91974479D01*
X66152410Y-92091396D01*
X66002585Y-92121198D01*
X65852761Y-92151000D01*
X65547239Y-92151000D01*
X65397415Y-92121198D01*
X65247590Y-92091396D01*
X64965326Y-91974479D01*
X64711295Y-91804741D01*
X64495259Y-91588705D01*
X64325521Y-91334674D01*
X64208604Y-91052410D01*
X64149000Y-90752760D01*
X64149000Y-90447240D01*
X64171938Y-90331925D01*
X64202197Y-90179800D01*
X64208604Y-90147590D01*
X64325521Y-89865326D01*
X64495259Y-89611295D01*
X64711295Y-89395259D01*
X64965326Y-89225521D01*
X65247590Y-89108604D01*
X65397415Y-89078802D01*
X65547239Y-89049000D01*
X65852761Y-89049000D01*
X66002585Y-89078802D01*
G37*
G36*
X61502585Y-89078802D02*
G01*
X61652410Y-89108604D01*
X61934674Y-89225521D01*
X62188705Y-89395259D01*
X62404741Y-89611295D01*
X62574479Y-89865326D01*
X62691396Y-90147590D01*
X62697803Y-90179800D01*
X62728063Y-90331925D01*
X62751000Y-90447240D01*
X62751000Y-90752760D01*
X62691396Y-91052410D01*
X62574479Y-91334674D01*
X62404741Y-91588705D01*
X62188705Y-91804741D01*
X61934674Y-91974479D01*
X61652410Y-92091396D01*
X61502585Y-92121198D01*
X61352761Y-92151000D01*
X61047239Y-92151000D01*
X60897415Y-92121198D01*
X60747590Y-92091396D01*
X60465326Y-91974479D01*
X60211295Y-91804741D01*
X59995259Y-91588705D01*
X59825521Y-91334674D01*
X59708604Y-91052410D01*
X59649000Y-90752760D01*
X59649000Y-90447240D01*
X59671938Y-90331925D01*
X59702197Y-90179800D01*
X59708604Y-90147590D01*
X59825521Y-89865326D01*
X59995259Y-89611295D01*
X60211295Y-89395259D01*
X60465326Y-89225521D01*
X60747590Y-89108604D01*
X60897415Y-89078802D01*
X61047239Y-89049000D01*
X61352761Y-89049000D01*
X61502585Y-89078802D01*
G37*
G36*
X29624549Y-89251116D02*
G01*
X29735734Y-89273232D01*
X29945203Y-89359997D01*
X30133720Y-89485960D01*
X30294040Y-89646280D01*
X30390204Y-89790200D01*
X30420004Y-89834799D01*
X30506768Y-90044267D01*
X30551000Y-90266635D01*
X30551000Y-90493365D01*
X30546391Y-90516534D01*
X30506768Y-90715734D01*
X30420003Y-90925203D01*
X30294040Y-91113720D01*
X30133720Y-91274040D01*
X29945203Y-91400003D01*
X29735734Y-91486768D01*
X29695007Y-91494869D01*
X29513365Y-91531000D01*
X29286635Y-91531000D01*
X29104993Y-91494869D01*
X29064266Y-91486768D01*
X28854797Y-91400003D01*
X28666280Y-91274040D01*
X28505960Y-91113720D01*
X28379997Y-90925203D01*
X28293232Y-90715734D01*
X28253609Y-90516534D01*
X28249000Y-90493365D01*
X28249000Y-90266635D01*
X28293232Y-90044267D01*
X28379996Y-89834799D01*
X28409796Y-89790200D01*
X28505960Y-89646280D01*
X28666280Y-89485960D01*
X28854797Y-89359997D01*
X29064266Y-89273232D01*
X29175451Y-89251116D01*
X29286635Y-89229000D01*
X29513365Y-89229000D01*
X29624549Y-89251116D01*
G37*
G36*
X38388674Y-89303465D02*
G01*
X38426367Y-89314899D01*
X38461103Y-89333466D01*
X38491548Y-89358452D01*
X38516534Y-89388897D01*
X38535101Y-89423633D01*
X38546535Y-89461326D01*
X38551000Y-89506661D01*
X38551000Y-90343339D01*
X38546535Y-90388674D01*
X38535101Y-90426367D01*
X38516534Y-90461103D01*
X38491548Y-90491548D01*
X38461103Y-90516534D01*
X38426367Y-90535101D01*
X38388674Y-90546535D01*
X38343339Y-90551000D01*
X37256661Y-90551000D01*
X37211326Y-90546535D01*
X37173633Y-90535101D01*
X37138897Y-90516534D01*
X37108452Y-90491548D01*
X37083466Y-90461103D01*
X37064899Y-90426367D01*
X37053465Y-90388674D01*
X37049000Y-90343339D01*
X37049000Y-89506661D01*
X37053465Y-89461326D01*
X37064899Y-89423633D01*
X37083466Y-89388897D01*
X37108452Y-89358452D01*
X37138897Y-89333466D01*
X37173633Y-89314899D01*
X37211326Y-89303465D01*
X37256661Y-89299000D01*
X38343339Y-89299000D01*
X38388674Y-89303465D01*
G37*
G36*
X43219987Y-89661524D02*
G01*
X43238730Y-89667210D01*
X43255997Y-89676439D01*
X43271136Y-89688864D01*
X43283561Y-89704003D01*
X43292790Y-89721270D01*
X43298476Y-89740013D01*
X43301000Y-89765640D01*
X43301000Y-90204360D01*
X43298476Y-90229987D01*
X43292790Y-90248730D01*
X43283561Y-90265997D01*
X43271136Y-90281136D01*
X43255997Y-90293561D01*
X43238730Y-90302790D01*
X43219987Y-90308476D01*
X43194360Y-90311000D01*
X41305640Y-90311000D01*
X41280013Y-90308476D01*
X41261270Y-90302790D01*
X41244003Y-90293561D01*
X41228864Y-90281136D01*
X41216439Y-90265997D01*
X41207210Y-90248730D01*
X41201524Y-90229987D01*
X41199000Y-90204360D01*
X41199000Y-89765640D01*
X41201524Y-89740013D01*
X41207210Y-89721270D01*
X41216439Y-89704003D01*
X41228864Y-89688864D01*
X41244003Y-89676439D01*
X41261270Y-89667210D01*
X41280013Y-89661524D01*
X41305640Y-89659000D01*
X43194360Y-89659000D01*
X43219987Y-89661524D01*
G37*
G36*
X52519987Y-89661524D02*
G01*
X52538730Y-89667210D01*
X52555997Y-89676439D01*
X52571136Y-89688864D01*
X52583561Y-89704003D01*
X52592790Y-89721270D01*
X52598476Y-89740013D01*
X52601000Y-89765640D01*
X52601000Y-90204360D01*
X52598476Y-90229987D01*
X52592790Y-90248730D01*
X52583561Y-90265997D01*
X52571136Y-90281136D01*
X52555997Y-90293561D01*
X52538730Y-90302790D01*
X52519987Y-90308476D01*
X52494360Y-90311000D01*
X50605640Y-90311000D01*
X50580013Y-90308476D01*
X50561270Y-90302790D01*
X50544003Y-90293561D01*
X50528864Y-90281136D01*
X50516439Y-90265997D01*
X50507210Y-90248730D01*
X50501524Y-90229987D01*
X50499000Y-90204360D01*
X50499000Y-89765640D01*
X50501524Y-89740013D01*
X50507210Y-89721270D01*
X50516439Y-89704003D01*
X50528864Y-89688864D01*
X50544003Y-89676439D01*
X50561270Y-89667210D01*
X50580013Y-89661524D01*
X50605640Y-89659000D01*
X52494360Y-89659000D01*
X52519987Y-89661524D01*
G37*
G36*
X34668257Y-87338897D02*
G01*
X34815734Y-87368232D01*
X35025203Y-87454997D01*
X35213720Y-87580960D01*
X35374040Y-87741280D01*
X35500003Y-87929797D01*
X35586768Y-88139266D01*
X35631000Y-88361636D01*
X35631000Y-88588364D01*
X35586768Y-88810734D01*
X35558905Y-88878000D01*
X35510030Y-88995997D01*
X35500003Y-89020203D01*
X35374040Y-89208720D01*
X35213720Y-89369040D01*
X35025203Y-89495003D01*
X34815734Y-89581768D01*
X34704549Y-89603884D01*
X34593365Y-89626000D01*
X34366635Y-89626000D01*
X34255451Y-89603884D01*
X34144266Y-89581768D01*
X33934797Y-89495003D01*
X33746280Y-89369040D01*
X33585960Y-89208720D01*
X33459997Y-89020203D01*
X33449971Y-88995997D01*
X33401095Y-88878000D01*
X33373232Y-88810734D01*
X33329000Y-88588364D01*
X33329000Y-88361636D01*
X33373232Y-88139266D01*
X33459997Y-87929797D01*
X33585960Y-87741280D01*
X33746280Y-87580960D01*
X33934797Y-87454997D01*
X34144266Y-87368232D01*
X34291743Y-87338897D01*
X34366635Y-87324000D01*
X34593365Y-87324000D01*
X34668257Y-87338897D01*
G37*
G36*
X43219987Y-88391524D02*
G01*
X43238730Y-88397210D01*
X43255997Y-88406439D01*
X43271136Y-88418864D01*
X43283561Y-88434003D01*
X43292790Y-88451270D01*
X43298476Y-88470013D01*
X43301000Y-88495640D01*
X43301000Y-88934360D01*
X43298476Y-88959987D01*
X43292790Y-88978730D01*
X43283561Y-88995997D01*
X43271136Y-89011136D01*
X43255997Y-89023561D01*
X43238730Y-89032790D01*
X43219987Y-89038476D01*
X43194360Y-89041000D01*
X41305640Y-89041000D01*
X41280013Y-89038476D01*
X41261270Y-89032790D01*
X41244003Y-89023561D01*
X41228864Y-89011136D01*
X41216439Y-88995997D01*
X41207210Y-88978730D01*
X41201524Y-88959987D01*
X41199000Y-88934360D01*
X41199000Y-88495640D01*
X41201524Y-88470013D01*
X41207210Y-88451270D01*
X41216439Y-88434003D01*
X41228864Y-88418864D01*
X41244003Y-88406439D01*
X41261270Y-88397210D01*
X41280013Y-88391524D01*
X41305640Y-88389000D01*
X43194360Y-88389000D01*
X43219987Y-88391524D01*
G37*
G36*
X52519987Y-88391524D02*
G01*
X52538730Y-88397210D01*
X52555997Y-88406439D01*
X52571136Y-88418864D01*
X52583561Y-88434003D01*
X52592790Y-88451270D01*
X52598476Y-88470013D01*
X52601000Y-88495640D01*
X52601000Y-88934360D01*
X52598476Y-88959987D01*
X52592790Y-88978730D01*
X52583561Y-88995997D01*
X52571136Y-89011136D01*
X52555997Y-89023561D01*
X52538730Y-89032790D01*
X52519987Y-89038476D01*
X52494360Y-89041000D01*
X50605640Y-89041000D01*
X50580013Y-89038476D01*
X50561270Y-89032790D01*
X50544003Y-89023561D01*
X50528864Y-89011136D01*
X50516439Y-88995997D01*
X50507210Y-88978730D01*
X50501524Y-88959987D01*
X50499000Y-88934360D01*
X50499000Y-88495640D01*
X50501524Y-88470013D01*
X50507210Y-88451270D01*
X50516439Y-88434003D01*
X50528864Y-88418864D01*
X50544003Y-88406439D01*
X50561270Y-88397210D01*
X50580013Y-88391524D01*
X50605640Y-88389000D01*
X52494360Y-88389000D01*
X52519987Y-88391524D01*
G37*
G36*
X25048903Y-84363213D02*
G01*
X25271177Y-84407426D01*
X25689932Y-84580880D01*
X26066802Y-84832696D01*
X26387304Y-85153198D01*
X26639120Y-85530068D01*
X26812574Y-85948823D01*
X26856787Y-86171097D01*
X26901000Y-86393370D01*
X26901000Y-86846630D01*
X26889243Y-86905734D01*
X26812574Y-87291177D01*
X26639120Y-87709932D01*
X26387304Y-88086802D01*
X26066802Y-88407304D01*
X25689932Y-88659120D01*
X25271177Y-88832574D01*
X25048903Y-88876787D01*
X24826630Y-88921000D01*
X24373370Y-88921000D01*
X24151097Y-88876787D01*
X23928823Y-88832574D01*
X23510068Y-88659120D01*
X23133198Y-88407304D01*
X22812696Y-88086802D01*
X22560880Y-87709932D01*
X22387426Y-87291177D01*
X22310757Y-86905734D01*
X22299000Y-86846630D01*
X22299000Y-86393370D01*
X22343213Y-86171097D01*
X22387426Y-85948823D01*
X22560880Y-85530068D01*
X22812696Y-85153198D01*
X23133198Y-84832696D01*
X23510068Y-84580880D01*
X23928823Y-84407426D01*
X24151097Y-84363213D01*
X24373370Y-84319000D01*
X24826630Y-84319000D01*
X25048903Y-84363213D01*
G37*
G36*
X38388674Y-87253465D02*
G01*
X38426367Y-87264899D01*
X38461103Y-87283466D01*
X38491548Y-87308452D01*
X38516534Y-87338897D01*
X38535101Y-87373633D01*
X38546535Y-87411326D01*
X38551000Y-87456661D01*
X38551000Y-88293339D01*
X38546535Y-88338674D01*
X38535101Y-88376367D01*
X38516534Y-88411103D01*
X38491548Y-88441548D01*
X38461103Y-88466534D01*
X38426367Y-88485101D01*
X38388674Y-88496535D01*
X38343339Y-88501000D01*
X37256661Y-88501000D01*
X37211326Y-88496535D01*
X37173633Y-88485101D01*
X37138897Y-88466534D01*
X37108452Y-88441548D01*
X37083466Y-88411103D01*
X37064899Y-88376367D01*
X37053465Y-88338674D01*
X37049000Y-88293339D01*
X37049000Y-87456661D01*
X37053465Y-87411326D01*
X37064899Y-87373633D01*
X37083466Y-87338897D01*
X37108452Y-87308452D01*
X37138897Y-87283466D01*
X37173633Y-87264899D01*
X37211326Y-87253465D01*
X37256661Y-87249000D01*
X38343339Y-87249000D01*
X38388674Y-87253465D01*
G37*
G36*
X52519987Y-87121524D02*
G01*
X52538730Y-87127210D01*
X52555997Y-87136439D01*
X52571136Y-87148864D01*
X52583561Y-87164003D01*
X52592790Y-87181270D01*
X52598476Y-87200013D01*
X52601000Y-87225640D01*
X52601000Y-87664360D01*
X52598476Y-87689987D01*
X52592790Y-87708730D01*
X52583561Y-87725997D01*
X52571136Y-87741136D01*
X52555997Y-87753561D01*
X52538730Y-87762790D01*
X52519987Y-87768476D01*
X52494360Y-87771000D01*
X50605640Y-87771000D01*
X50580013Y-87768476D01*
X50561270Y-87762790D01*
X50544003Y-87753561D01*
X50528864Y-87741136D01*
X50516439Y-87725997D01*
X50507210Y-87708730D01*
X50501524Y-87689987D01*
X50499000Y-87664360D01*
X50499000Y-87225640D01*
X50501524Y-87200013D01*
X50507210Y-87181270D01*
X50516439Y-87164003D01*
X50528864Y-87148864D01*
X50544003Y-87136439D01*
X50561270Y-87127210D01*
X50580013Y-87121524D01*
X50605640Y-87119000D01*
X52494360Y-87119000D01*
X52519987Y-87121524D01*
G37*
G36*
X43219987Y-87121524D02*
G01*
X43238730Y-87127210D01*
X43255997Y-87136439D01*
X43271136Y-87148864D01*
X43283561Y-87164003D01*
X43292790Y-87181270D01*
X43298476Y-87200013D01*
X43301000Y-87225640D01*
X43301000Y-87664360D01*
X43298476Y-87689987D01*
X43292790Y-87708730D01*
X43283561Y-87725997D01*
X43271136Y-87741136D01*
X43255997Y-87753561D01*
X43238730Y-87762790D01*
X43219987Y-87768476D01*
X43194360Y-87771000D01*
X41305640Y-87771000D01*
X41280013Y-87768476D01*
X41261270Y-87762790D01*
X41244003Y-87753561D01*
X41228864Y-87741136D01*
X41216439Y-87725997D01*
X41207210Y-87708730D01*
X41201524Y-87689987D01*
X41199000Y-87664360D01*
X41199000Y-87225640D01*
X41201524Y-87200013D01*
X41207210Y-87181270D01*
X41216439Y-87164003D01*
X41228864Y-87148864D01*
X41244003Y-87136439D01*
X41261270Y-87127210D01*
X41280013Y-87121524D01*
X41305640Y-87119000D01*
X43194360Y-87119000D01*
X43219987Y-87121524D01*
G37*
G36*
X29624549Y-85441116D02*
G01*
X29735734Y-85463232D01*
X29945203Y-85549997D01*
X30133720Y-85675960D01*
X30294040Y-85836280D01*
X30420003Y-86024797D01*
X30506768Y-86234266D01*
X30527402Y-86338000D01*
X30551000Y-86456635D01*
X30551000Y-86683365D01*
X30540709Y-86735101D01*
X30506768Y-86905734D01*
X30420003Y-87115203D01*
X30294040Y-87303720D01*
X30133720Y-87464040D01*
X29945203Y-87590003D01*
X29945202Y-87590004D01*
X29945201Y-87590004D01*
X29883850Y-87615416D01*
X29735734Y-87676768D01*
X29669277Y-87689987D01*
X29513365Y-87721000D01*
X29286635Y-87721000D01*
X29130723Y-87689987D01*
X29064266Y-87676768D01*
X28916150Y-87615416D01*
X28854799Y-87590004D01*
X28854798Y-87590004D01*
X28854797Y-87590003D01*
X28666280Y-87464040D01*
X28505960Y-87303720D01*
X28379997Y-87115203D01*
X28293232Y-86905734D01*
X28259291Y-86735101D01*
X28249000Y-86683365D01*
X28249000Y-86456635D01*
X28272598Y-86338000D01*
X28293232Y-86234266D01*
X28379997Y-86024797D01*
X28505960Y-85836280D01*
X28666280Y-85675960D01*
X28854797Y-85549997D01*
X29064266Y-85463232D01*
X29175451Y-85441116D01*
X29286635Y-85419000D01*
X29513365Y-85419000D01*
X29624549Y-85441116D01*
G37*
G36*
X69053942Y-85217017D02*
G01*
X69185734Y-85243232D01*
X69395203Y-85329997D01*
X69583720Y-85455960D01*
X69744040Y-85616280D01*
X69870003Y-85804797D01*
X69870004Y-85804799D01*
X69883044Y-85836280D01*
X69929661Y-85948823D01*
X69956768Y-86014267D01*
X70001000Y-86236635D01*
X70001000Y-86463365D01*
X69984456Y-86546535D01*
X69956768Y-86685734D01*
X69870003Y-86895203D01*
X69744040Y-87083720D01*
X69583720Y-87244040D01*
X69395203Y-87370003D01*
X69395202Y-87370004D01*
X69395201Y-87370004D01*
X69333850Y-87395416D01*
X69185734Y-87456768D01*
X69074549Y-87478884D01*
X68963365Y-87501000D01*
X68736635Y-87501000D01*
X68625451Y-87478884D01*
X68514266Y-87456768D01*
X68366150Y-87395416D01*
X68304799Y-87370004D01*
X68304798Y-87370004D01*
X68304797Y-87370003D01*
X68116280Y-87244040D01*
X67955960Y-87083720D01*
X67829997Y-86895203D01*
X67743232Y-86685734D01*
X67715544Y-86546535D01*
X67699000Y-86463365D01*
X67699000Y-86236635D01*
X67743232Y-86014267D01*
X67770340Y-85948823D01*
X67816956Y-85836280D01*
X67829996Y-85804799D01*
X67829997Y-85804797D01*
X67955960Y-85616280D01*
X68116280Y-85455960D01*
X68304797Y-85329997D01*
X68514266Y-85243232D01*
X68646058Y-85217017D01*
X68736635Y-85199000D01*
X68963365Y-85199000D01*
X69053942Y-85217017D01*
G37*
G36*
X38388674Y-85503465D02*
G01*
X38426367Y-85514899D01*
X38461103Y-85533466D01*
X38491548Y-85558452D01*
X38516534Y-85588897D01*
X38535101Y-85623633D01*
X38546535Y-85661326D01*
X38551000Y-85706661D01*
X38551000Y-86543339D01*
X38546535Y-86588674D01*
X38535101Y-86626367D01*
X38516534Y-86661103D01*
X38491548Y-86691548D01*
X38461103Y-86716534D01*
X38426367Y-86735101D01*
X38388674Y-86746535D01*
X38343339Y-86751000D01*
X37256661Y-86751000D01*
X37211326Y-86746535D01*
X37173633Y-86735101D01*
X37138897Y-86716534D01*
X37108452Y-86691548D01*
X37083466Y-86661103D01*
X37064899Y-86626367D01*
X37053465Y-86588674D01*
X37049000Y-86543339D01*
X37049000Y-85706661D01*
X37053465Y-85661326D01*
X37064899Y-85623633D01*
X37083466Y-85588897D01*
X37108452Y-85558452D01*
X37138897Y-85533466D01*
X37173633Y-85514899D01*
X37211326Y-85503465D01*
X37256661Y-85499000D01*
X38343339Y-85499000D01*
X38388674Y-85503465D01*
G37*
G36*
X57588674Y-85053465D02*
G01*
X57626367Y-85064899D01*
X57661103Y-85083466D01*
X57691548Y-85108452D01*
X57716534Y-85138897D01*
X57735101Y-85173633D01*
X57746535Y-85211326D01*
X57751000Y-85256661D01*
X57751000Y-86343339D01*
X57746535Y-86388674D01*
X57735101Y-86426367D01*
X57716534Y-86461103D01*
X57691548Y-86491548D01*
X57661103Y-86516534D01*
X57626367Y-86535101D01*
X57588674Y-86546535D01*
X57543339Y-86551000D01*
X56706661Y-86551000D01*
X56661326Y-86546535D01*
X56623633Y-86535101D01*
X56588897Y-86516534D01*
X56558452Y-86491548D01*
X56533466Y-86461103D01*
X56514899Y-86426367D01*
X56503465Y-86388674D01*
X56499000Y-86343339D01*
X56499000Y-85256661D01*
X56503465Y-85211326D01*
X56514899Y-85173633D01*
X56533466Y-85138897D01*
X56558452Y-85108452D01*
X56588897Y-85083466D01*
X56623633Y-85064899D01*
X56661326Y-85053465D01*
X56706661Y-85049000D01*
X57543339Y-85049000D01*
X57588674Y-85053465D01*
G37*
G36*
X55538674Y-85053465D02*
G01*
X55576367Y-85064899D01*
X55611103Y-85083466D01*
X55641548Y-85108452D01*
X55666534Y-85138897D01*
X55685101Y-85173633D01*
X55696535Y-85211326D01*
X55701000Y-85256661D01*
X55701000Y-86343339D01*
X55696535Y-86388674D01*
X55685101Y-86426367D01*
X55666534Y-86461103D01*
X55641548Y-86491548D01*
X55611103Y-86516534D01*
X55576367Y-86535101D01*
X55538674Y-86546535D01*
X55493339Y-86551000D01*
X54656661Y-86551000D01*
X54611326Y-86546535D01*
X54573633Y-86535101D01*
X54538897Y-86516534D01*
X54508452Y-86491548D01*
X54483466Y-86461103D01*
X54464899Y-86426367D01*
X54453465Y-86388674D01*
X54449000Y-86343339D01*
X54449000Y-85256661D01*
X54453465Y-85211326D01*
X54464899Y-85173633D01*
X54483466Y-85138897D01*
X54508452Y-85108452D01*
X54538897Y-85083466D01*
X54573633Y-85064899D01*
X54611326Y-85053465D01*
X54656661Y-85049000D01*
X55493339Y-85049000D01*
X55538674Y-85053465D01*
G37*
G36*
X43219987Y-85851524D02*
G01*
X43238730Y-85857210D01*
X43255997Y-85866439D01*
X43271136Y-85878864D01*
X43283561Y-85894003D01*
X43292790Y-85911270D01*
X43298476Y-85930013D01*
X43301000Y-85955640D01*
X43301000Y-86394360D01*
X43298476Y-86419987D01*
X43292790Y-86438730D01*
X43283561Y-86455997D01*
X43271136Y-86471136D01*
X43255997Y-86483561D01*
X43238730Y-86492790D01*
X43219987Y-86498476D01*
X43194360Y-86501000D01*
X41305640Y-86501000D01*
X41280013Y-86498476D01*
X41261270Y-86492790D01*
X41244003Y-86483561D01*
X41228864Y-86471136D01*
X41216439Y-86455997D01*
X41207210Y-86438730D01*
X41201524Y-86419987D01*
X41199000Y-86394360D01*
X41199000Y-85955640D01*
X41201524Y-85930013D01*
X41207210Y-85911270D01*
X41216439Y-85894003D01*
X41228864Y-85878864D01*
X41244003Y-85866439D01*
X41261270Y-85857210D01*
X41280013Y-85851524D01*
X41305640Y-85849000D01*
X43194360Y-85849000D01*
X43219987Y-85851524D01*
G37*
G36*
X52519987Y-85851524D02*
G01*
X52538730Y-85857210D01*
X52555997Y-85866439D01*
X52571136Y-85878864D01*
X52583561Y-85894003D01*
X52592790Y-85911270D01*
X52598476Y-85930013D01*
X52601000Y-85955640D01*
X52601000Y-86394360D01*
X52598476Y-86419987D01*
X52592790Y-86438730D01*
X52583561Y-86455997D01*
X52571136Y-86471136D01*
X52555997Y-86483561D01*
X52538730Y-86492790D01*
X52519987Y-86498476D01*
X52494360Y-86501000D01*
X50605640Y-86501000D01*
X50580013Y-86498476D01*
X50561270Y-86492790D01*
X50544003Y-86483561D01*
X50528864Y-86471136D01*
X50516439Y-86455997D01*
X50507210Y-86438730D01*
X50501524Y-86419987D01*
X50499000Y-86394360D01*
X50499000Y-85955640D01*
X50501524Y-85930013D01*
X50507210Y-85911270D01*
X50516439Y-85894003D01*
X50528864Y-85878864D01*
X50544003Y-85866439D01*
X50561270Y-85857210D01*
X50580013Y-85851524D01*
X50605640Y-85849000D01*
X52494360Y-85849000D01*
X52519987Y-85851524D01*
G37*
G36*
X34667357Y-83528718D02*
G01*
X34815734Y-83558232D01*
X35025203Y-83644997D01*
X35213720Y-83770960D01*
X35374040Y-83931280D01*
X35500003Y-84119797D01*
X35586768Y-84329266D01*
X35631000Y-84551636D01*
X35631000Y-84778364D01*
X35586768Y-85000734D01*
X35564926Y-85053465D01*
X35504644Y-85199000D01*
X35500003Y-85210203D01*
X35374040Y-85398720D01*
X35213720Y-85559040D01*
X35025203Y-85685003D01*
X34815734Y-85771768D01*
X34704549Y-85793884D01*
X34593365Y-85816000D01*
X34366635Y-85816000D01*
X34255451Y-85793884D01*
X34144266Y-85771768D01*
X33934797Y-85685003D01*
X33746280Y-85559040D01*
X33585960Y-85398720D01*
X33459997Y-85210203D01*
X33455357Y-85199000D01*
X33395074Y-85053465D01*
X33373232Y-85000734D01*
X33329000Y-84778364D01*
X33329000Y-84551636D01*
X33373232Y-84329266D01*
X33459997Y-84119797D01*
X33585960Y-83931280D01*
X33746280Y-83770960D01*
X33934797Y-83644997D01*
X34144266Y-83558232D01*
X34292643Y-83528718D01*
X34366635Y-83514000D01*
X34593365Y-83514000D01*
X34667357Y-83528718D01*
G37*
G36*
X52519987Y-84581524D02*
G01*
X52538730Y-84587210D01*
X52555997Y-84596439D01*
X52571136Y-84608864D01*
X52583561Y-84624003D01*
X52592790Y-84641270D01*
X52598476Y-84660013D01*
X52601000Y-84685640D01*
X52601000Y-85124360D01*
X52598476Y-85149987D01*
X52592790Y-85168730D01*
X52583561Y-85185997D01*
X52571136Y-85201136D01*
X52555997Y-85213561D01*
X52538730Y-85222790D01*
X52519987Y-85228476D01*
X52494360Y-85231000D01*
X50605640Y-85231000D01*
X50580013Y-85228476D01*
X50561270Y-85222790D01*
X50544003Y-85213561D01*
X50528864Y-85201136D01*
X50516439Y-85185997D01*
X50507210Y-85168730D01*
X50501524Y-85149987D01*
X50499000Y-85124360D01*
X50499000Y-84685640D01*
X50501524Y-84660013D01*
X50507210Y-84641270D01*
X50516439Y-84624003D01*
X50528864Y-84608864D01*
X50544003Y-84596439D01*
X50561270Y-84587210D01*
X50580013Y-84581524D01*
X50605640Y-84579000D01*
X52494360Y-84579000D01*
X52519987Y-84581524D01*
G37*
G36*
X43219987Y-84581524D02*
G01*
X43238730Y-84587210D01*
X43255997Y-84596439D01*
X43271136Y-84608864D01*
X43283561Y-84624003D01*
X43292790Y-84641270D01*
X43298476Y-84660013D01*
X43301000Y-84685640D01*
X43301000Y-85124360D01*
X43298476Y-85149987D01*
X43292790Y-85168730D01*
X43283561Y-85185997D01*
X43271136Y-85201136D01*
X43255997Y-85213561D01*
X43238730Y-85222790D01*
X43219987Y-85228476D01*
X43194360Y-85231000D01*
X41305640Y-85231000D01*
X41280013Y-85228476D01*
X41261270Y-85222790D01*
X41244003Y-85213561D01*
X41228864Y-85201136D01*
X41216439Y-85185997D01*
X41207210Y-85168730D01*
X41201524Y-85149987D01*
X41199000Y-85124360D01*
X41199000Y-84685640D01*
X41201524Y-84660013D01*
X41207210Y-84641270D01*
X41216439Y-84624003D01*
X41228864Y-84608864D01*
X41244003Y-84596439D01*
X41261270Y-84587210D01*
X41280013Y-84581524D01*
X41305640Y-84579000D01*
X43194360Y-84579000D01*
X43219987Y-84581524D01*
G37*
G36*
X38388674Y-83453465D02*
G01*
X38426367Y-83464899D01*
X38461103Y-83483466D01*
X38491548Y-83508452D01*
X38516534Y-83538897D01*
X38535101Y-83573633D01*
X38546535Y-83611326D01*
X38551000Y-83656661D01*
X38551000Y-84493339D01*
X38546535Y-84538674D01*
X38535101Y-84576367D01*
X38516534Y-84611103D01*
X38491548Y-84641548D01*
X38461103Y-84666534D01*
X38426367Y-84685101D01*
X38388674Y-84696535D01*
X38343339Y-84701000D01*
X37256661Y-84701000D01*
X37211326Y-84696535D01*
X37173633Y-84685101D01*
X37138897Y-84666534D01*
X37108452Y-84641548D01*
X37083466Y-84611103D01*
X37064899Y-84576367D01*
X37053465Y-84538674D01*
X37049000Y-84493339D01*
X37049000Y-83656661D01*
X37053465Y-83611326D01*
X37064899Y-83573633D01*
X37083466Y-83538897D01*
X37108452Y-83508452D01*
X37138897Y-83483466D01*
X37173633Y-83464899D01*
X37211326Y-83453465D01*
X37256661Y-83449000D01*
X38343339Y-83449000D01*
X38388674Y-83453465D01*
G37*
G36*
X67060443Y-82455519D02*
G01*
X67126627Y-82462037D01*
X67296466Y-82513557D01*
X67452991Y-82597222D01*
X67468545Y-82609987D01*
X67590186Y-82709814D01*
X67673448Y-82811271D01*
X67702778Y-82847009D01*
X67786443Y-83003534D01*
X67837963Y-83173373D01*
X67855359Y-83350000D01*
X67837963Y-83526627D01*
X67786443Y-83696466D01*
X67702778Y-83852991D01*
X67701654Y-83854360D01*
X67590186Y-83990186D01*
X67488729Y-84073448D01*
X67452991Y-84102778D01*
X67296466Y-84186443D01*
X67126627Y-84237963D01*
X67060442Y-84244482D01*
X66994260Y-84251000D01*
X65205740Y-84251000D01*
X65139558Y-84244482D01*
X65073373Y-84237963D01*
X64903534Y-84186443D01*
X64747009Y-84102778D01*
X64711271Y-84073448D01*
X64609814Y-83990186D01*
X64498346Y-83854360D01*
X64497222Y-83852991D01*
X64413557Y-83696466D01*
X64362037Y-83526627D01*
X64344641Y-83350000D01*
X64362037Y-83173373D01*
X64413557Y-83003534D01*
X64497222Y-82847009D01*
X64526552Y-82811271D01*
X64609814Y-82709814D01*
X64731455Y-82609987D01*
X64747009Y-82597222D01*
X64903534Y-82513557D01*
X65073373Y-82462037D01*
X65139557Y-82455519D01*
X65205740Y-82449000D01*
X66994260Y-82449000D01*
X67060443Y-82455519D01*
G37*
G36*
X52519987Y-83311524D02*
G01*
X52538730Y-83317210D01*
X52555997Y-83326439D01*
X52571136Y-83338864D01*
X52583561Y-83354003D01*
X52592790Y-83371270D01*
X52598476Y-83390013D01*
X52601000Y-83415640D01*
X52601000Y-83854360D01*
X52598476Y-83879987D01*
X52592790Y-83898730D01*
X52583561Y-83915997D01*
X52571136Y-83931136D01*
X52555997Y-83943561D01*
X52538730Y-83952790D01*
X52519987Y-83958476D01*
X52494360Y-83961000D01*
X50605640Y-83961000D01*
X50580013Y-83958476D01*
X50561270Y-83952790D01*
X50544003Y-83943561D01*
X50528864Y-83931136D01*
X50516439Y-83915997D01*
X50507210Y-83898730D01*
X50501524Y-83879987D01*
X50499000Y-83854360D01*
X50499000Y-83415640D01*
X50501524Y-83390013D01*
X50507210Y-83371270D01*
X50516439Y-83354003D01*
X50528864Y-83338864D01*
X50544003Y-83326439D01*
X50561270Y-83317210D01*
X50580013Y-83311524D01*
X50605640Y-83309000D01*
X52494360Y-83309000D01*
X52519987Y-83311524D01*
G37*
G36*
X43219987Y-83311524D02*
G01*
X43238730Y-83317210D01*
X43255997Y-83326439D01*
X43271136Y-83338864D01*
X43283561Y-83354003D01*
X43292790Y-83371270D01*
X43298476Y-83390013D01*
X43301000Y-83415640D01*
X43301000Y-83854360D01*
X43298476Y-83879987D01*
X43292790Y-83898730D01*
X43283561Y-83915997D01*
X43271136Y-83931136D01*
X43255997Y-83943561D01*
X43238730Y-83952790D01*
X43219987Y-83958476D01*
X43194360Y-83961000D01*
X41305640Y-83961000D01*
X41280013Y-83958476D01*
X41261270Y-83952790D01*
X41244003Y-83943561D01*
X41228864Y-83931136D01*
X41216439Y-83915997D01*
X41207210Y-83898730D01*
X41201524Y-83879987D01*
X41199000Y-83854360D01*
X41199000Y-83415640D01*
X41201524Y-83390013D01*
X41207210Y-83371270D01*
X41216439Y-83354003D01*
X41228864Y-83338864D01*
X41244003Y-83326439D01*
X41261270Y-83317210D01*
X41280013Y-83311524D01*
X41305640Y-83309000D01*
X43194360Y-83309000D01*
X43219987Y-83311524D01*
G37*
G36*
X29624549Y-81631116D02*
G01*
X29735734Y-81653232D01*
X29945203Y-81739997D01*
X30133720Y-81865960D01*
X30294040Y-82026280D01*
X30390204Y-82170200D01*
X30420004Y-82214799D01*
X30506768Y-82424267D01*
X30539810Y-82590377D01*
X30551000Y-82646636D01*
X30551000Y-82873364D01*
X30506768Y-83095734D01*
X30420003Y-83305203D01*
X30294040Y-83493720D01*
X30133720Y-83654040D01*
X29945203Y-83780003D01*
X29945202Y-83780004D01*
X29945201Y-83780004D01*
X29883850Y-83805416D01*
X29735734Y-83866768D01*
X29669277Y-83879987D01*
X29513365Y-83911000D01*
X29286635Y-83911000D01*
X29130723Y-83879987D01*
X29064266Y-83866768D01*
X28916150Y-83805416D01*
X28854799Y-83780004D01*
X28854798Y-83780004D01*
X28854797Y-83780003D01*
X28666280Y-83654040D01*
X28505960Y-83493720D01*
X28379997Y-83305203D01*
X28293232Y-83095734D01*
X28249000Y-82873364D01*
X28249000Y-82646636D01*
X28260191Y-82590377D01*
X28293232Y-82424267D01*
X28379996Y-82214799D01*
X28409796Y-82170200D01*
X28505960Y-82026280D01*
X28666280Y-81865960D01*
X28854797Y-81739997D01*
X29064266Y-81653232D01*
X29175451Y-81631116D01*
X29286635Y-81609000D01*
X29513365Y-81609000D01*
X29624549Y-81631116D01*
G37*
G36*
X38388674Y-81703465D02*
G01*
X38426367Y-81714899D01*
X38461103Y-81733466D01*
X38491548Y-81758452D01*
X38516534Y-81788897D01*
X38535101Y-81823633D01*
X38546535Y-81861326D01*
X38551000Y-81906661D01*
X38551000Y-82743339D01*
X38546535Y-82788674D01*
X38535101Y-82826367D01*
X38516534Y-82861103D01*
X38491548Y-82891548D01*
X38461103Y-82916534D01*
X38426367Y-82935101D01*
X38388674Y-82946535D01*
X38343339Y-82951000D01*
X37256661Y-82951000D01*
X37211326Y-82946535D01*
X37173633Y-82935101D01*
X37138897Y-82916534D01*
X37108452Y-82891548D01*
X37083466Y-82861103D01*
X37064899Y-82826367D01*
X37053465Y-82788674D01*
X37049000Y-82743339D01*
X37049000Y-81906661D01*
X37053465Y-81861326D01*
X37064899Y-81823633D01*
X37083466Y-81788897D01*
X37108452Y-81758452D01*
X37138897Y-81733466D01*
X37173633Y-81714899D01*
X37211326Y-81703465D01*
X37256661Y-81699000D01*
X38343339Y-81699000D01*
X38388674Y-81703465D01*
G37*
G36*
X52519987Y-82041524D02*
G01*
X52538730Y-82047210D01*
X52555997Y-82056439D01*
X52571136Y-82068864D01*
X52583561Y-82084003D01*
X52592790Y-82101270D01*
X52598476Y-82120013D01*
X52601000Y-82145640D01*
X52601000Y-82584360D01*
X52598476Y-82609987D01*
X52592790Y-82628730D01*
X52583561Y-82645997D01*
X52571136Y-82661136D01*
X52555997Y-82673561D01*
X52538730Y-82682790D01*
X52519987Y-82688476D01*
X52494360Y-82691000D01*
X50605640Y-82691000D01*
X50580013Y-82688476D01*
X50561270Y-82682790D01*
X50544003Y-82673561D01*
X50528864Y-82661136D01*
X50516439Y-82645997D01*
X50507210Y-82628730D01*
X50501524Y-82609987D01*
X50499000Y-82584360D01*
X50499000Y-82145640D01*
X50501524Y-82120013D01*
X50507210Y-82101270D01*
X50516439Y-82084003D01*
X50528864Y-82068864D01*
X50544003Y-82056439D01*
X50561270Y-82047210D01*
X50580013Y-82041524D01*
X50605640Y-82039000D01*
X52494360Y-82039000D01*
X52519987Y-82041524D01*
G37*
G36*
X43219987Y-82041524D02*
G01*
X43238730Y-82047210D01*
X43255997Y-82056439D01*
X43271136Y-82068864D01*
X43283561Y-82084003D01*
X43292790Y-82101270D01*
X43298476Y-82120013D01*
X43301000Y-82145640D01*
X43301000Y-82584360D01*
X43298476Y-82609987D01*
X43292790Y-82628730D01*
X43283561Y-82645997D01*
X43271136Y-82661136D01*
X43255997Y-82673561D01*
X43238730Y-82682790D01*
X43219987Y-82688476D01*
X43194360Y-82691000D01*
X41305640Y-82691000D01*
X41280013Y-82688476D01*
X41261270Y-82682790D01*
X41244003Y-82673561D01*
X41228864Y-82661136D01*
X41216439Y-82645997D01*
X41207210Y-82628730D01*
X41201524Y-82609987D01*
X41199000Y-82584360D01*
X41199000Y-82145640D01*
X41201524Y-82120013D01*
X41207210Y-82101270D01*
X41216439Y-82084003D01*
X41228864Y-82068864D01*
X41244003Y-82056439D01*
X41261270Y-82047210D01*
X41280013Y-82041524D01*
X41305640Y-82039000D01*
X43194360Y-82039000D01*
X43219987Y-82041524D01*
G37*
G36*
X57588674Y-81053465D02*
G01*
X57626367Y-81064899D01*
X57661103Y-81083466D01*
X57691548Y-81108452D01*
X57716534Y-81138897D01*
X57735101Y-81173633D01*
X57746535Y-81211326D01*
X57751000Y-81256661D01*
X57751000Y-82343339D01*
X57746535Y-82388674D01*
X57735101Y-82426367D01*
X57716534Y-82461103D01*
X57691548Y-82491548D01*
X57661103Y-82516534D01*
X57626367Y-82535101D01*
X57588674Y-82546535D01*
X57543339Y-82551000D01*
X56706661Y-82551000D01*
X56661326Y-82546535D01*
X56623633Y-82535101D01*
X56588897Y-82516534D01*
X56558452Y-82491548D01*
X56533466Y-82461103D01*
X56514899Y-82426367D01*
X56503465Y-82388674D01*
X56499000Y-82343339D01*
X56499000Y-81256661D01*
X56503465Y-81211326D01*
X56514899Y-81173633D01*
X56533466Y-81138897D01*
X56558452Y-81108452D01*
X56588897Y-81083466D01*
X56623633Y-81064899D01*
X56661326Y-81053465D01*
X56706661Y-81049000D01*
X57543339Y-81049000D01*
X57588674Y-81053465D01*
G37*
G36*
X55538674Y-81053465D02*
G01*
X55576367Y-81064899D01*
X55611103Y-81083466D01*
X55641548Y-81108452D01*
X55666534Y-81138897D01*
X55685101Y-81173633D01*
X55696535Y-81211326D01*
X55701000Y-81256661D01*
X55701000Y-82343339D01*
X55696535Y-82388674D01*
X55685101Y-82426367D01*
X55666534Y-82461103D01*
X55641548Y-82491548D01*
X55611103Y-82516534D01*
X55576367Y-82535101D01*
X55538674Y-82546535D01*
X55493339Y-82551000D01*
X54656661Y-82551000D01*
X54611326Y-82546535D01*
X54573633Y-82535101D01*
X54538897Y-82516534D01*
X54508452Y-82491548D01*
X54483466Y-82461103D01*
X54464899Y-82426367D01*
X54453465Y-82388674D01*
X54449000Y-82343339D01*
X54449000Y-81256661D01*
X54453465Y-81211326D01*
X54464899Y-81173633D01*
X54483466Y-81138897D01*
X54508452Y-81108452D01*
X54538897Y-81083466D01*
X54573633Y-81064899D01*
X54611326Y-81053465D01*
X54656661Y-81049000D01*
X55493339Y-81049000D01*
X55538674Y-81053465D01*
G37*
G36*
X34704549Y-79726116D02*
G01*
X34815734Y-79748232D01*
X34963850Y-79809584D01*
X35008862Y-79828228D01*
X35025203Y-79834997D01*
X35213720Y-79960960D01*
X35374040Y-80121280D01*
X35500003Y-80309797D01*
X35586768Y-80519266D01*
X35631000Y-80741636D01*
X35631000Y-80968364D01*
X35586768Y-81190734D01*
X35575881Y-81217017D01*
X35510030Y-81375997D01*
X35500003Y-81400203D01*
X35374040Y-81588720D01*
X35213720Y-81749040D01*
X35025203Y-81875003D01*
X34815734Y-81961768D01*
X34704549Y-81983884D01*
X34593365Y-82006000D01*
X34366635Y-82006000D01*
X34255451Y-81983884D01*
X34144266Y-81961768D01*
X33934797Y-81875003D01*
X33746280Y-81749040D01*
X33585960Y-81588720D01*
X33459997Y-81400203D01*
X33449971Y-81375997D01*
X33384119Y-81217017D01*
X33373232Y-81190734D01*
X33329000Y-80968364D01*
X33329000Y-80741636D01*
X33373232Y-80519266D01*
X33459997Y-80309797D01*
X33585960Y-80121280D01*
X33746280Y-79960960D01*
X33934797Y-79834997D01*
X33951139Y-79828228D01*
X33996150Y-79809584D01*
X34144266Y-79748232D01*
X34255451Y-79726116D01*
X34366635Y-79704000D01*
X34593365Y-79704000D01*
X34704549Y-79726116D01*
G37*
G36*
X52519987Y-80771524D02*
G01*
X52538730Y-80777210D01*
X52555997Y-80786439D01*
X52571136Y-80798864D01*
X52583561Y-80814003D01*
X52592790Y-80831270D01*
X52598476Y-80850013D01*
X52601000Y-80875640D01*
X52601000Y-81314360D01*
X52598476Y-81339987D01*
X52592790Y-81358730D01*
X52583561Y-81375997D01*
X52571136Y-81391136D01*
X52555997Y-81403561D01*
X52538730Y-81412790D01*
X52519987Y-81418476D01*
X52494360Y-81421000D01*
X50605640Y-81421000D01*
X50580013Y-81418476D01*
X50561270Y-81412790D01*
X50544003Y-81403561D01*
X50528864Y-81391136D01*
X50516439Y-81375997D01*
X50507210Y-81358730D01*
X50501524Y-81339987D01*
X50499000Y-81314360D01*
X50499000Y-80875640D01*
X50501524Y-80850013D01*
X50507210Y-80831270D01*
X50516439Y-80814003D01*
X50528864Y-80798864D01*
X50544003Y-80786439D01*
X50561270Y-80777210D01*
X50580013Y-80771524D01*
X50605640Y-80769000D01*
X52494360Y-80769000D01*
X52519987Y-80771524D01*
G37*
G36*
X43219987Y-80771524D02*
G01*
X43238730Y-80777210D01*
X43255997Y-80786439D01*
X43271136Y-80798864D01*
X43283561Y-80814003D01*
X43292790Y-80831270D01*
X43298476Y-80850013D01*
X43301000Y-80875640D01*
X43301000Y-81314360D01*
X43298476Y-81339987D01*
X43292790Y-81358730D01*
X43283561Y-81375997D01*
X43271136Y-81391136D01*
X43255997Y-81403561D01*
X43238730Y-81412790D01*
X43219987Y-81418476D01*
X43194360Y-81421000D01*
X41305640Y-81421000D01*
X41280013Y-81418476D01*
X41261270Y-81412790D01*
X41244003Y-81403561D01*
X41228864Y-81391136D01*
X41216439Y-81375997D01*
X41207210Y-81358730D01*
X41201524Y-81339987D01*
X41199000Y-81314360D01*
X41199000Y-80875640D01*
X41201524Y-80850013D01*
X41207210Y-80831270D01*
X41216439Y-80814003D01*
X41228864Y-80798864D01*
X41244003Y-80786439D01*
X41261270Y-80777210D01*
X41280013Y-80771524D01*
X41305640Y-80769000D01*
X43194360Y-80769000D01*
X43219987Y-80771524D01*
G37*
G36*
X38388674Y-79653465D02*
G01*
X38426367Y-79664899D01*
X38461103Y-79683466D01*
X38491548Y-79708452D01*
X38516534Y-79738897D01*
X38535101Y-79773633D01*
X38546535Y-79811326D01*
X38551000Y-79856661D01*
X38551000Y-80693339D01*
X38546535Y-80738674D01*
X38535101Y-80776367D01*
X38516534Y-80811103D01*
X38491548Y-80841548D01*
X38461103Y-80866534D01*
X38426367Y-80885101D01*
X38388674Y-80896535D01*
X38343339Y-80901000D01*
X37256661Y-80901000D01*
X37211326Y-80896535D01*
X37173633Y-80885101D01*
X37138897Y-80866534D01*
X37108452Y-80841548D01*
X37083466Y-80811103D01*
X37064899Y-80776367D01*
X37053465Y-80738674D01*
X37049000Y-80693339D01*
X37049000Y-79856661D01*
X37053465Y-79811326D01*
X37064899Y-79773633D01*
X37083466Y-79738897D01*
X37108452Y-79708452D01*
X37138897Y-79683466D01*
X37173633Y-79664899D01*
X37211326Y-79653465D01*
X37256661Y-79649000D01*
X38343339Y-79649000D01*
X38388674Y-79653465D01*
G37*
G36*
X60741200Y-79258295D02*
G01*
X60820225Y-79274014D01*
X60877138Y-79297588D01*
X60957626Y-79330927D01*
X61081284Y-79413553D01*
X61186447Y-79518716D01*
X61269073Y-79642374D01*
X61325986Y-79779776D01*
X61355000Y-79925638D01*
X61355000Y-80074362D01*
X61325986Y-80220224D01*
X61269073Y-80357626D01*
X61186447Y-80481284D01*
X61081284Y-80586447D01*
X60957626Y-80669073D01*
X60899042Y-80693339D01*
X60820225Y-80725986D01*
X60756438Y-80738674D01*
X60674362Y-80755000D01*
X60525638Y-80755000D01*
X60443562Y-80738674D01*
X60379775Y-80725986D01*
X60300958Y-80693339D01*
X60242374Y-80669073D01*
X60118716Y-80586447D01*
X60013553Y-80481284D01*
X59930927Y-80357626D01*
X59874014Y-80220224D01*
X59845000Y-80074362D01*
X59845000Y-79925638D01*
X59874014Y-79779776D01*
X59930927Y-79642374D01*
X60013553Y-79518716D01*
X60118716Y-79413553D01*
X60242374Y-79330927D01*
X60322862Y-79297588D01*
X60379775Y-79274014D01*
X60458800Y-79258295D01*
X60525638Y-79245000D01*
X60674362Y-79245000D01*
X60741200Y-79258295D01*
G37*
G36*
X63241200Y-79258295D02*
G01*
X63320225Y-79274014D01*
X63377138Y-79297588D01*
X63457626Y-79330927D01*
X63581284Y-79413553D01*
X63686447Y-79518716D01*
X63769073Y-79642374D01*
X63825986Y-79779776D01*
X63855000Y-79925638D01*
X63855000Y-80074362D01*
X63825986Y-80220224D01*
X63769073Y-80357626D01*
X63686447Y-80481284D01*
X63581284Y-80586447D01*
X63457626Y-80669073D01*
X63399042Y-80693339D01*
X63320225Y-80725986D01*
X63256438Y-80738674D01*
X63174362Y-80755000D01*
X63025638Y-80755000D01*
X62943562Y-80738674D01*
X62879775Y-80725986D01*
X62800958Y-80693339D01*
X62742374Y-80669073D01*
X62618716Y-80586447D01*
X62513553Y-80481284D01*
X62430927Y-80357626D01*
X62374014Y-80220224D01*
X62345000Y-80074362D01*
X62345000Y-79925638D01*
X62374014Y-79779776D01*
X62430927Y-79642374D01*
X62513553Y-79518716D01*
X62618716Y-79413553D01*
X62742374Y-79330927D01*
X62822862Y-79297588D01*
X62879775Y-79274014D01*
X62958800Y-79258295D01*
X63025638Y-79245000D01*
X63174362Y-79245000D01*
X63241200Y-79258295D01*
G37*
G36*
X24848228Y-78761703D02*
G01*
X25003100Y-78825853D01*
X25142481Y-78918985D01*
X25261015Y-79037519D01*
X25354147Y-79176900D01*
X25418297Y-79331772D01*
X25451000Y-79496184D01*
X25451000Y-79663816D01*
X25418297Y-79828228D01*
X25354147Y-79983100D01*
X25261015Y-80122481D01*
X25142481Y-80241015D01*
X25003100Y-80334147D01*
X24848228Y-80398297D01*
X24683816Y-80431000D01*
X24516184Y-80431000D01*
X24351772Y-80398297D01*
X24196900Y-80334147D01*
X24057519Y-80241015D01*
X23938985Y-80122481D01*
X23845853Y-79983100D01*
X23781703Y-79828228D01*
X23749000Y-79663816D01*
X23749000Y-79496184D01*
X23781703Y-79331772D01*
X23845853Y-79176900D01*
X23938985Y-79037519D01*
X24057519Y-78918985D01*
X24196900Y-78825853D01*
X24351772Y-78761703D01*
X24516184Y-78729000D01*
X24683816Y-78729000D01*
X24848228Y-78761703D01*
G37*
G36*
X52519987Y-79501524D02*
G01*
X52538730Y-79507210D01*
X52555997Y-79516439D01*
X52571136Y-79528864D01*
X52583561Y-79544003D01*
X52592790Y-79561270D01*
X52598476Y-79580013D01*
X52601000Y-79605640D01*
X52601000Y-80044360D01*
X52598476Y-80069987D01*
X52592790Y-80088730D01*
X52583561Y-80105997D01*
X52571136Y-80121136D01*
X52555997Y-80133561D01*
X52538730Y-80142790D01*
X52519987Y-80148476D01*
X52494360Y-80151000D01*
X50605640Y-80151000D01*
X50580013Y-80148476D01*
X50561270Y-80142790D01*
X50544003Y-80133561D01*
X50528864Y-80121136D01*
X50516439Y-80105997D01*
X50507210Y-80088730D01*
X50501524Y-80069987D01*
X50499000Y-80044360D01*
X50499000Y-79605640D01*
X50501524Y-79580013D01*
X50507210Y-79561270D01*
X50516439Y-79544003D01*
X50528864Y-79528864D01*
X50544003Y-79516439D01*
X50561270Y-79507210D01*
X50580013Y-79501524D01*
X50605640Y-79499000D01*
X52494360Y-79499000D01*
X52519987Y-79501524D01*
G37*
G36*
X43219987Y-79501524D02*
G01*
X43238730Y-79507210D01*
X43255997Y-79516439D01*
X43271136Y-79528864D01*
X43283561Y-79544003D01*
X43292790Y-79561270D01*
X43298476Y-79580013D01*
X43301000Y-79605640D01*
X43301000Y-80044360D01*
X43298476Y-80069987D01*
X43292790Y-80088730D01*
X43283561Y-80105997D01*
X43271136Y-80121136D01*
X43255997Y-80133561D01*
X43238730Y-80142790D01*
X43219987Y-80148476D01*
X43194360Y-80151000D01*
X41305640Y-80151000D01*
X41280013Y-80148476D01*
X41261270Y-80142790D01*
X41244003Y-80133561D01*
X41228864Y-80121136D01*
X41216439Y-80105997D01*
X41207210Y-80088730D01*
X41201524Y-80069987D01*
X41199000Y-80044360D01*
X41199000Y-79605640D01*
X41201524Y-79580013D01*
X41207210Y-79561270D01*
X41216439Y-79544003D01*
X41228864Y-79528864D01*
X41244003Y-79516439D01*
X41261270Y-79507210D01*
X41280013Y-79501524D01*
X41305640Y-79499000D01*
X43194360Y-79499000D01*
X43219987Y-79501524D01*
G37*
G36*
X29624549Y-77821116D02*
G01*
X29735734Y-77843232D01*
X29866794Y-77897519D01*
X29942116Y-77928718D01*
X29945203Y-77929997D01*
X30133720Y-78055960D01*
X30294040Y-78216280D01*
X30390204Y-78360200D01*
X30420004Y-78404799D01*
X30506768Y-78614267D01*
X30551000Y-78836635D01*
X30551000Y-79063365D01*
X30534456Y-79146535D01*
X30506768Y-79285734D01*
X30420003Y-79495203D01*
X30294040Y-79683720D01*
X30133720Y-79844040D01*
X29945203Y-79970003D01*
X29945202Y-79970004D01*
X29945201Y-79970004D01*
X29883850Y-79995416D01*
X29735734Y-80056768D01*
X29626188Y-80078558D01*
X29513365Y-80101000D01*
X29286635Y-80101000D01*
X29173812Y-80078558D01*
X29064266Y-80056768D01*
X28916150Y-79995416D01*
X28854799Y-79970004D01*
X28854798Y-79970004D01*
X28854797Y-79970003D01*
X28666280Y-79844040D01*
X28505960Y-79683720D01*
X28379997Y-79495203D01*
X28293232Y-79285734D01*
X28265544Y-79146535D01*
X28249000Y-79063365D01*
X28249000Y-78836635D01*
X28293232Y-78614267D01*
X28379996Y-78404799D01*
X28409796Y-78360200D01*
X28505960Y-78216280D01*
X28666280Y-78055960D01*
X28854797Y-77929997D01*
X28857885Y-77928718D01*
X28933206Y-77897519D01*
X29064266Y-77843232D01*
X29175451Y-77821116D01*
X29286635Y-77799000D01*
X29513365Y-77799000D01*
X29624549Y-77821116D01*
G37*
G36*
X55538674Y-77853465D02*
G01*
X55576367Y-77864899D01*
X55611103Y-77883466D01*
X55641548Y-77908452D01*
X55666534Y-77938897D01*
X55685101Y-77973633D01*
X55696535Y-78011326D01*
X55701000Y-78056661D01*
X55701000Y-79143339D01*
X55696535Y-79188674D01*
X55685101Y-79226367D01*
X55666534Y-79261103D01*
X55641548Y-79291548D01*
X55611103Y-79316534D01*
X55576367Y-79335101D01*
X55538674Y-79346535D01*
X55493339Y-79351000D01*
X54656661Y-79351000D01*
X54611326Y-79346535D01*
X54573633Y-79335101D01*
X54538897Y-79316534D01*
X54508452Y-79291548D01*
X54483466Y-79261103D01*
X54464899Y-79226367D01*
X54453465Y-79188674D01*
X54449000Y-79143339D01*
X54449000Y-78056661D01*
X54453465Y-78011326D01*
X54464899Y-77973633D01*
X54483466Y-77938897D01*
X54508452Y-77908452D01*
X54538897Y-77883466D01*
X54573633Y-77864899D01*
X54611326Y-77853465D01*
X54656661Y-77849000D01*
X55493339Y-77849000D01*
X55538674Y-77853465D01*
G37*
G36*
X57588674Y-77853465D02*
G01*
X57626367Y-77864899D01*
X57661103Y-77883466D01*
X57691548Y-77908452D01*
X57716534Y-77938897D01*
X57735101Y-77973633D01*
X57746535Y-78011326D01*
X57751000Y-78056661D01*
X57751000Y-79143339D01*
X57746535Y-79188674D01*
X57735101Y-79226367D01*
X57716534Y-79261103D01*
X57691548Y-79291548D01*
X57661103Y-79316534D01*
X57626367Y-79335101D01*
X57588674Y-79346535D01*
X57543339Y-79351000D01*
X56706661Y-79351000D01*
X56661326Y-79346535D01*
X56623633Y-79335101D01*
X56588897Y-79316534D01*
X56558452Y-79291548D01*
X56533466Y-79261103D01*
X56514899Y-79226367D01*
X56503465Y-79188674D01*
X56499000Y-79143339D01*
X56499000Y-78056661D01*
X56503465Y-78011326D01*
X56514899Y-77973633D01*
X56533466Y-77938897D01*
X56558452Y-77908452D01*
X56588897Y-77883466D01*
X56623633Y-77864899D01*
X56661326Y-77853465D01*
X56706661Y-77849000D01*
X57543339Y-77849000D01*
X57588674Y-77853465D01*
G37*
G36*
X27388228Y-77621703D02*
G01*
X27543100Y-77685853D01*
X27682481Y-77778985D01*
X27801015Y-77897519D01*
X27894147Y-78036900D01*
X27958297Y-78191772D01*
X27991000Y-78356184D01*
X27991000Y-78523816D01*
X27958297Y-78688228D01*
X27894147Y-78843100D01*
X27801015Y-78982481D01*
X27682481Y-79101015D01*
X27543100Y-79194147D01*
X27388228Y-79258297D01*
X27223816Y-79291000D01*
X27056184Y-79291000D01*
X26891772Y-79258297D01*
X26736900Y-79194147D01*
X26597519Y-79101015D01*
X26478985Y-78982481D01*
X26385853Y-78843100D01*
X26321703Y-78688228D01*
X26289000Y-78523816D01*
X26289000Y-78356184D01*
X26321703Y-78191772D01*
X26385853Y-78036900D01*
X26478985Y-77897519D01*
X26597519Y-77778985D01*
X26736900Y-77685853D01*
X26891772Y-77621703D01*
X27056184Y-77589000D01*
X27223816Y-77589000D01*
X27388228Y-77621703D01*
G37*
G36*
X22308228Y-77621703D02*
G01*
X22463100Y-77685853D01*
X22602481Y-77778985D01*
X22721015Y-77897519D01*
X22814147Y-78036900D01*
X22878297Y-78191772D01*
X22911000Y-78356184D01*
X22911000Y-78523816D01*
X22878297Y-78688228D01*
X22814147Y-78843100D01*
X22721015Y-78982481D01*
X22602481Y-79101015D01*
X22463100Y-79194147D01*
X22308228Y-79258297D01*
X22143816Y-79291000D01*
X21976184Y-79291000D01*
X21811772Y-79258297D01*
X21656900Y-79194147D01*
X21517519Y-79101015D01*
X21398985Y-78982481D01*
X21305853Y-78843100D01*
X21241703Y-78688228D01*
X21209000Y-78523816D01*
X21209000Y-78356184D01*
X21241703Y-78191772D01*
X21305853Y-78036900D01*
X21398985Y-77897519D01*
X21517519Y-77778985D01*
X21656900Y-77685853D01*
X21811772Y-77621703D01*
X21976184Y-77589000D01*
X22143816Y-77589000D01*
X22308228Y-77621703D01*
G37*
G36*
X38388674Y-77903465D02*
G01*
X38426367Y-77914899D01*
X38461103Y-77933466D01*
X38491548Y-77958452D01*
X38516534Y-77988897D01*
X38535101Y-78023633D01*
X38546535Y-78061326D01*
X38551000Y-78106661D01*
X38551000Y-78943339D01*
X38546535Y-78988674D01*
X38535101Y-79026367D01*
X38516534Y-79061103D01*
X38491548Y-79091548D01*
X38461103Y-79116534D01*
X38426367Y-79135101D01*
X38388674Y-79146535D01*
X38343339Y-79151000D01*
X37256661Y-79151000D01*
X37211326Y-79146535D01*
X37173633Y-79135101D01*
X37138897Y-79116534D01*
X37108452Y-79091548D01*
X37083466Y-79061103D01*
X37064899Y-79026367D01*
X37053465Y-78988674D01*
X37049000Y-78943339D01*
X37049000Y-78106661D01*
X37053465Y-78061326D01*
X37064899Y-78023633D01*
X37083466Y-77988897D01*
X37108452Y-77958452D01*
X37138897Y-77933466D01*
X37173633Y-77914899D01*
X37211326Y-77903465D01*
X37256661Y-77899000D01*
X38343339Y-77899000D01*
X38388674Y-77903465D01*
G37*
G36*
X43219987Y-78231524D02*
G01*
X43238730Y-78237210D01*
X43255997Y-78246439D01*
X43271136Y-78258864D01*
X43283561Y-78274003D01*
X43292790Y-78291270D01*
X43298476Y-78310013D01*
X43301000Y-78335640D01*
X43301000Y-78774360D01*
X43298476Y-78799987D01*
X43292790Y-78818730D01*
X43283561Y-78835997D01*
X43271136Y-78851136D01*
X43255997Y-78863561D01*
X43238730Y-78872790D01*
X43219987Y-78878476D01*
X43194360Y-78881000D01*
X41305640Y-78881000D01*
X41280013Y-78878476D01*
X41261270Y-78872790D01*
X41244003Y-78863561D01*
X41228864Y-78851136D01*
X41216439Y-78835997D01*
X41207210Y-78818730D01*
X41201524Y-78799987D01*
X41199000Y-78774360D01*
X41199000Y-78335640D01*
X41201524Y-78310013D01*
X41207210Y-78291270D01*
X41216439Y-78274003D01*
X41228864Y-78258864D01*
X41244003Y-78246439D01*
X41261270Y-78237210D01*
X41280013Y-78231524D01*
X41305640Y-78229000D01*
X43194360Y-78229000D01*
X43219987Y-78231524D01*
G37*
G36*
X52519987Y-78231524D02*
G01*
X52538730Y-78237210D01*
X52555997Y-78246439D01*
X52571136Y-78258864D01*
X52583561Y-78274003D01*
X52592790Y-78291270D01*
X52598476Y-78310013D01*
X52601000Y-78335640D01*
X52601000Y-78774360D01*
X52598476Y-78799987D01*
X52592790Y-78818730D01*
X52583561Y-78835997D01*
X52571136Y-78851136D01*
X52555997Y-78863561D01*
X52538730Y-78872790D01*
X52519987Y-78878476D01*
X52494360Y-78881000D01*
X50605640Y-78881000D01*
X50580013Y-78878476D01*
X50561270Y-78872790D01*
X50544003Y-78863561D01*
X50528864Y-78851136D01*
X50516439Y-78835997D01*
X50507210Y-78818730D01*
X50501524Y-78799987D01*
X50499000Y-78774360D01*
X50499000Y-78335640D01*
X50501524Y-78310013D01*
X50507210Y-78291270D01*
X50516439Y-78274003D01*
X50528864Y-78258864D01*
X50544003Y-78246439D01*
X50561270Y-78237210D01*
X50580013Y-78231524D01*
X50605640Y-78229000D01*
X52494360Y-78229000D01*
X52519987Y-78231524D01*
G37*
G36*
X67076626Y-74862037D02*
G01*
X67246465Y-74913557D01*
X67246467Y-74913558D01*
X67402989Y-74997221D01*
X67540186Y-75109814D01*
X67623448Y-75211271D01*
X67652778Y-75247009D01*
X67736443Y-75403534D01*
X67787963Y-75573373D01*
X67787963Y-75573375D01*
X67801000Y-75705740D01*
X67801000Y-77494260D01*
X67797481Y-77529987D01*
X67787963Y-77626627D01*
X67736443Y-77796466D01*
X67652778Y-77952991D01*
X67648296Y-77958452D01*
X67540186Y-78090186D01*
X67441502Y-78171173D01*
X67402991Y-78202778D01*
X67402989Y-78202779D01*
X67269740Y-78274003D01*
X67246466Y-78286443D01*
X67076627Y-78337963D01*
X66900000Y-78355359D01*
X66723374Y-78337963D01*
X66553535Y-78286443D01*
X66530262Y-78274003D01*
X66397012Y-78202779D01*
X66397010Y-78202778D01*
X66358499Y-78171173D01*
X66259815Y-78090186D01*
X66151705Y-77958452D01*
X66147223Y-77952991D01*
X66063558Y-77796466D01*
X66012038Y-77626627D01*
X66002520Y-77529987D01*
X65999001Y-77494260D01*
X65999000Y-75705741D01*
X66012037Y-75573376D01*
X66012037Y-75573374D01*
X66063557Y-75403535D01*
X66063559Y-75403532D01*
X66147221Y-75247011D01*
X66259814Y-75109814D01*
X66361271Y-75026552D01*
X66397009Y-74997222D01*
X66553534Y-74913557D01*
X66723373Y-74862037D01*
X66900000Y-74844641D01*
X67076626Y-74862037D01*
G37*
G36*
X34704549Y-75916116D02*
G01*
X34815734Y-75938232D01*
X34901199Y-75973633D01*
X34992199Y-76011326D01*
X35025203Y-76024997D01*
X35213720Y-76150960D01*
X35374040Y-76311280D01*
X35500003Y-76499797D01*
X35500004Y-76499799D01*
X35586768Y-76709267D01*
X35631000Y-76931635D01*
X35631000Y-77158365D01*
X35586768Y-77380733D01*
X35510030Y-77565997D01*
X35500003Y-77590203D01*
X35374040Y-77778720D01*
X35213720Y-77939040D01*
X35025203Y-78065003D01*
X34815734Y-78151768D01*
X34718178Y-78171173D01*
X34593365Y-78196000D01*
X34366635Y-78196000D01*
X34241822Y-78171173D01*
X34144266Y-78151768D01*
X33934797Y-78065003D01*
X33746280Y-77939040D01*
X33585960Y-77778720D01*
X33459997Y-77590203D01*
X33449971Y-77565997D01*
X33373232Y-77380733D01*
X33329000Y-77158365D01*
X33329000Y-76931635D01*
X33373232Y-76709267D01*
X33459996Y-76499799D01*
X33459997Y-76499797D01*
X33585960Y-76311280D01*
X33746280Y-76150960D01*
X33934797Y-76024997D01*
X33967802Y-76011326D01*
X34058801Y-75973633D01*
X34144266Y-75938232D01*
X34255451Y-75916116D01*
X34366635Y-75894000D01*
X34593365Y-75894000D01*
X34704549Y-75916116D01*
G37*
G36*
X24848228Y-76471703D02*
G01*
X25003100Y-76535853D01*
X25142481Y-76628985D01*
X25261015Y-76747519D01*
X25354147Y-76886900D01*
X25418297Y-77041772D01*
X25451000Y-77206184D01*
X25451000Y-77373816D01*
X25418297Y-77538228D01*
X25354147Y-77693100D01*
X25261015Y-77832481D01*
X25142481Y-77951015D01*
X25003100Y-78044147D01*
X24848228Y-78108297D01*
X24683816Y-78141000D01*
X24516184Y-78141000D01*
X24351772Y-78108297D01*
X24196900Y-78044147D01*
X24057519Y-77951015D01*
X23938985Y-77832481D01*
X23845853Y-77693100D01*
X23781703Y-77538228D01*
X23749000Y-77373816D01*
X23749000Y-77206184D01*
X23781703Y-77041772D01*
X23845853Y-76886900D01*
X23938985Y-76747519D01*
X24057519Y-76628985D01*
X24196900Y-76535853D01*
X24351772Y-76471703D01*
X24516184Y-76439000D01*
X24683816Y-76439000D01*
X24848228Y-76471703D01*
G37*
G36*
X43219987Y-76961524D02*
G01*
X43238730Y-76967210D01*
X43255997Y-76976439D01*
X43271136Y-76988864D01*
X43283561Y-77004003D01*
X43292790Y-77021270D01*
X43298476Y-77040013D01*
X43301000Y-77065640D01*
X43301000Y-77504360D01*
X43298476Y-77529987D01*
X43292790Y-77548730D01*
X43283561Y-77565997D01*
X43271136Y-77581136D01*
X43255997Y-77593561D01*
X43238730Y-77602790D01*
X43219987Y-77608476D01*
X43194360Y-77611000D01*
X41305640Y-77611000D01*
X41280013Y-77608476D01*
X41261270Y-77602790D01*
X41244003Y-77593561D01*
X41228864Y-77581136D01*
X41216439Y-77565997D01*
X41207210Y-77548730D01*
X41201524Y-77529987D01*
X41199000Y-77504360D01*
X41199000Y-77065640D01*
X41201524Y-77040013D01*
X41207210Y-77021270D01*
X41216439Y-77004003D01*
X41228864Y-76988864D01*
X41244003Y-76976439D01*
X41261270Y-76967210D01*
X41280013Y-76961524D01*
X41305640Y-76959000D01*
X43194360Y-76959000D01*
X43219987Y-76961524D01*
G37*
G36*
X52519987Y-76961524D02*
G01*
X52538730Y-76967210D01*
X52555997Y-76976439D01*
X52571136Y-76988864D01*
X52583561Y-77004003D01*
X52592790Y-77021270D01*
X52598476Y-77040013D01*
X52601000Y-77065640D01*
X52601000Y-77504360D01*
X52598476Y-77529987D01*
X52592790Y-77548730D01*
X52583561Y-77565997D01*
X52571136Y-77581136D01*
X52555997Y-77593561D01*
X52538730Y-77602790D01*
X52519987Y-77608476D01*
X52494360Y-77611000D01*
X50605640Y-77611000D01*
X50580013Y-77608476D01*
X50561270Y-77602790D01*
X50544003Y-77593561D01*
X50528864Y-77581136D01*
X50516439Y-77565997D01*
X50507210Y-77548730D01*
X50501524Y-77529987D01*
X50499000Y-77504360D01*
X50499000Y-77065640D01*
X50501524Y-77040013D01*
X50507210Y-77021270D01*
X50516439Y-77004003D01*
X50528864Y-76988864D01*
X50544003Y-76976439D01*
X50561270Y-76967210D01*
X50580013Y-76961524D01*
X50605640Y-76959000D01*
X52494360Y-76959000D01*
X52519987Y-76961524D01*
G37*
G36*
X38388674Y-75853465D02*
G01*
X38426367Y-75864899D01*
X38461103Y-75883466D01*
X38491548Y-75908452D01*
X38516534Y-75938897D01*
X38535101Y-75973633D01*
X38546535Y-76011326D01*
X38551000Y-76056661D01*
X38551000Y-76893339D01*
X38546535Y-76938674D01*
X38535101Y-76976367D01*
X38516534Y-77011103D01*
X38491548Y-77041548D01*
X38461103Y-77066534D01*
X38426367Y-77085101D01*
X38388674Y-77096535D01*
X38343339Y-77101000D01*
X37256661Y-77101000D01*
X37211326Y-77096535D01*
X37173633Y-77085101D01*
X37138897Y-77066534D01*
X37108452Y-77041548D01*
X37083466Y-77011103D01*
X37064899Y-76976367D01*
X37053465Y-76938674D01*
X37049000Y-76893339D01*
X37049000Y-76056661D01*
X37053465Y-76011326D01*
X37064899Y-75973633D01*
X37083466Y-75938897D01*
X37108452Y-75908452D01*
X37138897Y-75883466D01*
X37173633Y-75864899D01*
X37211326Y-75853465D01*
X37256661Y-75849000D01*
X38343339Y-75849000D01*
X38388674Y-75853465D01*
G37*
G36*
X22308228Y-75331703D02*
G01*
X22463100Y-75395853D01*
X22602481Y-75488985D01*
X22721015Y-75607519D01*
X22814147Y-75746900D01*
X22878297Y-75901772D01*
X22911000Y-76066184D01*
X22911000Y-76233816D01*
X22878297Y-76398228D01*
X22814147Y-76553100D01*
X22721015Y-76692481D01*
X22602481Y-76811015D01*
X22463100Y-76904147D01*
X22308228Y-76968297D01*
X22143816Y-77001000D01*
X21976184Y-77001000D01*
X21811772Y-76968297D01*
X21656900Y-76904147D01*
X21517519Y-76811015D01*
X21398985Y-76692481D01*
X21305853Y-76553100D01*
X21241703Y-76398228D01*
X21209000Y-76233816D01*
X21209000Y-76066184D01*
X21241703Y-75901772D01*
X21305853Y-75746900D01*
X21398985Y-75607519D01*
X21517519Y-75488985D01*
X21656900Y-75395853D01*
X21811772Y-75331703D01*
X21976184Y-75299000D01*
X22143816Y-75299000D01*
X22308228Y-75331703D01*
G37*
G36*
X27388228Y-75331703D02*
G01*
X27543100Y-75395853D01*
X27682481Y-75488985D01*
X27801015Y-75607519D01*
X27894147Y-75746900D01*
X27958297Y-75901772D01*
X27991000Y-76066184D01*
X27991000Y-76233816D01*
X27958297Y-76398228D01*
X27894147Y-76553100D01*
X27801015Y-76692481D01*
X27682481Y-76811015D01*
X27543100Y-76904147D01*
X27388228Y-76968297D01*
X27223816Y-77001000D01*
X27056184Y-77001000D01*
X26891772Y-76968297D01*
X26736900Y-76904147D01*
X26597519Y-76811015D01*
X26478985Y-76692481D01*
X26385853Y-76553100D01*
X26321703Y-76398228D01*
X26289000Y-76233816D01*
X26289000Y-76066184D01*
X26321703Y-75901772D01*
X26385853Y-75746900D01*
X26478985Y-75607519D01*
X26597519Y-75488985D01*
X26736900Y-75395853D01*
X26891772Y-75331703D01*
X27056184Y-75299000D01*
X27223816Y-75299000D01*
X27388228Y-75331703D01*
G37*
G36*
X43219987Y-75691524D02*
G01*
X43238730Y-75697210D01*
X43255997Y-75706439D01*
X43271136Y-75718864D01*
X43283561Y-75734003D01*
X43292790Y-75751270D01*
X43298476Y-75770013D01*
X43301000Y-75795640D01*
X43301000Y-76234360D01*
X43298476Y-76259987D01*
X43292790Y-76278730D01*
X43283561Y-76295997D01*
X43271136Y-76311136D01*
X43255997Y-76323561D01*
X43238730Y-76332790D01*
X43219987Y-76338476D01*
X43194360Y-76341000D01*
X41305640Y-76341000D01*
X41280013Y-76338476D01*
X41261270Y-76332790D01*
X41244003Y-76323561D01*
X41228864Y-76311136D01*
X41216439Y-76295997D01*
X41207210Y-76278730D01*
X41201524Y-76259987D01*
X41199000Y-76234360D01*
X41199000Y-75795640D01*
X41201524Y-75770013D01*
X41207210Y-75751270D01*
X41216439Y-75734003D01*
X41228864Y-75718864D01*
X41244003Y-75706439D01*
X41261270Y-75697210D01*
X41280013Y-75691524D01*
X41305640Y-75689000D01*
X43194360Y-75689000D01*
X43219987Y-75691524D01*
G37*
G36*
X52519987Y-75691524D02*
G01*
X52538730Y-75697210D01*
X52555997Y-75706439D01*
X52571136Y-75718864D01*
X52583561Y-75734003D01*
X52592790Y-75751270D01*
X52598476Y-75770013D01*
X52601000Y-75795640D01*
X52601000Y-76234360D01*
X52598476Y-76259987D01*
X52592790Y-76278730D01*
X52583561Y-76295997D01*
X52571136Y-76311136D01*
X52555997Y-76323561D01*
X52538730Y-76332790D01*
X52519987Y-76338476D01*
X52494360Y-76341000D01*
X50605640Y-76341000D01*
X50580013Y-76338476D01*
X50561270Y-76332790D01*
X50544003Y-76323561D01*
X50528864Y-76311136D01*
X50516439Y-76295997D01*
X50507210Y-76278730D01*
X50501524Y-76259987D01*
X50499000Y-76234360D01*
X50499000Y-75795640D01*
X50501524Y-75770013D01*
X50507210Y-75751270D01*
X50516439Y-75734003D01*
X50528864Y-75718864D01*
X50544003Y-75706439D01*
X50561270Y-75697210D01*
X50580013Y-75691524D01*
X50605640Y-75689000D01*
X52494360Y-75689000D01*
X52519987Y-75691524D01*
G37*
G36*
X29624549Y-74011116D02*
G01*
X29735734Y-74033232D01*
X29883850Y-74094584D01*
X29944530Y-74119718D01*
X29945203Y-74119997D01*
X30133720Y-74245960D01*
X30294040Y-74406280D01*
X30328277Y-74457520D01*
X30420004Y-74594799D01*
X30445416Y-74656150D01*
X30506768Y-74804266D01*
X30518259Y-74862037D01*
X30551000Y-75026635D01*
X30551000Y-75253365D01*
X30535417Y-75331705D01*
X30506768Y-75475734D01*
X30420003Y-75685203D01*
X30294040Y-75873720D01*
X30133720Y-76034040D01*
X29945203Y-76160003D01*
X29945202Y-76160004D01*
X29945201Y-76160004D01*
X29883850Y-76185416D01*
X29735734Y-76246768D01*
X29669277Y-76259987D01*
X29513365Y-76291000D01*
X29286635Y-76291000D01*
X29130723Y-76259987D01*
X29064266Y-76246768D01*
X28916150Y-76185416D01*
X28854799Y-76160004D01*
X28854798Y-76160004D01*
X28854797Y-76160003D01*
X28666280Y-76034040D01*
X28505960Y-75873720D01*
X28379997Y-75685203D01*
X28293232Y-75475734D01*
X28264583Y-75331705D01*
X28249000Y-75253365D01*
X28249000Y-75026635D01*
X28281741Y-74862037D01*
X28293232Y-74804266D01*
X28354584Y-74656150D01*
X28379996Y-74594799D01*
X28471723Y-74457520D01*
X28505960Y-74406280D01*
X28666280Y-74245960D01*
X28854797Y-74119997D01*
X28855471Y-74119718D01*
X28916150Y-74094584D01*
X29064266Y-74033232D01*
X29175451Y-74011116D01*
X29286635Y-73989000D01*
X29513365Y-73989000D01*
X29624549Y-74011116D01*
G37*
G36*
X24848228Y-74181703D02*
G01*
X25003100Y-74245853D01*
X25142481Y-74338985D01*
X25261015Y-74457519D01*
X25354147Y-74596900D01*
X25418297Y-74751772D01*
X25451000Y-74916184D01*
X25451000Y-75083816D01*
X25418297Y-75248228D01*
X25354147Y-75403100D01*
X25261015Y-75542481D01*
X25142481Y-75661015D01*
X25003100Y-75754147D01*
X24848228Y-75818297D01*
X24683816Y-75851000D01*
X24516184Y-75851000D01*
X24351772Y-75818297D01*
X24196900Y-75754147D01*
X24057519Y-75661015D01*
X23938985Y-75542481D01*
X23845853Y-75403100D01*
X23781703Y-75248228D01*
X23749000Y-75083816D01*
X23749000Y-74916184D01*
X23781703Y-74751772D01*
X23845853Y-74596900D01*
X23938985Y-74457519D01*
X24057519Y-74338985D01*
X24196900Y-74245853D01*
X24351772Y-74181703D01*
X24516184Y-74149000D01*
X24683816Y-74149000D01*
X24848228Y-74181703D01*
G37*
G36*
X38388674Y-74103465D02*
G01*
X38426367Y-74114899D01*
X38461103Y-74133466D01*
X38491548Y-74158452D01*
X38516534Y-74188897D01*
X38535101Y-74223633D01*
X38546535Y-74261326D01*
X38551000Y-74306661D01*
X38551000Y-75143339D01*
X38546535Y-75188674D01*
X38535101Y-75226367D01*
X38516534Y-75261103D01*
X38491548Y-75291548D01*
X38461103Y-75316534D01*
X38426367Y-75335101D01*
X38388674Y-75346535D01*
X38343339Y-75351000D01*
X37256661Y-75351000D01*
X37211326Y-75346535D01*
X37173633Y-75335101D01*
X37138897Y-75316534D01*
X37108452Y-75291548D01*
X37083466Y-75261103D01*
X37064899Y-75226367D01*
X37053465Y-75188674D01*
X37049000Y-75143339D01*
X37049000Y-74306661D01*
X37053465Y-74261326D01*
X37064899Y-74223633D01*
X37083466Y-74188897D01*
X37108452Y-74158452D01*
X37138897Y-74133466D01*
X37173633Y-74114899D01*
X37211326Y-74103465D01*
X37256661Y-74099000D01*
X38343339Y-74099000D01*
X38388674Y-74103465D01*
G37*
G36*
X47988674Y-73453465D02*
G01*
X48026367Y-73464899D01*
X48061103Y-73483466D01*
X48091548Y-73508452D01*
X48116534Y-73538897D01*
X48135101Y-73573633D01*
X48146535Y-73611326D01*
X48151000Y-73656661D01*
X48151000Y-74743339D01*
X48146535Y-74788674D01*
X48135101Y-74826367D01*
X48116534Y-74861103D01*
X48091548Y-74891548D01*
X48061103Y-74916534D01*
X48026367Y-74935101D01*
X47988674Y-74946535D01*
X47943339Y-74951000D01*
X47106661Y-74951000D01*
X47061326Y-74946535D01*
X47023633Y-74935101D01*
X46988897Y-74916534D01*
X46958452Y-74891548D01*
X46933466Y-74861103D01*
X46914899Y-74826367D01*
X46903465Y-74788674D01*
X46899000Y-74743339D01*
X46899000Y-73656661D01*
X46903465Y-73611326D01*
X46914899Y-73573633D01*
X46933466Y-73538897D01*
X46958452Y-73508452D01*
X46988897Y-73483466D01*
X47023633Y-73464899D01*
X47061326Y-73453465D01*
X47106661Y-73449000D01*
X47943339Y-73449000D01*
X47988674Y-73453465D01*
G37*
G36*
X45938674Y-73453465D02*
G01*
X45976367Y-73464899D01*
X46011103Y-73483466D01*
X46041548Y-73508452D01*
X46066534Y-73538897D01*
X46085101Y-73573633D01*
X46096535Y-73611326D01*
X46101000Y-73656661D01*
X46101000Y-74743339D01*
X46096535Y-74788674D01*
X46085101Y-74826367D01*
X46066534Y-74861103D01*
X46041548Y-74891548D01*
X46011103Y-74916534D01*
X45976367Y-74935101D01*
X45938674Y-74946535D01*
X45893339Y-74951000D01*
X45056661Y-74951000D01*
X45011326Y-74946535D01*
X44973633Y-74935101D01*
X44938897Y-74916534D01*
X44908452Y-74891548D01*
X44883466Y-74861103D01*
X44864899Y-74826367D01*
X44853465Y-74788674D01*
X44849000Y-74743339D01*
X44849000Y-73656661D01*
X44853465Y-73611326D01*
X44864899Y-73573633D01*
X44883466Y-73538897D01*
X44908452Y-73508452D01*
X44938897Y-73483466D01*
X44973633Y-73464899D01*
X45011326Y-73453465D01*
X45056661Y-73449000D01*
X45893339Y-73449000D01*
X45938674Y-73453465D01*
G37*
G36*
X22308228Y-73041703D02*
G01*
X22463100Y-73105853D01*
X22602481Y-73198985D01*
X22721015Y-73317519D01*
X22814147Y-73456900D01*
X22878297Y-73611772D01*
X22911000Y-73776184D01*
X22911000Y-73943816D01*
X22878297Y-74108228D01*
X22814147Y-74263100D01*
X22721015Y-74402481D01*
X22602481Y-74521015D01*
X22463100Y-74614147D01*
X22308228Y-74678297D01*
X22143816Y-74711000D01*
X21976184Y-74711000D01*
X21811772Y-74678297D01*
X21656900Y-74614147D01*
X21517519Y-74521015D01*
X21398985Y-74402481D01*
X21305853Y-74263100D01*
X21241703Y-74108228D01*
X21209000Y-73943816D01*
X21209000Y-73776184D01*
X21241703Y-73611772D01*
X21305853Y-73456900D01*
X21398985Y-73317519D01*
X21517519Y-73198985D01*
X21656900Y-73105853D01*
X21811772Y-73041703D01*
X21976184Y-73009000D01*
X22143816Y-73009000D01*
X22308228Y-73041703D01*
G37*
G36*
X27388228Y-73041703D02*
G01*
X27543100Y-73105853D01*
X27682481Y-73198985D01*
X27801015Y-73317519D01*
X27894147Y-73456900D01*
X27958297Y-73611772D01*
X27991000Y-73776184D01*
X27991000Y-73943816D01*
X27958297Y-74108228D01*
X27894147Y-74263100D01*
X27801015Y-74402481D01*
X27682481Y-74521015D01*
X27543100Y-74614147D01*
X27388228Y-74678297D01*
X27223816Y-74711000D01*
X27056184Y-74711000D01*
X26891772Y-74678297D01*
X26736900Y-74614147D01*
X26597519Y-74521015D01*
X26478985Y-74402481D01*
X26385853Y-74263100D01*
X26321703Y-74108228D01*
X26289000Y-73943816D01*
X26289000Y-73776184D01*
X26321703Y-73611772D01*
X26385853Y-73456900D01*
X26478985Y-73317519D01*
X26597519Y-73198985D01*
X26736900Y-73105853D01*
X26891772Y-73041703D01*
X27056184Y-73009000D01*
X27223816Y-73009000D01*
X27388228Y-73041703D01*
G37*
G36*
X34704549Y-72106116D02*
G01*
X34815734Y-72128232D01*
X34963850Y-72189584D01*
X35016341Y-72211326D01*
X35025203Y-72214997D01*
X35213720Y-72340960D01*
X35374040Y-72501280D01*
X35500003Y-72689797D01*
X35500004Y-72689799D01*
X35505981Y-72704230D01*
X35571053Y-72861326D01*
X35586768Y-72899267D01*
X35631000Y-73121635D01*
X35631000Y-73348365D01*
X35616706Y-73420224D01*
X35586768Y-73570734D01*
X35500003Y-73780203D01*
X35374040Y-73968720D01*
X35213720Y-74129040D01*
X35025203Y-74255003D01*
X35025202Y-74255004D01*
X35025201Y-74255004D01*
X35005655Y-74263100D01*
X34815734Y-74341768D01*
X34704549Y-74363884D01*
X34593365Y-74386000D01*
X34366635Y-74386000D01*
X34255451Y-74363884D01*
X34144266Y-74341768D01*
X33954345Y-74263100D01*
X33934799Y-74255004D01*
X33934798Y-74255004D01*
X33934797Y-74255003D01*
X33746280Y-74129040D01*
X33585960Y-73968720D01*
X33459997Y-73780203D01*
X33373232Y-73570734D01*
X33343294Y-73420224D01*
X33329000Y-73348365D01*
X33329000Y-73121635D01*
X33373232Y-72899267D01*
X33388948Y-72861326D01*
X33454019Y-72704230D01*
X33459996Y-72689799D01*
X33459997Y-72689797D01*
X33585960Y-72501280D01*
X33746280Y-72340960D01*
X33934797Y-72214997D01*
X33943660Y-72211326D01*
X33996150Y-72189584D01*
X34144266Y-72128232D01*
X34255451Y-72106116D01*
X34366635Y-72084000D01*
X34593365Y-72084000D01*
X34704549Y-72106116D01*
G37*
G36*
X60747293Y-72459507D02*
G01*
X60820225Y-72474014D01*
X60877138Y-72497588D01*
X60957626Y-72530927D01*
X61081284Y-72613553D01*
X61186447Y-72718716D01*
X61269073Y-72842374D01*
X61295701Y-72906661D01*
X61325986Y-72979775D01*
X61355000Y-73125639D01*
X61355000Y-73274361D01*
X61325986Y-73420225D01*
X61310795Y-73456900D01*
X61269073Y-73557626D01*
X61186447Y-73681284D01*
X61081284Y-73786447D01*
X60957626Y-73869073D01*
X60877138Y-73902412D01*
X60820225Y-73925986D01*
X60747293Y-73940493D01*
X60674362Y-73955000D01*
X60525638Y-73955000D01*
X60452707Y-73940493D01*
X60379775Y-73925986D01*
X60322862Y-73902412D01*
X60242374Y-73869073D01*
X60118716Y-73786447D01*
X60013553Y-73681284D01*
X59930927Y-73557626D01*
X59889205Y-73456900D01*
X59874014Y-73420225D01*
X59845000Y-73274361D01*
X59845000Y-73125639D01*
X59874014Y-72979775D01*
X59904299Y-72906661D01*
X59930927Y-72842374D01*
X60013553Y-72718716D01*
X60118716Y-72613553D01*
X60242374Y-72530927D01*
X60322862Y-72497588D01*
X60379775Y-72474014D01*
X60452707Y-72459507D01*
X60525638Y-72445000D01*
X60674362Y-72445000D01*
X60747293Y-72459507D01*
G37*
G36*
X63855000Y-73955000D02*
G01*
X62345000Y-73955000D01*
X62345000Y-72445000D01*
X63855000Y-72445000D01*
X63855000Y-73955000D01*
G37*
G36*
X51588674Y-72703465D02*
G01*
X51626367Y-72714899D01*
X51661103Y-72733466D01*
X51691548Y-72758452D01*
X51716534Y-72788897D01*
X51735101Y-72823633D01*
X51746535Y-72861326D01*
X51751000Y-72906661D01*
X51751000Y-73743339D01*
X51746535Y-73788674D01*
X51735101Y-73826367D01*
X51716534Y-73861103D01*
X51691548Y-73891548D01*
X51661103Y-73916534D01*
X51626367Y-73935101D01*
X51588674Y-73946535D01*
X51543339Y-73951000D01*
X50456661Y-73951000D01*
X50411326Y-73946535D01*
X50373633Y-73935101D01*
X50338897Y-73916534D01*
X50308452Y-73891548D01*
X50283466Y-73861103D01*
X50264899Y-73826367D01*
X50253465Y-73788674D01*
X50249000Y-73743339D01*
X50249000Y-72906661D01*
X50253465Y-72861326D01*
X50264899Y-72823633D01*
X50283466Y-72788897D01*
X50308452Y-72758452D01*
X50338897Y-72733466D01*
X50373633Y-72714899D01*
X50411326Y-72703465D01*
X50456661Y-72699000D01*
X51543339Y-72699000D01*
X51588674Y-72703465D01*
G37*
G36*
X24848228Y-71891703D02*
G01*
X25003100Y-71955853D01*
X25142481Y-72048985D01*
X25261015Y-72167519D01*
X25354147Y-72306900D01*
X25418297Y-72461772D01*
X25451000Y-72626184D01*
X25451000Y-72793816D01*
X25418297Y-72958228D01*
X25354147Y-73113100D01*
X25261015Y-73252481D01*
X25142481Y-73371015D01*
X25003100Y-73464147D01*
X24848228Y-73528297D01*
X24683816Y-73561000D01*
X24516184Y-73561000D01*
X24351772Y-73528297D01*
X24196900Y-73464147D01*
X24057519Y-73371015D01*
X23938985Y-73252481D01*
X23845853Y-73113100D01*
X23781703Y-72958228D01*
X23749000Y-72793816D01*
X23749000Y-72626184D01*
X23781703Y-72461772D01*
X23845853Y-72306900D01*
X23938985Y-72167519D01*
X24057519Y-72048985D01*
X24196900Y-71955853D01*
X24351772Y-71891703D01*
X24516184Y-71859000D01*
X24683816Y-71859000D01*
X24848228Y-71891703D01*
G37*
G36*
X38388674Y-72053465D02*
G01*
X38426367Y-72064899D01*
X38461103Y-72083466D01*
X38491548Y-72108452D01*
X38516534Y-72138897D01*
X38535101Y-72173633D01*
X38546535Y-72211326D01*
X38551000Y-72256661D01*
X38551000Y-73093339D01*
X38546535Y-73138674D01*
X38535101Y-73176367D01*
X38516534Y-73211103D01*
X38491548Y-73241548D01*
X38461103Y-73266534D01*
X38426367Y-73285101D01*
X38388674Y-73296535D01*
X38343339Y-73301000D01*
X37256661Y-73301000D01*
X37211326Y-73296535D01*
X37173633Y-73285101D01*
X37138897Y-73266534D01*
X37108452Y-73241548D01*
X37083466Y-73211103D01*
X37064899Y-73176367D01*
X37053465Y-73138674D01*
X37049000Y-73093339D01*
X37049000Y-72256661D01*
X37053465Y-72211326D01*
X37064899Y-72173633D01*
X37083466Y-72138897D01*
X37108452Y-72108452D01*
X37138897Y-72083466D01*
X37173633Y-72064899D01*
X37211326Y-72053465D01*
X37256661Y-72049000D01*
X38343339Y-72049000D01*
X38388674Y-72053465D01*
G37*
G36*
X55935442Y-71305518D02*
G01*
X56001627Y-71312037D01*
X56171466Y-71363557D01*
X56327991Y-71447222D01*
X56332594Y-71451000D01*
X56465186Y-71559814D01*
X56542329Y-71653815D01*
X56577778Y-71697009D01*
X56661443Y-71853534D01*
X56712963Y-72023373D01*
X56730359Y-72200000D01*
X56712963Y-72376627D01*
X56661443Y-72546466D01*
X56577778Y-72702991D01*
X56564050Y-72719718D01*
X56465186Y-72840186D01*
X56363729Y-72923448D01*
X56327991Y-72952778D01*
X56327989Y-72952779D01*
X56185715Y-73028827D01*
X56171466Y-73036443D01*
X56001627Y-73087963D01*
X55935442Y-73094482D01*
X55869260Y-73101000D01*
X55530740Y-73101000D01*
X55464558Y-73094482D01*
X55398373Y-73087963D01*
X55228534Y-73036443D01*
X55214286Y-73028827D01*
X55072011Y-72952779D01*
X55072009Y-72952778D01*
X55036271Y-72923448D01*
X54934814Y-72840186D01*
X54835950Y-72719718D01*
X54822222Y-72702991D01*
X54738557Y-72546466D01*
X54687037Y-72376627D01*
X54669641Y-72200000D01*
X54687037Y-72023373D01*
X54738557Y-71853534D01*
X54822222Y-71697009D01*
X54857671Y-71653815D01*
X54934814Y-71559814D01*
X55067406Y-71451000D01*
X55072009Y-71447222D01*
X55228534Y-71363557D01*
X55398373Y-71312037D01*
X55464558Y-71305518D01*
X55530740Y-71299000D01*
X55869260Y-71299000D01*
X55935442Y-71305518D01*
G37*
G36*
X29601172Y-70196466D02*
G01*
X29735734Y-70223232D01*
X29945203Y-70309997D01*
X30133720Y-70435960D01*
X30294040Y-70596280D01*
X30412543Y-70773633D01*
X30420004Y-70784799D01*
X30432867Y-70815853D01*
X30506768Y-70994266D01*
X30524023Y-71081015D01*
X30551000Y-71216635D01*
X30551000Y-71443365D01*
X30528884Y-71554549D01*
X30506768Y-71665734D01*
X30476555Y-71738674D01*
X30428980Y-71853532D01*
X30420003Y-71875203D01*
X30294040Y-72063720D01*
X30133720Y-72224040D01*
X29945203Y-72350003D01*
X29735734Y-72436768D01*
X29624549Y-72458884D01*
X29513365Y-72481000D01*
X29286635Y-72481000D01*
X29175451Y-72458884D01*
X29064266Y-72436768D01*
X28854797Y-72350003D01*
X28666280Y-72224040D01*
X28505960Y-72063720D01*
X28379997Y-71875203D01*
X28371021Y-71853532D01*
X28323445Y-71738674D01*
X28293232Y-71665734D01*
X28271116Y-71554549D01*
X28249000Y-71443365D01*
X28249000Y-71216635D01*
X28275977Y-71081015D01*
X28293232Y-70994266D01*
X28367133Y-70815853D01*
X28379996Y-70784799D01*
X28387457Y-70773633D01*
X28505960Y-70596280D01*
X28666280Y-70435960D01*
X28854797Y-70309997D01*
X29064266Y-70223232D01*
X29198828Y-70196466D01*
X29286635Y-70179000D01*
X29513365Y-70179000D01*
X29601172Y-70196466D01*
G37*
G36*
X27388228Y-70751703D02*
G01*
X27543100Y-70815853D01*
X27682481Y-70908985D01*
X27801015Y-71027519D01*
X27894147Y-71166900D01*
X27958297Y-71321772D01*
X27991000Y-71486184D01*
X27991000Y-71653816D01*
X27958297Y-71818228D01*
X27894147Y-71973100D01*
X27801015Y-72112481D01*
X27682481Y-72231015D01*
X27543100Y-72324147D01*
X27388228Y-72388297D01*
X27223816Y-72421000D01*
X27056184Y-72421000D01*
X26891772Y-72388297D01*
X26736900Y-72324147D01*
X26597519Y-72231015D01*
X26478985Y-72112481D01*
X26385853Y-71973100D01*
X26321703Y-71818228D01*
X26289000Y-71653816D01*
X26289000Y-71486184D01*
X26321703Y-71321772D01*
X26385853Y-71166900D01*
X26478985Y-71027519D01*
X26597519Y-70908985D01*
X26736900Y-70815853D01*
X26891772Y-70751703D01*
X27056184Y-70719000D01*
X27223816Y-70719000D01*
X27388228Y-70751703D01*
G37*
G36*
X22308228Y-70751703D02*
G01*
X22463100Y-70815853D01*
X22602481Y-70908985D01*
X22721015Y-71027519D01*
X22814147Y-71166900D01*
X22878297Y-71321772D01*
X22911000Y-71486184D01*
X22911000Y-71653816D01*
X22878297Y-71818228D01*
X22814147Y-71973100D01*
X22721015Y-72112481D01*
X22602481Y-72231015D01*
X22463100Y-72324147D01*
X22308228Y-72388297D01*
X22143816Y-72421000D01*
X21976184Y-72421000D01*
X21811772Y-72388297D01*
X21656900Y-72324147D01*
X21517519Y-72231015D01*
X21398985Y-72112481D01*
X21305853Y-71973100D01*
X21241703Y-71818228D01*
X21209000Y-71653816D01*
X21209000Y-71486184D01*
X21241703Y-71321772D01*
X21305853Y-71166900D01*
X21398985Y-71027519D01*
X21517519Y-70908985D01*
X21656900Y-70815853D01*
X21811772Y-70751703D01*
X21976184Y-70719000D01*
X22143816Y-70719000D01*
X22308228Y-70751703D01*
G37*
G36*
X51588674Y-70653465D02*
G01*
X51626367Y-70664899D01*
X51661103Y-70683466D01*
X51691548Y-70708452D01*
X51716534Y-70738897D01*
X51735101Y-70773633D01*
X51746535Y-70811326D01*
X51751000Y-70856661D01*
X51751000Y-71693339D01*
X51746535Y-71738674D01*
X51735101Y-71776367D01*
X51716534Y-71811103D01*
X51691548Y-71841548D01*
X51661103Y-71866534D01*
X51626367Y-71885101D01*
X51588674Y-71896535D01*
X51543339Y-71901000D01*
X50456661Y-71901000D01*
X50411326Y-71896535D01*
X50373633Y-71885101D01*
X50338897Y-71866534D01*
X50308452Y-71841548D01*
X50283466Y-71811103D01*
X50264899Y-71776367D01*
X50253465Y-71738674D01*
X50249000Y-71693339D01*
X50249000Y-70856661D01*
X50253465Y-70811326D01*
X50264899Y-70773633D01*
X50283466Y-70738897D01*
X50308452Y-70708452D01*
X50338897Y-70683466D01*
X50373633Y-70664899D01*
X50411326Y-70653465D01*
X50456661Y-70649000D01*
X51543339Y-70649000D01*
X51588674Y-70653465D01*
G37*
G36*
X46488674Y-69953465D02*
G01*
X46526367Y-69964899D01*
X46561103Y-69983466D01*
X46591548Y-70008452D01*
X46616534Y-70038897D01*
X46635101Y-70073633D01*
X46646535Y-70111326D01*
X46651000Y-70156661D01*
X46651000Y-71243339D01*
X46646535Y-71288674D01*
X46635101Y-71326367D01*
X46616534Y-71361103D01*
X46591548Y-71391548D01*
X46561103Y-71416534D01*
X46526367Y-71435101D01*
X46488674Y-71446535D01*
X46443339Y-71451000D01*
X45606661Y-71451000D01*
X45561326Y-71446535D01*
X45523633Y-71435101D01*
X45488897Y-71416534D01*
X45458452Y-71391548D01*
X45433466Y-71361103D01*
X45414899Y-71326367D01*
X45403465Y-71288674D01*
X45399000Y-71243339D01*
X45399000Y-70156661D01*
X45403465Y-70111326D01*
X45414899Y-70073633D01*
X45433466Y-70038897D01*
X45458452Y-70008452D01*
X45488897Y-69983466D01*
X45523633Y-69964899D01*
X45561326Y-69953465D01*
X45606661Y-69949000D01*
X46443339Y-69949000D01*
X46488674Y-69953465D01*
G37*
G36*
X44438674Y-69953465D02*
G01*
X44476367Y-69964899D01*
X44511103Y-69983466D01*
X44541548Y-70008452D01*
X44566534Y-70038897D01*
X44585101Y-70073633D01*
X44596535Y-70111326D01*
X44601000Y-70156661D01*
X44601000Y-71243339D01*
X44596535Y-71288674D01*
X44585101Y-71326367D01*
X44566534Y-71361103D01*
X44541548Y-71391548D01*
X44511103Y-71416534D01*
X44476367Y-71435101D01*
X44438674Y-71446535D01*
X44393339Y-71451000D01*
X43556661Y-71451000D01*
X43511326Y-71446535D01*
X43473633Y-71435101D01*
X43438897Y-71416534D01*
X43408452Y-71391548D01*
X43383466Y-71361103D01*
X43364899Y-71326367D01*
X43353465Y-71288674D01*
X43349000Y-71243339D01*
X43349000Y-70156661D01*
X43353465Y-70111326D01*
X43364899Y-70073633D01*
X43383466Y-70038897D01*
X43408452Y-70008452D01*
X43438897Y-69983466D01*
X43473633Y-69964899D01*
X43511326Y-69953465D01*
X43556661Y-69949000D01*
X44393339Y-69949000D01*
X44438674Y-69953465D01*
G37*
G36*
X24848228Y-69601703D02*
G01*
X25003100Y-69665853D01*
X25142481Y-69758985D01*
X25261015Y-69877519D01*
X25354147Y-70016900D01*
X25418297Y-70171772D01*
X25451000Y-70336184D01*
X25451000Y-70503816D01*
X25418297Y-70668228D01*
X25354147Y-70823100D01*
X25261015Y-70962481D01*
X25142481Y-71081015D01*
X25003100Y-71174147D01*
X24848228Y-71238297D01*
X24683816Y-71271000D01*
X24516184Y-71271000D01*
X24351772Y-71238297D01*
X24196900Y-71174147D01*
X24057519Y-71081015D01*
X23938985Y-70962481D01*
X23845853Y-70823100D01*
X23781703Y-70668228D01*
X23749000Y-70503816D01*
X23749000Y-70336184D01*
X23781703Y-70171772D01*
X23845853Y-70016900D01*
X23938985Y-69877519D01*
X24057519Y-69758985D01*
X24196900Y-69665853D01*
X24351772Y-69601703D01*
X24516184Y-69569000D01*
X24683816Y-69569000D01*
X24848228Y-69601703D01*
G37*
G36*
X67060443Y-68955519D02*
G01*
X67126627Y-68962037D01*
X67296466Y-69013557D01*
X67452991Y-69097222D01*
X67469905Y-69111103D01*
X67590186Y-69209814D01*
X67673448Y-69311271D01*
X67702778Y-69347009D01*
X67786443Y-69503534D01*
X67837963Y-69673373D01*
X67855359Y-69850000D01*
X67837963Y-70026627D01*
X67786443Y-70196466D01*
X67702778Y-70352991D01*
X67673448Y-70388729D01*
X67590186Y-70490186D01*
X67488729Y-70573448D01*
X67452991Y-70602778D01*
X67296466Y-70686443D01*
X67126627Y-70737963D01*
X67060443Y-70744481D01*
X66994260Y-70751000D01*
X65205740Y-70751000D01*
X65139557Y-70744481D01*
X65073373Y-70737963D01*
X64903534Y-70686443D01*
X64747009Y-70602778D01*
X64711271Y-70573448D01*
X64609814Y-70490186D01*
X64526552Y-70388729D01*
X64497222Y-70352991D01*
X64413557Y-70196466D01*
X64362037Y-70026627D01*
X64344641Y-69850000D01*
X64362037Y-69673373D01*
X64413557Y-69503534D01*
X64497222Y-69347009D01*
X64526552Y-69311271D01*
X64609814Y-69209814D01*
X64730095Y-69111103D01*
X64747009Y-69097222D01*
X64903534Y-69013557D01*
X65073373Y-68962037D01*
X65139557Y-68955519D01*
X65205740Y-68949000D01*
X66994260Y-68949000D01*
X67060443Y-68955519D01*
G37*
G36*
X55935443Y-68805519D02*
G01*
X56001627Y-68812037D01*
X56171466Y-68863557D01*
X56171468Y-68863558D01*
X56201849Y-68879797D01*
X56327991Y-68947222D01*
X56330157Y-68949000D01*
X56465186Y-69059814D01*
X56532262Y-69141548D01*
X56577778Y-69197009D01*
X56661443Y-69353534D01*
X56712963Y-69523373D01*
X56730359Y-69700000D01*
X56712963Y-69876627D01*
X56661443Y-70046466D01*
X56577778Y-70202991D01*
X56548448Y-70238729D01*
X56465186Y-70340186D01*
X56363729Y-70423448D01*
X56327991Y-70452778D01*
X56171466Y-70536443D01*
X56001627Y-70587963D01*
X55935443Y-70594481D01*
X55869260Y-70601000D01*
X55530740Y-70601000D01*
X55464557Y-70594481D01*
X55398373Y-70587963D01*
X55228534Y-70536443D01*
X55072009Y-70452778D01*
X55036271Y-70423448D01*
X54934814Y-70340186D01*
X54851552Y-70238729D01*
X54822222Y-70202991D01*
X54738557Y-70046466D01*
X54687037Y-69876627D01*
X54669641Y-69700000D01*
X54687037Y-69523373D01*
X54738557Y-69353534D01*
X54822222Y-69197009D01*
X54867738Y-69141548D01*
X54934814Y-69059814D01*
X55069843Y-68949000D01*
X55072009Y-68947222D01*
X55198151Y-68879797D01*
X55228532Y-68863558D01*
X55228534Y-68863557D01*
X55398373Y-68812037D01*
X55464557Y-68805519D01*
X55530740Y-68799000D01*
X55869260Y-68799000D01*
X55935443Y-68805519D01*
G37*
G36*
X34704549Y-68296116D02*
G01*
X34815734Y-68318232D01*
X35025203Y-68404997D01*
X35213720Y-68530960D01*
X35374040Y-68691280D01*
X35500003Y-68879797D01*
X35586768Y-69089266D01*
X35631000Y-69311636D01*
X35631000Y-69538364D01*
X35586768Y-69760734D01*
X35500003Y-69970203D01*
X35374040Y-70158720D01*
X35213720Y-70319040D01*
X35025203Y-70445003D01*
X34815734Y-70531768D01*
X34704549Y-70553884D01*
X34593365Y-70576000D01*
X34366635Y-70576000D01*
X34255451Y-70553884D01*
X34144266Y-70531768D01*
X33934797Y-70445003D01*
X33746280Y-70319040D01*
X33585960Y-70158720D01*
X33459997Y-69970203D01*
X33373232Y-69760734D01*
X33329000Y-69538364D01*
X33329000Y-69311636D01*
X33373232Y-69089266D01*
X33459997Y-68879797D01*
X33585960Y-68691280D01*
X33746280Y-68530960D01*
X33934797Y-68404997D01*
X34144266Y-68318232D01*
X34255451Y-68296116D01*
X34366635Y-68274000D01*
X34593365Y-68274000D01*
X34704549Y-68296116D01*
G37*
G36*
X22308228Y-68461703D02*
G01*
X22463100Y-68525853D01*
X22602481Y-68618985D01*
X22721015Y-68737519D01*
X22814147Y-68876900D01*
X22878297Y-69031772D01*
X22911000Y-69196184D01*
X22911000Y-69363816D01*
X22878297Y-69528228D01*
X22814147Y-69683100D01*
X22721015Y-69822481D01*
X22602481Y-69941015D01*
X22463100Y-70034147D01*
X22308228Y-70098297D01*
X22143816Y-70131000D01*
X21976184Y-70131000D01*
X21811772Y-70098297D01*
X21656900Y-70034147D01*
X21517519Y-69941015D01*
X21398985Y-69822481D01*
X21305853Y-69683100D01*
X21241703Y-69528228D01*
X21209000Y-69363816D01*
X21209000Y-69196184D01*
X21241703Y-69031772D01*
X21305853Y-68876900D01*
X21398985Y-68737519D01*
X21517519Y-68618985D01*
X21656900Y-68525853D01*
X21811772Y-68461703D01*
X21976184Y-68429000D01*
X22143816Y-68429000D01*
X22308228Y-68461703D01*
G37*
G36*
X27388228Y-68461703D02*
G01*
X27543100Y-68525853D01*
X27682481Y-68618985D01*
X27801015Y-68737519D01*
X27894147Y-68876900D01*
X27958297Y-69031772D01*
X27991000Y-69196184D01*
X27991000Y-69363816D01*
X27958297Y-69528228D01*
X27894147Y-69683100D01*
X27801015Y-69822481D01*
X27682481Y-69941015D01*
X27543100Y-70034147D01*
X27388228Y-70098297D01*
X27223816Y-70131000D01*
X27056184Y-70131000D01*
X26891772Y-70098297D01*
X26736900Y-70034147D01*
X26597519Y-69941015D01*
X26478985Y-69822481D01*
X26385853Y-69683100D01*
X26321703Y-69528228D01*
X26289000Y-69363816D01*
X26289000Y-69196184D01*
X26321703Y-69031772D01*
X26385853Y-68876900D01*
X26478985Y-68737519D01*
X26597519Y-68618985D01*
X26736900Y-68525853D01*
X26891772Y-68461703D01*
X27056184Y-68429000D01*
X27223816Y-68429000D01*
X27388228Y-68461703D01*
G37*
G36*
X44438674Y-67903465D02*
G01*
X44476367Y-67914899D01*
X44511103Y-67933466D01*
X44541548Y-67958452D01*
X44566534Y-67988897D01*
X44585101Y-68023633D01*
X44596535Y-68061326D01*
X44601000Y-68106661D01*
X44601000Y-69193339D01*
X44596535Y-69238674D01*
X44585101Y-69276367D01*
X44566534Y-69311103D01*
X44541548Y-69341548D01*
X44511103Y-69366534D01*
X44476367Y-69385101D01*
X44438674Y-69396535D01*
X44393339Y-69401000D01*
X43556661Y-69401000D01*
X43511326Y-69396535D01*
X43473633Y-69385101D01*
X43438897Y-69366534D01*
X43408452Y-69341548D01*
X43383466Y-69311103D01*
X43364899Y-69276367D01*
X43353465Y-69238674D01*
X43349000Y-69193339D01*
X43349000Y-68106661D01*
X43353465Y-68061326D01*
X43364899Y-68023633D01*
X43383466Y-67988897D01*
X43408452Y-67958452D01*
X43438897Y-67933466D01*
X43473633Y-67914899D01*
X43511326Y-67903465D01*
X43556661Y-67899000D01*
X44393339Y-67899000D01*
X44438674Y-67903465D01*
G37*
G36*
X46488674Y-67903465D02*
G01*
X46526367Y-67914899D01*
X46561103Y-67933466D01*
X46591548Y-67958452D01*
X46616534Y-67988897D01*
X46635101Y-68023633D01*
X46646535Y-68061326D01*
X46651000Y-68106661D01*
X46651000Y-69193339D01*
X46646535Y-69238674D01*
X46635101Y-69276367D01*
X46616534Y-69311103D01*
X46591548Y-69341548D01*
X46561103Y-69366534D01*
X46526367Y-69385101D01*
X46488674Y-69396535D01*
X46443339Y-69401000D01*
X45606661Y-69401000D01*
X45561326Y-69396535D01*
X45523633Y-69385101D01*
X45488897Y-69366534D01*
X45458452Y-69341548D01*
X45433466Y-69311103D01*
X45414899Y-69276367D01*
X45403465Y-69238674D01*
X45399000Y-69193339D01*
X45399000Y-68106661D01*
X45403465Y-68061326D01*
X45414899Y-68023633D01*
X45433466Y-67988897D01*
X45458452Y-67958452D01*
X45488897Y-67933466D01*
X45523633Y-67914899D01*
X45561326Y-67903465D01*
X45606661Y-67899000D01*
X46443339Y-67899000D01*
X46488674Y-67903465D01*
G37*
G36*
X51588674Y-67953465D02*
G01*
X51626367Y-67964899D01*
X51661103Y-67983466D01*
X51691548Y-68008452D01*
X51716534Y-68038897D01*
X51735101Y-68073633D01*
X51746535Y-68111326D01*
X51751000Y-68156661D01*
X51751000Y-68993339D01*
X51746535Y-69038674D01*
X51735101Y-69076367D01*
X51716534Y-69111103D01*
X51691548Y-69141548D01*
X51661103Y-69166534D01*
X51626367Y-69185101D01*
X51588674Y-69196535D01*
X51543339Y-69201000D01*
X50456661Y-69201000D01*
X50411326Y-69196535D01*
X50373633Y-69185101D01*
X50338897Y-69166534D01*
X50308452Y-69141548D01*
X50283466Y-69111103D01*
X50264899Y-69076367D01*
X50253465Y-69038674D01*
X50249000Y-68993339D01*
X50249000Y-68156661D01*
X50253465Y-68111326D01*
X50264899Y-68073633D01*
X50283466Y-68038897D01*
X50308452Y-68008452D01*
X50338897Y-67983466D01*
X50373633Y-67964899D01*
X50411326Y-67953465D01*
X50456661Y-67949000D01*
X51543339Y-67949000D01*
X51588674Y-67953465D01*
G37*
G36*
X29624549Y-66391116D02*
G01*
X29735734Y-66413232D01*
X29945203Y-66499997D01*
X30133720Y-66625960D01*
X30294040Y-66786280D01*
X30420003Y-66974797D01*
X30495060Y-67156000D01*
X30506768Y-67184267D01*
X30545031Y-67376625D01*
X30551000Y-67406636D01*
X30551000Y-67633364D01*
X30506768Y-67855734D01*
X30464221Y-67958452D01*
X30438743Y-68019962D01*
X30420003Y-68065203D01*
X30294040Y-68253720D01*
X30133720Y-68414040D01*
X29945203Y-68540003D01*
X29735734Y-68626768D01*
X29624549Y-68648884D01*
X29513365Y-68671000D01*
X29286635Y-68671000D01*
X29175451Y-68648884D01*
X29064266Y-68626768D01*
X28854797Y-68540003D01*
X28666280Y-68414040D01*
X28505960Y-68253720D01*
X28379997Y-68065203D01*
X28361258Y-68019962D01*
X28335779Y-67958452D01*
X28293232Y-67855734D01*
X28249000Y-67633364D01*
X28249000Y-67406636D01*
X28254970Y-67376625D01*
X28293232Y-67184267D01*
X28304941Y-67156000D01*
X28379997Y-66974797D01*
X28505960Y-66786280D01*
X28666280Y-66625960D01*
X28854797Y-66499997D01*
X29064266Y-66413232D01*
X29175451Y-66391116D01*
X29286635Y-66369000D01*
X29513365Y-66369000D01*
X29624549Y-66391116D01*
G37*
G36*
X55935443Y-66305519D02*
G01*
X56001627Y-66312037D01*
X56171466Y-66363557D01*
X56327991Y-66447222D01*
X56347411Y-66463160D01*
X56465186Y-66559814D01*
X56548448Y-66661271D01*
X56577778Y-66697009D01*
X56577779Y-66697011D01*
X56645461Y-66823633D01*
X56661443Y-66853534D01*
X56712963Y-67023373D01*
X56730359Y-67200000D01*
X56712963Y-67376627D01*
X56661443Y-67546466D01*
X56577778Y-67702991D01*
X56554032Y-67731925D01*
X56465186Y-67840186D01*
X56363729Y-67923448D01*
X56327991Y-67952778D01*
X56171466Y-68036443D01*
X56001627Y-68087963D01*
X55935443Y-68094481D01*
X55869260Y-68101000D01*
X55530740Y-68101000D01*
X55464557Y-68094481D01*
X55398373Y-68087963D01*
X55228534Y-68036443D01*
X55072009Y-67952778D01*
X55036271Y-67923448D01*
X54934814Y-67840186D01*
X54845968Y-67731925D01*
X54822222Y-67702991D01*
X54738557Y-67546466D01*
X54687037Y-67376627D01*
X54669641Y-67200000D01*
X54687037Y-67023373D01*
X54738557Y-66853534D01*
X54754540Y-66823633D01*
X54822221Y-66697011D01*
X54822222Y-66697009D01*
X54851552Y-66661271D01*
X54934814Y-66559814D01*
X55052589Y-66463160D01*
X55072009Y-66447222D01*
X55228534Y-66363557D01*
X55398373Y-66312037D01*
X55464557Y-66305519D01*
X55530740Y-66299000D01*
X55869260Y-66299000D01*
X55935443Y-66305519D01*
G37*
G36*
X40088674Y-66703465D02*
G01*
X40126367Y-66714899D01*
X40161103Y-66733466D01*
X40191548Y-66758452D01*
X40216534Y-66788897D01*
X40235101Y-66823633D01*
X40246535Y-66861326D01*
X40251000Y-66906661D01*
X40251000Y-67743339D01*
X40246535Y-67788674D01*
X40235101Y-67826367D01*
X40216534Y-67861103D01*
X40191548Y-67891548D01*
X40161103Y-67916534D01*
X40126367Y-67935101D01*
X40088674Y-67946535D01*
X40043339Y-67951000D01*
X38956661Y-67951000D01*
X38911326Y-67946535D01*
X38873633Y-67935101D01*
X38838897Y-67916534D01*
X38808452Y-67891548D01*
X38783466Y-67861103D01*
X38764899Y-67826367D01*
X38753465Y-67788674D01*
X38749000Y-67743339D01*
X38749000Y-66906661D01*
X38753465Y-66861326D01*
X38764899Y-66823633D01*
X38783466Y-66788897D01*
X38808452Y-66758452D01*
X38838897Y-66733466D01*
X38873633Y-66714899D01*
X38911326Y-66703465D01*
X38956661Y-66699000D01*
X40043339Y-66699000D01*
X40088674Y-66703465D01*
G37*
G36*
X48409928Y-66456764D02*
G01*
X48431009Y-66463160D01*
X48450445Y-66473548D01*
X48467476Y-66487524D01*
X48481452Y-66504555D01*
X48491840Y-66523991D01*
X48498236Y-66545072D01*
X48501000Y-66573140D01*
X48501000Y-67036860D01*
X48498236Y-67064928D01*
X48491840Y-67086009D01*
X48481452Y-67105445D01*
X48467476Y-67122476D01*
X48450445Y-67136452D01*
X48431009Y-67146840D01*
X48409928Y-67153236D01*
X48381860Y-67156000D01*
X46568140Y-67156000D01*
X46540072Y-67153236D01*
X46518991Y-67146840D01*
X46499555Y-67136452D01*
X46482524Y-67122476D01*
X46468548Y-67105445D01*
X46458160Y-67086009D01*
X46451764Y-67064928D01*
X46449000Y-67036860D01*
X46449000Y-66573140D01*
X46451764Y-66545072D01*
X46458160Y-66523991D01*
X46468548Y-66504555D01*
X46482524Y-66487524D01*
X46499555Y-66473548D01*
X46518991Y-66463160D01*
X46540072Y-66456764D01*
X46568140Y-66454000D01*
X48381860Y-66454000D01*
X48409928Y-66456764D01*
G37*
G36*
X43459928Y-66456764D02*
G01*
X43481009Y-66463160D01*
X43500445Y-66473548D01*
X43517476Y-66487524D01*
X43531452Y-66504555D01*
X43541840Y-66523991D01*
X43548236Y-66545072D01*
X43551000Y-66573140D01*
X43551000Y-67036860D01*
X43548236Y-67064928D01*
X43541840Y-67086009D01*
X43531452Y-67105445D01*
X43517476Y-67122476D01*
X43500445Y-67136452D01*
X43481009Y-67146840D01*
X43459928Y-67153236D01*
X43431860Y-67156000D01*
X41618140Y-67156000D01*
X41590072Y-67153236D01*
X41568991Y-67146840D01*
X41549555Y-67136452D01*
X41532524Y-67122476D01*
X41518548Y-67105445D01*
X41508160Y-67086009D01*
X41501764Y-67064928D01*
X41499000Y-67036860D01*
X41499000Y-66573140D01*
X41501764Y-66545072D01*
X41508160Y-66523991D01*
X41518548Y-66504555D01*
X41532524Y-66487524D01*
X41549555Y-66473548D01*
X41568991Y-66463160D01*
X41590072Y-66456764D01*
X41618140Y-66454000D01*
X43431860Y-66454000D01*
X43459928Y-66456764D01*
G37*
G36*
X51588674Y-65903465D02*
G01*
X51626367Y-65914899D01*
X51661103Y-65933466D01*
X51691548Y-65958452D01*
X51716534Y-65988897D01*
X51735101Y-66023633D01*
X51746535Y-66061326D01*
X51751000Y-66106661D01*
X51751000Y-66943339D01*
X51746535Y-66988674D01*
X51735101Y-67026367D01*
X51716534Y-67061103D01*
X51691548Y-67091548D01*
X51661103Y-67116534D01*
X51626367Y-67135101D01*
X51588674Y-67146535D01*
X51543339Y-67151000D01*
X50456661Y-67151000D01*
X50411326Y-67146535D01*
X50373633Y-67135101D01*
X50338897Y-67116534D01*
X50308452Y-67091548D01*
X50283466Y-67061103D01*
X50264899Y-67026367D01*
X50253465Y-66988674D01*
X50249000Y-66943339D01*
X50249000Y-66106661D01*
X50253465Y-66061326D01*
X50264899Y-66023633D01*
X50283466Y-65988897D01*
X50308452Y-65958452D01*
X50338897Y-65933466D01*
X50373633Y-65914899D01*
X50411326Y-65903465D01*
X50456661Y-65899000D01*
X51543339Y-65899000D01*
X51588674Y-65903465D01*
G37*
G36*
X34647348Y-64474738D02*
G01*
X34815734Y-64508232D01*
X35025203Y-64594997D01*
X35213720Y-64720960D01*
X35374040Y-64881280D01*
X35500003Y-65069797D01*
X35586768Y-65279266D01*
X35598886Y-65340186D01*
X35631000Y-65501635D01*
X35631000Y-65728365D01*
X35619989Y-65783719D01*
X35586768Y-65950734D01*
X35500003Y-66160203D01*
X35374040Y-66348720D01*
X35213720Y-66509040D01*
X35025203Y-66635003D01*
X34815734Y-66721768D01*
X34756924Y-66733466D01*
X34593365Y-66766000D01*
X34366635Y-66766000D01*
X34203076Y-66733466D01*
X34144266Y-66721768D01*
X33934797Y-66635003D01*
X33746280Y-66509040D01*
X33585960Y-66348720D01*
X33459997Y-66160203D01*
X33373232Y-65950734D01*
X33340011Y-65783719D01*
X33329000Y-65728365D01*
X33329000Y-65501635D01*
X33361114Y-65340186D01*
X33373232Y-65279266D01*
X33459997Y-65069797D01*
X33585960Y-64881280D01*
X33746280Y-64720960D01*
X33934797Y-64594997D01*
X34144266Y-64508232D01*
X34312652Y-64474738D01*
X34366635Y-64464000D01*
X34593365Y-64464000D01*
X34647348Y-64474738D01*
G37*
G36*
X69251514Y-63916534D02*
G01*
X69385734Y-63943232D01*
X69595203Y-64029997D01*
X69783720Y-64155960D01*
X69944040Y-64316280D01*
X70070003Y-64504797D01*
X70070004Y-64504799D01*
X70077698Y-64523375D01*
X70156768Y-64714266D01*
X70168577Y-64773633D01*
X70201000Y-64936635D01*
X70201000Y-65163365D01*
X70196225Y-65187372D01*
X70156768Y-65385734D01*
X70070003Y-65595203D01*
X69944040Y-65783720D01*
X69783720Y-65944040D01*
X69595203Y-66070003D01*
X69385734Y-66156768D01*
X69313315Y-66171173D01*
X69163365Y-66201000D01*
X68936635Y-66201000D01*
X68786685Y-66171173D01*
X68714266Y-66156768D01*
X68504797Y-66070003D01*
X68316280Y-65944040D01*
X68155960Y-65783720D01*
X68029997Y-65595203D01*
X67943232Y-65385734D01*
X67903775Y-65187372D01*
X67899000Y-65163365D01*
X67899000Y-64936635D01*
X67931423Y-64773633D01*
X67943232Y-64714266D01*
X68022302Y-64523375D01*
X68029996Y-64504799D01*
X68029997Y-64504797D01*
X68155960Y-64316280D01*
X68316280Y-64155960D01*
X68504797Y-64029997D01*
X68714266Y-63943232D01*
X68848486Y-63916534D01*
X68936635Y-63899000D01*
X69163365Y-63899000D01*
X69251514Y-63916534D01*
G37*
G36*
X40088674Y-64653465D02*
G01*
X40126367Y-64664899D01*
X40161103Y-64683466D01*
X40191548Y-64708452D01*
X40216534Y-64738897D01*
X40235101Y-64773633D01*
X40246535Y-64811326D01*
X40251000Y-64856661D01*
X40251000Y-65693339D01*
X40246535Y-65738674D01*
X40235101Y-65776367D01*
X40216534Y-65811103D01*
X40191548Y-65841548D01*
X40161103Y-65866534D01*
X40126367Y-65885101D01*
X40088674Y-65896535D01*
X40043339Y-65901000D01*
X38956661Y-65901000D01*
X38911326Y-65896535D01*
X38873633Y-65885101D01*
X38838897Y-65866534D01*
X38808452Y-65841548D01*
X38783466Y-65811103D01*
X38764899Y-65776367D01*
X38753465Y-65738674D01*
X38749000Y-65693339D01*
X38749000Y-64856661D01*
X38753465Y-64811326D01*
X38764899Y-64773633D01*
X38783466Y-64738897D01*
X38808452Y-64708452D01*
X38838897Y-64683466D01*
X38873633Y-64664899D01*
X38911326Y-64653465D01*
X38956661Y-64649000D01*
X40043339Y-64649000D01*
X40088674Y-64653465D01*
G37*
G36*
X48409928Y-65186764D02*
G01*
X48431009Y-65193160D01*
X48450445Y-65203548D01*
X48467476Y-65217524D01*
X48481452Y-65234555D01*
X48491840Y-65253991D01*
X48498236Y-65275072D01*
X48501000Y-65303140D01*
X48501000Y-65766860D01*
X48498236Y-65794928D01*
X48491840Y-65816009D01*
X48481452Y-65835445D01*
X48467476Y-65852476D01*
X48450445Y-65866452D01*
X48431009Y-65876840D01*
X48409928Y-65883236D01*
X48381860Y-65886000D01*
X46568140Y-65886000D01*
X46540072Y-65883236D01*
X46518991Y-65876840D01*
X46499555Y-65866452D01*
X46482524Y-65852476D01*
X46468548Y-65835445D01*
X46458160Y-65816009D01*
X46451764Y-65794928D01*
X46449000Y-65766860D01*
X46449000Y-65303140D01*
X46451764Y-65275072D01*
X46458160Y-65253991D01*
X46468548Y-65234555D01*
X46482524Y-65217524D01*
X46499555Y-65203548D01*
X46518991Y-65193160D01*
X46540072Y-65186764D01*
X46568140Y-65184000D01*
X48381860Y-65184000D01*
X48409928Y-65186764D01*
G37*
G36*
X43459928Y-65186764D02*
G01*
X43481009Y-65193160D01*
X43500445Y-65203548D01*
X43517476Y-65217524D01*
X43531452Y-65234555D01*
X43541840Y-65253991D01*
X43548236Y-65275072D01*
X43551000Y-65303140D01*
X43551000Y-65766860D01*
X43548236Y-65794928D01*
X43541840Y-65816009D01*
X43531452Y-65835445D01*
X43517476Y-65852476D01*
X43500445Y-65866452D01*
X43481009Y-65876840D01*
X43459928Y-65883236D01*
X43431860Y-65886000D01*
X41618140Y-65886000D01*
X41590072Y-65883236D01*
X41568991Y-65876840D01*
X41549555Y-65866452D01*
X41532524Y-65852476D01*
X41518548Y-65835445D01*
X41508160Y-65816009D01*
X41501764Y-65794928D01*
X41499000Y-65766860D01*
X41499000Y-65303140D01*
X41501764Y-65275072D01*
X41508160Y-65253991D01*
X41518548Y-65234555D01*
X41532524Y-65217524D01*
X41549555Y-65203548D01*
X41568991Y-65193160D01*
X41590072Y-65186764D01*
X41618140Y-65184000D01*
X43431860Y-65184000D01*
X43459928Y-65186764D01*
G37*
G36*
X55935442Y-63805518D02*
G01*
X56001627Y-63812037D01*
X56171466Y-63863557D01*
X56327991Y-63947222D01*
X56332594Y-63951000D01*
X56465186Y-64059814D01*
X56544090Y-64155960D01*
X56577778Y-64197009D01*
X56661443Y-64353534D01*
X56712963Y-64523373D01*
X56730359Y-64700000D01*
X56712963Y-64876627D01*
X56661443Y-65046466D01*
X56577778Y-65202991D01*
X56569090Y-65213577D01*
X56465186Y-65340186D01*
X56363729Y-65423448D01*
X56327991Y-65452778D01*
X56171466Y-65536443D01*
X56001627Y-65587963D01*
X55935442Y-65594482D01*
X55869260Y-65601000D01*
X55530740Y-65601000D01*
X55464558Y-65594482D01*
X55398373Y-65587963D01*
X55228534Y-65536443D01*
X55072009Y-65452778D01*
X55036271Y-65423448D01*
X54934814Y-65340186D01*
X54830910Y-65213577D01*
X54822222Y-65202991D01*
X54738557Y-65046466D01*
X54687037Y-64876627D01*
X54669641Y-64700000D01*
X54687037Y-64523373D01*
X54738557Y-64353534D01*
X54822222Y-64197009D01*
X54855910Y-64155960D01*
X54934814Y-64059814D01*
X55067406Y-63951000D01*
X55072009Y-63947222D01*
X55228534Y-63863557D01*
X55398373Y-63812037D01*
X55464558Y-63805518D01*
X55530740Y-63799000D01*
X55869260Y-63799000D01*
X55935442Y-63805518D01*
G37*
G36*
X29624549Y-62581116D02*
G01*
X29735734Y-62603232D01*
X29945203Y-62689997D01*
X30133720Y-62815960D01*
X30294040Y-62976280D01*
X30420003Y-63164797D01*
X30495060Y-63346000D01*
X30506768Y-63374267D01*
X30551000Y-63596635D01*
X30551000Y-63823365D01*
X30549168Y-63832574D01*
X30506768Y-64045734D01*
X30420003Y-64255203D01*
X30294040Y-64443720D01*
X30133720Y-64604040D01*
X29945203Y-64730003D01*
X29735734Y-64816768D01*
X29624549Y-64838884D01*
X29513365Y-64861000D01*
X29286635Y-64861000D01*
X29175451Y-64838884D01*
X29064266Y-64816768D01*
X28854797Y-64730003D01*
X28666280Y-64604040D01*
X28505960Y-64443720D01*
X28379997Y-64255203D01*
X28293232Y-64045734D01*
X28250832Y-63832574D01*
X28249000Y-63823365D01*
X28249000Y-63596635D01*
X28293232Y-63374267D01*
X28304941Y-63346000D01*
X28379997Y-63164797D01*
X28505960Y-62976280D01*
X28666280Y-62815960D01*
X28854797Y-62689997D01*
X29064266Y-62603232D01*
X29175451Y-62581116D01*
X29286635Y-62559000D01*
X29513365Y-62559000D01*
X29624549Y-62581116D01*
G37*
G36*
X48409928Y-63916764D02*
G01*
X48431009Y-63923160D01*
X48450445Y-63933548D01*
X48467476Y-63947524D01*
X48481452Y-63964555D01*
X48491840Y-63983991D01*
X48498236Y-64005072D01*
X48501000Y-64033140D01*
X48501000Y-64496860D01*
X48498236Y-64524928D01*
X48491840Y-64546009D01*
X48481452Y-64565445D01*
X48467476Y-64582476D01*
X48450445Y-64596452D01*
X48431009Y-64606840D01*
X48409928Y-64613236D01*
X48381860Y-64616000D01*
X46568140Y-64616000D01*
X46540072Y-64613236D01*
X46518991Y-64606840D01*
X46499555Y-64596452D01*
X46482524Y-64582476D01*
X46468548Y-64565445D01*
X46458160Y-64546009D01*
X46451764Y-64524928D01*
X46449000Y-64496860D01*
X46449000Y-64033140D01*
X46451764Y-64005072D01*
X46458160Y-63983991D01*
X46468548Y-63964555D01*
X46482524Y-63947524D01*
X46499555Y-63933548D01*
X46518991Y-63923160D01*
X46540072Y-63916764D01*
X46568140Y-63914000D01*
X48381860Y-63914000D01*
X48409928Y-63916764D01*
G37*
G36*
X43459928Y-63916764D02*
G01*
X43481009Y-63923160D01*
X43500445Y-63933548D01*
X43517476Y-63947524D01*
X43531452Y-63964555D01*
X43541840Y-63983991D01*
X43548236Y-64005072D01*
X43551000Y-64033140D01*
X43551000Y-64496860D01*
X43548236Y-64524928D01*
X43541840Y-64546009D01*
X43531452Y-64565445D01*
X43517476Y-64582476D01*
X43500445Y-64596452D01*
X43481009Y-64606840D01*
X43459928Y-64613236D01*
X43431860Y-64616000D01*
X41618140Y-64616000D01*
X41590072Y-64613236D01*
X41568991Y-64606840D01*
X41549555Y-64596452D01*
X41532524Y-64582476D01*
X41518548Y-64565445D01*
X41508160Y-64546009D01*
X41501764Y-64524928D01*
X41499000Y-64496860D01*
X41499000Y-64033140D01*
X41501764Y-64005072D01*
X41508160Y-63983991D01*
X41518548Y-63964555D01*
X41532524Y-63947524D01*
X41549555Y-63933548D01*
X41568991Y-63923160D01*
X41590072Y-63916764D01*
X41618140Y-63914000D01*
X43431860Y-63914000D01*
X43459928Y-63916764D01*
G37*
G36*
X51588674Y-63203465D02*
G01*
X51626367Y-63214899D01*
X51661103Y-63233466D01*
X51691548Y-63258452D01*
X51716534Y-63288897D01*
X51735101Y-63323633D01*
X51746535Y-63361326D01*
X51751000Y-63406661D01*
X51751000Y-64243339D01*
X51746535Y-64288674D01*
X51735101Y-64326367D01*
X51716534Y-64361103D01*
X51691548Y-64391548D01*
X51661103Y-64416534D01*
X51626367Y-64435101D01*
X51588674Y-64446535D01*
X51543339Y-64451000D01*
X50456661Y-64451000D01*
X50411326Y-64446535D01*
X50373633Y-64435101D01*
X50338897Y-64416534D01*
X50308452Y-64391548D01*
X50283466Y-64361103D01*
X50264899Y-64326367D01*
X50253465Y-64288674D01*
X50249000Y-64243339D01*
X50249000Y-63406661D01*
X50253465Y-63361326D01*
X50264899Y-63323633D01*
X50283466Y-63288897D01*
X50308452Y-63258452D01*
X50338897Y-63233466D01*
X50373633Y-63214899D01*
X50411326Y-63203465D01*
X50456661Y-63199000D01*
X51543339Y-63199000D01*
X51588674Y-63203465D01*
G37*
G36*
X40088674Y-62703465D02*
G01*
X40126367Y-62714899D01*
X40161103Y-62733466D01*
X40191548Y-62758452D01*
X40216534Y-62788897D01*
X40235101Y-62823633D01*
X40246535Y-62861326D01*
X40251000Y-62906661D01*
X40251000Y-63743339D01*
X40246535Y-63788674D01*
X40235101Y-63826367D01*
X40216534Y-63861103D01*
X40191548Y-63891548D01*
X40161103Y-63916534D01*
X40126367Y-63935101D01*
X40088674Y-63946535D01*
X40043339Y-63951000D01*
X38956661Y-63951000D01*
X38911326Y-63946535D01*
X38873633Y-63935101D01*
X38838897Y-63916534D01*
X38808452Y-63891548D01*
X38783466Y-63861103D01*
X38764899Y-63826367D01*
X38753465Y-63788674D01*
X38749000Y-63743339D01*
X38749000Y-62906661D01*
X38753465Y-62861326D01*
X38764899Y-62823633D01*
X38783466Y-62788897D01*
X38808452Y-62758452D01*
X38838897Y-62733466D01*
X38873633Y-62714899D01*
X38911326Y-62703465D01*
X38956661Y-62699000D01*
X40043339Y-62699000D01*
X40088674Y-62703465D01*
G37*
G36*
X25048903Y-59363213D02*
G01*
X25271177Y-59407426D01*
X25689932Y-59580880D01*
X26066802Y-59832696D01*
X26387304Y-60153198D01*
X26639120Y-60530068D01*
X26801121Y-60921173D01*
X26812574Y-60948824D01*
X26901000Y-61393370D01*
X26901000Y-61846630D01*
X26865843Y-62023375D01*
X26812574Y-62291177D01*
X26639120Y-62709932D01*
X26387304Y-63086802D01*
X26066802Y-63407304D01*
X25689932Y-63659120D01*
X25271177Y-63832574D01*
X25048903Y-63876787D01*
X24826630Y-63921000D01*
X24373370Y-63921000D01*
X24151097Y-63876787D01*
X23928823Y-63832574D01*
X23510068Y-63659120D01*
X23133198Y-63407304D01*
X22812696Y-63086802D01*
X22560880Y-62709932D01*
X22387426Y-62291177D01*
X22334157Y-62023375D01*
X22299000Y-61846630D01*
X22299000Y-61393370D01*
X22387426Y-60948824D01*
X22398879Y-60921173D01*
X22560880Y-60530068D01*
X22812696Y-60153198D01*
X23133198Y-59832696D01*
X23510068Y-59580880D01*
X23928823Y-59407426D01*
X24151097Y-59363213D01*
X24373370Y-59319000D01*
X24826630Y-59319000D01*
X25048903Y-59363213D01*
G37*
G36*
X43459928Y-62646764D02*
G01*
X43481009Y-62653160D01*
X43500445Y-62663548D01*
X43517476Y-62677524D01*
X43531452Y-62694555D01*
X43541840Y-62713991D01*
X43548236Y-62735072D01*
X43551000Y-62763140D01*
X43551000Y-63226860D01*
X43548236Y-63254928D01*
X43541840Y-63276009D01*
X43531452Y-63295445D01*
X43517476Y-63312476D01*
X43500445Y-63326452D01*
X43481009Y-63336840D01*
X43459928Y-63343236D01*
X43431860Y-63346000D01*
X41618140Y-63346000D01*
X41590072Y-63343236D01*
X41568991Y-63336840D01*
X41549555Y-63326452D01*
X41532524Y-63312476D01*
X41518548Y-63295445D01*
X41508160Y-63276009D01*
X41501764Y-63254928D01*
X41499000Y-63226860D01*
X41499000Y-62763140D01*
X41501764Y-62735072D01*
X41508160Y-62713991D01*
X41518548Y-62694555D01*
X41532524Y-62677524D01*
X41549555Y-62663548D01*
X41568991Y-62653160D01*
X41590072Y-62646764D01*
X41618140Y-62644000D01*
X43431860Y-62644000D01*
X43459928Y-62646764D01*
G37*
G36*
X48409928Y-62646764D02*
G01*
X48431009Y-62653160D01*
X48450445Y-62663548D01*
X48467476Y-62677524D01*
X48481452Y-62694555D01*
X48491840Y-62713991D01*
X48498236Y-62735072D01*
X48501000Y-62763140D01*
X48501000Y-63226860D01*
X48498236Y-63254928D01*
X48491840Y-63276009D01*
X48481452Y-63295445D01*
X48467476Y-63312476D01*
X48450445Y-63326452D01*
X48431009Y-63336840D01*
X48409928Y-63343236D01*
X48381860Y-63346000D01*
X46568140Y-63346000D01*
X46540072Y-63343236D01*
X46518991Y-63336840D01*
X46499555Y-63326452D01*
X46482524Y-63312476D01*
X46468548Y-63295445D01*
X46458160Y-63276009D01*
X46451764Y-63254928D01*
X46449000Y-63226860D01*
X46449000Y-62763140D01*
X46451764Y-62735072D01*
X46458160Y-62713991D01*
X46468548Y-62694555D01*
X46482524Y-62677524D01*
X46499555Y-62663548D01*
X46518991Y-62653160D01*
X46540072Y-62646764D01*
X46568140Y-62644000D01*
X48381860Y-62644000D01*
X48409928Y-62646764D01*
G37*
G36*
X55935443Y-61305519D02*
G01*
X56001627Y-61312037D01*
X56171466Y-61363557D01*
X56327991Y-61447222D01*
X56354853Y-61469267D01*
X56465186Y-61559814D01*
X56548448Y-61661271D01*
X56577778Y-61697009D01*
X56661443Y-61853534D01*
X56712963Y-62023373D01*
X56730359Y-62200000D01*
X56712963Y-62376627D01*
X56661443Y-62546466D01*
X56577778Y-62702991D01*
X56568750Y-62713991D01*
X56465186Y-62840186D01*
X56363729Y-62923448D01*
X56327991Y-62952778D01*
X56171466Y-63036443D01*
X56001627Y-63087963D01*
X55935442Y-63094482D01*
X55869260Y-63101000D01*
X55530740Y-63101000D01*
X55464558Y-63094482D01*
X55398373Y-63087963D01*
X55228534Y-63036443D01*
X55072009Y-62952778D01*
X55036271Y-62923448D01*
X54934814Y-62840186D01*
X54831250Y-62713991D01*
X54822222Y-62702991D01*
X54738557Y-62546466D01*
X54687037Y-62376627D01*
X54669641Y-62200000D01*
X54687037Y-62023373D01*
X54738557Y-61853534D01*
X54822222Y-61697009D01*
X54851552Y-61661271D01*
X54934814Y-61559814D01*
X55045147Y-61469267D01*
X55072009Y-61447222D01*
X55228534Y-61363557D01*
X55398373Y-61312037D01*
X55464557Y-61305519D01*
X55530740Y-61299000D01*
X55869260Y-61299000D01*
X55935443Y-61305519D01*
G37*
G36*
X34672384Y-60669718D02*
G01*
X34815734Y-60698232D01*
X34913908Y-60738897D01*
X34988906Y-60769962D01*
X35025203Y-60784997D01*
X35213720Y-60910960D01*
X35374040Y-61071280D01*
X35494125Y-61251000D01*
X35500004Y-61259799D01*
X35505734Y-61273633D01*
X35577637Y-61447221D01*
X35586768Y-61469267D01*
X35631000Y-61691635D01*
X35631000Y-61918365D01*
X35586768Y-62140733D01*
X35511983Y-62321282D01*
X35500003Y-62350203D01*
X35374040Y-62538720D01*
X35213720Y-62699040D01*
X35025203Y-62825003D01*
X35025202Y-62825004D01*
X35025201Y-62825004D01*
X34988548Y-62840186D01*
X34815734Y-62911768D01*
X34784026Y-62918075D01*
X34593365Y-62956000D01*
X34366635Y-62956000D01*
X34175974Y-62918075D01*
X34144266Y-62911768D01*
X33971452Y-62840186D01*
X33934799Y-62825004D01*
X33934798Y-62825004D01*
X33934797Y-62825003D01*
X33746280Y-62699040D01*
X33585960Y-62538720D01*
X33459997Y-62350203D01*
X33448018Y-62321282D01*
X33373232Y-62140733D01*
X33329000Y-61918365D01*
X33329000Y-61691635D01*
X33373232Y-61469267D01*
X33382364Y-61447221D01*
X33454266Y-61273633D01*
X33459996Y-61259799D01*
X33465875Y-61251000D01*
X33585960Y-61071280D01*
X33746280Y-60910960D01*
X33934797Y-60784997D01*
X33971095Y-60769962D01*
X34046092Y-60738897D01*
X34144266Y-60698232D01*
X34287616Y-60669718D01*
X34366635Y-60654000D01*
X34593365Y-60654000D01*
X34672384Y-60669718D01*
G37*
G36*
X51588674Y-61153465D02*
G01*
X51626367Y-61164899D01*
X51661103Y-61183466D01*
X51691548Y-61208452D01*
X51716534Y-61238897D01*
X51735101Y-61273633D01*
X51746535Y-61311326D01*
X51751000Y-61356661D01*
X51751000Y-62193339D01*
X51746535Y-62238674D01*
X51735101Y-62276367D01*
X51716534Y-62311103D01*
X51691548Y-62341548D01*
X51661103Y-62366534D01*
X51626367Y-62385101D01*
X51588674Y-62396535D01*
X51543339Y-62401000D01*
X50456661Y-62401000D01*
X50411326Y-62396535D01*
X50373633Y-62385101D01*
X50338897Y-62366534D01*
X50308452Y-62341548D01*
X50283466Y-62311103D01*
X50264899Y-62276367D01*
X50253465Y-62238674D01*
X50249000Y-62193339D01*
X50249000Y-61356661D01*
X50253465Y-61311326D01*
X50264899Y-61273633D01*
X50283466Y-61238897D01*
X50308452Y-61208452D01*
X50338897Y-61183466D01*
X50373633Y-61164899D01*
X50411326Y-61153465D01*
X50456661Y-61149000D01*
X51543339Y-61149000D01*
X51588674Y-61153465D01*
G37*
G36*
X66202585Y-59278802D02*
G01*
X66352410Y-59308604D01*
X66634674Y-59425521D01*
X66888705Y-59595259D01*
X67104741Y-59811295D01*
X67274479Y-60065326D01*
X67388329Y-60340186D01*
X67391396Y-60347591D01*
X67427694Y-60530070D01*
X67451000Y-60647240D01*
X67451000Y-60952760D01*
X67391396Y-61252410D01*
X67274479Y-61534674D01*
X67104741Y-61788705D01*
X66888705Y-62004741D01*
X66634674Y-62174479D01*
X66352410Y-62291396D01*
X66253336Y-62311103D01*
X66052761Y-62351000D01*
X65747239Y-62351000D01*
X65546664Y-62311103D01*
X65447590Y-62291396D01*
X65165326Y-62174479D01*
X64911295Y-62004741D01*
X64695259Y-61788705D01*
X64525521Y-61534674D01*
X64408604Y-61252410D01*
X64349000Y-60952760D01*
X64349000Y-60647240D01*
X64372307Y-60530070D01*
X64408604Y-60347591D01*
X64411671Y-60340186D01*
X64525521Y-60065326D01*
X64695259Y-59811295D01*
X64911295Y-59595259D01*
X65165326Y-59425521D01*
X65447590Y-59308604D01*
X65597415Y-59278802D01*
X65747239Y-59249000D01*
X66052761Y-59249000D01*
X66202585Y-59278802D01*
G37*
G36*
X61702585Y-59278802D02*
G01*
X61852410Y-59308604D01*
X62134674Y-59425521D01*
X62388705Y-59595259D01*
X62604741Y-59811295D01*
X62774479Y-60065326D01*
X62888329Y-60340186D01*
X62891396Y-60347591D01*
X62927694Y-60530070D01*
X62951000Y-60647240D01*
X62951000Y-60952760D01*
X62891396Y-61252410D01*
X62774479Y-61534674D01*
X62604741Y-61788705D01*
X62388705Y-62004741D01*
X62134674Y-62174479D01*
X61852410Y-62291396D01*
X61753336Y-62311103D01*
X61552761Y-62351000D01*
X61247239Y-62351000D01*
X61046664Y-62311103D01*
X60947590Y-62291396D01*
X60665326Y-62174479D01*
X60411295Y-62004741D01*
X60195259Y-61788705D01*
X60025521Y-61534674D01*
X59908604Y-61252410D01*
X59849000Y-60952760D01*
X59849000Y-60647240D01*
X59872307Y-60530070D01*
X59908604Y-60347591D01*
X59911671Y-60340186D01*
X60025521Y-60065326D01*
X60195259Y-59811295D01*
X60411295Y-59595259D01*
X60665326Y-59425521D01*
X60947590Y-59308604D01*
X61097415Y-59278802D01*
X61247239Y-59249000D01*
X61552761Y-59249000D01*
X61702585Y-59278802D01*
G37*
G36*
X40088674Y-60653465D02*
G01*
X40126367Y-60664899D01*
X40161103Y-60683466D01*
X40191548Y-60708452D01*
X40216534Y-60738897D01*
X40235101Y-60773633D01*
X40246535Y-60811326D01*
X40251000Y-60856661D01*
X40251000Y-61693339D01*
X40246535Y-61738674D01*
X40235101Y-61776367D01*
X40216534Y-61811103D01*
X40191548Y-61841548D01*
X40161103Y-61866534D01*
X40126367Y-61885101D01*
X40088674Y-61896535D01*
X40043339Y-61901000D01*
X38956661Y-61901000D01*
X38911326Y-61896535D01*
X38873633Y-61885101D01*
X38838897Y-61866534D01*
X38808452Y-61841548D01*
X38783466Y-61811103D01*
X38764899Y-61776367D01*
X38753465Y-61738674D01*
X38749000Y-61693339D01*
X38749000Y-60856661D01*
X38753465Y-60811326D01*
X38764899Y-60773633D01*
X38783466Y-60738897D01*
X38808452Y-60708452D01*
X38838897Y-60683466D01*
X38873633Y-60664899D01*
X38911326Y-60653465D01*
X38956661Y-60649000D01*
X40043339Y-60649000D01*
X40088674Y-60653465D01*
G37*
G36*
X46688674Y-59753465D02*
G01*
X46726367Y-59764899D01*
X46761103Y-59783466D01*
X46791548Y-59808452D01*
X46816534Y-59838897D01*
X46835101Y-59873633D01*
X46846535Y-59911326D01*
X46851000Y-59956661D01*
X46851000Y-61043339D01*
X46846535Y-61088674D01*
X46835101Y-61126367D01*
X46816534Y-61161103D01*
X46791548Y-61191548D01*
X46761103Y-61216534D01*
X46726367Y-61235101D01*
X46688674Y-61246535D01*
X46643339Y-61251000D01*
X45806661Y-61251000D01*
X45761326Y-61246535D01*
X45723633Y-61235101D01*
X45688897Y-61216534D01*
X45658452Y-61191548D01*
X45633466Y-61161103D01*
X45614899Y-61126367D01*
X45603465Y-61088674D01*
X45599000Y-61043339D01*
X45599000Y-59956661D01*
X45603465Y-59911326D01*
X45614899Y-59873633D01*
X45633466Y-59838897D01*
X45658452Y-59808452D01*
X45688897Y-59783466D01*
X45723633Y-59764899D01*
X45761326Y-59753465D01*
X45806661Y-59749000D01*
X46643339Y-59749000D01*
X46688674Y-59753465D01*
G37*
G36*
X44638674Y-59753465D02*
G01*
X44676367Y-59764899D01*
X44711103Y-59783466D01*
X44741548Y-59808452D01*
X44766534Y-59838897D01*
X44785101Y-59873633D01*
X44796535Y-59911326D01*
X44801000Y-59956661D01*
X44801000Y-61043339D01*
X44796535Y-61088674D01*
X44785101Y-61126367D01*
X44766534Y-61161103D01*
X44741548Y-61191548D01*
X44711103Y-61216534D01*
X44676367Y-61235101D01*
X44638674Y-61246535D01*
X44593339Y-61251000D01*
X43756661Y-61251000D01*
X43711326Y-61246535D01*
X43673633Y-61235101D01*
X43638897Y-61216534D01*
X43608452Y-61191548D01*
X43583466Y-61161103D01*
X43564899Y-61126367D01*
X43553465Y-61088674D01*
X43549000Y-61043339D01*
X43549000Y-59956661D01*
X43553465Y-59911326D01*
X43564899Y-59873633D01*
X43583466Y-59838897D01*
X43608452Y-59808452D01*
X43638897Y-59783466D01*
X43673633Y-59764899D01*
X43711326Y-59753465D01*
X43756661Y-59749000D01*
X44593339Y-59749000D01*
X44638674Y-59753465D01*
G37*
G36*
X55935443Y-58805519D02*
G01*
X56001627Y-58812037D01*
X56171466Y-58863557D01*
X56327991Y-58947222D01*
X56363729Y-58976552D01*
X56465186Y-59059814D01*
X56548448Y-59161271D01*
X56577778Y-59197009D01*
X56661443Y-59353534D01*
X56712963Y-59523373D01*
X56730359Y-59700000D01*
X56712963Y-59876627D01*
X56661443Y-60046466D01*
X56577778Y-60202991D01*
X56548448Y-60238729D01*
X56465186Y-60340186D01*
X56363729Y-60423448D01*
X56327991Y-60452778D01*
X56171466Y-60536443D01*
X56001627Y-60587963D01*
X55935442Y-60594482D01*
X55869260Y-60601000D01*
X55530740Y-60601000D01*
X55464558Y-60594482D01*
X55398373Y-60587963D01*
X55228534Y-60536443D01*
X55072009Y-60452778D01*
X55036271Y-60423448D01*
X54934814Y-60340186D01*
X54851552Y-60238729D01*
X54822222Y-60202991D01*
X54738557Y-60046466D01*
X54687037Y-59876627D01*
X54669641Y-59700000D01*
X54687037Y-59523373D01*
X54738557Y-59353534D01*
X54822222Y-59197009D01*
X54851552Y-59161271D01*
X54934814Y-59059814D01*
X55036271Y-58976552D01*
X55072009Y-58947222D01*
X55228534Y-58863557D01*
X55398373Y-58812037D01*
X55464557Y-58805519D01*
X55530740Y-58799000D01*
X55869260Y-58799000D01*
X55935443Y-58805519D01*
G37*
G36*
X55935443Y-56305519D02*
G01*
X56001627Y-56312037D01*
X56171466Y-56363557D01*
X56327991Y-56447222D01*
X56363729Y-56476552D01*
X56465186Y-56559814D01*
X56548448Y-56661271D01*
X56577778Y-56697009D01*
X56661443Y-56853534D01*
X56712963Y-57023373D01*
X56730359Y-57200000D01*
X56712963Y-57376627D01*
X56661443Y-57546466D01*
X56577778Y-57702991D01*
X56548448Y-57738729D01*
X56465186Y-57840186D01*
X56363729Y-57923448D01*
X56327991Y-57952778D01*
X56171466Y-58036443D01*
X56001627Y-58087963D01*
X55935442Y-58094482D01*
X55869260Y-58101000D01*
X55530740Y-58101000D01*
X55464558Y-58094482D01*
X55398373Y-58087963D01*
X55228534Y-58036443D01*
X55072009Y-57952778D01*
X55036271Y-57923448D01*
X54934814Y-57840186D01*
X54851552Y-57738729D01*
X54822222Y-57702991D01*
X54738557Y-57546466D01*
X54687037Y-57376627D01*
X54669641Y-57200000D01*
X54687037Y-57023373D01*
X54738557Y-56853534D01*
X54822222Y-56697009D01*
X54851552Y-56661271D01*
X54934814Y-56559814D01*
X55036271Y-56476552D01*
X55072009Y-56447222D01*
X55228534Y-56363557D01*
X55398373Y-56312037D01*
X55464557Y-56305519D01*
X55530740Y-56299000D01*
X55869260Y-56299000D01*
X55935443Y-56305519D01*
G37*
G36*
X45701000Y-57851000D02*
G01*
X44099000Y-57851000D01*
X44099000Y-54149000D01*
X45701000Y-54149000D01*
X45701000Y-57851000D01*
G37*
G36*
X69274549Y-55421116D02*
G01*
X69385734Y-55443232D01*
X69445710Y-55468075D01*
X69579236Y-55523383D01*
X69595203Y-55529997D01*
X69783720Y-55655960D01*
X69944040Y-55816280D01*
X70047762Y-55971511D01*
X70070004Y-56004799D01*
X70156768Y-56214267D01*
X70201000Y-56436635D01*
X70201000Y-56663365D01*
X70184456Y-56746535D01*
X70156768Y-56885734D01*
X70070003Y-57095203D01*
X69944040Y-57283720D01*
X69783720Y-57444040D01*
X69595203Y-57570003D01*
X69385734Y-57656768D01*
X69274549Y-57678884D01*
X69163365Y-57701000D01*
X68936635Y-57701000D01*
X68825451Y-57678884D01*
X68714266Y-57656768D01*
X68504797Y-57570003D01*
X68316280Y-57444040D01*
X68155960Y-57283720D01*
X68029997Y-57095203D01*
X67943232Y-56885734D01*
X67915544Y-56746535D01*
X67899000Y-56663365D01*
X67899000Y-56436635D01*
X67943232Y-56214267D01*
X68029996Y-56004799D01*
X68052238Y-55971511D01*
X68155960Y-55816280D01*
X68316280Y-55655960D01*
X68504797Y-55529997D01*
X68520765Y-55523383D01*
X68654290Y-55468075D01*
X68714266Y-55443232D01*
X68825451Y-55421116D01*
X68936635Y-55399000D01*
X69163365Y-55399000D01*
X69274549Y-55421116D01*
G37*
G36*
X27798254Y-53027818D02*
G01*
X28171511Y-53182426D01*
X28171513Y-53182427D01*
X28507436Y-53406884D01*
X28793116Y-53692564D01*
X28986447Y-53981903D01*
X29017574Y-54028489D01*
X29172182Y-54401746D01*
X29251000Y-54797993D01*
X29251000Y-55202007D01*
X29172182Y-55598254D01*
X29081872Y-55816281D01*
X29017573Y-55971513D01*
X28793116Y-56307436D01*
X28507436Y-56593116D01*
X28171513Y-56817573D01*
X28171512Y-56817574D01*
X28171511Y-56817574D01*
X27798254Y-56972182D01*
X27402007Y-57051000D01*
X26997993Y-57051000D01*
X26601746Y-56972182D01*
X26228489Y-56817574D01*
X26228488Y-56817574D01*
X26228487Y-56817573D01*
X25892564Y-56593116D01*
X25606884Y-56307436D01*
X25382427Y-55971513D01*
X25318128Y-55816281D01*
X25227818Y-55598254D01*
X25149000Y-55202007D01*
X25149000Y-54797993D01*
X25227818Y-54401746D01*
X25382426Y-54028489D01*
X25413554Y-53981903D01*
X25606884Y-53692564D01*
X25892564Y-53406884D01*
X26228487Y-53182427D01*
X26228489Y-53182426D01*
X26601746Y-53027818D01*
X26997993Y-52949000D01*
X27402007Y-52949000D01*
X27798254Y-53027818D01*
G37*
G36*
X33338674Y-55253465D02*
G01*
X33376367Y-55264899D01*
X33411103Y-55283466D01*
X33441548Y-55308452D01*
X33466534Y-55338897D01*
X33485101Y-55373633D01*
X33496535Y-55411326D01*
X33501000Y-55456661D01*
X33501000Y-56543339D01*
X33496535Y-56588674D01*
X33485101Y-56626367D01*
X33466534Y-56661103D01*
X33441548Y-56691548D01*
X33411103Y-56716534D01*
X33376367Y-56735101D01*
X33338674Y-56746535D01*
X33293339Y-56751000D01*
X32456661Y-56751000D01*
X32411326Y-56746535D01*
X32373633Y-56735101D01*
X32338897Y-56716534D01*
X32308452Y-56691548D01*
X32283466Y-56661103D01*
X32264899Y-56626367D01*
X32253465Y-56588674D01*
X32249000Y-56543339D01*
X32249000Y-55456661D01*
X32253465Y-55411326D01*
X32264899Y-55373633D01*
X32283466Y-55338897D01*
X32308452Y-55308452D01*
X32338897Y-55283466D01*
X32373633Y-55264899D01*
X32411326Y-55253465D01*
X32456661Y-55249000D01*
X33293339Y-55249000D01*
X33338674Y-55253465D01*
G37*
G36*
X35388674Y-55253465D02*
G01*
X35426367Y-55264899D01*
X35461103Y-55283466D01*
X35491548Y-55308452D01*
X35516534Y-55338897D01*
X35535101Y-55373633D01*
X35546535Y-55411326D01*
X35551000Y-55456661D01*
X35551000Y-56543339D01*
X35546535Y-56588674D01*
X35535101Y-56626367D01*
X35516534Y-56661103D01*
X35491548Y-56691548D01*
X35461103Y-56716534D01*
X35426367Y-56735101D01*
X35388674Y-56746535D01*
X35343339Y-56751000D01*
X34506661Y-56751000D01*
X34461326Y-56746535D01*
X34423633Y-56735101D01*
X34388897Y-56716534D01*
X34358452Y-56691548D01*
X34333466Y-56661103D01*
X34314899Y-56626367D01*
X34303465Y-56588674D01*
X34299000Y-56543339D01*
X34299000Y-55456661D01*
X34303465Y-55411326D01*
X34314899Y-55373633D01*
X34333466Y-55338897D01*
X34358452Y-55308452D01*
X34388897Y-55283466D01*
X34423633Y-55264899D01*
X34461326Y-55253465D01*
X34506661Y-55249000D01*
X35343339Y-55249000D01*
X35388674Y-55253465D01*
G37*
G36*
X56583600Y-53802989D02*
G01*
X56616652Y-53813015D01*
X56647103Y-53829292D01*
X56673799Y-53851201D01*
X56695708Y-53877897D01*
X56711985Y-53908348D01*
X56722011Y-53941400D01*
X56726000Y-53981903D01*
X56726000Y-55418097D01*
X56722011Y-55458600D01*
X56711985Y-55491652D01*
X56695708Y-55522103D01*
X56673799Y-55548799D01*
X56647103Y-55570708D01*
X56616652Y-55586985D01*
X56583600Y-55597011D01*
X56543097Y-55601000D01*
X54856903Y-55601000D01*
X54816400Y-55597011D01*
X54783348Y-55586985D01*
X54752897Y-55570708D01*
X54726201Y-55548799D01*
X54704292Y-55522103D01*
X54688015Y-55491652D01*
X54677989Y-55458600D01*
X54674000Y-55418097D01*
X54674000Y-53981903D01*
X54677989Y-53941400D01*
X54688015Y-53908348D01*
X54704292Y-53877897D01*
X54726201Y-53851201D01*
X54752897Y-53829292D01*
X54783348Y-53813015D01*
X54816400Y-53802989D01*
X54856903Y-53799000D01*
X56543097Y-53799000D01*
X56583600Y-53802989D01*
G37*
G36*
X39581000Y-54326000D02*
G01*
X38419000Y-54326000D01*
X38419000Y-53574000D01*
X39581000Y-53574000D01*
X39581000Y-54326000D01*
G37*
G36*
X33381000Y-54326000D02*
G01*
X32219000Y-54326000D01*
X32219000Y-51674000D01*
X33381000Y-51674000D01*
X33381000Y-54326000D01*
G37*
G36*
X35581000Y-54326000D02*
G01*
X34419000Y-54326000D01*
X34419000Y-53574000D01*
X35581000Y-53574000D01*
X35581000Y-54326000D01*
G37*
G36*
X37381000Y-54326000D02*
G01*
X36219000Y-54326000D01*
X36219000Y-51674000D01*
X37381000Y-51674000D01*
X37381000Y-54326000D01*
G37*
G36*
X53889890Y-52474017D02*
G01*
X54008364Y-52523091D01*
X54114988Y-52594335D01*
X54205665Y-52685012D01*
X54276910Y-52791638D01*
X54325983Y-52910110D01*
X54351000Y-53035881D01*
X54351000Y-53164119D01*
X54347358Y-53182427D01*
X54325983Y-53289890D01*
X54276909Y-53408364D01*
X54205665Y-53514988D01*
X54114988Y-53605665D01*
X54008364Y-53676909D01*
X54008363Y-53676910D01*
X54008362Y-53676910D01*
X53889890Y-53725983D01*
X53764119Y-53751000D01*
X53635881Y-53751000D01*
X53510110Y-53725983D01*
X53391638Y-53676910D01*
X53391637Y-53676910D01*
X53391636Y-53676909D01*
X53285012Y-53605665D01*
X53194335Y-53514988D01*
X53123091Y-53408364D01*
X53074017Y-53289890D01*
X53052642Y-53182427D01*
X53049000Y-53164119D01*
X53049000Y-53035881D01*
X53074017Y-52910110D01*
X53123090Y-52791638D01*
X53194335Y-52685012D01*
X53285012Y-52594335D01*
X53391636Y-52523091D01*
X53510110Y-52474017D01*
X53635881Y-52449000D01*
X53764119Y-52449000D01*
X53889890Y-52474017D01*
G37*
G36*
X25217818Y-51327696D02*
G01*
X25331105Y-51362062D01*
X25435512Y-51417869D01*
X25527027Y-51492973D01*
X25602131Y-51584488D01*
X25657938Y-51688895D01*
X25692304Y-51802182D01*
X25703907Y-51920000D01*
X25692304Y-52037818D01*
X25657938Y-52151105D01*
X25602131Y-52255512D01*
X25527027Y-52347027D01*
X25435512Y-52422131D01*
X25331105Y-52477938D01*
X25217818Y-52512304D01*
X25129519Y-52521000D01*
X24470481Y-52521000D01*
X24382182Y-52512304D01*
X24268895Y-52477938D01*
X24164488Y-52422131D01*
X24072973Y-52347027D01*
X23997869Y-52255512D01*
X23942062Y-52151105D01*
X23907696Y-52037818D01*
X23896093Y-51920000D01*
X23907696Y-51802182D01*
X23942062Y-51688895D01*
X23997869Y-51584488D01*
X24072973Y-51492973D01*
X24164488Y-51417869D01*
X24268895Y-51362062D01*
X24382182Y-51327696D01*
X24470481Y-51319000D01*
X25129519Y-51319000D01*
X25217818Y-51327696D01*
G37*
G36*
X21417818Y-51327696D02*
G01*
X21531105Y-51362062D01*
X21635512Y-51417869D01*
X21727027Y-51492973D01*
X21802131Y-51584488D01*
X21857938Y-51688895D01*
X21892304Y-51802182D01*
X21903907Y-51920000D01*
X21892304Y-52037818D01*
X21857938Y-52151105D01*
X21802131Y-52255512D01*
X21727027Y-52347027D01*
X21635512Y-52422131D01*
X21531105Y-52477938D01*
X21417818Y-52512304D01*
X21329519Y-52521000D01*
X20670481Y-52521000D01*
X20582182Y-52512304D01*
X20468895Y-52477938D01*
X20364488Y-52422131D01*
X20272973Y-52347027D01*
X20197869Y-52255512D01*
X20142062Y-52151105D01*
X20107696Y-52037818D01*
X20096093Y-51920000D01*
X20107696Y-51802182D01*
X20142062Y-51688895D01*
X20197869Y-51584488D01*
X20272973Y-51492973D01*
X20364488Y-51417869D01*
X20468895Y-51362062D01*
X20582182Y-51327696D01*
X20670481Y-51319000D01*
X21329519Y-51319000D01*
X21417818Y-51327696D01*
G37*
G36*
X39581000Y-52426000D02*
G01*
X38419000Y-52426000D01*
X38419000Y-51674000D01*
X39581000Y-51674000D01*
X39581000Y-52426000D01*
G37*
G36*
X35581000Y-52426000D02*
G01*
X34419000Y-52426000D01*
X34419000Y-51674000D01*
X35581000Y-51674000D01*
X35581000Y-52426000D01*
G37*
G36*
X51705997Y-47603051D02*
G01*
X51739652Y-47613261D01*
X51770665Y-47629838D01*
X51797851Y-47652149D01*
X51820162Y-47679335D01*
X51836739Y-47710348D01*
X51846949Y-47744003D01*
X51851000Y-47785138D01*
X51851000Y-51014862D01*
X51846949Y-51055997D01*
X51836739Y-51089652D01*
X51820162Y-51120665D01*
X51797851Y-51147851D01*
X51770665Y-51170162D01*
X51739652Y-51186739D01*
X51705997Y-51196949D01*
X51664862Y-51201000D01*
X50335138Y-51201000D01*
X50294003Y-51196949D01*
X50260348Y-51186739D01*
X50229335Y-51170162D01*
X50202149Y-51147851D01*
X50179838Y-51120665D01*
X50163261Y-51089652D01*
X50153051Y-51055997D01*
X50149000Y-51014862D01*
X50149000Y-47785138D01*
X50153051Y-47744003D01*
X50163261Y-47710348D01*
X50179838Y-47679335D01*
X50202149Y-47652149D01*
X50229335Y-47629838D01*
X50260348Y-47613261D01*
X50294003Y-47603051D01*
X50335138Y-47599000D01*
X51664862Y-47599000D01*
X51705997Y-47603051D01*
G37*
G36*
X25601000Y-50801000D02*
G01*
X24299000Y-50801000D01*
X24299000Y-49899000D01*
X25601000Y-49899000D01*
X25601000Y-50801000D01*
G37*
G36*
X46088674Y-48853465D02*
G01*
X46126367Y-48864899D01*
X46161103Y-48883466D01*
X46191548Y-48908452D01*
X46216534Y-48938897D01*
X46235101Y-48973633D01*
X46246535Y-49011326D01*
X46251000Y-49056661D01*
X46251000Y-50143339D01*
X46246535Y-50188674D01*
X46235101Y-50226367D01*
X46216534Y-50261103D01*
X46191548Y-50291548D01*
X46161103Y-50316534D01*
X46126367Y-50335101D01*
X46088674Y-50346535D01*
X46043339Y-50351000D01*
X45206661Y-50351000D01*
X45161326Y-50346535D01*
X45123633Y-50335101D01*
X45088897Y-50316534D01*
X45058452Y-50291548D01*
X45033466Y-50261103D01*
X45014899Y-50226367D01*
X45003465Y-50188674D01*
X44999000Y-50143339D01*
X44999000Y-49056661D01*
X45003465Y-49011326D01*
X45014899Y-48973633D01*
X45033466Y-48938897D01*
X45058452Y-48908452D01*
X45088897Y-48883466D01*
X45123633Y-48864899D01*
X45161326Y-48853465D01*
X45206661Y-48849000D01*
X46043339Y-48849000D01*
X46088674Y-48853465D01*
G37*
G36*
X44038674Y-48853465D02*
G01*
X44076367Y-48864899D01*
X44111103Y-48883466D01*
X44141548Y-48908452D01*
X44166534Y-48938897D01*
X44185101Y-48973633D01*
X44196535Y-49011326D01*
X44201000Y-49056661D01*
X44201000Y-50143339D01*
X44196535Y-50188674D01*
X44185101Y-50226367D01*
X44166534Y-50261103D01*
X44141548Y-50291548D01*
X44111103Y-50316534D01*
X44076367Y-50335101D01*
X44038674Y-50346535D01*
X43993339Y-50351000D01*
X43156661Y-50351000D01*
X43111326Y-50346535D01*
X43073633Y-50335101D01*
X43038897Y-50316534D01*
X43008452Y-50291548D01*
X42983466Y-50261103D01*
X42964899Y-50226367D01*
X42953465Y-50188674D01*
X42949000Y-50143339D01*
X42949000Y-49056661D01*
X42953465Y-49011326D01*
X42964899Y-48973633D01*
X42983466Y-48938897D01*
X43008452Y-48908452D01*
X43038897Y-48883466D01*
X43073633Y-48864899D01*
X43111326Y-48853465D01*
X43156661Y-48849000D01*
X43993339Y-48849000D01*
X44038674Y-48853465D01*
G37*
G36*
X25601000Y-49551000D02*
G01*
X24299000Y-49551000D01*
X24299000Y-45649000D01*
X25601000Y-45649000D01*
X25601000Y-49551000D01*
G37*
G36*
X31088674Y-47453465D02*
G01*
X31126367Y-47464899D01*
X31161103Y-47483466D01*
X31191548Y-47508452D01*
X31216534Y-47538897D01*
X31235101Y-47573633D01*
X31246535Y-47611326D01*
X31251000Y-47656661D01*
X31251000Y-48743339D01*
X31246535Y-48788674D01*
X31235101Y-48826367D01*
X31216534Y-48861103D01*
X31191548Y-48891548D01*
X31161103Y-48916534D01*
X31126367Y-48935101D01*
X31088674Y-48946535D01*
X31043339Y-48951000D01*
X30206661Y-48951000D01*
X30161326Y-48946535D01*
X30123633Y-48935101D01*
X30088897Y-48916534D01*
X30058452Y-48891548D01*
X30033466Y-48861103D01*
X30014899Y-48826367D01*
X30003465Y-48788674D01*
X29999000Y-48743339D01*
X29999000Y-47656661D01*
X30003465Y-47611326D01*
X30014899Y-47573633D01*
X30033466Y-47538897D01*
X30058452Y-47508452D01*
X30088897Y-47483466D01*
X30123633Y-47464899D01*
X30161326Y-47453465D01*
X30206661Y-47449000D01*
X31043339Y-47449000D01*
X31088674Y-47453465D01*
G37*
G36*
X29038674Y-47453465D02*
G01*
X29076367Y-47464899D01*
X29111103Y-47483466D01*
X29141548Y-47508452D01*
X29166534Y-47538897D01*
X29185101Y-47573633D01*
X29196535Y-47611326D01*
X29201000Y-47656661D01*
X29201000Y-48743339D01*
X29196535Y-48788674D01*
X29185101Y-48826367D01*
X29166534Y-48861103D01*
X29141548Y-48891548D01*
X29111103Y-48916534D01*
X29076367Y-48935101D01*
X29038674Y-48946535D01*
X28993339Y-48951000D01*
X28156661Y-48951000D01*
X28111326Y-48946535D01*
X28073633Y-48935101D01*
X28038897Y-48916534D01*
X28008452Y-48891548D01*
X27983466Y-48861103D01*
X27964899Y-48826367D01*
X27953465Y-48788674D01*
X27949000Y-48743339D01*
X27949000Y-47656661D01*
X27953465Y-47611326D01*
X27964899Y-47573633D01*
X27983466Y-47538897D01*
X28008452Y-47508452D01*
X28038897Y-47483466D01*
X28073633Y-47464899D01*
X28111326Y-47453465D01*
X28156661Y-47449000D01*
X28993339Y-47449000D01*
X29038674Y-47453465D01*
G37*
G36*
X42288674Y-46853465D02*
G01*
X42326367Y-46864899D01*
X42361103Y-46883466D01*
X42391548Y-46908452D01*
X42416534Y-46938897D01*
X42435101Y-46973633D01*
X42446535Y-47011326D01*
X42451000Y-47056661D01*
X42451000Y-48143339D01*
X42446535Y-48188674D01*
X42435101Y-48226367D01*
X42416534Y-48261103D01*
X42391548Y-48291548D01*
X42361103Y-48316534D01*
X42326367Y-48335101D01*
X42288674Y-48346535D01*
X42243339Y-48351000D01*
X41406661Y-48351000D01*
X41361326Y-48346535D01*
X41323633Y-48335101D01*
X41288897Y-48316534D01*
X41258452Y-48291548D01*
X41233466Y-48261103D01*
X41214899Y-48226367D01*
X41203465Y-48188674D01*
X41199000Y-48143339D01*
X41199000Y-47056661D01*
X41203465Y-47011326D01*
X41214899Y-46973633D01*
X41233466Y-46938897D01*
X41258452Y-46908452D01*
X41288897Y-46883466D01*
X41323633Y-46864899D01*
X41361326Y-46853465D01*
X41406661Y-46849000D01*
X42243339Y-46849000D01*
X42288674Y-46853465D01*
G37*
G36*
X40238674Y-46853465D02*
G01*
X40276367Y-46864899D01*
X40311103Y-46883466D01*
X40341548Y-46908452D01*
X40366534Y-46938897D01*
X40385101Y-46973633D01*
X40396535Y-47011326D01*
X40401000Y-47056661D01*
X40401000Y-48143339D01*
X40396535Y-48188674D01*
X40385101Y-48226367D01*
X40366534Y-48261103D01*
X40341548Y-48291548D01*
X40311103Y-48316534D01*
X40276367Y-48335101D01*
X40238674Y-48346535D01*
X40193339Y-48351000D01*
X39356661Y-48351000D01*
X39311326Y-48346535D01*
X39273633Y-48335101D01*
X39238897Y-48316534D01*
X39208452Y-48291548D01*
X39183466Y-48261103D01*
X39164899Y-48226367D01*
X39153465Y-48188674D01*
X39149000Y-48143339D01*
X39149000Y-47056661D01*
X39153465Y-47011326D01*
X39164899Y-46973633D01*
X39183466Y-46938897D01*
X39208452Y-46908452D01*
X39238897Y-46883466D01*
X39273633Y-46864899D01*
X39311326Y-46853465D01*
X39356661Y-46849000D01*
X40193339Y-46849000D01*
X40238674Y-46853465D01*
G37*
G36*
X46088674Y-46853465D02*
G01*
X46126367Y-46864899D01*
X46161103Y-46883466D01*
X46191548Y-46908452D01*
X46216534Y-46938897D01*
X46235101Y-46973633D01*
X46246535Y-47011326D01*
X46251000Y-47056661D01*
X46251000Y-48143339D01*
X46246535Y-48188674D01*
X46235101Y-48226367D01*
X46216534Y-48261103D01*
X46191548Y-48291548D01*
X46161103Y-48316534D01*
X46126367Y-48335101D01*
X46088674Y-48346535D01*
X46043339Y-48351000D01*
X45206661Y-48351000D01*
X45161326Y-48346535D01*
X45123633Y-48335101D01*
X45088897Y-48316534D01*
X45058452Y-48291548D01*
X45033466Y-48261103D01*
X45014899Y-48226367D01*
X45003465Y-48188674D01*
X44999000Y-48143339D01*
X44999000Y-47056661D01*
X45003465Y-47011326D01*
X45014899Y-46973633D01*
X45033466Y-46938897D01*
X45058452Y-46908452D01*
X45088897Y-46883466D01*
X45123633Y-46864899D01*
X45161326Y-46853465D01*
X45206661Y-46849000D01*
X46043339Y-46849000D01*
X46088674Y-46853465D01*
G37*
G36*
X44038674Y-46853465D02*
G01*
X44076367Y-46864899D01*
X44111103Y-46883466D01*
X44141548Y-46908452D01*
X44166534Y-46938897D01*
X44185101Y-46973633D01*
X44196535Y-47011326D01*
X44201000Y-47056661D01*
X44201000Y-48143339D01*
X44196535Y-48188674D01*
X44185101Y-48226367D01*
X44166534Y-48261103D01*
X44141548Y-48291548D01*
X44111103Y-48316534D01*
X44076367Y-48335101D01*
X44038674Y-48346535D01*
X43993339Y-48351000D01*
X43156661Y-48351000D01*
X43111326Y-48346535D01*
X43073633Y-48335101D01*
X43038897Y-48316534D01*
X43008452Y-48291548D01*
X42983466Y-48261103D01*
X42964899Y-48226367D01*
X42953465Y-48188674D01*
X42949000Y-48143339D01*
X42949000Y-47056661D01*
X42953465Y-47011326D01*
X42964899Y-46973633D01*
X42983466Y-46938897D01*
X43008452Y-46908452D01*
X43038897Y-46883466D01*
X43073633Y-46864899D01*
X43111326Y-46853465D01*
X43156661Y-46849000D01*
X43993339Y-46849000D01*
X44038674Y-46853465D01*
G37*
G36*
X31088674Y-45453465D02*
G01*
X31126367Y-45464899D01*
X31161103Y-45483466D01*
X31191548Y-45508452D01*
X31216534Y-45538897D01*
X31235101Y-45573633D01*
X31246535Y-45611326D01*
X31251000Y-45656661D01*
X31251000Y-46743339D01*
X31246535Y-46788674D01*
X31235101Y-46826367D01*
X31216534Y-46861103D01*
X31191548Y-46891548D01*
X31161103Y-46916534D01*
X31126367Y-46935101D01*
X31088674Y-46946535D01*
X31043339Y-46951000D01*
X30206661Y-46951000D01*
X30161326Y-46946535D01*
X30123633Y-46935101D01*
X30088897Y-46916534D01*
X30058452Y-46891548D01*
X30033466Y-46861103D01*
X30014899Y-46826367D01*
X30003465Y-46788674D01*
X29999000Y-46743339D01*
X29999000Y-45656661D01*
X30003465Y-45611326D01*
X30014899Y-45573633D01*
X30033466Y-45538897D01*
X30058452Y-45508452D01*
X30088897Y-45483466D01*
X30123633Y-45464899D01*
X30161326Y-45453465D01*
X30206661Y-45449000D01*
X31043339Y-45449000D01*
X31088674Y-45453465D01*
G37*
G36*
X29038674Y-45453465D02*
G01*
X29076367Y-45464899D01*
X29111103Y-45483466D01*
X29141548Y-45508452D01*
X29166534Y-45538897D01*
X29185101Y-45573633D01*
X29196535Y-45611326D01*
X29201000Y-45656661D01*
X29201000Y-46743339D01*
X29196535Y-46788674D01*
X29185101Y-46826367D01*
X29166534Y-46861103D01*
X29141548Y-46891548D01*
X29111103Y-46916534D01*
X29076367Y-46935101D01*
X29038674Y-46946535D01*
X28993339Y-46951000D01*
X28156661Y-46951000D01*
X28111326Y-46946535D01*
X28073633Y-46935101D01*
X28038897Y-46916534D01*
X28008452Y-46891548D01*
X27983466Y-46861103D01*
X27964899Y-46826367D01*
X27953465Y-46788674D01*
X27949000Y-46743339D01*
X27949000Y-45656661D01*
X27953465Y-45611326D01*
X27964899Y-45573633D01*
X27983466Y-45538897D01*
X28008452Y-45508452D01*
X28038897Y-45483466D01*
X28073633Y-45464899D01*
X28111326Y-45453465D01*
X28156661Y-45449000D01*
X28993339Y-45449000D01*
X29038674Y-45453465D01*
G37*
G36*
X51705997Y-42203051D02*
G01*
X51739652Y-42213261D01*
X51770665Y-42229838D01*
X51797851Y-42252149D01*
X51820162Y-42279335D01*
X51836739Y-42310348D01*
X51846949Y-42344003D01*
X51851000Y-42385138D01*
X51851000Y-45614862D01*
X51846949Y-45655997D01*
X51836739Y-45689652D01*
X51820162Y-45720665D01*
X51797851Y-45747851D01*
X51770665Y-45770162D01*
X51739652Y-45786739D01*
X51705997Y-45796949D01*
X51664862Y-45801000D01*
X50335138Y-45801000D01*
X50294003Y-45796949D01*
X50260348Y-45786739D01*
X50229335Y-45770162D01*
X50202149Y-45747851D01*
X50179838Y-45720665D01*
X50163261Y-45689652D01*
X50153051Y-45655997D01*
X50149000Y-45614862D01*
X50149000Y-42385138D01*
X50153051Y-42344003D01*
X50163261Y-42310348D01*
X50179838Y-42279335D01*
X50202149Y-42252149D01*
X50229335Y-42229838D01*
X50260348Y-42213261D01*
X50294003Y-42203051D01*
X50335138Y-42199000D01*
X51664862Y-42199000D01*
X51705997Y-42203051D01*
G37*
G36*
X40088674Y-44503465D02*
G01*
X40126367Y-44514899D01*
X40161103Y-44533466D01*
X40191548Y-44558452D01*
X40216534Y-44588897D01*
X40235101Y-44623633D01*
X40246535Y-44661326D01*
X40251000Y-44706661D01*
X40251000Y-45543339D01*
X40246535Y-45588674D01*
X40235101Y-45626367D01*
X40216534Y-45661103D01*
X40191548Y-45691548D01*
X40161103Y-45716534D01*
X40126367Y-45735101D01*
X40088674Y-45746535D01*
X40043339Y-45751000D01*
X38956661Y-45751000D01*
X38911326Y-45746535D01*
X38873633Y-45735101D01*
X38838897Y-45716534D01*
X38808452Y-45691548D01*
X38783466Y-45661103D01*
X38764899Y-45626367D01*
X38753465Y-45588674D01*
X38749000Y-45543339D01*
X38749000Y-44706661D01*
X38753465Y-44661326D01*
X38764899Y-44623633D01*
X38783466Y-44588897D01*
X38808452Y-44558452D01*
X38838897Y-44533466D01*
X38873633Y-44514899D01*
X38911326Y-44503465D01*
X38956661Y-44499000D01*
X40043339Y-44499000D01*
X40088674Y-44503465D01*
G37*
G36*
X44147000Y-45643000D02*
G01*
X43245000Y-45643000D01*
X43245000Y-44641000D01*
X44147000Y-44641000D01*
X44147000Y-45643000D01*
G37*
G36*
X42247000Y-45643000D02*
G01*
X41345000Y-45643000D01*
X41345000Y-44641000D01*
X42247000Y-44641000D01*
X42247000Y-45643000D01*
G37*
G36*
X25601000Y-45301000D02*
G01*
X24299000Y-45301000D01*
X24299000Y-44399000D01*
X25601000Y-44399000D01*
X25601000Y-45301000D01*
G37*
G36*
X21417818Y-42687696D02*
G01*
X21531105Y-42722062D01*
X21635512Y-42777869D01*
X21727027Y-42852973D01*
X21802131Y-42944488D01*
X21857938Y-43048895D01*
X21892304Y-43162182D01*
X21903907Y-43280000D01*
X21892304Y-43397818D01*
X21857938Y-43511105D01*
X21802131Y-43615512D01*
X21727027Y-43707027D01*
X21635512Y-43782131D01*
X21531105Y-43837938D01*
X21417818Y-43872304D01*
X21329519Y-43881000D01*
X20670481Y-43881000D01*
X20582182Y-43872304D01*
X20468895Y-43837938D01*
X20364488Y-43782131D01*
X20272973Y-43707027D01*
X20197869Y-43615512D01*
X20142062Y-43511105D01*
X20107696Y-43397818D01*
X20096093Y-43280000D01*
X20107696Y-43162182D01*
X20142062Y-43048895D01*
X20197869Y-42944488D01*
X20272973Y-42852973D01*
X20364488Y-42777869D01*
X20468895Y-42722062D01*
X20582182Y-42687696D01*
X20670481Y-42679000D01*
X21329519Y-42679000D01*
X21417818Y-42687696D01*
G37*
G36*
X25217818Y-42687696D02*
G01*
X25331105Y-42722062D01*
X25435512Y-42777869D01*
X25527027Y-42852973D01*
X25602131Y-42944488D01*
X25657938Y-43048895D01*
X25692304Y-43162182D01*
X25703907Y-43280000D01*
X25692304Y-43397818D01*
X25657938Y-43511105D01*
X25602131Y-43615512D01*
X25527027Y-43707027D01*
X25435512Y-43782131D01*
X25331105Y-43837938D01*
X25217818Y-43872304D01*
X25129519Y-43881000D01*
X24470481Y-43881000D01*
X24382182Y-43872304D01*
X24268895Y-43837938D01*
X24164488Y-43782131D01*
X24072973Y-43707027D01*
X23997869Y-43615512D01*
X23942062Y-43511105D01*
X23907696Y-43397818D01*
X23896093Y-43280000D01*
X23907696Y-43162182D01*
X23942062Y-43048895D01*
X23997869Y-42944488D01*
X24072973Y-42852973D01*
X24164488Y-42777869D01*
X24268895Y-42722062D01*
X24382182Y-42687696D01*
X24470481Y-42679000D01*
X25129519Y-42679000D01*
X25217818Y-42687696D01*
G37*
G36*
X40088674Y-42453465D02*
G01*
X40126367Y-42464899D01*
X40161103Y-42483466D01*
X40191548Y-42508452D01*
X40216534Y-42538897D01*
X40235101Y-42573633D01*
X40246535Y-42611326D01*
X40251000Y-42656661D01*
X40251000Y-43493339D01*
X40246535Y-43538674D01*
X40235101Y-43576367D01*
X40216534Y-43611103D01*
X40191548Y-43641548D01*
X40161103Y-43666534D01*
X40126367Y-43685101D01*
X40088674Y-43696535D01*
X40043339Y-43701000D01*
X38956661Y-43701000D01*
X38911326Y-43696535D01*
X38873633Y-43685101D01*
X38838897Y-43666534D01*
X38808452Y-43641548D01*
X38783466Y-43611103D01*
X38764899Y-43576367D01*
X38753465Y-43538674D01*
X38749000Y-43493339D01*
X38749000Y-42656661D01*
X38753465Y-42611326D01*
X38764899Y-42573633D01*
X38783466Y-42538897D01*
X38808452Y-42508452D01*
X38838897Y-42483466D01*
X38873633Y-42464899D01*
X38911326Y-42453465D01*
X38956661Y-42449000D01*
X40043339Y-42449000D01*
X40088674Y-42453465D01*
G37*
G36*
X43197000Y-43643000D02*
G01*
X42295000Y-43643000D01*
X42295000Y-42641000D01*
X43197000Y-42641000D01*
X43197000Y-43643000D01*
G37*
M02*
