G04 #@! TF.GenerationSoftware,KiCad,Pcbnew,(5.1.5)-2*
G04 #@! TF.CreationDate,2020-11-21T23:32:15+13:00*
G04 #@! TF.ProjectId,rgbntsc,7267626e-7473-4632-9e6b-696361645f70,rev?*
G04 #@! TF.SameCoordinates,Original*
G04 #@! TF.FileFunction,Soldermask,Bot*
G04 #@! TF.FilePolarity,Negative*
%FSLAX46Y46*%
G04 Gerber Fmt 4.6, Leading zero omitted, Abs format (unit mm)*
G04 Created by KiCad (PCBNEW (5.1.5)-2) date 2020-11-21 23:32:15*
%MOMM*%
%LPD*%
G04 APERTURE LIST*
%ADD10C,0.100000*%
G04 APERTURE END LIST*
D10*
G36*
X27798254Y-105297818D02*
G01*
X28171511Y-105452426D01*
X28171513Y-105452427D01*
X28507436Y-105676884D01*
X28793116Y-105962564D01*
X29017574Y-106298489D01*
X29172182Y-106671746D01*
X29251000Y-107067993D01*
X29251000Y-107472007D01*
X29172182Y-107868254D01*
X29124501Y-107983365D01*
X29017573Y-108241513D01*
X28793116Y-108577436D01*
X28507436Y-108863116D01*
X28171513Y-109087573D01*
X28171512Y-109087574D01*
X28171511Y-109087574D01*
X27798254Y-109242182D01*
X27402007Y-109321000D01*
X26997993Y-109321000D01*
X26601746Y-109242182D01*
X26228489Y-109087574D01*
X26228488Y-109087574D01*
X26228487Y-109087573D01*
X25892564Y-108863116D01*
X25606884Y-108577436D01*
X25382427Y-108241513D01*
X25275499Y-107983365D01*
X25227818Y-107868254D01*
X25149000Y-107472007D01*
X25149000Y-107067993D01*
X25227818Y-106671746D01*
X25382426Y-106298489D01*
X25606884Y-105962564D01*
X25892564Y-105676884D01*
X26228487Y-105452427D01*
X26228489Y-105452426D01*
X26601746Y-105297818D01*
X26997993Y-105219000D01*
X27402007Y-105219000D01*
X27798254Y-105297818D01*
G37*
G36*
X69074549Y-106741116D02*
G01*
X69185734Y-106763232D01*
X69395203Y-106849997D01*
X69583720Y-106975960D01*
X69744040Y-107136280D01*
X69870003Y-107324797D01*
X69956768Y-107534266D01*
X70001000Y-107756636D01*
X70001000Y-107983364D01*
X69956768Y-108205734D01*
X69870003Y-108415203D01*
X69744040Y-108603720D01*
X69583720Y-108764040D01*
X69395203Y-108890003D01*
X69185734Y-108976768D01*
X69074549Y-108998884D01*
X68963365Y-109021000D01*
X68736635Y-109021000D01*
X68625451Y-108998884D01*
X68514266Y-108976768D01*
X68304797Y-108890003D01*
X68116280Y-108764040D01*
X67955960Y-108603720D01*
X67829997Y-108415203D01*
X67743232Y-108205734D01*
X67699000Y-107983364D01*
X67699000Y-107756636D01*
X67743232Y-107534266D01*
X67829997Y-107324797D01*
X67955960Y-107136280D01*
X68116280Y-106975960D01*
X68304797Y-106849997D01*
X68514266Y-106763232D01*
X68625451Y-106741116D01*
X68736635Y-106719000D01*
X68963365Y-106719000D01*
X69074549Y-106741116D01*
G37*
G36*
X61502585Y-102098802D02*
G01*
X61652410Y-102128604D01*
X61934674Y-102245521D01*
X62188705Y-102415259D01*
X62404741Y-102631295D01*
X62574479Y-102885326D01*
X62691396Y-103167590D01*
X62751000Y-103467240D01*
X62751000Y-103772760D01*
X62691396Y-104072410D01*
X62574479Y-104354674D01*
X62404741Y-104608705D01*
X62188705Y-104824741D01*
X61934674Y-104994479D01*
X61652410Y-105111396D01*
X61502585Y-105141198D01*
X61352761Y-105171000D01*
X61047239Y-105171000D01*
X60897415Y-105141198D01*
X60747590Y-105111396D01*
X60465326Y-104994479D01*
X60211295Y-104824741D01*
X59995259Y-104608705D01*
X59825521Y-104354674D01*
X59708604Y-104072410D01*
X59649000Y-103772760D01*
X59649000Y-103467240D01*
X59708604Y-103167590D01*
X59825521Y-102885326D01*
X59995259Y-102631295D01*
X60211295Y-102415259D01*
X60465326Y-102245521D01*
X60747590Y-102128604D01*
X60897415Y-102098802D01*
X61047239Y-102069000D01*
X61352761Y-102069000D01*
X61502585Y-102098802D01*
G37*
G36*
X66002585Y-102098802D02*
G01*
X66152410Y-102128604D01*
X66434674Y-102245521D01*
X66688705Y-102415259D01*
X66904741Y-102631295D01*
X67074479Y-102885326D01*
X67191396Y-103167590D01*
X67251000Y-103467240D01*
X67251000Y-103772760D01*
X67191396Y-104072410D01*
X67074479Y-104354674D01*
X66904741Y-104608705D01*
X66688705Y-104824741D01*
X66434674Y-104994479D01*
X66152410Y-105111396D01*
X66002585Y-105141198D01*
X65852761Y-105171000D01*
X65547239Y-105171000D01*
X65397415Y-105141198D01*
X65247590Y-105111396D01*
X64965326Y-104994479D01*
X64711295Y-104824741D01*
X64495259Y-104608705D01*
X64325521Y-104354674D01*
X64208604Y-104072410D01*
X64149000Y-103772760D01*
X64149000Y-103467240D01*
X64208604Y-103167590D01*
X64325521Y-102885326D01*
X64495259Y-102631295D01*
X64711295Y-102415259D01*
X64965326Y-102245521D01*
X65247590Y-102128604D01*
X65397415Y-102098802D01*
X65547239Y-102069000D01*
X65852761Y-102069000D01*
X66002585Y-102098802D01*
G37*
G36*
X34704549Y-98776116D02*
G01*
X34815734Y-98798232D01*
X35025203Y-98884997D01*
X35213720Y-99010960D01*
X35374040Y-99171280D01*
X35500003Y-99359797D01*
X35586768Y-99569266D01*
X35631000Y-99791636D01*
X35631000Y-100018364D01*
X35586768Y-100240734D01*
X35500003Y-100450203D01*
X35374040Y-100638720D01*
X35213720Y-100799040D01*
X35025203Y-100925003D01*
X34815734Y-101011768D01*
X34704549Y-101033884D01*
X34593365Y-101056000D01*
X34366635Y-101056000D01*
X34255451Y-101033884D01*
X34144266Y-101011768D01*
X33934797Y-100925003D01*
X33746280Y-100799040D01*
X33585960Y-100638720D01*
X33459997Y-100450203D01*
X33373232Y-100240734D01*
X33329000Y-100018364D01*
X33329000Y-99791636D01*
X33373232Y-99569266D01*
X33459997Y-99359797D01*
X33585960Y-99171280D01*
X33746280Y-99010960D01*
X33934797Y-98884997D01*
X34144266Y-98798232D01*
X34255451Y-98776116D01*
X34366635Y-98754000D01*
X34593365Y-98754000D01*
X34704549Y-98776116D01*
G37*
G36*
X69074549Y-98241116D02*
G01*
X69185734Y-98263232D01*
X69395203Y-98349997D01*
X69583720Y-98475960D01*
X69744040Y-98636280D01*
X69870003Y-98824797D01*
X69956768Y-99034266D01*
X70001000Y-99256636D01*
X70001000Y-99483364D01*
X69956768Y-99705734D01*
X69870003Y-99915203D01*
X69744040Y-100103720D01*
X69583720Y-100264040D01*
X69395203Y-100390003D01*
X69185734Y-100476768D01*
X69074549Y-100498884D01*
X68963365Y-100521000D01*
X68736635Y-100521000D01*
X68625451Y-100498884D01*
X68514266Y-100476768D01*
X68304797Y-100390003D01*
X68116280Y-100264040D01*
X67955960Y-100103720D01*
X67829997Y-99915203D01*
X67743232Y-99705734D01*
X67699000Y-99483364D01*
X67699000Y-99256636D01*
X67743232Y-99034266D01*
X67829997Y-98824797D01*
X67955960Y-98636280D01*
X68116280Y-98475960D01*
X68304797Y-98349997D01*
X68514266Y-98263232D01*
X68625451Y-98241116D01*
X68736635Y-98219000D01*
X68963365Y-98219000D01*
X69074549Y-98241116D01*
G37*
G36*
X29624549Y-96871116D02*
G01*
X29735734Y-96893232D01*
X29945203Y-96979997D01*
X30133720Y-97105960D01*
X30294040Y-97266280D01*
X30420003Y-97454797D01*
X30506768Y-97664266D01*
X30551000Y-97886636D01*
X30551000Y-98113364D01*
X30506768Y-98335734D01*
X30420003Y-98545203D01*
X30294040Y-98733720D01*
X30133720Y-98894040D01*
X29945203Y-99020003D01*
X29735734Y-99106768D01*
X29624549Y-99128884D01*
X29513365Y-99151000D01*
X29286635Y-99151000D01*
X29175451Y-99128884D01*
X29064266Y-99106768D01*
X28854797Y-99020003D01*
X28666280Y-98894040D01*
X28505960Y-98733720D01*
X28379997Y-98545203D01*
X28293232Y-98335734D01*
X28249000Y-98113364D01*
X28249000Y-97886636D01*
X28293232Y-97664266D01*
X28379997Y-97454797D01*
X28505960Y-97266280D01*
X28666280Y-97105960D01*
X28854797Y-96979997D01*
X29064266Y-96893232D01*
X29175451Y-96871116D01*
X29286635Y-96849000D01*
X29513365Y-96849000D01*
X29624549Y-96871116D01*
G37*
G36*
X34690714Y-94963364D02*
G01*
X34815734Y-94988232D01*
X35025203Y-95074997D01*
X35213720Y-95200960D01*
X35374040Y-95361280D01*
X35500003Y-95549797D01*
X35500004Y-95549799D01*
X35586768Y-95759267D01*
X35626054Y-95956768D01*
X35631000Y-95981636D01*
X35631000Y-96208364D01*
X35586768Y-96430734D01*
X35500003Y-96640203D01*
X35374040Y-96828720D01*
X35213720Y-96989040D01*
X35025203Y-97115003D01*
X34815734Y-97201768D01*
X34704549Y-97223884D01*
X34593365Y-97246000D01*
X34366635Y-97246000D01*
X34255451Y-97223884D01*
X34144266Y-97201768D01*
X33934797Y-97115003D01*
X33746280Y-96989040D01*
X33585960Y-96828720D01*
X33459997Y-96640203D01*
X33373232Y-96430734D01*
X33329000Y-96208364D01*
X33329000Y-95981636D01*
X33333947Y-95956768D01*
X33373232Y-95759267D01*
X33459996Y-95549799D01*
X33459997Y-95549797D01*
X33585960Y-95361280D01*
X33746280Y-95200960D01*
X33934797Y-95074997D01*
X34144266Y-94988232D01*
X34269286Y-94963364D01*
X34366635Y-94944000D01*
X34593365Y-94944000D01*
X34690714Y-94963364D01*
G37*
G36*
X69074549Y-93721116D02*
G01*
X69185734Y-93743232D01*
X69395203Y-93829997D01*
X69583720Y-93955960D01*
X69744040Y-94116280D01*
X69869046Y-94303365D01*
X69870004Y-94304799D01*
X69956768Y-94514267D01*
X70001000Y-94736635D01*
X70001000Y-94963365D01*
X69978884Y-95074549D01*
X69956768Y-95185734D01*
X69870003Y-95395203D01*
X69744040Y-95583720D01*
X69583720Y-95744040D01*
X69395203Y-95870003D01*
X69185734Y-95956768D01*
X69074549Y-95978884D01*
X68963365Y-96001000D01*
X68736635Y-96001000D01*
X68625451Y-95978884D01*
X68514266Y-95956768D01*
X68304797Y-95870003D01*
X68116280Y-95744040D01*
X67955960Y-95583720D01*
X67829997Y-95395203D01*
X67743232Y-95185734D01*
X67721116Y-95074549D01*
X67699000Y-94963365D01*
X67699000Y-94736635D01*
X67743232Y-94514267D01*
X67829996Y-94304799D01*
X67830954Y-94303365D01*
X67955960Y-94116280D01*
X68116280Y-93955960D01*
X68304797Y-93829997D01*
X68514266Y-93743232D01*
X68625451Y-93721116D01*
X68736635Y-93699000D01*
X68963365Y-93699000D01*
X69074549Y-93721116D01*
G37*
G36*
X29624549Y-93061116D02*
G01*
X29735734Y-93083232D01*
X29945203Y-93169997D01*
X30133720Y-93295960D01*
X30294040Y-93456280D01*
X30420003Y-93644797D01*
X30506768Y-93854266D01*
X30551000Y-94076636D01*
X30551000Y-94303364D01*
X30506768Y-94525734D01*
X30420003Y-94735203D01*
X30294040Y-94923720D01*
X30133720Y-95084040D01*
X29945203Y-95210003D01*
X29735734Y-95296768D01*
X29624549Y-95318884D01*
X29513365Y-95341000D01*
X29286635Y-95341000D01*
X29175451Y-95318884D01*
X29064266Y-95296768D01*
X28854797Y-95210003D01*
X28666280Y-95084040D01*
X28505960Y-94923720D01*
X28379997Y-94735203D01*
X28293232Y-94525734D01*
X28249000Y-94303364D01*
X28249000Y-94076636D01*
X28293232Y-93854266D01*
X28379997Y-93644797D01*
X28505960Y-93456280D01*
X28666280Y-93295960D01*
X28854797Y-93169997D01*
X29064266Y-93083232D01*
X29175451Y-93061116D01*
X29286635Y-93039000D01*
X29513365Y-93039000D01*
X29624549Y-93061116D01*
G37*
G36*
X34704549Y-91156116D02*
G01*
X34815734Y-91178232D01*
X35025203Y-91264997D01*
X35213720Y-91390960D01*
X35374040Y-91551280D01*
X35500003Y-91739797D01*
X35586768Y-91949266D01*
X35631000Y-92171636D01*
X35631000Y-92398364D01*
X35586768Y-92620734D01*
X35500003Y-92830203D01*
X35374040Y-93018720D01*
X35213720Y-93179040D01*
X35025203Y-93305003D01*
X34815734Y-93391768D01*
X34704549Y-93413884D01*
X34593365Y-93436000D01*
X34366635Y-93436000D01*
X34255451Y-93413884D01*
X34144266Y-93391768D01*
X33934797Y-93305003D01*
X33746280Y-93179040D01*
X33585960Y-93018720D01*
X33459997Y-92830203D01*
X33373232Y-92620734D01*
X33329000Y-92398364D01*
X33329000Y-92171636D01*
X33373232Y-91949266D01*
X33459997Y-91739797D01*
X33585960Y-91551280D01*
X33746280Y-91390960D01*
X33934797Y-91264997D01*
X34144266Y-91178232D01*
X34255451Y-91156116D01*
X34366635Y-91134000D01*
X34593365Y-91134000D01*
X34704549Y-91156116D01*
G37*
G36*
X61502585Y-89078802D02*
G01*
X61652410Y-89108604D01*
X61934674Y-89225521D01*
X62188705Y-89395259D01*
X62404741Y-89611295D01*
X62574479Y-89865326D01*
X62691396Y-90147590D01*
X62751000Y-90447240D01*
X62751000Y-90752760D01*
X62691396Y-91052410D01*
X62574479Y-91334674D01*
X62404741Y-91588705D01*
X62188705Y-91804741D01*
X61934674Y-91974479D01*
X61652410Y-92091396D01*
X61502585Y-92121198D01*
X61352761Y-92151000D01*
X61047239Y-92151000D01*
X60897415Y-92121198D01*
X60747590Y-92091396D01*
X60465326Y-91974479D01*
X60211295Y-91804741D01*
X59995259Y-91588705D01*
X59825521Y-91334674D01*
X59708604Y-91052410D01*
X59649000Y-90752760D01*
X59649000Y-90447240D01*
X59708604Y-90147590D01*
X59825521Y-89865326D01*
X59995259Y-89611295D01*
X60211295Y-89395259D01*
X60465326Y-89225521D01*
X60747590Y-89108604D01*
X60897415Y-89078802D01*
X61047239Y-89049000D01*
X61352761Y-89049000D01*
X61502585Y-89078802D01*
G37*
G36*
X66002585Y-89078802D02*
G01*
X66152410Y-89108604D01*
X66434674Y-89225521D01*
X66688705Y-89395259D01*
X66904741Y-89611295D01*
X67074479Y-89865326D01*
X67191396Y-90147590D01*
X67251000Y-90447240D01*
X67251000Y-90752760D01*
X67191396Y-91052410D01*
X67074479Y-91334674D01*
X66904741Y-91588705D01*
X66688705Y-91804741D01*
X66434674Y-91974479D01*
X66152410Y-92091396D01*
X66002585Y-92121198D01*
X65852761Y-92151000D01*
X65547239Y-92151000D01*
X65397415Y-92121198D01*
X65247590Y-92091396D01*
X64965326Y-91974479D01*
X64711295Y-91804741D01*
X64495259Y-91588705D01*
X64325521Y-91334674D01*
X64208604Y-91052410D01*
X64149000Y-90752760D01*
X64149000Y-90447240D01*
X64208604Y-90147590D01*
X64325521Y-89865326D01*
X64495259Y-89611295D01*
X64711295Y-89395259D01*
X64965326Y-89225521D01*
X65247590Y-89108604D01*
X65397415Y-89078802D01*
X65547239Y-89049000D01*
X65852761Y-89049000D01*
X66002585Y-89078802D01*
G37*
G36*
X29624549Y-89251116D02*
G01*
X29735734Y-89273232D01*
X29945203Y-89359997D01*
X30133720Y-89485960D01*
X30294040Y-89646280D01*
X30420003Y-89834797D01*
X30506768Y-90044266D01*
X30551000Y-90266636D01*
X30551000Y-90493364D01*
X30506768Y-90715734D01*
X30420003Y-90925203D01*
X30294040Y-91113720D01*
X30133720Y-91274040D01*
X29945203Y-91400003D01*
X29735734Y-91486768D01*
X29624549Y-91508884D01*
X29513365Y-91531000D01*
X29286635Y-91531000D01*
X29175451Y-91508884D01*
X29064266Y-91486768D01*
X28854797Y-91400003D01*
X28666280Y-91274040D01*
X28505960Y-91113720D01*
X28379997Y-90925203D01*
X28293232Y-90715734D01*
X28249000Y-90493364D01*
X28249000Y-90266636D01*
X28293232Y-90044266D01*
X28379997Y-89834797D01*
X28505960Y-89646280D01*
X28666280Y-89485960D01*
X28854797Y-89359997D01*
X29064266Y-89273232D01*
X29175451Y-89251116D01*
X29286635Y-89229000D01*
X29513365Y-89229000D01*
X29624549Y-89251116D01*
G37*
G36*
X34704549Y-87346116D02*
G01*
X34815734Y-87368232D01*
X35025203Y-87454997D01*
X35213720Y-87580960D01*
X35374040Y-87741280D01*
X35500003Y-87929797D01*
X35586768Y-88139266D01*
X35631000Y-88361636D01*
X35631000Y-88588364D01*
X35586768Y-88810734D01*
X35500003Y-89020203D01*
X35374040Y-89208720D01*
X35213720Y-89369040D01*
X35025203Y-89495003D01*
X34815734Y-89581768D01*
X34704549Y-89603884D01*
X34593365Y-89626000D01*
X34366635Y-89626000D01*
X34255451Y-89603884D01*
X34144266Y-89581768D01*
X33934797Y-89495003D01*
X33746280Y-89369040D01*
X33585960Y-89208720D01*
X33459997Y-89020203D01*
X33373232Y-88810734D01*
X33329000Y-88588364D01*
X33329000Y-88361636D01*
X33373232Y-88139266D01*
X33459997Y-87929797D01*
X33585960Y-87741280D01*
X33746280Y-87580960D01*
X33934797Y-87454997D01*
X34144266Y-87368232D01*
X34255451Y-87346116D01*
X34366635Y-87324000D01*
X34593365Y-87324000D01*
X34704549Y-87346116D01*
G37*
G36*
X25048903Y-84363213D02*
G01*
X25271177Y-84407426D01*
X25689932Y-84580880D01*
X26066802Y-84832696D01*
X26387304Y-85153198D01*
X26639120Y-85530068D01*
X26812574Y-85948823D01*
X26856787Y-86171097D01*
X26901000Y-86393370D01*
X26901000Y-86846630D01*
X26889243Y-86905734D01*
X26812574Y-87291177D01*
X26639120Y-87709932D01*
X26387304Y-88086802D01*
X26066802Y-88407304D01*
X25689932Y-88659120D01*
X25271177Y-88832574D01*
X25048903Y-88876787D01*
X24826630Y-88921000D01*
X24373370Y-88921000D01*
X24151097Y-88876787D01*
X23928823Y-88832574D01*
X23510068Y-88659120D01*
X23133198Y-88407304D01*
X22812696Y-88086802D01*
X22560880Y-87709932D01*
X22387426Y-87291177D01*
X22310757Y-86905734D01*
X22299000Y-86846630D01*
X22299000Y-86393370D01*
X22343213Y-86171097D01*
X22387426Y-85948823D01*
X22560880Y-85530068D01*
X22812696Y-85153198D01*
X23133198Y-84832696D01*
X23510068Y-84580880D01*
X23928823Y-84407426D01*
X24151097Y-84363213D01*
X24373370Y-84319000D01*
X24826630Y-84319000D01*
X25048903Y-84363213D01*
G37*
G36*
X29624549Y-85441116D02*
G01*
X29735734Y-85463232D01*
X29945203Y-85549997D01*
X30133720Y-85675960D01*
X30294040Y-85836280D01*
X30420003Y-86024797D01*
X30506768Y-86234266D01*
X30551000Y-86456636D01*
X30551000Y-86683364D01*
X30506768Y-86905734D01*
X30420003Y-87115203D01*
X30294040Y-87303720D01*
X30133720Y-87464040D01*
X29945203Y-87590003D01*
X29735734Y-87676768D01*
X29624549Y-87698884D01*
X29513365Y-87721000D01*
X29286635Y-87721000D01*
X29175451Y-87698884D01*
X29064266Y-87676768D01*
X28854797Y-87590003D01*
X28666280Y-87464040D01*
X28505960Y-87303720D01*
X28379997Y-87115203D01*
X28293232Y-86905734D01*
X28249000Y-86683364D01*
X28249000Y-86456636D01*
X28293232Y-86234266D01*
X28379997Y-86024797D01*
X28505960Y-85836280D01*
X28666280Y-85675960D01*
X28854797Y-85549997D01*
X29064266Y-85463232D01*
X29175451Y-85441116D01*
X29286635Y-85419000D01*
X29513365Y-85419000D01*
X29624549Y-85441116D01*
G37*
G36*
X69074549Y-85221116D02*
G01*
X69185734Y-85243232D01*
X69395203Y-85329997D01*
X69583720Y-85455960D01*
X69744040Y-85616280D01*
X69870003Y-85804797D01*
X69870004Y-85804799D01*
X69883044Y-85836280D01*
X69956768Y-86014266D01*
X70001000Y-86236636D01*
X70001000Y-86463364D01*
X69956768Y-86685734D01*
X69870003Y-86895203D01*
X69744040Y-87083720D01*
X69583720Y-87244040D01*
X69395203Y-87370003D01*
X69185734Y-87456768D01*
X69074549Y-87478884D01*
X68963365Y-87501000D01*
X68736635Y-87501000D01*
X68625451Y-87478884D01*
X68514266Y-87456768D01*
X68304797Y-87370003D01*
X68116280Y-87244040D01*
X67955960Y-87083720D01*
X67829997Y-86895203D01*
X67743232Y-86685734D01*
X67699000Y-86463364D01*
X67699000Y-86236636D01*
X67743232Y-86014266D01*
X67816956Y-85836280D01*
X67829996Y-85804799D01*
X67829997Y-85804797D01*
X67955960Y-85616280D01*
X68116280Y-85455960D01*
X68304797Y-85329997D01*
X68514266Y-85243232D01*
X68625451Y-85221116D01*
X68736635Y-85199000D01*
X68963365Y-85199000D01*
X69074549Y-85221116D01*
G37*
G36*
X34704549Y-83536116D02*
G01*
X34815734Y-83558232D01*
X35025203Y-83644997D01*
X35213720Y-83770960D01*
X35374040Y-83931280D01*
X35500003Y-84119797D01*
X35582516Y-84319000D01*
X35586768Y-84329267D01*
X35631000Y-84551635D01*
X35631000Y-84778365D01*
X35586768Y-85000733D01*
X35504644Y-85199000D01*
X35500003Y-85210203D01*
X35374040Y-85398720D01*
X35213720Y-85559040D01*
X35025203Y-85685003D01*
X34815734Y-85771768D01*
X34704549Y-85793884D01*
X34593365Y-85816000D01*
X34366635Y-85816000D01*
X34255451Y-85793884D01*
X34144266Y-85771768D01*
X33934797Y-85685003D01*
X33746280Y-85559040D01*
X33585960Y-85398720D01*
X33459997Y-85210203D01*
X33455357Y-85199000D01*
X33373232Y-85000733D01*
X33329000Y-84778365D01*
X33329000Y-84551635D01*
X33373232Y-84329267D01*
X33377485Y-84319000D01*
X33459997Y-84119797D01*
X33585960Y-83931280D01*
X33746280Y-83770960D01*
X33934797Y-83644997D01*
X34144266Y-83558232D01*
X34255451Y-83536116D01*
X34366635Y-83514000D01*
X34593365Y-83514000D01*
X34704549Y-83536116D01*
G37*
G36*
X67060443Y-82455519D02*
G01*
X67126627Y-82462037D01*
X67296466Y-82513557D01*
X67452991Y-82597222D01*
X67488729Y-82626552D01*
X67590186Y-82709814D01*
X67673448Y-82811271D01*
X67702778Y-82847009D01*
X67786443Y-83003534D01*
X67837963Y-83173373D01*
X67855359Y-83350000D01*
X67837963Y-83526627D01*
X67786443Y-83696466D01*
X67702778Y-83852991D01*
X67691471Y-83866768D01*
X67590186Y-83990186D01*
X67488729Y-84073448D01*
X67452991Y-84102778D01*
X67296466Y-84186443D01*
X67126627Y-84237963D01*
X67060442Y-84244482D01*
X66994260Y-84251000D01*
X65205740Y-84251000D01*
X65139558Y-84244482D01*
X65073373Y-84237963D01*
X64903534Y-84186443D01*
X64747009Y-84102778D01*
X64711271Y-84073448D01*
X64609814Y-83990186D01*
X64508529Y-83866768D01*
X64497222Y-83852991D01*
X64413557Y-83696466D01*
X64362037Y-83526627D01*
X64344641Y-83350000D01*
X64362037Y-83173373D01*
X64413557Y-83003534D01*
X64497222Y-82847009D01*
X64526552Y-82811271D01*
X64609814Y-82709814D01*
X64711271Y-82626552D01*
X64747009Y-82597222D01*
X64903534Y-82513557D01*
X65073373Y-82462037D01*
X65139557Y-82455519D01*
X65205740Y-82449000D01*
X66994260Y-82449000D01*
X67060443Y-82455519D01*
G37*
G36*
X29624549Y-81631116D02*
G01*
X29735734Y-81653232D01*
X29945203Y-81739997D01*
X30133720Y-81865960D01*
X30294040Y-82026280D01*
X30420003Y-82214797D01*
X30506768Y-82424266D01*
X30551000Y-82646636D01*
X30551000Y-82873364D01*
X30506768Y-83095734D01*
X30420003Y-83305203D01*
X30294040Y-83493720D01*
X30133720Y-83654040D01*
X29945203Y-83780003D01*
X29735734Y-83866768D01*
X29624549Y-83888884D01*
X29513365Y-83911000D01*
X29286635Y-83911000D01*
X29175451Y-83888884D01*
X29064266Y-83866768D01*
X28854797Y-83780003D01*
X28666280Y-83654040D01*
X28505960Y-83493720D01*
X28379997Y-83305203D01*
X28293232Y-83095734D01*
X28249000Y-82873364D01*
X28249000Y-82646636D01*
X28293232Y-82424266D01*
X28379997Y-82214797D01*
X28505960Y-82026280D01*
X28666280Y-81865960D01*
X28854797Y-81739997D01*
X29064266Y-81653232D01*
X29175451Y-81631116D01*
X29286635Y-81609000D01*
X29513365Y-81609000D01*
X29624549Y-81631116D01*
G37*
G36*
X34704549Y-79726116D02*
G01*
X34815734Y-79748232D01*
X34963850Y-79809584D01*
X35008862Y-79828228D01*
X35025203Y-79834997D01*
X35213720Y-79960960D01*
X35374040Y-80121280D01*
X35500003Y-80309797D01*
X35586768Y-80519266D01*
X35631000Y-80741636D01*
X35631000Y-80968364D01*
X35586768Y-81190734D01*
X35500003Y-81400203D01*
X35374040Y-81588720D01*
X35213720Y-81749040D01*
X35025203Y-81875003D01*
X34815734Y-81961768D01*
X34704549Y-81983884D01*
X34593365Y-82006000D01*
X34366635Y-82006000D01*
X34255451Y-81983884D01*
X34144266Y-81961768D01*
X33934797Y-81875003D01*
X33746280Y-81749040D01*
X33585960Y-81588720D01*
X33459997Y-81400203D01*
X33373232Y-81190734D01*
X33329000Y-80968364D01*
X33329000Y-80741636D01*
X33373232Y-80519266D01*
X33459997Y-80309797D01*
X33585960Y-80121280D01*
X33746280Y-79960960D01*
X33934797Y-79834997D01*
X33951139Y-79828228D01*
X33996150Y-79809584D01*
X34144266Y-79748232D01*
X34255451Y-79726116D01*
X34366635Y-79704000D01*
X34593365Y-79704000D01*
X34704549Y-79726116D01*
G37*
G36*
X60741200Y-79258295D02*
G01*
X60820225Y-79274014D01*
X60877138Y-79297588D01*
X60957626Y-79330927D01*
X61081284Y-79413553D01*
X61186447Y-79518716D01*
X61269073Y-79642374D01*
X61325986Y-79779776D01*
X61355000Y-79925638D01*
X61355000Y-80074362D01*
X61325986Y-80220224D01*
X61269073Y-80357626D01*
X61186447Y-80481284D01*
X61081284Y-80586447D01*
X60957626Y-80669073D01*
X60877138Y-80702412D01*
X60820225Y-80725986D01*
X60747293Y-80740493D01*
X60674362Y-80755000D01*
X60525638Y-80755000D01*
X60452707Y-80740493D01*
X60379775Y-80725986D01*
X60322862Y-80702412D01*
X60242374Y-80669073D01*
X60118716Y-80586447D01*
X60013553Y-80481284D01*
X59930927Y-80357626D01*
X59874014Y-80220224D01*
X59845000Y-80074362D01*
X59845000Y-79925638D01*
X59874014Y-79779776D01*
X59930927Y-79642374D01*
X60013553Y-79518716D01*
X60118716Y-79413553D01*
X60242374Y-79330927D01*
X60322862Y-79297588D01*
X60379775Y-79274014D01*
X60458800Y-79258295D01*
X60525638Y-79245000D01*
X60674362Y-79245000D01*
X60741200Y-79258295D01*
G37*
G36*
X63241200Y-79258295D02*
G01*
X63320225Y-79274014D01*
X63377138Y-79297588D01*
X63457626Y-79330927D01*
X63581284Y-79413553D01*
X63686447Y-79518716D01*
X63769073Y-79642374D01*
X63825986Y-79779776D01*
X63855000Y-79925638D01*
X63855000Y-80074362D01*
X63825986Y-80220224D01*
X63769073Y-80357626D01*
X63686447Y-80481284D01*
X63581284Y-80586447D01*
X63457626Y-80669073D01*
X63377138Y-80702412D01*
X63320225Y-80725986D01*
X63247293Y-80740493D01*
X63174362Y-80755000D01*
X63025638Y-80755000D01*
X62952707Y-80740493D01*
X62879775Y-80725986D01*
X62822862Y-80702412D01*
X62742374Y-80669073D01*
X62618716Y-80586447D01*
X62513553Y-80481284D01*
X62430927Y-80357626D01*
X62374014Y-80220224D01*
X62345000Y-80074362D01*
X62345000Y-79925638D01*
X62374014Y-79779776D01*
X62430927Y-79642374D01*
X62513553Y-79518716D01*
X62618716Y-79413553D01*
X62742374Y-79330927D01*
X62822862Y-79297588D01*
X62879775Y-79274014D01*
X62958800Y-79258295D01*
X63025638Y-79245000D01*
X63174362Y-79245000D01*
X63241200Y-79258295D01*
G37*
G36*
X24848228Y-78761703D02*
G01*
X25003100Y-78825853D01*
X25142481Y-78918985D01*
X25261015Y-79037519D01*
X25354147Y-79176900D01*
X25418297Y-79331772D01*
X25451000Y-79496184D01*
X25451000Y-79663816D01*
X25418297Y-79828228D01*
X25354147Y-79983100D01*
X25261015Y-80122481D01*
X25142481Y-80241015D01*
X25003100Y-80334147D01*
X24848228Y-80398297D01*
X24683816Y-80431000D01*
X24516184Y-80431000D01*
X24351772Y-80398297D01*
X24196900Y-80334147D01*
X24057519Y-80241015D01*
X23938985Y-80122481D01*
X23845853Y-79983100D01*
X23781703Y-79828228D01*
X23749000Y-79663816D01*
X23749000Y-79496184D01*
X23781703Y-79331772D01*
X23845853Y-79176900D01*
X23938985Y-79037519D01*
X24057519Y-78918985D01*
X24196900Y-78825853D01*
X24351772Y-78761703D01*
X24516184Y-78729000D01*
X24683816Y-78729000D01*
X24848228Y-78761703D01*
G37*
G36*
X29624549Y-77821116D02*
G01*
X29735734Y-77843232D01*
X29945203Y-77929997D01*
X30133720Y-78055960D01*
X30294040Y-78216280D01*
X30420003Y-78404797D01*
X30506768Y-78614266D01*
X30551000Y-78836636D01*
X30551000Y-79063364D01*
X30506768Y-79285734D01*
X30420003Y-79495203D01*
X30294040Y-79683720D01*
X30133720Y-79844040D01*
X29945203Y-79970003D01*
X29945202Y-79970004D01*
X29945201Y-79970004D01*
X29913584Y-79983100D01*
X29735734Y-80056768D01*
X29624549Y-80078884D01*
X29513365Y-80101000D01*
X29286635Y-80101000D01*
X29175451Y-80078884D01*
X29064266Y-80056768D01*
X28886416Y-79983100D01*
X28854799Y-79970004D01*
X28854798Y-79970004D01*
X28854797Y-79970003D01*
X28666280Y-79844040D01*
X28505960Y-79683720D01*
X28379997Y-79495203D01*
X28293232Y-79285734D01*
X28249000Y-79063364D01*
X28249000Y-78836636D01*
X28293232Y-78614266D01*
X28379997Y-78404797D01*
X28505960Y-78216280D01*
X28666280Y-78055960D01*
X28854797Y-77929997D01*
X29064266Y-77843232D01*
X29175451Y-77821116D01*
X29286635Y-77799000D01*
X29513365Y-77799000D01*
X29624549Y-77821116D01*
G37*
G36*
X22308228Y-77621703D02*
G01*
X22463100Y-77685853D01*
X22602481Y-77778985D01*
X22721015Y-77897519D01*
X22814147Y-78036900D01*
X22878297Y-78191772D01*
X22911000Y-78356184D01*
X22911000Y-78523816D01*
X22878297Y-78688228D01*
X22814147Y-78843100D01*
X22721015Y-78982481D01*
X22602481Y-79101015D01*
X22463100Y-79194147D01*
X22308228Y-79258297D01*
X22143816Y-79291000D01*
X21976184Y-79291000D01*
X21811772Y-79258297D01*
X21656900Y-79194147D01*
X21517519Y-79101015D01*
X21398985Y-78982481D01*
X21305853Y-78843100D01*
X21241703Y-78688228D01*
X21209000Y-78523816D01*
X21209000Y-78356184D01*
X21241703Y-78191772D01*
X21305853Y-78036900D01*
X21398985Y-77897519D01*
X21517519Y-77778985D01*
X21656900Y-77685853D01*
X21811772Y-77621703D01*
X21976184Y-77589000D01*
X22143816Y-77589000D01*
X22308228Y-77621703D01*
G37*
G36*
X27388228Y-77621703D02*
G01*
X27543100Y-77685853D01*
X27682481Y-77778985D01*
X27801015Y-77897519D01*
X27894147Y-78036900D01*
X27958297Y-78191772D01*
X27991000Y-78356184D01*
X27991000Y-78523816D01*
X27958297Y-78688228D01*
X27894147Y-78843100D01*
X27801015Y-78982481D01*
X27682481Y-79101015D01*
X27543100Y-79194147D01*
X27388228Y-79258297D01*
X27223816Y-79291000D01*
X27056184Y-79291000D01*
X26891772Y-79258297D01*
X26736900Y-79194147D01*
X26597519Y-79101015D01*
X26478985Y-78982481D01*
X26385853Y-78843100D01*
X26321703Y-78688228D01*
X26289000Y-78523816D01*
X26289000Y-78356184D01*
X26321703Y-78191772D01*
X26385853Y-78036900D01*
X26478985Y-77897519D01*
X26597519Y-77778985D01*
X26736900Y-77685853D01*
X26891772Y-77621703D01*
X27056184Y-77589000D01*
X27223816Y-77589000D01*
X27388228Y-77621703D01*
G37*
G36*
X67076626Y-74862037D02*
G01*
X67246465Y-74913557D01*
X67246467Y-74913558D01*
X67402989Y-74997221D01*
X67540186Y-75109814D01*
X67623448Y-75211271D01*
X67652778Y-75247009D01*
X67736443Y-75403534D01*
X67787963Y-75573373D01*
X67801000Y-75705742D01*
X67801000Y-77494258D01*
X67787963Y-77626627D01*
X67736443Y-77796466D01*
X67652778Y-77952991D01*
X67623448Y-77988729D01*
X67540186Y-78090186D01*
X67438729Y-78173448D01*
X67402991Y-78202778D01*
X67246466Y-78286443D01*
X67076627Y-78337963D01*
X66900000Y-78355359D01*
X66723374Y-78337963D01*
X66553535Y-78286443D01*
X66397010Y-78202778D01*
X66361272Y-78173448D01*
X66259815Y-78090186D01*
X66176553Y-77988729D01*
X66147223Y-77952991D01*
X66063558Y-77796466D01*
X66012038Y-77626627D01*
X65999001Y-77494258D01*
X65999000Y-75705743D01*
X66012037Y-75573374D01*
X66063557Y-75403535D01*
X66063559Y-75403532D01*
X66147221Y-75247011D01*
X66259814Y-75109814D01*
X66361271Y-75026552D01*
X66397009Y-74997222D01*
X66553534Y-74913557D01*
X66723373Y-74862037D01*
X66900000Y-74844641D01*
X67076626Y-74862037D01*
G37*
G36*
X34632432Y-75901771D02*
G01*
X34815734Y-75938232D01*
X35025203Y-76024997D01*
X35213720Y-76150960D01*
X35374040Y-76311280D01*
X35500003Y-76499797D01*
X35500004Y-76499799D01*
X35586768Y-76709267D01*
X35622102Y-76886900D01*
X35631000Y-76931636D01*
X35631000Y-77158364D01*
X35586768Y-77380734D01*
X35500003Y-77590203D01*
X35374040Y-77778720D01*
X35213720Y-77939040D01*
X35025203Y-78065003D01*
X34815734Y-78151768D01*
X34704549Y-78173884D01*
X34593365Y-78196000D01*
X34366635Y-78196000D01*
X34255451Y-78173884D01*
X34144266Y-78151768D01*
X33934797Y-78065003D01*
X33746280Y-77939040D01*
X33585960Y-77778720D01*
X33459997Y-77590203D01*
X33373232Y-77380734D01*
X33329000Y-77158364D01*
X33329000Y-76931636D01*
X33337899Y-76886900D01*
X33373232Y-76709267D01*
X33459996Y-76499799D01*
X33459997Y-76499797D01*
X33585960Y-76311280D01*
X33746280Y-76150960D01*
X33934797Y-76024997D01*
X34144266Y-75938232D01*
X34327568Y-75901771D01*
X34366635Y-75894000D01*
X34593365Y-75894000D01*
X34632432Y-75901771D01*
G37*
G36*
X24848228Y-76471703D02*
G01*
X25003100Y-76535853D01*
X25142481Y-76628985D01*
X25261015Y-76747519D01*
X25354147Y-76886900D01*
X25418297Y-77041772D01*
X25451000Y-77206184D01*
X25451000Y-77373816D01*
X25418297Y-77538228D01*
X25354147Y-77693100D01*
X25261015Y-77832481D01*
X25142481Y-77951015D01*
X25003100Y-78044147D01*
X24848228Y-78108297D01*
X24683816Y-78141000D01*
X24516184Y-78141000D01*
X24351772Y-78108297D01*
X24196900Y-78044147D01*
X24057519Y-77951015D01*
X23938985Y-77832481D01*
X23845853Y-77693100D01*
X23781703Y-77538228D01*
X23749000Y-77373816D01*
X23749000Y-77206184D01*
X23781703Y-77041772D01*
X23845853Y-76886900D01*
X23938985Y-76747519D01*
X24057519Y-76628985D01*
X24196900Y-76535853D01*
X24351772Y-76471703D01*
X24516184Y-76439000D01*
X24683816Y-76439000D01*
X24848228Y-76471703D01*
G37*
G36*
X22308228Y-75331703D02*
G01*
X22463100Y-75395853D01*
X22602481Y-75488985D01*
X22721015Y-75607519D01*
X22814147Y-75746900D01*
X22878297Y-75901772D01*
X22911000Y-76066184D01*
X22911000Y-76233816D01*
X22878297Y-76398228D01*
X22814147Y-76553100D01*
X22721015Y-76692481D01*
X22602481Y-76811015D01*
X22463100Y-76904147D01*
X22308228Y-76968297D01*
X22143816Y-77001000D01*
X21976184Y-77001000D01*
X21811772Y-76968297D01*
X21656900Y-76904147D01*
X21517519Y-76811015D01*
X21398985Y-76692481D01*
X21305853Y-76553100D01*
X21241703Y-76398228D01*
X21209000Y-76233816D01*
X21209000Y-76066184D01*
X21241703Y-75901772D01*
X21305853Y-75746900D01*
X21398985Y-75607519D01*
X21517519Y-75488985D01*
X21656900Y-75395853D01*
X21811772Y-75331703D01*
X21976184Y-75299000D01*
X22143816Y-75299000D01*
X22308228Y-75331703D01*
G37*
G36*
X27388228Y-75331703D02*
G01*
X27543100Y-75395853D01*
X27682481Y-75488985D01*
X27801015Y-75607519D01*
X27894147Y-75746900D01*
X27958297Y-75901772D01*
X27991000Y-76066184D01*
X27991000Y-76233816D01*
X27958297Y-76398228D01*
X27894147Y-76553100D01*
X27801015Y-76692481D01*
X27682481Y-76811015D01*
X27543100Y-76904147D01*
X27388228Y-76968297D01*
X27223816Y-77001000D01*
X27056184Y-77001000D01*
X26891772Y-76968297D01*
X26736900Y-76904147D01*
X26597519Y-76811015D01*
X26478985Y-76692481D01*
X26385853Y-76553100D01*
X26321703Y-76398228D01*
X26289000Y-76233816D01*
X26289000Y-76066184D01*
X26321703Y-75901772D01*
X26385853Y-75746900D01*
X26478985Y-75607519D01*
X26597519Y-75488985D01*
X26736900Y-75395853D01*
X26891772Y-75331703D01*
X27056184Y-75299000D01*
X27223816Y-75299000D01*
X27388228Y-75331703D01*
G37*
G36*
X29624549Y-74011116D02*
G01*
X29735734Y-74033232D01*
X29945203Y-74119997D01*
X30133720Y-74245960D01*
X30294040Y-74406280D01*
X30328277Y-74457520D01*
X30420004Y-74594799D01*
X30506768Y-74804267D01*
X30551000Y-75026635D01*
X30551000Y-75253365D01*
X30535417Y-75331705D01*
X30506768Y-75475734D01*
X30420003Y-75685203D01*
X30294040Y-75873720D01*
X30133720Y-76034040D01*
X29945203Y-76160003D01*
X29735734Y-76246768D01*
X29624549Y-76268884D01*
X29513365Y-76291000D01*
X29286635Y-76291000D01*
X29175451Y-76268884D01*
X29064266Y-76246768D01*
X28854797Y-76160003D01*
X28666280Y-76034040D01*
X28505960Y-75873720D01*
X28379997Y-75685203D01*
X28293232Y-75475734D01*
X28264583Y-75331705D01*
X28249000Y-75253365D01*
X28249000Y-75026635D01*
X28293232Y-74804267D01*
X28379996Y-74594799D01*
X28471723Y-74457520D01*
X28505960Y-74406280D01*
X28666280Y-74245960D01*
X28854797Y-74119997D01*
X29064266Y-74033232D01*
X29175451Y-74011116D01*
X29286635Y-73989000D01*
X29513365Y-73989000D01*
X29624549Y-74011116D01*
G37*
G36*
X24848228Y-74181703D02*
G01*
X25003100Y-74245853D01*
X25142481Y-74338985D01*
X25261015Y-74457519D01*
X25354147Y-74596900D01*
X25418297Y-74751772D01*
X25451000Y-74916184D01*
X25451000Y-75083816D01*
X25418297Y-75248228D01*
X25354147Y-75403100D01*
X25261015Y-75542481D01*
X25142481Y-75661015D01*
X25003100Y-75754147D01*
X24848228Y-75818297D01*
X24683816Y-75851000D01*
X24516184Y-75851000D01*
X24351772Y-75818297D01*
X24196900Y-75754147D01*
X24057519Y-75661015D01*
X23938985Y-75542481D01*
X23845853Y-75403100D01*
X23781703Y-75248228D01*
X23749000Y-75083816D01*
X23749000Y-74916184D01*
X23781703Y-74751772D01*
X23845853Y-74596900D01*
X23938985Y-74457519D01*
X24057519Y-74338985D01*
X24196900Y-74245853D01*
X24351772Y-74181703D01*
X24516184Y-74149000D01*
X24683816Y-74149000D01*
X24848228Y-74181703D01*
G37*
G36*
X22308228Y-73041703D02*
G01*
X22463100Y-73105853D01*
X22602481Y-73198985D01*
X22721015Y-73317519D01*
X22814147Y-73456900D01*
X22878297Y-73611772D01*
X22911000Y-73776184D01*
X22911000Y-73943816D01*
X22878297Y-74108228D01*
X22814147Y-74263100D01*
X22721015Y-74402481D01*
X22602481Y-74521015D01*
X22463100Y-74614147D01*
X22308228Y-74678297D01*
X22143816Y-74711000D01*
X21976184Y-74711000D01*
X21811772Y-74678297D01*
X21656900Y-74614147D01*
X21517519Y-74521015D01*
X21398985Y-74402481D01*
X21305853Y-74263100D01*
X21241703Y-74108228D01*
X21209000Y-73943816D01*
X21209000Y-73776184D01*
X21241703Y-73611772D01*
X21305853Y-73456900D01*
X21398985Y-73317519D01*
X21517519Y-73198985D01*
X21656900Y-73105853D01*
X21811772Y-73041703D01*
X21976184Y-73009000D01*
X22143816Y-73009000D01*
X22308228Y-73041703D01*
G37*
G36*
X27388228Y-73041703D02*
G01*
X27543100Y-73105853D01*
X27682481Y-73198985D01*
X27801015Y-73317519D01*
X27894147Y-73456900D01*
X27958297Y-73611772D01*
X27991000Y-73776184D01*
X27991000Y-73943816D01*
X27958297Y-74108228D01*
X27894147Y-74263100D01*
X27801015Y-74402481D01*
X27682481Y-74521015D01*
X27543100Y-74614147D01*
X27388228Y-74678297D01*
X27223816Y-74711000D01*
X27056184Y-74711000D01*
X26891772Y-74678297D01*
X26736900Y-74614147D01*
X26597519Y-74521015D01*
X26478985Y-74402481D01*
X26385853Y-74263100D01*
X26321703Y-74108228D01*
X26289000Y-73943816D01*
X26289000Y-73776184D01*
X26321703Y-73611772D01*
X26385853Y-73456900D01*
X26478985Y-73317519D01*
X26597519Y-73198985D01*
X26736900Y-73105853D01*
X26891772Y-73041703D01*
X27056184Y-73009000D01*
X27223816Y-73009000D01*
X27388228Y-73041703D01*
G37*
G36*
X34704549Y-72106116D02*
G01*
X34815734Y-72128232D01*
X35025203Y-72214997D01*
X35213720Y-72340960D01*
X35374040Y-72501280D01*
X35500003Y-72689797D01*
X35563203Y-72842374D01*
X35586768Y-72899267D01*
X35631000Y-73121635D01*
X35631000Y-73348365D01*
X35616706Y-73420224D01*
X35586768Y-73570734D01*
X35500003Y-73780203D01*
X35374040Y-73968720D01*
X35213720Y-74129040D01*
X35025203Y-74255003D01*
X35025202Y-74255004D01*
X35025201Y-74255004D01*
X35005655Y-74263100D01*
X34815734Y-74341768D01*
X34704549Y-74363884D01*
X34593365Y-74386000D01*
X34366635Y-74386000D01*
X34255451Y-74363884D01*
X34144266Y-74341768D01*
X33954345Y-74263100D01*
X33934799Y-74255004D01*
X33934798Y-74255004D01*
X33934797Y-74255003D01*
X33746280Y-74129040D01*
X33585960Y-73968720D01*
X33459997Y-73780203D01*
X33373232Y-73570734D01*
X33343294Y-73420224D01*
X33329000Y-73348365D01*
X33329000Y-73121635D01*
X33373232Y-72899267D01*
X33396798Y-72842374D01*
X33459997Y-72689797D01*
X33585960Y-72501280D01*
X33746280Y-72340960D01*
X33934797Y-72214997D01*
X34144266Y-72128232D01*
X34255451Y-72106116D01*
X34366635Y-72084000D01*
X34593365Y-72084000D01*
X34704549Y-72106116D01*
G37*
G36*
X60747293Y-72459507D02*
G01*
X60820225Y-72474014D01*
X60877138Y-72497588D01*
X60957626Y-72530927D01*
X61081284Y-72613553D01*
X61186447Y-72718716D01*
X61269073Y-72842374D01*
X61325986Y-72979776D01*
X61355000Y-73125638D01*
X61355000Y-73274362D01*
X61325986Y-73420224D01*
X61269073Y-73557626D01*
X61186447Y-73681284D01*
X61081284Y-73786447D01*
X60957626Y-73869073D01*
X60877138Y-73902412D01*
X60820225Y-73925986D01*
X60747293Y-73940493D01*
X60674362Y-73955000D01*
X60525638Y-73955000D01*
X60452707Y-73940493D01*
X60379775Y-73925986D01*
X60322862Y-73902412D01*
X60242374Y-73869073D01*
X60118716Y-73786447D01*
X60013553Y-73681284D01*
X59930927Y-73557626D01*
X59874014Y-73420224D01*
X59845000Y-73274362D01*
X59845000Y-73125638D01*
X59874014Y-72979776D01*
X59930927Y-72842374D01*
X60013553Y-72718716D01*
X60118716Y-72613553D01*
X60242374Y-72530927D01*
X60322862Y-72497588D01*
X60379775Y-72474014D01*
X60452707Y-72459507D01*
X60525638Y-72445000D01*
X60674362Y-72445000D01*
X60747293Y-72459507D01*
G37*
G36*
X63855000Y-73955000D02*
G01*
X62345000Y-73955000D01*
X62345000Y-72445000D01*
X63855000Y-72445000D01*
X63855000Y-73955000D01*
G37*
G36*
X24848228Y-71891703D02*
G01*
X25003100Y-71955853D01*
X25142481Y-72048985D01*
X25261015Y-72167519D01*
X25354147Y-72306900D01*
X25418297Y-72461772D01*
X25451000Y-72626184D01*
X25451000Y-72793816D01*
X25418297Y-72958228D01*
X25354147Y-73113100D01*
X25261015Y-73252481D01*
X25142481Y-73371015D01*
X25003100Y-73464147D01*
X24848228Y-73528297D01*
X24683816Y-73561000D01*
X24516184Y-73561000D01*
X24351772Y-73528297D01*
X24196900Y-73464147D01*
X24057519Y-73371015D01*
X23938985Y-73252481D01*
X23845853Y-73113100D01*
X23781703Y-72958228D01*
X23749000Y-72793816D01*
X23749000Y-72626184D01*
X23781703Y-72461772D01*
X23845853Y-72306900D01*
X23938985Y-72167519D01*
X24057519Y-72048985D01*
X24196900Y-71955853D01*
X24351772Y-71891703D01*
X24516184Y-71859000D01*
X24683816Y-71859000D01*
X24848228Y-71891703D01*
G37*
G36*
X55935442Y-71305518D02*
G01*
X56001627Y-71312037D01*
X56171466Y-71363557D01*
X56327991Y-71447222D01*
X56363729Y-71476552D01*
X56465186Y-71559814D01*
X56542329Y-71653815D01*
X56577778Y-71697009D01*
X56661443Y-71853534D01*
X56712963Y-72023373D01*
X56730359Y-72200000D01*
X56712963Y-72376627D01*
X56661443Y-72546466D01*
X56577778Y-72702991D01*
X56548448Y-72738729D01*
X56465186Y-72840186D01*
X56363729Y-72923448D01*
X56327991Y-72952778D01*
X56171466Y-73036443D01*
X56001627Y-73087963D01*
X55935442Y-73094482D01*
X55869260Y-73101000D01*
X55530740Y-73101000D01*
X55464558Y-73094482D01*
X55398373Y-73087963D01*
X55228534Y-73036443D01*
X55072009Y-72952778D01*
X55036271Y-72923448D01*
X54934814Y-72840186D01*
X54851552Y-72738729D01*
X54822222Y-72702991D01*
X54738557Y-72546466D01*
X54687037Y-72376627D01*
X54669641Y-72200000D01*
X54687037Y-72023373D01*
X54738557Y-71853534D01*
X54822222Y-71697009D01*
X54857671Y-71653815D01*
X54934814Y-71559814D01*
X55036271Y-71476552D01*
X55072009Y-71447222D01*
X55228534Y-71363557D01*
X55398373Y-71312037D01*
X55464558Y-71305518D01*
X55530740Y-71299000D01*
X55869260Y-71299000D01*
X55935442Y-71305518D01*
G37*
G36*
X29601172Y-70196466D02*
G01*
X29735734Y-70223232D01*
X29945203Y-70309997D01*
X30133720Y-70435960D01*
X30294040Y-70596280D01*
X30420003Y-70784797D01*
X30420004Y-70784799D01*
X30432867Y-70815853D01*
X30506768Y-70994266D01*
X30524023Y-71081015D01*
X30551000Y-71216635D01*
X30551000Y-71443365D01*
X30528884Y-71554549D01*
X30506768Y-71665734D01*
X30445416Y-71813850D01*
X30428980Y-71853532D01*
X30420003Y-71875203D01*
X30294040Y-72063720D01*
X30133720Y-72224040D01*
X29945203Y-72350003D01*
X29735734Y-72436768D01*
X29624549Y-72458884D01*
X29513365Y-72481000D01*
X29286635Y-72481000D01*
X29175451Y-72458884D01*
X29064266Y-72436768D01*
X28854797Y-72350003D01*
X28666280Y-72224040D01*
X28505960Y-72063720D01*
X28379997Y-71875203D01*
X28371021Y-71853532D01*
X28354584Y-71813850D01*
X28293232Y-71665734D01*
X28271116Y-71554549D01*
X28249000Y-71443365D01*
X28249000Y-71216635D01*
X28275977Y-71081015D01*
X28293232Y-70994266D01*
X28367133Y-70815853D01*
X28379996Y-70784799D01*
X28379997Y-70784797D01*
X28505960Y-70596280D01*
X28666280Y-70435960D01*
X28854797Y-70309997D01*
X29064266Y-70223232D01*
X29198828Y-70196466D01*
X29286635Y-70179000D01*
X29513365Y-70179000D01*
X29601172Y-70196466D01*
G37*
G36*
X22308228Y-70751703D02*
G01*
X22463100Y-70815853D01*
X22602481Y-70908985D01*
X22721015Y-71027519D01*
X22814147Y-71166900D01*
X22878297Y-71321772D01*
X22911000Y-71486184D01*
X22911000Y-71653816D01*
X22878297Y-71818228D01*
X22814147Y-71973100D01*
X22721015Y-72112481D01*
X22602481Y-72231015D01*
X22463100Y-72324147D01*
X22308228Y-72388297D01*
X22143816Y-72421000D01*
X21976184Y-72421000D01*
X21811772Y-72388297D01*
X21656900Y-72324147D01*
X21517519Y-72231015D01*
X21398985Y-72112481D01*
X21305853Y-71973100D01*
X21241703Y-71818228D01*
X21209000Y-71653816D01*
X21209000Y-71486184D01*
X21241703Y-71321772D01*
X21305853Y-71166900D01*
X21398985Y-71027519D01*
X21517519Y-70908985D01*
X21656900Y-70815853D01*
X21811772Y-70751703D01*
X21976184Y-70719000D01*
X22143816Y-70719000D01*
X22308228Y-70751703D01*
G37*
G36*
X27388228Y-70751703D02*
G01*
X27543100Y-70815853D01*
X27682481Y-70908985D01*
X27801015Y-71027519D01*
X27894147Y-71166900D01*
X27958297Y-71321772D01*
X27991000Y-71486184D01*
X27991000Y-71653816D01*
X27958297Y-71818228D01*
X27894147Y-71973100D01*
X27801015Y-72112481D01*
X27682481Y-72231015D01*
X27543100Y-72324147D01*
X27388228Y-72388297D01*
X27223816Y-72421000D01*
X27056184Y-72421000D01*
X26891772Y-72388297D01*
X26736900Y-72324147D01*
X26597519Y-72231015D01*
X26478985Y-72112481D01*
X26385853Y-71973100D01*
X26321703Y-71818228D01*
X26289000Y-71653816D01*
X26289000Y-71486184D01*
X26321703Y-71321772D01*
X26385853Y-71166900D01*
X26478985Y-71027519D01*
X26597519Y-70908985D01*
X26736900Y-70815853D01*
X26891772Y-70751703D01*
X27056184Y-70719000D01*
X27223816Y-70719000D01*
X27388228Y-70751703D01*
G37*
G36*
X24848228Y-69601703D02*
G01*
X25003100Y-69665853D01*
X25142481Y-69758985D01*
X25261015Y-69877519D01*
X25354147Y-70016900D01*
X25418297Y-70171772D01*
X25451000Y-70336184D01*
X25451000Y-70503816D01*
X25418297Y-70668228D01*
X25354147Y-70823100D01*
X25261015Y-70962481D01*
X25142481Y-71081015D01*
X25003100Y-71174147D01*
X24848228Y-71238297D01*
X24683816Y-71271000D01*
X24516184Y-71271000D01*
X24351772Y-71238297D01*
X24196900Y-71174147D01*
X24057519Y-71081015D01*
X23938985Y-70962481D01*
X23845853Y-70823100D01*
X23781703Y-70668228D01*
X23749000Y-70503816D01*
X23749000Y-70336184D01*
X23781703Y-70171772D01*
X23845853Y-70016900D01*
X23938985Y-69877519D01*
X24057519Y-69758985D01*
X24196900Y-69665853D01*
X24351772Y-69601703D01*
X24516184Y-69569000D01*
X24683816Y-69569000D01*
X24848228Y-69601703D01*
G37*
G36*
X67060443Y-68955519D02*
G01*
X67126627Y-68962037D01*
X67296466Y-69013557D01*
X67452991Y-69097222D01*
X67488729Y-69126552D01*
X67590186Y-69209814D01*
X67673448Y-69311271D01*
X67702778Y-69347009D01*
X67786443Y-69503534D01*
X67837963Y-69673373D01*
X67855359Y-69850000D01*
X67837963Y-70026627D01*
X67786443Y-70196466D01*
X67702778Y-70352991D01*
X67673448Y-70388729D01*
X67590186Y-70490186D01*
X67488729Y-70573448D01*
X67452991Y-70602778D01*
X67296466Y-70686443D01*
X67126627Y-70737963D01*
X67060443Y-70744481D01*
X66994260Y-70751000D01*
X65205740Y-70751000D01*
X65139557Y-70744481D01*
X65073373Y-70737963D01*
X64903534Y-70686443D01*
X64747009Y-70602778D01*
X64711271Y-70573448D01*
X64609814Y-70490186D01*
X64526552Y-70388729D01*
X64497222Y-70352991D01*
X64413557Y-70196466D01*
X64362037Y-70026627D01*
X64344641Y-69850000D01*
X64362037Y-69673373D01*
X64413557Y-69503534D01*
X64497222Y-69347009D01*
X64526552Y-69311271D01*
X64609814Y-69209814D01*
X64711271Y-69126552D01*
X64747009Y-69097222D01*
X64903534Y-69013557D01*
X65073373Y-68962037D01*
X65139557Y-68955519D01*
X65205740Y-68949000D01*
X66994260Y-68949000D01*
X67060443Y-68955519D01*
G37*
G36*
X55935443Y-68805519D02*
G01*
X56001627Y-68812037D01*
X56171466Y-68863557D01*
X56171468Y-68863558D01*
X56201849Y-68879797D01*
X56327991Y-68947222D01*
X56330157Y-68949000D01*
X56465186Y-69059814D01*
X56548448Y-69161271D01*
X56577778Y-69197009D01*
X56661443Y-69353534D01*
X56712963Y-69523373D01*
X56730359Y-69700000D01*
X56712963Y-69876627D01*
X56661443Y-70046466D01*
X56577778Y-70202991D01*
X56548448Y-70238729D01*
X56465186Y-70340186D01*
X56363729Y-70423448D01*
X56327991Y-70452778D01*
X56171466Y-70536443D01*
X56001627Y-70587963D01*
X55935443Y-70594481D01*
X55869260Y-70601000D01*
X55530740Y-70601000D01*
X55464557Y-70594481D01*
X55398373Y-70587963D01*
X55228534Y-70536443D01*
X55072009Y-70452778D01*
X55036271Y-70423448D01*
X54934814Y-70340186D01*
X54851552Y-70238729D01*
X54822222Y-70202991D01*
X54738557Y-70046466D01*
X54687037Y-69876627D01*
X54669641Y-69700000D01*
X54687037Y-69523373D01*
X54738557Y-69353534D01*
X54822222Y-69197009D01*
X54851552Y-69161271D01*
X54934814Y-69059814D01*
X55069843Y-68949000D01*
X55072009Y-68947222D01*
X55198151Y-68879797D01*
X55228532Y-68863558D01*
X55228534Y-68863557D01*
X55398373Y-68812037D01*
X55464557Y-68805519D01*
X55530740Y-68799000D01*
X55869260Y-68799000D01*
X55935443Y-68805519D01*
G37*
G36*
X34704549Y-68296116D02*
G01*
X34815734Y-68318232D01*
X35025203Y-68404997D01*
X35213720Y-68530960D01*
X35374040Y-68691280D01*
X35500003Y-68879797D01*
X35586768Y-69089266D01*
X35631000Y-69311636D01*
X35631000Y-69538364D01*
X35586768Y-69760734D01*
X35500003Y-69970203D01*
X35374040Y-70158720D01*
X35213720Y-70319040D01*
X35025203Y-70445003D01*
X34815734Y-70531768D01*
X34704549Y-70553884D01*
X34593365Y-70576000D01*
X34366635Y-70576000D01*
X34255451Y-70553884D01*
X34144266Y-70531768D01*
X33934797Y-70445003D01*
X33746280Y-70319040D01*
X33585960Y-70158720D01*
X33459997Y-69970203D01*
X33373232Y-69760734D01*
X33329000Y-69538364D01*
X33329000Y-69311636D01*
X33373232Y-69089266D01*
X33459997Y-68879797D01*
X33585960Y-68691280D01*
X33746280Y-68530960D01*
X33934797Y-68404997D01*
X34144266Y-68318232D01*
X34255451Y-68296116D01*
X34366635Y-68274000D01*
X34593365Y-68274000D01*
X34704549Y-68296116D01*
G37*
G36*
X27388228Y-68461703D02*
G01*
X27543100Y-68525853D01*
X27682481Y-68618985D01*
X27801015Y-68737519D01*
X27894147Y-68876900D01*
X27958297Y-69031772D01*
X27991000Y-69196184D01*
X27991000Y-69363816D01*
X27958297Y-69528228D01*
X27894147Y-69683100D01*
X27801015Y-69822481D01*
X27682481Y-69941015D01*
X27543100Y-70034147D01*
X27388228Y-70098297D01*
X27223816Y-70131000D01*
X27056184Y-70131000D01*
X26891772Y-70098297D01*
X26736900Y-70034147D01*
X26597519Y-69941015D01*
X26478985Y-69822481D01*
X26385853Y-69683100D01*
X26321703Y-69528228D01*
X26289000Y-69363816D01*
X26289000Y-69196184D01*
X26321703Y-69031772D01*
X26385853Y-68876900D01*
X26478985Y-68737519D01*
X26597519Y-68618985D01*
X26736900Y-68525853D01*
X26891772Y-68461703D01*
X27056184Y-68429000D01*
X27223816Y-68429000D01*
X27388228Y-68461703D01*
G37*
G36*
X22308228Y-68461703D02*
G01*
X22463100Y-68525853D01*
X22602481Y-68618985D01*
X22721015Y-68737519D01*
X22814147Y-68876900D01*
X22878297Y-69031772D01*
X22911000Y-69196184D01*
X22911000Y-69363816D01*
X22878297Y-69528228D01*
X22814147Y-69683100D01*
X22721015Y-69822481D01*
X22602481Y-69941015D01*
X22463100Y-70034147D01*
X22308228Y-70098297D01*
X22143816Y-70131000D01*
X21976184Y-70131000D01*
X21811772Y-70098297D01*
X21656900Y-70034147D01*
X21517519Y-69941015D01*
X21398985Y-69822481D01*
X21305853Y-69683100D01*
X21241703Y-69528228D01*
X21209000Y-69363816D01*
X21209000Y-69196184D01*
X21241703Y-69031772D01*
X21305853Y-68876900D01*
X21398985Y-68737519D01*
X21517519Y-68618985D01*
X21656900Y-68525853D01*
X21811772Y-68461703D01*
X21976184Y-68429000D01*
X22143816Y-68429000D01*
X22308228Y-68461703D01*
G37*
G36*
X29624549Y-66391116D02*
G01*
X29735734Y-66413232D01*
X29945203Y-66499997D01*
X30133720Y-66625960D01*
X30294040Y-66786280D01*
X30420003Y-66974797D01*
X30420004Y-66974799D01*
X30506768Y-67184267D01*
X30545031Y-67376625D01*
X30551000Y-67406636D01*
X30551000Y-67633364D01*
X30506768Y-67855734D01*
X30420003Y-68065203D01*
X30294040Y-68253720D01*
X30133720Y-68414040D01*
X29945203Y-68540003D01*
X29735734Y-68626768D01*
X29624549Y-68648884D01*
X29513365Y-68671000D01*
X29286635Y-68671000D01*
X29175451Y-68648884D01*
X29064266Y-68626768D01*
X28854797Y-68540003D01*
X28666280Y-68414040D01*
X28505960Y-68253720D01*
X28379997Y-68065203D01*
X28293232Y-67855734D01*
X28249000Y-67633364D01*
X28249000Y-67406636D01*
X28254970Y-67376625D01*
X28293232Y-67184267D01*
X28379996Y-66974799D01*
X28379997Y-66974797D01*
X28505960Y-66786280D01*
X28666280Y-66625960D01*
X28854797Y-66499997D01*
X29064266Y-66413232D01*
X29175451Y-66391116D01*
X29286635Y-66369000D01*
X29513365Y-66369000D01*
X29624549Y-66391116D01*
G37*
G36*
X55935443Y-66305519D02*
G01*
X56001627Y-66312037D01*
X56171466Y-66363557D01*
X56327991Y-66447222D01*
X56363729Y-66476552D01*
X56465186Y-66559814D01*
X56548448Y-66661271D01*
X56577778Y-66697009D01*
X56661443Y-66853534D01*
X56712963Y-67023373D01*
X56730359Y-67200000D01*
X56712963Y-67376627D01*
X56661443Y-67546466D01*
X56577778Y-67702991D01*
X56548448Y-67738729D01*
X56465186Y-67840186D01*
X56363729Y-67923448D01*
X56327991Y-67952778D01*
X56171466Y-68036443D01*
X56001627Y-68087963D01*
X55935443Y-68094481D01*
X55869260Y-68101000D01*
X55530740Y-68101000D01*
X55464557Y-68094481D01*
X55398373Y-68087963D01*
X55228534Y-68036443D01*
X55072009Y-67952778D01*
X55036271Y-67923448D01*
X54934814Y-67840186D01*
X54851552Y-67738729D01*
X54822222Y-67702991D01*
X54738557Y-67546466D01*
X54687037Y-67376627D01*
X54669641Y-67200000D01*
X54687037Y-67023373D01*
X54738557Y-66853534D01*
X54822222Y-66697009D01*
X54851552Y-66661271D01*
X54934814Y-66559814D01*
X55036271Y-66476552D01*
X55072009Y-66447222D01*
X55228534Y-66363557D01*
X55398373Y-66312037D01*
X55464557Y-66305519D01*
X55530740Y-66299000D01*
X55869260Y-66299000D01*
X55935443Y-66305519D01*
G37*
G36*
X34704549Y-64486116D02*
G01*
X34815734Y-64508232D01*
X35025203Y-64594997D01*
X35213720Y-64720960D01*
X35374040Y-64881280D01*
X35500003Y-65069797D01*
X35586768Y-65279266D01*
X35631000Y-65501636D01*
X35631000Y-65728364D01*
X35586768Y-65950734D01*
X35500003Y-66160203D01*
X35374040Y-66348720D01*
X35213720Y-66509040D01*
X35025203Y-66635003D01*
X34815734Y-66721768D01*
X34704549Y-66743884D01*
X34593365Y-66766000D01*
X34366635Y-66766000D01*
X34255451Y-66743884D01*
X34144266Y-66721768D01*
X33934797Y-66635003D01*
X33746280Y-66509040D01*
X33585960Y-66348720D01*
X33459997Y-66160203D01*
X33373232Y-65950734D01*
X33329000Y-65728364D01*
X33329000Y-65501636D01*
X33373232Y-65279266D01*
X33459997Y-65069797D01*
X33585960Y-64881280D01*
X33746280Y-64720960D01*
X33934797Y-64594997D01*
X34144266Y-64508232D01*
X34255451Y-64486116D01*
X34366635Y-64464000D01*
X34593365Y-64464000D01*
X34704549Y-64486116D01*
G37*
G36*
X69273966Y-63921000D02*
G01*
X69385734Y-63943232D01*
X69595203Y-64029997D01*
X69783720Y-64155960D01*
X69944040Y-64316280D01*
X70042743Y-64464000D01*
X70070004Y-64504799D01*
X70077698Y-64523375D01*
X70156768Y-64714266D01*
X70201000Y-64936636D01*
X70201000Y-65163364D01*
X70156768Y-65385734D01*
X70070003Y-65595203D01*
X69944040Y-65783720D01*
X69783720Y-65944040D01*
X69595203Y-66070003D01*
X69385734Y-66156768D01*
X69274549Y-66178884D01*
X69163365Y-66201000D01*
X68936635Y-66201000D01*
X68825451Y-66178884D01*
X68714266Y-66156768D01*
X68504797Y-66070003D01*
X68316280Y-65944040D01*
X68155960Y-65783720D01*
X68029997Y-65595203D01*
X67943232Y-65385734D01*
X67899000Y-65163364D01*
X67899000Y-64936636D01*
X67943232Y-64714266D01*
X68022302Y-64523375D01*
X68029996Y-64504799D01*
X68057257Y-64464000D01*
X68155960Y-64316280D01*
X68316280Y-64155960D01*
X68504797Y-64029997D01*
X68714266Y-63943232D01*
X68826034Y-63921000D01*
X68936635Y-63899000D01*
X69163365Y-63899000D01*
X69273966Y-63921000D01*
G37*
G36*
X55935442Y-63805518D02*
G01*
X56001627Y-63812037D01*
X56171466Y-63863557D01*
X56327991Y-63947222D01*
X56363729Y-63976552D01*
X56465186Y-64059814D01*
X56544090Y-64155960D01*
X56577778Y-64197009D01*
X56661443Y-64353534D01*
X56712963Y-64523373D01*
X56730359Y-64700000D01*
X56712963Y-64876627D01*
X56661443Y-65046466D01*
X56577778Y-65202991D01*
X56548448Y-65238729D01*
X56465186Y-65340186D01*
X56363729Y-65423448D01*
X56327991Y-65452778D01*
X56171466Y-65536443D01*
X56001627Y-65587963D01*
X55935442Y-65594482D01*
X55869260Y-65601000D01*
X55530740Y-65601000D01*
X55464558Y-65594482D01*
X55398373Y-65587963D01*
X55228534Y-65536443D01*
X55072009Y-65452778D01*
X55036271Y-65423448D01*
X54934814Y-65340186D01*
X54851552Y-65238729D01*
X54822222Y-65202991D01*
X54738557Y-65046466D01*
X54687037Y-64876627D01*
X54669641Y-64700000D01*
X54687037Y-64523373D01*
X54738557Y-64353534D01*
X54822222Y-64197009D01*
X54855910Y-64155960D01*
X54934814Y-64059814D01*
X55036271Y-63976552D01*
X55072009Y-63947222D01*
X55228534Y-63863557D01*
X55398373Y-63812037D01*
X55464558Y-63805518D01*
X55530740Y-63799000D01*
X55869260Y-63799000D01*
X55935442Y-63805518D01*
G37*
G36*
X29624549Y-62581116D02*
G01*
X29735734Y-62603232D01*
X29945203Y-62689997D01*
X30133720Y-62815960D01*
X30294040Y-62976280D01*
X30420003Y-63164797D01*
X30506768Y-63374266D01*
X30551000Y-63596636D01*
X30551000Y-63823364D01*
X30506768Y-64045734D01*
X30420003Y-64255203D01*
X30294040Y-64443720D01*
X30133720Y-64604040D01*
X29945203Y-64730003D01*
X29735734Y-64816768D01*
X29624549Y-64838884D01*
X29513365Y-64861000D01*
X29286635Y-64861000D01*
X29175451Y-64838884D01*
X29064266Y-64816768D01*
X28854797Y-64730003D01*
X28666280Y-64604040D01*
X28505960Y-64443720D01*
X28379997Y-64255203D01*
X28293232Y-64045734D01*
X28249000Y-63823364D01*
X28249000Y-63596636D01*
X28293232Y-63374266D01*
X28379997Y-63164797D01*
X28505960Y-62976280D01*
X28666280Y-62815960D01*
X28854797Y-62689997D01*
X29064266Y-62603232D01*
X29175451Y-62581116D01*
X29286635Y-62559000D01*
X29513365Y-62559000D01*
X29624549Y-62581116D01*
G37*
G36*
X25048903Y-59363213D02*
G01*
X25271177Y-59407426D01*
X25689932Y-59580880D01*
X26066802Y-59832696D01*
X26387304Y-60153198D01*
X26639120Y-60530068D01*
X26812574Y-60948823D01*
X26812574Y-60948824D01*
X26901000Y-61393370D01*
X26901000Y-61846630D01*
X26865843Y-62023375D01*
X26812574Y-62291177D01*
X26639120Y-62709932D01*
X26387304Y-63086802D01*
X26066802Y-63407304D01*
X25689932Y-63659120D01*
X25271177Y-63832574D01*
X25048903Y-63876787D01*
X24826630Y-63921000D01*
X24373370Y-63921000D01*
X24151097Y-63876787D01*
X23928823Y-63832574D01*
X23510068Y-63659120D01*
X23133198Y-63407304D01*
X22812696Y-63086802D01*
X22560880Y-62709932D01*
X22387426Y-62291177D01*
X22334157Y-62023375D01*
X22299000Y-61846630D01*
X22299000Y-61393370D01*
X22387426Y-60948824D01*
X22387426Y-60948823D01*
X22560880Y-60530068D01*
X22812696Y-60153198D01*
X23133198Y-59832696D01*
X23510068Y-59580880D01*
X23928823Y-59407426D01*
X24151097Y-59363213D01*
X24373370Y-59319000D01*
X24826630Y-59319000D01*
X25048903Y-59363213D01*
G37*
G36*
X55935443Y-61305519D02*
G01*
X56001627Y-61312037D01*
X56171466Y-61363557D01*
X56327991Y-61447222D01*
X56354853Y-61469267D01*
X56465186Y-61559814D01*
X56548448Y-61661271D01*
X56577778Y-61697009D01*
X56661443Y-61853534D01*
X56712963Y-62023373D01*
X56730359Y-62200000D01*
X56712963Y-62376627D01*
X56661443Y-62546466D01*
X56577778Y-62702991D01*
X56548448Y-62738729D01*
X56465186Y-62840186D01*
X56363729Y-62923448D01*
X56327991Y-62952778D01*
X56171466Y-63036443D01*
X56001627Y-63087963D01*
X55935442Y-63094482D01*
X55869260Y-63101000D01*
X55530740Y-63101000D01*
X55464558Y-63094482D01*
X55398373Y-63087963D01*
X55228534Y-63036443D01*
X55072009Y-62952778D01*
X55036271Y-62923448D01*
X54934814Y-62840186D01*
X54851552Y-62738729D01*
X54822222Y-62702991D01*
X54738557Y-62546466D01*
X54687037Y-62376627D01*
X54669641Y-62200000D01*
X54687037Y-62023373D01*
X54738557Y-61853534D01*
X54822222Y-61697009D01*
X54851552Y-61661271D01*
X54934814Y-61559814D01*
X55045147Y-61469267D01*
X55072009Y-61447222D01*
X55228534Y-61363557D01*
X55398373Y-61312037D01*
X55464557Y-61305519D01*
X55530740Y-61299000D01*
X55869260Y-61299000D01*
X55935443Y-61305519D01*
G37*
G36*
X34704549Y-60676116D02*
G01*
X34815734Y-60698232D01*
X35025203Y-60784997D01*
X35213720Y-60910960D01*
X35374040Y-61071280D01*
X35500003Y-61259797D01*
X35586768Y-61469266D01*
X35631000Y-61691636D01*
X35631000Y-61918364D01*
X35586768Y-62140734D01*
X35500003Y-62350203D01*
X35374040Y-62538720D01*
X35213720Y-62699040D01*
X35025203Y-62825003D01*
X35025202Y-62825004D01*
X35025201Y-62825004D01*
X34988548Y-62840186D01*
X34815734Y-62911768D01*
X34704549Y-62933884D01*
X34593365Y-62956000D01*
X34366635Y-62956000D01*
X34255451Y-62933884D01*
X34144266Y-62911768D01*
X33971452Y-62840186D01*
X33934799Y-62825004D01*
X33934798Y-62825004D01*
X33934797Y-62825003D01*
X33746280Y-62699040D01*
X33585960Y-62538720D01*
X33459997Y-62350203D01*
X33373232Y-62140734D01*
X33329000Y-61918364D01*
X33329000Y-61691636D01*
X33373232Y-61469266D01*
X33459997Y-61259797D01*
X33585960Y-61071280D01*
X33746280Y-60910960D01*
X33934797Y-60784997D01*
X34144266Y-60698232D01*
X34255451Y-60676116D01*
X34366635Y-60654000D01*
X34593365Y-60654000D01*
X34704549Y-60676116D01*
G37*
G36*
X66202585Y-59278802D02*
G01*
X66352410Y-59308604D01*
X66634674Y-59425521D01*
X66888705Y-59595259D01*
X67104741Y-59811295D01*
X67274479Y-60065326D01*
X67388329Y-60340186D01*
X67391396Y-60347591D01*
X67427694Y-60530070D01*
X67451000Y-60647240D01*
X67451000Y-60952760D01*
X67391396Y-61252410D01*
X67274479Y-61534674D01*
X67104741Y-61788705D01*
X66888705Y-62004741D01*
X66634674Y-62174479D01*
X66352410Y-62291396D01*
X66202585Y-62321198D01*
X66052761Y-62351000D01*
X65747239Y-62351000D01*
X65597415Y-62321198D01*
X65447590Y-62291396D01*
X65165326Y-62174479D01*
X64911295Y-62004741D01*
X64695259Y-61788705D01*
X64525521Y-61534674D01*
X64408604Y-61252410D01*
X64349000Y-60952760D01*
X64349000Y-60647240D01*
X64372307Y-60530070D01*
X64408604Y-60347591D01*
X64411671Y-60340186D01*
X64525521Y-60065326D01*
X64695259Y-59811295D01*
X64911295Y-59595259D01*
X65165326Y-59425521D01*
X65447590Y-59308604D01*
X65597415Y-59278802D01*
X65747239Y-59249000D01*
X66052761Y-59249000D01*
X66202585Y-59278802D01*
G37*
G36*
X61702585Y-59278802D02*
G01*
X61852410Y-59308604D01*
X62134674Y-59425521D01*
X62388705Y-59595259D01*
X62604741Y-59811295D01*
X62774479Y-60065326D01*
X62888329Y-60340186D01*
X62891396Y-60347591D01*
X62927694Y-60530070D01*
X62951000Y-60647240D01*
X62951000Y-60952760D01*
X62891396Y-61252410D01*
X62774479Y-61534674D01*
X62604741Y-61788705D01*
X62388705Y-62004741D01*
X62134674Y-62174479D01*
X61852410Y-62291396D01*
X61702585Y-62321198D01*
X61552761Y-62351000D01*
X61247239Y-62351000D01*
X61097415Y-62321198D01*
X60947590Y-62291396D01*
X60665326Y-62174479D01*
X60411295Y-62004741D01*
X60195259Y-61788705D01*
X60025521Y-61534674D01*
X59908604Y-61252410D01*
X59849000Y-60952760D01*
X59849000Y-60647240D01*
X59872307Y-60530070D01*
X59908604Y-60347591D01*
X59911671Y-60340186D01*
X60025521Y-60065326D01*
X60195259Y-59811295D01*
X60411295Y-59595259D01*
X60665326Y-59425521D01*
X60947590Y-59308604D01*
X61097415Y-59278802D01*
X61247239Y-59249000D01*
X61552761Y-59249000D01*
X61702585Y-59278802D01*
G37*
G36*
X55935443Y-58805519D02*
G01*
X56001627Y-58812037D01*
X56171466Y-58863557D01*
X56327991Y-58947222D01*
X56363729Y-58976552D01*
X56465186Y-59059814D01*
X56548448Y-59161271D01*
X56577778Y-59197009D01*
X56661443Y-59353534D01*
X56712963Y-59523373D01*
X56730359Y-59700000D01*
X56712963Y-59876627D01*
X56661443Y-60046466D01*
X56577778Y-60202991D01*
X56548448Y-60238729D01*
X56465186Y-60340186D01*
X56363729Y-60423448D01*
X56327991Y-60452778D01*
X56171466Y-60536443D01*
X56001627Y-60587963D01*
X55935442Y-60594482D01*
X55869260Y-60601000D01*
X55530740Y-60601000D01*
X55464558Y-60594482D01*
X55398373Y-60587963D01*
X55228534Y-60536443D01*
X55072009Y-60452778D01*
X55036271Y-60423448D01*
X54934814Y-60340186D01*
X54851552Y-60238729D01*
X54822222Y-60202991D01*
X54738557Y-60046466D01*
X54687037Y-59876627D01*
X54669641Y-59700000D01*
X54687037Y-59523373D01*
X54738557Y-59353534D01*
X54822222Y-59197009D01*
X54851552Y-59161271D01*
X54934814Y-59059814D01*
X55036271Y-58976552D01*
X55072009Y-58947222D01*
X55228534Y-58863557D01*
X55398373Y-58812037D01*
X55464557Y-58805519D01*
X55530740Y-58799000D01*
X55869260Y-58799000D01*
X55935443Y-58805519D01*
G37*
G36*
X55935443Y-56305519D02*
G01*
X56001627Y-56312037D01*
X56171466Y-56363557D01*
X56327991Y-56447222D01*
X56363729Y-56476552D01*
X56465186Y-56559814D01*
X56548448Y-56661271D01*
X56577778Y-56697009D01*
X56661443Y-56853534D01*
X56712963Y-57023373D01*
X56730359Y-57200000D01*
X56712963Y-57376627D01*
X56661443Y-57546466D01*
X56577778Y-57702991D01*
X56548448Y-57738729D01*
X56465186Y-57840186D01*
X56363729Y-57923448D01*
X56327991Y-57952778D01*
X56171466Y-58036443D01*
X56001627Y-58087963D01*
X55935442Y-58094482D01*
X55869260Y-58101000D01*
X55530740Y-58101000D01*
X55464558Y-58094482D01*
X55398373Y-58087963D01*
X55228534Y-58036443D01*
X55072009Y-57952778D01*
X55036271Y-57923448D01*
X54934814Y-57840186D01*
X54851552Y-57738729D01*
X54822222Y-57702991D01*
X54738557Y-57546466D01*
X54687037Y-57376627D01*
X54669641Y-57200000D01*
X54687037Y-57023373D01*
X54738557Y-56853534D01*
X54822222Y-56697009D01*
X54851552Y-56661271D01*
X54934814Y-56559814D01*
X55036271Y-56476552D01*
X55072009Y-56447222D01*
X55228534Y-56363557D01*
X55398373Y-56312037D01*
X55464557Y-56305519D01*
X55530740Y-56299000D01*
X55869260Y-56299000D01*
X55935443Y-56305519D01*
G37*
G36*
X69274549Y-55421116D02*
G01*
X69385734Y-55443232D01*
X69482288Y-55483226D01*
X69579236Y-55523383D01*
X69595203Y-55529997D01*
X69783720Y-55655960D01*
X69944040Y-55816280D01*
X70070003Y-56004797D01*
X70156768Y-56214266D01*
X70201000Y-56436636D01*
X70201000Y-56663364D01*
X70156768Y-56885734D01*
X70070003Y-57095203D01*
X69944040Y-57283720D01*
X69783720Y-57444040D01*
X69595203Y-57570003D01*
X69385734Y-57656768D01*
X69274549Y-57678884D01*
X69163365Y-57701000D01*
X68936635Y-57701000D01*
X68825451Y-57678884D01*
X68714266Y-57656768D01*
X68504797Y-57570003D01*
X68316280Y-57444040D01*
X68155960Y-57283720D01*
X68029997Y-57095203D01*
X67943232Y-56885734D01*
X67899000Y-56663364D01*
X67899000Y-56436636D01*
X67943232Y-56214266D01*
X68029997Y-56004797D01*
X68155960Y-55816280D01*
X68316280Y-55655960D01*
X68504797Y-55529997D01*
X68520765Y-55523383D01*
X68617712Y-55483226D01*
X68714266Y-55443232D01*
X68825451Y-55421116D01*
X68936635Y-55399000D01*
X69163365Y-55399000D01*
X69274549Y-55421116D01*
G37*
G36*
X27798254Y-53027818D02*
G01*
X28171511Y-53182426D01*
X28171513Y-53182427D01*
X28507436Y-53406884D01*
X28793116Y-53692564D01*
X28986447Y-53981903D01*
X29017574Y-54028489D01*
X29172182Y-54401746D01*
X29251000Y-54797993D01*
X29251000Y-55202007D01*
X29172182Y-55598254D01*
X29081872Y-55816281D01*
X29017573Y-55971513D01*
X28793116Y-56307436D01*
X28507436Y-56593116D01*
X28171513Y-56817573D01*
X28171512Y-56817574D01*
X28171511Y-56817574D01*
X27798254Y-56972182D01*
X27402007Y-57051000D01*
X26997993Y-57051000D01*
X26601746Y-56972182D01*
X26228489Y-56817574D01*
X26228488Y-56817574D01*
X26228487Y-56817573D01*
X25892564Y-56593116D01*
X25606884Y-56307436D01*
X25382427Y-55971513D01*
X25318128Y-55816281D01*
X25227818Y-55598254D01*
X25149000Y-55202007D01*
X25149000Y-54797993D01*
X25227818Y-54401746D01*
X25382426Y-54028489D01*
X25413554Y-53981903D01*
X25606884Y-53692564D01*
X25892564Y-53406884D01*
X26228487Y-53182427D01*
X26228489Y-53182426D01*
X26601746Y-53027818D01*
X26997993Y-52949000D01*
X27402007Y-52949000D01*
X27798254Y-53027818D01*
G37*
G36*
X56583600Y-53802989D02*
G01*
X56616652Y-53813015D01*
X56647103Y-53829292D01*
X56673799Y-53851201D01*
X56695708Y-53877897D01*
X56711985Y-53908348D01*
X56722011Y-53941400D01*
X56726000Y-53981903D01*
X56726000Y-55418097D01*
X56722011Y-55458600D01*
X56711985Y-55491652D01*
X56695708Y-55522103D01*
X56673799Y-55548799D01*
X56647103Y-55570708D01*
X56616652Y-55586985D01*
X56583600Y-55597011D01*
X56543097Y-55601000D01*
X54856903Y-55601000D01*
X54816400Y-55597011D01*
X54783348Y-55586985D01*
X54752897Y-55570708D01*
X54726201Y-55548799D01*
X54704292Y-55522103D01*
X54688015Y-55491652D01*
X54677989Y-55458600D01*
X54674000Y-55418097D01*
X54674000Y-53981903D01*
X54677989Y-53941400D01*
X54688015Y-53908348D01*
X54704292Y-53877897D01*
X54726201Y-53851201D01*
X54752897Y-53829292D01*
X54783348Y-53813015D01*
X54816400Y-53802989D01*
X54856903Y-53799000D01*
X56543097Y-53799000D01*
X56583600Y-53802989D01*
G37*
G36*
X53889890Y-52474017D02*
G01*
X54008364Y-52523091D01*
X54114988Y-52594335D01*
X54205665Y-52685012D01*
X54276910Y-52791638D01*
X54325983Y-52910110D01*
X54351000Y-53035881D01*
X54351000Y-53164119D01*
X54347358Y-53182427D01*
X54325983Y-53289890D01*
X54276909Y-53408364D01*
X54205665Y-53514988D01*
X54114988Y-53605665D01*
X54008364Y-53676909D01*
X54008363Y-53676910D01*
X54008362Y-53676910D01*
X53889890Y-53725983D01*
X53764119Y-53751000D01*
X53635881Y-53751000D01*
X53510110Y-53725983D01*
X53391638Y-53676910D01*
X53391637Y-53676910D01*
X53391636Y-53676909D01*
X53285012Y-53605665D01*
X53194335Y-53514988D01*
X53123091Y-53408364D01*
X53074017Y-53289890D01*
X53052642Y-53182427D01*
X53049000Y-53164119D01*
X53049000Y-53035881D01*
X53074017Y-52910110D01*
X53123090Y-52791638D01*
X53194335Y-52685012D01*
X53285012Y-52594335D01*
X53391636Y-52523091D01*
X53510110Y-52474017D01*
X53635881Y-52449000D01*
X53764119Y-52449000D01*
X53889890Y-52474017D01*
G37*
G36*
X21417818Y-51327696D02*
G01*
X21531105Y-51362062D01*
X21635512Y-51417869D01*
X21727027Y-51492973D01*
X21802131Y-51584488D01*
X21857938Y-51688895D01*
X21892304Y-51802182D01*
X21903907Y-51920000D01*
X21892304Y-52037818D01*
X21857938Y-52151105D01*
X21802131Y-52255512D01*
X21727027Y-52347027D01*
X21635512Y-52422131D01*
X21531105Y-52477938D01*
X21417818Y-52512304D01*
X21329519Y-52521000D01*
X20670481Y-52521000D01*
X20582182Y-52512304D01*
X20468895Y-52477938D01*
X20364488Y-52422131D01*
X20272973Y-52347027D01*
X20197869Y-52255512D01*
X20142062Y-52151105D01*
X20107696Y-52037818D01*
X20096093Y-51920000D01*
X20107696Y-51802182D01*
X20142062Y-51688895D01*
X20197869Y-51584488D01*
X20272973Y-51492973D01*
X20364488Y-51417869D01*
X20468895Y-51362062D01*
X20582182Y-51327696D01*
X20670481Y-51319000D01*
X21329519Y-51319000D01*
X21417818Y-51327696D01*
G37*
G36*
X25217818Y-51327696D02*
G01*
X25331105Y-51362062D01*
X25435512Y-51417869D01*
X25527027Y-51492973D01*
X25602131Y-51584488D01*
X25657938Y-51688895D01*
X25692304Y-51802182D01*
X25703907Y-51920000D01*
X25692304Y-52037818D01*
X25657938Y-52151105D01*
X25602131Y-52255512D01*
X25527027Y-52347027D01*
X25435512Y-52422131D01*
X25331105Y-52477938D01*
X25217818Y-52512304D01*
X25129519Y-52521000D01*
X24470481Y-52521000D01*
X24382182Y-52512304D01*
X24268895Y-52477938D01*
X24164488Y-52422131D01*
X24072973Y-52347027D01*
X23997869Y-52255512D01*
X23942062Y-52151105D01*
X23907696Y-52037818D01*
X23896093Y-51920000D01*
X23907696Y-51802182D01*
X23942062Y-51688895D01*
X23997869Y-51584488D01*
X24072973Y-51492973D01*
X24164488Y-51417869D01*
X24268895Y-51362062D01*
X24382182Y-51327696D01*
X24470481Y-51319000D01*
X25129519Y-51319000D01*
X25217818Y-51327696D01*
G37*
G36*
X21417818Y-42687696D02*
G01*
X21531105Y-42722062D01*
X21635512Y-42777869D01*
X21727027Y-42852973D01*
X21802131Y-42944488D01*
X21857938Y-43048895D01*
X21892304Y-43162182D01*
X21903907Y-43280000D01*
X21892304Y-43397818D01*
X21857938Y-43511105D01*
X21802131Y-43615512D01*
X21727027Y-43707027D01*
X21635512Y-43782131D01*
X21531105Y-43837938D01*
X21417818Y-43872304D01*
X21329519Y-43881000D01*
X20670481Y-43881000D01*
X20582182Y-43872304D01*
X20468895Y-43837938D01*
X20364488Y-43782131D01*
X20272973Y-43707027D01*
X20197869Y-43615512D01*
X20142062Y-43511105D01*
X20107696Y-43397818D01*
X20096093Y-43280000D01*
X20107696Y-43162182D01*
X20142062Y-43048895D01*
X20197869Y-42944488D01*
X20272973Y-42852973D01*
X20364488Y-42777869D01*
X20468895Y-42722062D01*
X20582182Y-42687696D01*
X20670481Y-42679000D01*
X21329519Y-42679000D01*
X21417818Y-42687696D01*
G37*
G36*
X25217818Y-42687696D02*
G01*
X25331105Y-42722062D01*
X25435512Y-42777869D01*
X25527027Y-42852973D01*
X25602131Y-42944488D01*
X25657938Y-43048895D01*
X25692304Y-43162182D01*
X25703907Y-43280000D01*
X25692304Y-43397818D01*
X25657938Y-43511105D01*
X25602131Y-43615512D01*
X25527027Y-43707027D01*
X25435512Y-43782131D01*
X25331105Y-43837938D01*
X25217818Y-43872304D01*
X25129519Y-43881000D01*
X24470481Y-43881000D01*
X24382182Y-43872304D01*
X24268895Y-43837938D01*
X24164488Y-43782131D01*
X24072973Y-43707027D01*
X23997869Y-43615512D01*
X23942062Y-43511105D01*
X23907696Y-43397818D01*
X23896093Y-43280000D01*
X23907696Y-43162182D01*
X23942062Y-43048895D01*
X23997869Y-42944488D01*
X24072973Y-42852973D01*
X24164488Y-42777869D01*
X24268895Y-42722062D01*
X24382182Y-42687696D01*
X24470481Y-42679000D01*
X25129519Y-42679000D01*
X25217818Y-42687696D01*
G37*
M02*
