G04 #@! TF.GenerationSoftware,KiCad,Pcbnew,(5.1.5)-2*
G04 #@! TF.CreationDate,2020-11-21T23:32:15+13:00*
G04 #@! TF.ProjectId,rgbntsc,7267626e-7473-4632-9e6b-696361645f70,rev?*
G04 #@! TF.SameCoordinates,Original*
G04 #@! TF.FileFunction,Legend,Top*
G04 #@! TF.FilePolarity,Positive*
%FSLAX46Y46*%
G04 Gerber Fmt 4.6, Leading zero omitted, Abs format (unit mm)*
G04 Created by KiCad (PCBNEW (5.1.5)-2) date 2020-11-21 23:32:15*
%MOMM*%
%LPD*%
G04 APERTURE LIST*
%ADD10C,0.200000*%
%ADD11C,0.120000*%
%ADD12C,0.010000*%
%ADD13C,0.150000*%
%ADD14C,0.400000*%
%ADD15C,0.127000*%
%ADD16C,0.050000*%
G04 APERTURE END LIST*
D10*
X47231904Y-103128571D02*
X46798571Y-102414285D01*
X46489047Y-103128571D02*
X46489047Y-101628571D01*
X46984285Y-101628571D01*
X47108095Y-101700000D01*
X47170000Y-101771428D01*
X47231904Y-101914285D01*
X47231904Y-102128571D01*
X47170000Y-102271428D01*
X47108095Y-102342857D01*
X46984285Y-102414285D01*
X46489047Y-102414285D01*
X48470000Y-101700000D02*
X48346190Y-101628571D01*
X48160476Y-101628571D01*
X47974761Y-101700000D01*
X47850952Y-101842857D01*
X47789047Y-101985714D01*
X47727142Y-102271428D01*
X47727142Y-102485714D01*
X47789047Y-102771428D01*
X47850952Y-102914285D01*
X47974761Y-103057142D01*
X48160476Y-103128571D01*
X48284285Y-103128571D01*
X48470000Y-103057142D01*
X48531904Y-102985714D01*
X48531904Y-102485714D01*
X48284285Y-102485714D01*
X49522380Y-102342857D02*
X49708095Y-102414285D01*
X49770000Y-102485714D01*
X49831904Y-102628571D01*
X49831904Y-102842857D01*
X49770000Y-102985714D01*
X49708095Y-103057142D01*
X49584285Y-103128571D01*
X49089047Y-103128571D01*
X49089047Y-101628571D01*
X49522380Y-101628571D01*
X49646190Y-101700000D01*
X49708095Y-101771428D01*
X49770000Y-101914285D01*
X49770000Y-102057142D01*
X49708095Y-102200000D01*
X49646190Y-102271428D01*
X49522380Y-102342857D01*
X49089047Y-102342857D01*
X51193809Y-102128571D02*
X51689047Y-102128571D01*
X51379523Y-101628571D02*
X51379523Y-102914285D01*
X51441428Y-103057142D01*
X51565238Y-103128571D01*
X51689047Y-103128571D01*
X52308095Y-103128571D02*
X52184285Y-103057142D01*
X52122380Y-102985714D01*
X52060476Y-102842857D01*
X52060476Y-102414285D01*
X52122380Y-102271428D01*
X52184285Y-102200000D01*
X52308095Y-102128571D01*
X52493809Y-102128571D01*
X52617619Y-102200000D01*
X52679523Y-102271428D01*
X52741428Y-102414285D01*
X52741428Y-102842857D01*
X52679523Y-102985714D01*
X52617619Y-103057142D01*
X52493809Y-103128571D01*
X52308095Y-103128571D01*
X54289047Y-103128571D02*
X54289047Y-101628571D01*
X55031904Y-103128571D01*
X55031904Y-101628571D01*
X55465238Y-101628571D02*
X56208095Y-101628571D01*
X55836666Y-103128571D02*
X55836666Y-101628571D01*
X56579523Y-103057142D02*
X56765238Y-103128571D01*
X57074761Y-103128571D01*
X57198571Y-103057142D01*
X57260476Y-102985714D01*
X57322380Y-102842857D01*
X57322380Y-102700000D01*
X57260476Y-102557142D01*
X57198571Y-102485714D01*
X57074761Y-102414285D01*
X56827142Y-102342857D01*
X56703333Y-102271428D01*
X56641428Y-102200000D01*
X56579523Y-102057142D01*
X56579523Y-101914285D01*
X56641428Y-101771428D01*
X56703333Y-101700000D01*
X56827142Y-101628571D01*
X57136666Y-101628571D01*
X57322380Y-101700000D01*
X58622380Y-102985714D02*
X58560476Y-103057142D01*
X58374761Y-103128571D01*
X58250952Y-103128571D01*
X58065238Y-103057142D01*
X57941428Y-102914285D01*
X57879523Y-102771428D01*
X57817619Y-102485714D01*
X57817619Y-102271428D01*
X57879523Y-101985714D01*
X57941428Y-101842857D01*
X58065238Y-101700000D01*
X58250952Y-101628571D01*
X58374761Y-101628571D01*
X58560476Y-101700000D01*
X58622380Y-101771428D01*
X38008095Y-104221428D02*
X38070000Y-104150000D01*
X38193809Y-104078571D01*
X38503333Y-104078571D01*
X38627142Y-104150000D01*
X38689047Y-104221428D01*
X38750952Y-104364285D01*
X38750952Y-104507142D01*
X38689047Y-104721428D01*
X37946190Y-105578571D01*
X38750952Y-105578571D01*
X39555714Y-104078571D02*
X39679523Y-104078571D01*
X39803333Y-104150000D01*
X39865238Y-104221428D01*
X39927142Y-104364285D01*
X39989047Y-104650000D01*
X39989047Y-105007142D01*
X39927142Y-105292857D01*
X39865238Y-105435714D01*
X39803333Y-105507142D01*
X39679523Y-105578571D01*
X39555714Y-105578571D01*
X39431904Y-105507142D01*
X39370000Y-105435714D01*
X39308095Y-105292857D01*
X39246190Y-105007142D01*
X39246190Y-104650000D01*
X39308095Y-104364285D01*
X39370000Y-104221428D01*
X39431904Y-104150000D01*
X39555714Y-104078571D01*
X41227142Y-105578571D02*
X40484285Y-105578571D01*
X40855714Y-105578571D02*
X40855714Y-104078571D01*
X40731904Y-104292857D01*
X40608095Y-104435714D01*
X40484285Y-104507142D01*
X41846190Y-105578571D02*
X42093809Y-105578571D01*
X42217619Y-105507142D01*
X42279523Y-105435714D01*
X42403333Y-105221428D01*
X42465238Y-104935714D01*
X42465238Y-104364285D01*
X42403333Y-104221428D01*
X42341428Y-104150000D01*
X42217619Y-104078571D01*
X41970000Y-104078571D01*
X41846190Y-104150000D01*
X41784285Y-104221428D01*
X41722380Y-104364285D01*
X41722380Y-104721428D01*
X41784285Y-104864285D01*
X41846190Y-104935714D01*
X41970000Y-105007142D01*
X42217619Y-105007142D01*
X42341428Y-104935714D01*
X42403333Y-104864285D01*
X42465238Y-104721428D01*
X43022380Y-105007142D02*
X44012857Y-105007142D01*
X45312857Y-105578571D02*
X44570000Y-105578571D01*
X44941428Y-105578571D02*
X44941428Y-104078571D01*
X44817619Y-104292857D01*
X44693809Y-104435714D01*
X44570000Y-104507142D01*
X46550952Y-105578571D02*
X45808095Y-105578571D01*
X46179523Y-105578571D02*
X46179523Y-104078571D01*
X46055714Y-104292857D01*
X45931904Y-104435714D01*
X45808095Y-104507142D01*
X47108095Y-105007142D02*
X48098571Y-105007142D01*
X48965238Y-104078571D02*
X49089047Y-104078571D01*
X49212857Y-104150000D01*
X49274761Y-104221428D01*
X49336666Y-104364285D01*
X49398571Y-104650000D01*
X49398571Y-105007142D01*
X49336666Y-105292857D01*
X49274761Y-105435714D01*
X49212857Y-105507142D01*
X49089047Y-105578571D01*
X48965238Y-105578571D01*
X48841428Y-105507142D01*
X48779523Y-105435714D01*
X48717619Y-105292857D01*
X48655714Y-105007142D01*
X48655714Y-104650000D01*
X48717619Y-104364285D01*
X48779523Y-104221428D01*
X48841428Y-104150000D01*
X48965238Y-104078571D01*
X50512857Y-104578571D02*
X50512857Y-105578571D01*
X50203333Y-104007142D02*
X49893809Y-105078571D01*
X50698571Y-105078571D01*
X52184285Y-105578571D02*
X52184285Y-104578571D01*
X52184285Y-104864285D02*
X52246190Y-104721428D01*
X52308095Y-104650000D01*
X52431904Y-104578571D01*
X52555714Y-104578571D01*
X53484285Y-105507142D02*
X53360476Y-105578571D01*
X53112857Y-105578571D01*
X52989047Y-105507142D01*
X52927142Y-105364285D01*
X52927142Y-104792857D01*
X52989047Y-104650000D01*
X53112857Y-104578571D01*
X53360476Y-104578571D01*
X53484285Y-104650000D01*
X53546190Y-104792857D01*
X53546190Y-104935714D01*
X52927142Y-105078571D01*
X53979523Y-104578571D02*
X54289047Y-105578571D01*
X54598571Y-104578571D01*
X56022380Y-104221428D02*
X56084285Y-104150000D01*
X56208095Y-104078571D01*
X56517619Y-104078571D01*
X56641428Y-104150000D01*
X56703333Y-104221428D01*
X56765238Y-104364285D01*
X56765238Y-104507142D01*
X56703333Y-104721428D01*
X55960476Y-105578571D01*
X56765238Y-105578571D01*
X57322380Y-105435714D02*
X57384285Y-105507142D01*
X57322380Y-105578571D01*
X57260476Y-105507142D01*
X57322380Y-105435714D01*
X57322380Y-105578571D01*
X58189047Y-104078571D02*
X58312857Y-104078571D01*
X58436666Y-104150000D01*
X58498571Y-104221428D01*
X58560476Y-104364285D01*
X58622380Y-104650000D01*
X58622380Y-105007142D01*
X58560476Y-105292857D01*
X58498571Y-105435714D01*
X58436666Y-105507142D01*
X58312857Y-105578571D01*
X58189047Y-105578571D01*
X58065238Y-105507142D01*
X58003333Y-105435714D01*
X57941428Y-105292857D01*
X57879523Y-105007142D01*
X57879523Y-104650000D01*
X57941428Y-104364285D01*
X58003333Y-104221428D01*
X58065238Y-104150000D01*
X58189047Y-104078571D01*
X42217619Y-107028571D02*
X42465238Y-108028571D01*
X42712857Y-107314285D01*
X42960476Y-108028571D01*
X43208095Y-107028571D01*
X44260476Y-108028571D02*
X44260476Y-107242857D01*
X44198571Y-107100000D01*
X44074761Y-107028571D01*
X43827142Y-107028571D01*
X43703333Y-107100000D01*
X44260476Y-107957142D02*
X44136666Y-108028571D01*
X43827142Y-108028571D01*
X43703333Y-107957142D01*
X43641428Y-107814285D01*
X43641428Y-107671428D01*
X43703333Y-107528571D01*
X43827142Y-107457142D01*
X44136666Y-107457142D01*
X44260476Y-107385714D01*
X44879523Y-108028571D02*
X44879523Y-106528571D01*
X45003333Y-107457142D02*
X45374761Y-108028571D01*
X45374761Y-107028571D02*
X44879523Y-107600000D01*
X46489047Y-108028571D02*
X46489047Y-107242857D01*
X46427142Y-107100000D01*
X46303333Y-107028571D01*
X46055714Y-107028571D01*
X45931904Y-107100000D01*
X46489047Y-107957142D02*
X46365238Y-108028571D01*
X46055714Y-108028571D01*
X45931904Y-107957142D01*
X45870000Y-107814285D01*
X45870000Y-107671428D01*
X45931904Y-107528571D01*
X46055714Y-107457142D01*
X46365238Y-107457142D01*
X46489047Y-107385714D01*
X47108095Y-108028571D02*
X47108095Y-106528571D01*
X47108095Y-107100000D02*
X47231904Y-107028571D01*
X47479523Y-107028571D01*
X47603333Y-107100000D01*
X47665238Y-107171428D01*
X47727142Y-107314285D01*
X47727142Y-107742857D01*
X47665238Y-107885714D01*
X47603333Y-107957142D01*
X47479523Y-108028571D01*
X47231904Y-108028571D01*
X47108095Y-107957142D01*
X48841428Y-108028571D02*
X48841428Y-107242857D01*
X48779523Y-107100000D01*
X48655714Y-107028571D01*
X48408095Y-107028571D01*
X48284285Y-107100000D01*
X48841428Y-107957142D02*
X48717619Y-108028571D01*
X48408095Y-108028571D01*
X48284285Y-107957142D01*
X48222380Y-107814285D01*
X48222380Y-107671428D01*
X48284285Y-107528571D01*
X48408095Y-107457142D01*
X48717619Y-107457142D01*
X48841428Y-107385714D01*
X49336666Y-107028571D02*
X49646190Y-108028571D01*
X49955714Y-107028571D01*
X50450952Y-108028571D02*
X50450952Y-107028571D01*
X50450952Y-106528571D02*
X50389047Y-106600000D01*
X50450952Y-106671428D01*
X50512857Y-106600000D01*
X50450952Y-106528571D01*
X50450952Y-106671428D01*
X51627142Y-108028571D02*
X51627142Y-106528571D01*
X51627142Y-107957142D02*
X51503333Y-108028571D01*
X51255714Y-108028571D01*
X51131904Y-107957142D01*
X51070000Y-107885714D01*
X51008095Y-107742857D01*
X51008095Y-107314285D01*
X51070000Y-107171428D01*
X51131904Y-107100000D01*
X51255714Y-107028571D01*
X51503333Y-107028571D01*
X51627142Y-107100000D01*
X52741428Y-107957142D02*
X52617619Y-108028571D01*
X52370000Y-108028571D01*
X52246190Y-107957142D01*
X52184285Y-107814285D01*
X52184285Y-107242857D01*
X52246190Y-107100000D01*
X52370000Y-107028571D01*
X52617619Y-107028571D01*
X52741428Y-107100000D01*
X52803333Y-107242857D01*
X52803333Y-107385714D01*
X52184285Y-107528571D01*
X53546190Y-108028571D02*
X53422380Y-107957142D01*
X53360476Y-107885714D01*
X53298571Y-107742857D01*
X53298571Y-107314285D01*
X53360476Y-107171428D01*
X53422380Y-107100000D01*
X53546190Y-107028571D01*
X53731904Y-107028571D01*
X53855714Y-107100000D01*
X53917619Y-107171428D01*
X53979523Y-107314285D01*
X53979523Y-107742857D01*
X53917619Y-107885714D01*
X53855714Y-107957142D01*
X53731904Y-108028571D01*
X53546190Y-108028571D01*
X54536666Y-107885714D02*
X54598571Y-107957142D01*
X54536666Y-108028571D01*
X54474761Y-107957142D01*
X54536666Y-107885714D01*
X54536666Y-108028571D01*
X55712857Y-107957142D02*
X55589047Y-108028571D01*
X55341428Y-108028571D01*
X55217619Y-107957142D01*
X55155714Y-107885714D01*
X55093809Y-107742857D01*
X55093809Y-107314285D01*
X55155714Y-107171428D01*
X55217619Y-107100000D01*
X55341428Y-107028571D01*
X55589047Y-107028571D01*
X55712857Y-107100000D01*
X56455714Y-108028571D02*
X56331904Y-107957142D01*
X56270000Y-107885714D01*
X56208095Y-107742857D01*
X56208095Y-107314285D01*
X56270000Y-107171428D01*
X56331904Y-107100000D01*
X56455714Y-107028571D01*
X56641428Y-107028571D01*
X56765238Y-107100000D01*
X56827142Y-107171428D01*
X56889047Y-107314285D01*
X56889047Y-107742857D01*
X56827142Y-107885714D01*
X56765238Y-107957142D01*
X56641428Y-108028571D01*
X56455714Y-108028571D01*
X57446190Y-108028571D02*
X57446190Y-107028571D01*
X57446190Y-107171428D02*
X57508095Y-107100000D01*
X57631904Y-107028571D01*
X57817619Y-107028571D01*
X57941428Y-107100000D01*
X58003333Y-107242857D01*
X58003333Y-108028571D01*
X58003333Y-107242857D02*
X58065238Y-107100000D01*
X58189047Y-107028571D01*
X58374761Y-107028571D01*
X58498571Y-107100000D01*
X58560476Y-107242857D01*
X58560476Y-108028571D01*
D11*
X50290000Y-72038748D02*
X50290000Y-72561252D01*
X51710000Y-72038748D02*
X51710000Y-72561252D01*
X50290000Y-67288748D02*
X50290000Y-67811252D01*
X51710000Y-67288748D02*
X51710000Y-67811252D01*
X50290000Y-62538748D02*
X50290000Y-63061252D01*
X51710000Y-62538748D02*
X51710000Y-63061252D01*
X58450000Y-51850000D02*
X57200000Y-51850000D01*
X58450000Y-53100000D02*
X58450000Y-51850000D01*
X52950000Y-74000000D02*
X52950000Y-63450000D01*
X55900000Y-74000000D02*
X52950000Y-74000000D01*
X55900000Y-74750000D02*
X55900000Y-74000000D01*
X52950000Y-63450000D02*
X52950000Y-53960000D01*
X55900000Y-52900000D02*
X54560000Y-52900000D01*
X55900000Y-52150000D02*
X55900000Y-52900000D01*
X58150000Y-74750000D02*
X58150000Y-72950000D01*
X57400000Y-74750000D02*
X58150000Y-74750000D01*
X57400000Y-72950000D02*
X57400000Y-74750000D01*
X58150000Y-72950000D02*
X57400000Y-72950000D01*
X58150000Y-53950000D02*
X58150000Y-52150000D01*
X57400000Y-53950000D02*
X58150000Y-53950000D01*
X57400000Y-52150000D02*
X57400000Y-53950000D01*
X58150000Y-52150000D02*
X57400000Y-52150000D01*
X58150000Y-71450000D02*
X58150000Y-55450000D01*
X57400000Y-71450000D02*
X58150000Y-71450000D01*
X57400000Y-55450000D02*
X57400000Y-71450000D01*
X58150000Y-55450000D02*
X57400000Y-55450000D01*
X58160000Y-74760000D02*
X58160000Y-52140000D01*
X52190000Y-74760000D02*
X58160000Y-74760000D01*
X52190000Y-52140000D02*
X52190000Y-74760000D01*
X58160000Y-52140000D02*
X52190000Y-52140000D01*
X38800000Y-51390000D02*
X36350000Y-51390000D01*
X37000000Y-54610000D02*
X38800000Y-54610000D01*
X34800000Y-51390000D02*
X32350000Y-51390000D01*
X33000000Y-54610000D02*
X34800000Y-54610000D01*
X34161252Y-55290000D02*
X33638748Y-55290000D01*
X34161252Y-56710000D02*
X33638748Y-56710000D01*
X45900000Y-53950000D02*
X45900000Y-58050000D01*
X45900000Y-58050000D02*
X43900000Y-58050000D01*
X43900000Y-58050000D02*
X43900000Y-53950000D01*
X43900000Y-53950000D02*
X45900000Y-53950000D01*
X43700000Y-54700000D02*
X43400000Y-54400000D01*
X43400000Y-54400000D02*
X43400000Y-55000000D01*
X43700000Y-54700000D02*
X43400000Y-55000000D01*
D12*
G36*
X52899334Y-92604484D02*
G01*
X52944447Y-92721512D01*
X53008691Y-92822524D01*
X53088475Y-92910076D01*
X53185612Y-92927480D01*
X53356537Y-92875772D01*
X53470645Y-92830999D01*
X53839344Y-92737396D01*
X54282480Y-92728687D01*
X54820845Y-92806805D01*
X55475228Y-92973685D01*
X55682855Y-93036825D01*
X56143707Y-93180918D01*
X56473757Y-93276618D01*
X56704691Y-93323190D01*
X56868197Y-93319898D01*
X56995960Y-93266009D01*
X57119666Y-93160787D01*
X57271003Y-93003498D01*
X57274427Y-92999922D01*
X57499966Y-92770356D01*
X57634873Y-92655627D01*
X57701952Y-92644848D01*
X57724009Y-92727135D01*
X57725334Y-92784676D01*
X57751028Y-92892418D01*
X57859400Y-92920257D01*
X58010903Y-92902345D01*
X58231758Y-92895234D01*
X58354044Y-92949172D01*
X58354566Y-92950002D01*
X58340225Y-93028136D01*
X58259497Y-93044420D01*
X58096414Y-93096041D01*
X57890920Y-93222744D01*
X57852334Y-93253042D01*
X57598334Y-93461243D01*
X57920830Y-93464288D01*
X58124185Y-93485228D01*
X58196286Y-93536652D01*
X58191000Y-93552000D01*
X58072986Y-93620282D01*
X57953170Y-93636895D01*
X57863349Y-93650574D01*
X57870404Y-93707697D01*
X57987209Y-93832892D01*
X58119169Y-93954395D01*
X58596816Y-94481520D01*
X58962079Y-95107455D01*
X59177116Y-95672906D01*
X59260163Y-95963925D01*
X59316230Y-96238356D01*
X59350093Y-96541141D01*
X59366527Y-96917217D01*
X59370307Y-97411524D01*
X59370111Y-97489000D01*
X59346052Y-98246868D01*
X59274011Y-98875177D01*
X59145865Y-99408941D01*
X58953495Y-99883177D01*
X58722049Y-100283000D01*
X58554563Y-100522212D01*
X58418423Y-100652208D01*
X58259288Y-100709823D01*
X58063346Y-100729524D01*
X57588660Y-100677596D01*
X57325237Y-100573534D01*
X56974076Y-100323867D01*
X56718422Y-99964554D01*
X56542739Y-99472973D01*
X56528386Y-99413140D01*
X56428632Y-98980982D01*
X56185023Y-99287524D01*
X55856819Y-99628483D01*
X55454593Y-99900193D01*
X54931611Y-100133962D01*
X54908971Y-100142427D01*
X54012197Y-100416885D01*
X53189818Y-100546786D01*
X52445390Y-100532206D01*
X51782469Y-100373222D01*
X51204613Y-100069911D01*
X51194357Y-100062664D01*
X51031763Y-99962182D01*
X50934238Y-99965124D01*
X50861857Y-100035598D01*
X50601643Y-100232570D01*
X50235698Y-100360951D01*
X49815983Y-100413853D01*
X49394460Y-100384387D01*
X49045178Y-100276460D01*
X48867328Y-100177041D01*
X48751967Y-100056079D01*
X48680066Y-99872818D01*
X48632597Y-99586503D01*
X48608366Y-99351593D01*
X48753669Y-99351593D01*
X48761480Y-99582727D01*
X48799792Y-99738855D01*
X48877000Y-99866863D01*
X48936376Y-99939123D01*
X49116068Y-100099565D01*
X49344416Y-100186074D01*
X49576557Y-100219537D01*
X49990560Y-100234300D01*
X50302930Y-100177276D01*
X50570652Y-100035962D01*
X50635867Y-99987115D01*
X50855247Y-99814550D01*
X50614815Y-99551312D01*
X50424711Y-99229213D01*
X50316881Y-98790861D01*
X50290129Y-98267333D01*
X50343264Y-97689708D01*
X50475090Y-97089067D01*
X50684415Y-96496487D01*
X50736666Y-96379093D01*
X50887684Y-96022497D01*
X51011698Y-95674949D01*
X51086632Y-95399790D01*
X51094915Y-95351166D01*
X51142844Y-95131603D01*
X51205032Y-95004223D01*
X51229302Y-94991333D01*
X51285579Y-95063881D01*
X51283665Y-95259321D01*
X51230752Y-95544341D01*
X51134036Y-95885632D01*
X51000709Y-96249885D01*
X50915035Y-96446532D01*
X50656037Y-97145577D01*
X50511598Y-97858557D01*
X50489856Y-98537071D01*
X50519263Y-98800081D01*
X50577426Y-99073375D01*
X50670207Y-99278348D01*
X50834306Y-99477832D01*
X51018202Y-99654237D01*
X51571259Y-100062661D01*
X52169665Y-100308960D01*
X52822958Y-100396511D01*
X53091685Y-100388571D01*
X53583564Y-100321176D01*
X54135137Y-100193750D01*
X54686927Y-100024217D01*
X55179457Y-99830506D01*
X55506027Y-99660887D01*
X55764889Y-99454572D01*
X56022674Y-99177286D01*
X56138715Y-99018537D01*
X56408377Y-98600741D01*
X56385431Y-97367537D01*
X56360042Y-96673557D01*
X56308201Y-96113854D01*
X56223275Y-95654537D01*
X56098633Y-95261713D01*
X55927642Y-94901491D01*
X55889832Y-94834740D01*
X55765573Y-94577913D01*
X55740632Y-94415691D01*
X55756097Y-94386703D01*
X55833119Y-94415499D01*
X55962030Y-94588743D01*
X56133185Y-94893124D01*
X56157882Y-94941330D01*
X56479890Y-95575735D01*
X56548711Y-97209701D01*
X56579802Y-97903612D01*
X56609652Y-98451631D01*
X56641007Y-98877151D01*
X56676615Y-99203568D01*
X56719222Y-99454274D01*
X56771575Y-99652663D01*
X56836421Y-99822131D01*
X56861987Y-99877707D01*
X57069696Y-100167650D01*
X57359879Y-100387765D01*
X57691657Y-100525036D01*
X58024153Y-100566445D01*
X58316488Y-100498979D01*
X58467248Y-100388833D01*
X58753750Y-99981418D01*
X58986618Y-99445907D01*
X59160407Y-98816534D01*
X59269675Y-98127533D01*
X59308981Y-97413138D01*
X59272881Y-96707583D01*
X59157084Y-96049666D01*
X59045749Y-95671743D01*
X58909694Y-95303921D01*
X58767712Y-94989885D01*
X58638598Y-94773319D01*
X58582150Y-94713251D01*
X58445012Y-94564770D01*
X58319797Y-94368040D01*
X58175290Y-94173772D01*
X58013528Y-94056905D01*
X57830353Y-93953341D01*
X57619445Y-93790057D01*
X57592132Y-93765334D01*
X57440912Y-93605190D01*
X57406369Y-93487925D01*
X57453901Y-93379117D01*
X57549527Y-93188148D01*
X57530836Y-93117189D01*
X57407055Y-93170447D01*
X57256721Y-93289229D01*
X57060623Y-93441909D01*
X56874324Y-93520918D01*
X56626878Y-93549432D01*
X56452387Y-93552000D01*
X56183002Y-93539079D01*
X56000497Y-93505363D01*
X55947334Y-93467333D01*
X56014819Y-93383068D01*
X56053167Y-93374227D01*
X56102653Y-93353981D01*
X56025154Y-93319592D01*
X55861397Y-93280311D01*
X55652107Y-93245386D01*
X55438009Y-93224065D01*
X55381881Y-93221772D01*
X55124745Y-93186058D01*
X54928515Y-93107616D01*
X54897571Y-93082808D01*
X54608568Y-92894060D01*
X54241246Y-92834855D01*
X53784355Y-92904978D01*
X53349528Y-93052942D01*
X53156259Y-93115115D01*
X53034183Y-93084183D01*
X52916619Y-92959654D01*
X52753181Y-92757817D01*
X52655741Y-92939887D01*
X52558300Y-93121957D01*
X52251335Y-92913645D01*
X52005763Y-92760303D01*
X51874787Y-92717532D01*
X51844741Y-92785347D01*
X51882194Y-92914002D01*
X51921269Y-93101465D01*
X51849733Y-93161950D01*
X51670254Y-93094338D01*
X51581718Y-93039737D01*
X51318771Y-92926964D01*
X51012516Y-92878585D01*
X50738351Y-92902024D01*
X50631739Y-92946166D01*
X50617942Y-93012092D01*
X50766747Y-93093081D01*
X50861766Y-93126829D01*
X51085758Y-93223889D01*
X51143904Y-93305312D01*
X51039584Y-93361452D01*
X50776178Y-93382663D01*
X50772104Y-93382666D01*
X50422607Y-93421155D01*
X50121888Y-93555537D01*
X49830167Y-93789852D01*
X49651675Y-93974373D01*
X49613014Y-94063540D01*
X49713481Y-94056469D01*
X49952377Y-93952276D01*
X49957167Y-93949891D01*
X50202878Y-93861972D01*
X50509862Y-93799413D01*
X50832338Y-93765139D01*
X51124525Y-93762078D01*
X51340641Y-93793153D01*
X51433336Y-93855555D01*
X51382846Y-93941727D01*
X51218846Y-94053598D01*
X51117589Y-94104021D01*
X50735831Y-94344289D01*
X50482970Y-94675940D01*
X50357053Y-95023553D01*
X50291635Y-95209191D01*
X50162617Y-95514647D01*
X49983913Y-95909190D01*
X49769435Y-96362086D01*
X49537168Y-96834484D01*
X49283345Y-97343603D01*
X49095465Y-97731584D01*
X48962902Y-98028324D01*
X48875031Y-98263717D01*
X48821224Y-98467661D01*
X48790855Y-98670049D01*
X48773299Y-98900778D01*
X48767962Y-98998568D01*
X48753669Y-99351593D01*
X48608366Y-99351593D01*
X48606952Y-99337893D01*
X48591936Y-98967543D01*
X48626484Y-98613255D01*
X48720611Y-98238910D01*
X48884333Y-97808389D01*
X49127667Y-97285571D01*
X49236209Y-97068746D01*
X49503007Y-96541987D01*
X49704482Y-96140786D01*
X49852244Y-95839854D01*
X49957900Y-95613898D01*
X50033060Y-95437629D01*
X50089331Y-95285755D01*
X50138323Y-95132987D01*
X50163974Y-95047498D01*
X50326144Y-94608241D01*
X50523732Y-94296832D01*
X50783902Y-94071990D01*
X50821377Y-94048403D01*
X51079000Y-93891299D01*
X50782667Y-93892842D01*
X50421803Y-93954056D01*
X50003947Y-94118918D01*
X49584210Y-94364159D01*
X49469796Y-94447150D01*
X49272471Y-94572923D01*
X49181177Y-94572425D01*
X49196139Y-94451587D01*
X49317581Y-94216344D01*
X49453148Y-94005744D01*
X49820263Y-93597866D01*
X50151648Y-93382838D01*
X50571000Y-93171343D01*
X50274667Y-93122567D01*
X49978334Y-93073792D01*
X50401667Y-92882055D01*
X50787842Y-92748101D01*
X51152688Y-92721955D01*
X51219456Y-92726989D01*
X51461599Y-92738972D01*
X51566951Y-92711086D01*
X51570231Y-92649830D01*
X51594304Y-92560046D01*
X51742113Y-92539778D01*
X51983359Y-92588212D01*
X52201889Y-92666828D01*
X52409703Y-92744309D01*
X52523931Y-92747652D01*
X52603228Y-92676856D01*
X52610670Y-92666828D01*
X52732798Y-92562261D01*
X52850477Y-92539101D01*
X52899334Y-92604484D01*
G37*
X52899334Y-92604484D02*
X52944447Y-92721512D01*
X53008691Y-92822524D01*
X53088475Y-92910076D01*
X53185612Y-92927480D01*
X53356537Y-92875772D01*
X53470645Y-92830999D01*
X53839344Y-92737396D01*
X54282480Y-92728687D01*
X54820845Y-92806805D01*
X55475228Y-92973685D01*
X55682855Y-93036825D01*
X56143707Y-93180918D01*
X56473757Y-93276618D01*
X56704691Y-93323190D01*
X56868197Y-93319898D01*
X56995960Y-93266009D01*
X57119666Y-93160787D01*
X57271003Y-93003498D01*
X57274427Y-92999922D01*
X57499966Y-92770356D01*
X57634873Y-92655627D01*
X57701952Y-92644848D01*
X57724009Y-92727135D01*
X57725334Y-92784676D01*
X57751028Y-92892418D01*
X57859400Y-92920257D01*
X58010903Y-92902345D01*
X58231758Y-92895234D01*
X58354044Y-92949172D01*
X58354566Y-92950002D01*
X58340225Y-93028136D01*
X58259497Y-93044420D01*
X58096414Y-93096041D01*
X57890920Y-93222744D01*
X57852334Y-93253042D01*
X57598334Y-93461243D01*
X57920830Y-93464288D01*
X58124185Y-93485228D01*
X58196286Y-93536652D01*
X58191000Y-93552000D01*
X58072986Y-93620282D01*
X57953170Y-93636895D01*
X57863349Y-93650574D01*
X57870404Y-93707697D01*
X57987209Y-93832892D01*
X58119169Y-93954395D01*
X58596816Y-94481520D01*
X58962079Y-95107455D01*
X59177116Y-95672906D01*
X59260163Y-95963925D01*
X59316230Y-96238356D01*
X59350093Y-96541141D01*
X59366527Y-96917217D01*
X59370307Y-97411524D01*
X59370111Y-97489000D01*
X59346052Y-98246868D01*
X59274011Y-98875177D01*
X59145865Y-99408941D01*
X58953495Y-99883177D01*
X58722049Y-100283000D01*
X58554563Y-100522212D01*
X58418423Y-100652208D01*
X58259288Y-100709823D01*
X58063346Y-100729524D01*
X57588660Y-100677596D01*
X57325237Y-100573534D01*
X56974076Y-100323867D01*
X56718422Y-99964554D01*
X56542739Y-99472973D01*
X56528386Y-99413140D01*
X56428632Y-98980982D01*
X56185023Y-99287524D01*
X55856819Y-99628483D01*
X55454593Y-99900193D01*
X54931611Y-100133962D01*
X54908971Y-100142427D01*
X54012197Y-100416885D01*
X53189818Y-100546786D01*
X52445390Y-100532206D01*
X51782469Y-100373222D01*
X51204613Y-100069911D01*
X51194357Y-100062664D01*
X51031763Y-99962182D01*
X50934238Y-99965124D01*
X50861857Y-100035598D01*
X50601643Y-100232570D01*
X50235698Y-100360951D01*
X49815983Y-100413853D01*
X49394460Y-100384387D01*
X49045178Y-100276460D01*
X48867328Y-100177041D01*
X48751967Y-100056079D01*
X48680066Y-99872818D01*
X48632597Y-99586503D01*
X48608366Y-99351593D01*
X48753669Y-99351593D01*
X48761480Y-99582727D01*
X48799792Y-99738855D01*
X48877000Y-99866863D01*
X48936376Y-99939123D01*
X49116068Y-100099565D01*
X49344416Y-100186074D01*
X49576557Y-100219537D01*
X49990560Y-100234300D01*
X50302930Y-100177276D01*
X50570652Y-100035962D01*
X50635867Y-99987115D01*
X50855247Y-99814550D01*
X50614815Y-99551312D01*
X50424711Y-99229213D01*
X50316881Y-98790861D01*
X50290129Y-98267333D01*
X50343264Y-97689708D01*
X50475090Y-97089067D01*
X50684415Y-96496487D01*
X50736666Y-96379093D01*
X50887684Y-96022497D01*
X51011698Y-95674949D01*
X51086632Y-95399790D01*
X51094915Y-95351166D01*
X51142844Y-95131603D01*
X51205032Y-95004223D01*
X51229302Y-94991333D01*
X51285579Y-95063881D01*
X51283665Y-95259321D01*
X51230752Y-95544341D01*
X51134036Y-95885632D01*
X51000709Y-96249885D01*
X50915035Y-96446532D01*
X50656037Y-97145577D01*
X50511598Y-97858557D01*
X50489856Y-98537071D01*
X50519263Y-98800081D01*
X50577426Y-99073375D01*
X50670207Y-99278348D01*
X50834306Y-99477832D01*
X51018202Y-99654237D01*
X51571259Y-100062661D01*
X52169665Y-100308960D01*
X52822958Y-100396511D01*
X53091685Y-100388571D01*
X53583564Y-100321176D01*
X54135137Y-100193750D01*
X54686927Y-100024217D01*
X55179457Y-99830506D01*
X55506027Y-99660887D01*
X55764889Y-99454572D01*
X56022674Y-99177286D01*
X56138715Y-99018537D01*
X56408377Y-98600741D01*
X56385431Y-97367537D01*
X56360042Y-96673557D01*
X56308201Y-96113854D01*
X56223275Y-95654537D01*
X56098633Y-95261713D01*
X55927642Y-94901491D01*
X55889832Y-94834740D01*
X55765573Y-94577913D01*
X55740632Y-94415691D01*
X55756097Y-94386703D01*
X55833119Y-94415499D01*
X55962030Y-94588743D01*
X56133185Y-94893124D01*
X56157882Y-94941330D01*
X56479890Y-95575735D01*
X56548711Y-97209701D01*
X56579802Y-97903612D01*
X56609652Y-98451631D01*
X56641007Y-98877151D01*
X56676615Y-99203568D01*
X56719222Y-99454274D01*
X56771575Y-99652663D01*
X56836421Y-99822131D01*
X56861987Y-99877707D01*
X57069696Y-100167650D01*
X57359879Y-100387765D01*
X57691657Y-100525036D01*
X58024153Y-100566445D01*
X58316488Y-100498979D01*
X58467248Y-100388833D01*
X58753750Y-99981418D01*
X58986618Y-99445907D01*
X59160407Y-98816534D01*
X59269675Y-98127533D01*
X59308981Y-97413138D01*
X59272881Y-96707583D01*
X59157084Y-96049666D01*
X59045749Y-95671743D01*
X58909694Y-95303921D01*
X58767712Y-94989885D01*
X58638598Y-94773319D01*
X58582150Y-94713251D01*
X58445012Y-94564770D01*
X58319797Y-94368040D01*
X58175290Y-94173772D01*
X58013528Y-94056905D01*
X57830353Y-93953341D01*
X57619445Y-93790057D01*
X57592132Y-93765334D01*
X57440912Y-93605190D01*
X57406369Y-93487925D01*
X57453901Y-93379117D01*
X57549527Y-93188148D01*
X57530836Y-93117189D01*
X57407055Y-93170447D01*
X57256721Y-93289229D01*
X57060623Y-93441909D01*
X56874324Y-93520918D01*
X56626878Y-93549432D01*
X56452387Y-93552000D01*
X56183002Y-93539079D01*
X56000497Y-93505363D01*
X55947334Y-93467333D01*
X56014819Y-93383068D01*
X56053167Y-93374227D01*
X56102653Y-93353981D01*
X56025154Y-93319592D01*
X55861397Y-93280311D01*
X55652107Y-93245386D01*
X55438009Y-93224065D01*
X55381881Y-93221772D01*
X55124745Y-93186058D01*
X54928515Y-93107616D01*
X54897571Y-93082808D01*
X54608568Y-92894060D01*
X54241246Y-92834855D01*
X53784355Y-92904978D01*
X53349528Y-93052942D01*
X53156259Y-93115115D01*
X53034183Y-93084183D01*
X52916619Y-92959654D01*
X52753181Y-92757817D01*
X52655741Y-92939887D01*
X52558300Y-93121957D01*
X52251335Y-92913645D01*
X52005763Y-92760303D01*
X51874787Y-92717532D01*
X51844741Y-92785347D01*
X51882194Y-92914002D01*
X51921269Y-93101465D01*
X51849733Y-93161950D01*
X51670254Y-93094338D01*
X51581718Y-93039737D01*
X51318771Y-92926964D01*
X51012516Y-92878585D01*
X50738351Y-92902024D01*
X50631739Y-92946166D01*
X50617942Y-93012092D01*
X50766747Y-93093081D01*
X50861766Y-93126829D01*
X51085758Y-93223889D01*
X51143904Y-93305312D01*
X51039584Y-93361452D01*
X50776178Y-93382663D01*
X50772104Y-93382666D01*
X50422607Y-93421155D01*
X50121888Y-93555537D01*
X49830167Y-93789852D01*
X49651675Y-93974373D01*
X49613014Y-94063540D01*
X49713481Y-94056469D01*
X49952377Y-93952276D01*
X49957167Y-93949891D01*
X50202878Y-93861972D01*
X50509862Y-93799413D01*
X50832338Y-93765139D01*
X51124525Y-93762078D01*
X51340641Y-93793153D01*
X51433336Y-93855555D01*
X51382846Y-93941727D01*
X51218846Y-94053598D01*
X51117589Y-94104021D01*
X50735831Y-94344289D01*
X50482970Y-94675940D01*
X50357053Y-95023553D01*
X50291635Y-95209191D01*
X50162617Y-95514647D01*
X49983913Y-95909190D01*
X49769435Y-96362086D01*
X49537168Y-96834484D01*
X49283345Y-97343603D01*
X49095465Y-97731584D01*
X48962902Y-98028324D01*
X48875031Y-98263717D01*
X48821224Y-98467661D01*
X48790855Y-98670049D01*
X48773299Y-98900778D01*
X48767962Y-98998568D01*
X48753669Y-99351593D01*
X48608366Y-99351593D01*
X48606952Y-99337893D01*
X48591936Y-98967543D01*
X48626484Y-98613255D01*
X48720611Y-98238910D01*
X48884333Y-97808389D01*
X49127667Y-97285571D01*
X49236209Y-97068746D01*
X49503007Y-96541987D01*
X49704482Y-96140786D01*
X49852244Y-95839854D01*
X49957900Y-95613898D01*
X50033060Y-95437629D01*
X50089331Y-95285755D01*
X50138323Y-95132987D01*
X50163974Y-95047498D01*
X50326144Y-94608241D01*
X50523732Y-94296832D01*
X50783902Y-94071990D01*
X50821377Y-94048403D01*
X51079000Y-93891299D01*
X50782667Y-93892842D01*
X50421803Y-93954056D01*
X50003947Y-94118918D01*
X49584210Y-94364159D01*
X49469796Y-94447150D01*
X49272471Y-94572923D01*
X49181177Y-94572425D01*
X49196139Y-94451587D01*
X49317581Y-94216344D01*
X49453148Y-94005744D01*
X49820263Y-93597866D01*
X50151648Y-93382838D01*
X50571000Y-93171343D01*
X50274667Y-93122567D01*
X49978334Y-93073792D01*
X50401667Y-92882055D01*
X50787842Y-92748101D01*
X51152688Y-92721955D01*
X51219456Y-92726989D01*
X51461599Y-92738972D01*
X51566951Y-92711086D01*
X51570231Y-92649830D01*
X51594304Y-92560046D01*
X51742113Y-92539778D01*
X51983359Y-92588212D01*
X52201889Y-92666828D01*
X52409703Y-92744309D01*
X52523931Y-92747652D01*
X52603228Y-92676856D01*
X52610670Y-92666828D01*
X52732798Y-92562261D01*
X52850477Y-92539101D01*
X52899334Y-92604484D01*
G36*
X52407955Y-99187219D02*
G01*
X52596496Y-99289485D01*
X52613578Y-99302527D01*
X52778312Y-99415840D01*
X52886252Y-99422880D01*
X52982567Y-99352963D01*
X53189879Y-99234858D01*
X53370553Y-99283261D01*
X53454676Y-99372833D01*
X53538117Y-99462355D01*
X53624932Y-99449487D01*
X53771741Y-99324915D01*
X53777202Y-99319788D01*
X53964489Y-99198648D01*
X54135774Y-99172085D01*
X54241260Y-99241776D01*
X54254000Y-99303730D01*
X54194660Y-99438184D01*
X54048787Y-99622751D01*
X53864602Y-99807998D01*
X53690326Y-99944492D01*
X53589063Y-99985370D01*
X53392821Y-99939696D01*
X53326654Y-99906256D01*
X53156375Y-99864127D01*
X52967376Y-99875691D01*
X52754421Y-99866197D01*
X52537331Y-99776628D01*
X52345239Y-99636059D01*
X52207280Y-99473564D01*
X52152586Y-99318220D01*
X52210290Y-99199101D01*
X52261844Y-99171572D01*
X52407955Y-99187219D01*
G37*
X52407955Y-99187219D02*
X52596496Y-99289485D01*
X52613578Y-99302527D01*
X52778312Y-99415840D01*
X52886252Y-99422880D01*
X52982567Y-99352963D01*
X53189879Y-99234858D01*
X53370553Y-99283261D01*
X53454676Y-99372833D01*
X53538117Y-99462355D01*
X53624932Y-99449487D01*
X53771741Y-99324915D01*
X53777202Y-99319788D01*
X53964489Y-99198648D01*
X54135774Y-99172085D01*
X54241260Y-99241776D01*
X54254000Y-99303730D01*
X54194660Y-99438184D01*
X54048787Y-99622751D01*
X53864602Y-99807998D01*
X53690326Y-99944492D01*
X53589063Y-99985370D01*
X53392821Y-99939696D01*
X53326654Y-99906256D01*
X53156375Y-99864127D01*
X52967376Y-99875691D01*
X52754421Y-99866197D01*
X52537331Y-99776628D01*
X52345239Y-99636059D01*
X52207280Y-99473564D01*
X52152586Y-99318220D01*
X52210290Y-99199101D01*
X52261844Y-99171572D01*
X52407955Y-99187219D01*
G36*
X51572368Y-97852017D02*
G01*
X51510002Y-98019796D01*
X51460000Y-98124000D01*
X51329906Y-98361260D01*
X51261391Y-98450773D01*
X51260947Y-98392480D01*
X51335068Y-98186326D01*
X51360454Y-98124861D01*
X51460703Y-97918491D01*
X51545250Y-97798477D01*
X51567554Y-97786194D01*
X51572368Y-97852017D01*
G37*
X51572368Y-97852017D02*
X51510002Y-98019796D01*
X51460000Y-98124000D01*
X51329906Y-98361260D01*
X51261391Y-98450773D01*
X51260947Y-98392480D01*
X51335068Y-98186326D01*
X51360454Y-98124861D01*
X51460703Y-97918491D01*
X51545250Y-97798477D01*
X51567554Y-97786194D01*
X51572368Y-97852017D01*
G36*
X51880741Y-98166333D02*
G01*
X51838584Y-98305472D01*
X51798667Y-98378000D01*
X51731579Y-98445769D01*
X51716593Y-98420333D01*
X51758749Y-98281194D01*
X51798667Y-98208666D01*
X51865754Y-98140897D01*
X51880741Y-98166333D01*
G37*
X51880741Y-98166333D02*
X51838584Y-98305472D01*
X51798667Y-98378000D01*
X51731579Y-98445769D01*
X51716593Y-98420333D01*
X51758749Y-98281194D01*
X51798667Y-98208666D01*
X51865754Y-98140897D01*
X51880741Y-98166333D01*
G36*
X50990289Y-97951684D02*
G01*
X50929818Y-98093112D01*
X50827928Y-98257179D01*
X50714766Y-98356414D01*
X50631660Y-98363057D01*
X50613334Y-98305696D01*
X50666021Y-98201240D01*
X50795731Y-98037276D01*
X50825000Y-98005001D01*
X50974619Y-97851882D01*
X51026815Y-97831671D01*
X50990289Y-97951684D01*
G37*
X50990289Y-97951684D02*
X50929818Y-98093112D01*
X50827928Y-98257179D01*
X50714766Y-98356414D01*
X50631660Y-98363057D01*
X50613334Y-98305696D01*
X50666021Y-98201240D01*
X50795731Y-98037276D01*
X50825000Y-98005001D01*
X50974619Y-97851882D01*
X51026815Y-97831671D01*
X50990289Y-97951684D01*
G36*
X51284666Y-97912333D02*
G01*
X51245791Y-98042378D01*
X51163667Y-98208666D01*
X51079424Y-98332000D01*
X51042722Y-98338121D01*
X51042667Y-98335666D01*
X51081542Y-98205621D01*
X51163667Y-98039333D01*
X51247909Y-97915999D01*
X51284612Y-97909878D01*
X51284666Y-97912333D01*
G37*
X51284666Y-97912333D02*
X51245791Y-98042378D01*
X51163667Y-98208666D01*
X51079424Y-98332000D01*
X51042722Y-98338121D01*
X51042667Y-98335666D01*
X51081542Y-98205621D01*
X51163667Y-98039333D01*
X51247909Y-97915999D01*
X51284612Y-97909878D01*
X51284666Y-97912333D01*
G36*
X51798667Y-97924373D02*
G01*
X51750266Y-98048646D01*
X51666996Y-98171317D01*
X51579462Y-98275402D01*
X51579310Y-98246943D01*
X51636131Y-98124000D01*
X51737169Y-97926263D01*
X51787268Y-97871210D01*
X51798667Y-97924373D01*
G37*
X51798667Y-97924373D02*
X51750266Y-98048646D01*
X51666996Y-98171317D01*
X51579462Y-98275402D01*
X51579310Y-98246943D01*
X51636131Y-98124000D01*
X51737169Y-97926263D01*
X51787268Y-97871210D01*
X51798667Y-97924373D01*
G36*
X54566104Y-98178690D02*
G01*
X54550334Y-98208666D01*
X54470559Y-98289523D01*
X54455673Y-98293333D01*
X54449897Y-98238643D01*
X54465667Y-98208666D01*
X54545441Y-98127809D01*
X54560327Y-98124000D01*
X54566104Y-98178690D01*
G37*
X54566104Y-98178690D02*
X54550334Y-98208666D01*
X54470559Y-98289523D01*
X54455673Y-98293333D01*
X54449897Y-98238643D01*
X54465667Y-98208666D01*
X54545441Y-98127809D01*
X54560327Y-98124000D01*
X54566104Y-98178690D01*
G36*
X55097554Y-97743000D02*
G01*
X55048409Y-97856914D01*
X54923645Y-98033626D01*
X54884104Y-98081666D01*
X54771165Y-98200141D01*
X54736631Y-98204182D01*
X54751321Y-98166333D01*
X54860036Y-97975813D01*
X54975406Y-97816999D01*
X55065217Y-97729278D01*
X55097554Y-97743000D01*
G37*
X55097554Y-97743000D02*
X55048409Y-97856914D01*
X54923645Y-98033626D01*
X54884104Y-98081666D01*
X54771165Y-98200141D01*
X54736631Y-98204182D01*
X54751321Y-98166333D01*
X54860036Y-97975813D01*
X54975406Y-97816999D01*
X55065217Y-97729278D01*
X55097554Y-97743000D01*
G36*
X55310575Y-97842415D02*
G01*
X55277616Y-97912333D01*
X55147752Y-98143107D01*
X55055820Y-98260815D01*
X55017558Y-98245695D01*
X55017297Y-98239213D01*
X55067781Y-98111943D01*
X55190114Y-97942879D01*
X55297284Y-97827889D01*
X55310575Y-97842415D01*
G37*
X55310575Y-97842415D02*
X55277616Y-97912333D01*
X55147752Y-98143107D01*
X55055820Y-98260815D01*
X55017558Y-98245695D01*
X55017297Y-98239213D01*
X55067781Y-98111943D01*
X55190114Y-97942879D01*
X55297284Y-97827889D01*
X55310575Y-97842415D01*
G36*
X55721902Y-97808226D02*
G01*
X55711539Y-97828613D01*
X55581510Y-98010107D01*
X55426009Y-98166674D01*
X55306032Y-98265643D01*
X55290828Y-98263712D01*
X55382131Y-98148571D01*
X55438065Y-98081060D01*
X55630134Y-97851855D01*
X55731035Y-97739607D01*
X55756410Y-97729877D01*
X55721902Y-97808226D01*
G37*
X55721902Y-97808226D02*
X55711539Y-97828613D01*
X55581510Y-98010107D01*
X55426009Y-98166674D01*
X55306032Y-98265643D01*
X55290828Y-98263712D01*
X55382131Y-98148571D01*
X55438065Y-98081060D01*
X55630134Y-97851855D01*
X55731035Y-97739607D01*
X55756410Y-97729877D01*
X55721902Y-97808226D01*
G36*
X55993024Y-97850774D02*
G01*
X55919405Y-98011137D01*
X55905000Y-98039333D01*
X55793126Y-98211731D01*
X55695960Y-98292497D01*
X55688625Y-98293333D01*
X55677652Y-98235112D01*
X55755468Y-98090254D01*
X55791388Y-98039333D01*
X55919890Y-97874792D01*
X56000340Y-97788909D01*
X56007763Y-97785333D01*
X55993024Y-97850774D01*
G37*
X55993024Y-97850774D02*
X55919405Y-98011137D01*
X55905000Y-98039333D01*
X55793126Y-98211731D01*
X55695960Y-98292497D01*
X55688625Y-98293333D01*
X55677652Y-98235112D01*
X55755468Y-98090254D01*
X55791388Y-98039333D01*
X55919890Y-97874792D01*
X56000340Y-97788909D01*
X56007763Y-97785333D01*
X55993024Y-97850774D01*
G36*
X52898165Y-98022045D02*
G01*
X52929951Y-98081666D01*
X52916942Y-98190894D01*
X52854343Y-98208666D01*
X52744412Y-98140834D01*
X52730000Y-98081666D01*
X52770906Y-97968925D01*
X52805608Y-97954666D01*
X52898165Y-98022045D01*
G37*
X52898165Y-98022045D02*
X52929951Y-98081666D01*
X52916942Y-98190894D01*
X52854343Y-98208666D01*
X52744412Y-98140834D01*
X52730000Y-98081666D01*
X52770906Y-97968925D01*
X52805608Y-97954666D01*
X52898165Y-98022045D01*
G36*
X53581139Y-98081666D02*
G01*
X53515553Y-98168880D01*
X53444388Y-98195585D01*
X53340547Y-98174652D01*
X53341138Y-98110919D01*
X53425421Y-98014779D01*
X53532610Y-98006727D01*
X53581139Y-98081666D01*
G37*
X53581139Y-98081666D02*
X53515553Y-98168880D01*
X53444388Y-98195585D01*
X53340547Y-98174652D01*
X53341138Y-98110919D01*
X53425421Y-98014779D01*
X53532610Y-98006727D01*
X53581139Y-98081666D01*
G36*
X52951984Y-95980674D02*
G01*
X53053207Y-96095174D01*
X53054877Y-96293578D01*
X52976794Y-96539670D01*
X52838759Y-96797234D01*
X52660573Y-97030055D01*
X52462034Y-97201916D01*
X52262944Y-97276602D01*
X52243062Y-97277333D01*
X52054380Y-97219260D01*
X51840875Y-97075134D01*
X51792154Y-97029846D01*
X51611271Y-96794635D01*
X51547104Y-96531741D01*
X51544667Y-96446237D01*
X51573902Y-96195399D01*
X51653838Y-96068701D01*
X51661350Y-96065341D01*
X51819791Y-96077397D01*
X51930888Y-96224055D01*
X51968000Y-96444621D01*
X52032639Y-96674332D01*
X52136906Y-96769104D01*
X52261331Y-96807520D01*
X52364645Y-96742701D01*
X52475256Y-96581583D01*
X52585583Y-96379225D01*
X52642798Y-96232499D01*
X52645017Y-96214766D01*
X52711197Y-96062218D01*
X52856389Y-95975322D01*
X52951984Y-95980674D01*
G37*
X52951984Y-95980674D02*
X53053207Y-96095174D01*
X53054877Y-96293578D01*
X52976794Y-96539670D01*
X52838759Y-96797234D01*
X52660573Y-97030055D01*
X52462034Y-97201916D01*
X52262944Y-97276602D01*
X52243062Y-97277333D01*
X52054380Y-97219260D01*
X51840875Y-97075134D01*
X51792154Y-97029846D01*
X51611271Y-96794635D01*
X51547104Y-96531741D01*
X51544667Y-96446237D01*
X51573902Y-96195399D01*
X51653838Y-96068701D01*
X51661350Y-96065341D01*
X51819791Y-96077397D01*
X51930888Y-96224055D01*
X51968000Y-96444621D01*
X52032639Y-96674332D01*
X52136906Y-96769104D01*
X52261331Y-96807520D01*
X52364645Y-96742701D01*
X52475256Y-96581583D01*
X52585583Y-96379225D01*
X52642798Y-96232499D01*
X52645017Y-96214766D01*
X52711197Y-96062218D01*
X52856389Y-95975322D01*
X52951984Y-95980674D01*
G36*
X55283356Y-96112182D02*
G01*
X55339184Y-96329804D01*
X55332518Y-96521495D01*
X55251410Y-96695007D01*
X55067631Y-96906617D01*
X55031644Y-96942944D01*
X54723242Y-97189683D01*
X54453330Y-97272899D01*
X54218743Y-97193194D01*
X54132947Y-97114571D01*
X54021070Y-96911936D01*
X53952274Y-96639704D01*
X53938104Y-96371867D01*
X53987981Y-96185495D01*
X54112699Y-96102053D01*
X54241193Y-96151355D01*
X54327271Y-96304352D01*
X54339963Y-96406842D01*
X54363647Y-96619562D01*
X54407654Y-96746862D01*
X54514961Y-96796319D01*
X54660055Y-96721843D01*
X54808613Y-96552716D01*
X54926310Y-96318216D01*
X54932954Y-96298755D01*
X55047778Y-96080507D01*
X55175018Y-96019114D01*
X55283356Y-96112182D01*
G37*
X55283356Y-96112182D02*
X55339184Y-96329804D01*
X55332518Y-96521495D01*
X55251410Y-96695007D01*
X55067631Y-96906617D01*
X55031644Y-96942944D01*
X54723242Y-97189683D01*
X54453330Y-97272899D01*
X54218743Y-97193194D01*
X54132947Y-97114571D01*
X54021070Y-96911936D01*
X53952274Y-96639704D01*
X53938104Y-96371867D01*
X53987981Y-96185495D01*
X54112699Y-96102053D01*
X54241193Y-96151355D01*
X54327271Y-96304352D01*
X54339963Y-96406842D01*
X54363647Y-96619562D01*
X54407654Y-96746862D01*
X54514961Y-96796319D01*
X54660055Y-96721843D01*
X54808613Y-96552716D01*
X54926310Y-96318216D01*
X54932954Y-96298755D01*
X55047778Y-96080507D01*
X55175018Y-96019114D01*
X55283356Y-96112182D01*
G36*
X54300843Y-94854628D02*
G01*
X54592182Y-95000116D01*
X54643055Y-95033666D01*
X55049231Y-95216174D01*
X55302982Y-95246629D01*
X55633539Y-95278552D01*
X55814826Y-95369313D01*
X55841262Y-95515908D01*
X55835328Y-95533121D01*
X55756969Y-95615309D01*
X55579022Y-95657533D01*
X55292694Y-95668666D01*
X54981686Y-95653221D01*
X54738903Y-95589424D01*
X54482140Y-95451082D01*
X54361501Y-95371967D01*
X54089216Y-95164676D01*
X53970707Y-95011809D01*
X53969523Y-94948634D01*
X54088650Y-94836882D01*
X54300843Y-94854628D01*
G37*
X54300843Y-94854628D02*
X54592182Y-95000116D01*
X54643055Y-95033666D01*
X55049231Y-95216174D01*
X55302982Y-95246629D01*
X55633539Y-95278552D01*
X55814826Y-95369313D01*
X55841262Y-95515908D01*
X55835328Y-95533121D01*
X55756969Y-95615309D01*
X55579022Y-95657533D01*
X55292694Y-95668666D01*
X54981686Y-95653221D01*
X54738903Y-95589424D01*
X54482140Y-95451082D01*
X54361501Y-95371967D01*
X54089216Y-95164676D01*
X53970707Y-95011809D01*
X53969523Y-94948634D01*
X54088650Y-94836882D01*
X54300843Y-94854628D01*
G36*
X53427382Y-94639441D02*
G01*
X53434542Y-94646008D01*
X53486112Y-94788968D01*
X53377089Y-94944131D01*
X53115075Y-95104128D01*
X52848780Y-95213594D01*
X52345658Y-95375822D01*
X51959840Y-95459534D01*
X51701436Y-95463374D01*
X51580555Y-95385988D01*
X51579684Y-95383798D01*
X51565645Y-95214749D01*
X51688430Y-95100089D01*
X51949804Y-95027144D01*
X52197195Y-94965940D01*
X52522773Y-94862792D01*
X52801445Y-94760876D01*
X53119276Y-94647797D01*
X53317891Y-94609139D01*
X53427382Y-94639441D01*
G37*
X53427382Y-94639441D02*
X53434542Y-94646008D01*
X53486112Y-94788968D01*
X53377089Y-94944131D01*
X53115075Y-95104128D01*
X52848780Y-95213594D01*
X52345658Y-95375822D01*
X51959840Y-95459534D01*
X51701436Y-95463374D01*
X51580555Y-95385988D01*
X51579684Y-95383798D01*
X51565645Y-95214749D01*
X51688430Y-95100089D01*
X51949804Y-95027144D01*
X52197195Y-94965940D01*
X52522773Y-94862792D01*
X52801445Y-94760876D01*
X53119276Y-94647797D01*
X53317891Y-94609139D01*
X53427382Y-94639441D01*
D11*
X44326000Y-43382000D02*
X44326000Y-44842000D01*
X41166000Y-43382000D02*
X41166000Y-45542000D01*
X41166000Y-43382000D02*
X42096000Y-43382000D01*
X44326000Y-43382000D02*
X43396000Y-43382000D01*
X44861252Y-46890000D02*
X44338748Y-46890000D01*
X44861252Y-48310000D02*
X44338748Y-48310000D01*
X41061252Y-46890000D02*
X40538748Y-46890000D01*
X41061252Y-48310000D02*
X40538748Y-48310000D01*
X38510000Y-73961252D02*
X38510000Y-73438748D01*
X37090000Y-73961252D02*
X37090000Y-73438748D01*
X37090000Y-84838748D02*
X37090000Y-85361252D01*
X38510000Y-84838748D02*
X38510000Y-85361252D01*
X37090000Y-81038748D02*
X37090000Y-81561252D01*
X38510000Y-81038748D02*
X38510000Y-81561252D01*
X37090000Y-88638748D02*
X37090000Y-89161252D01*
X38510000Y-88638748D02*
X38510000Y-89161252D01*
X44861252Y-48890000D02*
X44338748Y-48890000D01*
X44861252Y-50310000D02*
X44338748Y-50310000D01*
X38790000Y-66038748D02*
X38790000Y-66561252D01*
X40210000Y-66038748D02*
X40210000Y-66561252D01*
X40210000Y-62561252D02*
X40210000Y-62038748D01*
X38790000Y-62561252D02*
X38790000Y-62038748D01*
D13*
X28950000Y-105760000D02*
X25450000Y-105760000D01*
X28950000Y-102605000D02*
X28950000Y-108760000D01*
X36400000Y-102605000D02*
X28950000Y-102605000D01*
X36400000Y-59105000D02*
X36400000Y-102605000D01*
X28950000Y-59105000D02*
X36400000Y-59105000D01*
X28950000Y-59105000D02*
X28950000Y-53490000D01*
X25450000Y-56490000D02*
X28950000Y-56490000D01*
X25450000Y-108760000D02*
X25450000Y-53490000D01*
X28950000Y-108760000D02*
X25450000Y-108760000D01*
X25450000Y-53490000D02*
X28950000Y-53490000D01*
X28947880Y-105759700D02*
X25455380Y-108746740D01*
X25442680Y-105767320D02*
X28945340Y-108756900D01*
X28940260Y-53500720D02*
X25460460Y-56472520D01*
X25457920Y-53508340D02*
X28925020Y-56475060D01*
D11*
X45261252Y-67940000D02*
X44738748Y-67940000D01*
X45261252Y-69360000D02*
X44738748Y-69360000D01*
X45261252Y-69990000D02*
X44738748Y-69990000D01*
X45261252Y-71410000D02*
X44738748Y-71410000D01*
X43040000Y-75480000D02*
X41250000Y-75480000D01*
X43040000Y-75190000D02*
X43040000Y-75480000D01*
X46900000Y-75190000D02*
X43040000Y-75190000D01*
X50760000Y-75190000D02*
X50760000Y-75480000D01*
X46900000Y-75190000D02*
X50760000Y-75190000D01*
X43040000Y-90810000D02*
X43040000Y-90520000D01*
X46900000Y-90810000D02*
X43040000Y-90810000D01*
X50760000Y-90810000D02*
X50760000Y-90520000D01*
X46900000Y-90810000D02*
X50760000Y-90810000D01*
X51561252Y-91490000D02*
X51038748Y-91490000D01*
X51561252Y-92910000D02*
X51038748Y-92910000D01*
X47038748Y-92910000D02*
X47561252Y-92910000D01*
X47038748Y-91490000D02*
X47561252Y-91490000D01*
X45400000Y-91425000D02*
X41600000Y-91425000D01*
X45400000Y-94575000D02*
X45400000Y-91425000D01*
X56361252Y-85090000D02*
X55838748Y-85090000D01*
X56361252Y-86510000D02*
X55838748Y-86510000D01*
X56361252Y-81090000D02*
X55838748Y-81090000D01*
X56361252Y-82510000D02*
X55838748Y-82510000D01*
X56361252Y-77890000D02*
X55838748Y-77890000D01*
X56361252Y-79310000D02*
X55838748Y-79310000D01*
X59900000Y-55600000D02*
X69900000Y-55600000D01*
X59900000Y-66000000D02*
X59900000Y-55600000D01*
X69900000Y-66000000D02*
X59900000Y-66000000D01*
X69900000Y-55600000D02*
X69900000Y-66000000D01*
D14*
X63300000Y-68940000D02*
G75*
G03X63300000Y-68940000I-200000J0D01*
G01*
D15*
X58600000Y-83600000D02*
X64250000Y-83600000D01*
X71600000Y-83600000D02*
X67910000Y-83600000D01*
X58600000Y-69600000D02*
X64250000Y-69600000D01*
X71600000Y-69600000D02*
X67910000Y-69600000D01*
X58600000Y-83600000D02*
X58600000Y-69600000D01*
X71600000Y-69600000D02*
X71600000Y-83600000D01*
D11*
X59700000Y-85400000D02*
X69700000Y-85400000D01*
X59700000Y-95800000D02*
X59700000Y-85400000D01*
X69700000Y-95800000D02*
X59700000Y-95800000D01*
X69700000Y-85400000D02*
X69700000Y-95800000D01*
X59700000Y-98420000D02*
X69700000Y-98420000D01*
X59700000Y-108820000D02*
X59700000Y-98420000D01*
X69700000Y-108820000D02*
X59700000Y-108820000D01*
X69700000Y-98420000D02*
X69700000Y-108820000D01*
X48758750Y-50743750D02*
X49546250Y-50743750D01*
X49152500Y-51137500D02*
X49152500Y-50350000D01*
X53345563Y-50110000D02*
X54410000Y-49045563D01*
X48654437Y-50110000D02*
X47590000Y-49045563D01*
X48654437Y-50110000D02*
X49940000Y-50110000D01*
X53345563Y-50110000D02*
X52060000Y-50110000D01*
X54410000Y-49045563D02*
X54410000Y-43290000D01*
X47590000Y-49045563D02*
X47590000Y-43290000D01*
X47590000Y-43290000D02*
X49940000Y-43290000D01*
X54410000Y-43290000D02*
X52060000Y-43290000D01*
X37090000Y-92438748D02*
X37090000Y-92961252D01*
X38510000Y-92438748D02*
X38510000Y-92961252D01*
X38510000Y-77761252D02*
X38510000Y-77238748D01*
X37090000Y-77761252D02*
X37090000Y-77238748D01*
D13*
X14890000Y-58600000D02*
X29470000Y-58600000D01*
X14890000Y-89400000D02*
X14890000Y-58600000D01*
X29470000Y-89400000D02*
X14890000Y-89400000D01*
X29470000Y-89400000D02*
X29470000Y-58600000D01*
D11*
X38790000Y-43838748D02*
X38790000Y-44361252D01*
X40210000Y-43838748D02*
X40210000Y-44361252D01*
X45461252Y-59790000D02*
X44938748Y-59790000D01*
X45461252Y-61210000D02*
X44938748Y-61210000D01*
X46761252Y-73490000D02*
X46238748Y-73490000D01*
X46761252Y-74910000D02*
X46238748Y-74910000D01*
X29861252Y-45490000D02*
X29338748Y-45490000D01*
X29861252Y-46910000D02*
X29338748Y-46910000D01*
X29861252Y-47490000D02*
X29338748Y-47490000D01*
X29861252Y-48910000D02*
X29338748Y-48910000D01*
X45000000Y-62340000D02*
X41550000Y-62340000D01*
X45000000Y-62340000D02*
X46950000Y-62340000D01*
X45000000Y-67460000D02*
X43050000Y-67460000D01*
X45000000Y-67460000D02*
X46950000Y-67460000D01*
D13*
X53102380Y-73419047D02*
X52626190Y-73752380D01*
X53102380Y-73990476D02*
X52102380Y-73990476D01*
X52102380Y-73609523D01*
X52150000Y-73514285D01*
X52197619Y-73466666D01*
X52292857Y-73419047D01*
X52435714Y-73419047D01*
X52530952Y-73466666D01*
X52578571Y-73514285D01*
X52626190Y-73609523D01*
X52626190Y-73990476D01*
X53102380Y-72466666D02*
X53102380Y-73038095D01*
X53102380Y-72752380D02*
X52102380Y-72752380D01*
X52245238Y-72847619D01*
X52340476Y-72942857D01*
X52388095Y-73038095D01*
X52102380Y-71847619D02*
X52102380Y-71752380D01*
X52150000Y-71657142D01*
X52197619Y-71609523D01*
X52292857Y-71561904D01*
X52483333Y-71514285D01*
X52721428Y-71514285D01*
X52911904Y-71561904D01*
X53007142Y-71609523D01*
X53054761Y-71657142D01*
X53102380Y-71752380D01*
X53102380Y-71847619D01*
X53054761Y-71942857D01*
X53007142Y-71990476D01*
X52911904Y-72038095D01*
X52721428Y-72085714D01*
X52483333Y-72085714D01*
X52292857Y-72038095D01*
X52197619Y-71990476D01*
X52150000Y-71942857D01*
X52102380Y-71847619D01*
X52435714Y-70657142D02*
X53102380Y-70657142D01*
X52054761Y-70895238D02*
X52769047Y-71133333D01*
X52769047Y-70514285D01*
X53102380Y-68669047D02*
X52626190Y-69002380D01*
X53102380Y-69240476D02*
X52102380Y-69240476D01*
X52102380Y-68859523D01*
X52150000Y-68764285D01*
X52197619Y-68716666D01*
X52292857Y-68669047D01*
X52435714Y-68669047D01*
X52530952Y-68716666D01*
X52578571Y-68764285D01*
X52626190Y-68859523D01*
X52626190Y-69240476D01*
X53102380Y-67716666D02*
X53102380Y-68288095D01*
X53102380Y-68002380D02*
X52102380Y-68002380D01*
X52245238Y-68097619D01*
X52340476Y-68192857D01*
X52388095Y-68288095D01*
X52102380Y-67097619D02*
X52102380Y-67002380D01*
X52150000Y-66907142D01*
X52197619Y-66859523D01*
X52292857Y-66811904D01*
X52483333Y-66764285D01*
X52721428Y-66764285D01*
X52911904Y-66811904D01*
X53007142Y-66859523D01*
X53054761Y-66907142D01*
X53102380Y-67002380D01*
X53102380Y-67097619D01*
X53054761Y-67192857D01*
X53007142Y-67240476D01*
X52911904Y-67288095D01*
X52721428Y-67335714D01*
X52483333Y-67335714D01*
X52292857Y-67288095D01*
X52197619Y-67240476D01*
X52150000Y-67192857D01*
X52102380Y-67097619D01*
X52102380Y-66430952D02*
X52102380Y-65811904D01*
X52483333Y-66145238D01*
X52483333Y-66002380D01*
X52530952Y-65907142D01*
X52578571Y-65859523D01*
X52673809Y-65811904D01*
X52911904Y-65811904D01*
X53007142Y-65859523D01*
X53054761Y-65907142D01*
X53102380Y-66002380D01*
X53102380Y-66288095D01*
X53054761Y-66383333D01*
X53007142Y-66430952D01*
X53102380Y-63919047D02*
X52626190Y-64252380D01*
X53102380Y-64490476D02*
X52102380Y-64490476D01*
X52102380Y-64109523D01*
X52150000Y-64014285D01*
X52197619Y-63966666D01*
X52292857Y-63919047D01*
X52435714Y-63919047D01*
X52530952Y-63966666D01*
X52578571Y-64014285D01*
X52626190Y-64109523D01*
X52626190Y-64490476D01*
X53102380Y-62966666D02*
X53102380Y-63538095D01*
X53102380Y-63252380D02*
X52102380Y-63252380D01*
X52245238Y-63347619D01*
X52340476Y-63442857D01*
X52388095Y-63538095D01*
X52102380Y-62347619D02*
X52102380Y-62252380D01*
X52150000Y-62157142D01*
X52197619Y-62109523D01*
X52292857Y-62061904D01*
X52483333Y-62014285D01*
X52721428Y-62014285D01*
X52911904Y-62061904D01*
X53007142Y-62109523D01*
X53054761Y-62157142D01*
X53102380Y-62252380D01*
X53102380Y-62347619D01*
X53054761Y-62442857D01*
X53007142Y-62490476D01*
X52911904Y-62538095D01*
X52721428Y-62585714D01*
X52483333Y-62585714D01*
X52292857Y-62538095D01*
X52197619Y-62490476D01*
X52150000Y-62442857D01*
X52102380Y-62347619D01*
X53102380Y-61061904D02*
X53102380Y-61633333D01*
X53102380Y-61347619D02*
X52102380Y-61347619D01*
X52245238Y-61442857D01*
X52340476Y-61538095D01*
X52388095Y-61633333D01*
X58702380Y-64735714D02*
X59416666Y-64735714D01*
X59559523Y-64783333D01*
X59654761Y-64878571D01*
X59702380Y-65021428D01*
X59702380Y-65116666D01*
X59702380Y-63735714D02*
X59702380Y-64307142D01*
X59702380Y-64021428D02*
X58702380Y-64021428D01*
X58845238Y-64116666D01*
X58940476Y-64211904D01*
X58988095Y-64307142D01*
X58702380Y-63116666D02*
X58702380Y-63021428D01*
X58750000Y-62926190D01*
X58797619Y-62878571D01*
X58892857Y-62830952D01*
X59083333Y-62783333D01*
X59321428Y-62783333D01*
X59511904Y-62830952D01*
X59607142Y-62878571D01*
X59654761Y-62926190D01*
X59702380Y-63021428D01*
X59702380Y-63116666D01*
X59654761Y-63211904D01*
X59607142Y-63259523D01*
X59511904Y-63307142D01*
X59321428Y-63354761D01*
X59083333Y-63354761D01*
X58892857Y-63307142D01*
X58797619Y-63259523D01*
X58750000Y-63211904D01*
X58702380Y-63116666D01*
X59702380Y-61830952D02*
X59702380Y-62402380D01*
X59702380Y-62116666D02*
X58702380Y-62116666D01*
X58845238Y-62211904D01*
X58940476Y-62307142D01*
X58988095Y-62402380D01*
X36185714Y-49552380D02*
X36185714Y-50361904D01*
X36233333Y-50457142D01*
X36280952Y-50504761D01*
X36376190Y-50552380D01*
X36566666Y-50552380D01*
X36661904Y-50504761D01*
X36709523Y-50457142D01*
X36757142Y-50361904D01*
X36757142Y-49552380D01*
X37757142Y-50552380D02*
X37185714Y-50552380D01*
X37471428Y-50552380D02*
X37471428Y-49552380D01*
X37376190Y-49695238D01*
X37280952Y-49790476D01*
X37185714Y-49838095D01*
X38376190Y-49552380D02*
X38471428Y-49552380D01*
X38566666Y-49600000D01*
X38614285Y-49647619D01*
X38661904Y-49742857D01*
X38709523Y-49933333D01*
X38709523Y-50171428D01*
X38661904Y-50361904D01*
X38614285Y-50457142D01*
X38566666Y-50504761D01*
X38471428Y-50552380D01*
X38376190Y-50552380D01*
X38280952Y-50504761D01*
X38233333Y-50457142D01*
X38185714Y-50361904D01*
X38138095Y-50171428D01*
X38138095Y-49933333D01*
X38185714Y-49742857D01*
X38233333Y-49647619D01*
X38280952Y-49600000D01*
X38376190Y-49552380D01*
X39042857Y-49552380D02*
X39661904Y-49552380D01*
X39328571Y-49933333D01*
X39471428Y-49933333D01*
X39566666Y-49980952D01*
X39614285Y-50028571D01*
X39661904Y-50123809D01*
X39661904Y-50361904D01*
X39614285Y-50457142D01*
X39566666Y-50504761D01*
X39471428Y-50552380D01*
X39185714Y-50552380D01*
X39090476Y-50504761D01*
X39042857Y-50457142D01*
X32185714Y-49552380D02*
X32185714Y-50361904D01*
X32233333Y-50457142D01*
X32280952Y-50504761D01*
X32376190Y-50552380D01*
X32566666Y-50552380D01*
X32661904Y-50504761D01*
X32709523Y-50457142D01*
X32757142Y-50361904D01*
X32757142Y-49552380D01*
X33757142Y-50552380D02*
X33185714Y-50552380D01*
X33471428Y-50552380D02*
X33471428Y-49552380D01*
X33376190Y-49695238D01*
X33280952Y-49790476D01*
X33185714Y-49838095D01*
X34376190Y-49552380D02*
X34471428Y-49552380D01*
X34566666Y-49600000D01*
X34614285Y-49647619D01*
X34661904Y-49742857D01*
X34709523Y-49933333D01*
X34709523Y-50171428D01*
X34661904Y-50361904D01*
X34614285Y-50457142D01*
X34566666Y-50504761D01*
X34471428Y-50552380D01*
X34376190Y-50552380D01*
X34280952Y-50504761D01*
X34233333Y-50457142D01*
X34185714Y-50361904D01*
X34138095Y-50171428D01*
X34138095Y-49933333D01*
X34185714Y-49742857D01*
X34233333Y-49647619D01*
X34280952Y-49600000D01*
X34376190Y-49552380D01*
X35090476Y-49647619D02*
X35138095Y-49600000D01*
X35233333Y-49552380D01*
X35471428Y-49552380D01*
X35566666Y-49600000D01*
X35614285Y-49647619D01*
X35661904Y-49742857D01*
X35661904Y-49838095D01*
X35614285Y-49980952D01*
X35042857Y-50552380D01*
X35661904Y-50552380D01*
X32780952Y-58102380D02*
X32447619Y-57626190D01*
X32209523Y-58102380D02*
X32209523Y-57102380D01*
X32590476Y-57102380D01*
X32685714Y-57150000D01*
X32733333Y-57197619D01*
X32780952Y-57292857D01*
X32780952Y-57435714D01*
X32733333Y-57530952D01*
X32685714Y-57578571D01*
X32590476Y-57626190D01*
X32209523Y-57626190D01*
X33733333Y-58102380D02*
X33161904Y-58102380D01*
X33447619Y-58102380D02*
X33447619Y-57102380D01*
X33352380Y-57245238D01*
X33257142Y-57340476D01*
X33161904Y-57388095D01*
X34352380Y-57102380D02*
X34447619Y-57102380D01*
X34542857Y-57150000D01*
X34590476Y-57197619D01*
X34638095Y-57292857D01*
X34685714Y-57483333D01*
X34685714Y-57721428D01*
X34638095Y-57911904D01*
X34590476Y-58007142D01*
X34542857Y-58054761D01*
X34447619Y-58102380D01*
X34352380Y-58102380D01*
X34257142Y-58054761D01*
X34209523Y-58007142D01*
X34161904Y-57911904D01*
X34114285Y-57721428D01*
X34114285Y-57483333D01*
X34161904Y-57292857D01*
X34209523Y-57197619D01*
X34257142Y-57150000D01*
X34352380Y-57102380D01*
X35066666Y-57197619D02*
X35114285Y-57150000D01*
X35209523Y-57102380D01*
X35447619Y-57102380D01*
X35542857Y-57150000D01*
X35590476Y-57197619D01*
X35638095Y-57292857D01*
X35638095Y-57388095D01*
X35590476Y-57530952D01*
X35019047Y-58102380D01*
X35638095Y-58102380D01*
X46152380Y-57785714D02*
X46866666Y-57785714D01*
X47009523Y-57833333D01*
X47104761Y-57928571D01*
X47152380Y-58071428D01*
X47152380Y-58166666D01*
X47152380Y-57309523D02*
X46152380Y-57309523D01*
X46152380Y-56928571D01*
X46200000Y-56833333D01*
X46247619Y-56785714D01*
X46342857Y-56738095D01*
X46485714Y-56738095D01*
X46580952Y-56785714D01*
X46628571Y-56833333D01*
X46676190Y-56928571D01*
X46676190Y-57309523D01*
X47152380Y-55785714D02*
X47152380Y-56357142D01*
X47152380Y-56071428D02*
X46152380Y-56071428D01*
X46295238Y-56166666D01*
X46390476Y-56261904D01*
X46438095Y-56357142D01*
X46152380Y-55166666D02*
X46152380Y-55071428D01*
X46200000Y-54976190D01*
X46247619Y-54928571D01*
X46342857Y-54880952D01*
X46533333Y-54833333D01*
X46771428Y-54833333D01*
X46961904Y-54880952D01*
X47057142Y-54928571D01*
X47104761Y-54976190D01*
X47152380Y-55071428D01*
X47152380Y-55166666D01*
X47104761Y-55261904D01*
X47057142Y-55309523D01*
X46961904Y-55357142D01*
X46771428Y-55404761D01*
X46533333Y-55404761D01*
X46342857Y-55357142D01*
X46247619Y-55309523D01*
X46200000Y-55261904D01*
X46152380Y-55166666D01*
X47152380Y-53880952D02*
X47152380Y-54452380D01*
X47152380Y-54166666D02*
X46152380Y-54166666D01*
X46295238Y-54261904D01*
X46390476Y-54357142D01*
X46438095Y-54452380D01*
X40538095Y-41502380D02*
X40538095Y-42311904D01*
X40585714Y-42407142D01*
X40633333Y-42454761D01*
X40728571Y-42502380D01*
X40919047Y-42502380D01*
X41014285Y-42454761D01*
X41061904Y-42407142D01*
X41109523Y-42311904D01*
X41109523Y-41502380D01*
X41538095Y-41597619D02*
X41585714Y-41550000D01*
X41680952Y-41502380D01*
X41919047Y-41502380D01*
X42014285Y-41550000D01*
X42061904Y-41597619D01*
X42109523Y-41692857D01*
X42109523Y-41788095D01*
X42061904Y-41930952D01*
X41490476Y-42502380D01*
X42109523Y-42502380D01*
X45033333Y-46552380D02*
X44700000Y-46076190D01*
X44461904Y-46552380D02*
X44461904Y-45552380D01*
X44842857Y-45552380D01*
X44938095Y-45600000D01*
X44985714Y-45647619D01*
X45033333Y-45742857D01*
X45033333Y-45885714D01*
X44985714Y-45980952D01*
X44938095Y-46028571D01*
X44842857Y-46076190D01*
X44461904Y-46076190D01*
X45604761Y-45980952D02*
X45509523Y-45933333D01*
X45461904Y-45885714D01*
X45414285Y-45790476D01*
X45414285Y-45742857D01*
X45461904Y-45647619D01*
X45509523Y-45600000D01*
X45604761Y-45552380D01*
X45795238Y-45552380D01*
X45890476Y-45600000D01*
X45938095Y-45647619D01*
X45985714Y-45742857D01*
X45985714Y-45790476D01*
X45938095Y-45885714D01*
X45890476Y-45933333D01*
X45795238Y-45980952D01*
X45604761Y-45980952D01*
X45509523Y-46028571D01*
X45461904Y-46076190D01*
X45414285Y-46171428D01*
X45414285Y-46361904D01*
X45461904Y-46457142D01*
X45509523Y-46504761D01*
X45604761Y-46552380D01*
X45795238Y-46552380D01*
X45890476Y-46504761D01*
X45938095Y-46457142D01*
X45985714Y-46361904D01*
X45985714Y-46171428D01*
X45938095Y-46076190D01*
X45890476Y-46028571D01*
X45795238Y-45980952D01*
X40633333Y-46702380D02*
X40300000Y-46226190D01*
X40061904Y-46702380D02*
X40061904Y-45702380D01*
X40442857Y-45702380D01*
X40538095Y-45750000D01*
X40585714Y-45797619D01*
X40633333Y-45892857D01*
X40633333Y-46035714D01*
X40585714Y-46130952D01*
X40538095Y-46178571D01*
X40442857Y-46226190D01*
X40061904Y-46226190D01*
X41109523Y-46702380D02*
X41300000Y-46702380D01*
X41395238Y-46654761D01*
X41442857Y-46607142D01*
X41538095Y-46464285D01*
X41585714Y-46273809D01*
X41585714Y-45892857D01*
X41538095Y-45797619D01*
X41490476Y-45750000D01*
X41395238Y-45702380D01*
X41204761Y-45702380D01*
X41109523Y-45750000D01*
X41061904Y-45797619D01*
X41014285Y-45892857D01*
X41014285Y-46130952D01*
X41061904Y-46226190D01*
X41109523Y-46273809D01*
X41204761Y-46321428D01*
X41395238Y-46321428D01*
X41490476Y-46273809D01*
X41538095Y-46226190D01*
X41585714Y-46130952D01*
X39852380Y-73866666D02*
X39376190Y-74200000D01*
X39852380Y-74438095D02*
X38852380Y-74438095D01*
X38852380Y-74057142D01*
X38900000Y-73961904D01*
X38947619Y-73914285D01*
X39042857Y-73866666D01*
X39185714Y-73866666D01*
X39280952Y-73914285D01*
X39328571Y-73961904D01*
X39376190Y-74057142D01*
X39376190Y-74438095D01*
X38852380Y-73009523D02*
X38852380Y-73200000D01*
X38900000Y-73295238D01*
X38947619Y-73342857D01*
X39090476Y-73438095D01*
X39280952Y-73485714D01*
X39661904Y-73485714D01*
X39757142Y-73438095D01*
X39804761Y-73390476D01*
X39852380Y-73295238D01*
X39852380Y-73104761D01*
X39804761Y-73009523D01*
X39757142Y-72961904D01*
X39661904Y-72914285D01*
X39423809Y-72914285D01*
X39328571Y-72961904D01*
X39280952Y-73009523D01*
X39233333Y-73104761D01*
X39233333Y-73295238D01*
X39280952Y-73390476D01*
X39328571Y-73438095D01*
X39423809Y-73485714D01*
X39902380Y-85266666D02*
X39426190Y-85600000D01*
X39902380Y-85838095D02*
X38902380Y-85838095D01*
X38902380Y-85457142D01*
X38950000Y-85361904D01*
X38997619Y-85314285D01*
X39092857Y-85266666D01*
X39235714Y-85266666D01*
X39330952Y-85314285D01*
X39378571Y-85361904D01*
X39426190Y-85457142D01*
X39426190Y-85838095D01*
X38902380Y-84933333D02*
X38902380Y-84266666D01*
X39902380Y-84695238D01*
X39657142Y-81466666D02*
X39704761Y-81514285D01*
X39752380Y-81657142D01*
X39752380Y-81752380D01*
X39704761Y-81895238D01*
X39609523Y-81990476D01*
X39514285Y-82038095D01*
X39323809Y-82085714D01*
X39180952Y-82085714D01*
X38990476Y-82038095D01*
X38895238Y-81990476D01*
X38800000Y-81895238D01*
X38752380Y-81752380D01*
X38752380Y-81657142D01*
X38800000Y-81514285D01*
X38847619Y-81466666D01*
X38752380Y-81133333D02*
X38752380Y-80466666D01*
X39752380Y-80895238D01*
X39657142Y-89066666D02*
X39704761Y-89114285D01*
X39752380Y-89257142D01*
X39752380Y-89352380D01*
X39704761Y-89495238D01*
X39609523Y-89590476D01*
X39514285Y-89638095D01*
X39323809Y-89685714D01*
X39180952Y-89685714D01*
X38990476Y-89638095D01*
X38895238Y-89590476D01*
X38800000Y-89495238D01*
X38752380Y-89352380D01*
X38752380Y-89257142D01*
X38800000Y-89114285D01*
X38847619Y-89066666D01*
X39180952Y-88495238D02*
X39133333Y-88590476D01*
X39085714Y-88638095D01*
X38990476Y-88685714D01*
X38942857Y-88685714D01*
X38847619Y-88638095D01*
X38800000Y-88590476D01*
X38752380Y-88495238D01*
X38752380Y-88304761D01*
X38800000Y-88209523D01*
X38847619Y-88161904D01*
X38942857Y-88114285D01*
X38990476Y-88114285D01*
X39085714Y-88161904D01*
X39133333Y-88209523D01*
X39180952Y-88304761D01*
X39180952Y-88495238D01*
X39228571Y-88590476D01*
X39276190Y-88638095D01*
X39371428Y-88685714D01*
X39561904Y-88685714D01*
X39657142Y-88638095D01*
X39704761Y-88590476D01*
X39752380Y-88495238D01*
X39752380Y-88304761D01*
X39704761Y-88209523D01*
X39657142Y-88161904D01*
X39561904Y-88114285D01*
X39371428Y-88114285D01*
X39276190Y-88161904D01*
X39228571Y-88209523D01*
X39180952Y-88304761D01*
X43957142Y-51607142D02*
X43909523Y-51654761D01*
X43766666Y-51702380D01*
X43671428Y-51702380D01*
X43528571Y-51654761D01*
X43433333Y-51559523D01*
X43385714Y-51464285D01*
X43338095Y-51273809D01*
X43338095Y-51130952D01*
X43385714Y-50940476D01*
X43433333Y-50845238D01*
X43528571Y-50750000D01*
X43671428Y-50702380D01*
X43766666Y-50702380D01*
X43909523Y-50750000D01*
X43957142Y-50797619D01*
X44909523Y-51702380D02*
X44338095Y-51702380D01*
X44623809Y-51702380D02*
X44623809Y-50702380D01*
X44528571Y-50845238D01*
X44433333Y-50940476D01*
X44338095Y-50988095D01*
X45861904Y-51702380D02*
X45290476Y-51702380D01*
X45576190Y-51702380D02*
X45576190Y-50702380D01*
X45480952Y-50845238D01*
X45385714Y-50940476D01*
X45290476Y-50988095D01*
X41307142Y-66466666D02*
X41354761Y-66514285D01*
X41402380Y-66657142D01*
X41402380Y-66752380D01*
X41354761Y-66895238D01*
X41259523Y-66990476D01*
X41164285Y-67038095D01*
X40973809Y-67085714D01*
X40830952Y-67085714D01*
X40640476Y-67038095D01*
X40545238Y-66990476D01*
X40450000Y-66895238D01*
X40402380Y-66752380D01*
X40402380Y-66657142D01*
X40450000Y-66514285D01*
X40497619Y-66466666D01*
X41402380Y-65514285D02*
X41402380Y-66085714D01*
X41402380Y-65800000D02*
X40402380Y-65800000D01*
X40545238Y-65895238D01*
X40640476Y-65990476D01*
X40688095Y-66085714D01*
X41502380Y-62416666D02*
X41026190Y-62750000D01*
X41502380Y-62988095D02*
X40502380Y-62988095D01*
X40502380Y-62607142D01*
X40550000Y-62511904D01*
X40597619Y-62464285D01*
X40692857Y-62416666D01*
X40835714Y-62416666D01*
X40930952Y-62464285D01*
X40978571Y-62511904D01*
X41026190Y-62607142D01*
X41026190Y-62988095D01*
X41502380Y-61464285D02*
X41502380Y-62035714D01*
X41502380Y-61750000D02*
X40502380Y-61750000D01*
X40645238Y-61845238D01*
X40740476Y-61940476D01*
X40788095Y-62035714D01*
X24252380Y-98383333D02*
X24966666Y-98383333D01*
X25109523Y-98430952D01*
X25204761Y-98526190D01*
X25252380Y-98669047D01*
X25252380Y-98764285D01*
X24252380Y-98002380D02*
X24252380Y-97383333D01*
X24633333Y-97716666D01*
X24633333Y-97573809D01*
X24680952Y-97478571D01*
X24728571Y-97430952D01*
X24823809Y-97383333D01*
X25061904Y-97383333D01*
X25157142Y-97430952D01*
X25204761Y-97478571D01*
X25252380Y-97573809D01*
X25252380Y-97859523D01*
X25204761Y-97954761D01*
X25157142Y-98002380D01*
X26234380Y-47933333D02*
X26948666Y-47933333D01*
X27091523Y-47980952D01*
X27186761Y-48076190D01*
X27234380Y-48219047D01*
X27234380Y-48314285D01*
X27234380Y-46933333D02*
X27234380Y-47504761D01*
X27234380Y-47219047D02*
X26234380Y-47219047D01*
X26377238Y-47314285D01*
X26472476Y-47409523D01*
X26520095Y-47504761D01*
X41483333Y-69007142D02*
X41435714Y-69054761D01*
X41292857Y-69102380D01*
X41197619Y-69102380D01*
X41054761Y-69054761D01*
X40959523Y-68959523D01*
X40911904Y-68864285D01*
X40864285Y-68673809D01*
X40864285Y-68530952D01*
X40911904Y-68340476D01*
X40959523Y-68245238D01*
X41054761Y-68150000D01*
X41197619Y-68102380D01*
X41292857Y-68102380D01*
X41435714Y-68150000D01*
X41483333Y-68197619D01*
X41864285Y-68197619D02*
X41911904Y-68150000D01*
X42007142Y-68102380D01*
X42245238Y-68102380D01*
X42340476Y-68150000D01*
X42388095Y-68197619D01*
X42435714Y-68292857D01*
X42435714Y-68388095D01*
X42388095Y-68530952D01*
X41816666Y-69102380D01*
X42435714Y-69102380D01*
X41583333Y-71152380D02*
X41250000Y-70676190D01*
X41011904Y-71152380D02*
X41011904Y-70152380D01*
X41392857Y-70152380D01*
X41488095Y-70200000D01*
X41535714Y-70247619D01*
X41583333Y-70342857D01*
X41583333Y-70485714D01*
X41535714Y-70580952D01*
X41488095Y-70628571D01*
X41392857Y-70676190D01*
X41011904Y-70676190D01*
X42440476Y-70485714D02*
X42440476Y-71152380D01*
X42202380Y-70104761D02*
X41964285Y-70819047D01*
X42583333Y-70819047D01*
X42138095Y-73802380D02*
X42138095Y-74611904D01*
X42185714Y-74707142D01*
X42233333Y-74754761D01*
X42328571Y-74802380D01*
X42519047Y-74802380D01*
X42614285Y-74754761D01*
X42661904Y-74707142D01*
X42709523Y-74611904D01*
X42709523Y-73802380D01*
X43090476Y-73802380D02*
X43709523Y-73802380D01*
X43376190Y-74183333D01*
X43519047Y-74183333D01*
X43614285Y-74230952D01*
X43661904Y-74278571D01*
X43709523Y-74373809D01*
X43709523Y-74611904D01*
X43661904Y-74707142D01*
X43614285Y-74754761D01*
X43519047Y-74802380D01*
X43233333Y-74802380D01*
X43138095Y-74754761D01*
X43090476Y-74707142D01*
X50657142Y-94302380D02*
X50323809Y-93826190D01*
X50085714Y-94302380D02*
X50085714Y-93302380D01*
X50466666Y-93302380D01*
X50561904Y-93350000D01*
X50609523Y-93397619D01*
X50657142Y-93492857D01*
X50657142Y-93635714D01*
X50609523Y-93730952D01*
X50561904Y-93778571D01*
X50466666Y-93826190D01*
X50085714Y-93826190D01*
X51609523Y-94302380D02*
X51038095Y-94302380D01*
X51323809Y-94302380D02*
X51323809Y-93302380D01*
X51228571Y-93445238D01*
X51133333Y-93540476D01*
X51038095Y-93588095D01*
X52561904Y-94302380D02*
X51990476Y-94302380D01*
X52276190Y-94302380D02*
X52276190Y-93302380D01*
X52180952Y-93445238D01*
X52085714Y-93540476D01*
X51990476Y-93588095D01*
X47133333Y-94157142D02*
X47085714Y-94204761D01*
X46942857Y-94252380D01*
X46847619Y-94252380D01*
X46704761Y-94204761D01*
X46609523Y-94109523D01*
X46561904Y-94014285D01*
X46514285Y-93823809D01*
X46514285Y-93680952D01*
X46561904Y-93490476D01*
X46609523Y-93395238D01*
X46704761Y-93300000D01*
X46847619Y-93252380D01*
X46942857Y-93252380D01*
X47085714Y-93300000D01*
X47133333Y-93347619D01*
X48038095Y-93252380D02*
X47561904Y-93252380D01*
X47514285Y-93728571D01*
X47561904Y-93680952D01*
X47657142Y-93633333D01*
X47895238Y-93633333D01*
X47990476Y-93680952D01*
X48038095Y-93728571D01*
X48085714Y-93823809D01*
X48085714Y-94061904D01*
X48038095Y-94157142D01*
X47990476Y-94204761D01*
X47895238Y-94252380D01*
X47657142Y-94252380D01*
X47561904Y-94204761D01*
X47514285Y-94157142D01*
X42690476Y-94902380D02*
X43357142Y-95902380D01*
X43357142Y-94902380D02*
X42690476Y-95902380D01*
X44261904Y-95902380D02*
X43690476Y-95902380D01*
X43976190Y-95902380D02*
X43976190Y-94902380D01*
X43880952Y-95045238D01*
X43785714Y-95140476D01*
X43690476Y-95188095D01*
X55457142Y-87902380D02*
X55123809Y-87426190D01*
X54885714Y-87902380D02*
X54885714Y-86902380D01*
X55266666Y-86902380D01*
X55361904Y-86950000D01*
X55409523Y-86997619D01*
X55457142Y-87092857D01*
X55457142Y-87235714D01*
X55409523Y-87330952D01*
X55361904Y-87378571D01*
X55266666Y-87426190D01*
X54885714Y-87426190D01*
X56409523Y-87902380D02*
X55838095Y-87902380D01*
X56123809Y-87902380D02*
X56123809Y-86902380D01*
X56028571Y-87045238D01*
X55933333Y-87140476D01*
X55838095Y-87188095D01*
X57266666Y-87235714D02*
X57266666Y-87902380D01*
X57028571Y-86854761D02*
X56790476Y-87569047D01*
X57409523Y-87569047D01*
X55457142Y-83902380D02*
X55123809Y-83426190D01*
X54885714Y-83902380D02*
X54885714Y-82902380D01*
X55266666Y-82902380D01*
X55361904Y-82950000D01*
X55409523Y-82997619D01*
X55457142Y-83092857D01*
X55457142Y-83235714D01*
X55409523Y-83330952D01*
X55361904Y-83378571D01*
X55266666Y-83426190D01*
X54885714Y-83426190D01*
X56409523Y-83902380D02*
X55838095Y-83902380D01*
X56123809Y-83902380D02*
X56123809Y-82902380D01*
X56028571Y-83045238D01*
X55933333Y-83140476D01*
X55838095Y-83188095D01*
X56742857Y-82902380D02*
X57361904Y-82902380D01*
X57028571Y-83283333D01*
X57171428Y-83283333D01*
X57266666Y-83330952D01*
X57314285Y-83378571D01*
X57361904Y-83473809D01*
X57361904Y-83711904D01*
X57314285Y-83807142D01*
X57266666Y-83854761D01*
X57171428Y-83902380D01*
X56885714Y-83902380D01*
X56790476Y-83854761D01*
X56742857Y-83807142D01*
X55457142Y-80702380D02*
X55123809Y-80226190D01*
X54885714Y-80702380D02*
X54885714Y-79702380D01*
X55266666Y-79702380D01*
X55361904Y-79750000D01*
X55409523Y-79797619D01*
X55457142Y-79892857D01*
X55457142Y-80035714D01*
X55409523Y-80130952D01*
X55361904Y-80178571D01*
X55266666Y-80226190D01*
X54885714Y-80226190D01*
X56409523Y-80702380D02*
X55838095Y-80702380D01*
X56123809Y-80702380D02*
X56123809Y-79702380D01*
X56028571Y-79845238D01*
X55933333Y-79940476D01*
X55838095Y-79988095D01*
X56790476Y-79797619D02*
X56838095Y-79750000D01*
X56933333Y-79702380D01*
X57171428Y-79702380D01*
X57266666Y-79750000D01*
X57314285Y-79797619D01*
X57361904Y-79892857D01*
X57361904Y-79988095D01*
X57314285Y-80130952D01*
X56742857Y-80702380D01*
X57361904Y-80702380D01*
X71892380Y-59093333D02*
X72606666Y-59093333D01*
X72749523Y-59140952D01*
X72844761Y-59236190D01*
X72892380Y-59379047D01*
X72892380Y-59474285D01*
X72892380Y-58045714D02*
X72416190Y-58379047D01*
X72892380Y-58617142D02*
X71892380Y-58617142D01*
X71892380Y-58236190D01*
X71940000Y-58140952D01*
X71987619Y-58093333D01*
X72082857Y-58045714D01*
X72225714Y-58045714D01*
X72320952Y-58093333D01*
X72368571Y-58140952D01*
X72416190Y-58236190D01*
X72416190Y-58617142D01*
X71987619Y-57664761D02*
X71940000Y-57617142D01*
X71892380Y-57521904D01*
X71892380Y-57283809D01*
X71940000Y-57188571D01*
X71987619Y-57140952D01*
X72082857Y-57093333D01*
X72178095Y-57093333D01*
X72320952Y-57140952D01*
X72892380Y-57712380D01*
X72892380Y-57093333D01*
D16*
X72068612Y-72112543D02*
X72783026Y-72112543D01*
X72925909Y-72160170D01*
X73021164Y-72255426D01*
X73068792Y-72398309D01*
X73068792Y-72493564D01*
X72402005Y-71207618D02*
X73068792Y-71207618D01*
X72020984Y-71445756D02*
X72735399Y-71683894D01*
X72735399Y-71064735D01*
D13*
X71692380Y-88893333D02*
X72406666Y-88893333D01*
X72549523Y-88940952D01*
X72644761Y-89036190D01*
X72692380Y-89179047D01*
X72692380Y-89274285D01*
X72692380Y-87845714D02*
X72216190Y-88179047D01*
X72692380Y-88417142D02*
X71692380Y-88417142D01*
X71692380Y-88036190D01*
X71740000Y-87940952D01*
X71787619Y-87893333D01*
X71882857Y-87845714D01*
X72025714Y-87845714D01*
X72120952Y-87893333D01*
X72168571Y-87940952D01*
X72216190Y-88036190D01*
X72216190Y-88417142D01*
X72692380Y-86893333D02*
X72692380Y-87464761D01*
X72692380Y-87179047D02*
X71692380Y-87179047D01*
X71835238Y-87274285D01*
X71930476Y-87369523D01*
X71978095Y-87464761D01*
X71692380Y-101937142D02*
X72406666Y-101937142D01*
X72549523Y-101984761D01*
X72644761Y-102080000D01*
X72692380Y-102222857D01*
X72692380Y-102318095D01*
X71692380Y-101460952D02*
X72501904Y-101460952D01*
X72597142Y-101413333D01*
X72644761Y-101365714D01*
X72692380Y-101270476D01*
X72692380Y-101080000D01*
X72644761Y-100984761D01*
X72597142Y-100937142D01*
X72501904Y-100889523D01*
X71692380Y-100889523D01*
X72692380Y-99889523D02*
X72692380Y-100460952D01*
X72692380Y-100175238D02*
X71692380Y-100175238D01*
X71835238Y-100270476D01*
X71930476Y-100365714D01*
X71978095Y-100460952D01*
X47657142Y-42957142D02*
X47609523Y-43004761D01*
X47466666Y-43052380D01*
X47371428Y-43052380D01*
X47228571Y-43004761D01*
X47133333Y-42909523D01*
X47085714Y-42814285D01*
X47038095Y-42623809D01*
X47038095Y-42480952D01*
X47085714Y-42290476D01*
X47133333Y-42195238D01*
X47228571Y-42100000D01*
X47371428Y-42052380D01*
X47466666Y-42052380D01*
X47609523Y-42100000D01*
X47657142Y-42147619D01*
X48609523Y-43052380D02*
X48038095Y-43052380D01*
X48323809Y-43052380D02*
X48323809Y-42052380D01*
X48228571Y-42195238D01*
X48133333Y-42290476D01*
X48038095Y-42338095D01*
X49228571Y-42052380D02*
X49323809Y-42052380D01*
X49419047Y-42100000D01*
X49466666Y-42147619D01*
X49514285Y-42242857D01*
X49561904Y-42433333D01*
X49561904Y-42671428D01*
X49514285Y-42861904D01*
X49466666Y-42957142D01*
X49419047Y-43004761D01*
X49323809Y-43052380D01*
X49228571Y-43052380D01*
X49133333Y-43004761D01*
X49085714Y-42957142D01*
X49038095Y-42861904D01*
X48990476Y-42671428D01*
X48990476Y-42433333D01*
X49038095Y-42242857D01*
X49085714Y-42147619D01*
X49133333Y-42100000D01*
X49228571Y-42052380D01*
X39902380Y-93342857D02*
X39426190Y-93676190D01*
X39902380Y-93914285D02*
X38902380Y-93914285D01*
X38902380Y-93533333D01*
X38950000Y-93438095D01*
X38997619Y-93390476D01*
X39092857Y-93342857D01*
X39235714Y-93342857D01*
X39330952Y-93390476D01*
X39378571Y-93438095D01*
X39426190Y-93533333D01*
X39426190Y-93914285D01*
X39902380Y-92390476D02*
X39902380Y-92961904D01*
X39902380Y-92676190D02*
X38902380Y-92676190D01*
X39045238Y-92771428D01*
X39140476Y-92866666D01*
X39188095Y-92961904D01*
X38902380Y-91771428D02*
X38902380Y-91676190D01*
X38950000Y-91580952D01*
X38997619Y-91533333D01*
X39092857Y-91485714D01*
X39283333Y-91438095D01*
X39521428Y-91438095D01*
X39711904Y-91485714D01*
X39807142Y-91533333D01*
X39854761Y-91580952D01*
X39902380Y-91676190D01*
X39902380Y-91771428D01*
X39854761Y-91866666D01*
X39807142Y-91914285D01*
X39711904Y-91961904D01*
X39521428Y-92009523D01*
X39283333Y-92009523D01*
X39092857Y-91961904D01*
X38997619Y-91914285D01*
X38950000Y-91866666D01*
X38902380Y-91771428D01*
X39657142Y-77666666D02*
X39704761Y-77714285D01*
X39752380Y-77857142D01*
X39752380Y-77952380D01*
X39704761Y-78095238D01*
X39609523Y-78190476D01*
X39514285Y-78238095D01*
X39323809Y-78285714D01*
X39180952Y-78285714D01*
X38990476Y-78238095D01*
X38895238Y-78190476D01*
X38800000Y-78095238D01*
X38752380Y-77952380D01*
X38752380Y-77857142D01*
X38800000Y-77714285D01*
X38847619Y-77666666D01*
X38752380Y-76809523D02*
X38752380Y-77000000D01*
X38800000Y-77095238D01*
X38847619Y-77142857D01*
X38990476Y-77238095D01*
X39180952Y-77285714D01*
X39561904Y-77285714D01*
X39657142Y-77238095D01*
X39704761Y-77190476D01*
X39752380Y-77095238D01*
X39752380Y-76904761D01*
X39704761Y-76809523D01*
X39657142Y-76761904D01*
X39561904Y-76714285D01*
X39323809Y-76714285D01*
X39228571Y-76761904D01*
X39180952Y-76809523D01*
X39133333Y-76904761D01*
X39133333Y-77095238D01*
X39180952Y-77190476D01*
X39228571Y-77238095D01*
X39323809Y-77285714D01*
X24271746Y-90154660D02*
X24271746Y-90868946D01*
X24224127Y-91011803D01*
X24128889Y-91107041D01*
X23986032Y-91154660D01*
X23890794Y-91154660D01*
X24700318Y-90249899D02*
X24747937Y-90202280D01*
X24843175Y-90154660D01*
X25081270Y-90154660D01*
X25176508Y-90202280D01*
X25224127Y-90249899D01*
X25271746Y-90345137D01*
X25271746Y-90440375D01*
X25224127Y-90583232D01*
X24652699Y-91154660D01*
X25271746Y-91154660D01*
X38307142Y-44216666D02*
X38354761Y-44264285D01*
X38402380Y-44407142D01*
X38402380Y-44502380D01*
X38354761Y-44645238D01*
X38259523Y-44740476D01*
X38164285Y-44788095D01*
X37973809Y-44835714D01*
X37830952Y-44835714D01*
X37640476Y-44788095D01*
X37545238Y-44740476D01*
X37450000Y-44645238D01*
X37402380Y-44502380D01*
X37402380Y-44407142D01*
X37450000Y-44264285D01*
X37497619Y-44216666D01*
X37402380Y-43883333D02*
X37402380Y-43264285D01*
X37783333Y-43597619D01*
X37783333Y-43454761D01*
X37830952Y-43359523D01*
X37878571Y-43311904D01*
X37973809Y-43264285D01*
X38211904Y-43264285D01*
X38307142Y-43311904D01*
X38354761Y-43359523D01*
X38402380Y-43454761D01*
X38402380Y-43740476D01*
X38354761Y-43835714D01*
X38307142Y-43883333D01*
X41833333Y-60657142D02*
X41785714Y-60704761D01*
X41642857Y-60752380D01*
X41547619Y-60752380D01*
X41404761Y-60704761D01*
X41309523Y-60609523D01*
X41261904Y-60514285D01*
X41214285Y-60323809D01*
X41214285Y-60180952D01*
X41261904Y-59990476D01*
X41309523Y-59895238D01*
X41404761Y-59800000D01*
X41547619Y-59752380D01*
X41642857Y-59752380D01*
X41785714Y-59800000D01*
X41833333Y-59847619D01*
X42690476Y-60085714D02*
X42690476Y-60752380D01*
X42452380Y-59704761D02*
X42214285Y-60419047D01*
X42833333Y-60419047D01*
X46133333Y-72957142D02*
X46085714Y-73004761D01*
X45942857Y-73052380D01*
X45847619Y-73052380D01*
X45704761Y-73004761D01*
X45609523Y-72909523D01*
X45561904Y-72814285D01*
X45514285Y-72623809D01*
X45514285Y-72480952D01*
X45561904Y-72290476D01*
X45609523Y-72195238D01*
X45704761Y-72100000D01*
X45847619Y-72052380D01*
X45942857Y-72052380D01*
X46085714Y-72100000D01*
X46133333Y-72147619D01*
X46609523Y-73052380D02*
X46800000Y-73052380D01*
X46895238Y-73004761D01*
X46942857Y-72957142D01*
X47038095Y-72814285D01*
X47085714Y-72623809D01*
X47085714Y-72242857D01*
X47038095Y-72147619D01*
X46990476Y-72100000D01*
X46895238Y-72052380D01*
X46704761Y-72052380D01*
X46609523Y-72100000D01*
X46561904Y-72147619D01*
X46514285Y-72242857D01*
X46514285Y-72480952D01*
X46561904Y-72576190D01*
X46609523Y-72623809D01*
X46704761Y-72671428D01*
X46895238Y-72671428D01*
X46990476Y-72623809D01*
X47038095Y-72576190D01*
X47085714Y-72480952D01*
X29433333Y-45102380D02*
X29100000Y-44626190D01*
X28861904Y-45102380D02*
X28861904Y-44102380D01*
X29242857Y-44102380D01*
X29338095Y-44150000D01*
X29385714Y-44197619D01*
X29433333Y-44292857D01*
X29433333Y-44435714D01*
X29385714Y-44530952D01*
X29338095Y-44578571D01*
X29242857Y-44626190D01*
X28861904Y-44626190D01*
X29814285Y-44197619D02*
X29861904Y-44150000D01*
X29957142Y-44102380D01*
X30195238Y-44102380D01*
X30290476Y-44150000D01*
X30338095Y-44197619D01*
X30385714Y-44292857D01*
X30385714Y-44388095D01*
X30338095Y-44530952D01*
X29766666Y-45102380D01*
X30385714Y-45102380D01*
X29433333Y-50302380D02*
X29100000Y-49826190D01*
X28861904Y-50302380D02*
X28861904Y-49302380D01*
X29242857Y-49302380D01*
X29338095Y-49350000D01*
X29385714Y-49397619D01*
X29433333Y-49492857D01*
X29433333Y-49635714D01*
X29385714Y-49730952D01*
X29338095Y-49778571D01*
X29242857Y-49826190D01*
X28861904Y-49826190D01*
X29766666Y-49302380D02*
X30385714Y-49302380D01*
X30052380Y-49683333D01*
X30195238Y-49683333D01*
X30290476Y-49730952D01*
X30338095Y-49778571D01*
X30385714Y-49873809D01*
X30385714Y-50111904D01*
X30338095Y-50207142D01*
X30290476Y-50254761D01*
X30195238Y-50302380D01*
X29909523Y-50302380D01*
X29814285Y-50254761D01*
X29766666Y-50207142D01*
X44238095Y-60852380D02*
X44238095Y-61661904D01*
X44285714Y-61757142D01*
X44333333Y-61804761D01*
X44428571Y-61852380D01*
X44619047Y-61852380D01*
X44714285Y-61804761D01*
X44761904Y-61757142D01*
X44809523Y-61661904D01*
X44809523Y-60852380D01*
X45809523Y-61852380D02*
X45238095Y-61852380D01*
X45523809Y-61852380D02*
X45523809Y-60852380D01*
X45428571Y-60995238D01*
X45333333Y-61090476D01*
X45238095Y-61138095D01*
M02*
