%TF.GenerationSoftware,KiCad,Pcbnew,9.0.1*%
%TF.CreationDate,2025-10-04T13:33:22+13:00*%
%TF.ProjectId,covers,636f7665-7273-42e6-9b69-6361645f7063,rev?*%
%TF.SameCoordinates,Original*%
%TF.FileFunction,Copper,L2,Bot*%
%TF.FilePolarity,Positive*%
%FSLAX46Y46*%
G04 Gerber Fmt 4.6, Leading zero omitted, Abs format (unit mm)*
G04 Created by KiCad (PCBNEW 9.0.1) date 2025-10-04 13:33:22*
%MOMM*%
%LPD*%
G01*
G04 APERTURE LIST*
%TA.AperFunction,ComponentPad*%
%ADD10C,4.700000*%
%TD*%
%TA.AperFunction,ViaPad*%
%ADD11C,10.000000*%
%TD*%
%TA.AperFunction,Conductor*%
%ADD12C,0.250000*%
%TD*%
G04 APERTURE END LIST*
D10*
%TO.P,H12,1*%
%TO.N,/GND4*%
X108800000Y-110050000D03*
%TD*%
%TO.P,H8,1*%
%TO.N,/GND4*%
X132150000Y-42050000D03*
%TD*%
%TO.P,H4,1*%
%TO.N,/GND4*%
X108800000Y-42050000D03*
%TD*%
%TO.P,H16,1*%
%TO.N,/GND4*%
X132200000Y-110050000D03*
%TD*%
D11*
%TO.N,/GND4*%
X121100000Y-61850000D03*
%TD*%
D12*
%TO.N,*%
X128000000Y-189600000D02*
X128000000Y-191700000D01*
%TD*%
%TA.AperFunction,Conductor*%
%TO.N,/GND4*%
G36*
X107761890Y-186171078D02*
G01*
X107928922Y-186338110D01*
X108041953Y-186417255D01*
X106966687Y-187492521D01*
X106966687Y-187492522D01*
X107090433Y-187596356D01*
X107368570Y-187779290D01*
X107666090Y-187928710D01*
X107978924Y-188042572D01*
X107978927Y-188042573D01*
X108302867Y-188119348D01*
X108302877Y-188119350D01*
X108555274Y-188148852D01*
X108620612Y-188176627D01*
X108660561Y-188235318D01*
X108662438Y-188306290D01*
X108625647Y-188367010D01*
X108561869Y-188398200D01*
X108540646Y-188400000D01*
X108177940Y-188400000D01*
X108155228Y-188397936D01*
X107911562Y-188353283D01*
X107904172Y-188351461D01*
X107626167Y-188264831D01*
X107619048Y-188262131D01*
X107559472Y-188235318D01*
X107429067Y-188176627D01*
X107353525Y-188142628D01*
X107346783Y-188139089D01*
X107097588Y-187988447D01*
X107091325Y-187984124D01*
X106862100Y-187804538D01*
X106856409Y-187799496D01*
X106650502Y-187593589D01*
X106645461Y-187587899D01*
X106465878Y-187358678D01*
X106461552Y-187352411D01*
X106444560Y-187324302D01*
X106426437Y-187255658D01*
X106448302Y-187188112D01*
X106503215Y-187143111D01*
X106561544Y-187133452D01*
X106604227Y-187136561D01*
X107682743Y-186058045D01*
X107761890Y-186171078D01*
G37*
%TD.AperFunction*%
%TA.AperFunction,Conductor*%
G36*
X131913970Y-114225098D02*
G01*
X131960556Y-114278673D01*
X131970781Y-114348929D01*
X131941401Y-114413561D01*
X131881741Y-114452048D01*
X131860662Y-114456362D01*
X131652876Y-114480650D01*
X131652867Y-114480651D01*
X131328927Y-114557426D01*
X131328924Y-114557427D01*
X131016090Y-114671289D01*
X130718570Y-114820709D01*
X130440433Y-115003643D01*
X130440432Y-115003644D01*
X130316687Y-115107476D01*
X130316687Y-115107477D01*
X131391954Y-116182744D01*
X131278922Y-116261890D01*
X131111890Y-116428922D01*
X131032743Y-116541953D01*
X129954226Y-115463436D01*
X129954225Y-115463436D01*
X129758139Y-115726829D01*
X129758123Y-115726853D01*
X129591671Y-116015155D01*
X129591668Y-116015160D01*
X129459809Y-116320847D01*
X129364325Y-116639783D01*
X129364325Y-116639784D01*
X129306515Y-116967645D01*
X129306514Y-116967654D01*
X129287157Y-117300000D01*
X129306514Y-117632345D01*
X129306515Y-117632354D01*
X129364325Y-117960215D01*
X129364325Y-117960216D01*
X129459809Y-118279152D01*
X129459808Y-118279152D01*
X129591668Y-118584839D01*
X129591671Y-118584844D01*
X129758123Y-118873146D01*
X129758133Y-118873162D01*
X129954226Y-119136562D01*
X131032743Y-118058045D01*
X131111890Y-118171078D01*
X131278922Y-118338110D01*
X131391953Y-118417255D01*
X130316687Y-119492522D01*
X130440433Y-119596356D01*
X130718570Y-119779290D01*
X131016090Y-119928710D01*
X131328924Y-120042572D01*
X131328927Y-120042573D01*
X131652867Y-120119348D01*
X131652877Y-120119350D01*
X131983537Y-120158000D01*
X132316463Y-120158000D01*
X132647122Y-120119350D01*
X132647132Y-120119348D01*
X132971072Y-120042573D01*
X132971075Y-120042572D01*
X133283909Y-119928710D01*
X133581429Y-119779290D01*
X133859567Y-119596355D01*
X133983311Y-119492521D01*
X132908045Y-118417255D01*
X133021078Y-118338110D01*
X133188110Y-118171078D01*
X133267256Y-118058046D01*
X134345772Y-119136562D01*
X134345773Y-119136562D01*
X134541866Y-118873162D01*
X134541876Y-118873146D01*
X134614881Y-118746699D01*
X134666263Y-118697706D01*
X134735977Y-118684270D01*
X134801888Y-118710656D01*
X134843070Y-118768488D01*
X134850000Y-118809699D01*
X134850000Y-183703697D01*
X134829998Y-183771818D01*
X134776342Y-183818311D01*
X134706068Y-183828415D01*
X134641488Y-183798921D01*
X134614881Y-183766698D01*
X134591872Y-183726846D01*
X134591866Y-183726837D01*
X134395772Y-183463436D01*
X133317255Y-184541953D01*
X133238110Y-184428922D01*
X133071078Y-184261890D01*
X132958044Y-184182743D01*
X134033311Y-183107476D01*
X133909566Y-183003643D01*
X133631429Y-182820709D01*
X133333909Y-182671289D01*
X133021075Y-182557427D01*
X133021072Y-182557426D01*
X132697132Y-182480651D01*
X132697122Y-182480649D01*
X132366463Y-182442000D01*
X132033537Y-182442000D01*
X131702877Y-182480649D01*
X131702867Y-182480651D01*
X131378927Y-182557426D01*
X131378924Y-182557427D01*
X131066090Y-182671289D01*
X130768570Y-182820709D01*
X130490433Y-183003643D01*
X130490432Y-183003644D01*
X130366687Y-183107476D01*
X130366687Y-183107477D01*
X131441954Y-184182744D01*
X131328922Y-184261890D01*
X131161890Y-184428922D01*
X131082744Y-184541953D01*
X130004226Y-183463436D01*
X130004225Y-183463436D01*
X129808139Y-183726829D01*
X129808123Y-183726853D01*
X129641671Y-184015155D01*
X129641668Y-184015160D01*
X129509809Y-184320847D01*
X129414325Y-184639783D01*
X129414325Y-184639784D01*
X129356515Y-184967645D01*
X129356514Y-184967654D01*
X129337157Y-185300000D01*
X129356514Y-185632345D01*
X129356515Y-185632354D01*
X129414325Y-185960215D01*
X129414325Y-185960216D01*
X129509809Y-186279152D01*
X129509808Y-186279152D01*
X129641668Y-186584839D01*
X129641671Y-186584844D01*
X129808123Y-186873146D01*
X129808133Y-186873162D01*
X130004226Y-187136562D01*
X131082743Y-186058045D01*
X131161890Y-186171078D01*
X131328922Y-186338110D01*
X131441953Y-186417255D01*
X130366687Y-187492521D01*
X130366687Y-187492522D01*
X130490433Y-187596356D01*
X130768570Y-187779290D01*
X131066090Y-187928710D01*
X131378924Y-188042572D01*
X131378927Y-188042573D01*
X131702867Y-188119348D01*
X131702877Y-188119350D01*
X131955274Y-188148852D01*
X132020612Y-188176627D01*
X132060561Y-188235318D01*
X132062438Y-188306290D01*
X132025647Y-188367010D01*
X131961869Y-188398200D01*
X131940646Y-188400000D01*
X109059354Y-188400000D01*
X108991233Y-188379998D01*
X108944740Y-188326342D01*
X108934636Y-188256068D01*
X108964130Y-188191488D01*
X109023856Y-188153104D01*
X109044726Y-188148852D01*
X109297122Y-188119350D01*
X109297132Y-188119348D01*
X109621072Y-188042573D01*
X109621075Y-188042572D01*
X109933909Y-187928710D01*
X110231429Y-187779290D01*
X110509567Y-187596355D01*
X110633311Y-187492521D01*
X109558046Y-186417255D01*
X109671078Y-186338110D01*
X109838110Y-186171078D01*
X109917256Y-186058046D01*
X110995772Y-187136562D01*
X110995773Y-187136562D01*
X111191866Y-186873162D01*
X111191876Y-186873146D01*
X111358328Y-186584844D01*
X111358331Y-186584839D01*
X111490190Y-186279152D01*
X111585674Y-185960216D01*
X111585674Y-185960215D01*
X111643484Y-185632354D01*
X111643485Y-185632345D01*
X111662842Y-185300000D01*
X111643485Y-184967654D01*
X111643484Y-184967645D01*
X111585674Y-184639784D01*
X111585674Y-184639783D01*
X111490190Y-184320847D01*
X111490191Y-184320847D01*
X111358331Y-184015160D01*
X111358328Y-184015155D01*
X111191876Y-183726853D01*
X111191866Y-183726837D01*
X110995772Y-183463436D01*
X109917255Y-184541952D01*
X109838110Y-184428922D01*
X109671078Y-184261890D01*
X109558044Y-184182743D01*
X110633311Y-183107476D01*
X110509566Y-183003643D01*
X110231429Y-182820709D01*
X109933909Y-182671289D01*
X109621075Y-182557427D01*
X109621072Y-182557426D01*
X109297132Y-182480651D01*
X109297122Y-182480649D01*
X108966463Y-182442000D01*
X108633537Y-182442000D01*
X108302877Y-182480649D01*
X108302867Y-182480651D01*
X107978927Y-182557426D01*
X107978924Y-182557427D01*
X107666090Y-182671289D01*
X107368570Y-182820709D01*
X107090433Y-183003643D01*
X107090432Y-183003644D01*
X106966687Y-183107476D01*
X106966687Y-183107477D01*
X108041954Y-184182744D01*
X107928922Y-184261890D01*
X107761890Y-184428922D01*
X107682744Y-184541953D01*
X106604226Y-183463436D01*
X106604225Y-183463436D01*
X106408139Y-183726829D01*
X106408127Y-183726846D01*
X106285118Y-183939903D01*
X106233735Y-183988896D01*
X106164021Y-184002331D01*
X106098110Y-183975944D01*
X106056929Y-183918112D01*
X106050000Y-183876907D01*
X106050000Y-159689720D01*
X114074500Y-159689720D01*
X114102582Y-159848980D01*
X114105661Y-159866439D01*
X114105661Y-159866440D01*
X114167027Y-160035043D01*
X114167033Y-160035054D01*
X114256748Y-160190446D01*
X114256750Y-160190448D01*
X114256751Y-160190449D01*
X114372092Y-160327908D01*
X114509551Y-160443249D01*
X114509553Y-160443251D01*
X114664945Y-160532966D01*
X114664956Y-160532972D01*
X114833560Y-160594338D01*
X114833562Y-160594338D01*
X114833567Y-160594340D01*
X115010280Y-160625500D01*
X115010282Y-160625500D01*
X126989718Y-160625500D01*
X126989720Y-160625500D01*
X127166433Y-160594340D01*
X127166438Y-160594338D01*
X127166439Y-160594338D01*
X127166440Y-160594338D01*
X127335043Y-160532972D01*
X127335045Y-160532970D01*
X127335050Y-160532969D01*
X127490449Y-160443249D01*
X127627908Y-160327908D01*
X127743249Y-160190449D01*
X127832969Y-160035050D01*
X127832972Y-160035043D01*
X127894338Y-159866440D01*
X127894338Y-159866439D01*
X127894338Y-159866438D01*
X127894340Y-159866433D01*
X127925500Y-159689720D01*
X127925500Y-159600000D01*
X127925500Y-159591715D01*
X127925500Y-146194928D01*
X127925500Y-146110280D01*
X127894340Y-145933567D01*
X127894338Y-145933562D01*
X127894338Y-145933560D01*
X127894338Y-145933559D01*
X127832972Y-145764956D01*
X127832966Y-145764945D01*
X127743251Y-145609553D01*
X127743249Y-145609551D01*
X127713085Y-145573603D01*
X127627908Y-145472092D01*
X127490449Y-145356751D01*
X127490448Y-145356750D01*
X127490446Y-145356748D01*
X127335054Y-145267033D01*
X127335043Y-145267027D01*
X127166439Y-145205661D01*
X127141484Y-145201260D01*
X126989720Y-145174500D01*
X126905072Y-145174500D01*
X115108285Y-145174500D01*
X115100000Y-145174500D01*
X115010280Y-145174500D01*
X114904106Y-145193221D01*
X114833560Y-145205661D01*
X114833559Y-145205661D01*
X114664956Y-145267027D01*
X114664945Y-145267033D01*
X114509553Y-145356748D01*
X114509551Y-145356750D01*
X114372092Y-145472092D01*
X114256750Y-145609551D01*
X114256748Y-145609553D01*
X114167033Y-145764945D01*
X114167027Y-145764956D01*
X114105661Y-145933559D01*
X114105661Y-145933560D01*
X114105660Y-145933567D01*
X114074500Y-146110280D01*
X114074500Y-146194928D01*
X114074500Y-159591714D01*
X114074500Y-159591715D01*
X114074500Y-159600000D01*
X114074500Y-159689720D01*
X106050000Y-159689720D01*
X106050000Y-118723093D01*
X106070001Y-118654976D01*
X106123657Y-118608483D01*
X106193931Y-118598379D01*
X106258511Y-118627873D01*
X106285118Y-118660097D01*
X106408123Y-118873146D01*
X106408133Y-118873162D01*
X106604226Y-119136562D01*
X107682743Y-118058045D01*
X107761890Y-118171078D01*
X107928922Y-118338110D01*
X108041953Y-118417255D01*
X106966687Y-119492521D01*
X106966687Y-119492522D01*
X107090433Y-119596356D01*
X107368570Y-119779290D01*
X107666090Y-119928710D01*
X107978924Y-120042572D01*
X107978927Y-120042573D01*
X108302867Y-120119348D01*
X108302877Y-120119350D01*
X108633537Y-120158000D01*
X108966463Y-120158000D01*
X109297122Y-120119350D01*
X109297132Y-120119348D01*
X109621072Y-120042573D01*
X109621075Y-120042572D01*
X109933909Y-119928710D01*
X110231429Y-119779290D01*
X110509567Y-119596355D01*
X110633311Y-119492521D01*
X109558046Y-118417255D01*
X109671078Y-118338110D01*
X109838110Y-118171078D01*
X109917256Y-118058046D01*
X110995772Y-119136562D01*
X110995773Y-119136562D01*
X111191866Y-118873162D01*
X111191876Y-118873146D01*
X111358328Y-118584844D01*
X111358331Y-118584839D01*
X111490190Y-118279152D01*
X111585674Y-117960216D01*
X111585674Y-117960215D01*
X111643484Y-117632354D01*
X111643485Y-117632345D01*
X111662842Y-117300000D01*
X111643485Y-116967654D01*
X111643484Y-116967645D01*
X111585674Y-116639784D01*
X111585674Y-116639783D01*
X111490190Y-116320847D01*
X111490191Y-116320847D01*
X111358331Y-116015160D01*
X111358328Y-116015155D01*
X111191876Y-115726853D01*
X111191866Y-115726837D01*
X110995772Y-115463436D01*
X109917255Y-116541952D01*
X109838110Y-116428922D01*
X109671078Y-116261890D01*
X109558044Y-116182743D01*
X110633311Y-115107476D01*
X110509566Y-115003643D01*
X110231429Y-114820709D01*
X109933909Y-114671289D01*
X109621075Y-114557427D01*
X109621076Y-114557427D01*
X109348498Y-114492825D01*
X109286827Y-114457652D01*
X109253961Y-114394721D01*
X109260336Y-114324011D01*
X109303927Y-114267972D01*
X109370895Y-114244397D01*
X109377280Y-114244222D01*
X131845817Y-114205215D01*
X131913970Y-114225098D01*
G37*
%TD.AperFunction*%
%TA.AperFunction,Conductor*%
G36*
X108281855Y-114266125D02*
G01*
X108328441Y-114319700D01*
X108338667Y-114389956D01*
X108309287Y-114454588D01*
X108249627Y-114493075D01*
X108242977Y-114494845D01*
X107978924Y-114557427D01*
X107666090Y-114671289D01*
X107368570Y-114820709D01*
X107090433Y-115003643D01*
X107090432Y-115003644D01*
X106966687Y-115107476D01*
X106966687Y-115107477D01*
X108041954Y-116182744D01*
X107928922Y-116261890D01*
X107761890Y-116428922D01*
X107682744Y-116541953D01*
X106604226Y-115463436D01*
X106561544Y-115466546D01*
X106492150Y-115451546D01*
X106441882Y-115401410D01*
X106426699Y-115332056D01*
X106444560Y-115275697D01*
X106461561Y-115247574D01*
X106465872Y-115241328D01*
X106645469Y-115012090D01*
X106650494Y-115006418D01*
X106856418Y-114800494D01*
X106862090Y-114795469D01*
X107091335Y-114615867D01*
X107097578Y-114611558D01*
X107314127Y-114480651D01*
X107346783Y-114460910D01*
X107353513Y-114457377D01*
X107619063Y-114337861D01*
X107626162Y-114335169D01*
X107891650Y-114252440D01*
X107928906Y-114246737D01*
X108213705Y-114246242D01*
X108281855Y-114266125D01*
G37*
%TD.AperFunction*%
%TD*%
%TA.AperFunction,Conductor*%
%TO.N,/GND4*%
G36*
X107761890Y-110921078D02*
G01*
X107928922Y-111088110D01*
X108041953Y-111167255D01*
X106966687Y-112242521D01*
X106966687Y-112242522D01*
X107090433Y-112346356D01*
X107368570Y-112529290D01*
X107666090Y-112678710D01*
X107978924Y-112792572D01*
X107978927Y-112792573D01*
X108302867Y-112869348D01*
X108302877Y-112869350D01*
X108555274Y-112898852D01*
X108620612Y-112926627D01*
X108660561Y-112985318D01*
X108662438Y-113056290D01*
X108625647Y-113117010D01*
X108561869Y-113148200D01*
X108540646Y-113150000D01*
X108177940Y-113150000D01*
X108155228Y-113147936D01*
X107911562Y-113103283D01*
X107904172Y-113101461D01*
X107626167Y-113014831D01*
X107619048Y-113012131D01*
X107559472Y-112985318D01*
X107429067Y-112926627D01*
X107353525Y-112892628D01*
X107346783Y-112889089D01*
X107097588Y-112738447D01*
X107091325Y-112734124D01*
X106862100Y-112554538D01*
X106856409Y-112549496D01*
X106650502Y-112343589D01*
X106645461Y-112337899D01*
X106465878Y-112108678D01*
X106461552Y-112102411D01*
X106444560Y-112074302D01*
X106426437Y-112005658D01*
X106448302Y-111938112D01*
X106503215Y-111893111D01*
X106561544Y-111883452D01*
X106604227Y-111886561D01*
X107682743Y-110808045D01*
X107761890Y-110921078D01*
G37*
%TD.AperFunction*%
%TA.AperFunction,Conductor*%
G36*
X131913970Y-38975098D02*
G01*
X131960556Y-39028673D01*
X131970781Y-39098929D01*
X131941401Y-39163561D01*
X131881741Y-39202048D01*
X131860662Y-39206362D01*
X131652876Y-39230650D01*
X131652867Y-39230651D01*
X131328927Y-39307426D01*
X131328924Y-39307427D01*
X131016090Y-39421289D01*
X130718570Y-39570709D01*
X130440433Y-39753643D01*
X130440432Y-39753644D01*
X130316687Y-39857476D01*
X130316687Y-39857477D01*
X131391954Y-40932744D01*
X131278922Y-41011890D01*
X131111890Y-41178922D01*
X131032743Y-41291953D01*
X129954226Y-40213436D01*
X129954225Y-40213436D01*
X129758139Y-40476829D01*
X129758123Y-40476853D01*
X129591671Y-40765155D01*
X129591668Y-40765160D01*
X129459809Y-41070847D01*
X129364325Y-41389783D01*
X129364325Y-41389784D01*
X129306515Y-41717645D01*
X129306514Y-41717654D01*
X129287157Y-42050000D01*
X129306514Y-42382345D01*
X129306515Y-42382354D01*
X129364325Y-42710215D01*
X129364325Y-42710216D01*
X129459809Y-43029152D01*
X129459808Y-43029152D01*
X129591668Y-43334839D01*
X129591671Y-43334844D01*
X129758123Y-43623146D01*
X129758133Y-43623162D01*
X129954226Y-43886562D01*
X131032743Y-42808045D01*
X131111890Y-42921078D01*
X131278922Y-43088110D01*
X131391953Y-43167255D01*
X130316687Y-44242521D01*
X130316687Y-44242522D01*
X130440433Y-44346356D01*
X130718570Y-44529290D01*
X131016090Y-44678710D01*
X131328924Y-44792572D01*
X131328927Y-44792573D01*
X131652867Y-44869348D01*
X131652877Y-44869350D01*
X131983537Y-44908000D01*
X132316463Y-44908000D01*
X132647122Y-44869350D01*
X132647132Y-44869348D01*
X132971072Y-44792573D01*
X132971075Y-44792572D01*
X133283909Y-44678710D01*
X133581429Y-44529290D01*
X133859567Y-44346355D01*
X133983311Y-44242521D01*
X132908046Y-43167255D01*
X133021078Y-43088110D01*
X133188110Y-42921078D01*
X133267256Y-42808046D01*
X134345772Y-43886562D01*
X134345773Y-43886562D01*
X134541866Y-43623162D01*
X134541876Y-43623146D01*
X134614881Y-43496699D01*
X134666263Y-43447706D01*
X134735977Y-43434270D01*
X134801888Y-43460656D01*
X134843070Y-43518488D01*
X134850000Y-43559699D01*
X134850000Y-108453697D01*
X134829998Y-108521818D01*
X134776342Y-108568311D01*
X134706068Y-108578415D01*
X134641488Y-108548921D01*
X134614881Y-108516698D01*
X134591872Y-108476846D01*
X134591866Y-108476837D01*
X134395772Y-108213436D01*
X133317255Y-109291953D01*
X133238110Y-109178922D01*
X133071078Y-109011890D01*
X132958044Y-108932743D01*
X134033311Y-107857476D01*
X133909566Y-107753643D01*
X133631429Y-107570709D01*
X133333909Y-107421289D01*
X133021075Y-107307427D01*
X133021072Y-107307426D01*
X132697132Y-107230651D01*
X132697122Y-107230649D01*
X132366463Y-107192000D01*
X132033537Y-107192000D01*
X131702877Y-107230649D01*
X131702867Y-107230651D01*
X131378927Y-107307426D01*
X131378924Y-107307427D01*
X131066090Y-107421289D01*
X130768570Y-107570709D01*
X130490433Y-107753643D01*
X130490432Y-107753644D01*
X130366687Y-107857476D01*
X130366687Y-107857477D01*
X131441954Y-108932744D01*
X131328922Y-109011890D01*
X131161890Y-109178922D01*
X131082744Y-109291953D01*
X130004226Y-108213436D01*
X130004225Y-108213436D01*
X129808139Y-108476829D01*
X129808123Y-108476853D01*
X129641671Y-108765155D01*
X129641668Y-108765160D01*
X129509809Y-109070847D01*
X129414325Y-109389783D01*
X129414325Y-109389784D01*
X129356515Y-109717645D01*
X129356514Y-109717654D01*
X129337157Y-110049999D01*
X129356514Y-110382345D01*
X129356515Y-110382354D01*
X129414325Y-110710215D01*
X129414325Y-110710216D01*
X129509809Y-111029152D01*
X129509808Y-111029152D01*
X129641668Y-111334839D01*
X129641671Y-111334844D01*
X129808123Y-111623146D01*
X129808133Y-111623162D01*
X130004226Y-111886562D01*
X131082743Y-110808045D01*
X131161890Y-110921078D01*
X131328922Y-111088110D01*
X131441953Y-111167255D01*
X130366687Y-112242521D01*
X130366687Y-112242522D01*
X130490433Y-112346356D01*
X130768570Y-112529290D01*
X131066090Y-112678710D01*
X131378924Y-112792572D01*
X131378927Y-112792573D01*
X131702867Y-112869348D01*
X131702877Y-112869350D01*
X131955274Y-112898852D01*
X132020612Y-112926627D01*
X132060561Y-112985318D01*
X132062438Y-113056290D01*
X132025647Y-113117010D01*
X131961869Y-113148200D01*
X131940646Y-113150000D01*
X109059354Y-113150000D01*
X108991233Y-113129998D01*
X108944740Y-113076342D01*
X108934636Y-113006068D01*
X108964130Y-112941488D01*
X109023856Y-112903104D01*
X109044726Y-112898852D01*
X109297122Y-112869350D01*
X109297132Y-112869348D01*
X109621072Y-112792573D01*
X109621075Y-112792572D01*
X109933909Y-112678710D01*
X110231429Y-112529290D01*
X110509567Y-112346355D01*
X110633311Y-112242521D01*
X109558046Y-111167255D01*
X109671078Y-111088110D01*
X109838110Y-110921078D01*
X109917256Y-110808046D01*
X110995772Y-111886562D01*
X110995773Y-111886562D01*
X111191866Y-111623162D01*
X111191876Y-111623146D01*
X111358328Y-111334844D01*
X111358331Y-111334839D01*
X111490190Y-111029152D01*
X111585674Y-110710216D01*
X111585674Y-110710215D01*
X111643484Y-110382354D01*
X111643485Y-110382345D01*
X111662842Y-110050000D01*
X111643485Y-109717654D01*
X111643484Y-109717645D01*
X111585674Y-109389784D01*
X111585674Y-109389783D01*
X111490190Y-109070847D01*
X111490191Y-109070847D01*
X111358331Y-108765160D01*
X111358328Y-108765155D01*
X111191876Y-108476853D01*
X111191866Y-108476837D01*
X110995772Y-108213436D01*
X109917255Y-109291952D01*
X109838110Y-109178922D01*
X109671078Y-109011890D01*
X109558044Y-108932743D01*
X110633311Y-107857476D01*
X110509566Y-107753643D01*
X110231429Y-107570709D01*
X109933909Y-107421289D01*
X109621075Y-107307427D01*
X109621072Y-107307426D01*
X109297132Y-107230651D01*
X109297122Y-107230649D01*
X108966463Y-107192000D01*
X108633537Y-107192000D01*
X108302877Y-107230649D01*
X108302867Y-107230651D01*
X107978927Y-107307426D01*
X107978924Y-107307427D01*
X107666090Y-107421289D01*
X107368570Y-107570709D01*
X107090433Y-107753643D01*
X107090432Y-107753644D01*
X106966687Y-107857476D01*
X106966687Y-107857477D01*
X108041954Y-108932744D01*
X107928922Y-109011890D01*
X107761890Y-109178922D01*
X107682743Y-109291953D01*
X106604226Y-108213436D01*
X106604225Y-108213436D01*
X106408139Y-108476829D01*
X106408127Y-108476846D01*
X106285118Y-108689903D01*
X106233735Y-108738896D01*
X106164021Y-108752331D01*
X106098110Y-108725944D01*
X106056929Y-108668112D01*
X106050000Y-108626907D01*
X106050000Y-84439720D01*
X114074500Y-84439720D01*
X114102582Y-84598980D01*
X114105661Y-84616439D01*
X114105661Y-84616440D01*
X114167027Y-84785043D01*
X114167033Y-84785054D01*
X114256748Y-84940446D01*
X114256750Y-84940448D01*
X114256751Y-84940449D01*
X114372092Y-85077908D01*
X114509550Y-85193249D01*
X114509551Y-85193249D01*
X114509553Y-85193251D01*
X114664945Y-85282966D01*
X114664956Y-85282972D01*
X114833560Y-85344338D01*
X114833562Y-85344338D01*
X114833567Y-85344340D01*
X115010280Y-85375500D01*
X115010282Y-85375500D01*
X126989718Y-85375500D01*
X126989720Y-85375500D01*
X127166433Y-85344340D01*
X127166438Y-85344338D01*
X127166439Y-85344338D01*
X127166440Y-85344338D01*
X127335043Y-85282972D01*
X127335045Y-85282970D01*
X127335050Y-85282969D01*
X127490449Y-85193249D01*
X127627908Y-85077908D01*
X127743249Y-84940449D01*
X127832969Y-84785050D01*
X127832972Y-84785043D01*
X127894338Y-84616440D01*
X127894338Y-84616439D01*
X127894338Y-84616438D01*
X127894340Y-84616433D01*
X127925500Y-84439720D01*
X127925500Y-84350000D01*
X127925500Y-84341715D01*
X127925500Y-70944928D01*
X127925500Y-70860280D01*
X127894340Y-70683567D01*
X127894338Y-70683562D01*
X127894338Y-70683560D01*
X127894338Y-70683559D01*
X127832972Y-70514956D01*
X127832966Y-70514945D01*
X127743251Y-70359553D01*
X127743249Y-70359551D01*
X127713085Y-70323603D01*
X127627908Y-70222092D01*
X127490449Y-70106751D01*
X127490448Y-70106750D01*
X127490446Y-70106748D01*
X127335054Y-70017033D01*
X127335043Y-70017027D01*
X127166439Y-69955661D01*
X127141484Y-69951260D01*
X126989720Y-69924500D01*
X126905072Y-69924500D01*
X115108285Y-69924500D01*
X115100000Y-69924500D01*
X115010280Y-69924500D01*
X114904106Y-69943221D01*
X114833560Y-69955661D01*
X114833559Y-69955661D01*
X114664956Y-70017027D01*
X114664945Y-70017033D01*
X114509553Y-70106748D01*
X114509551Y-70106750D01*
X114372092Y-70222092D01*
X114256750Y-70359551D01*
X114256748Y-70359553D01*
X114167033Y-70514945D01*
X114167027Y-70514956D01*
X114105661Y-70683559D01*
X114105661Y-70683560D01*
X114105660Y-70683567D01*
X114074500Y-70860280D01*
X114074500Y-70944928D01*
X114074500Y-84341715D01*
X114074500Y-84350000D01*
X114074500Y-84439720D01*
X106050000Y-84439720D01*
X106050000Y-43473093D01*
X106070001Y-43404976D01*
X106123657Y-43358483D01*
X106193931Y-43348379D01*
X106258511Y-43377873D01*
X106285118Y-43410097D01*
X106408123Y-43623146D01*
X106408133Y-43623162D01*
X106604226Y-43886562D01*
X107682743Y-42808045D01*
X107761890Y-42921078D01*
X107928922Y-43088110D01*
X108041953Y-43167255D01*
X106966687Y-44242521D01*
X106966687Y-44242522D01*
X107090433Y-44346356D01*
X107368570Y-44529290D01*
X107666090Y-44678710D01*
X107978924Y-44792572D01*
X107978927Y-44792573D01*
X108302867Y-44869348D01*
X108302877Y-44869350D01*
X108633537Y-44908000D01*
X108966463Y-44908000D01*
X109297122Y-44869350D01*
X109297132Y-44869348D01*
X109621072Y-44792573D01*
X109621075Y-44792572D01*
X109933909Y-44678710D01*
X110231429Y-44529290D01*
X110509567Y-44346355D01*
X110633311Y-44242521D01*
X109558046Y-43167255D01*
X109671078Y-43088110D01*
X109838110Y-42921078D01*
X109917256Y-42808046D01*
X110995772Y-43886562D01*
X110995773Y-43886562D01*
X111191866Y-43623162D01*
X111191876Y-43623146D01*
X111358328Y-43334844D01*
X111358331Y-43334839D01*
X111490190Y-43029152D01*
X111585674Y-42710216D01*
X111585674Y-42710215D01*
X111643484Y-42382354D01*
X111643485Y-42382345D01*
X111662842Y-42050000D01*
X111643485Y-41717654D01*
X111643484Y-41717645D01*
X111585674Y-41389784D01*
X111585674Y-41389783D01*
X111490190Y-41070847D01*
X111490191Y-41070847D01*
X111358331Y-40765160D01*
X111358328Y-40765155D01*
X111191876Y-40476853D01*
X111191866Y-40476837D01*
X110995772Y-40213436D01*
X109917255Y-41291952D01*
X109838110Y-41178922D01*
X109671078Y-41011890D01*
X109558044Y-40932743D01*
X110633311Y-39857476D01*
X110509566Y-39753643D01*
X110231429Y-39570709D01*
X109933909Y-39421289D01*
X109621075Y-39307427D01*
X109621076Y-39307427D01*
X109348498Y-39242825D01*
X109286827Y-39207652D01*
X109253961Y-39144721D01*
X109260336Y-39074011D01*
X109303927Y-39017972D01*
X109370895Y-38994397D01*
X109377280Y-38994222D01*
X131845817Y-38955215D01*
X131913970Y-38975098D01*
G37*
%TD.AperFunction*%
%TA.AperFunction,Conductor*%
G36*
X108281855Y-39016125D02*
G01*
X108328441Y-39069700D01*
X108338667Y-39139956D01*
X108309287Y-39204588D01*
X108249627Y-39243075D01*
X108242977Y-39244845D01*
X107978924Y-39307427D01*
X107666090Y-39421289D01*
X107368570Y-39570709D01*
X107090433Y-39753643D01*
X107090432Y-39753644D01*
X106966687Y-39857476D01*
X106966687Y-39857477D01*
X108041954Y-40932744D01*
X107928922Y-41011890D01*
X107761890Y-41178922D01*
X107682743Y-41291953D01*
X106604226Y-40213436D01*
X106561544Y-40216546D01*
X106492150Y-40201546D01*
X106441882Y-40151410D01*
X106426699Y-40082056D01*
X106444560Y-40025697D01*
X106461561Y-39997574D01*
X106465872Y-39991328D01*
X106645469Y-39762090D01*
X106650494Y-39756418D01*
X106856418Y-39550494D01*
X106862090Y-39545469D01*
X107091335Y-39365867D01*
X107097578Y-39361558D01*
X107314127Y-39230651D01*
X107346783Y-39210910D01*
X107353513Y-39207377D01*
X107619063Y-39087861D01*
X107626162Y-39085169D01*
X107891650Y-39002440D01*
X107928906Y-38996737D01*
X108213705Y-38996242D01*
X108281855Y-39016125D01*
G37*
%TD.AperFunction*%
%TD*%
M02*
