%TF.GenerationSoftware,KiCad,Pcbnew,8.0.7*%
%TF.CreationDate,2025-01-22T15:24:25+13:00*%
%TF.ProjectId,rgbntsc,7267626e-7473-4632-9e6b-696361645f70,rev?*%
%TF.SameCoordinates,Original*%
%TF.FileFunction,Paste,Top*%
%TF.FilePolarity,Positive*%
%FSLAX46Y46*%
G04 Gerber Fmt 4.6, Leading zero omitted, Abs format (unit mm)*
G04 Created by KiCad (PCBNEW 8.0.7) date 2025-01-22 15:24:25*
%MOMM*%
%LPD*%
G01*
G04 APERTURE LIST*
G04 Aperture macros list*
%AMRoundRect*
0 Rectangle with rounded corners*
0 $1 Rounding radius*
0 $2 $3 $4 $5 $6 $7 $8 $9 X,Y pos of 4 corners*
0 Add a 4 corners polygon primitive as box body*
4,1,4,$2,$3,$4,$5,$6,$7,$8,$9,$2,$3,0*
0 Add four circle primitives for the rounded corners*
1,1,$1+$1,$2,$3*
1,1,$1+$1,$4,$5*
1,1,$1+$1,$6,$7*
1,1,$1+$1,$8,$9*
0 Add four rect primitives between the rounded corners*
20,1,$1+$1,$2,$3,$4,$5,0*
20,1,$1+$1,$4,$5,$6,$7,0*
20,1,$1+$1,$6,$7,$8,$9,0*
20,1,$1+$1,$8,$9,$2,$3,0*%
G04 Aperture macros list end*
%ADD10RoundRect,0.250000X0.475000X-0.250000X0.475000X0.250000X-0.475000X0.250000X-0.475000X-0.250000X0*%
%ADD11RoundRect,0.250000X-0.475000X0.250000X-0.475000X-0.250000X0.475000X-0.250000X0.475000X0.250000X0*%
%ADD12RoundRect,0.249998X-0.450002X0.262502X-0.450002X-0.262502X0.450002X-0.262502X0.450002X0.262502X0*%
%ADD13RoundRect,0.250000X0.250000X0.475000X-0.250000X0.475000X-0.250000X-0.475000X0.250000X-0.475000X0*%
%ADD14RoundRect,0.249998X0.450002X-0.262502X0.450002X0.262502X-0.450002X0.262502X-0.450002X-0.262502X0*%
%ADD15RoundRect,0.249998X0.262502X0.450002X-0.262502X0.450002X-0.262502X-0.450002X0.262502X-0.450002X0*%
%ADD16RoundRect,0.150000X-0.825000X-0.150000X0.825000X-0.150000X0.825000X0.150000X-0.825000X0.150000X0*%
%ADD17R,1.200000X1.400000*%
%ADD18RoundRect,0.150000X0.150000X-0.837500X0.150000X0.837500X-0.150000X0.837500X-0.150000X-0.837500X0*%
%ADD19R,1.060000X0.650000*%
%ADD20RoundRect,0.250000X-0.550000X1.500000X-0.550000X-1.500000X0.550000X-1.500000X0.550000X1.500000X0*%
%ADD21RoundRect,0.249998X-0.262502X-0.450002X0.262502X-0.450002X0.262502X0.450002X-0.262502X0.450002X0*%
%ADD22RoundRect,0.250000X-1.500000X-0.550000X1.500000X-0.550000X1.500000X0.550000X-1.500000X0.550000X0*%
%ADD23RoundRect,0.250000X-0.250000X-0.475000X0.250000X-0.475000X0.250000X0.475000X-0.250000X0.475000X0*%
%ADD24RoundRect,0.243750X0.243750X0.456250X-0.243750X0.456250X-0.243750X-0.456250X0.243750X-0.456250X0*%
%ADD25RoundRect,0.100000X0.100000X-0.637500X0.100000X0.637500X-0.100000X0.637500X-0.100000X-0.637500X0*%
G04 APERTURE END LIST*
D10*
%TO.C,C5*%
X37800000Y-78450000D03*
X37800000Y-76550000D03*
%TD*%
D11*
%TO.C,C6*%
X37800000Y-80350000D03*
X37800000Y-82250000D03*
%TD*%
%TO.C,C7*%
X37800000Y-87950000D03*
X37800000Y-89850000D03*
%TD*%
D12*
%TO.C,R10*%
X37800000Y-91787500D03*
X37800000Y-93612500D03*
%TD*%
D13*
%TO.C,C4*%
X46150000Y-60500000D03*
X44250000Y-60500000D03*
%TD*%
%TO.C,C8*%
X56050000Y-87000000D03*
X54150000Y-87000000D03*
%TD*%
D11*
%TO.C,C1*%
X39500000Y-65350000D03*
X39500000Y-67250000D03*
%TD*%
D14*
%TO.C,R1*%
X39500000Y-63212500D03*
X39500000Y-61387500D03*
%TD*%
D15*
%TO.C,R2*%
X30512500Y-46200000D03*
X28687500Y-46200000D03*
%TD*%
%TO.C,R3*%
X30512500Y-48200000D03*
X28687500Y-48200000D03*
%TD*%
D16*
%TO.C,U1*%
X42525000Y-62995000D03*
X42525000Y-64265000D03*
X42525000Y-65535000D03*
X42525000Y-66805000D03*
X47475000Y-66805000D03*
X47475000Y-65535000D03*
X47475000Y-64265000D03*
X47475000Y-62995000D03*
%TD*%
D13*
%TO.C,C2*%
X45950000Y-68650000D03*
X44050000Y-68650000D03*
%TD*%
D15*
%TO.C,R4*%
X45912500Y-70700000D03*
X44087500Y-70700000D03*
%TD*%
D14*
%TO.C,R6*%
X37800000Y-74612500D03*
X37800000Y-72787500D03*
%TD*%
D12*
%TO.C,R7*%
X37800000Y-84187500D03*
X37800000Y-86012500D03*
%TD*%
%TO.C,R12*%
X46900000Y-72987500D03*
X46900000Y-74812500D03*
%TD*%
%TO.C,R13*%
X52700000Y-72987500D03*
X52700000Y-74812500D03*
%TD*%
%TO.C,R14*%
X54900000Y-72987500D03*
X54900000Y-74812500D03*
%TD*%
D17*
%TO.C,X1*%
X56980000Y-95250000D03*
X56980000Y-92710000D03*
X54780000Y-92710000D03*
X54780000Y-95250000D03*
%TD*%
D10*
%TO.C,C11*%
X48100000Y-99050000D03*
X48100000Y-97150000D03*
%TD*%
D18*
%TO.C,U5*%
X42015000Y-84562500D03*
X43285000Y-84562500D03*
X44555000Y-84562500D03*
X45825000Y-84562500D03*
X47095000Y-84562500D03*
X48365000Y-84562500D03*
X49635000Y-84562500D03*
X50905000Y-84562500D03*
X52175000Y-84562500D03*
X53445000Y-84562500D03*
X54715000Y-84562500D03*
X55985000Y-84562500D03*
X55985000Y-77637500D03*
X54715000Y-77637500D03*
X53445000Y-77637500D03*
X52175000Y-77637500D03*
X50905000Y-77637500D03*
X49635000Y-77637500D03*
X48365000Y-77637500D03*
X47095000Y-77637500D03*
X45825000Y-77637500D03*
X44555000Y-77637500D03*
X43285000Y-77637500D03*
X42015000Y-77637500D03*
%TD*%
D15*
%TO.C,R5*%
X34812500Y-56000000D03*
X32987500Y-56000000D03*
%TD*%
D19*
%TO.C,U2*%
X32800000Y-52050000D03*
X32800000Y-53000000D03*
X32800000Y-53950000D03*
X35000000Y-53950000D03*
X35000000Y-52050000D03*
%TD*%
%TO.C,U3*%
X36800000Y-52050000D03*
X36800000Y-53000000D03*
X36800000Y-53950000D03*
X39000000Y-53950000D03*
X39000000Y-52050000D03*
%TD*%
D20*
%TO.C,C14*%
X54000000Y-64200000D03*
X54000000Y-69800000D03*
%TD*%
D11*
%TO.C,C3*%
X35500000Y-43650000D03*
X35500000Y-45550000D03*
%TD*%
%TO.C,C10*%
X47000000Y-47700000D03*
X47000000Y-49600000D03*
%TD*%
D21*
%TO.C,R15*%
X48387500Y-91700000D03*
X50212500Y-91700000D03*
%TD*%
%TO.C,R16*%
X48387500Y-87700000D03*
X50212500Y-87700000D03*
%TD*%
%TO.C,R17*%
X48387500Y-89700000D03*
X50212500Y-89700000D03*
%TD*%
D11*
%TO.C,C15*%
X42400000Y-87650000D03*
X42400000Y-89550000D03*
%TD*%
%TO.C,C16*%
X44400000Y-87650000D03*
X44400000Y-89550000D03*
%TD*%
%TO.C,C17*%
X46400000Y-87650000D03*
X46400000Y-89550000D03*
%TD*%
D22*
%TO.C,C12*%
X59200000Y-51000000D03*
X64800000Y-51000000D03*
%TD*%
D12*
%TO.C,R18*%
X42400000Y-91087500D03*
X42400000Y-92912500D03*
%TD*%
%TO.C,R19*%
X44400000Y-91087500D03*
X44400000Y-92912500D03*
%TD*%
%TO.C,R20*%
X46400000Y-91087500D03*
X46400000Y-92912500D03*
%TD*%
D23*
%TO.C,FB1*%
X31050000Y-43500000D03*
X32950000Y-43500000D03*
%TD*%
D21*
%TO.C,R21*%
X52787500Y-89000000D03*
X54612500Y-89000000D03*
%TD*%
D24*
%TO.C,D1*%
X58937500Y-45000000D03*
X57062500Y-45000000D03*
%TD*%
D21*
%TO.C,R22*%
X52677500Y-45000000D03*
X54502500Y-45000000D03*
%TD*%
D20*
%TO.C,C9*%
X41200000Y-44200000D03*
X41200000Y-49600000D03*
%TD*%
D15*
%TO.C,R11*%
X50612500Y-74800000D03*
X48787500Y-74800000D03*
%TD*%
D22*
%TO.C,C13*%
X51200000Y-58200000D03*
X56800000Y-58200000D03*
%TD*%
D11*
%TO.C,FB2*%
X47000000Y-44150000D03*
X47000000Y-46050000D03*
%TD*%
D25*
%TO.C,U4*%
X42350000Y-101012500D03*
X43000000Y-101012500D03*
X43650000Y-101012500D03*
X44300000Y-101012500D03*
X44950000Y-101012500D03*
X45600000Y-101012500D03*
X46250000Y-101012500D03*
X46250000Y-95287500D03*
X45600000Y-95287500D03*
X44950000Y-95287500D03*
X44300000Y-95287500D03*
X43650000Y-95287500D03*
X43000000Y-95287500D03*
X42350000Y-95287500D03*
%TD*%
M02*
