%TF.GenerationSoftware,KiCad,Pcbnew,8.0.7*%
%TF.CreationDate,2025-01-22T15:24:25+13:00*%
%TF.ProjectId,rgbntsc,7267626e-7473-4632-9e6b-696361645f70,rev?*%
%TF.SameCoordinates,Original*%
%TF.FileFunction,Soldermask,Top*%
%TF.FilePolarity,Negative*%
%FSLAX46Y46*%
G04 Gerber Fmt 4.6, Leading zero omitted, Abs format (unit mm)*
G04 Created by KiCad (PCBNEW 8.0.7) date 2025-01-22 15:24:25*
%MOMM*%
%LPD*%
G01*
G04 APERTURE LIST*
G04 Aperture macros list*
%AMRoundRect*
0 Rectangle with rounded corners*
0 $1 Rounding radius*
0 $2 $3 $4 $5 $6 $7 $8 $9 X,Y pos of 4 corners*
0 Add a 4 corners polygon primitive as box body*
4,1,4,$2,$3,$4,$5,$6,$7,$8,$9,$2,$3,0*
0 Add four circle primitives for the rounded corners*
1,1,$1+$1,$2,$3*
1,1,$1+$1,$4,$5*
1,1,$1+$1,$6,$7*
1,1,$1+$1,$8,$9*
0 Add four rect primitives between the rounded corners*
20,1,$1+$1,$2,$3,$4,$5,0*
20,1,$1+$1,$4,$5,$6,$7,0*
20,1,$1+$1,$6,$7,$8,$9,0*
20,1,$1+$1,$8,$9,$2,$3,0*%
G04 Aperture macros list end*
%ADD10RoundRect,0.275500X0.500500X-0.275500X0.500500X0.275500X-0.500500X0.275500X-0.500500X-0.275500X0*%
%ADD11RoundRect,0.275500X-0.500500X0.275500X-0.500500X-0.275500X0.500500X-0.275500X0.500500X0.275500X0*%
%ADD12RoundRect,0.274876X-0.476124X0.288624X-0.476124X-0.288624X0.476124X-0.288624X0.476124X0.288624X0*%
%ADD13C,4.102000*%
%ADD14C,2.302000*%
%ADD15RoundRect,0.275500X0.275500X0.500500X-0.275500X0.500500X-0.275500X-0.500500X0.275500X-0.500500X0*%
%ADD16RoundRect,0.051000X0.600000X-0.350000X0.600000X0.350000X-0.600000X0.350000X-0.600000X-0.350000X0*%
%ADD17RoundRect,0.051000X0.600000X-0.380000X0.600000X0.380000X-0.600000X0.380000X-0.600000X-0.380000X0*%
%ADD18RoundRect,0.051000X0.600000X-0.400000X0.600000X0.400000X-0.600000X0.400000X-0.600000X-0.400000X0*%
%ADD19O,1.802000X1.202000*%
%ADD20RoundRect,0.274876X0.476124X-0.288624X0.476124X0.288624X-0.476124X0.288624X-0.476124X-0.288624X0*%
%ADD21RoundRect,0.274876X0.288624X0.476124X-0.288624X0.476124X-0.288624X-0.476124X0.288624X-0.476124X0*%
%ADD22RoundRect,0.175500X-0.850500X-0.175500X0.850500X-0.175500X0.850500X0.175500X-0.850500X0.175500X0*%
%ADD23C,1.702000*%
%ADD24C,4.602000*%
%ADD25O,3.102000X3.102000*%
%ADD26RoundRect,0.051000X0.704000X0.704000X-0.704000X0.704000X-0.704000X-0.704000X0.704000X-0.704000X0*%
%ADD27C,1.510000*%
%ADD28O,3.502000X1.802000*%
%ADD29O,1.802000X3.502000*%
%ADD30RoundRect,0.051000X0.600000X-0.700000X0.600000X0.700000X-0.600000X0.700000X-0.600000X-0.700000X0*%
%ADD31RoundRect,0.175500X0.175500X-0.863000X0.175500X0.863000X-0.175500X0.863000X-0.175500X-0.863000X0*%
%ADD32RoundRect,0.051000X-0.750000X0.500000X-0.750000X-0.500000X0.750000X-0.500000X0.750000X0.500000X0*%
%ADD33RoundRect,0.051000X-0.530000X-0.325000X0.530000X-0.325000X0.530000X0.325000X-0.530000X0.325000X0*%
%ADD34RoundRect,0.265938X-0.585062X1.535062X-0.585062X-1.535062X0.585062X-1.535062X0.585062X1.535062X0*%
%ADD35RoundRect,0.274876X-0.288624X-0.476124X0.288624X-0.476124X0.288624X0.476124X-0.288624X0.476124X0*%
%ADD36RoundRect,0.265938X-1.535062X-0.585062X1.535062X-0.585062X1.535062X0.585062X-1.535062X0.585062X0*%
%ADD37RoundRect,0.275500X-0.275500X-0.500500X0.275500X-0.500500X0.275500X0.500500X-0.275500X0.500500X0*%
%ADD38RoundRect,0.269250X0.269250X0.481750X-0.269250X0.481750X-0.269250X-0.481750X0.269250X-0.481750X0*%
%ADD39RoundRect,0.125500X0.125500X-0.663000X0.125500X0.663000X-0.125500X0.663000X-0.125500X-0.663000X0*%
G04 APERTURE END LIST*
D10*
%TO.C,C5*%
X37800000Y-78450000D03*
X37800000Y-76550000D03*
%TD*%
D11*
%TO.C,C6*%
X37800000Y-80350000D03*
X37800000Y-82250000D03*
%TD*%
%TO.C,C7*%
X37800000Y-87950000D03*
X37800000Y-89850000D03*
%TD*%
D12*
%TO.C,R10*%
X37800000Y-91787500D03*
X37800000Y-93612500D03*
%TD*%
D13*
%TO.C,J3*%
X27200000Y-55000000D03*
X27200000Y-107270000D03*
D14*
X34480000Y-99905000D03*
X29400000Y-98000000D03*
X34480000Y-96095000D03*
X29400000Y-94190000D03*
X34480000Y-92285000D03*
X29400000Y-90380000D03*
X34480000Y-88475000D03*
X29400000Y-86570000D03*
X34480000Y-84665000D03*
X29400000Y-82760000D03*
X34480000Y-80855000D03*
X29400000Y-78950000D03*
X34480000Y-77045000D03*
X29400000Y-75140000D03*
X34480000Y-73235000D03*
X29400000Y-71330000D03*
X34480000Y-69425000D03*
X29400000Y-67520000D03*
X34480000Y-65615000D03*
X29400000Y-63710000D03*
X34480000Y-61805000D03*
%TD*%
D15*
%TO.C,C4*%
X46150000Y-60500000D03*
X44250000Y-60500000D03*
%TD*%
%TO.C,C8*%
X56050000Y-87000000D03*
X54150000Y-87000000D03*
%TD*%
D11*
%TO.C,C1*%
X39500000Y-65350000D03*
X39500000Y-67250000D03*
%TD*%
D16*
%TO.C,J1*%
X24950000Y-47100000D03*
D17*
X24950000Y-49120000D03*
D18*
X24950000Y-50350000D03*
D16*
X24950000Y-48100000D03*
D17*
X24950000Y-46080000D03*
D18*
X24950000Y-44850000D03*
D19*
X21000000Y-51920000D03*
X24800000Y-51920000D03*
X21000000Y-43280000D03*
X24800000Y-43280000D03*
%TD*%
D20*
%TO.C,R1*%
X39500000Y-63212500D03*
X39500000Y-61387500D03*
%TD*%
D21*
%TO.C,R2*%
X30512500Y-46200000D03*
X28687500Y-46200000D03*
%TD*%
%TO.C,R3*%
X30512500Y-48200000D03*
X28687500Y-48200000D03*
%TD*%
D22*
%TO.C,U1*%
X42525000Y-62995000D03*
X42525000Y-64265000D03*
X42525000Y-65535000D03*
X42525000Y-66805000D03*
X47475000Y-66805000D03*
X47475000Y-65535000D03*
X47475000Y-64265000D03*
X47475000Y-62995000D03*
%TD*%
D23*
%TO.C,J2*%
X27140000Y-78440000D03*
X27140000Y-76150000D03*
X27140000Y-73860000D03*
X27140000Y-71570000D03*
X27140000Y-69280000D03*
X24600000Y-79580000D03*
X24600000Y-77290000D03*
X24600000Y-75000000D03*
X24600000Y-72710000D03*
D24*
X24600000Y-61620000D03*
D23*
X24600000Y-70420000D03*
D24*
X24600000Y-86620000D03*
D23*
X22060000Y-78440000D03*
X22060000Y-76150000D03*
X22060000Y-73860000D03*
X22060000Y-71570000D03*
X22060000Y-69280000D03*
%TD*%
D15*
%TO.C,C2*%
X45950000Y-68650000D03*
X44050000Y-68650000D03*
%TD*%
D21*
%TO.C,R4*%
X45912500Y-70700000D03*
X44087500Y-70700000D03*
%TD*%
D14*
%TO.C,JR1*%
X68850000Y-86350000D03*
X68850000Y-94850000D03*
D25*
X61200000Y-90600000D03*
X65700000Y-90600000D03*
%TD*%
D14*
%TO.C,JU1*%
X68850000Y-99370000D03*
X68850000Y-107870000D03*
D25*
X61200000Y-103620000D03*
X65700000Y-103620000D03*
%TD*%
D20*
%TO.C,R6*%
X37800000Y-74612500D03*
X37800000Y-72787500D03*
%TD*%
D12*
%TO.C,R7*%
X37800000Y-84187500D03*
X37800000Y-86012500D03*
%TD*%
D26*
%TO.C,J4*%
X63100000Y-73200000D03*
D27*
X63100000Y-80000000D03*
X60600000Y-73200000D03*
X60600000Y-80000000D03*
D28*
X66100000Y-69850000D03*
D29*
X66900000Y-76600000D03*
D28*
X66100000Y-83350000D03*
%TD*%
D14*
%TO.C,JR2*%
X69050000Y-56550000D03*
X69050000Y-65050000D03*
D25*
X61400000Y-60800000D03*
X65900000Y-60800000D03*
%TD*%
D12*
%TO.C,R12*%
X46900000Y-72987500D03*
X46900000Y-74812500D03*
%TD*%
%TO.C,R13*%
X52700000Y-72987500D03*
X52700000Y-74812500D03*
%TD*%
%TO.C,R14*%
X54900000Y-72987500D03*
X54900000Y-74812500D03*
%TD*%
D30*
%TO.C,X1*%
X56980000Y-95250000D03*
X56980000Y-92710000D03*
X54780000Y-92710000D03*
X54780000Y-95250000D03*
%TD*%
D10*
%TO.C,C11*%
X48100000Y-99050000D03*
X48100000Y-97150000D03*
%TD*%
D31*
%TO.C,U5*%
X42015000Y-84562500D03*
X43285000Y-84562500D03*
X44555000Y-84562500D03*
X45825000Y-84562500D03*
X47095000Y-84562500D03*
X48365000Y-84562500D03*
X49635000Y-84562500D03*
X50905000Y-84562500D03*
X52175000Y-84562500D03*
X53445000Y-84562500D03*
X54715000Y-84562500D03*
X55985000Y-84562500D03*
X55985000Y-77637500D03*
X54715000Y-77637500D03*
X53445000Y-77637500D03*
X52175000Y-77637500D03*
X50905000Y-77637500D03*
X49635000Y-77637500D03*
X48365000Y-77637500D03*
X47095000Y-77637500D03*
X45825000Y-77637500D03*
X44555000Y-77637500D03*
X43285000Y-77637500D03*
X42015000Y-77637500D03*
%TD*%
D32*
%TO.C,JP1*%
X44900000Y-54700000D03*
X44900000Y-56000000D03*
X44900000Y-57300000D03*
%TD*%
D21*
%TO.C,R5*%
X34812500Y-56000000D03*
X32987500Y-56000000D03*
%TD*%
D33*
%TO.C,U2*%
X32800000Y-52050000D03*
X32800000Y-53000000D03*
X32800000Y-53950000D03*
X35000000Y-53950000D03*
X35000000Y-52050000D03*
%TD*%
%TO.C,U3*%
X36800000Y-52050000D03*
X36800000Y-53000000D03*
X36800000Y-53950000D03*
X39000000Y-53950000D03*
X39000000Y-52050000D03*
%TD*%
D34*
%TO.C,C14*%
X54000000Y-64200000D03*
X54000000Y-69800000D03*
%TD*%
D11*
%TO.C,C3*%
X35500000Y-43650000D03*
X35500000Y-45550000D03*
%TD*%
%TO.C,C10*%
X47000000Y-47700000D03*
X47000000Y-49600000D03*
%TD*%
D35*
%TO.C,R15*%
X48387500Y-91700000D03*
X50212500Y-91700000D03*
%TD*%
%TO.C,R16*%
X48387500Y-87700000D03*
X50212500Y-87700000D03*
%TD*%
%TO.C,R17*%
X48387500Y-89700000D03*
X50212500Y-89700000D03*
%TD*%
D11*
%TO.C,C15*%
X42400000Y-87650000D03*
X42400000Y-89550000D03*
%TD*%
%TO.C,C16*%
X44400000Y-87650000D03*
X44400000Y-89550000D03*
%TD*%
%TO.C,C17*%
X46400000Y-87650000D03*
X46400000Y-89550000D03*
%TD*%
D36*
%TO.C,C12*%
X59200000Y-51000000D03*
X64800000Y-51000000D03*
%TD*%
D12*
%TO.C,R18*%
X42400000Y-91087500D03*
X42400000Y-92912500D03*
%TD*%
%TO.C,R19*%
X44400000Y-91087500D03*
X44400000Y-92912500D03*
%TD*%
%TO.C,R20*%
X46400000Y-91087500D03*
X46400000Y-92912500D03*
%TD*%
D37*
%TO.C,FB1*%
X31050000Y-43500000D03*
X32950000Y-43500000D03*
%TD*%
D35*
%TO.C,R21*%
X52787500Y-89000000D03*
X54612500Y-89000000D03*
%TD*%
D38*
%TO.C,D1*%
X58937500Y-45000000D03*
X57062500Y-45000000D03*
%TD*%
D35*
%TO.C,R22*%
X52677500Y-45000000D03*
X54502500Y-45000000D03*
%TD*%
D34*
%TO.C,C9*%
X41200000Y-44200000D03*
X41200000Y-49600000D03*
%TD*%
D21*
%TO.C,R11*%
X50612500Y-74800000D03*
X48787500Y-74800000D03*
%TD*%
D36*
%TO.C,C13*%
X51200000Y-58200000D03*
X56800000Y-58200000D03*
%TD*%
D11*
%TO.C,FB2*%
X47000000Y-44150000D03*
X47000000Y-46050000D03*
%TD*%
D39*
%TO.C,U4*%
X42350000Y-101012500D03*
X43000000Y-101012500D03*
X43650000Y-101012500D03*
X44300000Y-101012500D03*
X44950000Y-101012500D03*
X45600000Y-101012500D03*
X46250000Y-101012500D03*
X46250000Y-95287500D03*
X45600000Y-95287500D03*
X44950000Y-95287500D03*
X44300000Y-95287500D03*
X43650000Y-95287500D03*
X43000000Y-95287500D03*
X42350000Y-95287500D03*
%TD*%
M02*
