%TF.GenerationSoftware,KiCad,Pcbnew,8.0.7*%
%TF.CreationDate,2025-01-22T15:24:25+13:00*%
%TF.ProjectId,rgbntsc,7267626e-7473-4632-9e6b-696361645f70,rev?*%
%TF.SameCoordinates,Original*%
%TF.FileFunction,Legend,Top*%
%TF.FilePolarity,Positive*%
%FSLAX46Y46*%
G04 Gerber Fmt 4.6, Leading zero omitted, Abs format (unit mm)*
G04 Created by KiCad (PCBNEW 8.0.7) date 2025-01-22 15:24:25*
%MOMM*%
%LPD*%
G01*
G04 APERTURE LIST*
G04 Aperture macros list*
%AMRoundRect*
0 Rectangle with rounded corners*
0 $1 Rounding radius*
0 $2 $3 $4 $5 $6 $7 $8 $9 X,Y pos of 4 corners*
0 Add a 4 corners polygon primitive as box body*
4,1,4,$2,$3,$4,$5,$6,$7,$8,$9,$2,$3,0*
0 Add four circle primitives for the rounded corners*
1,1,$1+$1,$2,$3*
1,1,$1+$1,$4,$5*
1,1,$1+$1,$6,$7*
1,1,$1+$1,$8,$9*
0 Add four rect primitives between the rounded corners*
20,1,$1+$1,$2,$3,$4,$5,0*
20,1,$1+$1,$4,$5,$6,$7,0*
20,1,$1+$1,$6,$7,$8,$9,0*
20,1,$1+$1,$8,$9,$2,$3,0*%
G04 Aperture macros list end*
%ADD10C,0.200000*%
%ADD11C,0.150000*%
%ADD12C,0.050000*%
%ADD13C,0.120000*%
%ADD14C,0.010000*%
%ADD15C,0.127000*%
%ADD16C,0.400000*%
%ADD17C,2.200000*%
%ADD18C,1.600000*%
%ADD19C,4.500000*%
%ADD20RoundRect,0.275500X0.500500X-0.275500X0.500500X0.275500X-0.500500X0.275500X-0.500500X-0.275500X0*%
%ADD21RoundRect,0.275500X-0.500500X0.275500X-0.500500X-0.275500X0.500500X-0.275500X0.500500X0.275500X0*%
%ADD22RoundRect,0.274876X-0.476124X0.288624X-0.476124X-0.288624X0.476124X-0.288624X0.476124X0.288624X0*%
%ADD23C,4.102000*%
%ADD24C,2.302000*%
%ADD25RoundRect,0.275500X0.275500X0.500500X-0.275500X0.500500X-0.275500X-0.500500X0.275500X-0.500500X0*%
%ADD26RoundRect,0.051000X0.600000X-0.350000X0.600000X0.350000X-0.600000X0.350000X-0.600000X-0.350000X0*%
%ADD27RoundRect,0.051000X0.600000X-0.380000X0.600000X0.380000X-0.600000X0.380000X-0.600000X-0.380000X0*%
%ADD28RoundRect,0.051000X0.600000X-0.400000X0.600000X0.400000X-0.600000X0.400000X-0.600000X-0.400000X0*%
%ADD29O,1.802000X1.202000*%
%ADD30RoundRect,0.274876X0.476124X-0.288624X0.476124X0.288624X-0.476124X0.288624X-0.476124X-0.288624X0*%
%ADD31RoundRect,0.274876X0.288624X0.476124X-0.288624X0.476124X-0.288624X-0.476124X0.288624X-0.476124X0*%
%ADD32RoundRect,0.175500X-0.850500X-0.175500X0.850500X-0.175500X0.850500X0.175500X-0.850500X0.175500X0*%
%ADD33C,1.702000*%
%ADD34C,4.602000*%
%ADD35O,3.102000X3.102000*%
%ADD36RoundRect,0.051000X0.704000X0.704000X-0.704000X0.704000X-0.704000X-0.704000X0.704000X-0.704000X0*%
%ADD37C,1.510000*%
%ADD38O,3.502000X1.802000*%
%ADD39O,1.802000X3.502000*%
%ADD40RoundRect,0.051000X0.600000X-0.700000X0.600000X0.700000X-0.600000X0.700000X-0.600000X-0.700000X0*%
%ADD41RoundRect,0.175500X0.175500X-0.863000X0.175500X0.863000X-0.175500X0.863000X-0.175500X-0.863000X0*%
%ADD42RoundRect,0.051000X-0.750000X0.500000X-0.750000X-0.500000X0.750000X-0.500000X0.750000X0.500000X0*%
%ADD43RoundRect,0.051000X-0.530000X-0.325000X0.530000X-0.325000X0.530000X0.325000X-0.530000X0.325000X0*%
%ADD44RoundRect,0.265938X-0.585062X1.535062X-0.585062X-1.535062X0.585062X-1.535062X0.585062X1.535062X0*%
%ADD45RoundRect,0.274876X-0.288624X-0.476124X0.288624X-0.476124X0.288624X0.476124X-0.288624X0.476124X0*%
%ADD46RoundRect,0.265938X-1.535062X-0.585062X1.535062X-0.585062X1.535062X0.585062X-1.535062X0.585062X0*%
%ADD47RoundRect,0.275500X-0.275500X-0.500500X0.275500X-0.500500X0.275500X0.500500X-0.275500X0.500500X0*%
%ADD48RoundRect,0.269250X0.269250X0.481750X-0.269250X0.481750X-0.269250X-0.481750X0.269250X-0.481750X0*%
%ADD49RoundRect,0.125500X0.125500X-0.663000X0.125500X0.663000X-0.125500X0.663000X-0.125500X-0.663000X0*%
G04 APERTURE END LIST*
D10*
X47230327Y-103168612D02*
X46796994Y-102454326D01*
X46487470Y-103168612D02*
X46487470Y-101668612D01*
X46487470Y-101668612D02*
X46982708Y-101668612D01*
X46982708Y-101668612D02*
X47106518Y-101740041D01*
X47106518Y-101740041D02*
X47168423Y-101811469D01*
X47168423Y-101811469D02*
X47230327Y-101954326D01*
X47230327Y-101954326D02*
X47230327Y-102168612D01*
X47230327Y-102168612D02*
X47168423Y-102311469D01*
X47168423Y-102311469D02*
X47106518Y-102382898D01*
X47106518Y-102382898D02*
X46982708Y-102454326D01*
X46982708Y-102454326D02*
X46487470Y-102454326D01*
X48468423Y-101740041D02*
X48344613Y-101668612D01*
X48344613Y-101668612D02*
X48158899Y-101668612D01*
X48158899Y-101668612D02*
X47973185Y-101740041D01*
X47973185Y-101740041D02*
X47849375Y-101882898D01*
X47849375Y-101882898D02*
X47787470Y-102025755D01*
X47787470Y-102025755D02*
X47725566Y-102311469D01*
X47725566Y-102311469D02*
X47725566Y-102525755D01*
X47725566Y-102525755D02*
X47787470Y-102811469D01*
X47787470Y-102811469D02*
X47849375Y-102954326D01*
X47849375Y-102954326D02*
X47973185Y-103097184D01*
X47973185Y-103097184D02*
X48158899Y-103168612D01*
X48158899Y-103168612D02*
X48282708Y-103168612D01*
X48282708Y-103168612D02*
X48468423Y-103097184D01*
X48468423Y-103097184D02*
X48530327Y-103025755D01*
X48530327Y-103025755D02*
X48530327Y-102525755D01*
X48530327Y-102525755D02*
X48282708Y-102525755D01*
X49520804Y-102382898D02*
X49706518Y-102454326D01*
X49706518Y-102454326D02*
X49768423Y-102525755D01*
X49768423Y-102525755D02*
X49830327Y-102668612D01*
X49830327Y-102668612D02*
X49830327Y-102882898D01*
X49830327Y-102882898D02*
X49768423Y-103025755D01*
X49768423Y-103025755D02*
X49706518Y-103097184D01*
X49706518Y-103097184D02*
X49582708Y-103168612D01*
X49582708Y-103168612D02*
X49087470Y-103168612D01*
X49087470Y-103168612D02*
X49087470Y-101668612D01*
X49087470Y-101668612D02*
X49520804Y-101668612D01*
X49520804Y-101668612D02*
X49644613Y-101740041D01*
X49644613Y-101740041D02*
X49706518Y-101811469D01*
X49706518Y-101811469D02*
X49768423Y-101954326D01*
X49768423Y-101954326D02*
X49768423Y-102097184D01*
X49768423Y-102097184D02*
X49706518Y-102240041D01*
X49706518Y-102240041D02*
X49644613Y-102311469D01*
X49644613Y-102311469D02*
X49520804Y-102382898D01*
X49520804Y-102382898D02*
X49087470Y-102382898D01*
X51192232Y-102168612D02*
X51687470Y-102168612D01*
X51377946Y-101668612D02*
X51377946Y-102954326D01*
X51377946Y-102954326D02*
X51439851Y-103097184D01*
X51439851Y-103097184D02*
X51563661Y-103168612D01*
X51563661Y-103168612D02*
X51687470Y-103168612D01*
X52306518Y-103168612D02*
X52182708Y-103097184D01*
X52182708Y-103097184D02*
X52120803Y-103025755D01*
X52120803Y-103025755D02*
X52058899Y-102882898D01*
X52058899Y-102882898D02*
X52058899Y-102454326D01*
X52058899Y-102454326D02*
X52120803Y-102311469D01*
X52120803Y-102311469D02*
X52182708Y-102240041D01*
X52182708Y-102240041D02*
X52306518Y-102168612D01*
X52306518Y-102168612D02*
X52492232Y-102168612D01*
X52492232Y-102168612D02*
X52616041Y-102240041D01*
X52616041Y-102240041D02*
X52677946Y-102311469D01*
X52677946Y-102311469D02*
X52739851Y-102454326D01*
X52739851Y-102454326D02*
X52739851Y-102882898D01*
X52739851Y-102882898D02*
X52677946Y-103025755D01*
X52677946Y-103025755D02*
X52616041Y-103097184D01*
X52616041Y-103097184D02*
X52492232Y-103168612D01*
X52492232Y-103168612D02*
X52306518Y-103168612D01*
X54287469Y-103168612D02*
X54287469Y-101668612D01*
X54287469Y-101668612D02*
X55030326Y-103168612D01*
X55030326Y-103168612D02*
X55030326Y-101668612D01*
X55463660Y-101668612D02*
X56206517Y-101668612D01*
X55835089Y-103168612D02*
X55835089Y-101668612D01*
X56577946Y-103097184D02*
X56763660Y-103168612D01*
X56763660Y-103168612D02*
X57073184Y-103168612D01*
X57073184Y-103168612D02*
X57196993Y-103097184D01*
X57196993Y-103097184D02*
X57258898Y-103025755D01*
X57258898Y-103025755D02*
X57320803Y-102882898D01*
X57320803Y-102882898D02*
X57320803Y-102740041D01*
X57320803Y-102740041D02*
X57258898Y-102597184D01*
X57258898Y-102597184D02*
X57196993Y-102525755D01*
X57196993Y-102525755D02*
X57073184Y-102454326D01*
X57073184Y-102454326D02*
X56825565Y-102382898D01*
X56825565Y-102382898D02*
X56701755Y-102311469D01*
X56701755Y-102311469D02*
X56639850Y-102240041D01*
X56639850Y-102240041D02*
X56577946Y-102097184D01*
X56577946Y-102097184D02*
X56577946Y-101954326D01*
X56577946Y-101954326D02*
X56639850Y-101811469D01*
X56639850Y-101811469D02*
X56701755Y-101740041D01*
X56701755Y-101740041D02*
X56825565Y-101668612D01*
X56825565Y-101668612D02*
X57135088Y-101668612D01*
X57135088Y-101668612D02*
X57320803Y-101740041D01*
X58620802Y-103025755D02*
X58558898Y-103097184D01*
X58558898Y-103097184D02*
X58373183Y-103168612D01*
X58373183Y-103168612D02*
X58249374Y-103168612D01*
X58249374Y-103168612D02*
X58063660Y-103097184D01*
X58063660Y-103097184D02*
X57939850Y-102954326D01*
X57939850Y-102954326D02*
X57877945Y-102811469D01*
X57877945Y-102811469D02*
X57816041Y-102525755D01*
X57816041Y-102525755D02*
X57816041Y-102311469D01*
X57816041Y-102311469D02*
X57877945Y-102025755D01*
X57877945Y-102025755D02*
X57939850Y-101882898D01*
X57939850Y-101882898D02*
X58063660Y-101740041D01*
X58063660Y-101740041D02*
X58249374Y-101668612D01*
X58249374Y-101668612D02*
X58373183Y-101668612D01*
X58373183Y-101668612D02*
X58558898Y-101740041D01*
X58558898Y-101740041D02*
X58620802Y-101811469D01*
X38006519Y-104226385D02*
X38068423Y-104154957D01*
X38068423Y-104154957D02*
X38192233Y-104083528D01*
X38192233Y-104083528D02*
X38501757Y-104083528D01*
X38501757Y-104083528D02*
X38625566Y-104154957D01*
X38625566Y-104154957D02*
X38687471Y-104226385D01*
X38687471Y-104226385D02*
X38749376Y-104369242D01*
X38749376Y-104369242D02*
X38749376Y-104512100D01*
X38749376Y-104512100D02*
X38687471Y-104726385D01*
X38687471Y-104726385D02*
X37944614Y-105583528D01*
X37944614Y-105583528D02*
X38749376Y-105583528D01*
X39554137Y-104083528D02*
X39677947Y-104083528D01*
X39677947Y-104083528D02*
X39801756Y-104154957D01*
X39801756Y-104154957D02*
X39863661Y-104226385D01*
X39863661Y-104226385D02*
X39925566Y-104369242D01*
X39925566Y-104369242D02*
X39987471Y-104654957D01*
X39987471Y-104654957D02*
X39987471Y-105012100D01*
X39987471Y-105012100D02*
X39925566Y-105297814D01*
X39925566Y-105297814D02*
X39863661Y-105440671D01*
X39863661Y-105440671D02*
X39801756Y-105512100D01*
X39801756Y-105512100D02*
X39677947Y-105583528D01*
X39677947Y-105583528D02*
X39554137Y-105583528D01*
X39554137Y-105583528D02*
X39430328Y-105512100D01*
X39430328Y-105512100D02*
X39368423Y-105440671D01*
X39368423Y-105440671D02*
X39306518Y-105297814D01*
X39306518Y-105297814D02*
X39244614Y-105012100D01*
X39244614Y-105012100D02*
X39244614Y-104654957D01*
X39244614Y-104654957D02*
X39306518Y-104369242D01*
X39306518Y-104369242D02*
X39368423Y-104226385D01*
X39368423Y-104226385D02*
X39430328Y-104154957D01*
X39430328Y-104154957D02*
X39554137Y-104083528D01*
X40482709Y-104226385D02*
X40544613Y-104154957D01*
X40544613Y-104154957D02*
X40668423Y-104083528D01*
X40668423Y-104083528D02*
X40977947Y-104083528D01*
X40977947Y-104083528D02*
X41101756Y-104154957D01*
X41101756Y-104154957D02*
X41163661Y-104226385D01*
X41163661Y-104226385D02*
X41225566Y-104369242D01*
X41225566Y-104369242D02*
X41225566Y-104512100D01*
X41225566Y-104512100D02*
X41163661Y-104726385D01*
X41163661Y-104726385D02*
X40420804Y-105583528D01*
X40420804Y-105583528D02*
X41225566Y-105583528D01*
X42463661Y-105583528D02*
X41720804Y-105583528D01*
X42092232Y-105583528D02*
X42092232Y-104083528D01*
X42092232Y-104083528D02*
X41968423Y-104297814D01*
X41968423Y-104297814D02*
X41844613Y-104440671D01*
X41844613Y-104440671D02*
X41720804Y-104512100D01*
X43020803Y-105012100D02*
X44011280Y-105012100D01*
X44877946Y-104083528D02*
X45001756Y-104083528D01*
X45001756Y-104083528D02*
X45125565Y-104154957D01*
X45125565Y-104154957D02*
X45187470Y-104226385D01*
X45187470Y-104226385D02*
X45249375Y-104369242D01*
X45249375Y-104369242D02*
X45311280Y-104654957D01*
X45311280Y-104654957D02*
X45311280Y-105012100D01*
X45311280Y-105012100D02*
X45249375Y-105297814D01*
X45249375Y-105297814D02*
X45187470Y-105440671D01*
X45187470Y-105440671D02*
X45125565Y-105512100D01*
X45125565Y-105512100D02*
X45001756Y-105583528D01*
X45001756Y-105583528D02*
X44877946Y-105583528D01*
X44877946Y-105583528D02*
X44754137Y-105512100D01*
X44754137Y-105512100D02*
X44692232Y-105440671D01*
X44692232Y-105440671D02*
X44630327Y-105297814D01*
X44630327Y-105297814D02*
X44568423Y-105012100D01*
X44568423Y-105012100D02*
X44568423Y-104654957D01*
X44568423Y-104654957D02*
X44630327Y-104369242D01*
X44630327Y-104369242D02*
X44692232Y-104226385D01*
X44692232Y-104226385D02*
X44754137Y-104154957D01*
X44754137Y-104154957D02*
X44877946Y-104083528D01*
X46487470Y-104083528D02*
X45868422Y-104083528D01*
X45868422Y-104083528D02*
X45806518Y-104797814D01*
X45806518Y-104797814D02*
X45868422Y-104726385D01*
X45868422Y-104726385D02*
X45992232Y-104654957D01*
X45992232Y-104654957D02*
X46301756Y-104654957D01*
X46301756Y-104654957D02*
X46425565Y-104726385D01*
X46425565Y-104726385D02*
X46487470Y-104797814D01*
X46487470Y-104797814D02*
X46549375Y-104940671D01*
X46549375Y-104940671D02*
X46549375Y-105297814D01*
X46549375Y-105297814D02*
X46487470Y-105440671D01*
X46487470Y-105440671D02*
X46425565Y-105512100D01*
X46425565Y-105512100D02*
X46301756Y-105583528D01*
X46301756Y-105583528D02*
X45992232Y-105583528D01*
X45992232Y-105583528D02*
X45868422Y-105512100D01*
X45868422Y-105512100D02*
X45806518Y-105440671D01*
X47106517Y-105012100D02*
X48096994Y-105012100D01*
X48963660Y-104083528D02*
X49087470Y-104083528D01*
X49087470Y-104083528D02*
X49211279Y-104154957D01*
X49211279Y-104154957D02*
X49273184Y-104226385D01*
X49273184Y-104226385D02*
X49335089Y-104369242D01*
X49335089Y-104369242D02*
X49396994Y-104654957D01*
X49396994Y-104654957D02*
X49396994Y-105012100D01*
X49396994Y-105012100D02*
X49335089Y-105297814D01*
X49335089Y-105297814D02*
X49273184Y-105440671D01*
X49273184Y-105440671D02*
X49211279Y-105512100D01*
X49211279Y-105512100D02*
X49087470Y-105583528D01*
X49087470Y-105583528D02*
X48963660Y-105583528D01*
X48963660Y-105583528D02*
X48839851Y-105512100D01*
X48839851Y-105512100D02*
X48777946Y-105440671D01*
X48777946Y-105440671D02*
X48716041Y-105297814D01*
X48716041Y-105297814D02*
X48654137Y-105012100D01*
X48654137Y-105012100D02*
X48654137Y-104654957D01*
X48654137Y-104654957D02*
X48716041Y-104369242D01*
X48716041Y-104369242D02*
X48777946Y-104226385D01*
X48777946Y-104226385D02*
X48839851Y-104154957D01*
X48839851Y-104154957D02*
X48963660Y-104083528D01*
X50573184Y-104083528D02*
X49954136Y-104083528D01*
X49954136Y-104083528D02*
X49892232Y-104797814D01*
X49892232Y-104797814D02*
X49954136Y-104726385D01*
X49954136Y-104726385D02*
X50077946Y-104654957D01*
X50077946Y-104654957D02*
X50387470Y-104654957D01*
X50387470Y-104654957D02*
X50511279Y-104726385D01*
X50511279Y-104726385D02*
X50573184Y-104797814D01*
X50573184Y-104797814D02*
X50635089Y-104940671D01*
X50635089Y-104940671D02*
X50635089Y-105297814D01*
X50635089Y-105297814D02*
X50573184Y-105440671D01*
X50573184Y-105440671D02*
X50511279Y-105512100D01*
X50511279Y-105512100D02*
X50387470Y-105583528D01*
X50387470Y-105583528D02*
X50077946Y-105583528D01*
X50077946Y-105583528D02*
X49954136Y-105512100D01*
X49954136Y-105512100D02*
X49892232Y-105440671D01*
X52182707Y-105583528D02*
X52182707Y-104583528D01*
X52182707Y-104869242D02*
X52244612Y-104726385D01*
X52244612Y-104726385D02*
X52306517Y-104654957D01*
X52306517Y-104654957D02*
X52430326Y-104583528D01*
X52430326Y-104583528D02*
X52554136Y-104583528D01*
X53482707Y-105512100D02*
X53358898Y-105583528D01*
X53358898Y-105583528D02*
X53111279Y-105583528D01*
X53111279Y-105583528D02*
X52987469Y-105512100D01*
X52987469Y-105512100D02*
X52925565Y-105369242D01*
X52925565Y-105369242D02*
X52925565Y-104797814D01*
X52925565Y-104797814D02*
X52987469Y-104654957D01*
X52987469Y-104654957D02*
X53111279Y-104583528D01*
X53111279Y-104583528D02*
X53358898Y-104583528D01*
X53358898Y-104583528D02*
X53482707Y-104654957D01*
X53482707Y-104654957D02*
X53544612Y-104797814D01*
X53544612Y-104797814D02*
X53544612Y-104940671D01*
X53544612Y-104940671D02*
X52925565Y-105083528D01*
X53977946Y-104583528D02*
X54287470Y-105583528D01*
X54287470Y-105583528D02*
X54596993Y-104583528D01*
X55958898Y-104083528D02*
X56763660Y-104083528D01*
X56763660Y-104083528D02*
X56330326Y-104654957D01*
X56330326Y-104654957D02*
X56516041Y-104654957D01*
X56516041Y-104654957D02*
X56639850Y-104726385D01*
X56639850Y-104726385D02*
X56701755Y-104797814D01*
X56701755Y-104797814D02*
X56763660Y-104940671D01*
X56763660Y-104940671D02*
X56763660Y-105297814D01*
X56763660Y-105297814D02*
X56701755Y-105440671D01*
X56701755Y-105440671D02*
X56639850Y-105512100D01*
X56639850Y-105512100D02*
X56516041Y-105583528D01*
X56516041Y-105583528D02*
X56144612Y-105583528D01*
X56144612Y-105583528D02*
X56020803Y-105512100D01*
X56020803Y-105512100D02*
X55958898Y-105440671D01*
X57320802Y-105440671D02*
X57382707Y-105512100D01*
X57382707Y-105512100D02*
X57320802Y-105583528D01*
X57320802Y-105583528D02*
X57258898Y-105512100D01*
X57258898Y-105512100D02*
X57320802Y-105440671D01*
X57320802Y-105440671D02*
X57320802Y-105583528D01*
X57816041Y-104083528D02*
X58620803Y-104083528D01*
X58620803Y-104083528D02*
X58187469Y-104654957D01*
X58187469Y-104654957D02*
X58373184Y-104654957D01*
X58373184Y-104654957D02*
X58496993Y-104726385D01*
X58496993Y-104726385D02*
X58558898Y-104797814D01*
X58558898Y-104797814D02*
X58620803Y-104940671D01*
X58620803Y-104940671D02*
X58620803Y-105297814D01*
X58620803Y-105297814D02*
X58558898Y-105440671D01*
X58558898Y-105440671D02*
X58496993Y-105512100D01*
X58496993Y-105512100D02*
X58373184Y-105583528D01*
X58373184Y-105583528D02*
X58001755Y-105583528D01*
X58001755Y-105583528D02*
X57877946Y-105512100D01*
X57877946Y-105512100D02*
X57816041Y-105440671D01*
X42216043Y-106998444D02*
X42463662Y-107998444D01*
X42463662Y-107998444D02*
X42711281Y-107284158D01*
X42711281Y-107284158D02*
X42958900Y-107998444D01*
X42958900Y-107998444D02*
X43206519Y-106998444D01*
X44258900Y-107998444D02*
X44258900Y-107212730D01*
X44258900Y-107212730D02*
X44196995Y-107069873D01*
X44196995Y-107069873D02*
X44073186Y-106998444D01*
X44073186Y-106998444D02*
X43825567Y-106998444D01*
X43825567Y-106998444D02*
X43701757Y-107069873D01*
X44258900Y-107927016D02*
X44135091Y-107998444D01*
X44135091Y-107998444D02*
X43825567Y-107998444D01*
X43825567Y-107998444D02*
X43701757Y-107927016D01*
X43701757Y-107927016D02*
X43639853Y-107784158D01*
X43639853Y-107784158D02*
X43639853Y-107641301D01*
X43639853Y-107641301D02*
X43701757Y-107498444D01*
X43701757Y-107498444D02*
X43825567Y-107427016D01*
X43825567Y-107427016D02*
X44135091Y-107427016D01*
X44135091Y-107427016D02*
X44258900Y-107355587D01*
X44877947Y-107998444D02*
X44877947Y-106498444D01*
X45001757Y-107427016D02*
X45373185Y-107998444D01*
X45373185Y-106998444D02*
X44877947Y-107569873D01*
X46487471Y-107998444D02*
X46487471Y-107212730D01*
X46487471Y-107212730D02*
X46425566Y-107069873D01*
X46425566Y-107069873D02*
X46301757Y-106998444D01*
X46301757Y-106998444D02*
X46054138Y-106998444D01*
X46054138Y-106998444D02*
X45930328Y-107069873D01*
X46487471Y-107927016D02*
X46363662Y-107998444D01*
X46363662Y-107998444D02*
X46054138Y-107998444D01*
X46054138Y-107998444D02*
X45930328Y-107927016D01*
X45930328Y-107927016D02*
X45868424Y-107784158D01*
X45868424Y-107784158D02*
X45868424Y-107641301D01*
X45868424Y-107641301D02*
X45930328Y-107498444D01*
X45930328Y-107498444D02*
X46054138Y-107427016D01*
X46054138Y-107427016D02*
X46363662Y-107427016D01*
X46363662Y-107427016D02*
X46487471Y-107355587D01*
X47106518Y-107998444D02*
X47106518Y-106498444D01*
X47106518Y-107069873D02*
X47230328Y-106998444D01*
X47230328Y-106998444D02*
X47477947Y-106998444D01*
X47477947Y-106998444D02*
X47601756Y-107069873D01*
X47601756Y-107069873D02*
X47663661Y-107141301D01*
X47663661Y-107141301D02*
X47725566Y-107284158D01*
X47725566Y-107284158D02*
X47725566Y-107712730D01*
X47725566Y-107712730D02*
X47663661Y-107855587D01*
X47663661Y-107855587D02*
X47601756Y-107927016D01*
X47601756Y-107927016D02*
X47477947Y-107998444D01*
X47477947Y-107998444D02*
X47230328Y-107998444D01*
X47230328Y-107998444D02*
X47106518Y-107927016D01*
X48839851Y-107998444D02*
X48839851Y-107212730D01*
X48839851Y-107212730D02*
X48777946Y-107069873D01*
X48777946Y-107069873D02*
X48654137Y-106998444D01*
X48654137Y-106998444D02*
X48406518Y-106998444D01*
X48406518Y-106998444D02*
X48282708Y-107069873D01*
X48839851Y-107927016D02*
X48716042Y-107998444D01*
X48716042Y-107998444D02*
X48406518Y-107998444D01*
X48406518Y-107998444D02*
X48282708Y-107927016D01*
X48282708Y-107927016D02*
X48220804Y-107784158D01*
X48220804Y-107784158D02*
X48220804Y-107641301D01*
X48220804Y-107641301D02*
X48282708Y-107498444D01*
X48282708Y-107498444D02*
X48406518Y-107427016D01*
X48406518Y-107427016D02*
X48716042Y-107427016D01*
X48716042Y-107427016D02*
X48839851Y-107355587D01*
X49335089Y-106998444D02*
X49644613Y-107998444D01*
X49644613Y-107998444D02*
X49954136Y-106998444D01*
X50449374Y-107998444D02*
X50449374Y-106998444D01*
X50449374Y-106498444D02*
X50387470Y-106569873D01*
X50387470Y-106569873D02*
X50449374Y-106641301D01*
X50449374Y-106641301D02*
X50511279Y-106569873D01*
X50511279Y-106569873D02*
X50449374Y-106498444D01*
X50449374Y-106498444D02*
X50449374Y-106641301D01*
X51625565Y-107998444D02*
X51625565Y-106498444D01*
X51625565Y-107927016D02*
X51501756Y-107998444D01*
X51501756Y-107998444D02*
X51254137Y-107998444D01*
X51254137Y-107998444D02*
X51130327Y-107927016D01*
X51130327Y-107927016D02*
X51068422Y-107855587D01*
X51068422Y-107855587D02*
X51006518Y-107712730D01*
X51006518Y-107712730D02*
X51006518Y-107284158D01*
X51006518Y-107284158D02*
X51068422Y-107141301D01*
X51068422Y-107141301D02*
X51130327Y-107069873D01*
X51130327Y-107069873D02*
X51254137Y-106998444D01*
X51254137Y-106998444D02*
X51501756Y-106998444D01*
X51501756Y-106998444D02*
X51625565Y-107069873D01*
X52739850Y-107927016D02*
X52616041Y-107998444D01*
X52616041Y-107998444D02*
X52368422Y-107998444D01*
X52368422Y-107998444D02*
X52244612Y-107927016D01*
X52244612Y-107927016D02*
X52182708Y-107784158D01*
X52182708Y-107784158D02*
X52182708Y-107212730D01*
X52182708Y-107212730D02*
X52244612Y-107069873D01*
X52244612Y-107069873D02*
X52368422Y-106998444D01*
X52368422Y-106998444D02*
X52616041Y-106998444D01*
X52616041Y-106998444D02*
X52739850Y-107069873D01*
X52739850Y-107069873D02*
X52801755Y-107212730D01*
X52801755Y-107212730D02*
X52801755Y-107355587D01*
X52801755Y-107355587D02*
X52182708Y-107498444D01*
X53544613Y-107998444D02*
X53420803Y-107927016D01*
X53420803Y-107927016D02*
X53358898Y-107855587D01*
X53358898Y-107855587D02*
X53296994Y-107712730D01*
X53296994Y-107712730D02*
X53296994Y-107284158D01*
X53296994Y-107284158D02*
X53358898Y-107141301D01*
X53358898Y-107141301D02*
X53420803Y-107069873D01*
X53420803Y-107069873D02*
X53544613Y-106998444D01*
X53544613Y-106998444D02*
X53730327Y-106998444D01*
X53730327Y-106998444D02*
X53854136Y-107069873D01*
X53854136Y-107069873D02*
X53916041Y-107141301D01*
X53916041Y-107141301D02*
X53977946Y-107284158D01*
X53977946Y-107284158D02*
X53977946Y-107712730D01*
X53977946Y-107712730D02*
X53916041Y-107855587D01*
X53916041Y-107855587D02*
X53854136Y-107927016D01*
X53854136Y-107927016D02*
X53730327Y-107998444D01*
X53730327Y-107998444D02*
X53544613Y-107998444D01*
X54535088Y-107855587D02*
X54596993Y-107927016D01*
X54596993Y-107927016D02*
X54535088Y-107998444D01*
X54535088Y-107998444D02*
X54473184Y-107927016D01*
X54473184Y-107927016D02*
X54535088Y-107855587D01*
X54535088Y-107855587D02*
X54535088Y-107998444D01*
X55711279Y-107927016D02*
X55587470Y-107998444D01*
X55587470Y-107998444D02*
X55339851Y-107998444D01*
X55339851Y-107998444D02*
X55216041Y-107927016D01*
X55216041Y-107927016D02*
X55154136Y-107855587D01*
X55154136Y-107855587D02*
X55092232Y-107712730D01*
X55092232Y-107712730D02*
X55092232Y-107284158D01*
X55092232Y-107284158D02*
X55154136Y-107141301D01*
X55154136Y-107141301D02*
X55216041Y-107069873D01*
X55216041Y-107069873D02*
X55339851Y-106998444D01*
X55339851Y-106998444D02*
X55587470Y-106998444D01*
X55587470Y-106998444D02*
X55711279Y-107069873D01*
X56454137Y-107998444D02*
X56330327Y-107927016D01*
X56330327Y-107927016D02*
X56268422Y-107855587D01*
X56268422Y-107855587D02*
X56206518Y-107712730D01*
X56206518Y-107712730D02*
X56206518Y-107284158D01*
X56206518Y-107284158D02*
X56268422Y-107141301D01*
X56268422Y-107141301D02*
X56330327Y-107069873D01*
X56330327Y-107069873D02*
X56454137Y-106998444D01*
X56454137Y-106998444D02*
X56639851Y-106998444D01*
X56639851Y-106998444D02*
X56763660Y-107069873D01*
X56763660Y-107069873D02*
X56825565Y-107141301D01*
X56825565Y-107141301D02*
X56887470Y-107284158D01*
X56887470Y-107284158D02*
X56887470Y-107712730D01*
X56887470Y-107712730D02*
X56825565Y-107855587D01*
X56825565Y-107855587D02*
X56763660Y-107927016D01*
X56763660Y-107927016D02*
X56639851Y-107998444D01*
X56639851Y-107998444D02*
X56454137Y-107998444D01*
X57444612Y-107998444D02*
X57444612Y-106998444D01*
X57444612Y-107141301D02*
X57506517Y-107069873D01*
X57506517Y-107069873D02*
X57630327Y-106998444D01*
X57630327Y-106998444D02*
X57816041Y-106998444D01*
X57816041Y-106998444D02*
X57939850Y-107069873D01*
X57939850Y-107069873D02*
X58001755Y-107212730D01*
X58001755Y-107212730D02*
X58001755Y-107998444D01*
X58001755Y-107212730D02*
X58063660Y-107069873D01*
X58063660Y-107069873D02*
X58187469Y-106998444D01*
X58187469Y-106998444D02*
X58373184Y-106998444D01*
X58373184Y-106998444D02*
X58496993Y-107069873D01*
X58496993Y-107069873D02*
X58558898Y-107212730D01*
X58558898Y-107212730D02*
X58558898Y-107998444D01*
D11*
X39759580Y-77666666D02*
X39807200Y-77714285D01*
X39807200Y-77714285D02*
X39854819Y-77857142D01*
X39854819Y-77857142D02*
X39854819Y-77952380D01*
X39854819Y-77952380D02*
X39807200Y-78095237D01*
X39807200Y-78095237D02*
X39711961Y-78190475D01*
X39711961Y-78190475D02*
X39616723Y-78238094D01*
X39616723Y-78238094D02*
X39426247Y-78285713D01*
X39426247Y-78285713D02*
X39283390Y-78285713D01*
X39283390Y-78285713D02*
X39092914Y-78238094D01*
X39092914Y-78238094D02*
X38997676Y-78190475D01*
X38997676Y-78190475D02*
X38902438Y-78095237D01*
X38902438Y-78095237D02*
X38854819Y-77952380D01*
X38854819Y-77952380D02*
X38854819Y-77857142D01*
X38854819Y-77857142D02*
X38902438Y-77714285D01*
X38902438Y-77714285D02*
X38950057Y-77666666D01*
X38854819Y-76761904D02*
X38854819Y-77238094D01*
X38854819Y-77238094D02*
X39331009Y-77285713D01*
X39331009Y-77285713D02*
X39283390Y-77238094D01*
X39283390Y-77238094D02*
X39235771Y-77142856D01*
X39235771Y-77142856D02*
X39235771Y-76904761D01*
X39235771Y-76904761D02*
X39283390Y-76809523D01*
X39283390Y-76809523D02*
X39331009Y-76761904D01*
X39331009Y-76761904D02*
X39426247Y-76714285D01*
X39426247Y-76714285D02*
X39664342Y-76714285D01*
X39664342Y-76714285D02*
X39759580Y-76761904D01*
X39759580Y-76761904D02*
X39807200Y-76809523D01*
X39807200Y-76809523D02*
X39854819Y-76904761D01*
X39854819Y-76904761D02*
X39854819Y-77142856D01*
X39854819Y-77142856D02*
X39807200Y-77238094D01*
X39807200Y-77238094D02*
X39759580Y-77285713D01*
X39839580Y-81466666D02*
X39887200Y-81514285D01*
X39887200Y-81514285D02*
X39934819Y-81657142D01*
X39934819Y-81657142D02*
X39934819Y-81752380D01*
X39934819Y-81752380D02*
X39887200Y-81895237D01*
X39887200Y-81895237D02*
X39791961Y-81990475D01*
X39791961Y-81990475D02*
X39696723Y-82038094D01*
X39696723Y-82038094D02*
X39506247Y-82085713D01*
X39506247Y-82085713D02*
X39363390Y-82085713D01*
X39363390Y-82085713D02*
X39172914Y-82038094D01*
X39172914Y-82038094D02*
X39077676Y-81990475D01*
X39077676Y-81990475D02*
X38982438Y-81895237D01*
X38982438Y-81895237D02*
X38934819Y-81752380D01*
X38934819Y-81752380D02*
X38934819Y-81657142D01*
X38934819Y-81657142D02*
X38982438Y-81514285D01*
X38982438Y-81514285D02*
X39030057Y-81466666D01*
X38934819Y-80609523D02*
X38934819Y-80799999D01*
X38934819Y-80799999D02*
X38982438Y-80895237D01*
X38982438Y-80895237D02*
X39030057Y-80942856D01*
X39030057Y-80942856D02*
X39172914Y-81038094D01*
X39172914Y-81038094D02*
X39363390Y-81085713D01*
X39363390Y-81085713D02*
X39744342Y-81085713D01*
X39744342Y-81085713D02*
X39839580Y-81038094D01*
X39839580Y-81038094D02*
X39887200Y-80990475D01*
X39887200Y-80990475D02*
X39934819Y-80895237D01*
X39934819Y-80895237D02*
X39934819Y-80704761D01*
X39934819Y-80704761D02*
X39887200Y-80609523D01*
X39887200Y-80609523D02*
X39839580Y-80561904D01*
X39839580Y-80561904D02*
X39744342Y-80514285D01*
X39744342Y-80514285D02*
X39506247Y-80514285D01*
X39506247Y-80514285D02*
X39411009Y-80561904D01*
X39411009Y-80561904D02*
X39363390Y-80609523D01*
X39363390Y-80609523D02*
X39315771Y-80704761D01*
X39315771Y-80704761D02*
X39315771Y-80895237D01*
X39315771Y-80895237D02*
X39363390Y-80990475D01*
X39363390Y-80990475D02*
X39411009Y-81038094D01*
X39411009Y-81038094D02*
X39506247Y-81085713D01*
X39839580Y-89066666D02*
X39887200Y-89114285D01*
X39887200Y-89114285D02*
X39934819Y-89257142D01*
X39934819Y-89257142D02*
X39934819Y-89352380D01*
X39934819Y-89352380D02*
X39887200Y-89495237D01*
X39887200Y-89495237D02*
X39791961Y-89590475D01*
X39791961Y-89590475D02*
X39696723Y-89638094D01*
X39696723Y-89638094D02*
X39506247Y-89685713D01*
X39506247Y-89685713D02*
X39363390Y-89685713D01*
X39363390Y-89685713D02*
X39172914Y-89638094D01*
X39172914Y-89638094D02*
X39077676Y-89590475D01*
X39077676Y-89590475D02*
X38982438Y-89495237D01*
X38982438Y-89495237D02*
X38934819Y-89352380D01*
X38934819Y-89352380D02*
X38934819Y-89257142D01*
X38934819Y-89257142D02*
X38982438Y-89114285D01*
X38982438Y-89114285D02*
X39030057Y-89066666D01*
X38934819Y-88733332D02*
X38934819Y-88066666D01*
X38934819Y-88066666D02*
X39934819Y-88495237D01*
X39904819Y-93342857D02*
X39428628Y-93676190D01*
X39904819Y-93914285D02*
X38904819Y-93914285D01*
X38904819Y-93914285D02*
X38904819Y-93533333D01*
X38904819Y-93533333D02*
X38952438Y-93438095D01*
X38952438Y-93438095D02*
X39000057Y-93390476D01*
X39000057Y-93390476D02*
X39095295Y-93342857D01*
X39095295Y-93342857D02*
X39238152Y-93342857D01*
X39238152Y-93342857D02*
X39333390Y-93390476D01*
X39333390Y-93390476D02*
X39381009Y-93438095D01*
X39381009Y-93438095D02*
X39428628Y-93533333D01*
X39428628Y-93533333D02*
X39428628Y-93914285D01*
X39904819Y-92390476D02*
X39904819Y-92961904D01*
X39904819Y-92676190D02*
X38904819Y-92676190D01*
X38904819Y-92676190D02*
X39047676Y-92771428D01*
X39047676Y-92771428D02*
X39142914Y-92866666D01*
X39142914Y-92866666D02*
X39190533Y-92961904D01*
X38904819Y-91771428D02*
X38904819Y-91676190D01*
X38904819Y-91676190D02*
X38952438Y-91580952D01*
X38952438Y-91580952D02*
X39000057Y-91533333D01*
X39000057Y-91533333D02*
X39095295Y-91485714D01*
X39095295Y-91485714D02*
X39285771Y-91438095D01*
X39285771Y-91438095D02*
X39523866Y-91438095D01*
X39523866Y-91438095D02*
X39714342Y-91485714D01*
X39714342Y-91485714D02*
X39809580Y-91533333D01*
X39809580Y-91533333D02*
X39857200Y-91580952D01*
X39857200Y-91580952D02*
X39904819Y-91676190D01*
X39904819Y-91676190D02*
X39904819Y-91771428D01*
X39904819Y-91771428D02*
X39857200Y-91866666D01*
X39857200Y-91866666D02*
X39809580Y-91914285D01*
X39809580Y-91914285D02*
X39714342Y-91961904D01*
X39714342Y-91961904D02*
X39523866Y-92009523D01*
X39523866Y-92009523D02*
X39285771Y-92009523D01*
X39285771Y-92009523D02*
X39095295Y-91961904D01*
X39095295Y-91961904D02*
X39000057Y-91914285D01*
X39000057Y-91914285D02*
X38952438Y-91866666D01*
X38952438Y-91866666D02*
X38904819Y-91771428D01*
X24254819Y-98383333D02*
X24969104Y-98383333D01*
X24969104Y-98383333D02*
X25111961Y-98430952D01*
X25111961Y-98430952D02*
X25207200Y-98526190D01*
X25207200Y-98526190D02*
X25254819Y-98669047D01*
X25254819Y-98669047D02*
X25254819Y-98764285D01*
X24254819Y-98002380D02*
X24254819Y-97383333D01*
X24254819Y-97383333D02*
X24635771Y-97716666D01*
X24635771Y-97716666D02*
X24635771Y-97573809D01*
X24635771Y-97573809D02*
X24683390Y-97478571D01*
X24683390Y-97478571D02*
X24731009Y-97430952D01*
X24731009Y-97430952D02*
X24826247Y-97383333D01*
X24826247Y-97383333D02*
X25064342Y-97383333D01*
X25064342Y-97383333D02*
X25159580Y-97430952D01*
X25159580Y-97430952D02*
X25207200Y-97478571D01*
X25207200Y-97478571D02*
X25254819Y-97573809D01*
X25254819Y-97573809D02*
X25254819Y-97859523D01*
X25254819Y-97859523D02*
X25207200Y-97954761D01*
X25207200Y-97954761D02*
X25159580Y-98002380D01*
X44833333Y-59359580D02*
X44785714Y-59407200D01*
X44785714Y-59407200D02*
X44642857Y-59454819D01*
X44642857Y-59454819D02*
X44547619Y-59454819D01*
X44547619Y-59454819D02*
X44404762Y-59407200D01*
X44404762Y-59407200D02*
X44309524Y-59311961D01*
X44309524Y-59311961D02*
X44261905Y-59216723D01*
X44261905Y-59216723D02*
X44214286Y-59026247D01*
X44214286Y-59026247D02*
X44214286Y-58883390D01*
X44214286Y-58883390D02*
X44261905Y-58692914D01*
X44261905Y-58692914D02*
X44309524Y-58597676D01*
X44309524Y-58597676D02*
X44404762Y-58502438D01*
X44404762Y-58502438D02*
X44547619Y-58454819D01*
X44547619Y-58454819D02*
X44642857Y-58454819D01*
X44642857Y-58454819D02*
X44785714Y-58502438D01*
X44785714Y-58502438D02*
X44833333Y-58550057D01*
X45690476Y-58788152D02*
X45690476Y-59454819D01*
X45452381Y-58407200D02*
X45214286Y-59121485D01*
X45214286Y-59121485D02*
X45833333Y-59121485D01*
X55833333Y-89059580D02*
X55785714Y-89107200D01*
X55785714Y-89107200D02*
X55642857Y-89154819D01*
X55642857Y-89154819D02*
X55547619Y-89154819D01*
X55547619Y-89154819D02*
X55404762Y-89107200D01*
X55404762Y-89107200D02*
X55309524Y-89011961D01*
X55309524Y-89011961D02*
X55261905Y-88916723D01*
X55261905Y-88916723D02*
X55214286Y-88726247D01*
X55214286Y-88726247D02*
X55214286Y-88583390D01*
X55214286Y-88583390D02*
X55261905Y-88392914D01*
X55261905Y-88392914D02*
X55309524Y-88297676D01*
X55309524Y-88297676D02*
X55404762Y-88202438D01*
X55404762Y-88202438D02*
X55547619Y-88154819D01*
X55547619Y-88154819D02*
X55642857Y-88154819D01*
X55642857Y-88154819D02*
X55785714Y-88202438D01*
X55785714Y-88202438D02*
X55833333Y-88250057D01*
X56404762Y-88583390D02*
X56309524Y-88535771D01*
X56309524Y-88535771D02*
X56261905Y-88488152D01*
X56261905Y-88488152D02*
X56214286Y-88392914D01*
X56214286Y-88392914D02*
X56214286Y-88345295D01*
X56214286Y-88345295D02*
X56261905Y-88250057D01*
X56261905Y-88250057D02*
X56309524Y-88202438D01*
X56309524Y-88202438D02*
X56404762Y-88154819D01*
X56404762Y-88154819D02*
X56595238Y-88154819D01*
X56595238Y-88154819D02*
X56690476Y-88202438D01*
X56690476Y-88202438D02*
X56738095Y-88250057D01*
X56738095Y-88250057D02*
X56785714Y-88345295D01*
X56785714Y-88345295D02*
X56785714Y-88392914D01*
X56785714Y-88392914D02*
X56738095Y-88488152D01*
X56738095Y-88488152D02*
X56690476Y-88535771D01*
X56690476Y-88535771D02*
X56595238Y-88583390D01*
X56595238Y-88583390D02*
X56404762Y-88583390D01*
X56404762Y-88583390D02*
X56309524Y-88631009D01*
X56309524Y-88631009D02*
X56261905Y-88678628D01*
X56261905Y-88678628D02*
X56214286Y-88773866D01*
X56214286Y-88773866D02*
X56214286Y-88964342D01*
X56214286Y-88964342D02*
X56261905Y-89059580D01*
X56261905Y-89059580D02*
X56309524Y-89107200D01*
X56309524Y-89107200D02*
X56404762Y-89154819D01*
X56404762Y-89154819D02*
X56595238Y-89154819D01*
X56595238Y-89154819D02*
X56690476Y-89107200D01*
X56690476Y-89107200D02*
X56738095Y-89059580D01*
X56738095Y-89059580D02*
X56785714Y-88964342D01*
X56785714Y-88964342D02*
X56785714Y-88773866D01*
X56785714Y-88773866D02*
X56738095Y-88678628D01*
X56738095Y-88678628D02*
X56690476Y-88631009D01*
X56690476Y-88631009D02*
X56595238Y-88583390D01*
X41539580Y-66466666D02*
X41587200Y-66514285D01*
X41587200Y-66514285D02*
X41634819Y-66657142D01*
X41634819Y-66657142D02*
X41634819Y-66752380D01*
X41634819Y-66752380D02*
X41587200Y-66895237D01*
X41587200Y-66895237D02*
X41491961Y-66990475D01*
X41491961Y-66990475D02*
X41396723Y-67038094D01*
X41396723Y-67038094D02*
X41206247Y-67085713D01*
X41206247Y-67085713D02*
X41063390Y-67085713D01*
X41063390Y-67085713D02*
X40872914Y-67038094D01*
X40872914Y-67038094D02*
X40777676Y-66990475D01*
X40777676Y-66990475D02*
X40682438Y-66895237D01*
X40682438Y-66895237D02*
X40634819Y-66752380D01*
X40634819Y-66752380D02*
X40634819Y-66657142D01*
X40634819Y-66657142D02*
X40682438Y-66514285D01*
X40682438Y-66514285D02*
X40730057Y-66466666D01*
X41634819Y-65514285D02*
X41634819Y-66085713D01*
X41634819Y-65799999D02*
X40634819Y-65799999D01*
X40634819Y-65799999D02*
X40777676Y-65895237D01*
X40777676Y-65895237D02*
X40872914Y-65990475D01*
X40872914Y-65990475D02*
X40920533Y-66085713D01*
X26236819Y-47933333D02*
X26951104Y-47933333D01*
X26951104Y-47933333D02*
X27093961Y-47980952D01*
X27093961Y-47980952D02*
X27189200Y-48076190D01*
X27189200Y-48076190D02*
X27236819Y-48219047D01*
X27236819Y-48219047D02*
X27236819Y-48314285D01*
X27236819Y-46933333D02*
X27236819Y-47504761D01*
X27236819Y-47219047D02*
X26236819Y-47219047D01*
X26236819Y-47219047D02*
X26379676Y-47314285D01*
X26379676Y-47314285D02*
X26474914Y-47409523D01*
X26474914Y-47409523D02*
X26522533Y-47504761D01*
X38304819Y-62466666D02*
X37828628Y-62799999D01*
X38304819Y-63038094D02*
X37304819Y-63038094D01*
X37304819Y-63038094D02*
X37304819Y-62657142D01*
X37304819Y-62657142D02*
X37352438Y-62561904D01*
X37352438Y-62561904D02*
X37400057Y-62514285D01*
X37400057Y-62514285D02*
X37495295Y-62466666D01*
X37495295Y-62466666D02*
X37638152Y-62466666D01*
X37638152Y-62466666D02*
X37733390Y-62514285D01*
X37733390Y-62514285D02*
X37781009Y-62561904D01*
X37781009Y-62561904D02*
X37828628Y-62657142D01*
X37828628Y-62657142D02*
X37828628Y-63038094D01*
X38304819Y-61514285D02*
X38304819Y-62085713D01*
X38304819Y-61799999D02*
X37304819Y-61799999D01*
X37304819Y-61799999D02*
X37447676Y-61895237D01*
X37447676Y-61895237D02*
X37542914Y-61990475D01*
X37542914Y-61990475D02*
X37590533Y-62085713D01*
X29433333Y-48304819D02*
X29100000Y-47828628D01*
X28861905Y-48304819D02*
X28861905Y-47304819D01*
X28861905Y-47304819D02*
X29242857Y-47304819D01*
X29242857Y-47304819D02*
X29338095Y-47352438D01*
X29338095Y-47352438D02*
X29385714Y-47400057D01*
X29385714Y-47400057D02*
X29433333Y-47495295D01*
X29433333Y-47495295D02*
X29433333Y-47638152D01*
X29433333Y-47638152D02*
X29385714Y-47733390D01*
X29385714Y-47733390D02*
X29338095Y-47781009D01*
X29338095Y-47781009D02*
X29242857Y-47828628D01*
X29242857Y-47828628D02*
X28861905Y-47828628D01*
X29814286Y-47400057D02*
X29861905Y-47352438D01*
X29861905Y-47352438D02*
X29957143Y-47304819D01*
X29957143Y-47304819D02*
X30195238Y-47304819D01*
X30195238Y-47304819D02*
X30290476Y-47352438D01*
X30290476Y-47352438D02*
X30338095Y-47400057D01*
X30338095Y-47400057D02*
X30385714Y-47495295D01*
X30385714Y-47495295D02*
X30385714Y-47590533D01*
X30385714Y-47590533D02*
X30338095Y-47733390D01*
X30338095Y-47733390D02*
X29766667Y-48304819D01*
X29766667Y-48304819D02*
X30385714Y-48304819D01*
X29433333Y-50304819D02*
X29100000Y-49828628D01*
X28861905Y-50304819D02*
X28861905Y-49304819D01*
X28861905Y-49304819D02*
X29242857Y-49304819D01*
X29242857Y-49304819D02*
X29338095Y-49352438D01*
X29338095Y-49352438D02*
X29385714Y-49400057D01*
X29385714Y-49400057D02*
X29433333Y-49495295D01*
X29433333Y-49495295D02*
X29433333Y-49638152D01*
X29433333Y-49638152D02*
X29385714Y-49733390D01*
X29385714Y-49733390D02*
X29338095Y-49781009D01*
X29338095Y-49781009D02*
X29242857Y-49828628D01*
X29242857Y-49828628D02*
X28861905Y-49828628D01*
X29766667Y-49304819D02*
X30385714Y-49304819D01*
X30385714Y-49304819D02*
X30052381Y-49685771D01*
X30052381Y-49685771D02*
X30195238Y-49685771D01*
X30195238Y-49685771D02*
X30290476Y-49733390D01*
X30290476Y-49733390D02*
X30338095Y-49781009D01*
X30338095Y-49781009D02*
X30385714Y-49876247D01*
X30385714Y-49876247D02*
X30385714Y-50114342D01*
X30385714Y-50114342D02*
X30338095Y-50209580D01*
X30338095Y-50209580D02*
X30290476Y-50257200D01*
X30290476Y-50257200D02*
X30195238Y-50304819D01*
X30195238Y-50304819D02*
X29909524Y-50304819D01*
X29909524Y-50304819D02*
X29814286Y-50257200D01*
X29814286Y-50257200D02*
X29766667Y-50209580D01*
X42038095Y-60954819D02*
X42038095Y-61764342D01*
X42038095Y-61764342D02*
X42085714Y-61859580D01*
X42085714Y-61859580D02*
X42133333Y-61907200D01*
X42133333Y-61907200D02*
X42228571Y-61954819D01*
X42228571Y-61954819D02*
X42419047Y-61954819D01*
X42419047Y-61954819D02*
X42514285Y-61907200D01*
X42514285Y-61907200D02*
X42561904Y-61859580D01*
X42561904Y-61859580D02*
X42609523Y-61764342D01*
X42609523Y-61764342D02*
X42609523Y-60954819D01*
X43609523Y-61954819D02*
X43038095Y-61954819D01*
X43323809Y-61954819D02*
X43323809Y-60954819D01*
X43323809Y-60954819D02*
X43228571Y-61097676D01*
X43228571Y-61097676D02*
X43133333Y-61192914D01*
X43133333Y-61192914D02*
X43038095Y-61240533D01*
X24271746Y-90157099D02*
X24271746Y-90871384D01*
X24271746Y-90871384D02*
X24224127Y-91014241D01*
X24224127Y-91014241D02*
X24128889Y-91109480D01*
X24128889Y-91109480D02*
X23986032Y-91157099D01*
X23986032Y-91157099D02*
X23890794Y-91157099D01*
X24700318Y-90252337D02*
X24747937Y-90204718D01*
X24747937Y-90204718D02*
X24843175Y-90157099D01*
X24843175Y-90157099D02*
X25081270Y-90157099D01*
X25081270Y-90157099D02*
X25176508Y-90204718D01*
X25176508Y-90204718D02*
X25224127Y-90252337D01*
X25224127Y-90252337D02*
X25271746Y-90347575D01*
X25271746Y-90347575D02*
X25271746Y-90442813D01*
X25271746Y-90442813D02*
X25224127Y-90585670D01*
X25224127Y-90585670D02*
X24652699Y-91157099D01*
X24652699Y-91157099D02*
X25271746Y-91157099D01*
X44833333Y-70689580D02*
X44785714Y-70737200D01*
X44785714Y-70737200D02*
X44642857Y-70784819D01*
X44642857Y-70784819D02*
X44547619Y-70784819D01*
X44547619Y-70784819D02*
X44404762Y-70737200D01*
X44404762Y-70737200D02*
X44309524Y-70641961D01*
X44309524Y-70641961D02*
X44261905Y-70546723D01*
X44261905Y-70546723D02*
X44214286Y-70356247D01*
X44214286Y-70356247D02*
X44214286Y-70213390D01*
X44214286Y-70213390D02*
X44261905Y-70022914D01*
X44261905Y-70022914D02*
X44309524Y-69927676D01*
X44309524Y-69927676D02*
X44404762Y-69832438D01*
X44404762Y-69832438D02*
X44547619Y-69784819D01*
X44547619Y-69784819D02*
X44642857Y-69784819D01*
X44642857Y-69784819D02*
X44785714Y-69832438D01*
X44785714Y-69832438D02*
X44833333Y-69880057D01*
X45214286Y-69880057D02*
X45261905Y-69832438D01*
X45261905Y-69832438D02*
X45357143Y-69784819D01*
X45357143Y-69784819D02*
X45595238Y-69784819D01*
X45595238Y-69784819D02*
X45690476Y-69832438D01*
X45690476Y-69832438D02*
X45738095Y-69880057D01*
X45738095Y-69880057D02*
X45785714Y-69975295D01*
X45785714Y-69975295D02*
X45785714Y-70070533D01*
X45785714Y-70070533D02*
X45738095Y-70213390D01*
X45738095Y-70213390D02*
X45166667Y-70784819D01*
X45166667Y-70784819D02*
X45785714Y-70784819D01*
X44833333Y-72804819D02*
X44500000Y-72328628D01*
X44261905Y-72804819D02*
X44261905Y-71804819D01*
X44261905Y-71804819D02*
X44642857Y-71804819D01*
X44642857Y-71804819D02*
X44738095Y-71852438D01*
X44738095Y-71852438D02*
X44785714Y-71900057D01*
X44785714Y-71900057D02*
X44833333Y-71995295D01*
X44833333Y-71995295D02*
X44833333Y-72138152D01*
X44833333Y-72138152D02*
X44785714Y-72233390D01*
X44785714Y-72233390D02*
X44738095Y-72281009D01*
X44738095Y-72281009D02*
X44642857Y-72328628D01*
X44642857Y-72328628D02*
X44261905Y-72328628D01*
X45690476Y-72138152D02*
X45690476Y-72804819D01*
X45452381Y-71757200D02*
X45214286Y-72471485D01*
X45214286Y-72471485D02*
X45833333Y-72471485D01*
X71694819Y-88893333D02*
X72409104Y-88893333D01*
X72409104Y-88893333D02*
X72551961Y-88940952D01*
X72551961Y-88940952D02*
X72647200Y-89036190D01*
X72647200Y-89036190D02*
X72694819Y-89179047D01*
X72694819Y-89179047D02*
X72694819Y-89274285D01*
X72694819Y-87845714D02*
X72218628Y-88179047D01*
X72694819Y-88417142D02*
X71694819Y-88417142D01*
X71694819Y-88417142D02*
X71694819Y-88036190D01*
X71694819Y-88036190D02*
X71742438Y-87940952D01*
X71742438Y-87940952D02*
X71790057Y-87893333D01*
X71790057Y-87893333D02*
X71885295Y-87845714D01*
X71885295Y-87845714D02*
X72028152Y-87845714D01*
X72028152Y-87845714D02*
X72123390Y-87893333D01*
X72123390Y-87893333D02*
X72171009Y-87940952D01*
X72171009Y-87940952D02*
X72218628Y-88036190D01*
X72218628Y-88036190D02*
X72218628Y-88417142D01*
X72694819Y-86893333D02*
X72694819Y-87464761D01*
X72694819Y-87179047D02*
X71694819Y-87179047D01*
X71694819Y-87179047D02*
X71837676Y-87274285D01*
X71837676Y-87274285D02*
X71932914Y-87369523D01*
X71932914Y-87369523D02*
X71980533Y-87464761D01*
X71694819Y-101937142D02*
X72409104Y-101937142D01*
X72409104Y-101937142D02*
X72551961Y-101984761D01*
X72551961Y-101984761D02*
X72647200Y-102079999D01*
X72647200Y-102079999D02*
X72694819Y-102222856D01*
X72694819Y-102222856D02*
X72694819Y-102318094D01*
X71694819Y-101460951D02*
X72504342Y-101460951D01*
X72504342Y-101460951D02*
X72599580Y-101413332D01*
X72599580Y-101413332D02*
X72647200Y-101365713D01*
X72647200Y-101365713D02*
X72694819Y-101270475D01*
X72694819Y-101270475D02*
X72694819Y-101079999D01*
X72694819Y-101079999D02*
X72647200Y-100984761D01*
X72647200Y-100984761D02*
X72599580Y-100937142D01*
X72599580Y-100937142D02*
X72504342Y-100889523D01*
X72504342Y-100889523D02*
X71694819Y-100889523D01*
X72694819Y-99889523D02*
X72694819Y-100460951D01*
X72694819Y-100175237D02*
X71694819Y-100175237D01*
X71694819Y-100175237D02*
X71837676Y-100270475D01*
X71837676Y-100270475D02*
X71932914Y-100365713D01*
X71932914Y-100365713D02*
X71980533Y-100460951D01*
X39854819Y-73866666D02*
X39378628Y-74199999D01*
X39854819Y-74438094D02*
X38854819Y-74438094D01*
X38854819Y-74438094D02*
X38854819Y-74057142D01*
X38854819Y-74057142D02*
X38902438Y-73961904D01*
X38902438Y-73961904D02*
X38950057Y-73914285D01*
X38950057Y-73914285D02*
X39045295Y-73866666D01*
X39045295Y-73866666D02*
X39188152Y-73866666D01*
X39188152Y-73866666D02*
X39283390Y-73914285D01*
X39283390Y-73914285D02*
X39331009Y-73961904D01*
X39331009Y-73961904D02*
X39378628Y-74057142D01*
X39378628Y-74057142D02*
X39378628Y-74438094D01*
X38854819Y-73009523D02*
X38854819Y-73199999D01*
X38854819Y-73199999D02*
X38902438Y-73295237D01*
X38902438Y-73295237D02*
X38950057Y-73342856D01*
X38950057Y-73342856D02*
X39092914Y-73438094D01*
X39092914Y-73438094D02*
X39283390Y-73485713D01*
X39283390Y-73485713D02*
X39664342Y-73485713D01*
X39664342Y-73485713D02*
X39759580Y-73438094D01*
X39759580Y-73438094D02*
X39807200Y-73390475D01*
X39807200Y-73390475D02*
X39854819Y-73295237D01*
X39854819Y-73295237D02*
X39854819Y-73104761D01*
X39854819Y-73104761D02*
X39807200Y-73009523D01*
X39807200Y-73009523D02*
X39759580Y-72961904D01*
X39759580Y-72961904D02*
X39664342Y-72914285D01*
X39664342Y-72914285D02*
X39426247Y-72914285D01*
X39426247Y-72914285D02*
X39331009Y-72961904D01*
X39331009Y-72961904D02*
X39283390Y-73009523D01*
X39283390Y-73009523D02*
X39235771Y-73104761D01*
X39235771Y-73104761D02*
X39235771Y-73295237D01*
X39235771Y-73295237D02*
X39283390Y-73390475D01*
X39283390Y-73390475D02*
X39331009Y-73438094D01*
X39331009Y-73438094D02*
X39426247Y-73485713D01*
X39904819Y-85266666D02*
X39428628Y-85599999D01*
X39904819Y-85838094D02*
X38904819Y-85838094D01*
X38904819Y-85838094D02*
X38904819Y-85457142D01*
X38904819Y-85457142D02*
X38952438Y-85361904D01*
X38952438Y-85361904D02*
X39000057Y-85314285D01*
X39000057Y-85314285D02*
X39095295Y-85266666D01*
X39095295Y-85266666D02*
X39238152Y-85266666D01*
X39238152Y-85266666D02*
X39333390Y-85314285D01*
X39333390Y-85314285D02*
X39381009Y-85361904D01*
X39381009Y-85361904D02*
X39428628Y-85457142D01*
X39428628Y-85457142D02*
X39428628Y-85838094D01*
X38904819Y-84933332D02*
X38904819Y-84266666D01*
X38904819Y-84266666D02*
X39904819Y-84695237D01*
D12*
X72076252Y-72112543D02*
X72790666Y-72112543D01*
X72790666Y-72112543D02*
X72933549Y-72160170D01*
X72933549Y-72160170D02*
X73028805Y-72255426D01*
X73028805Y-72255426D02*
X73076432Y-72398308D01*
X73076432Y-72398308D02*
X73076432Y-72493564D01*
X72409645Y-71207618D02*
X73076432Y-71207618D01*
X72028625Y-71445756D02*
X72743039Y-71683894D01*
X72743039Y-71683894D02*
X72743039Y-71064735D01*
D11*
X71894819Y-59093333D02*
X72609104Y-59093333D01*
X72609104Y-59093333D02*
X72751961Y-59140952D01*
X72751961Y-59140952D02*
X72847200Y-59236190D01*
X72847200Y-59236190D02*
X72894819Y-59379047D01*
X72894819Y-59379047D02*
X72894819Y-59474285D01*
X72894819Y-58045714D02*
X72418628Y-58379047D01*
X72894819Y-58617142D02*
X71894819Y-58617142D01*
X71894819Y-58617142D02*
X71894819Y-58236190D01*
X71894819Y-58236190D02*
X71942438Y-58140952D01*
X71942438Y-58140952D02*
X71990057Y-58093333D01*
X71990057Y-58093333D02*
X72085295Y-58045714D01*
X72085295Y-58045714D02*
X72228152Y-58045714D01*
X72228152Y-58045714D02*
X72323390Y-58093333D01*
X72323390Y-58093333D02*
X72371009Y-58140952D01*
X72371009Y-58140952D02*
X72418628Y-58236190D01*
X72418628Y-58236190D02*
X72418628Y-58617142D01*
X71990057Y-57664761D02*
X71942438Y-57617142D01*
X71942438Y-57617142D02*
X71894819Y-57521904D01*
X71894819Y-57521904D02*
X71894819Y-57283809D01*
X71894819Y-57283809D02*
X71942438Y-57188571D01*
X71942438Y-57188571D02*
X71990057Y-57140952D01*
X71990057Y-57140952D02*
X72085295Y-57093333D01*
X72085295Y-57093333D02*
X72180533Y-57093333D01*
X72180533Y-57093333D02*
X72323390Y-57140952D01*
X72323390Y-57140952D02*
X72894819Y-57712380D01*
X72894819Y-57712380D02*
X72894819Y-57093333D01*
X45554819Y-75042857D02*
X45078628Y-75376190D01*
X45554819Y-75614285D02*
X44554819Y-75614285D01*
X44554819Y-75614285D02*
X44554819Y-75233333D01*
X44554819Y-75233333D02*
X44602438Y-75138095D01*
X44602438Y-75138095D02*
X44650057Y-75090476D01*
X44650057Y-75090476D02*
X44745295Y-75042857D01*
X44745295Y-75042857D02*
X44888152Y-75042857D01*
X44888152Y-75042857D02*
X44983390Y-75090476D01*
X44983390Y-75090476D02*
X45031009Y-75138095D01*
X45031009Y-75138095D02*
X45078628Y-75233333D01*
X45078628Y-75233333D02*
X45078628Y-75614285D01*
X45554819Y-74090476D02*
X45554819Y-74661904D01*
X45554819Y-74376190D02*
X44554819Y-74376190D01*
X44554819Y-74376190D02*
X44697676Y-74471428D01*
X44697676Y-74471428D02*
X44792914Y-74566666D01*
X44792914Y-74566666D02*
X44840533Y-74661904D01*
X44650057Y-73709523D02*
X44602438Y-73661904D01*
X44602438Y-73661904D02*
X44554819Y-73566666D01*
X44554819Y-73566666D02*
X44554819Y-73328571D01*
X44554819Y-73328571D02*
X44602438Y-73233333D01*
X44602438Y-73233333D02*
X44650057Y-73185714D01*
X44650057Y-73185714D02*
X44745295Y-73138095D01*
X44745295Y-73138095D02*
X44840533Y-73138095D01*
X44840533Y-73138095D02*
X44983390Y-73185714D01*
X44983390Y-73185714D02*
X45554819Y-73757142D01*
X45554819Y-73757142D02*
X45554819Y-73138095D01*
X51657142Y-71654819D02*
X51323809Y-71178628D01*
X51085714Y-71654819D02*
X51085714Y-70654819D01*
X51085714Y-70654819D02*
X51466666Y-70654819D01*
X51466666Y-70654819D02*
X51561904Y-70702438D01*
X51561904Y-70702438D02*
X51609523Y-70750057D01*
X51609523Y-70750057D02*
X51657142Y-70845295D01*
X51657142Y-70845295D02*
X51657142Y-70988152D01*
X51657142Y-70988152D02*
X51609523Y-71083390D01*
X51609523Y-71083390D02*
X51561904Y-71131009D01*
X51561904Y-71131009D02*
X51466666Y-71178628D01*
X51466666Y-71178628D02*
X51085714Y-71178628D01*
X52609523Y-71654819D02*
X52038095Y-71654819D01*
X52323809Y-71654819D02*
X52323809Y-70654819D01*
X52323809Y-70654819D02*
X52228571Y-70797676D01*
X52228571Y-70797676D02*
X52133333Y-70892914D01*
X52133333Y-70892914D02*
X52038095Y-70940533D01*
X52942857Y-70654819D02*
X53561904Y-70654819D01*
X53561904Y-70654819D02*
X53228571Y-71035771D01*
X53228571Y-71035771D02*
X53371428Y-71035771D01*
X53371428Y-71035771D02*
X53466666Y-71083390D01*
X53466666Y-71083390D02*
X53514285Y-71131009D01*
X53514285Y-71131009D02*
X53561904Y-71226247D01*
X53561904Y-71226247D02*
X53561904Y-71464342D01*
X53561904Y-71464342D02*
X53514285Y-71559580D01*
X53514285Y-71559580D02*
X53466666Y-71607200D01*
X53466666Y-71607200D02*
X53371428Y-71654819D01*
X53371428Y-71654819D02*
X53085714Y-71654819D01*
X53085714Y-71654819D02*
X52990476Y-71607200D01*
X52990476Y-71607200D02*
X52942857Y-71559580D01*
X54857142Y-71654819D02*
X54523809Y-71178628D01*
X54285714Y-71654819D02*
X54285714Y-70654819D01*
X54285714Y-70654819D02*
X54666666Y-70654819D01*
X54666666Y-70654819D02*
X54761904Y-70702438D01*
X54761904Y-70702438D02*
X54809523Y-70750057D01*
X54809523Y-70750057D02*
X54857142Y-70845295D01*
X54857142Y-70845295D02*
X54857142Y-70988152D01*
X54857142Y-70988152D02*
X54809523Y-71083390D01*
X54809523Y-71083390D02*
X54761904Y-71131009D01*
X54761904Y-71131009D02*
X54666666Y-71178628D01*
X54666666Y-71178628D02*
X54285714Y-71178628D01*
X55809523Y-71654819D02*
X55238095Y-71654819D01*
X55523809Y-71654819D02*
X55523809Y-70654819D01*
X55523809Y-70654819D02*
X55428571Y-70797676D01*
X55428571Y-70797676D02*
X55333333Y-70892914D01*
X55333333Y-70892914D02*
X55238095Y-70940533D01*
X56666666Y-70988152D02*
X56666666Y-71654819D01*
X56428571Y-70607200D02*
X56190476Y-71321485D01*
X56190476Y-71321485D02*
X56809523Y-71321485D01*
X52534819Y-94789523D02*
X53534819Y-94122857D01*
X52534819Y-94122857D02*
X53534819Y-94789523D01*
X53534819Y-93218095D02*
X53534819Y-93789523D01*
X53534819Y-93503809D02*
X52534819Y-93503809D01*
X52534819Y-93503809D02*
X52677676Y-93599047D01*
X52677676Y-93599047D02*
X52772914Y-93694285D01*
X52772914Y-93694285D02*
X52820533Y-93789523D01*
X50059580Y-98142857D02*
X50107200Y-98190476D01*
X50107200Y-98190476D02*
X50154819Y-98333333D01*
X50154819Y-98333333D02*
X50154819Y-98428571D01*
X50154819Y-98428571D02*
X50107200Y-98571428D01*
X50107200Y-98571428D02*
X50011961Y-98666666D01*
X50011961Y-98666666D02*
X49916723Y-98714285D01*
X49916723Y-98714285D02*
X49726247Y-98761904D01*
X49726247Y-98761904D02*
X49583390Y-98761904D01*
X49583390Y-98761904D02*
X49392914Y-98714285D01*
X49392914Y-98714285D02*
X49297676Y-98666666D01*
X49297676Y-98666666D02*
X49202438Y-98571428D01*
X49202438Y-98571428D02*
X49154819Y-98428571D01*
X49154819Y-98428571D02*
X49154819Y-98333333D01*
X49154819Y-98333333D02*
X49202438Y-98190476D01*
X49202438Y-98190476D02*
X49250057Y-98142857D01*
X50154819Y-97190476D02*
X50154819Y-97761904D01*
X50154819Y-97476190D02*
X49154819Y-97476190D01*
X49154819Y-97476190D02*
X49297676Y-97571428D01*
X49297676Y-97571428D02*
X49392914Y-97666666D01*
X49392914Y-97666666D02*
X49440533Y-97761904D01*
X50154819Y-96238095D02*
X50154819Y-96809523D01*
X50154819Y-96523809D02*
X49154819Y-96523809D01*
X49154819Y-96523809D02*
X49297676Y-96619047D01*
X49297676Y-96619047D02*
X49392914Y-96714285D01*
X49392914Y-96714285D02*
X49440533Y-96809523D01*
X40004819Y-81861904D02*
X40814342Y-81861904D01*
X40814342Y-81861904D02*
X40909580Y-81814285D01*
X40909580Y-81814285D02*
X40957200Y-81766666D01*
X40957200Y-81766666D02*
X41004819Y-81671428D01*
X41004819Y-81671428D02*
X41004819Y-81480952D01*
X41004819Y-81480952D02*
X40957200Y-81385714D01*
X40957200Y-81385714D02*
X40909580Y-81338095D01*
X40909580Y-81338095D02*
X40814342Y-81290476D01*
X40814342Y-81290476D02*
X40004819Y-81290476D01*
X40004819Y-80338095D02*
X40004819Y-80814285D01*
X40004819Y-80814285D02*
X40481009Y-80861904D01*
X40481009Y-80861904D02*
X40433390Y-80814285D01*
X40433390Y-80814285D02*
X40385771Y-80719047D01*
X40385771Y-80719047D02*
X40385771Y-80480952D01*
X40385771Y-80480952D02*
X40433390Y-80385714D01*
X40433390Y-80385714D02*
X40481009Y-80338095D01*
X40481009Y-80338095D02*
X40576247Y-80290476D01*
X40576247Y-80290476D02*
X40814342Y-80290476D01*
X40814342Y-80290476D02*
X40909580Y-80338095D01*
X40909580Y-80338095D02*
X40957200Y-80385714D01*
X40957200Y-80385714D02*
X41004819Y-80480952D01*
X41004819Y-80480952D02*
X41004819Y-80719047D01*
X41004819Y-80719047D02*
X40957200Y-80814285D01*
X40957200Y-80814285D02*
X40909580Y-80861904D01*
X46154819Y-56833333D02*
X46869104Y-56833333D01*
X46869104Y-56833333D02*
X47011961Y-56880952D01*
X47011961Y-56880952D02*
X47107200Y-56976190D01*
X47107200Y-56976190D02*
X47154819Y-57119047D01*
X47154819Y-57119047D02*
X47154819Y-57214285D01*
X47154819Y-56357142D02*
X46154819Y-56357142D01*
X46154819Y-56357142D02*
X46154819Y-55976190D01*
X46154819Y-55976190D02*
X46202438Y-55880952D01*
X46202438Y-55880952D02*
X46250057Y-55833333D01*
X46250057Y-55833333D02*
X46345295Y-55785714D01*
X46345295Y-55785714D02*
X46488152Y-55785714D01*
X46488152Y-55785714D02*
X46583390Y-55833333D01*
X46583390Y-55833333D02*
X46631009Y-55880952D01*
X46631009Y-55880952D02*
X46678628Y-55976190D01*
X46678628Y-55976190D02*
X46678628Y-56357142D01*
X47154819Y-54833333D02*
X47154819Y-55404761D01*
X47154819Y-55119047D02*
X46154819Y-55119047D01*
X46154819Y-55119047D02*
X46297676Y-55214285D01*
X46297676Y-55214285D02*
X46392914Y-55309523D01*
X46392914Y-55309523D02*
X46440533Y-55404761D01*
X33733333Y-58104819D02*
X33400000Y-57628628D01*
X33161905Y-58104819D02*
X33161905Y-57104819D01*
X33161905Y-57104819D02*
X33542857Y-57104819D01*
X33542857Y-57104819D02*
X33638095Y-57152438D01*
X33638095Y-57152438D02*
X33685714Y-57200057D01*
X33685714Y-57200057D02*
X33733333Y-57295295D01*
X33733333Y-57295295D02*
X33733333Y-57438152D01*
X33733333Y-57438152D02*
X33685714Y-57533390D01*
X33685714Y-57533390D02*
X33638095Y-57581009D01*
X33638095Y-57581009D02*
X33542857Y-57628628D01*
X33542857Y-57628628D02*
X33161905Y-57628628D01*
X34638095Y-57104819D02*
X34161905Y-57104819D01*
X34161905Y-57104819D02*
X34114286Y-57581009D01*
X34114286Y-57581009D02*
X34161905Y-57533390D01*
X34161905Y-57533390D02*
X34257143Y-57485771D01*
X34257143Y-57485771D02*
X34495238Y-57485771D01*
X34495238Y-57485771D02*
X34590476Y-57533390D01*
X34590476Y-57533390D02*
X34638095Y-57581009D01*
X34638095Y-57581009D02*
X34685714Y-57676247D01*
X34685714Y-57676247D02*
X34685714Y-57914342D01*
X34685714Y-57914342D02*
X34638095Y-58009580D01*
X34638095Y-58009580D02*
X34590476Y-58057200D01*
X34590476Y-58057200D02*
X34495238Y-58104819D01*
X34495238Y-58104819D02*
X34257143Y-58104819D01*
X34257143Y-58104819D02*
X34161905Y-58057200D01*
X34161905Y-58057200D02*
X34114286Y-58009580D01*
X33138095Y-49554819D02*
X33138095Y-50364342D01*
X33138095Y-50364342D02*
X33185714Y-50459580D01*
X33185714Y-50459580D02*
X33233333Y-50507200D01*
X33233333Y-50507200D02*
X33328571Y-50554819D01*
X33328571Y-50554819D02*
X33519047Y-50554819D01*
X33519047Y-50554819D02*
X33614285Y-50507200D01*
X33614285Y-50507200D02*
X33661904Y-50459580D01*
X33661904Y-50459580D02*
X33709523Y-50364342D01*
X33709523Y-50364342D02*
X33709523Y-49554819D01*
X34138095Y-49650057D02*
X34185714Y-49602438D01*
X34185714Y-49602438D02*
X34280952Y-49554819D01*
X34280952Y-49554819D02*
X34519047Y-49554819D01*
X34519047Y-49554819D02*
X34614285Y-49602438D01*
X34614285Y-49602438D02*
X34661904Y-49650057D01*
X34661904Y-49650057D02*
X34709523Y-49745295D01*
X34709523Y-49745295D02*
X34709523Y-49840533D01*
X34709523Y-49840533D02*
X34661904Y-49983390D01*
X34661904Y-49983390D02*
X34090476Y-50554819D01*
X34090476Y-50554819D02*
X34709523Y-50554819D01*
X35988095Y-49554819D02*
X35988095Y-50364342D01*
X35988095Y-50364342D02*
X36035714Y-50459580D01*
X36035714Y-50459580D02*
X36083333Y-50507200D01*
X36083333Y-50507200D02*
X36178571Y-50554819D01*
X36178571Y-50554819D02*
X36369047Y-50554819D01*
X36369047Y-50554819D02*
X36464285Y-50507200D01*
X36464285Y-50507200D02*
X36511904Y-50459580D01*
X36511904Y-50459580D02*
X36559523Y-50364342D01*
X36559523Y-50364342D02*
X36559523Y-49554819D01*
X36940476Y-49554819D02*
X37559523Y-49554819D01*
X37559523Y-49554819D02*
X37226190Y-49935771D01*
X37226190Y-49935771D02*
X37369047Y-49935771D01*
X37369047Y-49935771D02*
X37464285Y-49983390D01*
X37464285Y-49983390D02*
X37511904Y-50031009D01*
X37511904Y-50031009D02*
X37559523Y-50126247D01*
X37559523Y-50126247D02*
X37559523Y-50364342D01*
X37559523Y-50364342D02*
X37511904Y-50459580D01*
X37511904Y-50459580D02*
X37464285Y-50507200D01*
X37464285Y-50507200D02*
X37369047Y-50554819D01*
X37369047Y-50554819D02*
X37083333Y-50554819D01*
X37083333Y-50554819D02*
X36988095Y-50507200D01*
X36988095Y-50507200D02*
X36940476Y-50459580D01*
X55857142Y-71559580D02*
X55809523Y-71607200D01*
X55809523Y-71607200D02*
X55666666Y-71654819D01*
X55666666Y-71654819D02*
X55571428Y-71654819D01*
X55571428Y-71654819D02*
X55428571Y-71607200D01*
X55428571Y-71607200D02*
X55333333Y-71511961D01*
X55333333Y-71511961D02*
X55285714Y-71416723D01*
X55285714Y-71416723D02*
X55238095Y-71226247D01*
X55238095Y-71226247D02*
X55238095Y-71083390D01*
X55238095Y-71083390D02*
X55285714Y-70892914D01*
X55285714Y-70892914D02*
X55333333Y-70797676D01*
X55333333Y-70797676D02*
X55428571Y-70702438D01*
X55428571Y-70702438D02*
X55571428Y-70654819D01*
X55571428Y-70654819D02*
X55666666Y-70654819D01*
X55666666Y-70654819D02*
X55809523Y-70702438D01*
X55809523Y-70702438D02*
X55857142Y-70750057D01*
X56809523Y-71654819D02*
X56238095Y-71654819D01*
X56523809Y-71654819D02*
X56523809Y-70654819D01*
X56523809Y-70654819D02*
X56428571Y-70797676D01*
X56428571Y-70797676D02*
X56333333Y-70892914D01*
X56333333Y-70892914D02*
X56238095Y-70940533D01*
X57666666Y-70988152D02*
X57666666Y-71654819D01*
X57428571Y-70607200D02*
X57190476Y-71321485D01*
X57190476Y-71321485D02*
X57809523Y-71321485D01*
X37539580Y-44766666D02*
X37587200Y-44814285D01*
X37587200Y-44814285D02*
X37634819Y-44957142D01*
X37634819Y-44957142D02*
X37634819Y-45052380D01*
X37634819Y-45052380D02*
X37587200Y-45195237D01*
X37587200Y-45195237D02*
X37491961Y-45290475D01*
X37491961Y-45290475D02*
X37396723Y-45338094D01*
X37396723Y-45338094D02*
X37206247Y-45385713D01*
X37206247Y-45385713D02*
X37063390Y-45385713D01*
X37063390Y-45385713D02*
X36872914Y-45338094D01*
X36872914Y-45338094D02*
X36777676Y-45290475D01*
X36777676Y-45290475D02*
X36682438Y-45195237D01*
X36682438Y-45195237D02*
X36634819Y-45052380D01*
X36634819Y-45052380D02*
X36634819Y-44957142D01*
X36634819Y-44957142D02*
X36682438Y-44814285D01*
X36682438Y-44814285D02*
X36730057Y-44766666D01*
X36634819Y-44433332D02*
X36634819Y-43814285D01*
X36634819Y-43814285D02*
X37015771Y-44147618D01*
X37015771Y-44147618D02*
X37015771Y-44004761D01*
X37015771Y-44004761D02*
X37063390Y-43909523D01*
X37063390Y-43909523D02*
X37111009Y-43861904D01*
X37111009Y-43861904D02*
X37206247Y-43814285D01*
X37206247Y-43814285D02*
X37444342Y-43814285D01*
X37444342Y-43814285D02*
X37539580Y-43861904D01*
X37539580Y-43861904D02*
X37587200Y-43909523D01*
X37587200Y-43909523D02*
X37634819Y-44004761D01*
X37634819Y-44004761D02*
X37634819Y-44290475D01*
X37634819Y-44290475D02*
X37587200Y-44385713D01*
X37587200Y-44385713D02*
X37539580Y-44433332D01*
X49039580Y-49292857D02*
X49087200Y-49340476D01*
X49087200Y-49340476D02*
X49134819Y-49483333D01*
X49134819Y-49483333D02*
X49134819Y-49578571D01*
X49134819Y-49578571D02*
X49087200Y-49721428D01*
X49087200Y-49721428D02*
X48991961Y-49816666D01*
X48991961Y-49816666D02*
X48896723Y-49864285D01*
X48896723Y-49864285D02*
X48706247Y-49911904D01*
X48706247Y-49911904D02*
X48563390Y-49911904D01*
X48563390Y-49911904D02*
X48372914Y-49864285D01*
X48372914Y-49864285D02*
X48277676Y-49816666D01*
X48277676Y-49816666D02*
X48182438Y-49721428D01*
X48182438Y-49721428D02*
X48134819Y-49578571D01*
X48134819Y-49578571D02*
X48134819Y-49483333D01*
X48134819Y-49483333D02*
X48182438Y-49340476D01*
X48182438Y-49340476D02*
X48230057Y-49292857D01*
X49134819Y-48340476D02*
X49134819Y-48911904D01*
X49134819Y-48626190D02*
X48134819Y-48626190D01*
X48134819Y-48626190D02*
X48277676Y-48721428D01*
X48277676Y-48721428D02*
X48372914Y-48816666D01*
X48372914Y-48816666D02*
X48420533Y-48911904D01*
X48134819Y-47721428D02*
X48134819Y-47626190D01*
X48134819Y-47626190D02*
X48182438Y-47530952D01*
X48182438Y-47530952D02*
X48230057Y-47483333D01*
X48230057Y-47483333D02*
X48325295Y-47435714D01*
X48325295Y-47435714D02*
X48515771Y-47388095D01*
X48515771Y-47388095D02*
X48753866Y-47388095D01*
X48753866Y-47388095D02*
X48944342Y-47435714D01*
X48944342Y-47435714D02*
X49039580Y-47483333D01*
X49039580Y-47483333D02*
X49087200Y-47530952D01*
X49087200Y-47530952D02*
X49134819Y-47626190D01*
X49134819Y-47626190D02*
X49134819Y-47721428D01*
X49134819Y-47721428D02*
X49087200Y-47816666D01*
X49087200Y-47816666D02*
X49039580Y-47864285D01*
X49039580Y-47864285D02*
X48944342Y-47911904D01*
X48944342Y-47911904D02*
X48753866Y-47959523D01*
X48753866Y-47959523D02*
X48515771Y-47959523D01*
X48515771Y-47959523D02*
X48325295Y-47911904D01*
X48325295Y-47911904D02*
X48230057Y-47864285D01*
X48230057Y-47864285D02*
X48182438Y-47816666D01*
X48182438Y-47816666D02*
X48134819Y-47721428D01*
X61357142Y-47009580D02*
X61309523Y-47057200D01*
X61309523Y-47057200D02*
X61166666Y-47104819D01*
X61166666Y-47104819D02*
X61071428Y-47104819D01*
X61071428Y-47104819D02*
X60928571Y-47057200D01*
X60928571Y-47057200D02*
X60833333Y-46961961D01*
X60833333Y-46961961D02*
X60785714Y-46866723D01*
X60785714Y-46866723D02*
X60738095Y-46676247D01*
X60738095Y-46676247D02*
X60738095Y-46533390D01*
X60738095Y-46533390D02*
X60785714Y-46342914D01*
X60785714Y-46342914D02*
X60833333Y-46247676D01*
X60833333Y-46247676D02*
X60928571Y-46152438D01*
X60928571Y-46152438D02*
X61071428Y-46104819D01*
X61071428Y-46104819D02*
X61166666Y-46104819D01*
X61166666Y-46104819D02*
X61309523Y-46152438D01*
X61309523Y-46152438D02*
X61357142Y-46200057D01*
X62309523Y-47104819D02*
X61738095Y-47104819D01*
X62023809Y-47104819D02*
X62023809Y-46104819D01*
X62023809Y-46104819D02*
X61928571Y-46247676D01*
X61928571Y-46247676D02*
X61833333Y-46342914D01*
X61833333Y-46342914D02*
X61738095Y-46390533D01*
X62690476Y-46200057D02*
X62738095Y-46152438D01*
X62738095Y-46152438D02*
X62833333Y-46104819D01*
X62833333Y-46104819D02*
X63071428Y-46104819D01*
X63071428Y-46104819D02*
X63166666Y-46152438D01*
X63166666Y-46152438D02*
X63214285Y-46200057D01*
X63214285Y-46200057D02*
X63261904Y-46295295D01*
X63261904Y-46295295D02*
X63261904Y-46390533D01*
X63261904Y-46390533D02*
X63214285Y-46533390D01*
X63214285Y-46533390D02*
X62642857Y-47104819D01*
X62642857Y-47104819D02*
X63261904Y-47104819D01*
X31166666Y-41751009D02*
X30833333Y-41751009D01*
X30833333Y-42274819D02*
X30833333Y-41274819D01*
X30833333Y-41274819D02*
X31309523Y-41274819D01*
X32023809Y-41751009D02*
X32166666Y-41798628D01*
X32166666Y-41798628D02*
X32214285Y-41846247D01*
X32214285Y-41846247D02*
X32261904Y-41941485D01*
X32261904Y-41941485D02*
X32261904Y-42084342D01*
X32261904Y-42084342D02*
X32214285Y-42179580D01*
X32214285Y-42179580D02*
X32166666Y-42227200D01*
X32166666Y-42227200D02*
X32071428Y-42274819D01*
X32071428Y-42274819D02*
X31690476Y-42274819D01*
X31690476Y-42274819D02*
X31690476Y-41274819D01*
X31690476Y-41274819D02*
X32023809Y-41274819D01*
X32023809Y-41274819D02*
X32119047Y-41322438D01*
X32119047Y-41322438D02*
X32166666Y-41370057D01*
X32166666Y-41370057D02*
X32214285Y-41465295D01*
X32214285Y-41465295D02*
X32214285Y-41560533D01*
X32214285Y-41560533D02*
X32166666Y-41655771D01*
X32166666Y-41655771D02*
X32119047Y-41703390D01*
X32119047Y-41703390D02*
X32023809Y-41751009D01*
X32023809Y-41751009D02*
X31690476Y-41751009D01*
X33214285Y-42274819D02*
X32642857Y-42274819D01*
X32928571Y-42274819D02*
X32928571Y-41274819D01*
X32928571Y-41274819D02*
X32833333Y-41417676D01*
X32833333Y-41417676D02*
X32738095Y-41512914D01*
X32738095Y-41512914D02*
X32642857Y-41560533D01*
X53057142Y-87804819D02*
X52723809Y-87328628D01*
X52485714Y-87804819D02*
X52485714Y-86804819D01*
X52485714Y-86804819D02*
X52866666Y-86804819D01*
X52866666Y-86804819D02*
X52961904Y-86852438D01*
X52961904Y-86852438D02*
X53009523Y-86900057D01*
X53009523Y-86900057D02*
X53057142Y-86995295D01*
X53057142Y-86995295D02*
X53057142Y-87138152D01*
X53057142Y-87138152D02*
X53009523Y-87233390D01*
X53009523Y-87233390D02*
X52961904Y-87281009D01*
X52961904Y-87281009D02*
X52866666Y-87328628D01*
X52866666Y-87328628D02*
X52485714Y-87328628D01*
X53438095Y-86900057D02*
X53485714Y-86852438D01*
X53485714Y-86852438D02*
X53580952Y-86804819D01*
X53580952Y-86804819D02*
X53819047Y-86804819D01*
X53819047Y-86804819D02*
X53914285Y-86852438D01*
X53914285Y-86852438D02*
X53961904Y-86900057D01*
X53961904Y-86900057D02*
X54009523Y-86995295D01*
X54009523Y-86995295D02*
X54009523Y-87090533D01*
X54009523Y-87090533D02*
X53961904Y-87233390D01*
X53961904Y-87233390D02*
X53390476Y-87804819D01*
X53390476Y-87804819D02*
X54009523Y-87804819D01*
X54961904Y-87804819D02*
X54390476Y-87804819D01*
X54676190Y-87804819D02*
X54676190Y-86804819D01*
X54676190Y-86804819D02*
X54580952Y-86947676D01*
X54580952Y-86947676D02*
X54485714Y-87042914D01*
X54485714Y-87042914D02*
X54390476Y-87090533D01*
X57261905Y-47104819D02*
X57261905Y-46104819D01*
X57261905Y-46104819D02*
X57500000Y-46104819D01*
X57500000Y-46104819D02*
X57642857Y-46152438D01*
X57642857Y-46152438D02*
X57738095Y-46247676D01*
X57738095Y-46247676D02*
X57785714Y-46342914D01*
X57785714Y-46342914D02*
X57833333Y-46533390D01*
X57833333Y-46533390D02*
X57833333Y-46676247D01*
X57833333Y-46676247D02*
X57785714Y-46866723D01*
X57785714Y-46866723D02*
X57738095Y-46961961D01*
X57738095Y-46961961D02*
X57642857Y-47057200D01*
X57642857Y-47057200D02*
X57500000Y-47104819D01*
X57500000Y-47104819D02*
X57261905Y-47104819D01*
X58785714Y-47104819D02*
X58214286Y-47104819D01*
X58500000Y-47104819D02*
X58500000Y-46104819D01*
X58500000Y-46104819D02*
X58404762Y-46247676D01*
X58404762Y-46247676D02*
X58309524Y-46342914D01*
X58309524Y-46342914D02*
X58214286Y-46390533D01*
X52947142Y-43804819D02*
X52613809Y-43328628D01*
X52375714Y-43804819D02*
X52375714Y-42804819D01*
X52375714Y-42804819D02*
X52756666Y-42804819D01*
X52756666Y-42804819D02*
X52851904Y-42852438D01*
X52851904Y-42852438D02*
X52899523Y-42900057D01*
X52899523Y-42900057D02*
X52947142Y-42995295D01*
X52947142Y-42995295D02*
X52947142Y-43138152D01*
X52947142Y-43138152D02*
X52899523Y-43233390D01*
X52899523Y-43233390D02*
X52851904Y-43281009D01*
X52851904Y-43281009D02*
X52756666Y-43328628D01*
X52756666Y-43328628D02*
X52375714Y-43328628D01*
X53328095Y-42900057D02*
X53375714Y-42852438D01*
X53375714Y-42852438D02*
X53470952Y-42804819D01*
X53470952Y-42804819D02*
X53709047Y-42804819D01*
X53709047Y-42804819D02*
X53804285Y-42852438D01*
X53804285Y-42852438D02*
X53851904Y-42900057D01*
X53851904Y-42900057D02*
X53899523Y-42995295D01*
X53899523Y-42995295D02*
X53899523Y-43090533D01*
X53899523Y-43090533D02*
X53851904Y-43233390D01*
X53851904Y-43233390D02*
X53280476Y-43804819D01*
X53280476Y-43804819D02*
X53899523Y-43804819D01*
X54280476Y-42900057D02*
X54328095Y-42852438D01*
X54328095Y-42852438D02*
X54423333Y-42804819D01*
X54423333Y-42804819D02*
X54661428Y-42804819D01*
X54661428Y-42804819D02*
X54756666Y-42852438D01*
X54756666Y-42852438D02*
X54804285Y-42900057D01*
X54804285Y-42900057D02*
X54851904Y-42995295D01*
X54851904Y-42995295D02*
X54851904Y-43090533D01*
X54851904Y-43090533D02*
X54804285Y-43233390D01*
X54804285Y-43233390D02*
X54232857Y-43804819D01*
X54232857Y-43804819D02*
X54851904Y-43804819D01*
X43733333Y-51359580D02*
X43685714Y-51407200D01*
X43685714Y-51407200D02*
X43542857Y-51454819D01*
X43542857Y-51454819D02*
X43447619Y-51454819D01*
X43447619Y-51454819D02*
X43304762Y-51407200D01*
X43304762Y-51407200D02*
X43209524Y-51311961D01*
X43209524Y-51311961D02*
X43161905Y-51216723D01*
X43161905Y-51216723D02*
X43114286Y-51026247D01*
X43114286Y-51026247D02*
X43114286Y-50883390D01*
X43114286Y-50883390D02*
X43161905Y-50692914D01*
X43161905Y-50692914D02*
X43209524Y-50597676D01*
X43209524Y-50597676D02*
X43304762Y-50502438D01*
X43304762Y-50502438D02*
X43447619Y-50454819D01*
X43447619Y-50454819D02*
X43542857Y-50454819D01*
X43542857Y-50454819D02*
X43685714Y-50502438D01*
X43685714Y-50502438D02*
X43733333Y-50550057D01*
X44209524Y-51454819D02*
X44400000Y-51454819D01*
X44400000Y-51454819D02*
X44495238Y-51407200D01*
X44495238Y-51407200D02*
X44542857Y-51359580D01*
X44542857Y-51359580D02*
X44638095Y-51216723D01*
X44638095Y-51216723D02*
X44685714Y-51026247D01*
X44685714Y-51026247D02*
X44685714Y-50645295D01*
X44685714Y-50645295D02*
X44638095Y-50550057D01*
X44638095Y-50550057D02*
X44590476Y-50502438D01*
X44590476Y-50502438D02*
X44495238Y-50454819D01*
X44495238Y-50454819D02*
X44304762Y-50454819D01*
X44304762Y-50454819D02*
X44209524Y-50502438D01*
X44209524Y-50502438D02*
X44161905Y-50550057D01*
X44161905Y-50550057D02*
X44114286Y-50645295D01*
X44114286Y-50645295D02*
X44114286Y-50883390D01*
X44114286Y-50883390D02*
X44161905Y-50978628D01*
X44161905Y-50978628D02*
X44209524Y-51026247D01*
X44209524Y-51026247D02*
X44304762Y-51073866D01*
X44304762Y-51073866D02*
X44495238Y-51073866D01*
X44495238Y-51073866D02*
X44590476Y-51026247D01*
X44590476Y-51026247D02*
X44638095Y-50978628D01*
X44638095Y-50978628D02*
X44685714Y-50883390D01*
X48957142Y-73654819D02*
X48623809Y-73178628D01*
X48385714Y-73654819D02*
X48385714Y-72654819D01*
X48385714Y-72654819D02*
X48766666Y-72654819D01*
X48766666Y-72654819D02*
X48861904Y-72702438D01*
X48861904Y-72702438D02*
X48909523Y-72750057D01*
X48909523Y-72750057D02*
X48957142Y-72845295D01*
X48957142Y-72845295D02*
X48957142Y-72988152D01*
X48957142Y-72988152D02*
X48909523Y-73083390D01*
X48909523Y-73083390D02*
X48861904Y-73131009D01*
X48861904Y-73131009D02*
X48766666Y-73178628D01*
X48766666Y-73178628D02*
X48385714Y-73178628D01*
X49909523Y-73654819D02*
X49338095Y-73654819D01*
X49623809Y-73654819D02*
X49623809Y-72654819D01*
X49623809Y-72654819D02*
X49528571Y-72797676D01*
X49528571Y-72797676D02*
X49433333Y-72892914D01*
X49433333Y-72892914D02*
X49338095Y-72940533D01*
X50861904Y-73654819D02*
X50290476Y-73654819D01*
X50576190Y-73654819D02*
X50576190Y-72654819D01*
X50576190Y-72654819D02*
X50480952Y-72797676D01*
X50480952Y-72797676D02*
X50385714Y-72892914D01*
X50385714Y-72892914D02*
X50290476Y-72940533D01*
X58559580Y-56342857D02*
X58607200Y-56390476D01*
X58607200Y-56390476D02*
X58654819Y-56533333D01*
X58654819Y-56533333D02*
X58654819Y-56628571D01*
X58654819Y-56628571D02*
X58607200Y-56771428D01*
X58607200Y-56771428D02*
X58511961Y-56866666D01*
X58511961Y-56866666D02*
X58416723Y-56914285D01*
X58416723Y-56914285D02*
X58226247Y-56961904D01*
X58226247Y-56961904D02*
X58083390Y-56961904D01*
X58083390Y-56961904D02*
X57892914Y-56914285D01*
X57892914Y-56914285D02*
X57797676Y-56866666D01*
X57797676Y-56866666D02*
X57702438Y-56771428D01*
X57702438Y-56771428D02*
X57654819Y-56628571D01*
X57654819Y-56628571D02*
X57654819Y-56533333D01*
X57654819Y-56533333D02*
X57702438Y-56390476D01*
X57702438Y-56390476D02*
X57750057Y-56342857D01*
X58654819Y-55390476D02*
X58654819Y-55961904D01*
X58654819Y-55676190D02*
X57654819Y-55676190D01*
X57654819Y-55676190D02*
X57797676Y-55771428D01*
X57797676Y-55771428D02*
X57892914Y-55866666D01*
X57892914Y-55866666D02*
X57940533Y-55961904D01*
X57654819Y-55057142D02*
X57654819Y-54438095D01*
X57654819Y-54438095D02*
X58035771Y-54771428D01*
X58035771Y-54771428D02*
X58035771Y-54628571D01*
X58035771Y-54628571D02*
X58083390Y-54533333D01*
X58083390Y-54533333D02*
X58131009Y-54485714D01*
X58131009Y-54485714D02*
X58226247Y-54438095D01*
X58226247Y-54438095D02*
X58464342Y-54438095D01*
X58464342Y-54438095D02*
X58559580Y-54485714D01*
X58559580Y-54485714D02*
X58607200Y-54533333D01*
X58607200Y-54533333D02*
X58654819Y-54628571D01*
X58654819Y-54628571D02*
X58654819Y-54914285D01*
X58654819Y-54914285D02*
X58607200Y-55009523D01*
X58607200Y-55009523D02*
X58559580Y-55057142D01*
X48611009Y-45933333D02*
X48611009Y-46266666D01*
X49134819Y-46266666D02*
X48134819Y-46266666D01*
X48134819Y-46266666D02*
X48134819Y-45790476D01*
X48611009Y-45076190D02*
X48658628Y-44933333D01*
X48658628Y-44933333D02*
X48706247Y-44885714D01*
X48706247Y-44885714D02*
X48801485Y-44838095D01*
X48801485Y-44838095D02*
X48944342Y-44838095D01*
X48944342Y-44838095D02*
X49039580Y-44885714D01*
X49039580Y-44885714D02*
X49087200Y-44933333D01*
X49087200Y-44933333D02*
X49134819Y-45028571D01*
X49134819Y-45028571D02*
X49134819Y-45409523D01*
X49134819Y-45409523D02*
X48134819Y-45409523D01*
X48134819Y-45409523D02*
X48134819Y-45076190D01*
X48134819Y-45076190D02*
X48182438Y-44980952D01*
X48182438Y-44980952D02*
X48230057Y-44933333D01*
X48230057Y-44933333D02*
X48325295Y-44885714D01*
X48325295Y-44885714D02*
X48420533Y-44885714D01*
X48420533Y-44885714D02*
X48515771Y-44933333D01*
X48515771Y-44933333D02*
X48563390Y-44980952D01*
X48563390Y-44980952D02*
X48611009Y-45076190D01*
X48611009Y-45076190D02*
X48611009Y-45409523D01*
X48230057Y-44457142D02*
X48182438Y-44409523D01*
X48182438Y-44409523D02*
X48134819Y-44314285D01*
X48134819Y-44314285D02*
X48134819Y-44076190D01*
X48134819Y-44076190D02*
X48182438Y-43980952D01*
X48182438Y-43980952D02*
X48230057Y-43933333D01*
X48230057Y-43933333D02*
X48325295Y-43885714D01*
X48325295Y-43885714D02*
X48420533Y-43885714D01*
X48420533Y-43885714D02*
X48563390Y-43933333D01*
X48563390Y-43933333D02*
X49134819Y-44504761D01*
X49134819Y-44504761D02*
X49134819Y-43885714D01*
X40304819Y-98911904D02*
X41114342Y-98911904D01*
X41114342Y-98911904D02*
X41209580Y-98864285D01*
X41209580Y-98864285D02*
X41257200Y-98816666D01*
X41257200Y-98816666D02*
X41304819Y-98721428D01*
X41304819Y-98721428D02*
X41304819Y-98530952D01*
X41304819Y-98530952D02*
X41257200Y-98435714D01*
X41257200Y-98435714D02*
X41209580Y-98388095D01*
X41209580Y-98388095D02*
X41114342Y-98340476D01*
X41114342Y-98340476D02*
X40304819Y-98340476D01*
X40638152Y-97435714D02*
X41304819Y-97435714D01*
X40257200Y-97673809D02*
X40971485Y-97911904D01*
X40971485Y-97911904D02*
X40971485Y-97292857D01*
D13*
%TO.C,C5*%
X37065000Y-77761252D02*
X37065000Y-77238748D01*
X38535000Y-77761252D02*
X38535000Y-77238748D01*
%TO.C,C6*%
X38535000Y-81038748D02*
X38535000Y-81561252D01*
X37065000Y-81038748D02*
X37065000Y-81561252D01*
%TO.C,C7*%
X38535000Y-88638748D02*
X38535000Y-89161252D01*
X37065000Y-88638748D02*
X37065000Y-89161252D01*
%TO.C,R10*%
X38535000Y-92472936D02*
X38535000Y-92927064D01*
X37065000Y-92472936D02*
X37065000Y-92927064D01*
D11*
%TO.C,J3*%
X25450000Y-53490000D02*
X28950000Y-53490000D01*
X28940260Y-53500720D02*
X25460460Y-56472520D01*
X25457920Y-53508340D02*
X28925020Y-56475060D01*
X25450000Y-56490000D02*
X28950000Y-56490000D01*
X36400000Y-59105000D02*
X36400000Y-102605000D01*
X28950000Y-59105000D02*
X28950000Y-53490000D01*
X28950000Y-59105000D02*
X36400000Y-59105000D01*
X36400000Y-102605000D02*
X28950000Y-102605000D01*
X28950000Y-102605000D02*
X28950000Y-108760000D01*
X28947880Y-105759700D02*
X25455380Y-108746740D01*
X28950000Y-105760000D02*
X25450000Y-105760000D01*
X25442680Y-105767320D02*
X28945340Y-108756900D01*
X28950000Y-108760000D02*
X25450000Y-108760000D01*
X25450000Y-108760000D02*
X25450000Y-53490000D01*
D13*
%TO.C,C4*%
X45461252Y-61235000D02*
X44938748Y-61235000D01*
X45461252Y-59765000D02*
X44938748Y-59765000D01*
%TO.C,C8*%
X55361252Y-87735000D02*
X54838748Y-87735000D01*
X55361252Y-86265000D02*
X54838748Y-86265000D01*
%TO.C,C1*%
X40235000Y-66038748D02*
X40235000Y-66561252D01*
X38765000Y-66038748D02*
X38765000Y-66561252D01*
%TO.C,R1*%
X38765000Y-62527064D02*
X38765000Y-62072936D01*
X40235000Y-62527064D02*
X40235000Y-62072936D01*
%TO.C,R2*%
X29827064Y-46935000D02*
X29372936Y-46935000D01*
X29827064Y-45465000D02*
X29372936Y-45465000D01*
%TO.C,R3*%
X29827064Y-48935000D02*
X29372936Y-48935000D01*
X29827064Y-47465000D02*
X29372936Y-47465000D01*
%TO.C,U1*%
X45000000Y-62340000D02*
X41550000Y-62340000D01*
X45000000Y-62340000D02*
X46950000Y-62340000D01*
X45000000Y-67460000D02*
X43050000Y-67460000D01*
X45000000Y-67460000D02*
X46950000Y-67460000D01*
D11*
%TO.C,J2*%
X14890000Y-58600000D02*
X29470000Y-58600000D01*
X29470000Y-89400000D02*
X29470000Y-58600000D01*
X29470000Y-89400000D02*
X14890000Y-89400000D01*
X14890000Y-89400000D02*
X14890000Y-58600000D01*
D13*
%TO.C,C2*%
X45261252Y-69385000D02*
X44738748Y-69385000D01*
X45261252Y-67915000D02*
X44738748Y-67915000D01*
%TO.C,R4*%
X45227064Y-71435000D02*
X44772936Y-71435000D01*
X45227064Y-69965000D02*
X44772936Y-69965000D01*
%TO.C,JR1*%
X69700000Y-85400000D02*
X69700000Y-95800000D01*
X59700000Y-85400000D02*
X69700000Y-85400000D01*
X69700000Y-95800000D02*
X59700000Y-95800000D01*
X59700000Y-95800000D02*
X59700000Y-85400000D01*
%TO.C,JU1*%
X69700000Y-98420000D02*
X69700000Y-108820000D01*
X59700000Y-98420000D02*
X69700000Y-98420000D01*
X69700000Y-108820000D02*
X59700000Y-108820000D01*
X59700000Y-108820000D02*
X59700000Y-98420000D01*
%TO.C,R6*%
X37065000Y-73927064D02*
X37065000Y-73472936D01*
X38535000Y-73927064D02*
X38535000Y-73472936D01*
%TO.C,R7*%
X38535000Y-84872936D02*
X38535000Y-85327064D01*
X37065000Y-84872936D02*
X37065000Y-85327064D01*
D14*
%TO.C,GOTE1*%
X34781139Y-106881666D02*
X34715553Y-106968880D01*
X34644388Y-106995585D01*
X34540547Y-106974652D01*
X34541138Y-106910919D01*
X34625421Y-106814779D01*
X34732610Y-106806727D01*
X34781139Y-106881666D01*
G36*
X34781139Y-106881666D02*
G01*
X34715553Y-106968880D01*
X34644388Y-106995585D01*
X34540547Y-106974652D01*
X34541138Y-106910919D01*
X34625421Y-106814779D01*
X34732610Y-106806727D01*
X34781139Y-106881666D01*
G37*
X32998667Y-106724373D02*
X32950266Y-106848646D01*
X32866996Y-106971317D01*
X32779462Y-107075402D01*
X32779310Y-107046943D01*
X32836131Y-106924000D01*
X32937169Y-106726263D01*
X32987268Y-106671210D01*
X32998667Y-106724373D01*
G36*
X32998667Y-106724373D02*
G01*
X32950266Y-106848646D01*
X32866996Y-106971317D01*
X32779462Y-107075402D01*
X32779310Y-107046943D01*
X32836131Y-106924000D01*
X32937169Y-106726263D01*
X32987268Y-106671210D01*
X32998667Y-106724373D01*
G37*
X33080741Y-106966333D02*
X33038584Y-107105472D01*
X32998667Y-107178000D01*
X32931579Y-107245769D01*
X32916593Y-107220333D01*
X32958749Y-107081194D01*
X32998667Y-107008666D01*
X33065754Y-106940897D01*
X33080741Y-106966333D01*
G36*
X33080741Y-106966333D02*
G01*
X33038584Y-107105472D01*
X32998667Y-107178000D01*
X32931579Y-107245769D01*
X32916593Y-107220333D01*
X32958749Y-107081194D01*
X32998667Y-107008666D01*
X33065754Y-106940897D01*
X33080741Y-106966333D01*
G37*
X34098165Y-106822045D02*
X34129951Y-106881666D01*
X34116942Y-106990894D01*
X34054343Y-107008666D01*
X33944412Y-106940834D01*
X33930000Y-106881666D01*
X33970906Y-106768925D01*
X34005608Y-106754666D01*
X34098165Y-106822045D01*
G36*
X34098165Y-106822045D02*
G01*
X34129951Y-106881666D01*
X34116942Y-106990894D01*
X34054343Y-107008666D01*
X33944412Y-106940834D01*
X33930000Y-106881666D01*
X33970906Y-106768925D01*
X34005608Y-106754666D01*
X34098165Y-106822045D01*
G37*
X35766104Y-106978690D02*
X35750334Y-107008666D01*
X35670559Y-107089523D01*
X35655673Y-107093333D01*
X35649897Y-107038643D01*
X35665667Y-107008666D01*
X35745441Y-106927809D01*
X35760327Y-106924000D01*
X35766104Y-106978690D01*
G36*
X35766104Y-106978690D02*
G01*
X35750334Y-107008666D01*
X35670559Y-107089523D01*
X35655673Y-107093333D01*
X35649897Y-107038643D01*
X35665667Y-107008666D01*
X35745441Y-106927809D01*
X35760327Y-106924000D01*
X35766104Y-106978690D01*
G37*
X36510575Y-106642415D02*
X36477616Y-106712333D01*
X36347752Y-106943107D01*
X36255820Y-107060815D01*
X36217558Y-107045695D01*
X36217297Y-107039213D01*
X36267781Y-106911943D01*
X36390114Y-106742879D01*
X36497284Y-106627889D01*
X36510575Y-106642415D01*
G36*
X36510575Y-106642415D02*
G01*
X36477616Y-106712333D01*
X36347752Y-106943107D01*
X36255820Y-107060815D01*
X36217558Y-107045695D01*
X36217297Y-107039213D01*
X36267781Y-106911943D01*
X36390114Y-106742879D01*
X36497284Y-106627889D01*
X36510575Y-106642415D01*
G37*
X32484666Y-106712333D02*
X32445791Y-106842378D01*
X32363667Y-107008666D01*
X32279424Y-107132000D01*
X32242722Y-107138121D01*
X32242667Y-107135666D01*
X32281542Y-107005621D01*
X32363667Y-106839333D01*
X32447909Y-106715999D01*
X32484612Y-106709878D01*
X32484666Y-106712333D01*
G36*
X32484666Y-106712333D02*
G01*
X32445791Y-106842378D01*
X32363667Y-107008666D01*
X32279424Y-107132000D01*
X32242722Y-107138121D01*
X32242667Y-107135666D01*
X32281542Y-107005621D01*
X32363667Y-106839333D01*
X32447909Y-106715999D01*
X32484612Y-106709878D01*
X32484666Y-106712333D01*
G37*
X36297554Y-106543000D02*
X36248409Y-106656914D01*
X36123645Y-106833626D01*
X36084104Y-106881666D01*
X35971165Y-107000141D01*
X35936631Y-107004182D01*
X35951321Y-106966333D01*
X36060036Y-106775813D01*
X36175406Y-106616999D01*
X36265217Y-106529278D01*
X36297554Y-106543000D01*
G36*
X36297554Y-106543000D02*
G01*
X36248409Y-106656914D01*
X36123645Y-106833626D01*
X36084104Y-106881666D01*
X35971165Y-107000141D01*
X35936631Y-107004182D01*
X35951321Y-106966333D01*
X36060036Y-106775813D01*
X36175406Y-106616999D01*
X36265217Y-106529278D01*
X36297554Y-106543000D01*
G37*
X32190289Y-106751684D02*
X32129818Y-106893112D01*
X32027928Y-107057179D01*
X31914766Y-107156414D01*
X31831660Y-107163057D01*
X31813334Y-107105696D01*
X31866021Y-107001240D01*
X31995731Y-106837276D01*
X32025000Y-106805001D01*
X32174619Y-106651882D01*
X32226815Y-106631671D01*
X32190289Y-106751684D01*
G36*
X32190289Y-106751684D02*
G01*
X32129818Y-106893112D01*
X32027928Y-107057179D01*
X31914766Y-107156414D01*
X31831660Y-107163057D01*
X31813334Y-107105696D01*
X31866021Y-107001240D01*
X31995731Y-106837276D01*
X32025000Y-106805001D01*
X32174619Y-106651882D01*
X32226815Y-106631671D01*
X32190289Y-106751684D01*
G37*
X32772368Y-106652017D02*
X32710002Y-106819796D01*
X32660000Y-106924000D01*
X32529906Y-107161260D01*
X32461391Y-107250773D01*
X32460947Y-107192480D01*
X32535068Y-106986326D01*
X32560454Y-106924861D01*
X32660703Y-106718491D01*
X32745250Y-106598477D01*
X32767554Y-106586194D01*
X32772368Y-106652017D01*
G36*
X32772368Y-106652017D02*
G01*
X32710002Y-106819796D01*
X32660000Y-106924000D01*
X32529906Y-107161260D01*
X32461391Y-107250773D01*
X32460947Y-107192480D01*
X32535068Y-106986326D01*
X32560454Y-106924861D01*
X32660703Y-106718491D01*
X32745250Y-106598477D01*
X32767554Y-106586194D01*
X32772368Y-106652017D01*
G37*
X36921902Y-106608226D02*
X36911539Y-106628613D01*
X36781510Y-106810107D01*
X36626009Y-106966674D01*
X36506032Y-107065643D01*
X36490828Y-107063712D01*
X36582131Y-106948571D01*
X36638065Y-106881060D01*
X36830134Y-106651855D01*
X36931035Y-106539607D01*
X36956410Y-106529877D01*
X36921902Y-106608226D01*
G36*
X36921902Y-106608226D02*
G01*
X36911539Y-106628613D01*
X36781510Y-106810107D01*
X36626009Y-106966674D01*
X36506032Y-107065643D01*
X36490828Y-107063712D01*
X36582131Y-106948571D01*
X36638065Y-106881060D01*
X36830134Y-106651855D01*
X36931035Y-106539607D01*
X36956410Y-106529877D01*
X36921902Y-106608226D01*
G37*
X37193024Y-106650774D02*
X37119405Y-106811137D01*
X37105000Y-106839333D01*
X36993126Y-107011731D01*
X36895960Y-107092497D01*
X36888625Y-107093333D01*
X36877652Y-107035112D01*
X36955468Y-106890254D01*
X36991388Y-106839333D01*
X37119890Y-106674792D01*
X37200340Y-106588909D01*
X37207763Y-106585333D01*
X37193024Y-106650774D01*
G36*
X37193024Y-106650774D02*
G01*
X37119405Y-106811137D01*
X37105000Y-106839333D01*
X36993126Y-107011731D01*
X36895960Y-107092497D01*
X36888625Y-107093333D01*
X36877652Y-107035112D01*
X36955468Y-106890254D01*
X36991388Y-106839333D01*
X37119890Y-106674792D01*
X37200340Y-106588909D01*
X37207763Y-106585333D01*
X37193024Y-106650774D01*
G37*
X34627382Y-103439441D02*
X34634542Y-103446008D01*
X34686112Y-103588968D01*
X34577089Y-103744131D01*
X34315075Y-103904128D01*
X34048780Y-104013594D01*
X33545658Y-104175822D01*
X33159840Y-104259534D01*
X32901436Y-104263374D01*
X32780555Y-104185988D01*
X32779684Y-104183798D01*
X32765645Y-104014749D01*
X32888430Y-103900089D01*
X33149804Y-103827144D01*
X33397195Y-103765940D01*
X33722773Y-103662792D01*
X34001445Y-103560876D01*
X34319276Y-103447797D01*
X34517891Y-103409139D01*
X34627382Y-103439441D01*
G36*
X34627382Y-103439441D02*
G01*
X34634542Y-103446008D01*
X34686112Y-103588968D01*
X34577089Y-103744131D01*
X34315075Y-103904128D01*
X34048780Y-104013594D01*
X33545658Y-104175822D01*
X33159840Y-104259534D01*
X32901436Y-104263374D01*
X32780555Y-104185988D01*
X32779684Y-104183798D01*
X32765645Y-104014749D01*
X32888430Y-103900089D01*
X33149804Y-103827144D01*
X33397195Y-103765940D01*
X33722773Y-103662792D01*
X34001445Y-103560876D01*
X34319276Y-103447797D01*
X34517891Y-103409139D01*
X34627382Y-103439441D01*
G37*
X35500843Y-103654628D02*
X35792182Y-103800116D01*
X35843055Y-103833666D01*
X36249231Y-104016174D01*
X36502982Y-104046629D01*
X36833539Y-104078552D01*
X37014826Y-104169313D01*
X37041262Y-104315908D01*
X37035328Y-104333121D01*
X36956969Y-104415309D01*
X36779022Y-104457533D01*
X36492694Y-104468666D01*
X36181686Y-104453221D01*
X35938903Y-104389424D01*
X35682140Y-104251082D01*
X35561501Y-104171967D01*
X35289216Y-103964676D01*
X35170707Y-103811809D01*
X35169523Y-103748634D01*
X35288650Y-103636882D01*
X35500843Y-103654628D01*
G36*
X35500843Y-103654628D02*
G01*
X35792182Y-103800116D01*
X35843055Y-103833666D01*
X36249231Y-104016174D01*
X36502982Y-104046629D01*
X36833539Y-104078552D01*
X37014826Y-104169313D01*
X37041262Y-104315908D01*
X37035328Y-104333121D01*
X36956969Y-104415309D01*
X36779022Y-104457533D01*
X36492694Y-104468666D01*
X36181686Y-104453221D01*
X35938903Y-104389424D01*
X35682140Y-104251082D01*
X35561501Y-104171967D01*
X35289216Y-103964676D01*
X35170707Y-103811809D01*
X35169523Y-103748634D01*
X35288650Y-103636882D01*
X35500843Y-103654628D01*
G37*
X36483356Y-104912182D02*
X36539184Y-105129804D01*
X36532518Y-105321495D01*
X36451410Y-105495007D01*
X36267631Y-105706617D01*
X36231644Y-105742944D01*
X35923242Y-105989683D01*
X35653330Y-106072899D01*
X35418743Y-105993194D01*
X35332947Y-105914571D01*
X35221070Y-105711936D01*
X35152274Y-105439704D01*
X35138104Y-105171867D01*
X35187981Y-104985495D01*
X35312699Y-104902053D01*
X35441193Y-104951355D01*
X35527271Y-105104352D01*
X35539963Y-105206842D01*
X35563647Y-105419562D01*
X35607654Y-105546862D01*
X35714961Y-105596319D01*
X35860055Y-105521843D01*
X36008613Y-105352716D01*
X36126310Y-105118216D01*
X36132954Y-105098755D01*
X36247778Y-104880507D01*
X36375018Y-104819114D01*
X36483356Y-104912182D01*
G36*
X36483356Y-104912182D02*
G01*
X36539184Y-105129804D01*
X36532518Y-105321495D01*
X36451410Y-105495007D01*
X36267631Y-105706617D01*
X36231644Y-105742944D01*
X35923242Y-105989683D01*
X35653330Y-106072899D01*
X35418743Y-105993194D01*
X35332947Y-105914571D01*
X35221070Y-105711936D01*
X35152274Y-105439704D01*
X35138104Y-105171867D01*
X35187981Y-104985495D01*
X35312699Y-104902053D01*
X35441193Y-104951355D01*
X35527271Y-105104352D01*
X35539963Y-105206842D01*
X35563647Y-105419562D01*
X35607654Y-105546862D01*
X35714961Y-105596319D01*
X35860055Y-105521843D01*
X36008613Y-105352716D01*
X36126310Y-105118216D01*
X36132954Y-105098755D01*
X36247778Y-104880507D01*
X36375018Y-104819114D01*
X36483356Y-104912182D01*
G37*
X34151984Y-104780674D02*
X34253207Y-104895174D01*
X34254877Y-105093578D01*
X34176794Y-105339670D01*
X34038759Y-105597234D01*
X33860573Y-105830055D01*
X33662034Y-106001916D01*
X33462944Y-106076602D01*
X33443062Y-106077333D01*
X33254380Y-106019260D01*
X33040875Y-105875134D01*
X32992154Y-105829846D01*
X32811271Y-105594635D01*
X32747104Y-105331741D01*
X32744667Y-105246237D01*
X32773902Y-104995399D01*
X32853838Y-104868701D01*
X32861350Y-104865341D01*
X33019791Y-104877397D01*
X33130888Y-105024055D01*
X33168000Y-105244621D01*
X33232639Y-105474332D01*
X33336906Y-105569104D01*
X33461331Y-105607520D01*
X33564645Y-105542701D01*
X33675256Y-105381583D01*
X33785583Y-105179225D01*
X33842798Y-105032499D01*
X33845017Y-105014766D01*
X33911197Y-104862218D01*
X34056389Y-104775322D01*
X34151984Y-104780674D01*
G36*
X34151984Y-104780674D02*
G01*
X34253207Y-104895174D01*
X34254877Y-105093578D01*
X34176794Y-105339670D01*
X34038759Y-105597234D01*
X33860573Y-105830055D01*
X33662034Y-106001916D01*
X33462944Y-106076602D01*
X33443062Y-106077333D01*
X33254380Y-106019260D01*
X33040875Y-105875134D01*
X32992154Y-105829846D01*
X32811271Y-105594635D01*
X32747104Y-105331741D01*
X32744667Y-105246237D01*
X32773902Y-104995399D01*
X32853838Y-104868701D01*
X32861350Y-104865341D01*
X33019791Y-104877397D01*
X33130888Y-105024055D01*
X33168000Y-105244621D01*
X33232639Y-105474332D01*
X33336906Y-105569104D01*
X33461331Y-105607520D01*
X33564645Y-105542701D01*
X33675256Y-105381583D01*
X33785583Y-105179225D01*
X33842798Y-105032499D01*
X33845017Y-105014766D01*
X33911197Y-104862218D01*
X34056389Y-104775322D01*
X34151984Y-104780674D01*
G37*
X33607955Y-107987219D02*
X33796496Y-108089485D01*
X33813578Y-108102527D01*
X33978312Y-108215840D01*
X34086252Y-108222880D01*
X34182567Y-108152963D01*
X34389879Y-108034858D01*
X34570553Y-108083261D01*
X34654676Y-108172833D01*
X34738117Y-108262355D01*
X34824932Y-108249487D01*
X34971741Y-108124915D01*
X34977202Y-108119788D01*
X35164489Y-107998648D01*
X35335774Y-107972085D01*
X35441260Y-108041776D01*
X35454000Y-108103730D01*
X35394660Y-108238184D01*
X35248787Y-108422751D01*
X35064602Y-108607998D01*
X34890326Y-108744492D01*
X34789063Y-108785370D01*
X34592821Y-108739696D01*
X34526654Y-108706256D01*
X34356375Y-108664127D01*
X34167376Y-108675691D01*
X33954421Y-108666197D01*
X33737331Y-108576628D01*
X33545239Y-108436059D01*
X33407280Y-108273564D01*
X33352586Y-108118220D01*
X33410290Y-107999101D01*
X33461844Y-107971572D01*
X33607955Y-107987219D01*
G36*
X33607955Y-107987219D02*
G01*
X33796496Y-108089485D01*
X33813578Y-108102527D01*
X33978312Y-108215840D01*
X34086252Y-108222880D01*
X34182567Y-108152963D01*
X34389879Y-108034858D01*
X34570553Y-108083261D01*
X34654676Y-108172833D01*
X34738117Y-108262355D01*
X34824932Y-108249487D01*
X34971741Y-108124915D01*
X34977202Y-108119788D01*
X35164489Y-107998648D01*
X35335774Y-107972085D01*
X35441260Y-108041776D01*
X35454000Y-108103730D01*
X35394660Y-108238184D01*
X35248787Y-108422751D01*
X35064602Y-108607998D01*
X34890326Y-108744492D01*
X34789063Y-108785370D01*
X34592821Y-108739696D01*
X34526654Y-108706256D01*
X34356375Y-108664127D01*
X34167376Y-108675691D01*
X33954421Y-108666197D01*
X33737331Y-108576628D01*
X33545239Y-108436059D01*
X33407280Y-108273564D01*
X33352586Y-108118220D01*
X33410290Y-107999101D01*
X33461844Y-107971572D01*
X33607955Y-107987219D01*
G37*
X34099334Y-101404484D02*
X34144447Y-101521512D01*
X34208691Y-101622524D01*
X34288475Y-101710076D01*
X34385612Y-101727480D01*
X34556537Y-101675772D01*
X34670645Y-101630999D01*
X35039344Y-101537396D01*
X35482480Y-101528687D01*
X36020845Y-101606805D01*
X36675228Y-101773685D01*
X36882855Y-101836825D01*
X37343707Y-101980918D01*
X37673757Y-102076618D01*
X37904691Y-102123190D01*
X38068197Y-102119898D01*
X38195960Y-102066009D01*
X38319666Y-101960787D01*
X38471003Y-101803498D01*
X38474427Y-101799922D01*
X38699966Y-101570356D01*
X38834873Y-101455627D01*
X38901952Y-101444848D01*
X38924009Y-101527135D01*
X38925334Y-101584676D01*
X38951028Y-101692418D01*
X39059400Y-101720257D01*
X39210903Y-101702345D01*
X39431758Y-101695234D01*
X39554044Y-101749172D01*
X39554566Y-101750002D01*
X39540225Y-101828136D01*
X39459497Y-101844420D01*
X39296414Y-101896041D01*
X39090920Y-102022744D01*
X39052334Y-102053042D01*
X38798334Y-102261243D01*
X39120830Y-102264288D01*
X39324185Y-102285228D01*
X39396286Y-102336652D01*
X39391000Y-102352000D01*
X39272986Y-102420282D01*
X39153170Y-102436895D01*
X39063349Y-102450574D01*
X39070404Y-102507697D01*
X39187209Y-102632892D01*
X39319169Y-102754395D01*
X39796816Y-103281520D01*
X40162079Y-103907455D01*
X40377116Y-104472906D01*
X40460163Y-104763925D01*
X40516230Y-105038356D01*
X40550093Y-105341141D01*
X40566527Y-105717217D01*
X40570307Y-106211524D01*
X40570111Y-106289000D01*
X40546052Y-107046868D01*
X40474011Y-107675177D01*
X40345865Y-108208941D01*
X40153495Y-108683177D01*
X39922049Y-109083000D01*
X39754563Y-109322212D01*
X39618423Y-109452208D01*
X39459288Y-109509823D01*
X39263346Y-109529524D01*
X38788660Y-109477596D01*
X38525237Y-109373534D01*
X38174076Y-109123867D01*
X37918422Y-108764554D01*
X37742739Y-108272973D01*
X37728386Y-108213140D01*
X37628632Y-107780982D01*
X37385023Y-108087524D01*
X37056819Y-108428483D01*
X36654593Y-108700193D01*
X36131611Y-108933962D01*
X36108971Y-108942427D01*
X35212197Y-109216885D01*
X34389818Y-109346786D01*
X33645390Y-109332206D01*
X32982469Y-109173222D01*
X32404613Y-108869911D01*
X32394357Y-108862664D01*
X32231763Y-108762182D01*
X32134238Y-108765124D01*
X32061857Y-108835598D01*
X31801643Y-109032570D01*
X31435698Y-109160951D01*
X31015983Y-109213853D01*
X30594460Y-109184387D01*
X30245178Y-109076460D01*
X30067328Y-108977041D01*
X29951967Y-108856079D01*
X29880066Y-108672818D01*
X29832597Y-108386503D01*
X29808366Y-108151593D01*
X29953669Y-108151593D01*
X29961480Y-108382727D01*
X29999792Y-108538855D01*
X30077000Y-108666863D01*
X30136376Y-108739123D01*
X30316068Y-108899565D01*
X30544416Y-108986074D01*
X30776557Y-109019537D01*
X31190560Y-109034300D01*
X31502930Y-108977276D01*
X31770652Y-108835962D01*
X31835867Y-108787115D01*
X32055247Y-108614550D01*
X31814815Y-108351312D01*
X31624711Y-108029213D01*
X31516881Y-107590861D01*
X31490129Y-107067333D01*
X31543264Y-106489708D01*
X31675090Y-105889067D01*
X31884415Y-105296487D01*
X31936666Y-105179093D01*
X32087684Y-104822497D01*
X32211698Y-104474949D01*
X32286632Y-104199790D01*
X32294915Y-104151166D01*
X32342844Y-103931603D01*
X32405032Y-103804223D01*
X32429302Y-103791333D01*
X32485579Y-103863881D01*
X32483665Y-104059321D01*
X32430752Y-104344341D01*
X32334036Y-104685632D01*
X32200709Y-105049885D01*
X32115035Y-105246532D01*
X31856037Y-105945577D01*
X31711598Y-106658557D01*
X31689856Y-107337071D01*
X31719263Y-107600081D01*
X31777426Y-107873375D01*
X31870207Y-108078348D01*
X32034306Y-108277832D01*
X32218202Y-108454237D01*
X32771259Y-108862661D01*
X33369665Y-109108960D01*
X34022958Y-109196511D01*
X34291685Y-109188571D01*
X34783564Y-109121176D01*
X35335137Y-108993750D01*
X35886927Y-108824217D01*
X36379457Y-108630506D01*
X36706027Y-108460887D01*
X36964889Y-108254572D01*
X37222674Y-107977286D01*
X37338715Y-107818537D01*
X37608377Y-107400741D01*
X37585431Y-106167537D01*
X37560042Y-105473557D01*
X37508201Y-104913854D01*
X37423275Y-104454537D01*
X37298633Y-104061713D01*
X37127642Y-103701491D01*
X37089832Y-103634740D01*
X36965573Y-103377913D01*
X36940632Y-103215691D01*
X36956097Y-103186703D01*
X37033119Y-103215499D01*
X37162030Y-103388743D01*
X37333185Y-103693124D01*
X37357882Y-103741330D01*
X37679890Y-104375735D01*
X37748711Y-106009701D01*
X37779802Y-106703612D01*
X37809652Y-107251631D01*
X37841007Y-107677151D01*
X37876615Y-108003568D01*
X37919222Y-108254274D01*
X37971575Y-108452663D01*
X38036421Y-108622131D01*
X38061987Y-108677707D01*
X38269696Y-108967650D01*
X38559879Y-109187765D01*
X38891657Y-109325036D01*
X39224153Y-109366445D01*
X39516488Y-109298979D01*
X39667248Y-109188833D01*
X39953750Y-108781418D01*
X40186618Y-108245907D01*
X40360407Y-107616534D01*
X40469675Y-106927533D01*
X40508981Y-106213138D01*
X40472881Y-105507583D01*
X40357084Y-104849666D01*
X40245749Y-104471743D01*
X40109694Y-104103921D01*
X39967712Y-103789885D01*
X39838598Y-103573319D01*
X39782150Y-103513251D01*
X39645012Y-103364770D01*
X39519797Y-103168040D01*
X39375290Y-102973772D01*
X39213528Y-102856905D01*
X39030353Y-102753341D01*
X38819445Y-102590057D01*
X38792132Y-102565334D01*
X38640912Y-102405190D01*
X38606369Y-102287925D01*
X38653901Y-102179117D01*
X38749527Y-101988148D01*
X38730836Y-101917189D01*
X38607055Y-101970447D01*
X38456721Y-102089229D01*
X38260623Y-102241909D01*
X38074324Y-102320918D01*
X37826878Y-102349432D01*
X37652387Y-102352000D01*
X37383002Y-102339079D01*
X37200497Y-102305363D01*
X37147334Y-102267333D01*
X37214819Y-102183068D01*
X37253167Y-102174227D01*
X37302653Y-102153981D01*
X37225154Y-102119592D01*
X37061397Y-102080311D01*
X36852107Y-102045386D01*
X36638009Y-102024065D01*
X36581881Y-102021772D01*
X36324745Y-101986058D01*
X36128515Y-101907616D01*
X36097571Y-101882808D01*
X35808568Y-101694060D01*
X35441246Y-101634855D01*
X34984355Y-101704978D01*
X34549528Y-101852942D01*
X34356259Y-101915115D01*
X34234183Y-101884183D01*
X34116619Y-101759654D01*
X33953181Y-101557817D01*
X33855741Y-101739887D01*
X33758300Y-101921957D01*
X33451335Y-101713645D01*
X33205763Y-101560303D01*
X33074787Y-101517532D01*
X33044741Y-101585347D01*
X33082194Y-101714002D01*
X33121269Y-101901465D01*
X33049733Y-101961950D01*
X32870254Y-101894338D01*
X32781718Y-101839737D01*
X32518771Y-101726964D01*
X32212516Y-101678585D01*
X31938351Y-101702024D01*
X31831739Y-101746166D01*
X31817942Y-101812092D01*
X31966747Y-101893081D01*
X32061766Y-101926829D01*
X32285758Y-102023889D01*
X32343904Y-102105312D01*
X32239584Y-102161452D01*
X31976178Y-102182663D01*
X31972104Y-102182666D01*
X31622607Y-102221155D01*
X31321888Y-102355537D01*
X31030167Y-102589852D01*
X30851675Y-102774373D01*
X30813014Y-102863540D01*
X30913481Y-102856469D01*
X31152377Y-102752276D01*
X31157167Y-102749891D01*
X31402878Y-102661972D01*
X31709862Y-102599413D01*
X32032338Y-102565139D01*
X32324525Y-102562078D01*
X32540641Y-102593153D01*
X32633336Y-102655555D01*
X32582846Y-102741727D01*
X32418846Y-102853598D01*
X32317589Y-102904021D01*
X31935831Y-103144289D01*
X31682970Y-103475940D01*
X31557053Y-103823553D01*
X31491635Y-104009191D01*
X31362617Y-104314647D01*
X31183913Y-104709190D01*
X30969435Y-105162086D01*
X30737168Y-105634484D01*
X30483345Y-106143603D01*
X30295465Y-106531584D01*
X30162902Y-106828324D01*
X30075031Y-107063717D01*
X30021224Y-107267661D01*
X29990855Y-107470049D01*
X29973299Y-107700778D01*
X29967962Y-107798568D01*
X29953669Y-108151593D01*
X29808366Y-108151593D01*
X29806952Y-108137893D01*
X29791936Y-107767543D01*
X29826484Y-107413255D01*
X29920611Y-107038910D01*
X30084333Y-106608389D01*
X30327667Y-106085571D01*
X30436209Y-105868746D01*
X30703007Y-105341987D01*
X30904482Y-104940786D01*
X31052244Y-104639854D01*
X31157900Y-104413898D01*
X31233060Y-104237629D01*
X31289331Y-104085755D01*
X31338323Y-103932987D01*
X31363974Y-103847498D01*
X31526144Y-103408241D01*
X31723732Y-103096832D01*
X31983902Y-102871990D01*
X32021377Y-102848403D01*
X32279000Y-102691299D01*
X31982667Y-102692842D01*
X31621803Y-102754056D01*
X31203947Y-102918918D01*
X30784210Y-103164159D01*
X30669796Y-103247150D01*
X30472471Y-103372923D01*
X30381177Y-103372425D01*
X30396139Y-103251587D01*
X30517581Y-103016344D01*
X30653148Y-102805744D01*
X31020263Y-102397866D01*
X31351648Y-102182838D01*
X31771000Y-101971343D01*
X31474667Y-101922567D01*
X31178334Y-101873792D01*
X31601667Y-101682055D01*
X31987842Y-101548101D01*
X32352688Y-101521955D01*
X32419456Y-101526989D01*
X32661599Y-101538972D01*
X32766951Y-101511086D01*
X32770231Y-101449830D01*
X32794304Y-101360046D01*
X32942113Y-101339778D01*
X33183359Y-101388212D01*
X33401889Y-101466828D01*
X33609703Y-101544309D01*
X33723931Y-101547652D01*
X33803228Y-101476856D01*
X33810670Y-101466828D01*
X33932798Y-101362261D01*
X34050477Y-101339101D01*
X34099334Y-101404484D01*
G36*
X34099334Y-101404484D02*
G01*
X34144447Y-101521512D01*
X34208691Y-101622524D01*
X34288475Y-101710076D01*
X34385612Y-101727480D01*
X34556537Y-101675772D01*
X34670645Y-101630999D01*
X35039344Y-101537396D01*
X35482480Y-101528687D01*
X36020845Y-101606805D01*
X36675228Y-101773685D01*
X36882855Y-101836825D01*
X37343707Y-101980918D01*
X37673757Y-102076618D01*
X37904691Y-102123190D01*
X38068197Y-102119898D01*
X38195960Y-102066009D01*
X38319666Y-101960787D01*
X38471003Y-101803498D01*
X38474427Y-101799922D01*
X38699966Y-101570356D01*
X38834873Y-101455627D01*
X38901952Y-101444848D01*
X38924009Y-101527135D01*
X38925334Y-101584676D01*
X38951028Y-101692418D01*
X39059400Y-101720257D01*
X39210903Y-101702345D01*
X39431758Y-101695234D01*
X39554044Y-101749172D01*
X39554566Y-101750002D01*
X39540225Y-101828136D01*
X39459497Y-101844420D01*
X39296414Y-101896041D01*
X39090920Y-102022744D01*
X39052334Y-102053042D01*
X38798334Y-102261243D01*
X39120830Y-102264288D01*
X39324185Y-102285228D01*
X39396286Y-102336652D01*
X39391000Y-102352000D01*
X39272986Y-102420282D01*
X39153170Y-102436895D01*
X39063349Y-102450574D01*
X39070404Y-102507697D01*
X39187209Y-102632892D01*
X39319169Y-102754395D01*
X39796816Y-103281520D01*
X40162079Y-103907455D01*
X40377116Y-104472906D01*
X40460163Y-104763925D01*
X40516230Y-105038356D01*
X40550093Y-105341141D01*
X40566527Y-105717217D01*
X40570307Y-106211524D01*
X40570111Y-106289000D01*
X40546052Y-107046868D01*
X40474011Y-107675177D01*
X40345865Y-108208941D01*
X40153495Y-108683177D01*
X39922049Y-109083000D01*
X39754563Y-109322212D01*
X39618423Y-109452208D01*
X39459288Y-109509823D01*
X39263346Y-109529524D01*
X38788660Y-109477596D01*
X38525237Y-109373534D01*
X38174076Y-109123867D01*
X37918422Y-108764554D01*
X37742739Y-108272973D01*
X37728386Y-108213140D01*
X37628632Y-107780982D01*
X37385023Y-108087524D01*
X37056819Y-108428483D01*
X36654593Y-108700193D01*
X36131611Y-108933962D01*
X36108971Y-108942427D01*
X35212197Y-109216885D01*
X34389818Y-109346786D01*
X33645390Y-109332206D01*
X32982469Y-109173222D01*
X32404613Y-108869911D01*
X32394357Y-108862664D01*
X32231763Y-108762182D01*
X32134238Y-108765124D01*
X32061857Y-108835598D01*
X31801643Y-109032570D01*
X31435698Y-109160951D01*
X31015983Y-109213853D01*
X30594460Y-109184387D01*
X30245178Y-109076460D01*
X30067328Y-108977041D01*
X29951967Y-108856079D01*
X29880066Y-108672818D01*
X29832597Y-108386503D01*
X29808366Y-108151593D01*
X29953669Y-108151593D01*
X29961480Y-108382727D01*
X29999792Y-108538855D01*
X30077000Y-108666863D01*
X30136376Y-108739123D01*
X30316068Y-108899565D01*
X30544416Y-108986074D01*
X30776557Y-109019537D01*
X31190560Y-109034300D01*
X31502930Y-108977276D01*
X31770652Y-108835962D01*
X31835867Y-108787115D01*
X32055247Y-108614550D01*
X31814815Y-108351312D01*
X31624711Y-108029213D01*
X31516881Y-107590861D01*
X31490129Y-107067333D01*
X31543264Y-106489708D01*
X31675090Y-105889067D01*
X31884415Y-105296487D01*
X31936666Y-105179093D01*
X32087684Y-104822497D01*
X32211698Y-104474949D01*
X32286632Y-104199790D01*
X32294915Y-104151166D01*
X32342844Y-103931603D01*
X32405032Y-103804223D01*
X32429302Y-103791333D01*
X32485579Y-103863881D01*
X32483665Y-104059321D01*
X32430752Y-104344341D01*
X32334036Y-104685632D01*
X32200709Y-105049885D01*
X32115035Y-105246532D01*
X31856037Y-105945577D01*
X31711598Y-106658557D01*
X31689856Y-107337071D01*
X31719263Y-107600081D01*
X31777426Y-107873375D01*
X31870207Y-108078348D01*
X32034306Y-108277832D01*
X32218202Y-108454237D01*
X32771259Y-108862661D01*
X33369665Y-109108960D01*
X34022958Y-109196511D01*
X34291685Y-109188571D01*
X34783564Y-109121176D01*
X35335137Y-108993750D01*
X35886927Y-108824217D01*
X36379457Y-108630506D01*
X36706027Y-108460887D01*
X36964889Y-108254572D01*
X37222674Y-107977286D01*
X37338715Y-107818537D01*
X37608377Y-107400741D01*
X37585431Y-106167537D01*
X37560042Y-105473557D01*
X37508201Y-104913854D01*
X37423275Y-104454537D01*
X37298633Y-104061713D01*
X37127642Y-103701491D01*
X37089832Y-103634740D01*
X36965573Y-103377913D01*
X36940632Y-103215691D01*
X36956097Y-103186703D01*
X37033119Y-103215499D01*
X37162030Y-103388743D01*
X37333185Y-103693124D01*
X37357882Y-103741330D01*
X37679890Y-104375735D01*
X37748711Y-106009701D01*
X37779802Y-106703612D01*
X37809652Y-107251631D01*
X37841007Y-107677151D01*
X37876615Y-108003568D01*
X37919222Y-108254274D01*
X37971575Y-108452663D01*
X38036421Y-108622131D01*
X38061987Y-108677707D01*
X38269696Y-108967650D01*
X38559879Y-109187765D01*
X38891657Y-109325036D01*
X39224153Y-109366445D01*
X39516488Y-109298979D01*
X39667248Y-109188833D01*
X39953750Y-108781418D01*
X40186618Y-108245907D01*
X40360407Y-107616534D01*
X40469675Y-106927533D01*
X40508981Y-106213138D01*
X40472881Y-105507583D01*
X40357084Y-104849666D01*
X40245749Y-104471743D01*
X40109694Y-104103921D01*
X39967712Y-103789885D01*
X39838598Y-103573319D01*
X39782150Y-103513251D01*
X39645012Y-103364770D01*
X39519797Y-103168040D01*
X39375290Y-102973772D01*
X39213528Y-102856905D01*
X39030353Y-102753341D01*
X38819445Y-102590057D01*
X38792132Y-102565334D01*
X38640912Y-102405190D01*
X38606369Y-102287925D01*
X38653901Y-102179117D01*
X38749527Y-101988148D01*
X38730836Y-101917189D01*
X38607055Y-101970447D01*
X38456721Y-102089229D01*
X38260623Y-102241909D01*
X38074324Y-102320918D01*
X37826878Y-102349432D01*
X37652387Y-102352000D01*
X37383002Y-102339079D01*
X37200497Y-102305363D01*
X37147334Y-102267333D01*
X37214819Y-102183068D01*
X37253167Y-102174227D01*
X37302653Y-102153981D01*
X37225154Y-102119592D01*
X37061397Y-102080311D01*
X36852107Y-102045386D01*
X36638009Y-102024065D01*
X36581881Y-102021772D01*
X36324745Y-101986058D01*
X36128515Y-101907616D01*
X36097571Y-101882808D01*
X35808568Y-101694060D01*
X35441246Y-101634855D01*
X34984355Y-101704978D01*
X34549528Y-101852942D01*
X34356259Y-101915115D01*
X34234183Y-101884183D01*
X34116619Y-101759654D01*
X33953181Y-101557817D01*
X33855741Y-101739887D01*
X33758300Y-101921957D01*
X33451335Y-101713645D01*
X33205763Y-101560303D01*
X33074787Y-101517532D01*
X33044741Y-101585347D01*
X33082194Y-101714002D01*
X33121269Y-101901465D01*
X33049733Y-101961950D01*
X32870254Y-101894338D01*
X32781718Y-101839737D01*
X32518771Y-101726964D01*
X32212516Y-101678585D01*
X31938351Y-101702024D01*
X31831739Y-101746166D01*
X31817942Y-101812092D01*
X31966747Y-101893081D01*
X32061766Y-101926829D01*
X32285758Y-102023889D01*
X32343904Y-102105312D01*
X32239584Y-102161452D01*
X31976178Y-102182663D01*
X31972104Y-102182666D01*
X31622607Y-102221155D01*
X31321888Y-102355537D01*
X31030167Y-102589852D01*
X30851675Y-102774373D01*
X30813014Y-102863540D01*
X30913481Y-102856469D01*
X31152377Y-102752276D01*
X31157167Y-102749891D01*
X31402878Y-102661972D01*
X31709862Y-102599413D01*
X32032338Y-102565139D01*
X32324525Y-102562078D01*
X32540641Y-102593153D01*
X32633336Y-102655555D01*
X32582846Y-102741727D01*
X32418846Y-102853598D01*
X32317589Y-102904021D01*
X31935831Y-103144289D01*
X31682970Y-103475940D01*
X31557053Y-103823553D01*
X31491635Y-104009191D01*
X31362617Y-104314647D01*
X31183913Y-104709190D01*
X30969435Y-105162086D01*
X30737168Y-105634484D01*
X30483345Y-106143603D01*
X30295465Y-106531584D01*
X30162902Y-106828324D01*
X30075031Y-107063717D01*
X30021224Y-107267661D01*
X29990855Y-107470049D01*
X29973299Y-107700778D01*
X29967962Y-107798568D01*
X29953669Y-108151593D01*
X29808366Y-108151593D01*
X29806952Y-108137893D01*
X29791936Y-107767543D01*
X29826484Y-107413255D01*
X29920611Y-107038910D01*
X30084333Y-106608389D01*
X30327667Y-106085571D01*
X30436209Y-105868746D01*
X30703007Y-105341987D01*
X30904482Y-104940786D01*
X31052244Y-104639854D01*
X31157900Y-104413898D01*
X31233060Y-104237629D01*
X31289331Y-104085755D01*
X31338323Y-103932987D01*
X31363974Y-103847498D01*
X31526144Y-103408241D01*
X31723732Y-103096832D01*
X31983902Y-102871990D01*
X32021377Y-102848403D01*
X32279000Y-102691299D01*
X31982667Y-102692842D01*
X31621803Y-102754056D01*
X31203947Y-102918918D01*
X30784210Y-103164159D01*
X30669796Y-103247150D01*
X30472471Y-103372923D01*
X30381177Y-103372425D01*
X30396139Y-103251587D01*
X30517581Y-103016344D01*
X30653148Y-102805744D01*
X31020263Y-102397866D01*
X31351648Y-102182838D01*
X31771000Y-101971343D01*
X31474667Y-101922567D01*
X31178334Y-101873792D01*
X31601667Y-101682055D01*
X31987842Y-101548101D01*
X32352688Y-101521955D01*
X32419456Y-101526989D01*
X32661599Y-101538972D01*
X32766951Y-101511086D01*
X32770231Y-101449830D01*
X32794304Y-101360046D01*
X32942113Y-101339778D01*
X33183359Y-101388212D01*
X33401889Y-101466828D01*
X33609703Y-101544309D01*
X33723931Y-101547652D01*
X33803228Y-101476856D01*
X33810670Y-101466828D01*
X33932798Y-101362261D01*
X34050477Y-101339101D01*
X34099334Y-101404484D01*
G37*
D15*
%TO.C,J4*%
X71600000Y-69600000D02*
X67910000Y-69600000D01*
X71600000Y-69600000D02*
X71600000Y-83600000D01*
X58600000Y-69600000D02*
X64250000Y-69600000D01*
X71600000Y-83600000D02*
X67910000Y-83600000D01*
X58600000Y-83600000D02*
X58600000Y-69600000D01*
X58600000Y-83600000D02*
X64250000Y-83600000D01*
D16*
X63300000Y-68940000D02*
G75*
G02*
X62900000Y-68940000I-200000J0D01*
G01*
X62900000Y-68940000D02*
G75*
G02*
X63300000Y-68940000I200000J0D01*
G01*
D13*
%TO.C,JR2*%
X69900000Y-55600000D02*
X69900000Y-66000000D01*
X59900000Y-55600000D02*
X69900000Y-55600000D01*
X69900000Y-66000000D02*
X59900000Y-66000000D01*
X59900000Y-66000000D02*
X59900000Y-55600000D01*
%TO.C,R12*%
X47635000Y-73672936D02*
X47635000Y-74127064D01*
X46165000Y-73672936D02*
X46165000Y-74127064D01*
%TO.C,R13*%
X53435000Y-73672936D02*
X53435000Y-74127064D01*
X51965000Y-73672936D02*
X51965000Y-74127064D01*
%TO.C,R14*%
X55635000Y-73672936D02*
X55635000Y-74127064D01*
X54165000Y-73672936D02*
X54165000Y-74127064D01*
%TO.C,X1*%
X54080000Y-96680000D02*
X54080000Y-96150000D01*
X57680000Y-96680000D02*
X54080000Y-96680000D01*
X57680000Y-96150000D02*
X57680000Y-96680000D01*
X57920000Y-96150000D02*
X57680000Y-96150000D01*
X54080000Y-94350000D02*
X54080000Y-93610000D01*
X57680000Y-94350000D02*
X57920000Y-94350000D01*
X57680000Y-93610000D02*
X57680000Y-94350000D01*
X54080000Y-91810000D02*
X54080000Y-91280000D01*
X54080000Y-91280000D02*
X57680000Y-91280000D01*
X57680000Y-91280000D02*
X57680000Y-91810000D01*
%TO.C,C11*%
X47365000Y-98361252D02*
X47365000Y-97838748D01*
X48835000Y-98361252D02*
X48835000Y-97838748D01*
%TO.C,U5*%
X41390000Y-81100000D02*
X41390000Y-85550000D01*
X41390000Y-81100000D02*
X41390000Y-78450000D01*
X56610000Y-81100000D02*
X56610000Y-83750000D01*
X56610000Y-81100000D02*
X56610000Y-78450000D01*
%TO.C,JP1*%
X45900000Y-53950000D02*
X45900000Y-58050000D01*
X43900000Y-53950000D02*
X45900000Y-53950000D01*
X43400000Y-54400000D02*
X43400000Y-55000000D01*
X43700000Y-54700000D02*
X43400000Y-54400000D01*
X43700000Y-54700000D02*
X43400000Y-55000000D01*
X45900000Y-58050000D02*
X43900000Y-58050000D01*
X43900000Y-58050000D02*
X43900000Y-53950000D01*
%TO.C,R5*%
X34127064Y-56735000D02*
X33672936Y-56735000D01*
X34127064Y-55265000D02*
X33672936Y-55265000D01*
%TO.C,U2*%
X33000000Y-54610000D02*
X34800000Y-54610000D01*
X34800000Y-51390000D02*
X32350000Y-51390000D01*
%TO.C,U3*%
X37000000Y-54610000D02*
X38800000Y-54610000D01*
X38800000Y-51390000D02*
X36350000Y-51390000D01*
%TO.C,C14*%
X55847500Y-62562500D02*
X55847500Y-63350000D01*
X56241250Y-62956250D02*
X55453750Y-62956250D01*
X56345563Y-63590000D02*
X55060000Y-63590000D01*
X56345563Y-63590000D02*
X57410000Y-64654437D01*
X51654437Y-63590000D02*
X52940000Y-63590000D01*
X51654437Y-63590000D02*
X50590000Y-64654437D01*
X57410000Y-64654437D02*
X57410000Y-70410000D01*
X50590000Y-64654437D02*
X50590000Y-70410000D01*
X57410000Y-70410000D02*
X55060000Y-70410000D01*
X50590000Y-70410000D02*
X52940000Y-70410000D01*
%TO.C,C3*%
X36235000Y-44338748D02*
X36235000Y-44861252D01*
X34765000Y-44338748D02*
X34765000Y-44861252D01*
%TO.C,C10*%
X47735000Y-48388748D02*
X47735000Y-48911252D01*
X46265000Y-48388748D02*
X46265000Y-48911252D01*
%TO.C,R15*%
X49072936Y-90965000D02*
X49527064Y-90965000D01*
X49072936Y-92435000D02*
X49527064Y-92435000D01*
%TO.C,R16*%
X49072936Y-86965000D02*
X49527064Y-86965000D01*
X49072936Y-88435000D02*
X49527064Y-88435000D01*
%TO.C,R17*%
X49072936Y-88965000D02*
X49527064Y-88965000D01*
X49072936Y-90435000D02*
X49527064Y-90435000D01*
%TO.C,C15*%
X43135000Y-88338748D02*
X43135000Y-88861252D01*
X41665000Y-88338748D02*
X41665000Y-88861252D01*
%TO.C,C16*%
X45135000Y-88338748D02*
X45135000Y-88861252D01*
X43665000Y-88338748D02*
X43665000Y-88861252D01*
%TO.C,C17*%
X47135000Y-88338748D02*
X47135000Y-88861252D01*
X45665000Y-88338748D02*
X45665000Y-88861252D01*
%TO.C,C12*%
X57562500Y-49152500D02*
X58350000Y-49152500D01*
X57956250Y-48758750D02*
X57956250Y-49546250D01*
X58590000Y-48654437D02*
X58590000Y-49940000D01*
X58590000Y-48654437D02*
X59654437Y-47590000D01*
X58590000Y-53345563D02*
X58590000Y-52060000D01*
X58590000Y-53345563D02*
X59654437Y-54410000D01*
X59654437Y-47590000D02*
X65410000Y-47590000D01*
X59654437Y-54410000D02*
X65410000Y-54410000D01*
X65410000Y-47590000D02*
X65410000Y-49940000D01*
X65410000Y-54410000D02*
X65410000Y-52060000D01*
%TO.C,R18*%
X43135000Y-91772936D02*
X43135000Y-92227064D01*
X41665000Y-91772936D02*
X41665000Y-92227064D01*
%TO.C,R19*%
X45135000Y-91772936D02*
X45135000Y-92227064D01*
X43665000Y-91772936D02*
X43665000Y-92227064D01*
%TO.C,R20*%
X47135000Y-91772936D02*
X47135000Y-92227064D01*
X45665000Y-91772936D02*
X45665000Y-92227064D01*
%TO.C,FB1*%
X31738748Y-42765000D02*
X32261252Y-42765000D01*
X31738748Y-44235000D02*
X32261252Y-44235000D01*
%TO.C,R21*%
X53472936Y-88265000D02*
X53927064Y-88265000D01*
X53472936Y-89735000D02*
X53927064Y-89735000D01*
%TO.C,D1*%
X59685000Y-45960000D02*
X59685000Y-44040000D01*
X59685000Y-44040000D02*
X57000000Y-44040000D01*
X57000000Y-45960000D02*
X59685000Y-45960000D01*
%TO.C,R22*%
X53362936Y-44265000D02*
X53817064Y-44265000D01*
X53362936Y-45735000D02*
X53817064Y-45735000D01*
%TO.C,C9*%
X43047500Y-42462500D02*
X43047500Y-43250000D01*
X43441250Y-42856250D02*
X42653750Y-42856250D01*
X43545563Y-43490000D02*
X42260000Y-43490000D01*
X43545563Y-43490000D02*
X44610000Y-44554437D01*
X38854437Y-43490000D02*
X40140000Y-43490000D01*
X38854437Y-43490000D02*
X37790000Y-44554437D01*
X44610000Y-44554437D02*
X44610000Y-50310000D01*
X37790000Y-44554437D02*
X37790000Y-50310000D01*
X44610000Y-50310000D02*
X42260000Y-50310000D01*
X37790000Y-50310000D02*
X40140000Y-50310000D01*
%TO.C,R11*%
X49927064Y-75535000D02*
X49472936Y-75535000D01*
X49927064Y-74065000D02*
X49472936Y-74065000D01*
%TO.C,C13*%
X49562500Y-56352500D02*
X50350000Y-56352500D01*
X49956250Y-55958750D02*
X49956250Y-56746250D01*
X50590000Y-55854437D02*
X50590000Y-57140000D01*
X50590000Y-55854437D02*
X51654437Y-54790000D01*
X50590000Y-60545563D02*
X50590000Y-59260000D01*
X50590000Y-60545563D02*
X51654437Y-61610000D01*
X51654437Y-54790000D02*
X57410000Y-54790000D01*
X51654437Y-61610000D02*
X57410000Y-61610000D01*
X57410000Y-54790000D02*
X57410000Y-57140000D01*
X57410000Y-61610000D02*
X57410000Y-59260000D01*
%TO.C,FB2*%
X47735000Y-44838748D02*
X47735000Y-45361252D01*
X46265000Y-44838748D02*
X46265000Y-45361252D01*
%TO.C,U4*%
X41690000Y-98150000D02*
X41690000Y-101750000D01*
X41690000Y-98150000D02*
X41690000Y-95950000D01*
X46910000Y-98150000D02*
X46910000Y-100350000D01*
X46910000Y-98150000D02*
X46910000Y-95950000D01*
%TD*%
D17*
%TO.C,J3*%
X34480000Y-99905000D03*
X29400000Y-98000000D03*
X34480000Y-96095000D03*
X29400000Y-94190000D03*
X34480000Y-92285000D03*
X29400000Y-90380000D03*
X34480000Y-88475000D03*
X29400000Y-86570000D03*
X34480000Y-84665000D03*
X29400000Y-82760000D03*
X34480000Y-80855000D03*
X29400000Y-78950000D03*
X34480000Y-77045000D03*
X29400000Y-75140000D03*
X34480000Y-73235000D03*
X29400000Y-71330000D03*
X34480000Y-69425000D03*
X29400000Y-67520000D03*
X34480000Y-65615000D03*
X29400000Y-63710000D03*
X34480000Y-61805000D03*
%TD*%
D18*
%TO.C,J2*%
X27140000Y-78440000D03*
X27140000Y-76150000D03*
X27140000Y-73860000D03*
X27140000Y-71570000D03*
X27140000Y-69280000D03*
X24600000Y-79580000D03*
X24600000Y-77290000D03*
X24600000Y-75000000D03*
X24600000Y-72710000D03*
D19*
X24600000Y-61620000D03*
D18*
X24600000Y-70420000D03*
D19*
X24600000Y-86620000D03*
D18*
X22060000Y-78440000D03*
X22060000Y-76150000D03*
X22060000Y-73860000D03*
X22060000Y-71570000D03*
X22060000Y-69280000D03*
%TD*%
%LPC*%
D20*
%TO.C,C5*%
X37800000Y-78450000D03*
X37800000Y-76550000D03*
%TD*%
D21*
%TO.C,C6*%
X37800000Y-80350000D03*
X37800000Y-82250000D03*
%TD*%
%TO.C,C7*%
X37800000Y-87950000D03*
X37800000Y-89850000D03*
%TD*%
D22*
%TO.C,R10*%
X37800000Y-91787500D03*
X37800000Y-93612500D03*
%TD*%
D23*
%TO.C,J3*%
X27200000Y-55000000D03*
X27200000Y-107270000D03*
D24*
X34480000Y-99905000D03*
X29400000Y-98000000D03*
X34480000Y-96095000D03*
X29400000Y-94190000D03*
X34480000Y-92285000D03*
X29400000Y-90380000D03*
X34480000Y-88475000D03*
X29400000Y-86570000D03*
X34480000Y-84665000D03*
X29400000Y-82760000D03*
X34480000Y-80855000D03*
X29400000Y-78950000D03*
X34480000Y-77045000D03*
X29400000Y-75140000D03*
X34480000Y-73235000D03*
X29400000Y-71330000D03*
X34480000Y-69425000D03*
X29400000Y-67520000D03*
X34480000Y-65615000D03*
X29400000Y-63710000D03*
X34480000Y-61805000D03*
%TD*%
D25*
%TO.C,C4*%
X46150000Y-60500000D03*
X44250000Y-60500000D03*
%TD*%
%TO.C,C8*%
X56050000Y-87000000D03*
X54150000Y-87000000D03*
%TD*%
D21*
%TO.C,C1*%
X39500000Y-65350000D03*
X39500000Y-67250000D03*
%TD*%
D26*
%TO.C,J1*%
X24950000Y-47100000D03*
D27*
X24950000Y-49120000D03*
D28*
X24950000Y-50350000D03*
D26*
X24950000Y-48100000D03*
D27*
X24950000Y-46080000D03*
D28*
X24950000Y-44850000D03*
D29*
X21000000Y-51920000D03*
X24800000Y-51920000D03*
X21000000Y-43280000D03*
X24800000Y-43280000D03*
%TD*%
D30*
%TO.C,R1*%
X39500000Y-63212500D03*
X39500000Y-61387500D03*
%TD*%
D31*
%TO.C,R2*%
X30512500Y-46200000D03*
X28687500Y-46200000D03*
%TD*%
%TO.C,R3*%
X30512500Y-48200000D03*
X28687500Y-48200000D03*
%TD*%
D32*
%TO.C,U1*%
X42525000Y-62995000D03*
X42525000Y-64265000D03*
X42525000Y-65535000D03*
X42525000Y-66805000D03*
X47475000Y-66805000D03*
X47475000Y-65535000D03*
X47475000Y-64265000D03*
X47475000Y-62995000D03*
%TD*%
D33*
%TO.C,J2*%
X27140000Y-78440000D03*
X27140000Y-76150000D03*
X27140000Y-73860000D03*
X27140000Y-71570000D03*
X27140000Y-69280000D03*
X24600000Y-79580000D03*
X24600000Y-77290000D03*
X24600000Y-75000000D03*
X24600000Y-72710000D03*
D34*
X24600000Y-61620000D03*
D33*
X24600000Y-70420000D03*
D34*
X24600000Y-86620000D03*
D33*
X22060000Y-78440000D03*
X22060000Y-76150000D03*
X22060000Y-73860000D03*
X22060000Y-71570000D03*
X22060000Y-69280000D03*
%TD*%
D25*
%TO.C,C2*%
X45950000Y-68650000D03*
X44050000Y-68650000D03*
%TD*%
D31*
%TO.C,R4*%
X45912500Y-70700000D03*
X44087500Y-70700000D03*
%TD*%
D24*
%TO.C,JR1*%
X68850000Y-86350000D03*
X68850000Y-94850000D03*
D35*
X61200000Y-90600000D03*
X65700000Y-90600000D03*
%TD*%
D24*
%TO.C,JU1*%
X68850000Y-99370000D03*
X68850000Y-107870000D03*
D35*
X61200000Y-103620000D03*
X65700000Y-103620000D03*
%TD*%
D30*
%TO.C,R6*%
X37800000Y-74612500D03*
X37800000Y-72787500D03*
%TD*%
D22*
%TO.C,R7*%
X37800000Y-84187500D03*
X37800000Y-86012500D03*
%TD*%
D36*
%TO.C,J4*%
X63100000Y-73200000D03*
D37*
X63100000Y-80000000D03*
X60600000Y-73200000D03*
X60600000Y-80000000D03*
D38*
X66100000Y-69850000D03*
D39*
X66900000Y-76600000D03*
D38*
X66100000Y-83350000D03*
%TD*%
D24*
%TO.C,JR2*%
X69050000Y-56550000D03*
X69050000Y-65050000D03*
D35*
X61400000Y-60800000D03*
X65900000Y-60800000D03*
%TD*%
D22*
%TO.C,R12*%
X46900000Y-72987500D03*
X46900000Y-74812500D03*
%TD*%
%TO.C,R13*%
X52700000Y-72987500D03*
X52700000Y-74812500D03*
%TD*%
%TO.C,R14*%
X54900000Y-72987500D03*
X54900000Y-74812500D03*
%TD*%
D40*
%TO.C,X1*%
X56980000Y-95250000D03*
X56980000Y-92710000D03*
X54780000Y-92710000D03*
X54780000Y-95250000D03*
%TD*%
D20*
%TO.C,C11*%
X48100000Y-99050000D03*
X48100000Y-97150000D03*
%TD*%
D41*
%TO.C,U5*%
X42015000Y-84562500D03*
X43285000Y-84562500D03*
X44555000Y-84562500D03*
X45825000Y-84562500D03*
X47095000Y-84562500D03*
X48365000Y-84562500D03*
X49635000Y-84562500D03*
X50905000Y-84562500D03*
X52175000Y-84562500D03*
X53445000Y-84562500D03*
X54715000Y-84562500D03*
X55985000Y-84562500D03*
X55985000Y-77637500D03*
X54715000Y-77637500D03*
X53445000Y-77637500D03*
X52175000Y-77637500D03*
X50905000Y-77637500D03*
X49635000Y-77637500D03*
X48365000Y-77637500D03*
X47095000Y-77637500D03*
X45825000Y-77637500D03*
X44555000Y-77637500D03*
X43285000Y-77637500D03*
X42015000Y-77637500D03*
%TD*%
D42*
%TO.C,JP1*%
X44900000Y-54700000D03*
X44900000Y-56000000D03*
X44900000Y-57300000D03*
%TD*%
D31*
%TO.C,R5*%
X34812500Y-56000000D03*
X32987500Y-56000000D03*
%TD*%
D43*
%TO.C,U2*%
X32800000Y-52050000D03*
X32800000Y-53000000D03*
X32800000Y-53950000D03*
X35000000Y-53950000D03*
X35000000Y-52050000D03*
%TD*%
%TO.C,U3*%
X36800000Y-52050000D03*
X36800000Y-53000000D03*
X36800000Y-53950000D03*
X39000000Y-53950000D03*
X39000000Y-52050000D03*
%TD*%
D44*
%TO.C,C14*%
X54000000Y-64200000D03*
X54000000Y-69800000D03*
%TD*%
D21*
%TO.C,C3*%
X35500000Y-43650000D03*
X35500000Y-45550000D03*
%TD*%
%TO.C,C10*%
X47000000Y-47700000D03*
X47000000Y-49600000D03*
%TD*%
D45*
%TO.C,R15*%
X48387500Y-91700000D03*
X50212500Y-91700000D03*
%TD*%
%TO.C,R16*%
X48387500Y-87700000D03*
X50212500Y-87700000D03*
%TD*%
%TO.C,R17*%
X48387500Y-89700000D03*
X50212500Y-89700000D03*
%TD*%
D21*
%TO.C,C15*%
X42400000Y-87650000D03*
X42400000Y-89550000D03*
%TD*%
%TO.C,C16*%
X44400000Y-87650000D03*
X44400000Y-89550000D03*
%TD*%
%TO.C,C17*%
X46400000Y-87650000D03*
X46400000Y-89550000D03*
%TD*%
D46*
%TO.C,C12*%
X59200000Y-51000000D03*
X64800000Y-51000000D03*
%TD*%
D22*
%TO.C,R18*%
X42400000Y-91087500D03*
X42400000Y-92912500D03*
%TD*%
%TO.C,R19*%
X44400000Y-91087500D03*
X44400000Y-92912500D03*
%TD*%
%TO.C,R20*%
X46400000Y-91087500D03*
X46400000Y-92912500D03*
%TD*%
D47*
%TO.C,FB1*%
X31050000Y-43500000D03*
X32950000Y-43500000D03*
%TD*%
D45*
%TO.C,R21*%
X52787500Y-89000000D03*
X54612500Y-89000000D03*
%TD*%
D48*
%TO.C,D1*%
X58937500Y-45000000D03*
X57062500Y-45000000D03*
%TD*%
D45*
%TO.C,R22*%
X52677500Y-45000000D03*
X54502500Y-45000000D03*
%TD*%
D44*
%TO.C,C9*%
X41200000Y-44200000D03*
X41200000Y-49600000D03*
%TD*%
D31*
%TO.C,R11*%
X50612500Y-74800000D03*
X48787500Y-74800000D03*
%TD*%
D46*
%TO.C,C13*%
X51200000Y-58200000D03*
X56800000Y-58200000D03*
%TD*%
D21*
%TO.C,FB2*%
X47000000Y-44150000D03*
X47000000Y-46050000D03*
%TD*%
D49*
%TO.C,U4*%
X42350000Y-101012500D03*
X43000000Y-101012500D03*
X43650000Y-101012500D03*
X44300000Y-101012500D03*
X44950000Y-101012500D03*
X45600000Y-101012500D03*
X46250000Y-101012500D03*
X46250000Y-95287500D03*
X45600000Y-95287500D03*
X44950000Y-95287500D03*
X44300000Y-95287500D03*
X43650000Y-95287500D03*
X43000000Y-95287500D03*
X42350000Y-95287500D03*
%TD*%
%LPD*%
M02*
